<svg xmlns="http://www.w3.org/2000/svg" viewBox="0 0 69.5 69.5"><defs><style>.cls-1{fill:#6a7686;}.cls-2{fill:#fff;}</style></defs><title>Asset 5</title><g id="Layer_2" data-name="Layer 2"><g id="Layer_1-2" data-name="Layer 1"><circle class="cls-1" cx="34.75" cy="34.75" r="34.75"/><path class="cls-2" d="M39.93,21.2H38.12a3.58,3.58,0,0,0-3.37-2.39h-1.4a3.59,3.59,0,0,0-6.76,0h-1.4a3.58,3.58,0,0,0-3.37,2.39H20a3.59,3.59,0,0,0-3.59,3.59V49.5A3.59,3.59,0,0,0,20,53.08H39.93a3.59,3.59,0,0,0,3.59-3.59V24.79A3.59,3.59,0,0,0,39.93,21.2ZM24,22.39a1.2,1.2,0,0,1,1.2-1.2h2.39a1.2,1.2,0,0,0,1.2-1.2,1.2,1.2,0,0,1,2.39,0,1.2,1.2,0,0,0,1.2,1.2h2.39a1.2,1.2,0,0,1,1.2,1.2v1.2H24ZM21.55,32.71a1.2,1.2,0,0,1,1.69,0l1.55,1.55,3.94-3.94A1.2,1.2,0,0,1,30.41,32l-4.78,4.78a1.2,1.2,0,0,1-1.69,0L21.55,34.4A1.2,1.2,0,0,1,21.55,32.71Zm4.08,13.65a1.2,1.2,0,0,1-1.69,0L21.55,44a1.2,1.2,0,0,1,1.69-1.69l1.55,1.55,3.94-3.94a1.2,1.2,0,1,1,1.69,1.69Zm11.91.35H32a1.2,1.2,0,1,1,0-2.39h5.58a1.2,1.2,0,1,1,0,2.39Zm0-4.78H34.35a1.2,1.2,0,1,1,0-2.39h3.19a1.2,1.2,0,1,1,0,2.39Zm0-4.78H32a1.2,1.2,0,1,1,0-2.39h5.58a1.2,1.2,0,1,1,0,2.39Zm0-4.78H34.35a1.2,1.2,0,1,1,0-2.39h3.19a1.2,1.2,0,1,1,0,2.39Z"/><path class="cls-2" d="M45.91,45.91v.63a3.61,3.61,0,0,0,.38,1.6l2.14,4.28a1.2,1.2,0,0,0,2.14,0l2.14-4.28a3.61,3.61,0,0,0,.38-1.6v-.63H45.91Z"/><path class="cls-2" d="M49.5,22a3.59,3.59,0,0,0-3.59,3.59V43.52h7.17V25.58A3.59,3.59,0,0,0,49.5,22Zm1.2,9.57H48.3v-6a1.2,1.2,0,1,1,2.39,0v6Z"/></g></g></svg>