<?xml version="1.0" encoding="utf-8"?>
<!-- Generator: Adobe Illustrator 19.1.0, SVG Export Plug-In . SVG Version: 6.00 Build 0)  -->
<svg version="1.1" id="Layer_1" xmlns="http://www.w3.org/2000/svg" xmlns:xlink="http://www.w3.org/1999/xlink" x="0px" y="0px"
	 viewBox="-964 1466.5 69.5 69.5" style="enable-background:new -964 1466.5 69.5 69.5;" xml:space="preserve">
<style type="text/css">
	.st0{fill:#26C8BE;}
	.st1{fill:#FFFFFF;}
</style>
<title>Asset 6</title>
<circle class="st0" cx="-929.2" cy="1501.2" r="34.8"/>
<path class="st1" d="M-914.2,1486.3c-3.1-3.9-7.8-6.1-12.8-6c-3.7,0-7.3,1.1-10.3,3.2c-3.1,2.1-5.4,5.3-6.5,8.9
	c-0.3,1.2-0.6,2.4-0.8,3.7c-0.3,2.3-1.1,4.4-2.4,6.3c-0.4,0.5-0.6,1.2-0.4,1.9c0.3,0.8,1,1.4,1.9,1.7c0.3,0.1,0.5,0.2,0.7,0.4
	c0.4,0.6,0.4,2.1,0.4,3.4c0,1.9-0.1,3.9,0.9,5.3c1.3,2,3.4,2,5,2c1.9,0,2.8,0,3,2.2c0,0.1,0,0.3,0,0.5c0,0.6,0,1.2,0.2,1.8
	c0.1,0.4,0.6,0.7,1,0.7h18c0.6,0,1-0.4,1-1c0-0.2,0-0.3-0.1-0.5c-2.3-4.7-0.4-9.6,1.6-14.7c1.3-3,2.3-6.2,2.7-9.5
	C-910.7,1492.8-911.9,1489.2-914.2,1486.3z M-930.5,1497.3c0.4,0.4,0.5,1,0.1,1.5c-0.4,0.4-1,0.5-1.5,0.1l0,0l-4.1-3.4
	c-0.4-0.4-0.5-1-0.1-1.5c0-0.1,0.1-0.1,0.1-0.1l4.1-3.4c0.4-0.4,1.1-0.3,1.5,0.1s0.3,1.1-0.1,1.5l-3.1,2.6L-930.5,1497.3z
	 M-923.9,1488.3l-3.9,13.4c-0.2,0.5-0.8,0.8-1.4,0.6c-0.4-0.2-0.7-0.7-0.6-1.1l3.8-13.4c0.2-0.5,0.8-0.8,1.4-0.6
	C-924.2,1487.5-923.9,1487.9-923.9,1488.3L-923.9,1488.3z M-917.8,1495.6l-4.1,3.4c-0.4,0.4-1.1,0.3-1.5-0.1
	c-0.4-0.4-0.3-1.1,0.1-1.5l0,0l3.1-2.6l-3.1-2.6c-0.4-0.4-0.5-1-0.1-1.5c0.4-0.4,1-0.5,1.5-0.1l4.1,3.4c0.4,0.4,0.5,1,0.1,1.5
	C-917.7,1495.5-917.8,1495.5-917.8,1495.6z"/>
<g id="Layer_2_1_">
	<g id="Layer_1-2_1_">
		<circle class="st0" cx="-1273.2" cy="1480.3" r="34.8"/>
		<path class="st1" d="M-1290.8,1480.7c0.1-0.7,0.5-1.4,1-1.9c0.5-0.5,1.2-0.7,1.9-0.7c1.9,0,3.8,0,5.8,0c1.3,0,2.5,0.9,2.8,2.2
			c0.1,0.3,0.1,0.6,0.1,0.9c0,3.7,0,7.5,0,11.2c0.1,1.4-0.8,2.6-2.2,3c-0.3,0.1-0.6,0.1-0.9,0.1c-1.8,0-3.6,0-5.4,0
			c-1.5,0.1-2.8-1-3.1-2.5c0,0,0-0.1,0-0.1L-1290.8,1480.7z M-1282,1481h-5.8v7.2h5.8V1481z"/>
		<path class="st1" d="M-1268.9,1489.8v2.9h4.3v2.9h-11.6v-2.8h4.3v-10.2h13.1v-14.6h-27.7c0-0.6,0-1.1,0-1.7
			c0.1-0.7,0.7-1.3,1.5-1.2h27.5c0.8-0.1,1.5,0.4,1.6,1.2c0,0.2,0,0.3,0,0.5c0,7.2,0,14.3,0,21.5c0.1,0.8-0.5,1.6-1.3,1.7
			c-0.1,0-0.2,0-0.3,0L-1268.9,1489.8L-1268.9,1489.8z"/>
		<path class="st1" d="M-1277.6,1489.8v-5.8h1.4v-8.7h-10.2v1.4h-2.9c0-0.1,0-0.2,0-0.3c0-1.3,0-2.6,0-3.9c-0.1-1.6,1.2-3,2.8-3.1
			c0.1,0,0.2,0,0.3,0h9.9c1.2-0.1,2.3,0.6,2.8,1.6c0.2,0.4,0.3,0.9,0.3,1.4c0,4.8,0,9.6,0,14.4c0,1.6-1.2,3-2.8,3
			c-0.1,0-0.1,0-0.2,0C-1276.7,1489.8-1277.1,1489.8-1277.6,1489.8z"/>
	</g>
</g>
</svg>
