<?xml version="1.0" encoding="utf-8"?>
<!-- Generator: Adobe Illustrator 19.1.0, SVG Export Plug-In . SVG Version: 6.00 Build 0)  -->
<svg version="1.1" id="Layer_1" xmlns="http://www.w3.org/2000/svg" xmlns:xlink="http://www.w3.org/1999/xlink" x="0px" y="0px"
	 viewBox="-964 1466.5 69.5 69.5" style="enable-background:new -964 1466.5 69.5 69.5;" xml:space="preserve">
<style type="text/css">
	.st0{fill:#C1BC00;}
	.st1{fill:#26C8BE;}
	.st2{fill:#FFFFFF;}
</style>
<title>Asset 6</title>
<circle class="st0" cx="-929.2" cy="1501.2" r="34.8"/>
<g id="Layer_2_1_">
	<g id="Layer_1-2_1_">
		<circle class="st1" cx="-1273.2" cy="1480.3" r="34.8"/>
		<path class="st2" d="M-1290.8,1480.7c0.1-0.7,0.5-1.4,1-1.9c0.5-0.5,1.2-0.7,1.9-0.7c1.9,0,3.8,0,5.8,0c1.3,0,2.5,0.9,2.8,2.2
			c0.1,0.3,0.1,0.6,0.1,0.9c0,3.7,0,7.5,0,11.2c0.1,1.4-0.8,2.6-2.2,3c-0.3,0.1-0.6,0.1-0.9,0.1c-1.8,0-3.6,0-5.4,0
			c-1.5,0.1-2.8-1-3.1-2.5c0,0,0-0.1,0-0.1L-1290.8,1480.7z M-1282,1481h-5.8v7.2h5.8V1481z"/>
		<path class="st2" d="M-1268.9,1489.8v2.9h4.3v2.9h-11.6v-2.8h4.3v-10.2h13.1v-14.6h-27.7c0-0.6,0-1.1,0-1.7
			c0.1-0.7,0.7-1.3,1.5-1.2h27.5c0.8-0.1,1.5,0.4,1.6,1.2c0,0.2,0,0.3,0,0.5c0,7.2,0,14.3,0,21.5c0.1,0.8-0.5,1.6-1.3,1.7
			c-0.1,0-0.2,0-0.3,0L-1268.9,1489.8L-1268.9,1489.8z"/>
		<path class="st2" d="M-1277.6,1489.8v-5.8h1.4v-8.7h-10.2v1.4h-2.9c0-0.1,0-0.2,0-0.3c0-1.3,0-2.6,0-3.9c-0.1-1.6,1.2-3,2.8-3.1
			c0.1,0,0.2,0,0.3,0h9.9c1.2-0.1,2.3,0.6,2.8,1.6c0.2,0.4,0.3,0.9,0.3,1.4c0,4.8,0,9.6,0,14.4c0,1.6-1.2,3-2.8,3
			c-0.1,0-0.1,0-0.2,0C-1276.7,1489.8-1277.1,1489.8-1277.6,1489.8z"/>
	</g>
</g>
<path class="st2" d="M-915.3,1483c-2.3,0-4.1,1.8-4.1,4.1c0,0.7,0.2,1.4,0.5,2l-6.8,6.8c-0.9-0.7-2.1-1.2-3.4-1.2
	c-1.3,0-2.4,0.4-3.4,1.2l-5.3-5.3c0.2-0.4,0.4-0.9,0.4-1.4c0-1.5-1.2-2.7-2.7-2.7s-2.7,1.2-2.7,2.7s1.2,2.7,2.7,2.7
	c0.5,0,1-0.1,1.4-0.4l5.3,5.3c-0.7,0.9-1.2,2.1-1.2,3.4c0,1.3,0.4,2.4,1.2,3.4l-8.7,8.7c-0.7-0.7-1.7-1.1-2.8-1.1
	c-2.3,0-4.1,1.8-4.1,4.1s1.8,4.1,4.1,4.1s4.1-1.8,4.1-4.1c0-0.7-0.2-1.4-0.5-2l8.8-8.8c0.8,0.6,1.7,1,2.7,1.1v7
	c-1.9,0.3-3.4,2-3.4,4.1c0,2.3,1.8,4.1,4.1,4.1c2.3,0,4.1-1.8,4.1-4.1c0-2-1.5-3.7-3.4-4.1v-7c1-0.1,1.9-0.5,2.7-1.1l5.3,5.3
	c-0.2,0.4-0.4,0.9-0.4,1.4c0,1.5,1.2,2.7,2.7,2.7c1.5,0,2.7-1.2,2.7-2.7s-1.2-2.7-2.7-2.7c-0.5,0-1,0.1-1.4,0.4l-5.3-5.3
	c0.7-0.9,1.2-2.1,1.2-3.4c0-1.3-0.4-2.4-1.2-3.4l6.6-6.6c0.7,0.7,1.7,1.1,2.8,1.1c2.3,0,4.1-1.8,4.1-4.1S-913,1483-915.3,1483z"/>
</svg>
