<svg xmlns="http://www.w3.org/2000/svg" viewBox="0 0 69.5 69.5"><defs><style>.cls-1{fill:#5eb833;}.cls-2{fill:#fff;}</style></defs><title>Asset 1</title><g id="Layer_2" data-name="Layer 2"><g id="Layer_1-2" data-name="Layer 1"><circle class="cls-1" cx="34.75" cy="34.75" r="34.75"/><path class="cls-2" d="M26.36,45.56H21a1.08,1.08,0,0,1-1.11-1.14V43.16A1.19,1.19,0,0,1,21,41.89h2.51a12.35,12.35,0,0,1-.95-4.8A12.78,12.78,0,0,1,35.38,24.26a12.24,12.24,0,0,1,5.77,1.42V19.5A3.47,3.47,0,0,0,37.76,16H20.87a3.47,3.47,0,0,0-3.4,3.55V44.57A3.37,3.37,0,0,0,20.87,48h8.64A7.15,7.15,0,0,1,26.36,45.56Z"/><path class="cls-2" d="M34.51,41.09a4.74,4.74,0,0,1-3.62-3.42,1.1,1.1,0,0,0-2.15.51,7,7,0,0,0,5.38,5.08l.2,0a1.11,1.11,0,0,0,.2-2.19Z"/><path class="cls-2" d="M51.51,48.34l-4.22-4.22a1.66,1.66,0,0,0-.82-.45,1.59,1.59,0,0,0-.35,0,1.64,1.64,0,0,0-1.17.49L43.8,43a10.72,10.72,0,1,0-8.66,4.4,10.63,10.63,0,0,0,6.32-2.06l1.15,1.15h0A1.64,1.64,0,0,0,42.17,48a1.69,1.69,0,0,0,.43.77L46.83,53a1.77,1.77,0,0,0,2.5,0l2.19-2.19A1.78,1.78,0,0,0,51.51,48.34ZM40.38,41.89a7.4,7.4,0,1,1,0-10.47A7.37,7.37,0,0,1,40.38,41.89Z"/><circle class="cls-2" cx="30.05" cy="34.61" r="1.08"/></g></g></svg>