<svg xmlns="http://www.w3.org/2000/svg" xmlns:xlink="http://www.w3.org/1999/xlink" preserveAspectRatio="xMidYMid" width="59" height="59" viewBox="0 0 59 59">
  <defs>
    <style>
      .cls-1 {
        fill: #5eb833;
      }

      .cls-2 {
        fill: #fff;
        fill-rule: evenodd;
      }
    </style>
  </defs>
  <circle cx="29.5" cy="29.5" r="29.5" class="cls-1"/>
  <path d="M43.694,37.490 L43.596,37.490 C42.327,37.490 41.287,36.446 41.287,35.164 L41.287,25.042 C41.287,23.764 42.326,22.717 43.596,22.717 L43.692,22.717 C44.962,22.717 46.000,23.764 46.000,25.042 L46.000,35.164 C46.000,36.443 44.966,37.490 43.694,37.490 ZM18.777,22.121 C18.759,21.913 18.746,21.703 18.746,21.490 C18.746,18.022 20.935,15.000 24.181,13.396 L22.380,10.597 C22.265,10.420 22.316,10.178 22.493,10.064 C22.670,9.947 22.911,9.995 23.025,10.177 L24.887,13.073 C26.289,12.495 27.849,12.170 29.501,12.170 C31.151,12.170 32.714,12.495 34.113,13.073 L35.979,10.177 C36.093,9.995 36.332,9.947 36.507,10.064 C36.684,10.179 36.735,10.420 36.620,10.597 L34.820,13.396 C38.065,15.000 40.256,18.022 40.256,21.490 C40.256,21.703 40.244,21.913 40.226,22.121 L18.777,22.121 ZM24.528,16.332 C23.958,16.332 23.496,16.793 23.496,17.369 C23.496,17.946 23.958,18.409 24.528,18.409 C25.098,18.409 25.561,17.946 25.561,17.369 C25.561,16.793 25.101,16.332 24.528,16.332 ZM34.472,16.332 C33.902,16.332 33.439,16.793 33.439,17.369 C33.439,17.946 33.902,18.409 34.472,18.409 C35.043,18.409 35.503,17.946 35.503,17.369 C35.503,16.793 35.043,16.332 34.472,16.332 ZM15.407,37.490 L15.306,37.490 C14.036,37.490 13.000,36.446 13.000,35.164 L13.000,25.042 C13.000,23.764 14.036,22.717 15.306,22.717 L15.405,22.717 C16.674,22.717 17.712,23.764 17.713,25.042 L17.713,35.164 C17.713,36.443 16.678,37.490 15.407,37.490 ZM40.181,39.071 C40.181,40.247 39.228,41.204 38.064,41.204 L35.797,41.204 L35.797,46.672 C35.797,47.954 34.761,49.000 33.489,49.000 L33.391,49.000 C32.124,49.000 31.082,47.956 31.082,46.672 L31.082,41.204 L27.917,41.204 L27.917,46.672 C27.917,47.954 26.879,49.000 25.607,49.000 L25.508,49.000 C24.241,49.000 23.201,47.956 23.201,46.672 L23.201,41.204 L20.937,41.204 C19.770,41.204 18.817,40.247 18.817,39.071 L18.817,23.088 L40.181,23.088 L40.181,39.071 Z" class="cls-2"/>
</svg>
