<svg xmlns="http://www.w3.org/2000/svg" xmlns:xlink="http://www.w3.org/1999/xlink" preserveAspectRatio="xMidYMid" width="62" height="62" viewBox="0 0 62 62">
  <defs>
    <style>
      .cls-1 {
        fill: #2bb0e1;
      }

      .cls-2 {
        fill: #fff;
        fill-rule: evenodd;
      }
    </style>
  </defs>
  <circle cx="30.5" cy="30.5" r="29.5" class="cls-1"/>
  <path d="M48.767,31.551 L39.323,40.942 C39.176,41.088 38.977,41.171 38.770,41.171 C38.562,41.171 38.363,41.088 38.216,40.942 L36.168,38.906 C35.863,38.602 35.863,38.109 36.168,37.805 L43.012,30.999 L36.168,24.194 C35.862,23.890 35.862,23.397 36.168,23.093 L38.216,21.057 C38.509,20.765 39.029,20.765 39.323,21.057 L48.767,30.449 C49.073,30.753 49.073,31.246 48.767,31.551 ZM28.222,44.441 C28.121,44.780 27.809,45.000 27.471,45.000 C27.398,45.000 27.323,44.989 27.249,44.967 L25.589,44.480 C25.390,44.421 25.222,44.287 25.123,44.105 C25.024,43.924 25.001,43.711 25.060,43.513 L32.766,17.562 C32.888,17.149 33.324,16.913 33.738,17.035 L35.398,17.522 C35.597,17.581 35.765,17.716 35.864,17.897 C35.964,18.078 35.986,18.291 35.927,18.489 L28.222,44.441 ZM17.976,31.000 L24.819,37.805 C25.125,38.109 25.125,38.602 24.820,38.906 L22.772,40.942 C22.625,41.088 22.426,41.170 22.218,41.170 C22.011,41.170 21.812,41.088 21.665,40.942 L12.220,31.550 C11.915,31.246 11.915,30.753 12.220,30.449 L21.665,21.057 C21.812,20.911 22.011,20.829 22.219,20.829 C22.426,20.829 22.626,20.911 22.772,21.057 L24.820,23.093 C24.967,23.240 25.049,23.438 25.049,23.644 C25.049,23.851 24.967,24.049 24.820,24.195 L17.976,31.000 Z" class="cls-2"/>
</svg>
