<svg xmlns="http://www.w3.org/2000/svg" xmlns:xlink="http://www.w3.org/1999/xlink" preserveAspectRatio="xMidYMid" width="62" height="62" viewBox="0 0 62 62">
  <defs>
    <style>
      .cls-1 {
        fill: #6a7686;
      }

      .cls-2 {
        fill: #fff;
        fill-rule: evenodd;
      }
    </style>
  </defs>
  <circle cx="30.5" cy="31.5" r="29.5" class="cls-1"/>
  <path d="M32.470,13.876 C33.842,12.272 36.163,11.078 38.077,10.998 C38.322,13.227 37.423,15.459 36.094,17.067 C34.764,18.673 32.586,19.923 30.448,19.756 C30.157,17.576 31.234,15.301 32.470,13.876 ZM43.363,44.283 C41.774,46.599 40.130,48.902 37.536,48.950 C34.982,48.998 34.164,47.442 31.250,47.442 C28.334,47.442 27.421,48.902 25.011,48.999 C22.506,49.092 20.601,46.496 19.000,44.190 C15.728,39.475 13.229,30.857 16.588,25.041 C18.252,22.153 21.233,20.326 24.462,20.277 C26.922,20.232 29.246,21.931 30.748,21.931 C32.253,21.931 35.074,19.891 38.038,20.191 C39.280,20.242 42.763,20.689 45.000,23.954 C44.823,24.070 40.843,26.380 40.891,31.192 C40.939,36.940 45.941,38.850 46.000,38.876 C45.954,39.011 45.200,41.603 43.363,44.283 Z" class="cls-2"/>
</svg>
