<svg xmlns="http://www.w3.org/2000/svg" viewBox="0 0 69.5 69.5"><defs><style>.cls-1{fill:#2bb0e1;}.cls-2{fill:#fff;}</style></defs><title>Asset 7</title><g id="Layer_2" data-name="Layer 2"><g id="Layer_1-2" data-name="Layer 1"><circle class="cls-1" cx="34.75" cy="34.75" r="34.75"/><path class="cls-2" d="M24.48,33.36l-6.54,6.81V51.66a.59.59,0,0,0,.59.59h7.95a.59.59,0,0,0,.59-.59V34l-1.83-.67Z"/><path class="cls-2" d="M40.67,38.7H32.72a.59.59,0,0,0-.59.59V51.66a.59.59,0,0,0,.59.59h7.95a.59.59,0,0,0,.59-.59V39.29A.59.59,0,0,0,40.67,38.7Z"/><path class="cls-2" d="M54.58,26.35a2.13,2.13,0,0,1-2.36-.25l-1.44-1.21-5.22,5.7V51.66a.59.59,0,0,0,.59.59h7.95a.59.59,0,0,0,.59-.59V26.29Z"/><path class="cls-2" d="M37.41,36a1.17,1.17,0,0,0,1.27-.31L50.73,22.51l2.82,2.36a.44.44,0,0,0,.73-.38l-.61-6.83a.44.44,0,0,0-.48-.4l-6.83.61a.44.44,0,0,0-.38.31.43.43,0,0,0,0,.17.44.44,0,0,0,.16.3L48.93,21,37.48,33.49,24.41,28.68a1.17,1.17,0,0,0-1.25.29l-8,8.34a1.17,1.17,0,0,0,1.69,1.62l7.48-7.78Z"/></g></g></svg>