<?xml version="1.0" encoding="utf-8"?>
<!-- Generator: Adobe Illustrator 19.1.0, SVG Export Plug-In . SVG Version: 6.00 Build 0)  -->
<svg version="1.1" id="Layer_1" xmlns="http://www.w3.org/2000/svg" xmlns:xlink="http://www.w3.org/1999/xlink" x="0px" y="0px"
	 viewBox="0 0 53.4 60" style="enable-background:new 0 0 53.4 60;" xml:space="preserve">
<style type="text/css">
	.st0{clip-path:url(#SVGID_2_);fill:#444B54;}
	.st1{clip-path:url(#SVGID_2_);fill:#61B63D;}
	.st2{clip-path:url(#SVGID_2_);fill:#4995EC;}
</style>
<g>
	<defs>
		<rect id="SVGID_1_" y="0" width="53.4" height="60"/>
	</defs>
	<clipPath id="SVGID_2_">
		<use xlink:href="#SVGID_1_"  style="overflow:visible;"/>
	</clipPath>
	<path class="st0" d="M27.3,0c1.1,0.2,2.2,0.6,3.1,1.4C32,3,32.6,4.8,32,7c-0.6,2.2-2.2,3.5-4.5,3.9c-3.2,0.5-6.1-1.9-6.3-5.2
		c-0.1-2.6,1.9-5.2,4.5-5.6C25.9,0.1,26,0,26.1,0H27.3z M26.7,9c2,0,3.5-1.5,3.5-3.5c0-2-1.6-3.6-3.5-3.6c-2,0-3.6,1.6-3.6,3.6
		C23.2,7.5,24.7,9,26.7,9"/>
	<path class="st1" d="M37.6,30c0,6-4.9,10.9-10.9,10.9c-6,0-10.9-4.9-10.9-10.9c0-6,4.9-10.9,10.9-10.9C32.7,19.1,37.6,24,37.6,30
		 M32.9,36.4c2.6-2.3,3.5-6.5,2-9.9c-1.5-3.6-5.2-5.8-9.2-5.4c-3.7,0.3-6.9,3.2-7.8,7c-0.8,3.4,0.7,6.9,2.7,8.4
		c0-0.1,0.1-0.1,0.1-0.2c0.8-1.5,2-2.3,3.7-2.3c1.5,0,3-0.1,4.6,0c0.7,0,1.5,0.3,2.1,0.6C31.8,35,32.3,35.8,32.9,36.4 M26.8,35.9
		c-0.7,0-1.4,0-2.2,0c0,0-0.1,0-0.1,0c-1,0-1.8,0.6-2.1,1.4c-0.1,0.3-0.1,0.5,0.2,0.7c2.7,1.3,5.4,1.3,8.1,0
		c0.3-0.2,0.3-0.4,0.2-0.6c-0.3-0.8-1.1-1.4-2.1-1.4C28.2,35.9,27.5,35.9,26.8,35.9"/>
	<path class="st0" d="M26.7,60c-3,0-5.5-2.5-5.5-5.5c0-3,2.5-5.5,5.5-5.5c3,0,5.5,2.5,5.5,5.5C32.2,57.5,29.7,60,26.7,60 M26.7,51
		c-2,0-3.5,1.5-3.6,3.5c0,2,1.6,3.6,3.5,3.6c2,0,3.5-1.6,3.6-3.5C30.3,52.5,28.7,51,26.7,51"/>
	<path class="st0" d="M47.9,23.2c-3.1,0-5.5-2.4-5.5-5.6c0-2.9,2.5-5.4,5.5-5.4c3.1,0,5.5,2.4,5.5,5.6
		C53.4,20.7,50.9,23.2,47.9,23.2 M44.4,17.8c0,2,1.6,3.6,3.6,3.5c1.9,0,3.5-1.7,3.5-3.6c0-2-1.6-3.6-3.6-3.6
		C45.9,14.2,44.4,15.8,44.4,17.8"/>
	<path class="st0" d="M5.5,23.2c-3,0-5.5-2.5-5.5-5.4c0-3.2,2.4-5.6,5.5-5.6c3,0,5.5,2.5,5.5,5.4C11,20.8,8.6,23.2,5.5,23.2 M9,17.8
		c0-1.9-1.5-3.6-3.5-3.6c-2,0-3.6,1.5-3.6,3.6c0,1.9,1.6,3.5,3.5,3.6C7.4,21.4,9,19.8,9,17.8"/>
	<path class="st0" d="M47.9,47.7c-3,0-5.5-2.4-5.5-5.3c0-3.2,2.4-5.6,5.5-5.6c2.9,0,5.5,2.4,5.5,5.3C53.4,45.3,51,47.7,47.9,47.7
		 M44.4,42.2c0,2,1.5,3.6,3.5,3.6c2,0,3.6-1.5,3.6-3.5c0-1.9-1.6-3.6-3.5-3.6C46,38.7,44.4,40.2,44.4,42.2"/>
	<path class="st0" d="M5.5,47.7c-3.1,0-5.5-2.4-5.5-5.6c0-2.9,2.5-5.4,5.5-5.4c3.1,0,5.5,2.4,5.5,5.6C11,45.2,8.5,47.7,5.5,47.7
		 M2,42.3c0,2,1.6,3.6,3.6,3.5c2,0,3.5-1.7,3.5-3.6c0-2-1.6-3.5-3.6-3.5C3.5,38.7,1.9,40.3,2,42.3"/>
	<path class="st2" d="M37.8,24.7c-0.3-0.6-0.6-1.1-1-1.7c1.5-0.9,2.9-1.7,4.5-2.6c0.3,0.6,0.6,1.1,1,1.7
		C40.8,23,39.4,23.8,37.8,24.7"/>
	<path class="st2" d="M12.1,20.4c1.5,0.9,3,1.7,4.5,2.6c-0.3,0.6-0.6,1.1-1,1.7c-1.5-0.9-3-1.7-4.5-2.6C11.4,21.6,11.7,21,12.1,20.4
		"/>
	<path class="st2" d="M15.6,35.3c0.3,0.6,0.6,1.1,1,1.7c-1.5,0.9-2.9,1.7-4.5,2.6c-0.3-0.5-0.6-1.1-1-1.7C12.6,37,14,36.2,15.6,35.3
		"/>
	<path class="st2" d="M36.9,37c0.3-0.6,0.6-1.1,1-1.7c1.5,0.9,3,1.7,4.5,2.6c-0.3,0.6-0.6,1.1-1,1.7C39.9,38.7,38.4,37.9,36.9,37"/>
	<rect x="25.8" y="42.3" class="st2" width="1.9" height="5.1"/>
	<path class="st2" d="M25.7,17.7c0-1.5,0-3,0-4.5c0-0.2,0-0.4,0-0.6h1.9v5.1H25.7z"/>
	<path class="st0" d="M9.6,48.9c0.4-0.5,0.9-0.9,1.3-1.4c0.5,0.4,1,0.8,1.5,1.3c-0.4,0.5-0.8,1-1.2,1.5
		C10.7,49.8,10.2,49.4,9.6,48.9"/>
	<path class="st0" d="M9.6,11.1c0.6-0.5,1.1-0.9,1.7-1.4c0.4,0.5,0.8,1,1.2,1.5c-0.5,0.4-1,0.8-1.5,1.3C10.5,12.1,10,11.6,9.6,11.1"
		/>
	<path class="st0" d="M41,11.3c0.4-0.5,0.8-1,1.2-1.5c0.6,0.5,1.1,0.9,1.7,1.4c-0.4,0.5-0.8,0.9-1.3,1.4C42,12.1,41.5,11.7,41,11.3"
		/>
	<path class="st0" d="M50,33c0.7,0.1,1.2,0.2,1.9,0.2c-0.1,0.7-0.2,1.4-0.4,2.1c-0.6-0.1-1.2-0.3-1.9-0.4C49.8,34.3,49.9,33.7,50,33
		"/>
	<path class="st0" d="M3.7,35c-0.7,0.1-1.2,0.3-1.9,0.4c-0.1-0.7-0.2-1.4-0.4-2.1c0.7-0.1,1.2-0.2,1.9-0.3C3.5,33.7,3.6,34.3,3.7,35
		"/>
	<path class="st0" d="M50,27c-0.1-0.7-0.2-1.3-0.3-2c0.6-0.1,1.2-0.3,1.9-0.4c0.1,0.7,0.2,1.4,0.4,2.1C51.3,26.8,50.7,26.9,50,27"/>
	<path class="st0" d="M1.5,26.7c0.1-0.7,0.2-1.4,0.3-2.1C2.4,24.8,3,24.9,3.7,25c-0.1,0.7-0.2,1.3-0.3,2C2.7,26.9,2.1,26.8,1.5,26.7
		"/>
	<path class="st0" d="M42.2,50.2c-0.4-0.5-0.8-1-1.2-1.5c0.5-0.4,1-0.8,1.5-1.3c0.4,0.5,0.8,0.9,1.3,1.4
		C43.3,49.3,42.7,49.8,42.2,50.2"/>
	<path class="st0" d="M40.4,51.5c-0.6,0.4-1.2,0.7-1.9,1.1c-0.3-0.6-0.6-1.1-0.9-1.7c0.6-0.3,1.1-0.7,1.7-1
		C39.7,50.4,40,50.9,40.4,51.5"/>
	<path class="st0" d="M19.5,7.6c-0.7,0.2-1.3,0.5-1.9,0.7c-0.3-0.6-0.5-1.2-0.7-1.8c0.7-0.3,1.3-0.5,2-0.8
		C19.1,6.4,19.3,6.9,19.5,7.6"/>
	<path class="st0" d="M35.8,51.7c0.3,0.6,0.5,1.2,0.7,1.8c-0.7,0.3-1.3,0.5-2,0.8c-0.2-0.6-0.4-1.2-0.6-1.8
		C34.5,52.2,35.1,52,35.8,51.7"/>
	<path class="st0" d="M40.4,8.5c-0.4,0.6-0.7,1.1-1,1.6c-0.6-0.3-1.2-0.7-1.7-1c0.3-0.6,0.6-1.1,0.9-1.7C39.1,7.8,39.7,8.1,40.4,8.5
		"/>
	<path class="st0" d="M14.9,7.4c0.3,0.6,0.6,1.1,0.9,1.7c-0.6,0.3-1.1,0.7-1.7,1c-0.3-0.5-0.7-1.1-1-1.6C13.7,8.1,14.3,7.8,14.9,7.4
		"/>
	<path class="st0" d="M35.8,8.3c-0.6-0.2-1.2-0.5-1.9-0.7c0.2-0.6,0.4-1.2,0.6-1.8c0.7,0.2,1.3,0.5,2,0.7C36.3,7.1,36,7.7,35.8,8.3"
		/>
	<path class="st0" d="M15.8,50.9c-0.3,0.6-0.6,1.1-0.9,1.7c-0.6-0.4-1.2-0.7-1.9-1.1c0.4-0.6,0.7-1.1,1-1.6
		C14.7,50.2,15.2,50.5,15.8,50.9"/>
	<path class="st0" d="M19.5,52.4c-0.2,0.6-0.4,1.2-0.6,1.8c-0.7-0.2-1.3-0.5-2-0.7c0.2-0.6,0.5-1.1,0.7-1.8
		C18.3,51.9,18.9,52.2,19.5,52.4"/>
	<rect x="50.3" y="29" class="st0" width="1.8" height="2"/>
	<rect x="1.3" y="29" class="st0" width="1.9" height="2"/>
	<path class="st1" d="M26.7,24c2.4,0,4.2,1.9,4.2,4.3c0,2.3-1.9,4.2-4.3,4.2c-2.3,0-4.2-1.9-4.2-4.2C22.5,25.9,24.4,24,26.7,24
		 M29,28.2c0-1.3-1-2.3-2.3-2.3c-1.2,0-2.3,1.1-2.3,2.3c0,1.2,1,2.3,2.3,2.3C28,30.6,29,29.5,29,28.2"/>
</g>
</svg>
