<?xml version="1.0" encoding="utf-8"?>
<!-- Generator: Adobe Illustrator 19.1.0, SVG Export Plug-In . SVG Version: 6.00 Build 0)  -->
<svg version="1.1" id="Layer_1" xmlns="http://www.w3.org/2000/svg" xmlns:xlink="http://www.w3.org/1999/xlink" x="0px" y="0px"
	 viewBox="0 0 60 60" style="enable-background:new 0 0 60 60;" xml:space="preserve">
<style type="text/css">
	.st0{clip-path:url(#SVGID_2_);fill:#4995EC;}
	.st1{clip-path:url(#SVGID_2_);fill:#444B54;}
	.st2{clip-path:url(#SVGID_2_);fill:#61B63D;}
</style>
<g>
	<defs>
		<rect id="SVGID_1_" width="60" height="60"/>
	</defs>
	<clipPath id="SVGID_2_">
		<use xlink:href="#SVGID_1_"  style="overflow:visible;"/>
	</clipPath>
	<path class="st0" d="M46,11.3c-1-0.9-2-1.7-3.1-2.4c-0.4-0.3-1-0.2-1.3,0.3s-0.2,1,0.3,1.3c1,0.7,2,1.4,2.8,2.2
		c0.2,0.2,0.4,0.2,0.6,0.2c0.3,0,0.5-0.1,0.7-0.3C46.4,12.2,46.4,11.6,46,11.3"/>
	<path class="st0" d="M18.3,9.2C18,8.8,17.5,8.6,17,8.9c-1.1,0.7-2.1,1.5-3.1,2.4c-0.4,0.4-0.4,1-0.1,1.3c0.2,0.2,0.4,0.3,0.7,0.3
		c0.2,0,0.5-0.1,0.6-0.3c0.9-0.8,1.8-1.6,2.8-2.2C18.5,10.2,18.6,9.6,18.3,9.2"/>
	<path class="st0" d="M50.8,17.4c-0.6-1.1-1.3-2.2-2.1-3.3c-0.3-0.4-0.9-0.5-1.3-0.2c-0.4,0.3-0.5,0.9-0.2,1.3c0.7,0.9,1.4,2,2,3
		c0.2,0.3,0.5,0.5,0.8,0.5c0.2,0,0.3,0,0.5-0.1C50.9,18.5,51.1,17.9,50.8,17.4"/>
	<path class="st0" d="M12.6,14c-0.4-0.3-1-0.2-1.3,0.2c-0.8,1-1.5,2.1-2.1,3.3c-0.2,0.5-0.1,1,0.4,1.3c0.1,0.1,0.3,0.1,0.4,0.1
		c0.3,0,0.7-0.2,0.8-0.5c0.6-1.1,1.2-2.1,2-3C13.1,15,13,14.4,12.6,14"/>
	<path class="st0" d="M48.5,42c-0.4-0.3-1-0.2-1.3,0.2c-0.7,0.9-1.6,1.8-2.4,2.6c-0.4,0.4-0.4,1-0.1,1.3c0.2,0.2,0.4,0.3,0.7,0.3
		c0.2,0,0.5-0.1,0.6-0.3c1-0.9,1.8-1.9,2.6-2.9C49,42.9,48.9,42.3,48.5,42"/>
	<path class="st0" d="M15.3,44.8c-0.9-0.8-1.7-1.7-2.4-2.6c-0.3-0.4-0.9-0.5-1.3-0.2c-0.4,0.3-0.5,0.9-0.2,1.3c0.8,1,1.7,2,2.7,2.9
		c0.2,0.2,0.4,0.2,0.6,0.2c0.3,0,0.5-0.1,0.7-0.3C15.7,45.7,15.6,45.1,15.3,44.8"/>
	<path class="st1" d="M30,0c-5.4,0-9.8,4.4-9.8,9.8c0,1.6,0.4,3.1,1.1,4.5c1.7,3.3,5,5.3,8.7,5.3s7-2,8.7-5.3c0.7-1.4,1.1-3,1.1-4.5
		C39.8,4.4,35.4,0,30,0 M29.8,1.9c0.1,0,0.1,0,0.2,0c0.1,0,0.1,0,0.2,0C32.4,2,34.1,3.8,34.1,6c0,2.3-1.8,4.1-4.1,4.1
		c-2.3,0-4.1-1.8-4.1-4.1C25.9,3.8,27.6,2,29.8,1.9 M22.4,12c-0.2-0.7-0.3-1.4-0.3-2.2c0-2.1,0.8-4,2.1-5.4C24.1,4.9,24,5.5,24,6
		c0,1.5,0.5,2.8,1.4,3.8C24.3,10.4,23.2,11.1,22.4,12 M30,17.7c-2.8,0-5.3-1.4-6.7-3.8c0.9-1.2,2.2-2.2,3.8-2.7
		c0.9,0.5,1.9,0.8,3,0.8c1.1,0,2.1-0.3,3-0.8c1.6,0.5,2.9,1.5,3.8,2.7C35.3,16.3,32.8,17.7,30,17.7 M37.6,12c-0.8-0.9-1.8-1.6-3-2.1
		C35.5,8.8,36,7.5,36,6c0-0.5-0.1-1.1-0.2-1.6c1.3,1.4,2.1,3.3,2.1,5.4C37.9,10.5,37.8,11.3,37.6,12"/>
	<path class="st1" d="M9.8,20.2C4.4,20.2,0,24.6,0,30c0,1.6,0.4,3.1,1.1,4.5c1.7,3.3,5,5.3,8.7,5.3s7-2,8.7-5.3
		c0.7-1.4,1.1-3,1.1-4.5C19.6,24.6,15.2,20.2,9.8,20.2 M9.6,22.1c0.1,0,0.1,0,0.2,0s0.1,0,0.2,0c2.2,0.1,3.9,1.9,3.9,4.1
		c0,2.3-1.8,4.1-4.1,4.1s-4.1-1.8-4.1-4.1C5.7,24,7.4,22.2,9.6,22.1 M2.2,32.2C2,31.5,1.9,30.8,1.9,30c0-2.1,0.8-4,2.1-5.4
		c-0.1,0.5-0.2,1-0.2,1.6c0,1.5,0.5,2.8,1.4,3.8C4,30.6,3,31.3,2.2,32.2 M9.8,37.9c-2.8,0-5.3-1.4-6.7-3.8c0.9-1.2,2.2-2.2,3.8-2.7
		c0.9,0.5,1.9,0.8,3,0.8c1.1,0,2.1-0.3,3-0.8c1.6,0.5,2.9,1.5,3.8,2.7C15.1,36.5,12.6,37.9,9.8,37.9 M17.4,32.2
		c-0.8-0.9-1.8-1.6-3-2.1c0.9-1,1.4-2.4,1.4-3.8c0-0.5-0.1-1.1-0.2-1.6c1.3,1.4,2.1,3.3,2.1,5.4C17.7,30.8,17.6,31.5,17.4,32.2"/>
	<path class="st1" d="M50.2,20.2c-5.4,0-9.8,4.4-9.8,9.8c0,1.6,0.4,3.1,1.1,4.5c1.7,3.3,5,5.3,8.7,5.3s7-2,8.7-5.3
		c0.7-1.4,1.1-3,1.1-4.5C60,24.6,55.6,20.2,50.2,20.2 M50,22.1c0.1,0,0.1,0,0.2,0c0.1,0,0.1,0,0.2,0c2.2,0.1,3.9,1.9,3.9,4.1
		c0,2.3-1.8,4.1-4.1,4.1c-2.3,0-4.1-1.8-4.1-4.1C46.1,24,47.8,22.2,50,22.1 M42.6,32.2c-0.2-0.7-0.3-1.4-0.3-2.2
		c0-2.1,0.8-4,2.1-5.4c-0.1,0.5-0.2,1-0.2,1.6c0,1.5,0.5,2.8,1.4,3.8C44.5,30.6,43.4,31.3,42.6,32.2 M50.2,37.9
		c-2.8,0-5.3-1.4-6.7-3.8c0.9-1.2,2.2-2.2,3.8-2.7c0.9,0.5,1.9,0.8,3,0.8c1.1,0,2.1-0.3,3-0.8c1.6,0.5,2.9,1.5,3.8,2.7
		C55.5,36.5,53,37.9,50.2,37.9 M57.8,32.2c-0.8-0.9-1.8-1.6-3-2.1c0.9-1,1.4-2.4,1.4-3.8c0-0.5-0.1-1.1-0.2-1.6
		c1.3,1.4,2.1,3.3,2.1,5.4C58.1,30.8,58,31.5,57.8,32.2"/>
	<path class="st1" d="M36.8,35.4H23.2c-1.7,0-3,1.4-3,3V57c0,1.7,1.4,3,3,3h13.6c1.7,0,3-1.4,3-3V38.4
		C39.8,36.7,38.4,35.4,36.8,35.4 M37.9,50.5h-2c-0.5,0-0.9,0.4-0.9,0.9c0,0.5,0.4,0.9,0.9,0.9h2V57c0,0.6-0.5,1.1-1.1,1.1H23.2
		c-0.6,0-1.1-0.5-1.1-1.1v-4.6h9.6c0.5,0,0.9-0.4,0.9-0.9s-0.4-0.9-0.9-0.9h-9.6V38.4c0-0.6,0.5-1.1,1.1-1.1h13.6
		c0.6,0,1.1,0.5,1.1,1.1V50.5z"/>
	<path class="st2" d="M30,54c0.7,0,1.3,0.6,1.3,1.3c0,0.7-0.6,1.3-1.3,1.3c-0.7,0-1.3-0.6-1.3-1.3C28.7,54.6,29.3,54,30,54"/>
</g>
</svg>
