<?xml version="1.0" encoding="utf-8"?>
<!-- Generator: Adobe Illustrator 19.1.0, SVG Export Plug-In . SVG Version: 6.00 Build 0)  -->
<svg version="1.1" id="Layer_1" xmlns="http://www.w3.org/2000/svg" xmlns:xlink="http://www.w3.org/1999/xlink" x="0px" y="0px"
	 viewBox="0 0 60 60" style="enable-background:new 0 0 60 60;" xml:space="preserve">
<style type="text/css">
	.st0{clip-path:url(#SVGID_2_);fill:#4995EC;}
	.st1{clip-path:url(#SVGID_2_);fill:#444B54;}
	.st2{clip-path:url(#SVGID_2_);fill:#61B63D;}
</style>
<g>
	<defs>
		<rect id="SVGID_1_" width="60" height="60"/>
	</defs>
	<clipPath id="SVGID_2_">
		<use xlink:href="#SVGID_1_"  style="overflow:visible;"/>
	</clipPath>
	<path class="st0" d="M34.9,20l-8.5,6.2c-0.4,0.3-0.5,1-0.2,1.4c0.2,0.3,0.5,0.4,0.8,0.4c0.2,0,0.4-0.1,0.6-0.2L39.7,19l-12.1-8.8
		c-0.4-0.3-1.1-0.2-1.4,0.2c-0.3,0.4-0.2,1.1,0.2,1.4l8.5,6.2H23c-7.2,0-13,5.8-13,13c0,0.6,0.4,1,1,1c0.6,0,1-0.4,1-1
		c0-6.1,4.9-11,11-11H34.9z"/>
	<path class="st1" d="M30,0C13.5,0,0,13.5,0,30s13.5,30,30,30s30-13.5,30-30S46.5,0,30,0 M30,58C14.6,58,2,45.4,2,30S14.6,2,30,2
		s28,12.6,28,28S45.4,58,30,58"/>
	<path class="st2" d="M48,28c-0.6,0-1,0.4-1,1c0,6.1-4.9,11-11,11H24.1l8.5-6.2c0.4-0.3,0.5-0.9,0.2-1.4c-0.3-0.4-0.9-0.5-1.4-0.2
		L19.3,41l12.1,8.8c0.2,0.1,0.4,0.2,0.6,0.2c0.3,0,0.6-0.1,0.8-0.4c0.3-0.4,0.2-1.1-0.2-1.4L24.1,42H36c7.2,0,13-5.8,13-13
		C49,28.4,48.6,28,48,28"/>
</g>
</svg>
