<?xml version="1.0" encoding="utf-8"?>
<!-- Generator: Adobe Illustrator 19.1.0, SVG Export Plug-In . SVG Version: 6.00 Build 0)  -->
<svg version="1.1" id="Layer_1" xmlns="http://www.w3.org/2000/svg" xmlns:xlink="http://www.w3.org/1999/xlink" x="0px" y="0px"
	 viewBox="0 0 55 56.8" style="enable-background:new 0 0 55 56.8;" xml:space="preserve">
<style type="text/css">
	.st0{clip-path:url(#SVGID_2_);fill:#444B54;}
	.st1{clip-path:url(#SVGID_2_);fill:#4995EC;}
	.st2{clip-path:url(#SVGID_2_);fill:#61B63D;}
</style>
<g>
	<defs>
		<rect id="SVGID_1_" y="0" width="55" height="56.8"/>
	</defs>
	<clipPath id="SVGID_2_">
		<use xlink:href="#SVGID_1_"  style="overflow:visible;"/>
	</clipPath>
	<path class="st0" d="M55,41.9c-0.1-0.4-0.4-0.6-0.8-0.7l-7.8-1.1l-3.5-6.8c-0.3-0.7-1.4-0.7-1.8,0l-3.5,6.8l-7.8,1.1
		c-0.4,0.1-0.7,0.3-0.8,0.7c-0.1,0.4,0,0.8,0.3,1l5.6,5.3l-1.3,7.4c-0.1,0.4,0.1,0.8,0.4,1c0.3,0.2,0.7,0.3,1,0.1l7-3.5l7,3.5
		c0.1,0.1,0.3,0.1,0.5,0.1c0.2,0,0.4-0.1,0.6-0.2c0.3-0.2,0.5-0.6,0.4-1l-1.3-7.4l5.6-5.3C55,42.7,55.1,42.3,55,41.9 M47.3,47.1
		C47.1,47.4,47,47.7,47,48l1.1,6l-5.6-2.9c-0.1-0.1-0.3-0.1-0.5-0.1s-0.3,0-0.5,0.1L35.9,54l1.1-6c0.1-0.3-0.1-0.7-0.3-0.9l-4.5-4.2
		l6.2-0.9c0.3,0,0.6-0.2,0.8-0.5L42,36l2.8,5.5c0.1,0.3,0.4,0.5,0.8,0.5l6.2,0.9L47.3,47.1z"/>
	<path class="st0" d="M45,12H27c-0.6,0-1,0.4-1,1c0,0.6,0.4,1,1,1h18c0.6,0,1-0.4,1-1C46,12.4,45.6,12,45,12"/>
	<path class="st0" d="M45,26H27c-0.6,0-1,0.4-1,1c0,0.6,0.4,1,1,1h18c0.6,0,1-0.4,1-1C46,26.4,45.6,26,45,26"/>
	<path class="st1" d="M20.6,7.2c-0.4-0.4-1.1-0.3-1.4,0.1l-6.2,7.3l-3.8-2.9C8.7,11.4,8,11.5,7.7,12c-0.3,0.4-0.2,1.1,0.2,1.4
		l4.6,3.4c0.2,0.1,0.4,0.2,0.6,0.2c0.3,0,0.6-0.1,0.8-0.4l6.9-8C21,8.2,21,7.6,20.6,7.2"/>
	<path class="st2" d="M20.6,21.2c-0.4-0.4-1.1-0.3-1.4,0.1l-6.2,7.3l-3.8-2.9C8.7,25.4,8,25.5,7.7,26c-0.3,0.4-0.2,1.1,0.2,1.4
		l4.6,3.4c0.2,0.1,0.4,0.2,0.6,0.2c0.3,0,0.6-0.1,0.8-0.4l6.9-8C21,22.2,21,21.6,20.6,21.2"/>
	<path class="st1" d="M19.2,36.3l-6.2,7.3l-3.8-2.9C8.7,40.4,8,40.5,7.7,41c-0.3,0.4-0.2,1.1,0.2,1.4l4.6,3.4
		c0.2,0.1,0.4,0.2,0.6,0.2c0.3,0,0.6-0.1,0.8-0.4l6.9-8c0.4-0.4,0.3-1.1-0.1-1.4C20.2,35.9,19.5,35.9,19.2,36.3"/>
	<path class="st0" d="M27,52H12.2C6.6,52,2,47.4,2,41.8V12.2C2,6.6,6.6,2,12.2,2h29.6C47.4,2,52,6.6,52,12.2v23.9c0,0.6,0.4,1,1,1
		c0.6,0,1-0.4,1-1V12.2C54,5.5,48.5,0,41.8,0H12.2C5.5,0,0,5.5,0,12.2v29.6C0,48.5,5.5,54,12.2,54H27c0.6,0,1-0.4,1-1
		C28,52.4,27.6,52,27,52"/>
</g>
</svg>
