<?xml version="1.0" encoding="utf-8"?>
<!-- Generator: Adobe Illustrator 19.1.0, SVG Export Plug-In . SVG Version: 6.00 Build 0)  -->
<svg version="1.1" id="Layer_1" xmlns="http://www.w3.org/2000/svg" xmlns:xlink="http://www.w3.org/1999/xlink" x="0px" y="0px"
	 viewBox="0 0 60 60" style="enable-background:new 0 0 60 60;" xml:space="preserve">
<style type="text/css">
	.st0{fill:#4995EC;}
	.st1{fill:#61B63D;}
	.st2{clip-path:url(#SVGID_2_);fill:#444B54;}
</style>
<rect x="0.8" y="0.6" class="st0" width="29.4" height="4.8"/>
<rect x="0.9" y="1.1" class="st0" width="4.7" height="29.4"/>
<rect x="29.8" y="54.5" class="st1" width="29.4" height="4.8"/>
<rect x="54.6" y="29.6" class="st1" width="4.8" height="29.4"/>
<g>
	<defs>
		<rect id="SVGID_1_" width="60" height="60"/>
	</defs>
	<clipPath id="SVGID_2_">
		<use xlink:href="#SVGID_1_"  style="overflow:visible;"/>
	</clipPath>
	<path class="st2" d="M59,0H46.4c-0.5,0-1,0.4-1,1c0,0.5,0.4,1,1,1h11.6V29H51c0.1-0.5,0.2-1.1,0.2-1.6c0-3.7-3-6.7-6.7-6.7
		c-3.7,0-6.7,3-6.7,6.7c0,0.5,0.1,1.1,0.2,1.6H31v-8.4c0-0.3-0.2-0.6-0.5-0.8c-0.3-0.2-0.6-0.2-0.9,0c-0.7,0.3-1.4,0.5-2.1,0.5
		c-2.6,0-4.8-2.1-4.8-4.8c0-2.6,2.1-4.8,4.8-4.8c0.7,0,1.5,0.2,2.1,0.5c0.3,0.1,0.6,0.1,0.9,0s0.5-0.5,0.5-0.8V1.9h11.6
		c0.5,0,1-0.4,1-1c0-0.5-0.4-1-1-1H1C0.4,0,0,0.4,0,1V59c0,0.5,0.4,1,1,1H59c0.5,0,1-0.4,1-1V1C60,0.4,59.6,0,59,0 M29,1.9V9
		c-0.5-0.1-1.1-0.2-1.6-0.2c-3.7,0-6.7,3-6.7,6.7c0,3.7,3,6.7,6.7,6.7c0.5,0,1.1-0.1,1.6-0.2V29h-8.4c-0.3,0-0.6,0.2-0.8,0.5
		c-0.2,0.3-0.2,0.6,0,0.9c0.3,0.7,0.5,1.4,0.5,2.1c0,2.6-2.1,4.8-4.8,4.8c-2.6,0-4.8-2.1-4.8-4.8c0-0.7,0.2-1.5,0.5-2.1
		c0.1-0.3,0.1-0.6,0-0.9C11,29.2,10.7,29,10.3,29H1.9V1.9H29z M1.9,31H9c-0.1,0.5-0.2,1.1-0.2,1.6c0,3.7,3,6.7,6.7,6.7
		c3.7,0,6.7-3,6.7-6.7c0-0.5-0.1-1.1-0.2-1.6H29v8.4c0,0.3,0.2,0.6,0.5,0.8c0.3,0.2,0.6,0.2,0.9,0c0.7-0.3,1.4-0.5,2.1-0.5
		c2.6,0,4.8,2.1,4.8,4.8c0,2.6-2.1,4.8-4.8,4.8c-0.7,0-1.5-0.2-2.1-0.5c-0.3-0.1-0.6-0.1-0.9,0C29.2,49,29,49.3,29,49.7v8.4H1.9V31z
		 M31,58.1V51c0.5,0.1,1.1,0.2,1.6,0.2c3.7,0,6.7-3,6.7-6.7c0-3.7-3-6.7-6.7-6.7c-0.5,0-1.1,0.1-1.6,0.2V31h8.4
		c0.3,0,0.6-0.2,0.8-0.5c0.2-0.3,0.2-0.6,0-0.9c-0.3-0.7-0.5-1.4-0.5-2.1c0-2.6,2.1-4.8,4.8-4.8c2.6,0,4.8,2.1,4.8,4.8
		c0,0.7-0.2,1.5-0.5,2.1c-0.1,0.3-0.1,0.6,0,0.9c0.2,0.3,0.5,0.5,0.8,0.5h8.4v27.1H31z"/>
</g>
</svg>
