<?xml version="1.0" encoding="utf-8"?>
<!-- Generator: Adobe Illustrator 19.1.0, SVG Export Plug-In . SVG Version: 6.00 Build 0)  -->
<svg version="1.1" id="Layer_1" xmlns="http://www.w3.org/2000/svg" xmlns:xlink="http://www.w3.org/1999/xlink" x="0px" y="0px"
	 viewBox="0 0 60 60" style="enable-background:new 0 0 60 60;" xml:space="preserve">
<style type="text/css">
	.st0{clip-path:url(#SVGID_2_);fill:#4995EC;}
	.st1{clip-path:url(#SVGID_2_);fill:#FFFFFF;}
	.st2{clip-path:url(#SVGID_2_);fill:#444B54;}
	.st3{clip-path:url(#SVGID_2_);fill:#61B63D;}
</style>
<g>
	<defs>
		<rect id="SVGID_1_" width="60" height="60"/>
	</defs>
	<clipPath id="SVGID_2_">
		<use xlink:href="#SVGID_1_"  style="overflow:visible;"/>
	</clipPath>
	<path class="st0" d="M30,22.9c-6.3,0-11.4-5.2-11.4-11.4S23.7,0,30,0s11.4,5.2,11.4,11.4C41.4,17.7,36.3,22.9,30,22.9"/>
	<path class="st1" d="M30,5.2c2.7,0,4.9,2.2,4.9,4.9c0,2.7-2.2,4.9-4.9,4.9s-4.9-2.2-4.9-4.9C25.1,7.3,27.3,5.2,30,5.2"/>
	<path class="st1" d="M35.6,15H24.4c-2,0-3.6,1.6-3.6,3.6v5.2c2.5,2,5.7,3.1,9.2,3.1c3.5,0,6.7-1.1,9.2-3.1v-5.2
		C39.2,16.6,37.6,15,35.6,15"/>
	<path class="st2" d="M39.4,43.8c0.1-0.1,0.2-0.1,0.3-0.1L30.9,35v-7.3c3.2-0.2,6.2-1.3,8.8-3.3l0.4-0.3v-5.5c0-2.5-2-4.5-4.5-4.5
		h-1.3c0.9-1,1.6-2.4,1.6-3.9c0-3.2-2.6-5.8-5.8-5.8c-3.2,0-5.8,2.6-5.8,5.8c0,1.5,0.6,2.9,1.6,3.9h-1.5c-2.4,0-4.5,2.1-4.5,4.5v5.5
		l0.4,0.3c2.6,2,5.6,3.1,8.8,3.3V35L16.1,47.9l1.3,1.3L30,36.7l8.3,8.3C38.5,44.5,38.9,44.1,39.4,43.8 M30,6.1
		c2.2,0,3.9,1.8,3.9,3.9c0,2.2-1.8,4-3.9,4s-3.9-1.8-3.9-3.9C26.1,8,27.8,6.1,30,6.1 M21.8,23.2v-4.6c0-1.4,1.2-2.6,2.6-2.6h11.3
		c1.4,0,2.6,1.2,2.6,2.6v4.6c-2.5,1.7-5.3,2.6-8.3,2.6S24.2,24.8,21.8,23.2"/>
	<path class="st3" d="M48.6,59.3c-6.3,0-11.4-5.2-11.4-11.4s5.2-11.4,11.4-11.4S60,41.4,60,47.8C60,54.1,54.8,59.3,48.6,59.3"/>
	<path class="st1" d="M48.6,41.5c2.7,0,4.9,2.2,4.9,4.9s-2.2,4.9-4.9,4.9c-2.7,0-4.9-2.2-4.9-4.9S45.9,41.5,48.6,41.5"/>
	<path class="st1" d="M54.2,51.3h-5.6h-5.6c-2,0-3.6,1.6-3.6,3.6V60h18.4v-5.2C57.7,52.9,56.2,51.3,54.2,51.3"/>
	<path class="st2" d="M54.2,50.3h-1.3c0.9-1,1.6-2.4,1.6-3.9c0-3.2-2.6-5.8-5.8-5.8c-3.2,0-5.8,2.6-5.8,5.8c0,1.5,0.6,2.9,1.6,3.9
		h-1.3c-2.4,0-4.5,2.1-4.5,4.5V60h1.9v-5.2c0-1.4,1.2-2.6,2.6-2.6h11.2c1.4,0,2.6,1.2,2.6,2.6V60h1.9v-5.2
		C58.7,52.4,56.7,50.3,54.2,50.3 M44.6,46.4c0-2.2,1.8-3.9,3.9-3.9s3.9,1.8,3.9,3.9c0,2.2-1.8,3.9-3.9,3.9S44.6,48.6,44.6,46.4"/>
	<rect x="43.2" y="56.3" class="st2" width="1.9" height="2"/>
	<rect x="47.6" y="56.3" class="st2" width="1.9" height="2"/>
	<rect x="52.1" y="56.3" class="st2" width="1.9" height="2"/>
	<rect x="24.6" y="19.9" class="st2" width="1.9" height="2"/>
	<rect x="29.1" y="19.9" class="st2" width="1.9" height="2"/>
	<rect x="33.6" y="19.9" class="st2" width="1.9" height="2"/>
	<path class="st3" d="M11.4,59.3C5.2,59.3,0,54.1,0,47.8s5.2-11.4,11.4-11.4s11.4,5.2,11.4,11.4S17.7,59.3,11.4,59.3"/>
	<path class="st1" d="M11.4,41.5c2.7,0,4.9,2.2,4.9,4.9s-2.2,4.9-4.9,4.9s-4.9-2.2-4.9-4.9S8.8,41.5,11.4,41.5"/>
	<path class="st1" d="M17.1,51.3h-5.6H5.8c-2,0-3.6,1.6-3.6,3.6V60h18.4v-5.2C20.6,52.9,19,51.3,17.1,51.3"/>
	<path class="st1" d="M11.4,41.5c2.7,0,4.9,2.2,4.9,4.9s-2.2,4.9-4.9,4.9s-4.9-2.2-4.9-4.9S8.8,41.5,11.4,41.5"/>
	<path class="st1" d="M17.1,51.3h-5.6H5.8c-2,0-3.6,1.6-3.6,3.6V60h18.4v-5.2C20.6,52.9,19,51.3,17.1,51.3"/>
	<path class="st2" d="M17.1,50.3h-1.3c0.9-1,1.6-2.4,1.6-3.9c0-3.2-2.6-5.8-5.8-5.8c-3.2,0-5.8,2.6-5.8,5.8c0,1.5,0.6,2.9,1.6,3.9
		H5.8c-2.4,0-4.5,2.1-4.5,4.5V60h1.9v-5.2c0-1.4,1.2-2.6,2.6-2.6h11.2c1.4,0,2.6,1.2,2.6,2.6V60h1.9v-5.2
		C21.6,52.4,19.5,50.3,17.1,50.3 M7.5,46.4c0-2.2,1.8-3.9,3.9-3.9s3.9,1.8,3.9,3.9c0,2.2-1.8,3.9-3.9,3.9S7.5,48.6,7.5,46.4"/>
	<rect x="6" y="56.3" class="st2" width="1.9" height="2"/>
	<rect x="10.5" y="56.3" class="st2" width="1.9" height="2"/>
	<rect x="14.9" y="56.3" class="st2" width="1.9" height="2"/>
</g>
</svg>
