<?xml version="1.0" encoding="utf-8"?>
<!-- Generator: Adobe Illustrator 19.1.0, SVG Export Plug-In . SVG Version: 6.00 Build 0)  -->
<svg version="1.1" id="Layer_1" xmlns="http://www.w3.org/2000/svg" xmlns:xlink="http://www.w3.org/1999/xlink" x="0px" y="0px"
	 viewBox="0 0 60.1 60" style="enable-background:new 0 0 60.1 60;" xml:space="preserve">
<style type="text/css">
	.st0{clip-path:url(#SVGID_2_);fill:#4995EC;}
	.st1{clip-path:url(#SVGID_2_);fill:#444B54;}
	.st2{clip-path:url(#SVGID_2_);fill:#61B63D;}
</style>
<g>
	<defs>
		<rect id="SVGID_1_" width="60.1" height="60"/>
	</defs>
	<clipPath id="SVGID_2_">
		<use xlink:href="#SVGID_1_"  style="overflow:visible;"/>
	</clipPath>
	<path class="st0" d="M20.7,39.9c0,0,0.2-10,4.9-14s14.1-5.7,14.1-5.7s0,9.2-5.8,13.9S20.7,39.9,20.7,39.9"/>
	<path class="st1" d="M28.4,53.9c-1.3-1-2.4-2.2-3.4-3.6c-0.4-0.5-1.1-0.6-1.6-0.3c-0.5,0.4-0.6,1.1-0.3,1.6c1.1,1.5,2.4,2.9,3.9,4
		c0.2,0.2,0.5,0.3,0.7,0.3c0.3,0,0.7-0.2,0.9-0.4C29,55,28.9,54.3,28.4,53.9"/>
	<path class="st1" d="M48.7,24c1.4,0.8,2.7,1.9,3.9,3c0.2,0.2,0.5,0.4,0.8,0.4c0.3,0,0.6-0.1,0.8-0.3c0.5-0.5,0.5-1.2,0-1.7
		c-1.3-1.3-2.8-2.5-4.4-3.4c-0.6-0.3-1.3-0.1-1.6,0.4S48.2,23.7,48.7,24"/>
	<path class="st1" d="M57.3,35.7c0.1,0.5,0.6,0.9,1.1,0.9c0.1,0,0.2,0,0.3,0c0.6-0.1,1-0.8,0.9-1.4c-0.4-1.8-1.1-3.6-2-5.2
		c-0.3-0.6-1-0.8-1.6-0.5s-0.8,1-0.5,1.6C56.4,32.5,57,34.1,57.3,35.7"/>
	<path class="st1" d="M37.5,57.7c-1.6-0.2-3.3-0.6-4.8-1.3c-0.6-0.3-1.3,0-1.5,0.6c-0.3,0.6,0,1.3,0.6,1.5c1.7,0.7,3.5,1.2,5.4,1.4
		c0,0,0.1,0,0.1,0c0.6,0,1.1-0.4,1.2-1C38.6,58.3,38.1,57.7,37.5,57.7"/>
	<path class="st1" d="M45.6,21.3c0.2-0.6-0.2-1.3-0.8-1.4c-1.3-0.3-2.6-0.5-3.9-0.6C40.3,8.6,31.3,0,20.4,0C9.2,0,0,9.2,0,20.4
		c0,10.9,8.6,19.8,19.4,20.4c0,0.1,0,0.2,0,0.4c0.1,1.9,0.5,3.7,1.2,5.5c0.2,0.5,0.6,0.8,1.1,0.8c0.1,0,0.3,0,0.4-0.1
		c0.6-0.2,0.9-0.9,0.7-1.5c-0.6-1.6-0.9-3.2-1-4.8c0-0.1,0-0.1,0-0.2c10.3-0.6,18.6-8.9,19.2-19.2l0,0c0,0,0,0,0,0
		c1.1,0.1,2.2,0.2,3.3,0.5C44.8,22.3,45.4,21.9,45.6,21.3 M21.7,38.5c0.6-9,7.8-16.2,16.8-16.8C37.9,30.7,30.7,37.9,21.7,38.5
		 M19.3,38.5L19.3,38.5c-9.4-0.6-17-8.5-17-18.1c0-10,8.1-18.1,18.1-18.1c9.6,0,17.5,7.5,18.1,17v0C28.2,19.9,19.9,28.2,19.3,38.5"
		/>
	<path class="st1" d="M59,39.5c-0.7,0-1.2,0.5-1.2,1.1c-0.1,1.7-0.4,3.3-0.9,4.9c-0.2,0.6,0.1,1.3,0.7,1.5c0.1,0,0.2,0.1,0.4,0.1
		c0.5,0,0.9-0.3,1.1-0.8c0.6-1.8,0.9-3.6,1-5.5C60.2,40.1,59.7,39.5,59,39.5"/>
	<path class="st1" d="M56.3,49.6c-0.5-0.4-1.3-0.2-1.6,0.3c-0.9,1.4-2.1,2.6-3.3,3.7c-0.5,0.4-0.6,1.2-0.1,1.7
		c0.2,0.3,0.6,0.4,0.9,0.4c0.3,0,0.5-0.1,0.8-0.3c1.4-1.2,2.7-2.6,3.8-4.1C57,50.7,56.8,50,56.3,49.6"/>
	<path class="st1" d="M47.2,56.2c-1.5,0.7-3.1,1.2-4.7,1.4c-0.6,0.1-1.1,0.7-1,1.3c0.1,0.6,0.6,1,1.2,1c0.1,0,0.1,0,0.2,0
		c1.9-0.3,3.7-0.8,5.4-1.6c0.6-0.3,0.9-1,0.6-1.6C48.4,56.2,47.7,55.9,47.2,56.2"/>
	<path class="st2" d="M11,8.6c-3.6,2.9-5.7,7.2-5.7,11.9c0,0.6,0.5,1.2,1.2,1.2c0.6,0,1.2-0.5,1.2-1.2c0-3.9,1.8-7.6,4.8-10
		c0.5-0.4,0.6-1.1,0.2-1.7C12.3,8.3,11.5,8.2,11,8.6"/>
	<path class="st2" d="M20.4,5.3c-1.4,0-2.8,0.2-4.2,0.6c-0.6,0.2-1,0.8-0.8,1.5c0.1,0.5,0.6,0.8,1.1,0.8c0.1,0,0.2,0,0.3,0
		c1.1-0.3,2.3-0.5,3.6-0.5c0.6,0,1.2-0.5,1.2-1.2C21.6,5.8,21.1,5.3,20.4,5.3"/>
</g>
</svg>
