<?xml version="1.0" encoding="utf-8"?>
<!-- Generator: Adobe Illustrator 19.1.0, SVG Export Plug-In . SVG Version: 6.00 Build 0)  -->
<svg version="1.1" id="Layer_1" xmlns="http://www.w3.org/2000/svg" xmlns:xlink="http://www.w3.org/1999/xlink" x="0px" y="0px"
	 viewBox="0 0 60 60" style="enable-background:new 0 0 60 60;" xml:space="preserve">
<style type="text/css">
	.st0{clip-path:url(#SVGID_2_);fill:#444B54;}
	.st1{clip-path:url(#SVGID_2_);fill:#4995EC;}
	.st2{clip-path:url(#SVGID_2_);fill:#61B63D;}
</style>
<g>
	<defs>
		<rect id="SVGID_1_" width="60" height="60"/>
	</defs>
	<clipPath id="SVGID_2_">
		<use xlink:href="#SVGID_1_"  style="overflow:visible;"/>
	</clipPath>
	<path class="st0" d="M25.2,3.9h-7.7c-0.5,0-1,0.4-1,1s0.4,1,1,1h7.7c0.5,0,1-0.4,1-1S25.7,3.9,25.2,3.9"/>
	<path class="st0" d="M13.5,3.9h-1.9c-0.5,0-1,0.4-1,1s0.4,1,1,1h1.9c0.5,0,1-0.4,1-1S14.1,3.9,13.5,3.9"/>
	<path class="st0" d="M18.4,57.1c1.9,0,3.4-1.5,3.4-3.4c0-1.9-1.5-3.4-3.4-3.4S15,51.8,15,53.7C15,55.6,16.5,57.1,18.4,57.1
		 M18.4,52.3c0.8,0,1.5,0.7,1.5,1.5c0,0.8-0.7,1.5-1.5,1.5c-0.8,0-1.5-0.7-1.5-1.5C16.9,52.9,17.6,52.3,18.4,52.3"/>
	<path class="st0" d="M56.1,12.6c-2.1,0-3.9,1.7-3.9,3.9c0,1.1,0.4,2,1.1,2.7l-7,9.4c-0.5-0.3-1.2-0.5-1.8-0.5
		c-1.3,0-2.5,0.7-3.2,1.7l-4.5-1.7V4.8c0-2.7-2.2-4.8-4.8-4.8H4.8C2.2,0,0,2.2,0,4.8v50.3C0,57.8,2.2,60,4.8,60h27.1
		c2.7,0,4.8-2.2,4.8-4.8v-25l3.9,1.5c0,0.1,0,0.2,0,0.3c0,2.1,1.7,3.9,3.9,3.9c2.1,0,3.9-1.7,3.9-3.9c0-0.8-0.2-1.5-0.6-2.1l7.3-9.7
		c0.3,0.1,0.7,0.2,1.1,0.2c2.1,0,3.9-1.7,3.9-3.9C60,14.3,58.3,12.6,56.1,12.6 M34.8,55.2c0,1.6-1.3,2.9-2.9,2.9H4.8
		c-1.6,0-2.9-1.3-2.9-2.9v-5.8h32.9V55.2z M34.8,27.3L30,25.5c0-0.1,0-0.2,0-0.3c0-2.1-1.7-3.9-3.9-3.9s-3.9,1.7-3.9,3.9
		c0,0.7,0.2,1.4,0.6,2l-8.4,10.1c-0.6-0.3-1.2-0.5-1.9-0.5c-2.1,0-3.9,1.7-3.9,3.9s1.7,3.9,3.9,3.9c2.1,0,3.9-1.7,3.9-3.9
		c0-0.7-0.2-1.4-0.6-2l8.4-10.1c0.6,0.3,1.2,0.5,1.9,0.5c1.3,0,2.5-0.7,3.2-1.7l5.5,2.1v18H1.9V9.7h32.9V27.3z M28.1,25.2
		c0,1.1-0.9,1.9-1.9,1.9c-1.1,0-1.9-0.9-1.9-1.9c0-1.1,0.9-1.9,1.9-1.9C27.2,23.2,28.1,24.1,28.1,25.2 M14.5,40.6
		c0,1.1-0.9,1.9-1.9,1.9c-1.1,0-1.9-0.9-1.9-1.9c0-1.1,0.9-1.9,1.9-1.9C13.6,38.7,14.5,39.6,14.5,40.6 M34.8,7.7H1.9V4.8
		c0-1.6,1.3-2.9,2.9-2.9h27.1c1.6,0,2.9,1.3,2.9,2.9V7.7z M44.5,33.9c-1.1,0-1.9-0.9-1.9-1.9c0-1.1,0.9-1.9,1.9-1.9
		c1.1,0,1.9,0.9,1.9,1.9C46.5,33,45.6,33.9,44.5,33.9 M56.1,18.4c-1.1,0-1.9-0.9-1.9-1.9c0-1.1,0.9-1.9,1.9-1.9
		c1.1,0,1.9,0.9,1.9,1.9C58.1,17.5,57.2,18.4,56.1,18.4"/>
	<rect x="56.1" y="24.2" class="st1" width="1.9" height="21.3"/>
	<rect x="56.1" y="47.4" class="st1" width="1.9" height="1.9"/>
	<rect x="52.3" y="31.9" class="st2" width="1.9" height="19.4"/>
	<rect x="52.3" y="53.2" class="st2" width="1.9" height="1.9"/>
</g>
</svg>
