<?xml version="1.0" encoding="utf-8"?>
<!-- Generator: Adobe Illustrator 19.1.0, SVG Export Plug-In . SVG Version: 6.00 Build 0)  -->
<svg version="1.1" id="Layer_1" xmlns="http://www.w3.org/2000/svg" xmlns:xlink="http://www.w3.org/1999/xlink" x="0px" y="0px"
	 viewBox="0 0 93.1 53.6" style="enable-background:new 0 0 93.1 53.6;" xml:space="preserve">
<style type="text/css">
	.st0{clip-path:url(#SVGID_2_);}
	.st1{clip-path:url(#SVGID_4_);fill:#FFFFFF;}
	.st2{opacity:0.6;clip-path:url(#SVGID_4_);}
	.st3{clip-path:url(#SVGID_6_);fill:#FFFFFF;}
	.st4{clip-path:url(#SVGID_8_);fill:#FFFFFF;}
	.st5{clip-path:url(#SVGID_10_);fill:#FFFFFF;}
	.st6{clip-path:url(#SVGID_12_);fill:#FFFFFF;}
	.st7{clip-path:url(#SVGID_14_);fill:#FFFFFF;}
	.st8{clip-path:url(#SVGID_16_);fill:#FFFFFF;}
	.st9{clip-path:url(#SVGID_18_);fill:#FFFFFF;}
	.st10{clip-path:url(#SVGID_20_);fill:#FFFFFF;}
	.st11{clip-path:url(#SVGID_22_);fill:#FFFFFF;}
	.st12{clip-path:url(#SVGID_24_);fill:#FFFFFF;}
	.st13{clip-path:url(#SVGID_26_);fill:#FFFFFF;}
	.st14{clip-path:url(#SVGID_28_);fill:#FFFFFF;}
</style>
<g>
	<defs>
		<rect id="SVGID_1_" width="93.1" height="53.6"/>
	</defs>
	<clipPath id="SVGID_2_">
		<use xlink:href="#SVGID_1_"  style="overflow:visible;"/>
	</clipPath>
	<g class="st0">
		<defs>
			<rect id="SVGID_3_" y="0" width="93.1" height="53.6"/>
		</defs>
		<clipPath id="SVGID_4_">
			<use xlink:href="#SVGID_3_"  style="overflow:visible;"/>
		</clipPath>
		<path class="st1" d="M42.5,28.6c0,9.6-7.9,17.5-17.5,17.5c-9.6,0-17.5-7.9-17.5-17.5c0-9.6,7.9-17.4,17.5-17.4
			C34.6,11.1,42.5,19,42.5,28.6 M35.8,40.2c4.6-4.1,6.6-11.2,3.9-17.8C37,16,30.3,12,23.2,12.8c-7,0.8-12.5,6-13.8,12.7
			c-1.3,6.6,1.8,12.2,4.8,14.6c0-0.4,0-0.8,0-1.2c0-1.7,0.8-2.8,2.4-3.4c1.2-0.4,2.3-0.9,3.5-1.3c0.3-0.1,0.6-0.3,0.7-0.7
			c-1-0.7-1.6-1.5-1.7-2.7c-0.2-2.6-0.4-5.1-0.5-7.7c-0.1-2.6,1.6-4.4,4.1-4.5c1.5,0,3,0,4.4,0c2.5,0,4.3,1.9,4.2,4.5
			c-0.1,2.6-0.3,5.2-0.5,7.7c-0.1,0.9-0.4,1.6-1.1,2.2c-0.2,0.2-0.4,0.4-0.7,0.6c0.4,0.2,0.6,0.4,0.9,0.6c1.3,0.5,2.5,0.9,3.8,1.4
			c1.2,0.5,1.8,1.4,2,2.7C35.8,39,35.8,39.5,35.8,40.2 M24.2,44.5c0-0.1,0.1-0.1,0.1-0.1c0-1.7,0-3.4,0-5.1c0-0.1-0.1-0.3-0.3-0.4
			c-1.3-0.9-2.7-1.8-4-2.7c-0.1-0.1-0.3-0.1-0.5-0.1c-0.9,0.3-1.7,0.6-2.6,1c-0.7,0.3-1.1,0.8-1.1,1.5c0,0.9,0,1.9,0,2.8
			c0,0.1,0.2,0.3,0.3,0.4C18.5,43.4,21.2,44.3,24.2,44.5 M25.8,44.5c0.3,0,0.5,0,0.6-0.1c2.7-0.2,5.2-1.1,7.5-2.7
			c0.1-0.1,0.3-0.3,0.3-0.5c0-0.8,0-1.7,0-2.5c0-0.9-0.5-1.5-1.3-1.8c-0.8-0.3-1.6-0.6-2.4-0.9c-0.2-0.1-0.4,0-0.5,0.1
			c-1.3,0.9-2.7,1.8-4,2.7c-0.1,0.1-0.3,0.2-0.3,0.4C25.8,41,25.8,42.7,25.8,44.5 M20.4,26.9c0.1,1.4,0.2,2.7,0.3,4
			c0,0.2,0.1,0.4,0.2,0.5c0.8,0.9,1.8,1.7,2.9,2.2c0.1,0.1,0.3,0.1,0.5,0.1c0.5,0,0.9,0.1,1.4,0c0.4-0.1,0.9-0.2,1.2-0.4
			c0.6-0.4,1.1-0.8,1.6-1.2c0.2-0.2,0.4-0.4,0.6-0.7c0,0-0.1-0.1-0.1-0.1c-1.3,0.8-2.7,0.6-4.1,0.6c-0.5,0-0.8-0.4-0.8-0.8
			c0-0.4,0.3-0.7,0.8-0.7c0.6,0,1.2,0,1.8,0c1.6,0,2.6-1.1,2.7-2.6c0-0.7,0.1-1.4,0.2-2.1c0-0.2,0-0.4,0-0.7
			C26.7,26.1,23.6,26.5,20.4,26.9 M20.3,25.3c1.3-0.2,2.5-0.3,3.6-0.5c1.9-0.3,3.8-0.7,5.5-1.6c0.3-0.1,0.4-0.3,0.4-0.6
			c-0.1-1.3-1.1-2.4-2.4-2.4c-1.6,0-3.3,0-4.9,0c-1.2,0-2.3,1-2.3,2.2C20.2,23.3,20.3,24.3,20.3,25.3 M28.6,35.3
			c-0.3-0.3-0.5-0.5-0.6-0.7c-2,0.9-3.9,0.9-5.8,0c-0.2,0.2-0.4,0.4-0.6,0.7c1.1,0.8,2.3,1.5,3.4,2.3c0.1,0,0.3,0,0.3,0
			C26.3,36.8,27.4,36.1,28.6,35.3"/>
		<g class="st2">
			<g>
				<defs>
					<rect id="SVGID_5_" x="15.8" y="36.1" width="8.5" height="8.4"/>
				</defs>
				<clipPath id="SVGID_6_">
					<use xlink:href="#SVGID_5_"  style="overflow:visible;"/>
				</clipPath>
				<path class="st3" d="M24.2,44.5c-3-0.2-5.6-1.1-8.1-2.7c-0.1-0.1-0.3-0.3-0.3-0.4c0-0.9,0-1.9,0-2.8c0-0.7,0.4-1.2,1.1-1.5
					c0.8-0.3,1.7-0.7,2.6-1c0.1,0,0.4,0,0.5,0.1c1.3,0.9,2.7,1.8,4,2.7c0.1,0.1,0.3,0.3,0.3,0.4c0,1.7,0,3.4,0,5.1
					C24.2,44.4,24.2,44.4,24.2,44.5"/>
			</g>
		</g>
		<g class="st2">
			<g>
				<defs>
					<rect id="SVGID_7_" x="25.8" y="36.1" width="8.5" height="8.4"/>
				</defs>
				<clipPath id="SVGID_8_">
					<use xlink:href="#SVGID_7_"  style="overflow:visible;"/>
				</clipPath>
				<path class="st4" d="M25.8,44.5c0-1.8,0-3.5,0-5.3c0-0.1,0.1-0.3,0.3-0.4c1.3-0.9,2.7-1.8,4-2.7c0.1-0.1,0.4-0.1,0.5-0.1
					c0.8,0.3,1.6,0.6,2.4,0.9c0.8,0.3,1.3,0.9,1.3,1.8c0,0.8,0,1.7,0,2.5c0,0.2-0.1,0.4-0.3,0.5c-2.3,1.6-4.8,2.5-7.5,2.7
					C26.2,44.5,26,44.5,25.8,44.5"/>
			</g>
		</g>
		<g class="st2">
			<g>
				<defs>
					<rect id="SVGID_9_" x="20.2" y="20.2" width="9.6" height="5.1"/>
				</defs>
				<clipPath id="SVGID_10_">
					<use xlink:href="#SVGID_9_"  style="overflow:visible;"/>
				</clipPath>
				<path class="st5" d="M20.3,25.3c0-1-0.1-2-0.1-2.9c0.1-1.2,1.1-2.1,2.3-2.2c1.6,0,3.3,0,4.9,0c1.3,0,2.3,1.1,2.4,2.4
					c0,0.3-0.1,0.5-0.4,0.6c-1.8,0.8-3.6,1.3-5.5,1.6C22.8,25,21.6,25.1,20.3,25.3"/>
			</g>
		</g>
		<path class="st1" d="M47.5,32c-0.3,0-0.7,0-1,0c-0.6,0-0.9,0.2-1,0.8c-0.5,2.3-1.3,4.4-2.5,6.4c-0.2,0.3-0.4,0.7-0.6,1
			c-0.3,0.4-0.2,0.8,0.1,1.1c0.4,0.4,0.8,0.8,1.3,1.2c-1.4,1.9-3,3.5-4.9,4.8c-0.4-0.4-0.7-0.8-1.1-1.2c-0.5-0.5-0.8-0.5-1.3-0.2
			c-2.3,1.5-4.7,2.5-7.4,3c-0.5,0.1-0.7,0.4-0.7,0.9c0,0.5,0,0.9,0,1.4c0,0.1-0.2,0.3-0.3,0.4c-2,0.3-4.1,0.3-6.1,0
			c-0.3,0-0.3-0.2-0.3-0.4c0-0.5,0-0.9,0-1.4c0-0.6-0.2-0.8-0.8-1c-2.2-0.5-4.3-1.3-6.3-2.4c-0.4-0.2-0.7-0.4-1-0.6
			c-0.5-0.3-0.8-0.3-1.2,0.1c-0.4,0.4-0.8,0.8-1.2,1.2c-1.9-1.4-3.5-3-4.9-4.8c0.4-0.4,0.8-0.8,1.2-1.2c0.4-0.4,0.5-0.7,0.2-1.2
			c-1.5-2.3-2.5-4.8-3.1-7.5C4.4,32.2,4.1,32,3.6,32c-0.5,0-0.9,0-1.4,0c-0.3,0-0.4-0.1-0.4-0.4c-0.2-2-0.2-4,0-6
			c0-0.3,0.2-0.4,0.5-0.4c0.4,0,0.8,0,1.3,0c0.7,0,0.9-0.2,1-0.8C5,22.1,5.8,20,7,18c0.2-0.3,0.4-0.7,0.6-1c0.3-0.4,0.2-0.8-0.1-1.1
			c-0.4-0.4-0.8-0.8-1.3-1.2c1.4-1.9,3-3.5,4.8-4.9c0.4,0.4,0.8,0.8,1.2,1.2c0.4,0.4,0.7,0.5,1.3,0.1c2.3-1.5,4.7-2.5,7.4-3
			c0.5-0.1,0.7-0.4,0.7-0.9c0-0.5,0-0.9,0-1.4c0-0.1,0.2-0.3,0.3-0.4c2-0.3,4.1-0.3,6.1,0c0.3,0,0.3,0.2,0.3,0.4c0,0.5,0,0.9,0,1.4
			c0,0.6,0.2,0.8,0.8,1c2.2,0.5,4.4,1.3,6.3,2.4c0.4,0.2,0.7,0.4,1,0.6c0.4,0.3,0.8,0.2,1.1-0.1c0.4-0.4,0.8-0.8,1.2-1.3
			c1.3,1,2.5,2.1,3.6,3.3c0.2-0.6,0.3-1.1,0.6-1.7c-0.9-1-1.9-1.9-3-2.7c-0.7-0.6-1.6-0.5-2.2,0.1C37.6,9,37.3,9.3,37,9.6
			c-0.1-0.1-0.2-0.1-0.3-0.2c-1.9-1.2-4-2.1-6.2-2.6c-0.4-0.1-0.6-0.2-0.5-0.7c0-0.2,0-0.5,0-0.7c-0.1-0.8-0.6-1.4-1.4-1.6
			c-0.8-0.1-1.5-0.2-2.3-0.3h-2.6c-0.6,0.1-1.1,0.1-1.7,0.2C20.6,3.9,20,4.5,20,5.9c0,0.2,0,0.4,0,0.5c0,0.1-0.1,0.3-0.3,0.3
			c-2.4,0.6-4.6,1.5-6.8,2.9c-0.3-0.3-0.5-0.6-0.8-0.8c-0.7-0.7-1.5-0.7-2.2-0.1c-1.8,1.4-3.5,3-4.9,4.9c-0.6,0.7-0.5,1.6,0.1,2.2
			C5.4,16,5.7,16.3,6,16.5c-0.1,0.2-0.1,0.3-0.2,0.4c-1.2,1.9-2,4-2.6,6.2c-0.1,0.4-0.2,0.6-0.7,0.5c-0.2,0-0.5,0-0.7,0
			c-0.8,0.1-1.4,0.6-1.5,1.4c-0.1,0.7-0.2,1.4-0.3,2.2v2.6c0.1,0.6,0.1,1.2,0.2,1.8c0.1,1.3,0.7,1.9,2.1,1.9c0.2,0,0.4,0,0.5,0
			c0.1,0,0.3,0.1,0.3,0.3c0.6,2.4,1.5,4.6,2.9,6.8c-0.3,0.3-0.5,0.5-0.8,0.7c-0.7,0.7-0.7,1.5-0.1,2.3c1.4,1.8,3,3.4,4.8,4.8
			c0.8,0.6,1.6,0.6,2.3-0.1c0.2-0.2,0.5-0.5,0.7-0.8c0.6,0.4,1.2,0.7,1.9,1c1.5,0.8,3.1,1.4,4.8,1.8c0.3,0.1,0.5,0.2,0.5,0.6
			c0,0.2,0,0.5,0,0.7c0,0.9,0.6,1.5,1.5,1.7c0.7,0.1,1.4,0.2,2.1,0.3h2.7c0.6-0.1,1.1-0.1,1.7-0.2c1.4-0.1,1.9-0.7,1.9-2.1
			c0-0.2,0-0.4,0-0.5c0-0.1,0.1-0.3,0.3-0.3c2.4-0.6,4.6-1.5,6.8-2.9c0.3,0.3,0.5,0.5,0.7,0.8c0.7,0.7,1.5,0.7,2.3,0.1
			c1.8-1.4,3.4-3,4.8-4.8c0.6-0.8,0.6-1.6-0.1-2.3c-0.2-0.2-0.5-0.5-0.8-0.7c0.3-0.6,0.8-1.2,1-1.9c0.6-1.6,1.2-3.2,1.8-4.8
			c0.1-0.3,0.2-0.4,0.5-0.4c0.3,0,0.6,0,0.8,0c0.3,0,0.6-0.1,0.8-0.3C48.5,32.9,48,32.5,47.5,32"/>
		<path class="st1" d="M91.4,29.3V11.2l1.7-3.3V0.1h-10v7.7l1.7,3.3v18.2h-1.7v18.4c0,2.3,1.9,4.2,4.2,4.2h1.7
			c2.3,0,4.2-1.9,4.2-4.2V29.3H91.4z M88.9,50.2h-1.7c-1.4,0-2.5-1.1-2.5-2.5V31h6.7v16.7C91.4,49.1,90.3,50.2,88.9,50.2 M91.4,7.4
			l-1.7,3.3v18.6h-3.3V10.8l-1.7-3.3V1.8h6.7V7.4z"/>
		<g class="st2">
			<g>
				<defs>
					<rect id="SVGID_11_" x="87.3" y="32.7" width="1.7" height="1.7"/>
				</defs>
				<clipPath id="SVGID_12_">
					<use xlink:href="#SVGID_11_"  style="overflow:visible;"/>
				</clipPath>
				<rect x="87.3" y="32.7" class="st6" width="1.7" height="1.7"/>
			</g>
		</g>
		<g class="st2">
			<g>
				<defs>
					<rect id="SVGID_13_" x="87.3" y="36" width="1.7" height="1.7"/>
				</defs>
				<clipPath id="SVGID_14_">
					<use xlink:href="#SVGID_13_"  style="overflow:visible;"/>
				</clipPath>
				<rect x="87.3" y="36" class="st7" width="1.7" height="1.7"/>
			</g>
		</g>
		<g class="st2">
			<g>
				<defs>
					<rect id="SVGID_15_" x="87.3" y="39.4" width="1.7" height="1.7"/>
				</defs>
				<clipPath id="SVGID_16_">
					<use xlink:href="#SVGID_15_"  style="overflow:visible;"/>
				</clipPath>
				<rect x="87.3" y="39.4" class="st8" width="1.7" height="1.7"/>
			</g>
		</g>
		<path class="st1" d="M78.4,18.5c0-5.6-2.6-10.7-7-14l-1.3-1v1.9L60.9,0l-9.2,5.4V3.5l-1.3,1c-4.5,3.3-7,8.5-7,14
			c0,7,4.1,13.1,10.1,15.9h-0.1v17.5H55V35c1.8,0.7,3.8,1,5.8,1c2.1,0,4-0.4,5.8-1v16.9h1.7V34.3h-0.1
			C74.3,31.5,78.4,25.5,78.4,18.5 M51.7,7.3l9.2-5.4l9.2,5.4v11.6l-9.2,5.4l-9.2-5.4V7.3z M51.7,20.8l9.2,5.4l9.2-5.4v1.4l-9.2,5.4
			l-9.2-5.4V20.8z M60.9,34.3c-8.7,0-15.9-7.1-15.9-15.9c0-4.4,1.8-8.6,5-11.6v12.9v3.3l10.8,6.3l10.8-6.3v-3.3V6.9
			c3.2,3,5,7.1,5,11.6C76.7,27.2,69.6,34.3,60.9,34.3"/>
		<g class="st2">
			<g>
				<defs>
					<rect id="SVGID_17_" x="54.2" y="6" width="13.4" height="13.4"/>
				</defs>
				<clipPath id="SVGID_18_">
					<use xlink:href="#SVGID_17_"  style="overflow:visible;"/>
				</clipPath>
				<polygon class="st9" points="61.7,19.3 61.7,13.5 67.6,13.5 67.6,11.8 61.7,11.8 61.7,6 60,6 60,11.8 54.2,11.8 54.2,13.5 
					60,13.5 60,19.3 				"/>
			</g>
		</g>
		<g class="st2">
			<g>
				<defs>
					<rect id="SVGID_19_" x="70.5" y="24.1" width="12" height="14.3"/>
				</defs>
				<clipPath id="SVGID_20_">
					<use xlink:href="#SVGID_19_"  style="overflow:visible;"/>
				</clipPath>
				<path class="st10" d="M70.5,36.9l0.8,1.5c5.5-2.9,9.6-7.9,11.3-13.9l-1.6-0.4C79.4,29.6,75.6,34.3,70.5,36.9"/>
			</g>
		</g>
		<g class="st2">
			<g>
				<defs>
					<rect id="SVGID_21_" x="70.5" y="38.7" width="5.9" height="4.7"/>
				</defs>
				<clipPath id="SVGID_22_">
					<use xlink:href="#SVGID_21_"  style="overflow:visible;"/>
				</clipPath>
				<path class="st11" d="M70.5,42l0.8,1.5c1.7-0.9,3.4-2,5.1-3.4l-1.1-1.3C73.7,40,72.1,41.1,70.5,42"/>
			</g>
		</g>
		<g class="st2">
			<g>
				<defs>
					<rect id="SVGID_23_" x="56.7" y="37.7" width="1.7" height="1.7"/>
				</defs>
				<clipPath id="SVGID_24_">
					<use xlink:href="#SVGID_23_"  style="overflow:visible;"/>
				</clipPath>
				<rect x="56.7" y="37.7" class="st12" width="1.7" height="1.7"/>
			</g>
		</g>
		<g class="st2">
			<g>
				<defs>
					<rect id="SVGID_25_" x="56.7" y="41" width="1.7" height="1.7"/>
				</defs>
				<clipPath id="SVGID_26_">
					<use xlink:href="#SVGID_25_"  style="overflow:visible;"/>
				</clipPath>
				<rect x="56.7" y="41" class="st13" width="1.7" height="1.7"/>
			</g>
		</g>
		<g class="st2">
			<g>
				<defs>
					<rect id="SVGID_27_" x="73.7" y="0.3" width="8.8" height="11.7"/>
				</defs>
				<clipPath id="SVGID_28_">
					<use xlink:href="#SVGID_27_"  style="overflow:visible;"/>
				</clipPath>
				<path class="st14" d="M74.7,0.3l-1,1.3c3.6,2.7,6,6.2,7.2,10.4l1.6-0.4C81.3,7,78.6,3.2,74.7,0.3"/>
			</g>
		</g>
	</g>
</g>
</svg>
