<?xml version="1.0" encoding="utf-8"?>
<!-- Generator: Adobe Illustrator 19.1.0, SVG Export Plug-In . SVG Version: 6.00 Build 0)  -->
<svg version="1.1" id="Layer_1" xmlns="http://www.w3.org/2000/svg" xmlns:xlink="http://www.w3.org/1999/xlink" x="0px" y="0px"
	 viewBox="0 0 68.6 60" style="enable-background:new 0 0 68.6 60;" xml:space="preserve">
<style type="text/css">
	.st0{fill:#61B63D;}
	.st1{clip-path:url(#SVGID_2_);fill:#505358;}
	.st2{clip-path:url(#SVGID_2_);fill:#4995EC;}
</style>
<polygon class="st0" points="34.5,32.6 41.6,25 47.7,30.5 60.9,18.8 60.9,32.9 59.7,34.3 33.9,34.8 "/>
<g>
	<defs>
		<rect id="SVGID_1_" width="68.6" height="60"/>
	</defs>
	<clipPath id="SVGID_2_">
		<use xlink:href="#SVGID_1_"  style="overflow:visible;"/>
	</clipPath>
	<path class="st1" d="M5.3,9.5c0.3,0,0.5-0.1,0.7-0.3C6.2,9,6.3,8.8,6.3,8.5C6.3,8.3,6.2,8,6,7.8C5.8,7.6,5.6,7.5,5.3,7.5
		C5,7.5,4.8,7.6,4.6,7.8C4.4,8,4.3,8.3,4.3,8.5c0,0.3,0.1,0.5,0.3,0.7C4.8,9.4,5,9.5,5.3,9.5"/>
	<path class="st1" d="M8.5,9.5c0.3,0,0.5-0.1,0.7-0.3C9.4,9,9.5,8.8,9.5,8.5c0-0.3-0.1-0.5-0.3-0.7C9,7.6,8.8,7.5,8.5,7.5
		C8.3,7.5,8,7.6,7.8,7.8C7.6,8,7.5,8.3,7.5,8.5c0,0.3,0.1,0.5,0.3,0.7C8,9.4,8.3,9.5,8.5,9.5"/>
	<path class="st1" d="M11.7,9.5c0.3,0,0.5-0.1,0.7-0.3c0.2-0.2,0.3-0.4,0.3-0.7c0-0.3-0.1-0.5-0.3-0.7c-0.2-0.2-0.4-0.3-0.7-0.3
		c-0.3,0-0.5,0.1-0.7,0.3c-0.2,0.2-0.3,0.4-0.3,0.7c0,0.3,0.1,0.5,0.3,0.7C11.2,9.4,11.5,9.5,11.7,9.5"/>
	<path class="st1" d="M61.1,9.5h2.1c0.6,0,1-0.5,1-1c0-0.6-0.5-1-1-1h-2.1c-0.6,0-1,0.4-1,1C60.1,9.1,60.6,9.5,61.1,9.5"/>
	<path class="st1" d="M59,37.6H48.3c-1.7,0-3.2,1.4-3.2,3.2v7.5c0,1.7,1.4,3.2,3.2,3.2H59c1.7,0,3.2-1.4,3.2-3.2v-7.5
		C62.1,39,60.7,37.6,59,37.6 M60.1,48.3c0,0.6-0.5,1.1-1.1,1.1H48.3c-0.6,0-1.1-0.5-1.1-1.1v-7.5c0-0.6,0.5-1.1,1.1-1.1H59
		c0.6,0,1.1,0.5,1.1,1.1V48.3z"/>
	<path class="st1" d="M48.3,26.7c1.7,0,3.2-1.4,3.2-3.2c0-1.7-1.4-3.2-3.2-3.2c-1.7,0-3.2,1.4-3.2,3.2
		C45.1,25.3,46.5,26.7,48.3,26.7 M48.3,22.4c0.6,0,1.1,0.5,1.1,1.1c0,0.6-0.5,1.1-1.1,1.1c-0.6,0-1.1-0.5-1.1-1.1
		C47.1,22.9,47.6,22.4,48.3,22.4"/>
	<path class="st1" d="M56.8,41.9h-6.4c-0.6,0-1,0.5-1,1s0.5,1,1,1h6.4c0.6,0,1-0.5,1-1S57.4,41.9,56.8,41.9"/>
	<path class="st1" d="M53.6,45.1h-3.2c-0.6,0-1,0.5-1,1s0.5,1,1,1h3.2c0.6,0,1-0.5,1-1S54.2,45.1,53.6,45.1"/>
	<path class="st2" d="M5.3,19.2h2.1c0.6,0,1-0.5,1-1c0-0.6-0.4-1-1-1H5.3c-0.6,0-1,0.4-1,1C4.3,18.7,4.7,19.2,5.3,19.2"/>
	<path class="st2" d="M5.3,24.6h2.1c0.6,0,1-0.5,1-1c0-0.6-0.4-1-1-1H5.3c-0.6,0-1,0.4-1,1C4.3,24.1,4.7,24.6,5.3,24.6"/>
	<path class="st2" d="M8.5,27.9H7.4c-0.6,0-1,0.5-1,1c0,0.6,0.5,1,1,1h1.1c0.6,0,1-0.4,1-1C9.5,28.4,9.1,27.9,8.5,27.9"/>
	<path class="st2" d="M5.3,35.3h2.1c0.6,0,1-0.5,1-1c0-0.6-0.4-1-1-1H5.3c-0.6,0-1,0.4-1,1C4.3,34.9,4.7,35.3,5.3,35.3"/>
	<path class="st2" d="M11.7,19.2H16c0.6,0,1-0.5,1-1c0-0.6-0.5-1-1-1h-4.3c-0.6,0-1,0.4-1,1C10.7,18.7,11.2,19.2,11.7,19.2"/>
	<path class="st2" d="M11.7,35.3h8.6c0.6,0,1-0.5,1-1c0-0.6-0.4-1-1-1h-8.6c-0.6,0-1,0.4-1,1C10.7,34.9,11.2,35.3,11.7,35.3"/>
	<path class="st2" d="M11.7,24.6h10.7c0.6,0,1-0.5,1-1c0-0.6-0.5-1-1-1H11.7c-0.6,0-1,0.4-1,1C10.7,24.1,11.2,24.6,11.7,24.6"/>
	<path class="st2" d="M12.8,27.9c-0.6,0-1,0.5-1,1c0,0.6,0.5,1,1,1h4.3c0.6,0,1-0.4,1-1c0-0.6-0.5-1-1-1H12.8z"/>
	<path class="st2" d="M25.6,28.9c0-0.6-0.5-1-1-1h-3.2c-0.6,0-1,0.5-1,1c0,0.6,0.5,1,1,1h3.2C25.2,29.9,25.6,29.5,25.6,28.9"/>
	<path class="st2" d="M28.9,27.9c-0.3,0-0.5,0.1-0.7,0.3c-0.2,0.2-0.3,0.4-0.3,0.7c0,0.3,0.1,0.5,0.3,0.7c0.2,0.2,0.4,0.3,0.7,0.3
		c0.3,0,0.5-0.1,0.7-0.3c0.2-0.2,0.3-0.4,0.3-0.7c0-0.3-0.1-0.5-0.3-0.7C29.5,28,29.2,27.9,28.9,27.9"/>
	<path class="st2" d="M26.1,39c-0.2,0.2-0.3,0.4-0.3,0.7c0,0.3,0.1,0.5,0.3,0.7c0.2,0.2,0.4,0.3,0.7,0.3c0.3,0,0.5-0.1,0.7-0.3
		c0.2-0.2,0.3-0.4,0.3-0.7c0-0.3-0.1-0.5-0.3-0.7c-0.2-0.2-0.4-0.3-0.7-0.3C26.5,38.7,26.3,38.8,26.1,39"/>
	<path class="st2" d="M8.5,38.7H7.4c-0.6,0-1,0.5-1,1c0,0.6,0.5,1,1,1h1.1c0.6,0,1-0.4,1-1C9.5,39.1,9.1,38.7,8.5,38.7"/>
	<path class="st2" d="M23.5,39.7c0-0.6-0.5-1-1-1h-9.7c-0.6,0-1,0.5-1,1c0,0.6,0.5,1,1,1h9.7C23,40.7,23.5,40.2,23.5,39.7"/>
	<path class="st2" d="M8.5,44H7.4c-0.6,0-1,0.5-1,1c0,0.6,0.5,1,1,1h1.1c0.6,0,1-0.5,1-1C9.5,44.5,9.1,44,8.5,44"/>
	<path class="st2" d="M12.8,44c-0.6,0-1,0.5-1,1c0,0.6,0.5,1,1,1h6.4c0.6,0,1-0.5,1-1c0-0.6-0.5-1-1-1H12.8z"/>
	<path class="st2" d="M27.8,45c0-0.6-0.5-1-1-1h-3.2c-0.6,0-1,0.5-1,1s0.5,1,1,1h3.2C27.3,46,27.8,45.6,27.8,45"/>
	<path class="st2" d="M7.4,49.4H5.3c-0.6,0-1,0.5-1,1s0.5,1,1,1h2.1c0.6,0,1-0.5,1-1S8,49.4,7.4,49.4"/>
	<path class="st2" d="M15,49.4h-3.2c-0.6,0-1,0.5-1,1s0.5,1,1,1H15c0.6,0,1-0.5,1-1S15.5,49.4,15,49.4"/>
	<path class="st2" d="M30,49.4h-2.1c-0.6,0-1,0.5-1,1s0.5,1,1,1H30c0.6,0,1-0.5,1-1S30.6,49.4,30,49.4"/>
	<path class="st2" d="M20.3,19.2h8.6c0.6,0,1-0.5,1-1c0-0.6-0.5-1-1-1h-8.6c-0.6,0-1,0.4-1,1C19.3,18.7,19.8,19.2,20.3,19.2"/>
	<path class="st2" d="M23.6,49.4h-4.3c-0.6,0-1,0.5-1,1s0.5,1,1,1h4.3c0.6,0,1-0.5,1-1S24.1,49.4,23.6,49.4"/>
	<path class="st1" d="M63.3,3.2h-28V1c0-0.6-0.5-1-1-1s-1,0.5-1,1v2.2h-28C2.4,3.2,0,5.6,0,8.5v43c0,2.9,2.4,5.3,5.3,5.3h28V59
		c0,0.6,0.5,1,1,1s1-0.5,1-1v-2.2h28c2.9,0,5.3-2.4,5.3-5.3v-43C68.6,5.6,66.2,3.2,63.3,3.2 M63.3,5.2c1.8,0,3.3,1.5,3.3,3.3v3.3
		H35.3V9.5h21.5c0.6,0,1-0.5,1-1s-0.5-1-1-1H35.3V5.2H63.3z M5.3,5.2h28v2.3H16c-0.6,0-1,0.5-1,1s0.5,1,1,1h17.2v2.3H2V8.5
		C2,6.7,3.5,5.2,5.3,5.2 M5.3,54.8c-1.8,0-3.3-1.5-3.3-3.3V13.8h31.3v18.3v0v22.6H5.3z M35.3,39.6h4.4c0.6,0,1.1,0.5,1.1,1.1v7.5
		c0,0.6-0.5,1.1-1.1,1.1h-4.4V39.6z M35.3,32.6l6.5-6.5l5.7,5.7c0.4,0.4,1,0.4,1.4,0l11.2-11.2v11.5c0,0.6-0.5,1.1-1.1,1.1H35.3
		V32.6z M48.3,29.7l-5.7-5.7c-0.4-0.4-1-0.4-1.4,0l-5.8,5.8V19.2h23.4L48.3,29.7z M63.3,54.8h-28v-3.4h4.4c1.7,0,3.2-1.4,3.2-3.2
		v-7.5c0-1.7-1.4-3.2-3.2-3.2h-4.4v-2.3H59c1.7,0,3.2-1.4,3.2-3.2V20.3c0-1.7-1.4-3.2-3.2-3.2H35.3v-3.4h31.3v37.7
		C66.6,53.3,65.1,54.8,63.3,54.8"/>
</g>
</svg>
