<?xml version="1.0" encoding="utf-8"?>
<!-- Generator: Adobe Illustrator 19.1.0, SVG Export Plug-In . SVG Version: 6.00 Build 0)  -->
<svg version="1.1" id="Capa_1" xmlns="http://www.w3.org/2000/svg" xmlns:xlink="http://www.w3.org/1999/xlink" x="0px" y="0px"
	 viewBox="-764 1266.7 469.3 469.3" style="enable-background:new -764 1266.7 469.3 469.3;" xml:space="preserve">
<style type="text/css">
	.st0{fill:#444B54;}
	.st1{fill:#61B63D;}
	.st2{fill:#4995EC;}
</style>
<path class="st0" d="M-355.4,1292.7h-345.3c-21.2,0-38.4,17.2-38.4,38.4v345.3c0,21.2,17.2,38.4,38.4,38.4h345.3
	c21.2,0,38.4-17.2,38.4-38.4V1331C-317,1309.9-334.2,1292.7-355.4,1292.7z M-336.2,1676.3c0,10.6-8.6,19.2-19.2,19.2h-345.3
	c-10.6,0-19.2-8.6-19.2-19.2v-152.7c1.1,0.1,2.1,0.1,3.2,0.3c0.5,0.1,1.1,0.1,1.6,0.1c4.6,0,8.7-3.3,9.5-8c0.9-5.2-2.7-10.2-7.9-11
	c-2.1-0.3-4.2-0.3-6.3-0.5v-115.9h383.6V1676.3z M-336.2,1369.4h-383.6V1331c0-10.6,8.6-19.2,19.2-19.2h345.3
	c10.6,0,19.2,8.6,19.2,19.2L-336.2,1369.4L-336.2,1369.4z"/>
<circle class="st1" cx="-691" cy="1340.6" r="9.6"/>
<circle class="st1" cx="-652.7" cy="1340.6" r="9.6"/>
<circle class="st1" cx="-614.3" cy="1340.6" r="9.6"/>
<path class="st2" d="M-600.5,1521.2l54,36l9,62.9c0.6,4,3.6,7.2,7.6,8c0.6,0.1,1.3,0.2,1.9,0.2c3.3,0,6.5-1.7,8.2-4.7l23.6-39.3
	l49.2,32.8c1.6,1.1,3.4,1.6,5.3,1.6c1,0,1.9-0.1,2.8-0.4c2.8-0.9,5-2.9,6.1-5.6l76.7-191.8c1.4-3.6,0.6-7.7-2.2-10.4
	s-6.9-3.5-10.4-2l-230.2,95.9c-3.3,1.4-5.5,4.4-5.9,7.9C-605,1515.9-603.4,1519.3-600.5,1521.2z M-507.4,1565.7
	C-507.4,1565.7-507.4,1565.8-507.4,1565.7c0,0.1-0.1,0.1-0.1,0.2l-14.9,24.8l-4.9-34.4l44.2-29.5L-507.4,1565.7z M-382.3,1435
	l-63.9,159.6l-40-26.6l43-68.8c2.4-3.8,1.8-8.8-1.5-12c-3.2-3.1-8.2-3.6-12-1.1l-81,54l-37.3-24.9L-382.3,1435z"/>
<path class="st0" d="M-602.6,1674c5.5,1.5,11.2,2.3,16.9,2.3c5.8,0,11.6-0.8,17.2-2.4c5.1-1.4,8.1-6.7,6.7-11.8
	c-1.4-5.1-6.7-8.1-11.8-6.7c-7.7,2.1-16.1,2.2-23.8,0c-5.1-1.4-10.4,1.6-11.8,6.7C-610.7,1667.3-607.7,1672.6-602.6,1674z"/>
<path class="st0" d="M-640.6,1615c-5.2,1.2-8.4,6.3-7.3,11.4c2.5,11.3,8.1,21.7,16,30.1c1.9,2,4.4,3,6.9,3c2.4,0,4.8-0.9,6.6-2.6
	c3.8-3.7,4-9.7,0.3-13.6c-5.6-5.9-9.5-13.1-11.2-21C-630.3,1617.1-635.5,1614-640.6,1615z"/>
<path class="st0" d="M-692.1,1532.4c7.6,4.2,14.5,9.7,20.3,16.2c1.9,2.1,4.5,3.2,7.1,3.2c2.3,0,4.6-0.8,6.4-2.4
	c3.9-3.5,4.3-9.6,0.7-13.5c-7.3-8.1-15.8-14.9-25.3-20.2c-4.7-2.6-10.5-0.9-13,3.8C-698.4,1524-696.7,1529.9-692.1,1532.4z"/>
<path class="st0" d="M-658,1570.6c2.6,6.4,4.4,13.1,5.3,20l0.7,5.9c0.6,4.9,4.7,8.4,9.5,8.4c0.4,0,0.8,0,1.2-0.1
	c5.3-0.7,9-5.5,8.3-10.7l-0.7-5.9c-1.1-8.6-3.3-17-6.6-25c-2-4.9-7.7-7.2-12.5-5.2C-657.7,1560.1-660,1565.7-658,1570.6z"/>
<path class="st0" d="M-532.3,1630c-4.4-3-10.4-1.8-13.3,2.7l-3.1,4.7c-1.3,2-2.8,3.9-4.5,5.7c-3.6,3.9-3.4,9.9,0.5,13.6
	c1.8,1.7,4.2,2.6,6.5,2.6c2.6,0,5.1-1,7-3.1c2.3-2.5,4.5-5.2,6.4-8.1l3.1-4.7C-526.7,1638.9-527.9,1632.9-532.3,1630z"/>
<path class="st1" d="M-1293.3,1160.5c-9.7-9.7-25.6-9.7-35.3,0l-6.3,6.3l-6.3-6.3c-9.7-9.7-25.6-9.7-35.3,0
	c-4.7,4.7-7.3,11-7.3,17.7s2.6,12.9,7.3,17.7l36,36c1.6,1.6,3.6,2.3,5.7,2.3c2,0,4.1-0.8,5.7-2.3l36-36c4.7-4.7,7.3-11,7.3-17.7
	S-1288.6,1165.2-1293.3,1160.5z M-1304.7,1184.5l-30.3,30.3l-30.3-30.3c-1.7-1.7-2.6-3.9-2.6-6.3s0.9-4.6,2.6-6.3
	c1.8-1.8,4-2.6,6.3-2.6c2.3,0,4.6,0.9,6.3,2.6l12,12c3.1,3.1,8.2,3.1,11.3,0l12-12c3.5-3.5,9.2-3.5,12.7,0c1.7,1.7,2.6,3.9,2.6,6.3
	S-1303,1182.8-1304.7,1184.5z"/>
<path class="st2" d="M-1143,1361.7h-40v-24c0-13.2-10.8-24-24-24h-16c-4.4,0-8,3.6-8,8v44.7l-19.3,19.3h-52.7c-4.4,0-8,3.6-8,8v72
	c0,4.4,3.6,8,8,8h56h104c22.1,0,40-17.9,40-40v-32C-1103,1379.6-1120.9,1361.7-1143,1361.7z M-1255,1457.7h-40v-56h40V1457.7z
	 M-1119,1433.7c0,13.2-10.8,24-24,24h-96V1397l21.7-21.7c1.5-1.5,2.3-3.5,2.3-5.7v-40h8c4.4,0,8,3.6,8,8v32c0,4.4,3.6,8,8,8h48
	c13.2,0,24,10.8,24,24V1433.7z"/>
</svg>
