<?xml version="1.0" encoding="utf-8"?>
<!-- Generator: Adobe Illustrator 19.1.0, SVG Export Plug-In . SVG Version: 6.00 Build 0)  -->
<svg version="1.1" id="Forma_1_1_" xmlns="http://www.w3.org/2000/svg" xmlns:xlink="http://www.w3.org/1999/xlink" x="0px" y="0px"
	 viewBox="0 0 480 480" style="enable-background:new 0 0 480 480;" xml:space="preserve">
<style type="text/css">
	.st0{fill:#444B54;}
	.st1{fill:#61B63D;}
	.st2{fill:#4995EC;}
</style>
<g id="Forma_1">
	<g>
		<path class="st0" d="M480,120V40c0-22.1-17.9-40-40-40H296c-22.1,0-40,17.9-40,40v80c0,2.7,0.3,5.4,0.8,8h-33.6
			c0.5-2.6,0.8-5.3,0.8-8V40c0-22.1-17.9-40-40-40H40C17.9,0,0,17.9,0,40v80c0,22.1,17.9,40,40,40v256H8c-4.4,0-8,3.6-8,8
			c0,30.9,25.1,56,56,56h368c30.9,0,56-25.1,56-56c0-4.4-3.6-8-8-8h-32V160C462.1,160,480,142.1,480,120z M210.4,149.8
			c1.4-1.2,2.7-2.6,3.9-4c0.5-0.6,1-1.1,1.5-1.8h48.3c0.5,0.6,1,1.2,1.5,1.8c1.2,1.4,2.5,2.8,3.9,4c0.7,0.7,1.5,1.3,2.3,1.9
			c1.1,0.8,2.2,1.6,3.4,2.4c1.3,0.8,2.6,1.5,3.9,2.1c0.8,0.4,1.6,0.7,2.4,1.1c1.9,0.7,3.8,1.4,5.8,1.8c0.5,0.1,1,0.2,1.6,0.3
			c2.3,0.4,4.7,0.7,7.1,0.7h32v16H152v-16h32c2.4,0,4.8-0.3,7.1-0.7c0.5-0.1,1.1-0.2,1.6-0.3c2-0.4,3.9-1.1,5.8-1.8
			c0.8-0.3,1.6-0.7,2.4-1.1c1.3-0.6,2.6-1.3,3.9-2.1c1.2-0.7,2.3-1.5,3.4-2.4C208.9,151.1,209.7,150.4,210.4,149.8z M80,400h320
			c4.4,0,8-3.6,8-8V184c0-4.4-3.6-8-8-8h-12.7l16-16H424v256H56V160h20.7l16,16H80c-4.4,0-8,3.6-8,8v208C72,396.4,75.6,400,80,400z
			 M392,192v192H88V192h20.7l29.7,29.7c0.7,0.7,1.5,1.2,2.4,1.6c0.2,0.1,0.5,0.2,0.7,0.3c0.7,0.2,1.3,0.4,2,0.4
			c0.2,0,0.3,0.1,0.5,0.1c0.1,0,0.2-0.1,0.3-0.1c0.9,0,1.9-0.2,2.8-0.6c3-1.2,4.9-4.2,4.9-7.4v-24h176v24c0,3.2,2,6.2,4.9,7.4
			c0.9,0.4,1.8,0.5,2.8,0.6c0.1,0,0.2,0.1,0.3,0.1c0.2,0,0.3-0.1,0.5-0.1c0.7,0,1.4-0.2,2-0.4c0.3-0.1,0.5-0.2,0.8-0.3
			c0.9-0.4,1.7-0.9,2.4-1.6l29.7-29.7H392z M16,120V40c0-13.2,10.8-24,24-24h144c13.2,0,24,10.8,24,24v80c0,4.3-1.2,8.4-3.3,11.9
			c0,0-0.1,0.1-0.1,0.1c-2.1,3.6-5,6.5-8.4,8.5c-0.4,0.2-0.7,0.4-1.1,0.6c-1.3,0.7-2.6,1.2-4,1.7c-0.5,0.2-1,0.3-1.5,0.5
			c-1.8,0.4-3.7,0.7-5.7,0.7h-40c-4.4,0-8,3.6-8,8v44.7l-50.3-50.3c-1.5-1.5-3.5-2.3-5.7-2.3H40C26.8,144,16,133.2,16,120z
			 M463.2,432c-3.7,18.2-19.9,32-39.2,32H56c-19.3,0-35.5-13.8-39.2-32H463.2z M400,144c-2.1,0-4.2,0.8-5.7,2.3L344,196.7V152
			c0-4.4-3.6-8-8-8h-40c-1.9,0-3.8-0.3-5.7-0.7c-0.5-0.1-1-0.3-1.5-0.5c-1.4-0.4-2.8-1-4-1.7c-0.4-0.2-0.7-0.4-1.1-0.6
			c-3.4-2.1-6.3-4.9-8.4-8.5c0,0-0.1-0.1-0.1-0.1c-2-3.5-3.3-7.5-3.3-11.9V40c0-13.2,10.8-24,24-24h144c13.2,0,24,10.8,24,24v80
			c0,13.2-10.8,24-24,24H400z"/>
	</g>
</g>
<path class="st1" d="M153.7,54.8c-9.7-9.7-25.6-9.7-35.3,0l-6.3,6.3l-6.3-6.3c-9.7-9.7-25.6-9.7-35.3,0c-4.7,4.7-7.3,11-7.3,17.7
	c0,6.7,2.6,12.9,7.3,17.7l36,36c1.6,1.6,3.6,2.3,5.7,2.3c2,0,4.1-0.8,5.7-2.3l36-36c4.7-4.7,7.3-11,7.3-17.7
	C161,65.8,158.4,59.5,153.7,54.8z M142.3,78.8L112,109.2L81.7,78.8C80,77.1,79,74.9,79,72.5c0-2.4,0.9-4.6,2.6-6.3
	c1.8-1.8,4-2.6,6.3-2.6c2.3,0,4.6,0.9,6.3,2.6l12,12c3.1,3.1,8.2,3.1,11.3,0l12-12c3.5-3.5,9.2-3.5,12.7,0c1.7,1.7,2.6,3.9,2.6,6.3
	C145,74.9,144,77.1,142.3,78.8z"/>
<rect x="328" y="72" class="st1" width="16" height="16"/>
<rect x="360" y="72" class="st1" width="16" height="16"/>
<rect x="392" y="72" class="st1" width="16" height="16"/>
<path class="st2" d="M304,256h-40v-24c0-13.2-10.8-24-24-24h-16c-4.4,0-8,3.6-8,8v44.7L196.7,280H144c-4.4,0-8,3.6-8,8v72
	c0,4.4,3.6,8,8,8h56h104c22.1,0,40-17.9,40-40v-32C344,273.9,326.1,256,304,256z M192,352h-40v-56h40V352z M328,328
	c0,13.2-10.8,24-24,24h-96v-60.7l21.7-21.7c1.5-1.5,2.3-3.5,2.3-5.7v-40h8c4.4,0,8,3.6,8,8v32c0,4.4,3.6,8,8,8h48
	c13.2,0,24,10.8,24,24V328z"/>
</svg>
