<?xml version="1.0" encoding="utf-8"?>
<!-- Generator: Adobe Illustrator 19.1.0, SVG Export Plug-In . SVG Version: 6.00 Build 0)  -->
<svg version="1.1" id="Layer_1" xmlns="http://www.w3.org/2000/svg" xmlns:xlink="http://www.w3.org/1999/xlink" x="0px" y="0px"
	 viewBox="0 0 35 60" style="enable-background:new 0 0 35 60;" xml:space="preserve">
<style type="text/css">
	.st0{clip-path:url(#SVGID_2_);fill:#4995EC;}
	.st1{clip-path:url(#SVGID_2_);fill:#9DCC3C;}
	.st2{clip-path:url(#SVGID_2_);fill:#444B54;}
</style>
<g>
	<defs>
		<rect id="SVGID_1_" width="35" height="60"/>
	</defs>
	<clipPath id="SVGID_2_">
		<use xlink:href="#SVGID_1_"  style="overflow:visible;"/>
	</clipPath>
	<path class="st0" d="M18,17c-7.2,0-13,5.8-13,13s5.8,13,13,13s13-5.8,13-13S25.2,17,18,17 M18,41c-6.1,0-11-4.9-11-11s4.9-11,11-11
		s11,4.9,11,11S24.1,41,18,41"/>
	<path class="st1" d="M17.7,32.3l-4-4c-0.4-0.4-1-0.4-1.4,0c-0.4,0.4-0.4,1,0,1.4l4,4c0.4,0.4,1,0.4,1.4,0
		C18.1,33.3,18.1,32.7,17.7,32.3"/>
	<path class="st1" d="M23.6,25.2c-0.4-0.3-1-0.3-1.4,0.1l-6,7c-0.4,0.4-0.3,1.1,0.1,1.4c0.4,0.4,1.1,0.3,1.4-0.1l6-7
		C24.1,26.2,24,25.5,23.6,25.2"/>
	<path class="st2" d="M31,0H5C2.8,0,1,1.8,1,4v52c0,2.2,1.8,4,4,4h26c2.2,0,4-1.8,4-4V4C35,1.8,33.2,0,31,0 M33,56c0,1.1-0.9,2-2,2
		H5c-1.1,0-2-0.9-2-2V4c0-1.1,0.9-2,2-2h26c1.1,0,2,0.9,2,2V56z"/>
	<path class="st2" d="M1,52h34V6H1V52z M33,50H3V8h30V50z"/>
	<path class="st2" d="M22,3h-5c-0.6,0-1,0.4-1,1c0,0.6,0.4,1,1,1h5c0.6,0,1-0.4,1-1C23,3.4,22.6,3,22,3"/>
	<path class="st2" d="M14,3h-1c-0.6,0-1,0.4-1,1c0,0.6,0.4,1,1,1h1c0.6,0,1-0.4,1-1C15,3.4,14.6,3,14,3"/>
	<path class="st2" d="M1,9c-0.6,0-1,0.4-1,1v1c0,0.6,0.4,1,1,1s1-0.4,1-1v-1C2,9.4,1.6,9,1,9"/>
	<path class="st2" d="M1,13c-0.6,0-1,0.4-1,1v1c0,0.6,0.4,1,1,1s1-0.4,1-1v-1C2,13.4,1.6,13,1,13"/>
	<path class="st2" d="M1,17c-0.6,0-1,0.4-1,1v1c0,0.6,0.4,1,1,1s1-0.4,1-1v-1C2,17.4,1.6,17,1,17"/>
	<path class="st2" d="M18,51c-2.2,0-4,1.8-4,4c0,2.2,1.8,4,4,4s4-1.8,4-4C22,52.8,20.2,51,18,51 M18,57c-1.1,0-2-0.9-2-2
		c0-1.1,0.9-2,2-2c1.1,0,2,0.9,2,2C20,56.1,19.1,57,18,57"/>
</g>
</svg>
