<?xml version="1.0" encoding="utf-8"?>
<!-- Generator: Adobe Illustrator 19.1.0, SVG Export Plug-In . SVG Version: 6.00 Build 0)  -->
<svg version="1.1" id="Layer_1" xmlns="http://www.w3.org/2000/svg" xmlns:xlink="http://www.w3.org/1999/xlink" x="0px" y="0px"
	 viewBox="0 0 126.7 126.7" style="enable-background:new 0 0 126.7 126.7;" xml:space="preserve">
<style type="text/css">
	.st0{clip-path:url(#SVGID_2_);fill:#9DCC3C;}
	.st1{clip-path:url(#SVGID_2_);fill:#4995EC;}
	.st2{clip-path:url(#SVGID_2_);fill:#444B54;}
</style>
<g>
	<defs>
		<rect id="SVGID_1_" width="126.7" height="126.7"/>
	</defs>
	<clipPath id="SVGID_2_">
		<use xlink:href="#SVGID_1_"  style="overflow:visible;"/>
	</clipPath>
	<path class="st0" d="M93.7,104.5l0.4,12.7c0,0,6.5-1.7,6.4-6C100.5,106.8,97.1,104.3,93.7,104.5"/>
	<path class="st0" d="M110.5,104.5l0.4,12.7c0,0,6.5-1.7,6.4-6C117.2,106.8,113.8,104.3,110.5,104.5"/>
	<rect x="4.9" y="56.6" class="st1" width="17" height="21.5"/>
	<rect x="4.9" y="106" class="st1" width="17" height="19.7"/>
	<path class="st0" d="M68.4,46.9c0,3.6-2.9,6.5-6.5,6.5c-3.6,0-6.5-2.9-6.5-6.5c0-3.6,2.9-6.5,6.5-6.5
		C65.4,40.4,68.4,43.3,68.4,46.9"/>
	<path class="st0" d="M64.3,72h-7.4c-2.3,0-4.2-1.9-4.2-4.2V63c0-4.8,3.9-8.7,8.7-8.7c3.8,0,7,3.2,7,7v6.6
		C68.5,70.1,66.6,72,64.3,72"/>
	<path class="st2" d="M108.8,55.7c-3.1,0-5.5,2.5-5.5,5.5c0,3.1,2.5,5.5,5.5,5.5c3.1,0,5.5-2.5,5.5-5.5
		C114.3,58.2,111.8,55.7,108.8,55.7 M108.8,64c-1.5,0-2.7-1.2-2.7-2.7c0-1.5,1.2-2.7,2.7-2.7c1.5,0,2.7,1.2,2.7,2.7
		C111.5,62.8,110.3,64,108.8,64"/>
	<path class="st2" d="M61.3,33c-11,0-20,9-20,20c0,11,9,20,20,20s20-9,20-20C81.3,42,72.3,33,61.3,33 M68.1,68.8l-0.4,0.2
		c-2.1,0.8-4.2,1.3-6.4,1.3c-2.2,0-4.4-0.4-6.4-1.3l-0.4-0.2v-5.4c0-3.8,3.1-6.8,6.8-6.8c3.8,0,6.8,3.1,6.8,6.8V68.8z M61.3,51.6
		c-2.6,0-4.8-2.1-4.8-4.8c0-2.6,2.1-4.8,4.8-4.8c2.6,0,4.8,2.1,4.8,4.8C66.1,49.5,63.9,51.6,61.3,51.6 M72,66.4L71,67.3v-3.9
		c0-3.8-2.3-7.3-5.8-8.8L64,54l1.1-0.6c2.4-1.4,3.8-3.8,3.8-6.5c0-4.2-3.4-7.6-7.6-7.6c-4.2,0-7.6,3.4-7.6,7.6
		c0,2.7,1.4,5.1,3.8,6.5l1.1,0.6l-1.2,0.5c-3.5,1.6-5.8,5-5.8,8.8v3.9l-1.1-0.9c-4.1-3.3-6.4-8.2-6.4-13.4c0-9.5,7.7-17.2,17.2-17.2
		S78.5,43.6,78.5,53C78.5,58.2,76.1,63.1,72,66.4"/>
	<path class="st2" d="M54.1,80.5h-8.3c-2.5,0-4.5,2-4.5,4.5c0,2.5,2,4.5,4.5,4.5h8.3c2.5,0,4.5-2,4.5-4.5
		C58.6,82.5,56.5,80.5,54.1,80.5 M54.1,86.7h-8.3c-0.9,0-1.7-0.8-1.7-1.7c0-0.9,0.8-1.7,1.7-1.7h8.3c0.9,0,1.7,0.8,1.7,1.7
		C55.7,86,55,86.7,54.1,86.7"/>
	<path class="st2" d="M76.8,80.5h-8.3c-2.5,0-4.5,2-4.5,4.5c0,2.5,2,4.5,4.5,4.5h8.3c2.5,0,4.5-2,4.5-4.5
		C81.3,82.5,79.3,80.5,76.8,80.5 M76.8,86.7h-8.3c-0.9,0-1.7-0.8-1.7-1.7c0-0.9,0.8-1.7,1.7-1.7h8.3c0.9,0,1.7,0.8,1.7,1.7
		C78.5,86,77.7,86.7,76.8,86.7"/>
	<path class="st2" d="M107.7,0H93.3c-10.5,0-19,8.5-19,19c0,1.7,0.2,3.3,0.7,5l0.2,0.8H13.8c-3.1,0-5.5,2.5-5.5,5.5v25.4H4.1v20.8
		l-0.4,0.2C1.5,77.5,0,79.6,0,81.9v20.6c0,2.3,1.5,4.4,3.7,5.2l0.4,0.2v18.8h19.3v-18.8l0.4-0.2c2.2-0.8,3.7-2.9,3.7-5.2v-4.8h7.5
		v23.4c0,3.1,2.5,5.5,5.5,5.5h72.3c3.1,0,5.5-2.5,5.5-5.5v-10.3c0-4.2-3.4-7.6-7.6-7.6h-1.4v15.2h1.4c1.3,0,2.6-0.4,3.8-1.1l1-0.6
		v4.3c0,1.5-1.2,2.7-2.7,2.7h-11.6l0.3-0.9c0.2-0.6,0.3-1.2,0.3-1.8v-10.3c0-4.2-3.4-7.6-7.6-7.6h-1.4v15.2h1.4
		c1.3,0,2.6-0.4,3.8-1.1l1-0.6v4.3c0,1.5-1.2,2.7-2.7,2.7H40.6c-1.5,0-2.7-1.2-2.7-2.7V97.8h75c3.1,0,5.5-2.5,5.5-5.5V34.6l0.3-0.2
		c5-3.6,8-9.3,8-15.4C126.7,8.5,118.2,0,107.7,0 M113.2,115l-1,0.6v-9.4l1,0.6c1.5,0.9,2.4,2.4,2.4,4.1
		C115.6,112.5,114.7,114.1,113.2,115 M96.7,115l-1,0.6v-9.4l1,0.6c1.5,0.9,2.4,2.4,2.4,4.1C99.1,112.5,98.2,114.1,96.7,115
		 M11.1,30.3c0-1.5,1.2-2.7,2.7-2.7h6.8v28.1h-9.6V30.3z M7,58.6h13.7v17.8H7V58.6z M20.6,123.9H7v-15.8h13.7V123.9z M24.8,102.6
		c0,1.5-1.2,2.7-2.7,2.7H5.5c-1.5,0-2.7-1.2-2.7-2.7V92.3l1.3,0c0,5.3,4.3,9.7,9.7,9.7c5.3,0,9.7-4.3,9.7-9.7c0-5.3-4.3-9.7-9.7-9.7
		c-5.3,0-9.7,4.3-9.7,9.7l-1.3,0V81.9c0-1.5,1.2-2.7,2.7-2.7h16.5c1.5,0,2.7,1.2,2.7,2.7V102.6z M7,92.3c0-3.8,3.1-6.8,6.8-6.8
		c3.8,0,6.8,3.1,6.8,6.8c0,3.8-3.1,6.8-6.8,6.8C10,99.1,7,96,7,92.3 M99.1,95H27.6v-13c0-2.3-1.5-4.4-3.7-5.2l-0.4-0.2v-49h53
		l0.2,0.3c1.8,3.3,4.4,6,7.7,7.7l0.3,0.2v9.5l11.1-7.4h3.3V95z M115.6,92.3c0,1.5-1.2,2.7-2.7,2.7h-11v-57h5.8c2.4,0,4.7-0.5,7-1.4
		l0.9-0.4V92.3z M107.7,35.1H94.9l-7.4,5v-6l-0.8-0.4c-5.8-2.6-9.5-8.4-9.5-14.7c0-4.3,1.7-8.4,4.7-11.4c3.1-3.1,7.1-4.7,11.4-4.7
		h14.5c8.9,0,16.1,7.2,16.1,16.1C123.9,27.9,116.6,35.1,107.7,35.1"/>
	<rect x="86.7" y="12.4" class="st1" width="27.6" height="2.8"/>
	<rect x="86.7" y="22.7" class="st1" width="27.6" height="2.8"/>
</g>
</svg>
