<svg xmlns="http://www.w3.org/2000/svg" viewBox="0 0 64.67 65.78"><defs><style>.cls-1{fill:#61b63d;}.cls-2{fill:#4995ec;}.cls-3{fill:#444b54;}</style></defs><title>Asset 11</title><g id="Layer_2" data-name="Layer 2"><g id="Layer_1-2" data-name="Layer 1"><polygon class="cls-1" points="51.93 46.66 44.73 39.32 55.99 28.38 63.19 36.47 51.93 46.66"/><polygon class="cls-2" points="48.62 13.19 56 5.8 63.37 13.47 56 20.98 48.62 13.19"/><path class="cls-3" d="M64.37,64,1.77,1.41A1,1,0,0,0,0,2.14v62.6a1,1,0,0,0,1,1h62.6A1,1,0,0,0,64.37,64Zm-12.44-.3h0V60.31a1,1,0,1,0-2.08,0V63.7H43.62V60.31a1,1,0,0,0-2.08,0V63.7H35.31V60.31a1,1,0,0,0-2.08,0V63.7H27V60.31a1,1,0,0,0-2.08,0V63.7H18.7V60.31a1,1,0,0,0-2.08,0V63.7H10.39V60.31a1,1,0,0,0-2.08,0V63.7H2.08v-59l59,59H51.93Z"/><path class="cls-3" d="M44.43,55.7,10.08,21.47a1,1,0,0,0-1.77.74V56.43a1,1,0,0,0,1,1H43.69a1,1,0,0,0,.73-1.77Zm-34-.3V24.71L41.18,55.39Z"/><path class="cls-3" d="M22.82,28,7.31,12.49A1,1,0,0,0,5.84,14L21.35,29.47A1,1,0,0,0,22.82,28Z"/><path class="cls-3" d="M28.36,34.09l-2.77-2.77a1,1,0,0,0-1.47,1.47l2.77,2.77a1,1,0,1,0,1.47-1.47Z"/><path class="cls-3" d="M64.37,35.41l-7.83-7.83-24-24h0l-.06-.05,0,0-.05,0,0,0,0,0,0,0,0,0-.06,0h0l-.08,0h0L18.33.57l-.12,0h-.29L17.7.64h0l-.06,0h0l0,0,0,0,0,0h0l0,0h0l0,0,0,0,0,0-.05.06h0l0,0,0,0h0l0,0,0,0,0,0h0l0,0v0h0l0,.1h0l0,.11v.19s0,0,0,.06v0a1,1,0,0,0,0,.11L19.84,15.5h0v.06l0,.06,0,.06v0l0,.05,0,0,0,.05,0,0,0,.05,0,0,0,.05v0l24,24,7.83,7.83a1,1,0,0,0,1.47,0l11-11a1,1,0,0,0,0-1.47ZM31.83,5.8l22.5,22.5-2.06,2.06L29.77,7.86Zm19,26-2.45,2.45-22.5-22.5,1.22-1.22h0L28.3,9.33ZM19.93,5.36l-.49-2.44.68.14,1.76.35Zm.49,2.45,3.91-3.91L29.72,5,25.61,9.08h0l-2,2h0L21.5,13.19Zm1.91,7.49,2.06-2.06,22.5,22.5L44.83,37.8ZM52.67,45.64,46.3,39.27l2.79-2.79,6.71-6.71,6.37,6.37Z"/><path class="cls-3" d="M58.83,35.75,56.06,33a1,1,0,0,0-1.47,1.47l2.77,2.77a1,1,0,0,0,1.47-1.47Z"/><path class="cls-3" d="M64.37,12.86,56.53,5,52.62,1.11a3.81,3.81,0,0,0-5.39,0L43.71,4.64a3.81,3.81,0,0,0,0,5.39l3.92,3.92,7.83,7.83a1,1,0,0,0,1.47,0l7.44-7.44A1,1,0,0,0,64.37,12.86ZM45.18,8.56a1.73,1.73,0,0,1,0-2.45L48.7,2.58a1.73,1.73,0,0,1,2.45,0l3.18,3.18-6,6Zm11,11-6.37-6.37,6-6,6.37,6.37Z"/><path class="cls-3" d="M59.67,12.86,56.53,9.73a1,1,0,0,0-1.47,1.47l3.13,3.13a1,1,0,1,0,1.47-1.47Z"/></g></g></svg>