<svg xmlns="http://www.w3.org/2000/svg" viewBox="0 0 61.59 68.26"><defs><style>.cls-1{fill:#4995ec;}.cls-2{fill:#61b63d;}.cls-3{fill:#444b54;}.cls-4{fill:#505358;}</style></defs><title>Asset 6</title><g id="Layer_2" data-name="Layer 2"><g id="Layer_1-2" data-name="Layer 1"><path class="cls-1" d="M46.09,17.67,39.58,15.9s2-10.66,6.51-9S46.09,17.67,46.09,17.67Z"/><path class="cls-1" d="M20.11.91l-2.6,4A1.9,1.9,0,0,0,20,6.16a6,6,0,0,0,2.73-1.44Z"/><circle class="cls-2" cx="19.98" cy="49.15" r="2.73"/><path class="cls-2" d="M17.51,23.21V40.43s.8,2,2.6,1.72,2-1.5,2-1.5V32.54a3,3,0,0,1,2.58-1.77,2,2,0,0,1,1.91,1.92v4.36a1.77,1.77,0,0,0,1.8,1.72A3.14,3.14,0,0,0,31,37.13l.35-13.92Z"/><path class="cls-3" d="M20.11,45.88a3.27,3.27,0,1,0,3.27,3.27A3.27,3.27,0,0,0,20.11,45.88Zm0,4.75a1.48,1.48,0,1,1,1.48-1.48A1.48,1.48,0,0,1,20.11,50.63Z"/><path class="cls-3" d="M33.84,50.63A13.87,13.87,0,1,1,47.72,64.5a1,1,0,1,1,0-2A11.89,11.89,0,1,0,35.82,50.63Z"/><path class="cls-4" d="M34.83,51.62h-.25c-.25,0-.37-.25-.62-.37l-3.72-6.19a1,1,0,0,1,1.73-1l3.22,5.33,5.33-3.22a1,1,0,1,1,1,1.73l-6.19,3.72Z"/><path class="cls-3" d="M45.82,40.95V62a4.47,4.47,0,0,1-4.47,4.47H17.77A4.47,4.47,0,0,1,13.31,62V23.69h3.51V40.06a3.12,3.12,0,1,0,6.24,0v-7a1.33,1.33,0,1,1,2.66,0v3.6a3.12,3.12,0,0,0,6.24,0V23.74l13.86-.05V35.22A15.43,15.43,0,0,1,47.61,35V23.69h.45a.89.89,0,1,0,0-1.79H45.72L49.2,11.64a4.36,4.36,0,0,0-1.76-5.07l-.15-.1.53-1.57a.89.89,0,0,0-1.69-.57L45.6,5.9h-.17a4.37,4.37,0,0,0-4.48,2.95L36.5,21.9H34.77L34.54,5.45a2.55,2.55,0,0,0-5.1,0L29.21,21.9h-3V8.62a.89.89,0,0,0-.15-.5L20.85.37a.93.93,0,0,0-1.49,0L14.18,8.12a.89.89,0,0,0-.15.5V21.9h-3a.89.89,0,0,0,0,1.79h.45v4.22H7a7,7,0,0,0-7,7v16.4a7,7,0,0,0,7,7h4.55V62a6.26,6.26,0,0,0,6.26,6.26H41.35A6.26,6.26,0,0,0,47.61,62V40.59A9.92,9.92,0,0,0,45.82,40.95ZM42.64,9.41a2.57,2.57,0,0,1,4.87,1.66L45.6,16.68,40.73,15Zm-2.48,7.31L45,18.37l-1.2,3.53H38.39ZM31.23,5.48a.76.76,0,0,1,1.52,0L33,21.9H31ZM29.82,23.7l.15,0,.2,0V36.68a1.33,1.33,0,0,1-2.66,0v-3.6a3.12,3.12,0,1,0-6.24,0v7a1.33,1.33,0,1,1-2.66,0V23.69ZM24.41,9.91v12H21V10.55l.21,0A14.06,14.06,0,0,0,24.12,10Zm-4.3-7.43,1.47,2.19-.29.09a4.08,4.08,0,0,1-2.36,0l-.29-.09ZM17.64,6.17l.17.07a5.83,5.83,0,0,0,4.6,0l.17-.07,1.35,2-.29.09a12.2,12.2,0,0,1-3.53.52,12.2,12.2,0,0,1-3.53-.52l-.29-.09ZM15.81,9.91l.29.09a14,14,0,0,0,2.91.54l.21,0V21.9h-3.4ZM11.52,52.28H7.37A1.41,1.41,0,0,1,6,50.87V35.28a1.41,1.41,0,0,1,1.41-1.41h4.15Zm0-20.2H7.37a3.2,3.2,0,0,0-3.2,3.2V50.87a3.2,3.2,0,0,0,3.2,3.2h4.15v2.39H7a5.19,5.19,0,0,1-5.18-5.18V34.88A5.19,5.19,0,0,1,7,29.7h4.55Z"/></g></g></svg>