<svg xmlns="http://www.w3.org/2000/svg" viewBox="0 0 64.67 60.35"><defs><style>.cls-1{fill:#61b63d;}.cls-2{fill:#444b54;}.cls-3{fill:#4995ec;}</style></defs><title>Asset 10</title><g id="Layer_2" data-name="Layer 2"><g id="Layer_1-2" data-name="Layer 1"><polygon class="cls-1" points="36.61 31.8 59.34 54.76 54.01 58.88 32.34 36.87 36.61 31.8"/><path class="cls-2" d="M59.34,17.28a1,1,0,0,0-1,1v8.64a1,1,0,0,0,2,0V18.29A1,1,0,0,0,59.34,17.28Z"/><path class="cls-2" d="M63.66,0H1A1,1,0,0,0,0,1V44.22a1,1,0,0,0,1,1H38.89L53.72,60.06a1,1,0,0,0,1.43,0l4.58-4.58a1,1,0,0,0,0-1.43l-8.81-8.81H63.66a1,1,0,0,0,1-1V1A1,1,0,0,0,63.66,0ZM57.58,54.76l-3.15,3.15L40,43.5,33,36.43l3.15-3.15L47.76,44.93Zm-25.79-20-1.42-2.83L29.2,29.53l2.68,1.34,2.51,1.25ZM54,43.21H48.89L38.08,32.39h0l-1.26-1.26h0l0,0,0,0,0,0,0,0,0,0-.06,0h0l-1.25-.62-4-2h0l-3.94-2A1,1,0,0,0,26,27.71L30.7,37l.06.08,0,0h0l6.06,6.06H2V2H54Zm8.64,0H56V2h6.62Z"/><path class="cls-2" d="M50.46,14.1H5.64V5.66H50.46Zm-42.84-2H48.49V7.64H7.62Z"/><path class="cls-2" d="M27.44,39.76H5.64V16.71h21.8Zm-19.82-2H25.46V18.69H7.62Z"/><rect class="cls-3" x="31" y="17.28" width="19.42" height="1.98"/><rect class="cls-3" x="31" y="22.37" width="19.42" height="1.98"/></g></g></svg>