<svg xmlns="http://www.w3.org/2000/svg" viewBox="0 0 66.38 66.38"><defs><style>.cls-1{fill:#4995ec;}.cls-2{fill:#61b63d;}.cls-3{fill:#444b54;}</style></defs><title>Asset 1</title><g id="Layer_2" data-name="Layer 2"><g id="Layer_1-2" data-name="Layer 1"><polygon class="cls-1" points="40.74 1.91 35.52 9.15 45.94 9.15 40.74 1.91"/><path class="cls-1" d="M35.52,52.69H45.94v8.54s-1.57,4.44-5.21,4.44-5.21-5.11-5.21-5.11Z"/><rect class="cls-2" x="50.54" y="0.66" width="10.53" height="64.29"/><path class="cls-3" d="M66.38,8.63H62.06V0H49.61V8.63H46.56L40.74.48,34.92,8.63H0V59.91H34.51v.25a6.23,6.23,0,1,0,12.45,0v-.25h2.65v6.47H62.06V59.91h4.31Zm-31.87,28H18.75L26,27.55h5.65l2.82,3.76Zm0-8.14-2-2.65H25.24L16.61,36.67h-8v1.67H34.51V41H6V23.24H34.51Zm0-7H4.31V42.65h30.2V58.24H1.67V18.92H34.51Zm0-4.31H1.67v-7H34.51ZM40.74,3.35l3.77,5.28H37Zm-4.56,6.95h3.73V51.77H36.18ZM45.3,60.15a4.56,4.56,0,1,1-9.12,0v-2.4H45.3Zm0-4.07H36.18V53.44H45.3Zm0-4.31H41.57V10.29H45.3Zm4.31,6.47H47V42.65h2.65Zm0-17.26H47V38.34h2.65Zm0-4.31H47V23.24h2.65Zm0-15.1H47V18.92h2.65Zm0-4.31H47v-7h2.65ZM60.4,6.47H56.08V8.14H60.4v4.8H56.08v1.67H60.4v4.8H56.08v1.67H60.4v4.8H56.08v1.67H60.4v4.8H56.08V34H60.4v4.8H56.08v1.67H60.4v4.8H56.08V47H60.4v4.8H56.08v1.67H60.4v4.8H56.08v1.67H60.4v4.8H51.28v-63H60.4Zm4.31,51.77H62.06V10.29h2.65Z"/><rect class="cls-3" x="4.31" y="12.94" width="1.67" height="1.67"/><rect class="cls-3" x="8.63" y="12.94" width="1.67" height="1.67"/><rect class="cls-3" x="12.94" y="12.94" width="1.67" height="1.67"/><path class="cls-3" d="M4.31,45.3v10.3H18.92V45.3Zm12.94,8.63H6V47H17.26Z"/><rect class="cls-3" x="21.57" y="45.3" width="10.3" height="1.67"/><rect class="cls-3" x="21.57" y="49.61" width="10.3" height="1.67"/><rect class="cls-3" x="21.57" y="53.93" width="10.3" height="1.67"/></g></g></svg>