<svg xmlns="http://www.w3.org/2000/svg" viewBox="0 0 65.28 56.57"><defs><style>.cls-1{fill:#4995ec;}.cls-2{fill:#444b54;}.cls-3{fill:#61b63d;}</style></defs><title>Asset 7</title><g id="Layer_2" data-name="Layer 2"><g id="Layer_1-2" data-name="Layer 1"><path class="cls-1" d="M10.46,5.7a5.76,5.76,0,1,0,0,10.34Z"/><path class="cls-2" d="M58.66,0H16.14a6,6,0,0,0-6,6V44.55H.95A1,1,0,0,0,0,45.5v5.06a6,6,0,0,0,6,6H48.54a6,6,0,0,0,6-6V12h9.18a1,1,0,0,0,.95-.95V6A6,6,0,0,0,58.66,0ZM6,54.67A4.12,4.12,0,0,1,1.9,50.56V46.45H42.52v4.11a6,6,0,0,0,1.63,4.11Zm46.64-4.11a4.11,4.11,0,0,1-8.23,0V45.5a1,1,0,0,0-.95-.95H12V6A4.12,4.12,0,0,1,16.14,1.9H54.28A6,6,0,0,0,52.65,6V50.56ZM62.77,10.12H54.55V6a4.11,4.11,0,1,1,8.23,0Z"/><path class="cls-2" d="M20.19,9.11h-2a.95.95,0,1,0,0,1.9h2a.95.95,0,1,0,0-1.9Z"/><path class="cls-2" d="M46.51,9.11H24.24a.95.95,0,1,0,0,1.9H46.51a.95.95,0,1,0,0-1.9Z"/><path class="cls-2" d="M20.19,14.17h-2a.95.95,0,1,0,0,1.9h2a.95.95,0,0,0,0-1.9Z"/><path class="cls-2" d="M24.24,16.07H42.46a.95.95,0,1,0,0-1.9H24.24a.95.95,0,1,0,0,1.9Z"/><path class="cls-2" d="M20.19,19.24h-2a.95.95,0,0,0,0,1.9h2a.95.95,0,0,0,0-1.9Z"/><path class="cls-2" d="M46.51,19.24H24.24a.95.95,0,0,0,0,1.9H46.51a.95.95,0,0,0,0-1.9Z"/><path class="cls-2" d="M20.19,24.3h-2a.95.95,0,1,0,0,1.9h2a.95.95,0,1,0,0-1.9Z"/><path class="cls-2" d="M24.24,26.2H44.49a.95.95,0,0,0,0-1.9H24.24a.95.95,0,1,0,0,1.9Z"/><path class="cls-2" d="M20.19,29.36h-2a.95.95,0,0,0,0,1.9h2a.95.95,0,0,0,0-1.9Z"/><path class="cls-2" d="M24.24,31.26h16.2a.95.95,0,0,0,0-1.9H24.24a.95.95,0,0,0,0,1.9Z"/><path class="cls-2" d="M20.19,34.42h-2a.95.95,0,1,0,0,1.9h2a.95.95,0,1,0,0-1.9Z"/><path class="cls-2" d="M46.51,34.42H24.24a.95.95,0,1,0,0,1.9H46.51a.95.95,0,1,0,0-1.9Z"/><path class="cls-2" d="M20.19,39.49h-2a.95.95,0,1,0,0,1.9h2a.95.95,0,1,0,0-1.9Z"/><path class="cls-2" d="M43.47,39.49H24.24a.95.95,0,1,0,0,1.9H43.47a.95.95,0,1,0,0-1.9Z"/><circle class="cls-3" cx="57.27" cy="45.04" r="8.01"/></g></g></svg>