<svg xmlns="http://www.w3.org/2000/svg" viewBox="0 0 61.46 64.5"><defs><style>.cls-1{fill:#4995ec;}.cls-2{fill:#61b63d;}.cls-3{fill:#444b54;}.cls-4{fill:#505358;}</style></defs><title>Asset 8</title><g id="Layer_2" data-name="Layer 2"><g id="Layer_1-2" data-name="Layer 1"><rect class="cls-1" x="26.18" y="16.81" width="9.06" height="4.04"/><rect class="cls-2" x="1.25" y="0.79" width="59.43" height="8.04"/><path class="cls-3" d="M0,0V51.33H11.52l0,.06A21.11,21.11,0,0,0,13.42,55a20.13,20.13,0,0,0,11.45,8.58,27.17,27.17,0,0,0,2.89.63l1.34.25h3.27l.11,0a1.76,1.76,0,0,1,.3-.07A21.55,21.55,0,0,0,38,63.18a20.63,20.63,0,0,0,12-11.79l0-.06H61.46V0ZM43.83,57a18.41,18.41,0,0,1-13.09,5.43h0a18.54,18.54,0,0,1,0-37.09h.08a18.6,18.6,0,0,1,18.5,18.54A18.41,18.41,0,0,1,43.83,57ZM15.57,29.84c-.51-.43-1.24-1.05-1.35-1.17l-.33-.32c-.23-.21-.35-.33-.35-.48s.15-.32.5-.68l.2-.2,0,0a.56.56,0,0,1,.41-.24h0a.54.54,0,0,1,.4.23c.14.17.64.67,1.12,1.15l.55.55.06.07-.24.22c-.18.17-.37.34-.54.52l-.2.21-.15.17-.06.06ZM29.72,19v1.34h-.09l-.54,0A8,8,0,0,1,28,20.23a1.34,1.34,0,0,1-1.13-1.38,1.36,1.36,0,0,1,1.28-1.34c1.64,0,3.37,0,5.11,0a1.37,1.37,0,0,1,.13,2.73,7.32,7.32,0,0,1-1,.07l-.53,0h-.09V19Zm15,9.76.06-.06c.45-.52,1.06-1.21,1.17-1.32.41-.42.62-.63.85-.63h0c.24,0,.44.22.84.65l0,0a.55.55,0,0,1,.24.41.54.54,0,0,1-.24.4c-.17.14-.68.63-1.16,1.11l-.56.55-.07.06-.06-.07c-.33-.36-.68-.73-1-1.08ZM59.33,49.32H50.61l0-.11a19.86,19.86,0,0,0,.69-4.76,20.09,20.09,0,0,0-4-12.75l0-.06.1-.1c1.1-1.06,2.93-2.82,2.57-4.17a3.8,3.8,0,0,0-2.6-2.67c-1.4-.44-3.31,1.65-4.23,2.65l-.05.06-.07,0a20.21,20.21,0,0,0-10.48-4l-.46-.07-.23,0h-.08l.06-.81h.08l.59,0c.4,0,.78,0,1.16-.09a3.45,3.45,0,0,0-.16-6.87c-1.75-.08-3.6-.08-5.48,0a3.43,3.43,0,0,0-3.21,3.37,3.46,3.46,0,0,0,3,3.49c.41.05.81.08,1.23.11l.58,0h.09l0,.82-.42,0-.74.07-.17,0c-.29,0-.6.06-.89.12a21,21,0,0,0-8.88,3.74l-.06,0-.05-.06c-1.21-1.3-3-3-4.28-2.58a3.8,3.8,0,0,0-2.64,2.71c-.35,1.3,1.43,2.93,2.49,3.9l.26.24,0,.06a20,20,0,0,0-4,10.1,20.45,20.45,0,0,0,.56,7.48l0,.11H2.12V9.55h57.2Zm0-41.94H2.1V2.13H59.35Z"/><rect class="cls-4" x="12.92" y="3.71" width="1.98" height="2.01"/><rect class="cls-4" x="3.99" y="3.71" width="1.98" height="2.01"/><rect class="cls-4" x="8.46" y="3.73" width="1.97" height="2"/><path class="cls-3" d="M30.84,27.77v1.87c4.25.48,7.58,1.91,9.92,4.25s3.75,5.65,4.21,9.86H46.9a15.73,15.73,0,0,0-5-11.58A15.3,15.3,0,0,0,30.84,27.77Z"/><path class="cls-3" d="M39.28,44.91v-2H38c-1.09,0-2.22,0-3.33,0a.85.85,0,0,1-.89-.54,3.45,3.45,0,0,0-3.05-1.91,3.19,3.19,0,0,0-.74.09,3.48,3.48,0,0,0-.12,6.77,3.4,3.4,0,0,0,3.89-1.75,1,1,0,0,1,1-.61h.05c1.08,0,2.14,0,3.27,0Zm-8.52.35h0a1.38,1.38,0,0,1-1-.39,1.4,1.4,0,0,1-.41-1A1.33,1.33,0,0,1,30.7,42.5h0a1.36,1.36,0,0,1,1.39,1.38A1.36,1.36,0,0,1,30.76,45.26Z"/><rect class="cls-3" x="29.71" y="58.04" width="2" height="2.06"/><polygon class="cls-3" points="43.46 50.05 42.44 51.83 44.28 52.91 45.32 51.11 43.46 50.05"/><rect class="cls-3" x="22.11" y="29.67" width="2.07" height="2.13" transform="translate(-12.33 15.84) rotate(-30.25)"/><polygon class="cls-3" points="17.18 34.86 16.15 36.66 17.99 37.72 19.01 35.93 17.18 34.86"/><polygon class="cls-3" points="19.02 51.84 17.99 50.05 16.14 51.11 17.18 52.89 19.02 51.84"/><polygon class="cls-3" points="22.78 55.6 21.72 57.43 23.51 58.46 24.57 56.62 22.78 55.6"/><rect class="cls-3" x="37.29" y="55.97" width="2.07" height="2.13" transform="translate(-23.39 26.83) rotate(-30.02)"/><rect class="cls-3" x="14.54" y="42.88" width="2.05" height="2"/></g></g></svg>