<svg xmlns="http://www.w3.org/2000/svg" viewBox="0 0 64.67 72.4"><defs><style>.cls-1{fill:#61b63d;}.cls-2{fill:#4995ec;}.cls-3{fill:#444b54;}</style></defs><title>Asset 9</title><g id="Layer_2" data-name="Layer 2"><g id="Layer_1-2" data-name="Layer 1"><rect class="cls-1" x="21.72" y="53.08" width="21.45" height="4.94"/><rect class="cls-2" x="21.72" y="59.08" width="21.45" height="4.94"/><polygon class="cls-1" points="40.28 70.41 24.54 70.41 21.72 65.47 43.16 65.47 40.28 70.41"/><path class="cls-3" d="M32.34,13.38a18.53,18.53,0,0,0-9.77,2.77h0A16.32,16.32,0,0,0,17,21.36l0,0a18.65,18.65,0,0,0,7.07,27.37v2.66H21.63a1.11,1.11,0,0,0-1.12,1.12v12a7.81,7.81,0,0,0,7.81,7.81h8a7.81,7.81,0,0,0,7.81-7.81V58.5h0v-3h0v-3A1.11,1.11,0,0,0,43,51.44H40.59V48.78a18.66,18.66,0,0,0-8.25-35.4Zm4,56.79h-8a5.58,5.58,0,0,1-5.46-4.46h19A5.58,5.58,0,0,1,36.35,70.17Zm5.58-6.69H22.75V59.62H41.93v1.86h0Zm0-9.81v3.72H22.75V53.67ZM27.64,34.1h-2a1.12,1.12,0,0,1-.75-1.94l.88-.79a1.12,1.12,0,0,1,1.86.83Zm2.23,17.34V36.33H34.8V51.44ZM39,47.05a1.12,1.12,0,0,0-.66,1v3.37H37V36.33h2a3.35,3.35,0,0,0,2.24-5.83l-.88-.79a3.35,3.35,0,0,0-5.58,2.49V34.1H29.87V32.19a3.35,3.35,0,0,0-5.58-2.49l-.88.79a3.35,3.35,0,0,0,2.24,5.83h2V51.44H26.32V48.07a1.11,1.11,0,0,0-.66-1,16.45,16.45,0,0,1-9.75-15,16.24,16.24,0,0,1,3.63-10.3h0a16.89,16.89,0,0,1,3.13-3,1.06,1.06,0,0,0,.2-.09c.31-.22.64-.43,1-.63l.21-.13A16.43,16.43,0,1,1,39,47.05Zm-2-13V32.19a1.12,1.12,0,0,1,1.86-.83l.88.79A1.12,1.12,0,0,1,39,34.1Z"/><path class="cls-3" d="M32.34,8.47a1.12,1.12,0,0,0,1.12-1.12V1.12a1.12,1.12,0,1,0-2.23,0V7.36A1.12,1.12,0,0,0,32.34,8.47Z"/><path class="cls-3" d="M18.88,11.26a1.12,1.12,0,1,0,1.93-1.12L17.69,4.74a1.12,1.12,0,1,0-1.93,1.12Z"/><path class="cls-3" d="M11.26,18.88,5.86,15.76a1.12,1.12,0,0,0-1.12,1.93l5.41,3.12a1.12,1.12,0,1,0,1.12-1.93Z"/><path class="cls-3" d="M8.47,32.34a1.12,1.12,0,0,0-1.12-1.12H1.12a1.12,1.12,0,1,0,0,2.23H7.36A1.12,1.12,0,0,0,8.47,32.34Z"/><path class="cls-3" d="M10.15,43.86,4.74,47a1.12,1.12,0,1,0,1.12,1.93l5.41-3.12a1.12,1.12,0,0,0-1.12-1.93Z"/><path class="cls-3" d="M59.93,47l-5.41-3.12a1.12,1.12,0,0,0-1.12,1.93l5.41,3.12A1.12,1.12,0,1,0,59.93,47Z"/><path class="cls-3" d="M63.56,31.22H57.31a1.12,1.12,0,1,0,0,2.23h6.24a1.12,1.12,0,1,0,0-2.23Z"/><path class="cls-3" d="M54,21a1.11,1.11,0,0,0,.56-.15l5.41-3.12a1.12,1.12,0,0,0-1.12-1.93l-5.41,3.12A1.12,1.12,0,0,0,54,21Z"/><path class="cls-3" d="M44.27,11.67a1.13,1.13,0,0,0,1.52-.41l3.12-5.41A1.12,1.12,0,0,0,47,4.74l-3.12,5.41A1.12,1.12,0,0,0,44.27,11.67Z"/></g></g></svg>