<svg xmlns="http://www.w3.org/2000/svg" viewBox="0 0 66.32 65.74"><defs><style>.cls-1{fill:#4995ec;}.cls-2{fill:#61b63d;}.cls-3{fill:#444b54;}.cls-4{fill:#505358;}</style></defs><title>Asset 13</title><g id="Layer_2" data-name="Layer 2"><g id="Layer_1-2" data-name="Layer 1"><polygon class="cls-1" points="51.18 52.43 48.06 55.42 57.07 64.47 60.46 61.54 51.18 52.43"/><path class="cls-2" d="M37.14,29.91A11.65,11.65,0,1,0,48.79,41.56,11.65,11.65,0,0,0,37.14,29.91Zm0,19.15a7.5,7.5,0,1,1,7.5-7.5A7.5,7.5,0,0,1,37.14,49.07Z"/><path class="cls-3" d="M55.46,20.1l-12.37-9a1,1,0,1,0-1.2,1.66l12.37,9a1,1,0,1,0,1.2-1.66Z"/><path class="cls-3" d="M25,15.19a1,1,0,0,0-1.17-.85l-15.1,2.4a1,1,0,0,0,.16,2H9l15.1-2.4A1,1,0,0,0,25,15.19Z"/><path class="cls-3" d="M65.9,16.88,42.92.2a1,1,0,0,0-1.43.23l-10,13.8-1.38-8.7a1,1,0,0,0-1.17-.85L.86,9.13A1,1,0,0,0,0,10.3L5.49,44.82a1,1,0,0,0,1,.86h.16l6.45-1v11a1,1,0,0,0,1,1h28.4a1,1,0,0,0,1-1V52.75a13,13,0,0,0,2-1.4l2.55,2.55-.82.82a1,1,0,0,0,0,1.45l9.27,9.27a1,1,0,0,0,1.45,0l3.09-3.09a1,1,0,0,0,0-1.45l-9.27-9.27a1,1,0,0,0-1.45,0l-.82.82L47,49.91a12.94,12.94,0,0,0,3.12-8.47c0-.34,0-.68,0-1L66.12,18.31A1,1,0,0,0,65.9,16.88ZM51.08,53.81l7.82,7.82-1.64,1.64-7.82-7.82Zm-38-33.13v4.2l-3,.48a1,1,0,0,0,.16,2h.16L13.11,27v6.77L11.44,34a1,1,0,0,0,.16,2h.16l1.34-.21v6.77l-5.75.91L2.2,11l26-4.13,1.54,9.71-2.25,3.09H14.13A1,1,0,0,0,13.11,20.69Zm28.4,33.93H15.16V21.71H41.51v7.47a12.91,12.91,0,0,0-4.44-.78l-.85,0-.24,0H20.69a1,1,0,0,0,0,2h9.37a13.08,13.08,0,0,0-3,2.62,12.92,12.92,0,0,0-2.32,4.07H20.69a1,1,0,1,0,0,2h3.54a13.07,13.07,0,0,0-.2,2.25,12.93,12.93,0,0,0,.77,4.44H20.69a1,1,0,1,0,0,2h5.07A13.05,13.05,0,0,0,41.51,53.7v.91Zm3.33-5.4h0a11,11,0,0,1-2.78,2,11,11,0,0,1-14.79-4.8h0a10.87,10.87,0,0,1-1.2-5,11,11,0,0,1,11-11A11,11,0,0,1,48,40.24h0a11.19,11.19,0,0,1,.06,1.19A10.92,10.92,0,0,1,44.84,49.21Zm4.71-11.56a13,13,0,0,0-6-7.52V24.79l5.57,4a1,1,0,1,0,1.2-1.66l-6.77-4.92V20.69a1,1,0,0,0-1-1H40l-2-1.47a1,1,0,0,0-1.4,1.47H30l1.62-2.23h0l10.87-15L63.87,17.94Z"/><path class="cls-4" d="M37.07,32.77a8.67,8.67,0,1,0,8.67,8.67A8.68,8.68,0,0,0,37.07,32.77Zm0,15.29a6.62,6.62,0,1,1,6.62-6.62A6.63,6.63,0,0,1,37.07,48.06Z"/><path class="cls-3" d="M40,41.26a1,1,0,0,0-1.45,0L35.8,44a1,1,0,0,0,1.45,1.45L40,42.71A1,1,0,0,0,40,41.26Z"/><path class="cls-3" d="M38.89,36.89a1,1,0,0,0-1.45,0l-3,3a1,1,0,0,0,1.45,1.45l3-3A1,1,0,0,0,38.89,36.89Z"/></g></g></svg>