<svg xmlns="http://www.w3.org/2000/svg" viewBox="0 0 66.33 51.79"><defs><style>.cls-1{fill:#505358;}.cls-2{fill:#4995ec;}.cls-3{fill:#61b63d;}</style></defs><title>Asset 12</title><g id="Layer_2" data-name="Layer 2"><g id="Layer_1-2" data-name="Layer 1"><path class="cls-1" d="M61.2,0H5.13A5.13,5.13,0,0,0,0,5.13V46.67a5.13,5.13,0,0,0,5.13,5.13H61.2a5.13,5.13,0,0,0,5.13-5.13V5.13A5.13,5.13,0,0,0,61.2,0ZM5.13,1.95H61.2a3.18,3.18,0,0,1,3.18,3.18V8.31H1.95V5.13A3.18,3.18,0,0,1,5.13,1.95ZM61.2,49.85H5.13a3.18,3.18,0,0,1-3.18-3.18V10.25H64.38V46.67A3.18,3.18,0,0,1,61.2,49.85Z"/><path class="cls-1" d="M5.13,6.1a1,1,0,1,0-.69-.29A1,1,0,0,0,5.13,6.1Z"/><path class="cls-1" d="M8.24,6.1a1,1,0,1,0-.69-.29A1,1,0,0,0,8.24,6.1Z"/><path class="cls-1" d="M11.36,6.1a1,1,0,1,0-.69-.29A1,1,0,0,0,11.36,6.1Z"/><path class="cls-2" d="M37.61,17.7a1,1,0,0,0-1.22.63L29.12,41.18a1,1,0,1,0,1.86.59l7.27-22.85A1,1,0,0,0,37.61,17.7Z"/><path class="cls-3" d="M42.16,20a1,1,0,0,0-1.38,1.38l8.66,8.66-8.66,8.66a1,1,0,1,0,1.38,1.38l9.35-9.35a1,1,0,0,0,0-1.38Z"/><path class="cls-3" d="M26.58,20a1,1,0,0,0-1.38,0l-9.35,9.35a1,1,0,0,0,0,1.38l9.35,9.35a1,1,0,0,0,1.38-1.38l-8.66-8.66,8.66-8.66A1,1,0,0,0,26.58,20Z"/><path class="cls-1" d="M15.51,6.1H55a1,1,0,1,0,0-1.95H15.51a1,1,0,0,0,0,1.95Z"/><path class="cls-1" d="M59.13,6.1H61.2a1,1,0,1,0,0-1.95H59.13a1,1,0,0,0,0,1.95Z"/></g></g></svg>