<svg xmlns="http://www.w3.org/2000/svg" viewBox="0 0 59.65 58.8"><defs><style>.cls-1{fill:#4995ec;}.cls-2{fill:#61b63d;}.cls-3{fill:#444b54;}</style></defs><title>Asset 2</title><g id="Layer_2" data-name="Layer 2"><g id="Layer_1-2" data-name="Layer 1"><rect class="cls-1" x="22.81" y="53.38" width="14.18" height="3.72"/><rect class="cls-2" x="28.97" y="0.72" width="30.1" height="4.57"/><path class="cls-3" d="M58.8,40.85H.85A.85.85,0,0,0,0,41.7V58a.85.85,0,0,0,.85.85H58.8a.85.85,0,0,0,.85-.85V41.7A.85.85,0,0,0,58.8,40.85Zm-13.41,1.7H51v3.72H45.39ZM53.76,48v3.72H50V48Zm-5.42,0v3.72H42.68V48ZM38,42.55h5.66v3.72H38ZM41,48v3.72H35.32V48ZM30.67,42.55h5.66v3.72H30.67ZM33.62,48v3.72H28V48ZM23.32,42.55H29v3.72H23.32ZM26.27,48v3.72H20.61V48ZM16,42.55h5.66v3.72H16ZM18.91,48v3.72H13.25V48ZM8.6,42.55h5.66v3.72H8.6ZM11.55,48v3.72H5.89V48ZM1.7,42.55H6.9v3.72H1.7ZM1.7,48H4.19v3.72H1.7ZM6.9,57.1H1.7V53.38H6.9Zm7.36,0H8.6V53.38h5.66Zm7.36,0H16V53.38h5.66Zm14.72,0h-13V53.38h13Zm7.36,0H38V53.38h5.66Zm7.36,0H45.39V53.38H51Zm6.9,0h-5.2V53.38h5.2Zm-2.49-5.42V48h2.49v3.72Zm2.49-5.42h-5.2V42.55h5.2Z"/><path class="cls-3" d="M23.66,0H.85A.85.85,0,0,0,0,.85V37.18A.85.85,0,0,0,.85,38H23.66a.85.85,0,0,0,.85-.85V.85A.85.85,0,0,0,23.66,0Zm-.85,36.33H1.7V1.7H22.81Z"/><path class="cls-3" d="M58.8,0H29a.85.85,0,0,0-.85.85V37.18A.85.85,0,0,0,29,38H58.8a.85.85,0,0,0,.85-.85V.85A.85.85,0,0,0,58.8,0Zm-.85,36.33H29.9V6.72H57.95ZM57.95,5H29.9V1.7H57.95Z"/><path class="cls-3" d="M18.69,5.91H5.82a.85.85,0,0,0,0,1.7H18.69a.85.85,0,0,0,0-1.7Z"/><path class="cls-3" d="M12.26,10.81H5.82a.85.85,0,0,0,0,1.7h6.44a.85.85,0,1,0,0-1.7Z"/><path class="cls-3" d="M18.69,15.71H5.82a.85.85,0,1,0,0,1.7H18.69a.85.85,0,0,0,0-1.7Z"/><path class="cls-3" d="M12.26,20.61H5.82a.85.85,0,0,0,0,1.7h6.44a.85.85,0,1,0,0-1.7Z"/><path class="cls-3" d="M18.69,25.52H5.82a.85.85,0,1,0,0,1.7H18.69a.85.85,0,1,0,0-1.7Z"/><path class="cls-3" d="M12.26,30.42H5.82a.85.85,0,0,0,0,1.7h6.44a.85.85,0,1,0,0-1.7Z"/><path class="cls-3" d="M38.92,24.92,35,21,38.92,17a.85.85,0,0,0-1.2-1.2l-4.55,4.55a.85.85,0,0,0,0,1.2l4.55,4.55a.87.87,0,0,0,1.2,0A.85.85,0,0,0,38.92,24.92Z"/><path class="cls-3" d="M50.13,26.12l4.55-4.55a.85.85,0,0,0,0-1.2l-4.55-4.55a.85.85,0,1,0-1.2,1.2L52.88,21l-3.95,3.95a.85.85,0,0,0,0,1.2A.87.87,0,0,0,50.13,26.12Z"/><path class="cls-3" d="M41.7,26a.85.85,0,0,0,.62,1,.85.85,0,0,0,1-.62l2.8-11.14a.85.85,0,0,0-.62-1l-.21,0a.85.85,0,0,0-.82.64Z"/></g></g></svg>