<svg xmlns="http://www.w3.org/2000/svg" viewBox="0 0 69.5 69.5"><defs><style>.cls-1{fill:#26c8be;}.cls-2{fill:#fff;}</style></defs><title>Asset 8</title><g id="Layer_2" data-name="Layer 2"><g id="Layer_1-2" data-name="Layer 1"><circle class="cls-1" cx="34.75" cy="34.75" r="34.75"/><path class="cls-2" d="M34.71,38c-4.87,0-8.82-4.73-8.82-10.56s3.95-10.15,8.82-10.15,8.82,4.32,8.82,10.15S39.58,38,34.71,38ZM21,52.24a3.41,3.41,0,0,1-2.69-1c-.45-.61-.14-1.86.17-2.55l.75-1.7a35.17,35.17,0,0,1,4.41-7.28A3.35,3.35,0,0,1,27.89,39a11.47,11.47,0,0,1,2,1.79,6.56,6.56,0,0,0,4.4,1.53h1.38a6.55,6.55,0,0,0,4.39-1.53,12.24,12.24,0,0,1,2-1.83,3.07,3.07,0,0,1,4,.77,30.59,30.59,0,0,1,4.21,7.37L51,48.73c.32.69.64,1.93.21,2.55a3,3,0,0,1-2.51,1Z"/></g></g></svg>