<svg xmlns="http://www.w3.org/2000/svg" viewBox="0 0 69.5 69.5"><defs><style>.cls-1{fill:#5eb833;}.cls-2{fill:#fff;}</style></defs><title>Asset 9</title><g id="Layer_2" data-name="Layer 2"><g id="Layer_1-2" data-name="Layer 1"><circle class="cls-1" cx="34.75" cy="34.75" r="34.75"/><path class="cls-2" d="M17.26,49.79V28h35V49.81H19.55ZM23.93,38.9l5,5,1.43-1.43L26.8,38.91l3.55-3.55-1.44-1.44Zm16.66,5,5-5-4.95-5-1.46,1.46,3.55,3.53L39.16,42.5Zm-6.9.32,4.08-9.84-1.92-.79-4.08,9.83Z"/><path class="cls-2" d="M17.26,19.71l1.47,0H52.24v6.24h-35Zm3.24,2.06v2h2.07v-2Zm3.5,0v2h2.07v-2Zm5.57,2v-2h-2v2Z"/></g></g></svg>