<svg xmlns="http://www.w3.org/2000/svg" viewBox="0 0 69.5 69.5"><defs><style>.cls-1{fill:#5eb833;}.cls-2{fill:#fff;}</style></defs><title>Asset 4</title><g id="Layer_2" data-name="Layer 2"><g id="Layer_1-2" data-name="Layer 1"><circle class="cls-1" cx="34.75" cy="34.75" r="34.75"/><path class="cls-2" d="M26.84,24.58H25.33a3.38,3.38,0,0,0-3.21,2.35,5.65,5.65,0,0,0,0,11.13,3.38,3.38,0,0,0,3.21,2.35h1.51c1.37,0,2.76.07,4.14.18V24.39C29.59,24.51,28.2,24.58,26.84,24.58Zm-4.9,11.11a3.39,3.39,0,0,1,0-6.4Z"/><path class="cls-2" d="M32.8,47.81,32,43a47.44,47.44,0,0,0-5.15-.29H25.1l1.05,6.23a3.38,3.38,0,0,0,3.34,2.83A3.34,3.34,0,0,0,32.8,47.81Z"/><path class="cls-2" d="M49.82,17.79a2.26,2.26,0,0,0-2.26,2.26V44.92a2.26,2.26,0,0,0,4.52,0V20.05A2.26,2.26,0,0,0,49.82,17.79Z"/><path class="cls-2" d="M33.24,24.15V40.83A52,52,0,0,1,45.3,44V21A52,52,0,0,1,33.24,24.15Z"/></g></g></svg>