<?xml version="1.0" encoding="utf-8"?>
<!-- Generator: Adobe Illustrator 19.1.0, SVG Export Plug-In . SVG Version: 6.00 Build 0)  -->
<svg version="1.1" id="Layer_1" xmlns="http://www.w3.org/2000/svg" xmlns:xlink="http://www.w3.org/1999/xlink" x="0px" y="0px"
	 viewBox="0 0 60.1 56.9" style="enable-background:new 0 0 60.1 56.9;" xml:space="preserve">
<style type="text/css">
	.st0{fill:#61B63D;}
	.st1{fill:#4995EC;}
	.st2{clip-path:url(#SVGID_2_);fill:#444B54;}
</style>
<polygon class="st0" points="37.5,12.6 35.4,6.1 46.9,2.4 50.5,12.6 "/>
<polygon class="st1" points="21,13.1 19.4,6.3 30.5,2.8 33.8,12.1 "/>
<g>
	<defs>
		<rect id="SVGID_1_" y="0" width="60.1" height="56.9"/>
	</defs>
	<clipPath id="SVGID_2_">
		<use xlink:href="#SVGID_1_"  style="overflow:visible;"/>
	</clipPath>
	<path class="st2" d="M41.7,46.2c-2.9,0-5.4,2.4-5.4,5.4s2.4,5.4,5.4,5.4c3.1,0,5.4-2.4,5.4-5.4S44.6,46.2,41.7,46.2 M41.7,54.5
		c-1.7,0-2.9-1.4-2.9-2.9c0-1.7,1.4-2.9,2.9-2.9c1.7,0,2.9,1.3,2.9,2.9C44.6,53.2,43.2,54.5,41.7,54.5"/>
	<path class="st2" d="M22,46.2c-2.9,0-5.4,2.4-5.4,5.4s2.4,5.4,5.4,5.4s5.4-2.4,5.4-5.4S25,46.2,22,46.2 M22,54.5
		c-1.7,0-2.9-1.4-2.9-2.9c0-1.7,1.4-2.9,2.9-2.9c1.5,0,2.9,1.3,2.9,2.9C25,53.2,23.6,54.5,22,54.5"/>
	<path class="st2" d="M52.9,39.8L52.9,39.8L52.9,39.8C52.9,39.8,52.9,39.8,52.9,39.8l-1.6,0c0,0,0,0,0,0H18.5
		c-1.7,0-3.1-1.4-3.1-3.1c0-1.7,1.4-3.1,3.1-3.1h35.4l6.3-22.3h-9.2L47.6,1.1L33.8,5.6l1.9,5.7H35L31.6,1.1L17.8,5.6l1.9,5.7h-7.4
		l-1.5-6.1C10,2.2,7.4,0,4.3,0H1.1v0.1C0.5,0.2,0,0.7,0,1.3c0,0.6,0.5,1.1,1.1,1.2v0h0.1c0,0,0,0,0.1,0h1.6c0,0,0.1,0,0.1,0h1.3
		c1.9,0,3.6,1.3,4.1,3.2l6.8,26.5c-1.4,1-2.3,2.6-2.3,4.5c0,3.1,2.6,5.6,5.6,5.6h34.5v0c0.7,0,1.2-0.6,1.2-1.3
		C54.1,40.4,53.6,39.9,52.9,39.8 M45.9,4.3l2.3,6.9h-10l-1.4-4L45.9,4.3z M30,4.3l2.3,6.9h-10l-1.4-4L30,4.3z M56.8,13.8l-4.8,17.4
		H17.4l-1-4h20.5c0.7,0,1.3-0.6,1.3-1.3s-0.6-1.3-1.3-1.3H15.7L14.6,20c0.1,0,0.1,0,0.2,0H44c0.7,0,1.3-0.6,1.3-1.3
		s-0.6-1.3-1.3-1.3H14.7c-0.3,0-0.5,0.1-0.7,0.3l-1-3.9H56.8z"/>
</g>
</svg>
