<?xml version="1.0" encoding="utf-8"?>
<!-- Generator: Adobe Illustrator 19.1.0, SVG Export Plug-In . SVG Version: 6.00 Build 0)  -->
<svg version="1.1" id="Layer_1" xmlns="http://www.w3.org/2000/svg" xmlns:xlink="http://www.w3.org/1999/xlink" x="0px" y="0px"
	 viewBox="-974 1476 50 50" style="enable-background:new -974 1476 50 50;" xml:space="preserve">
<style type="text/css">
	.st0{fill:#6FBE44;}
	.st1{enable-background:new    ;}
	.st2{fill:#FDF5F5;}
</style>
<circle class="st0" cx="-948.8" cy="1501" r="24.2"/>
<g class="st1">
	<path class="st2" d="M-963.7,1488.8h3c0.5,0,1,0.1,1.3,0.2c0.4,0.1,0.6,0.3,0.8,0.6c0.2,0.2,0.3,0.5,0.4,0.8
		c0.1,0.3,0.1,0.6,0.1,0.8c0,0.3,0,0.5-0.1,0.8c-0.1,0.3-0.2,0.5-0.4,0.7c-0.2,0.2-0.4,0.4-0.7,0.5s-0.6,0.2-0.9,0.3l2.4,3.9h-1.4
		l-2.2-3.7h-1.3v3.7h-1.2V1488.8z M-962.6,1492.5h1.5c0.2,0,0.4,0,0.7-0.1s0.4-0.1,0.6-0.2c0.2-0.1,0.3-0.2,0.4-0.4s0.2-0.4,0.2-0.7
		s-0.1-0.5-0.2-0.7c-0.1-0.2-0.2-0.3-0.4-0.4c-0.2-0.1-0.4-0.2-0.6-0.2c-0.2,0-0.4-0.1-0.7-0.1h-1.5V1492.5z"/>
	<path class="st2" d="M-956.4,1488.8h5.5v1.1h-4.3v2.5h4v1.1h-4v2.7h4.5v1.1h-5.7V1488.8z"/>
	<path class="st2" d="M-946.4,1488.8h1l3.6,8.5h-1.3l-0.9-2.1h-4l-0.8,2.1h-1.3L-946.4,1488.8z M-944.4,1494.1l-1.6-3.9h0l-1.6,3.9
		H-944.4z"/>
	<path class="st2" d="M-940.8,1488.8h3c0.6,0,1.1,0.1,1.6,0.2s0.8,0.3,1.2,0.5c0.3,0.2,0.6,0.5,0.8,0.8s0.4,0.6,0.5,0.9
		c0.1,0.3,0.2,0.6,0.3,0.9c0.1,0.3,0.1,0.6,0.1,0.9c0,0.5-0.1,1.1-0.3,1.6s-0.5,1-0.9,1.4c-0.4,0.4-0.9,0.7-1.5,1
		c-0.6,0.2-1.2,0.4-2,0.4h-2.8V1488.8z M-939.7,1496.2h1.5c0.5,0,1-0.1,1.4-0.2c0.4-0.1,0.8-0.3,1.1-0.6s0.6-0.6,0.8-1
		c0.2-0.4,0.3-0.9,0.3-1.4c0-0.3,0-0.6-0.1-1c-0.1-0.4-0.3-0.7-0.5-1c-0.2-0.3-0.6-0.6-1-0.8c-0.4-0.2-1-0.3-1.7-0.3h-1.7V1496.2z"
		/>
</g>
<g class="st1">
	<path class="st2" d="M-965.6,1503.2h1.7l2.7,6.4h0l2.7-6.4h1.7v8.5h-1.2v-7h0l-2.9,7h-0.8l-2.9-7h0v7h-1.2V1503.2z"/>
	<path class="st2" d="M-950.8,1511.9c-0.6,0-1.2-0.1-1.8-0.3c-0.5-0.2-1-0.5-1.4-0.9c-0.4-0.4-0.7-0.9-0.9-1.4
		c-0.2-0.5-0.3-1.1-0.3-1.8c0-0.6,0.1-1.2,0.3-1.8c0.2-0.5,0.5-1,0.9-1.4c0.4-0.4,0.9-0.7,1.4-0.9c0.5-0.2,1.1-0.3,1.8-0.3
		s1.2,0.1,1.8,0.3c0.5,0.2,1,0.5,1.4,0.9c0.4,0.4,0.7,0.9,0.9,1.4c0.2,0.5,0.3,1.1,0.3,1.8c0,0.6-0.1,1.2-0.3,1.8s-0.5,1-0.9,1.4
		s-0.9,0.7-1.4,0.9C-949.5,1511.8-950.1,1511.9-950.8,1511.9z M-950.8,1510.8c0.5,0,0.9-0.1,1.3-0.3s0.7-0.4,1-0.7
		c0.3-0.3,0.5-0.7,0.6-1.1s0.2-0.9,0.2-1.3c0-0.5-0.1-0.9-0.2-1.3s-0.4-0.8-0.6-1.1c-0.3-0.3-0.6-0.5-1-0.7
		c-0.4-0.2-0.8-0.3-1.3-0.3c-0.5,0-0.9,0.1-1.3,0.3c-0.4,0.2-0.7,0.4-1,0.7c-0.3,0.3-0.5,0.7-0.6,1.1c-0.2,0.4-0.2,0.8-0.2,1.3
		c0,0.5,0.1,0.9,0.2,1.3c0.2,0.4,0.4,0.8,0.6,1.1c0.3,0.3,0.6,0.5,1,0.7S-951.3,1510.8-950.8,1510.8z"/>
	<path class="st2" d="M-944.7,1503.2h3c0.5,0,1,0.1,1.3,0.2c0.4,0.1,0.6,0.3,0.8,0.6s0.3,0.5,0.4,0.8c0.1,0.3,0.1,0.6,0.1,0.8
		c0,0.3,0,0.5-0.1,0.8c-0.1,0.3-0.2,0.5-0.4,0.7c-0.2,0.2-0.4,0.4-0.7,0.5c-0.3,0.1-0.6,0.2-0.9,0.3l2.4,3.9h-1.4l-2.2-3.7h-1.3v3.7
		h-1.2V1503.2z M-943.5,1506.9h1.5c0.2,0,0.4,0,0.7-0.1c0.2,0,0.4-0.1,0.6-0.2s0.3-0.2,0.4-0.4c0.1-0.2,0.2-0.4,0.2-0.7
		c0-0.3-0.1-0.5-0.2-0.7c-0.1-0.2-0.2-0.3-0.4-0.4s-0.4-0.2-0.6-0.2c-0.2,0-0.4-0.1-0.7-0.1h-1.5V1506.9z"/>
	<path class="st2" d="M-937.4,1503.2h5.5v1.1h-4.3v2.5h4v1.1h-4v2.7h4.5v1.1h-5.7V1503.2z"/>
</g>
</svg>
