<?xml version="1.0" encoding="utf-8"?>
<!-- Generator: Adobe Illustrator 16.0.0, SVG Export Plug-In . SVG Version: 6.00 Build 0)  -->
<!DOCTYPE svg PUBLIC "-//W3C//DTD SVG 1.1//EN" "http://www.w3.org/Graphics/SVG/1.1/DTD/svg11.dtd">
<svg version="1.1" id="Layer_1" xmlns="http://www.w3.org/2000/svg" xmlns:xlink="http://www.w3.org/1999/xlink" x="0px" y="0px"
	 width="200px" height="180px" viewBox="0 0 200 180" enable-background="new 0 0 200 180" xml:space="preserve">
<g>
	<g>
		<linearGradient id="SVGID_1_" gradientUnits="userSpaceOnUse" x1="173.8018" y1="109.8213" x2="11.1544" y2="147.8533">
			<stop  offset="0" style="stop-color:#E8E7F4"/>
			<stop  offset="0.9996" style="stop-color:#C2BFE0"/>
		</linearGradient>
		<path fill="url(#SVGID_1_)" d="M177.134,117.621L76.409,175.773c-1.074,0.62-2.397,0.62-3.471,0l-55.391-31.98
			c-2.314-1.337-2.314-4.676,0-6.012l100.724-58.153c1.074-0.62,2.397-0.62,3.471,0l55.392,31.98
			C179.448,112.943,179.448,116.284,177.134,117.621z"/>
		<linearGradient id="SVGID_2_" gradientUnits="userSpaceOnUse" x1="98.6519" y1="186.6426" x2="98.6518" y2="88.3553">
			<stop  offset="0.0203" style="stop-color:#FFFFFF"/>
			<stop  offset="0.9583" style="stop-color:#FFFFFF;stop-opacity:0"/>
		</linearGradient>
		<path fill="url(#SVGID_2_)" d="M118.271,79.628l-37.019,21.374v71.975l52.469-30.292v-56.14l-11.979-6.916
			C120.669,79.008,119.346,79.008,118.271,79.628z M43.092,158.541l27.633,15.954V107.08l-27.633,15.953V158.541z M144.415,92.718
			v43.793l9.796-5.655V98.373L144.415,92.718z"/>
		<linearGradient id="SVGID_3_" gradientUnits="userSpaceOnUse" x1="248.0352" y1="114.3125" x2="26.6112" y2="163.3994">
			<stop  offset="0" style="stop-color:#B8B7DC"/>
			<stop  offset="0.9996" style="stop-color:#5A63AD"/>
		</linearGradient>
		<path fill="url(#SVGID_3_)" d="M17.146,137.889l0.319-0.052c-2.227,1.368-2.202,4.637,0.083,5.956l55.391,31.98
			c1.074,0.62,2.397,0.62,3.471,0l100.725-58.152c2.24-1.295,2.305-4.46,0.207-5.873l0.194-0.032
			c1.339,0.772,2.137,2.156,2.137,3.701v2.41c0,1.545-0.798,2.928-2.137,3.701L76.811,179.681c-0.649,0.376-1.388,0.573-2.138,0.573
			c-0.749,0-1.488-0.197-2.137-0.573l-55.391-31.979c-1.338-0.771-2.137-2.157-2.137-3.702v-2.408
			C15.009,140.045,15.808,138.661,17.146,137.889z"/>
		<g>
			<linearGradient id="SVGID_4_" gradientUnits="userSpaceOnUse" x1="126.8076" y1="214.2275" x2="-75.4075" y2="60.0777">
				<stop  offset="0" style="stop-color:#B8B7DC"/>
				<stop  offset="0.9996" style="stop-color:#5A63AD"/>
			</linearGradient>
			<path fill="url(#SVGID_4_)" d="M17.547,137.781l6.055-3.496l0.268,0.113l62.137,35.833l0,0l-9.598,5.542
				c-1.074,0.62-2.397,0.62-3.471,0l-55.391-31.98C15.233,142.456,15.233,139.117,17.547,137.781z"/>
			<linearGradient id="SVGID_5_" gradientUnits="userSpaceOnUse" x1="188.623" y1="133.1406" x2="-13.5921" y2="-21.0092">
				<stop  offset="0" style="stop-color:#B8B7DC"/>
				<stop  offset="0.9996" style="stop-color:#5A63AD"/>
			</linearGradient>
			<path fill="url(#SVGID_5_)" d="M108.795,85.1l9.477-5.471c1.074-0.62,2.397-0.62,3.471,0l55.392,31.979
				c2.314,1.336,2.314,4.677,0,6.014l-6.127,3.537l0,0L108.795,85.1z"/>
		</g>
		<linearGradient id="SVGID_6_" gradientUnits="userSpaceOnUse" x1="137.1318" y1="98.0986" x2="150.5322" y2="98.0986">
			<stop  offset="3.533300e-004" style="stop-color:#475BA9"/>
			<stop  offset="1" style="stop-color:#2C2663"/>
		</linearGradient>
		<path fill="url(#SVGID_6_)" d="M137.384,95.279l11.33,6.543c0.373,0.215,1.032,0.188,1.462-0.061l0,0
			c0.431-0.249,0.479-0.629,0.104-0.844l-11.331-6.543c-0.373-0.215-1.031-0.188-1.462,0.061l0,0
			C137.058,94.685,137.01,95.064,137.384,95.279z"/>
		<linearGradient id="SVGID_7_" gradientUnits="userSpaceOnUse" x1="59.7534" y1="159.0615" x2="29.0372" y2="148.4436">
			<stop  offset="3.533300e-004" style="stop-color:#475BA9"/>
			<stop  offset="1" style="stop-color:#2C2663"/>
		</linearGradient>
		<path fill="url(#SVGID_7_)" d="M41.169,153.89l9.971,5.756c1.242,0.718,3.431,0.626,4.865-0.202l0,0
			c1.435-0.827,1.591-2.092,0.35-2.809l-9.971-5.757c-1.242-0.717-3.431-0.625-4.865,0.201l0,0
			C40.084,151.908,39.926,153.172,41.169,153.89z"/>
		<path fill="#2C2663" d="M64.492,172.971c0-0.729-0.516-1.62-1.146-1.986c-0.63-0.363-1.146-0.064-1.146,0.663
			c0,0.729,0.516,1.621,1.146,1.985C63.976,173.996,64.492,173.698,64.492,172.971z"/>
		<path fill="#2C2663" d="M41.702,160.811l6.619,3.822c0.243,0.14,0.441-0.009,0.441-0.332l0,0c0-0.322-0.198-0.701-0.441-0.841
			l-6.619-3.822c-0.242-0.14-0.44,0.01-0.44,0.332l0,0C41.261,160.293,41.459,160.672,41.702,160.811z"/>
		<linearGradient id="SVGID_8_" gradientUnits="userSpaceOnUse" x1="236.5713" y1="72.7832" x2="5.6309" y2="138.1971">
			<stop  offset="0" style="stop-color:#FFFFFF"/>
			<stop  offset="0.9996" style="stop-color:#FFFFFF;stop-opacity:0"/>
		</linearGradient>
		<path fill="url(#SVGID_8_)" d="M177.134,114.339l-55.392-31.98c-1.073-0.62-2.396-0.62-3.471,0L17.547,140.512
			c-0.696,0.402-1.178,0.986-1.456,1.641c-0.646-1.523-0.163-3.437,1.456-4.371l100.724-58.153c1.074-0.62,2.397-0.62,3.471,0
			l55.392,31.979c1.619,0.935,2.101,2.849,1.455,4.372C178.313,115.324,177.829,114.741,177.134,114.339z"/>
		<path fill="#017E93" d="M125.764,87.109c0.66-0.381,0.66-1.005,0-1.386c-0.661-0.381-1.741-0.381-2.4,0
			c-0.661,0.381-0.661,1.005,0,1.386C124.022,87.49,125.103,87.49,125.764,87.109z"/>
		<g>
			<linearGradient id="SVGID_9_" gradientUnits="userSpaceOnUse" x1="153.8906" y1="101.3027" x2="118.7704" y2="88.2926">
				<stop  offset="0" style="stop-color:#FFFFFF"/>
				<stop  offset="0.9996" style="stop-color:#FFFFFF;stop-opacity:0"/>
			</linearGradient>
			<path fill="url(#SVGID_9_)" d="M137.487,94.436c0.431-0.248,1.089-0.275,1.462-0.061l11.331,6.543
				c0.237,0.137,0.304,0.34,0.211,0.533c-0.04-0.078-0.107-0.149-0.211-0.209L138.949,94.7c-0.373-0.215-1.031-0.188-1.462,0.061
				c-0.156,0.091-0.262,0.199-0.314,0.311C137.068,94.865,137.176,94.617,137.487,94.436z"/>
			<linearGradient id="SVGID_10_" gradientUnits="userSpaceOnUse" x1="124.0947" y1="181.7344" x2="88.9706" y2="168.7228">
				<stop  offset="0" style="stop-color:#FFFFFF"/>
				<stop  offset="0.9996" style="stop-color:#FFFFFF;stop-opacity:0"/>
			</linearGradient>
			<path fill="url(#SVGID_10_)" d="M56.354,156.96l-9.971-5.757c-1.242-0.717-3.431-0.626-4.865,0.201
				c-0.705,0.406-1.099,0.919-1.173,1.419c-0.083-0.596,0.315-1.248,1.173-1.744c1.434-0.826,3.624-0.918,4.865-0.201l9.971,5.757
				c0.632,0.364,0.899,0.872,0.823,1.389C57.122,157.624,56.853,157.248,56.354,156.96z"/>
			<linearGradient id="SVGID_11_" gradientUnits="userSpaceOnUse" x1="155.2588" y1="97.5957" x2="120.1413" y2="84.5866">
				<stop  offset="0" style="stop-color:#FFFFFF"/>
				<stop  offset="0.9996" style="stop-color:#FFFFFF;stop-opacity:0"/>
			</linearGradient>
			<path fill="url(#SVGID_11_)" d="M123.363,85.723c0.659-0.381,1.739-0.381,2.4,0c0.401,0.232,0.555,0.554,0.468,0.856
				c-0.056-0.195-0.209-0.382-0.468-0.531c-0.661-0.382-1.741-0.382-2.4,0c-0.26,0.148-0.413,0.336-0.47,0.531
				C122.808,86.276,122.961,85.955,123.363,85.723z"/>
		</g>
		
			<linearGradient id="SVGID_12_" gradientUnits="userSpaceOnUse" x1="-5.0684" y1="53.9702" x2="173.4025" y2="120.7822" gradientTransform="matrix(-1 0 0 1 255.8906 0)">
			<stop  offset="3.337000e-004" style="stop-color:#FFFFFF"/>
			<stop  offset="0.9661" style="stop-color:#FFFFFF;stop-opacity:0"/>
		</linearGradient>
		<path display="none" fill="url(#SVGID_12_)" d="M15.958,139.8c0.236-0.806,0.761-1.542,1.589-2.019l100.724-58.153
			c1.074-0.62,2.397-0.62,3.471,0l55.392,31.979c0.501,0.29,0.887,0.678,1.17,1.114L15.958,139.8z"/>
		<linearGradient id="SVGID_13_" gradientUnits="userSpaceOnUse" x1="76.5679" y1="146.2324" x2="48.9871" y2="128.4321">
			<stop  offset="0.0203" style="stop-color:#5A63AD"/>
			<stop  offset="0.9583" style="stop-color:#FFFFFF;stop-opacity:0"/>
		</linearGradient>
		<polygon fill="url(#SVGID_13_)" points="86.119,138.69 65.399,150.654 34.914,133.054 55.632,121.091 		"/>
	</g>
	<g>
		<g>
			<g>
				<path fill="#9D55A2" d="M143.68,64.51l-15.306,8.837c-1.116,0.644-3.083,0.563-4.372-0.182l-14.677-8.474
					c-1.289-0.744-1.431-1.88-0.314-2.524l15.305-8.836c1.117-0.645,3.083-0.563,4.372,0.181l14.678,8.474
					C144.654,62.729,144.796,63.865,143.68,64.51z"/>
				<g>
					<path fill="#92489C" d="M144.411,119.515V63.617l0,0c0,0,0,0,0,0c-0.068,0.336-0.31,0.65-0.731,0.894l-15.306,8.837
						c-0.536,0.309-1.271,0.447-2.03,0.428v56.292c0.76,0.02,1.494-0.119,2.03-0.427l15.306-8.838
						C144.264,120.465,144.5,119.994,144.411,119.515z"/>
					<path fill="#833694" d="M124.002,73.165l-14.677-8.474c-0.614-0.354-0.966-0.799-1.046-1.236v55.897
						c-0.113,0.555,0.243,1.169,1.046,1.631l14.677,8.476c0.67,0.386,1.521,0.59,2.342,0.608V73.775
						C125.523,73.755,124.672,73.552,124.002,73.165z"/>
				</g>
			</g>
			<g>
				<path fill="#6A5EA9" d="M119.543,97.819l-15.308,8.836c-1.114,0.646-3.083,0.563-4.371-0.181l-14.677-8.474
					c-1.289-0.744-1.43-1.88-0.314-2.524l15.306-8.836c1.115-0.644,3.083-0.563,4.372,0.181l14.678,8.475
					C120.517,96.039,120.658,97.175,119.543,97.819z"/>
				<g>
					<path fill="#5E51A2" d="M120.274,133.41V96.927l0,0l0,0c-0.069,0.335-0.311,0.649-0.731,0.893l-15.308,8.836
						c-0.535,0.311-1.27,0.449-2.028,0.43v36.879c0.759,0.019,1.493-0.12,2.028-0.43l15.308-8.836
						C120.126,134.362,120.362,133.891,120.274,133.41z"/>
					<path fill="#4D3A97" d="M99.864,106.475l-14.677-8.474c-0.615-0.355-0.965-0.799-1.045-1.237v36.484
						c-0.113,0.555,0.244,1.168,1.045,1.633l14.677,8.473c0.669,0.387,1.521,0.59,2.343,0.61v-36.879
						C101.386,107.064,100.534,106.862,99.864,106.475z"/>
				</g>
			</g>
			<g>
				<path fill="#D0A7CE" d="M95.938,125.466l-15.306,8.837c-1.116,0.643-3.083,0.562-4.372-0.182l-14.677-8.475
					c-1.289-0.745-1.43-1.88-0.314-2.525l15.306-8.836c1.115-0.643,3.083-0.562,4.372,0.182l14.677,8.475
					C96.912,123.686,97.053,124.821,95.938,125.466z"/>
				<g>
					<path fill="#B379B4" d="M96.669,147.042v-22.47l0,0l0,0c-0.069,0.336-0.31,0.648-0.731,0.894l-15.306,8.837
						c-0.536,0.308-1.27,0.446-2.029,0.427v22.864c0.76,0.019,1.493-0.119,2.029-0.429l15.306-8.837
						C96.521,147.991,96.757,147.52,96.669,147.042z"/>
					<path fill="#94509F" d="M76.26,134.121l-14.677-8.475c-0.615-0.354-0.965-0.799-1.046-1.236v22.469
						c-0.113,0.553,0.244,1.168,1.046,1.63l14.677,8.476c0.669,0.386,1.521,0.59,2.342,0.609v-22.864
						C77.781,134.71,76.929,134.508,76.26,134.121z"/>
				</g>
			</g>
		</g>
		<g>
			<g>
				<linearGradient id="SVGID_14_" gradientUnits="userSpaceOnUse" x1="129.5566" y1="63.7451" x2="119.4593" y2="69.309">
					<stop  offset="0.0203" style="stop-color:#5A63AD"/>
					<stop  offset="0.9583" style="stop-color:#FFFFFF;stop-opacity:0"/>
				</linearGradient>
				<polygon fill="url(#SVGID_14_)" points="124.773,63.753 129.234,66.329 120.888,71.148 116.426,68.573 				"/>
				<linearGradient id="SVGID_15_" gradientUnits="userSpaceOnUse" x1="74.8257" y1="125.1162" x2="84.3063" y2="118.6694">
					<stop  offset="0.0203" style="stop-color:#5A63AD"/>
					<stop  offset="0.9583" style="stop-color:#FFFFFF;stop-opacity:0"/>
				</linearGradient>
				<polygon fill="url(#SVGID_15_)" points="80.619,118.801 85.081,121.376 76.734,126.196 72.272,123.619 				"/>
				<linearGradient id="SVGID_16_" gradientUnits="userSpaceOnUse" x1="99.4194" y1="103.2988" x2="108.9001" y2="96.852">
					<stop  offset="0.0203" style="stop-color:#5A63AD"/>
					<stop  offset="0.9583" style="stop-color:#FFFFFF;stop-opacity:0"/>
				</linearGradient>
				<polygon fill="url(#SVGID_16_)" points="105.214,96.983 109.675,99.559 101.329,104.377 96.867,101.803 				"/>
			</g>
			<linearGradient id="SVGID_17_" gradientUnits="userSpaceOnUse" x1="149.0635" y1="4.4873" x2="73.1157" y2="133.5571">
				<stop  offset="0" style="stop-color:#E8E7F4"/>
				<stop  offset="0.9996" style="stop-color:#C2BFE0"/>
			</linearGradient>
			<path fill="url(#SVGID_17_)" d="M151.012,18.572L150.81,3.408l-11.361,14.4l3.635,0.24l-13.094,34.693l-8.518-19.615
				l-20.405,59.89L89.654,77.261l-2.048,5.712c-0.039,0.109-3.951,11.018-7.806,21.875c-8.111,22.84-7.774,22.946-8.032,24.054
				c0,0,4.809-2.202,4.795-2.146c0.535-1.959,7.789-22.396,13.354-37.955l11.55,15.942l19.556-57.394l8.24,18.978l18.113-47.994
				L151.012,18.572z"/>
			<g>
				<linearGradient id="SVGID_18_" gradientUnits="userSpaceOnUse" x1="145.1729" y1="1.8789" x2="61.3404" y2="128.0425">
					<stop  offset="0" style="stop-color:#B8B7DC"/>
					<stop  offset="0.9996" style="stop-color:#5A63AD"/>
				</linearGradient>
				<path fill="url(#SVGID_18_)" d="M87.606,82.973l2.04-5.689l-4.055-2.293l-2.048,5.711c-0.039,0.109-3.951,11.018-7.806,21.875
					c-8.111,22.839-7.773,22.946-8.032,24.053l4.063,2.271c0.258-1.107-0.08-1.214,8.032-24.054
					C83.655,93.991,87.567,83.083,87.606,82.973z"/>
				<linearGradient id="SVGID_19_" gradientUnits="userSpaceOnUse" x1="150.6104" y1="5.4912" x2="66.7775" y2="131.6555">
					<stop  offset="0" style="stop-color:#B8B7DC"/>
					<stop  offset="0.9996" style="stop-color:#5A63AD"/>
				</linearGradient>
				<polygon fill="url(#SVGID_19_)" points="143.083,18.048 139.448,17.808 150.81,3.408 146.747,1.137 135.386,15.537 
					138.465,17.248 127.357,46.679 121.472,33.126 129.989,52.741 				"/>
				<linearGradient id="SVGID_20_" gradientUnits="userSpaceOnUse" x1="147.9277" y1="3.71" x2="64.0955" y2="129.8733">
					<stop  offset="0" style="stop-color:#B8B7DC"/>
					<stop  offset="0.9996" style="stop-color:#5A63AD"/>
				</linearGradient>
				<polygon fill="url(#SVGID_20_)" points="121.472,33.126 117.408,30.855 97.776,88.475 89.654,77.261 101.066,93.016 				"/>
				<linearGradient id="SVGID_21_" gradientUnits="userSpaceOnUse" x1="154.5908" y1="8.1328" x2="70.7556" y2="134.3006">
					<stop  offset="0" style="stop-color:#B8B7DC"/>
					<stop  offset="0.9996" style="stop-color:#5A63AD"/>
				</linearGradient>
				<path fill="url(#SVGID_21_)" d="M89.119,91.035l8.286,11.438l0.008-0.023l4.056,2.293L89.917,88.8
					C89.434,90.152,88.892,91.667,89.119,91.035z"/>
				<linearGradient id="SVGID_22_" gradientUnits="userSpaceOnUse" x1="156.6104" y1="9.4814" x2="72.7815" y2="135.6396">
					<stop  offset="0" style="stop-color:#B8B7DC"/>
					<stop  offset="0.9996" style="stop-color:#5A63AD"/>
				</linearGradient>
				<polygon fill="url(#SVGID_22_)" points="119.67,51.319 125.201,64.054 129.264,66.326 121.023,47.348 				"/>
			</g>
		</g>
	</g>
</g>
</svg>
