<?xml version="1.0" encoding="utf-8"?>
<!-- Generator: Adobe Illustrator 16.0.0, SVG Export Plug-In . SVG Version: 6.00 Build 0)  -->
<!DOCTYPE svg PUBLIC "-//W3C//DTD SVG 1.1//EN" "http://www.w3.org/Graphics/SVG/1.1/DTD/svg11.dtd">
<svg version="1.1" id="Layer_1" xmlns="http://www.w3.org/2000/svg" xmlns:xlink="http://www.w3.org/1999/xlink" x="0px" y="0px"
	 width="150px" height="100px" viewBox="0 0 150 100" enable-background="new 0 0 150 100" xml:space="preserve">
<polygon opacity="0.5" fill="#687BBC" points="138.701,64.378 84.017,32.827 35.851,56.067 100.417,93.063 138.701,70.96 
	138.701,70.108 137.979,69.691 138.701,69.273 138.701,66.718 137.411,65.974 138.701,65.229 "/>
<g>
	<g>
		<polygon fill="#F384AA" points="146.111,66.02 91.427,34.469 53.175,56.57 107.827,88.124 		"/>
		<polygon fill="#F384AA" points="53.175,55.719 53.175,56.57 107.827,88.124 146.111,66.02 146.111,65.168 		"/>
		<g>
			<polygon fill="#EE6C98" points="146.111,65.168 91.427,33.617 53.175,55.719 107.827,87.271 			"/>
		</g>
	</g>
	<g>
		<polygon fill="#F384AA" points="146.111,64.334 91.427,32.783 53.175,54.884 107.827,86.438 		"/>
		<polygon fill="#FDE4E9" points="53.175,52.328 53.175,54.884 107.827,86.438 146.111,64.334 146.111,61.777 		"/>
		<g>
			<polygon fill="#FEF9FB" points="146.111,61.777 91.427,30.226 53.175,52.328 107.827,83.881 			"/>
		</g>
	</g>
	<g>
		<polygon fill="#F384AA" points="146.111,60.289 91.427,28.738 53.175,50.839 107.827,82.394 		"/>
		<polygon fill="#EE6C98" points="53.175,49.988 53.175,50.839 107.827,82.394 146.111,60.289 146.111,59.438 		"/>
		<g>
			<polygon fill="#F384AA" points="146.111,59.438 91.427,27.886 53.175,49.988 107.827,81.541 			"/>
		</g>
	</g>
	<polygon fill="#EE6C98" points="107.827,81.541 107.827,88.124 53.175,56.57 53.175,49.988 	"/>
</g>
<g>
	<g>
		<polygon fill="#90CBEF" points="150.007,55.31 95.322,23.758 57.07,45.86 111.722,77.412 		"/>
		<polygon fill="#90CBEF" points="57.07,45.007 57.07,45.86 111.722,77.412 150.007,55.31 150.007,54.457 		"/>
		<g>
			<polygon fill="#5BA2D9" points="150.007,54.457 95.322,22.906 57.07,45.007 111.722,76.561 			"/>
		</g>
	</g>
	<g>
		<polygon fill="#90CBEF" points="150.007,53.623 95.322,22.072 57.07,44.173 111.722,75.725 		"/>
		<polygon fill="#FDE4E2" points="57.07,41.617 57.07,44.173 111.722,75.725 150.007,53.623 150.007,51.066 		"/>
		<g>
			<polygon fill="#FEF9FB" points="150.007,51.066 95.322,19.516 57.07,41.617 111.722,73.17 			"/>
		</g>
	</g>
	<g>
		<polygon fill="#90CBEF" points="150.007,49.579 95.322,18.028 57.07,40.129 111.722,71.681 		"/>
		<polygon fill="#5BA2D9" points="57.07,39.276 57.07,40.129 111.722,71.681 150.007,49.579 150.007,48.727 		"/>
		<g>
			<polygon fill="#90CBEF" points="150.007,48.727 95.322,17.175 57.07,39.276 111.722,70.829 			"/>
			<polygon fill="#FEF2F7" points="73.533,39.274 95.325,26.683 133.535,48.729 111.722,61.323 			"/>
		</g>
	</g>
	<polygon fill="#5BA2D9" points="111.722,70.829 111.722,77.412 57.07,45.86 57.07,39.276 	"/>
</g>
<ellipse opacity="0.5" fill="#687BBC" cx="20.543" cy="41.494" rx="19.908" ry="8.167"/>
<g>
	<g>
		<path fill="#FEF9FB" d="M31.343,9.241l-18.378,6.172v23.127c0,4.681,6.23,8.477,13.915,8.477c7.685,0,13.915-3.796,13.915-8.477
			V15.413L31.343,9.241z"/>
		<ellipse fill="#FEF9FB" cx="26.88" cy="15.413" rx="13.915" ry="8.477"/>
		<path fill="#A14B59" d="M15.034,19.86c2.451,2.418,6.839,4.029,11.846,4.029c5.007,0,9.395-1.611,11.846-4.029
			c0.169-0.491,0.259-1,0.259-1.522c0-4.073-5.419-7.375-12.105-7.375c-6.686,0-12.106,3.301-12.106,7.375
			C14.774,18.86,14.865,19.37,15.034,19.86z"/>
	</g>
	<path fill="#BCBACE" d="M26.88,7.912c7.014,0,12.94,3.435,12.94,7.501c0,4.067-5.926,7.502-12.94,7.502s-12.94-3.435-12.94-7.502
		C13.94,11.347,19.866,7.912,26.88,7.912 M26.88,6.937c-7.685,0-13.915,3.795-13.915,8.476c0,4.682,6.23,8.477,13.915,8.477
		c7.685,0,13.915-3.794,13.915-8.477C40.794,10.732,34.565,6.937,26.88,6.937L26.88,6.937z"/>
	<g>
		<path fill="#FEF9FB" d="M38.75,24.759l-0.508-0.293v0.008l-0.008-0.004v0.009l-0.008-0.005v0.009l-0.007-0.004v0.009l-0.009-0.004
			v0.009l-0.008-0.005v0.009l-0.008-0.004v0.009l-0.008-0.004v0.009l-0.007-0.004v0.009l-0.008-0.005v0.01l-0.007-0.005v0.009
			l-0.009-0.004v0.009l-0.008-0.004v0.009l-0.007-0.005v0.009l-0.009-0.004v0.01l-0.007-0.005v0.01l-0.008-0.005v0.009l-0.008-0.004
			v0.008l-0.008-0.004v0.009l-0.008-0.005v0.009l-0.008-0.004v0.009l-0.008-0.005v0.009l-0.008-0.005v0.009l-0.008-0.004v0.009
			l-0.008-0.005v0.009l-0.008-0.004v0.009l-0.008-0.005v0.01l-0.008-0.005v0.009l-0.008-0.004v0.009l-0.008-0.005v0.009L38.002,24.6
			v0.009l-0.008-0.004v0.009l-0.008-0.005v0.009l-0.008-0.004v0.009l-0.008-0.004v0.009l-0.008-0.005v0.009l-0.008-0.004v0.009
			l-0.008-0.004v0.009l-0.008-0.004v0.009l-0.008-0.005v0.009l-0.008-0.004v0.008l-0.008-0.004v0.009l-0.008-0.004v0.009
			l-0.009-0.005v0.009l-0.007-0.004v0.009l-0.008-0.004v0.009l-0.008-0.004v0.009l-0.007-0.005v0.009l-0.009-0.005v0.009
			l-0.007-0.004v0.009l-0.008-0.005v0.009l-0.008-0.004v0.009l-0.008-0.005v0.009l-0.008-0.005v0.009l-0.007-0.005v0.01
			l-0.008-0.005v0.009l-0.008-0.005v0.009l-0.007-0.004v0.009l-0.009-0.005v0.01l-0.007-0.005v0.01l-0.008-0.004v0.009l-0.008-0.005
			v0.009l-0.008-0.004v0.009l-0.008-0.005v0.009l-0.008-0.005v0.009l-0.008-0.004v0.009l-0.008-0.005v0.009l-0.008-0.005v0.009
			l-0.009-0.004v0.009l-0.008-0.005v0.009l-0.008-0.004v0.009l-0.007-0.004v0.009l-0.008-0.005v0.009l-0.008-0.004v0.008
			l-0.008-0.004v0.008l-0.008-0.004v0.01l-0.007-0.005v0.009l-0.009-0.004v0.008l-0.007-0.004v0.009L37.61,24.82v0.009l-0.008-0.004
			v0.009l-0.007-0.005v0.009l-0.008-0.005v0.009l-0.008-0.004v0.009l-0.008-0.005v0.009l-0.008-0.004v0.009l-0.008-0.004v0.009
			l-0.008-0.005v0.009l-0.007-0.005v0.01l-0.009-0.005v0.009l-0.008-0.005v0.009l-0.007-0.004v0.009l-0.009-0.005v0.01l-0.007-0.005
			v0.009l-0.009-0.004v0.009l-0.008-0.005V24.9l-0.008-0.004v0.009L37.466,24.9v0.009l-0.008-0.005v0.009l-0.008-0.005v0.01
			l-0.008-0.005v0.009l-0.008-0.005v0.009l-0.008-0.004v0.009l-0.008-0.005v0.009l-0.008-0.004v0.009l-0.008-0.005v0.009
			l-0.008-0.005v0.009l-0.008-0.004v0.008l-0.008-0.004v0.009l-0.008-0.005v0.01l-0.008-0.005v0.009l-0.008-0.004v0.008
			l-0.008-0.004v0.009l-0.008-0.004v0.009l-0.008-0.004v0.009l-0.008-0.004v0.009l-0.008-0.005v0.009l-0.008-0.004v0.009
			l-0.008-0.004v0.009l-0.009-0.004v0.009l-0.007-0.004v0.01l-0.009-0.005v0.009l-0.007-0.004v0.009l-0.008-0.004v0.009
			l-0.009-0.005v0.009l-0.007-0.004v0.009l-0.008-0.005v0.01l-0.008-0.005v0.009l-0.008-0.004v0.009l-0.008-0.005v0.009
			l-0.008-0.005v0.009l-0.009-0.004v0.009l-0.007-0.005v0.009l-0.008-0.004v0.009l-0.008-0.005v0.009l-0.008-0.005v0.009
			l-0.008-0.004v0.009l-0.008-0.005v0.01l-0.008-0.005v0.009l-0.008-0.004v0.009l-0.008-0.005v0.009l-0.008-0.005v0.009
			l-0.007-0.004v0.009l-0.008-0.005v0.01l-0.008-0.005v0.009l-0.008-0.004v0.008l-0.008-0.004v0.009l-0.008-0.005v0.009
			l-0.008-0.004v0.008l-0.008-0.004v0.01l-0.008-0.005v0.009l-0.007-0.004v0.009l-0.008-0.004v0.009l-0.008-0.004v0.009
			l-0.007-0.004v0.009l-0.008-0.005v0.009l-0.008-0.004v0.009l-0.008-0.004v0.009l-0.008-0.005v0.009l-0.008-0.004v0.009
			l-0.008-0.004v0.01l-0.007-0.005v0.009l-0.009-0.004v0.009l-0.008-0.005v0.009l-0.007-0.005v0.009l-0.009-0.004v0.01l-0.007-0.005
			v0.01l-0.008-0.005v0.009l-0.008-0.004v0.009l-0.008-0.005v0.009l-0.007-0.004v0.009l-0.009-0.005v0.01l-0.008-0.005v0.009
			l-0.008-0.004v0.009l-0.008-0.005v0.009l-0.008-0.005v0.009l-0.008-0.004v0.009l-0.008-0.005v0.01l-0.008-0.005v0.009
			l-0.008-0.004v0.009l-0.008-0.005v0.009l-0.008-0.004v0.008l-0.008-0.004v0.009l-0.008-0.005v0.01l-0.008-0.005v0.009
			l-0.008-0.004v0.008l-0.008-0.004v0.009l-0.008-0.004v0.009l-0.008-0.004v0.01l-0.008-0.005v0.009l-0.008-0.004v0.009
			l-0.008-0.004v0.009l-0.008-0.005v0.009L36.7,25.331v0.009l-0.008-0.004v0.01l-0.008-0.005v0.009l-0.008-0.004v0.009l-0.008-0.004
			v0.009l-0.008-0.005v0.009l-0.008-0.004v0.009l-0.008-0.005v0.01l-0.008-0.005v0.009l-0.008-0.004v0.009l-0.008-0.005v0.009
			l-0.008-0.005v0.009l-0.007-0.004v0.009l-0.008-0.005v0.009l-0.008-0.004v0.009l-0.008-0.005v0.009l-0.009-0.005v0.009
			l-0.007-0.004v0.01l-0.008-0.005v0.01l-0.008-0.005v0.009l-0.008-0.004v0.009l-0.008-0.005v0.009l-0.007-0.004v0.008l-0.008-0.004
			v0.009l-0.008-0.005v0.01L36.5,25.443v0.008l-0.008-0.004v0.008l-0.009-0.004v0.009l-0.007-0.004v0.009l-0.009-0.004v0.009
			l-0.008-0.005v0.009l-0.007-0.004v0.009l-0.009-0.004v0.009l-0.008-0.004v0.009l-0.007-0.004v0.009l-0.009-0.005v0.009
			l-0.007-0.004v0.009l-0.008-0.004v0.009l-0.008-0.004v0.009l-0.007-0.005v0.009l-0.008-0.004v0.01l-0.007-0.005v0.01l-0.009-0.005
			v0.009l-0.008-0.004v0.009l-0.007-0.005v0.009l-0.009-0.005v0.009l-0.007-0.004v0.009l-0.008-0.005v0.01l-0.009-0.005v0.009
			l-0.007-0.004v0.009L36.3,25.555v0.009l-0.008-0.004v0.009l-0.009-0.005v0.01l-0.007-0.005v0.009l-0.009-0.004v0.009l-0.008-0.005
			v0.009l-0.008-0.005v0.009l-0.008-0.004v0.009l-0.008-0.005v0.01l-0.008-0.005v0.009L36.22,25.6v0.009l-0.008-0.005v0.009
			l-0.008-0.004v0.008l-0.008-0.004v0.009l-0.008-0.005v0.01l-0.008-0.005v0.009l-0.008-0.004v0.009l-0.008-0.004v0.009
			l-0.007-0.004v0.009l-0.008-0.005v0.009l-0.008-0.004v0.009l-0.008-0.004v0.009l-0.008-0.004v0.009l-0.008-0.004v0.009
			l-0.008-0.004v0.009L36.1,25.667v0.01l-0.008-0.005v0.009l-0.008-0.004v0.009l-0.007-0.004v0.009l-0.01-0.005v0.009l-0.007-0.004
			v0.01l-0.008-0.005v0.01l-0.008-0.005v0.009l-0.008-0.004v0.009l-0.008-0.005v0.009l-0.007-0.004v0.01l-0.008-0.005v0.01
			l-0.008-0.005v0.009l-0.008-0.004v0.009l-0.008-0.005v0.009l-0.008-0.005v0.009l-0.008-0.004v0.009l-0.008-0.005v0.01
			l-0.008-0.004v0.009l-0.008-0.004v0.009l-0.008-0.005v0.009l-0.008-0.004v0.009l-0.008-0.004v0.009l-0.008-0.004v0.009
			l-0.008-0.005v0.009L35.9,25.779v0.008l-0.008-0.004v0.009l-0.008-0.005v0.009l-0.008-0.005v0.009l-0.008-0.004v0.009
			l-0.009-0.004v0.009l-0.008-0.004v0.009l-0.007-0.005v0.009l-0.009-0.004v2.353c2.36,1.588,3.804,4.272,3.804,7.14
			c0,0.91-0.312,1.755-0.867,2.424c-0.176,0.025-0.353,0.039-0.53,0.039v0.004c-0.002,0-0.005,0-0.008,0v0.005
			c-0.002,0-0.005,0-0.008,0v0.004c-0.003,0-0.005,0-0.007,0v0.004c-0.003,0-0.005,0-0.009,0v0.004c-0.003,0-0.005,0-0.008,0v0.004
			c-0.003,0-0.005,0-0.008,0v0.004c-0.002,0-0.005,0-0.008,0v0.005c-0.003,0-0.005,0-0.007,0v0.004c-0.003,0-0.006,0-0.008,0v0.004
			c-0.002,0-0.005,0-0.007,0v0.004c-0.004,0-0.007,0-0.009,0v0.003c-0.002,0-0.005,0-0.008,0v0.005c-0.003,0-0.005,0-0.007,0v0.004
			c-0.003,0-0.006,0-0.009,0v0.004c-0.002,0-0.005,0-0.007,0v0.004c-0.003,0-0.006,0-0.008,0v0.004c-0.002,0-0.006,0-0.008,0v0.004
			c-0.003,0-0.005,0-0.008,0v0.005c-0.002,0-0.005,0-0.008,0v0.004c-0.002,0-0.005,0-0.008,0v0.004c-0.002,0-0.005,0-0.008,0v0.005
			c-0.002,0-0.005,0-0.008,0v0.004c-0.002,0-0.005,0-0.008,0v0.004c-0.002,0-0.005,0-0.008,0v0.005c-0.002,0-0.005,0-0.008,0v0.004
			c-0.002,0-0.005,0-0.008,0v0.004c-0.003,0-0.005,0-0.008,0v0.004c-0.003,0-0.005,0-0.008,0v0.004c-0.003,0-0.005,0-0.008,0v0.004
			c-0.003,0-0.005,0-0.008,0v0.004c-0.003,0-0.005,0-0.008,0v0.004c-0.003,0-0.005,0-0.008,0v0.004c-0.003,0-0.005,0-0.008,0v0.004
			c-0.003,0-0.005,0-0.008,0v0.004c-0.003,0-0.005,0-0.008,0v0.004c-0.002,0-0.006,0-0.008,0v0.004c-0.003,0-0.006,0-0.008,0v0.004
			c-0.003,0-0.006,0-0.008,0v0.004c-0.003,0-0.006,0-0.008,0v0.004c-0.003,0-0.006,0-0.008,0v0.004c-0.002,0-0.005,0-0.008,0v0.005
			c-0.003,0-0.006,0-0.008,0v0.004c-0.003,0-0.006,0-0.009,0v0.004c-0.002,0-0.004,0-0.007,0v0.004c-0.002,0-0.005,0-0.008,0v0.004
			c-0.002,0-0.005,0-0.008,0v0.005c-0.002,0-0.005,0-0.007,0v0.004c-0.002,0-0.005,0-0.009,0v0.003c-0.002,0-0.004,0-0.007,0v0.004
			c-0.002,0-0.005,0-0.008,0v0.004c-0.002,0-0.005,0-0.008,0v0.004c-0.003,0-0.005,0-0.008,0v0.005c-0.003,0-0.005,0-0.008,0v0.004
			c-0.002,0-0.004,0-0.007,0v0.004c-0.003,0-0.006,0-0.008,0v0.004c-0.003,0-0.005,0-0.008,0v0.004c-0.002,0-0.004,0-0.007,0v0.004
			c-0.003,0-0.006,0.001-0.009,0.001v0.004c-0.002,0-0.004,0-0.007,0v0.004c-0.003,0-0.005,0-0.008,0v0.004
			c-0.003,0-0.006,0-0.008,0v0.004c-0.003,0-0.006,0-0.008,0v0.004c-0.003,0-0.006,0-0.008,0v0.004c-0.002,0-0.006,0-0.008,0v0.004
			c-0.003,0-0.006,0-0.008,0v0.004c-0.003,0-0.006,0-0.008,0v0.004c-0.003,0-0.006,0-0.008,0v0.004c-0.003,0-0.006,0-0.009,0v0.004
			c-0.002,0-0.005,0-0.008,0v0.004c-0.002,0-0.005,0-0.008,0v0.004c-0.002,0-0.005,0-0.007,0v0.004c-0.002,0-0.005,0-0.008,0v0.004
			c-0.002,0-0.005,0-0.008,0v0.004c-0.002,0-0.005,0-0.008,0v0.004c-0.002,0-0.005,0-0.008,0v0.004c-0.002,0-0.005,0-0.007,0v0.004
			c-0.002,0-0.006,0-0.009,0v0.004c-0.002,0-0.004,0-0.007,0v0.004c-0.003,0-0.005,0-0.008,0v0.004c-0.002,0-0.005,0-0.008,0v0.004
			c-0.003,0-0.005,0-0.007,0v0.004c-0.003,0-0.005,0-0.008,0v0.003c-0.002,0-0.004,0-0.008,0v0.004c-0.003,0-0.005,0-0.008,0v0.004
			c-0.002,0-0.005,0-0.008,0v0.003c-0.003,0-0.005,0-0.008,0v0.005c-0.003,0-0.006,0-0.008,0v0.004c-0.002,0-0.005,0-0.007,0v0.004
			c-0.003,0-0.006,0-0.009,0v0.004c-0.002,0-0.005,0-0.008,0v0.004c-0.003,0-0.005,0-0.007,0v0.005c-0.003,0-0.006,0-0.009,0v0.004
			c-0.002,0-0.005,0-0.007,0v0.004c-0.003,0-0.006,0-0.009,0v0.004c-0.002,0-0.005,0-0.008,0V38.2c-0.003,0-0.005,0-0.008,0v0.004
			c-0.002,0-0.005,0-0.008,0v0.004c-0.002,0-0.005,0-0.008,0v0.004c-0.002,0-0.005,0-0.008,0v0.004c-0.002,0-0.005,0-0.008,0v0.004
			c-0.002,0-0.005,0-0.008,0v0.004c-0.002,0-0.005,0-0.008,0v0.004c-0.003,0-0.005,0.001-0.008,0.001v0.004
			c-0.002,0-0.005,0-0.008,0v0.004c-0.003,0-0.005,0-0.008,0v0.004c-0.003,0-0.005,0-0.008,0v0.004c-0.003,0-0.005,0-0.008,0v0.004
			c-0.003,0-0.005,0-0.008,0v0.004c-0.002,0-0.005,0-0.008,0v0.004c-0.003,0-0.006,0-0.008,0v0.004c-0.003,0-0.006,0-0.008,0v0.004
			c-0.003,0-0.006,0-0.008,0v0.004c-0.003,0-0.006,0-0.008,0v0.004c-0.002,0-0.005,0-0.008,0v0.004c-0.003,0-0.006,0-0.008,0v0.004
			c-0.003,0-0.006,0-0.008,0v0.004c-0.003,0-0.005,0-0.008,0v0.004c-0.003,0-0.006,0-0.008,0v0.004c-0.002,0-0.005,0-0.009,0v0.004
			c-0.002,0-0.005,0-0.007,0v0.004c-0.002,0-0.006,0-0.009,0v0.004c-0.002,0-0.004,0-0.007,0v0.003c-0.002,0-0.005,0-0.008,0v0.004
			c-0.002,0-0.005,0-0.009,0v0.004c-0.002,0-0.004,0-0.007,0v0.004c-0.002,0-0.005,0-0.008,0v0.004c-0.002,0-0.004,0-0.008,0v0.004
			c-0.003,0-0.005,0-0.008,0v0.004c-0.003,0-0.005,0-0.008,0v0.004c-0.003,0-0.005,0-0.008,0v0.004c-0.003,0-0.006,0-0.009,0v0.004
			c-0.002,0-0.004,0-0.007,0v0.004c-0.003,0-0.005,0-0.008,0v0.004c-0.003,0-0.005,0-0.008,0v0.004c-0.003,0-0.005,0-0.008,0v0.004
			c-0.003,0-0.006,0-0.008,0v0.004c-0.003,0-0.006,0-0.008,0v0.004c-0.003,0-0.006,0-0.008,0v0.004c-0.003,0-0.006,0-0.008,0v0.004
			c-0.003,0-0.006,0-0.008,0v0.004c-0.003,0-0.006,0-0.008,0v0.004c-0.002,0-0.005,0-0.007,0v0.004c-0.003,0-0.006,0-0.008,0v0.004
			c-0.003,0-0.006,0-0.008,0v0.004c-0.002,0-0.005,0-0.008,0v0.004c-0.002,0-0.004,0-0.008,0v0.004c-0.002,0-0.005,0-0.008,0v0.005
			c-0.002,0-0.005,0-0.008,0v0.004c-0.002,0-0.005,0-0.008,0v0.004c-0.002,0-0.005,0-0.008,0v0.004c-0.002,0-0.004,0-0.007,0v0.004
			c-0.002,0-0.005,0-0.008,0v0.004c-0.003,0-0.005,0-0.008,0v0.004c-0.003,0-0.005,0-0.007,0v0.004c-0.003,0-0.005,0-0.008,0v0.004
			c-0.003,0-0.005,0-0.008,0v0.003c-0.003,0-0.005,0-0.008,0v0.004c-0.002,0-0.005,0-0.008,0v0.004c-0.003,0-0.005,0-0.008,0v0.004
			c-0.003,0-0.005,0-0.008,0v0.004c-0.002,0-0.004,0-0.007,0v0.004c-0.003,0-0.007,0-0.009,0V38.5c-0.002,0-0.005,0-0.008,0v0.004
			c-0.003,0-0.005,0-0.007,0v0.005c-0.003,0-0.006,0-0.009,0v0.004c-0.002,0-0.005,0-0.007,0v0.005c-0.003,0-0.006,0-0.008,0v0.004
			c-0.002,0-0.005,0-0.008,0v0.004c-0.003,0-0.005,0-0.008,0v0.004c-0.002,0-0.005,0-0.007,0v0.005c-0.002,0-0.005,0-0.009,0v0.004
			c-0.002,0-0.005,0-0.008,0v0.004c-0.002,0-0.005,0-0.008,0v0.004c-0.002,0-0.005,0-0.008,0v0.004c-0.002,0-0.005,0-0.008,0v0.004
			c-0.002,0-0.005,0-0.008,0v0.004c-0.002,0-0.005,0-0.008,0v0.004c-0.002,0-0.005,0-0.008,0v0.004c-0.003,0-0.005,0-0.008,0v0.004
			c-0.003,0-0.005,0-0.008,0v0.004c-0.003,0-0.005,0-0.008,0v0.005c-0.002,0-0.005,0-0.008,0v0.003c-0.003,0-0.005,0-0.008,0v0.004
			c-0.003,0-0.005,0-0.008,0v0.004c-0.003,0-0.005,0-0.008,0v0.004c-0.003,0-0.005,0-0.008,0v0.004c-0.002,0-0.005,0-0.008,0v0.005
			c-0.003,0-0.005,0-0.008,0v0.004c-0.003,0-0.006,0-0.008,0v0.004c-0.003,0-0.005,0-0.008,0v0.003c-0.003,0-0.006,0-0.008,0v0.004
			c-0.002,0-0.005,0-0.008,0v0.004c-0.003,0-0.005,0.001-0.008,0.001v0.003c-0.003,0-0.006,0-0.008,0v0.004
			c-0.003,0-0.005,0.001-0.008,0.001v0.004c-0.003,0-0.006,0-0.008,0v0.003c-0.002,0-0.005,0-0.008,0v0.004
			c-0.002,0-0.005,0-0.008,0v0.005c-0.002,0-0.005,0-0.008,0v0.004c-0.002,0-0.005,0-0.008,0v0.004c-0.002,0-0.005,0-0.008,0v0.004
			c-0.002,0-0.005,0-0.008,0v0.004c-0.002,0-0.005,0-0.008,0v0.004c-0.003,0-0.005,0-0.008,0v0.005c-0.002,0-0.004,0-0.007,0v0.004
			c-0.003,0-0.005,0-0.008,0v0.004c-0.003,0-0.005,0-0.008,0v0.004c-0.003,0-0.005,0-0.008,0v0.004c-0.003,0-0.005,0-0.009,0v0.004
			c-0.002,0-0.004,0.001-0.007,0.001v0.004c-0.003,0-0.005,0-0.008,0v0.004c-0.003,0-0.005,0-0.008,0v0.004
			c-0.003,0-0.005,0-0.008,0v0.004c-0.003,0-0.005,0-0.008,0v0.004c-0.002,0-0.005,0-0.007,0v0.005c-0.003,0-0.006,0-0.008,0v0.004
			c-0.003,0-0.006,0-0.008,0v0.004c-0.003,0-0.006,0-0.008,0v0.004c-0.003,0-0.006,0-0.008,0v0.004c-0.003,0-0.006,0-0.009,0v0.004
			c-0.002,0-0.005,0-0.007,0v0.005c-0.003,0-0.006,0-0.009,0v0.004c-0.002,0-0.005,0-0.008,0v0.004c-0.002,0-0.004,0-0.007,0v0.004
			c-0.002,0-0.005,0-0.009,0v0.004c-0.002,0-0.005,0-0.008,0v0.005c-0.002,0-0.005,0-0.007,0v0.003c-0.002,0-0.005,0-0.009,0v0.004
			c-0.002,0-0.004,0-0.007,0v0.004c-0.002,0-0.005,0-0.008,0v0.003c-0.002,0-0.005,0-0.008,0v0.004c-0.003,0-0.005,0-0.007,0v0.004
			c-0.003,0-0.005,0-0.008,0v0.004c-0.002,0-0.004,0-0.007,0v0.004c-0.004,0-0.006,0-0.009,0v0.004c-0.002,0-0.005,0-0.008,0v0.004
			c-0.003,0-0.005,0-0.007,0v0.004c-0.003,0-0.006,0-0.009,0v0.005c-0.002,0-0.005,0-0.007,0v0.004c-0.003,0-0.005,0-0.008,0v0.004
			c-0.003,0-0.006,0-0.009,0v0.004c-0.003,0-0.005,0-0.007,0v0.004c-0.003,0-0.006,0-0.008,0v0.004c-0.002,0-0.006,0-0.008,0v0.004
			c-0.003,0-0.006,0-0.009,0v0.004c-0.002,0-0.005,0-0.007,0v0.004c-0.003,0-0.005,0-0.009,0v0.004c-0.002,0-0.005,0-0.008,0v0.004
			c-0.002,0-0.005,0-0.008,0v0.005c-0.002,0-0.005,0-0.008,0v0.004c-0.002,0-0.005,0-0.008,0v0.004c-0.002,0-0.005,0-0.008,0v0.004
			c-0.002,0-0.005,0-0.008,0v0.004c-0.002,0-0.005,0-0.008,0v0.005c-0.002,0-0.005,0-0.008,0v0.004c-0.003,0-0.005,0-0.008,0v0.004
			c-0.003,0-0.005,0-0.008,0v0.004c-0.003,0-0.005,0-0.008,0v0.004c-0.003,0-0.005,0-0.008,0v0.004c-0.002,0-0.005,0-0.008,0v0.005
			c-0.003,0-0.005,0-0.007,0v0.004c-0.003,0-0.006,0-0.008,0v0.004c-0.003,0-0.005,0-0.008,0v0.004c-0.003,0-0.006,0-0.008,0v0.003
			c-0.002,0-0.005,0-0.008,0v0.004c-0.003,0-0.005,0-0.008,0v0.005c-0.003,0-0.006,0-0.008,0v0.003c-0.003,0-0.005,0-0.008,0v0.004
			c-0.003,0-0.006,0-0.008,0v0.004c-0.002,0-0.005,0-0.008,0v0.004c-0.003,0-0.005,0-0.007,0v0.005c-0.003,0-0.006,0-0.01,0v0.004
			c-0.002,0-0.004,0-0.007,0v0.004c-0.002,0-0.005,0-0.008,0v0.004c-0.002,0-0.005,0-0.008,0v0.004c-0.003,0-0.005,0-0.008,0v0.004
			c-0.002,0-0.005,0-0.008,0v0.004c-0.002,0-0.004,0-0.007,0v0.004c-0.002,0-0.006,0-0.008,0v0.004c-0.002,0-0.005,0-0.008,0v0.004
			c-0.003,0-0.005,0-0.008,0v0.004c-0.002,0-0.006,0-0.008,0v0.004c-0.003,0-0.005,0-0.008,0v0.004c-0.003,0-0.005,0-0.008,0v0.004
			c-0.003,0-0.005,0-0.008,0v0.004c-0.003,0-0.005,0-0.008,0v0.004c-0.003,0-0.005,0-0.008,0v0.004c-0.003,0-0.005,0-0.008,0v0.005
			c-0.003,0-0.006,0-0.008,0v0.004c-0.003,0-0.006,0-0.008,0v0.004c-0.003,0-0.006,0-0.008,0v0.004c-0.003,0-0.005,0-0.008,0v0.004
			c-0.003,0-0.006,0-0.008,0v0.004c-0.003,0-0.006,0-0.008,0v0.004c-0.003,0-0.006,0-0.008,0v0.004c-0.003,0-0.006,0-0.008,0v0.004
			c-0.003,0-0.005,0-0.008,0v0.004c-0.003,0-0.006,0-0.009,0v0.004c-0.002,0-0.005,0-0.008,0v0.004c-0.002,0-0.005,0-0.007,0v0.005
			c-0.002,0-0.006,0-0.009,0v2.019c1,0,2.001-0.264,2.912-0.791c0.001,0,0.001-0.001,0.002-0.001c0.002,0,0.004-0.002,0.006-0.003
			c0,0,0.001,0,0.002-0.001c0.002-0.001,0.003-0.002,0.005-0.002c0.001,0,0.001-0.001,0.002-0.002
			c0.002-0.001,0.004-0.002,0.006-0.003c0.001,0,0.001-0.001,0.002-0.001c0.002-0.001,0.004-0.002,0.006-0.003
			c0,0,0.001-0.001,0.002-0.001c0.002-0.001,0.004-0.002,0.005-0.002c0.001-0.001,0.001-0.002,0.002-0.002
			c0.002-0.001,0.005-0.002,0.006-0.003c0,0,0.001-0.001,0.003-0.001c0.001-0.001,0.004-0.002,0.005-0.003
			c0.001,0,0.001-0.001,0.002-0.001c0.002-0.001,0.004-0.002,0.005-0.002c0.001-0.001,0.002-0.001,0.003-0.002
			c0.001,0,0.003-0.002,0.005-0.003c0,0,0.001-0.001,0.003-0.001c0.001-0.001,0.003-0.002,0.005-0.003
			c0.001,0,0.002-0.001,0.003-0.001c0.001-0.001,0.003-0.002,0.005-0.004c0.001,0,0.002-0.001,0.003-0.001
			c0.001-0.001,0.004-0.002,0.006-0.003c0,0,0.001-0.001,0.002-0.001c0.001-0.001,0.003-0.002,0.005-0.003
			c0.001-0.001,0.002-0.001,0.003-0.001c0.001-0.001,0.003-0.002,0.005-0.003c0.001,0,0.002-0.001,0.002-0.001
			c0.002-0.001,0.003-0.001,0.006-0.003c0.001,0,0.001,0,0.002-0.001c0.001-0.001,0.003-0.002,0.005-0.003
			c0.001,0,0.001-0.001,0.002-0.002c0.002-0.001,0.004-0.001,0.006-0.003c0,0,0.001-0.001,0.002-0.001
			c0.001-0.001,0.003-0.001,0.006-0.003c0,0,0.001,0,0.002-0.001c0.002-0.001,0.003-0.002,0.005-0.003c0.001,0,0.002,0,0.002-0.001
			c0.001-0.001,0.003-0.002,0.006-0.003c0,0,0.001-0.001,0.002-0.001c0.002-0.001,0.003-0.001,0.005-0.003
			c0.001,0,0.001,0,0.002-0.001c0.001-0.001,0.004-0.002,0.006-0.004c0,0,0.001-0.001,0.002-0.001
			c0.002-0.001,0.003-0.001,0.006-0.003c0,0,0.001-0.001,0.002-0.001c0.002-0.001,0.003-0.002,0.005-0.003
			c0.001,0,0.002,0,0.002-0.001c0.002-0.001,0.004-0.002,0.006-0.003c0,0,0.001,0,0.002-0.001c0.002-0.001,0.003-0.001,0.005-0.003
			c0.001,0,0.001-0.001,0.002-0.001c0.002-0.001,0.004-0.002,0.005-0.003c0.001,0,0.002,0,0.002-0.001
			c0.002-0.001,0.005-0.002,0.006-0.003c0,0,0.001-0.001,0.002-0.001c0.002,0,0.004-0.002,0.005-0.003
			c0.001,0,0.002-0.001,0.002-0.001c0.002-0.001,0.004-0.002,0.006-0.003c0,0,0.001-0.001,0.002-0.002
			c0.001-0.001,0.004-0.001,0.005-0.003c0.001,0,0.001-0.001,0.002-0.001c0.002,0,0.004-0.001,0.005-0.003
			c0.001,0,0.002,0,0.003-0.001c0.002-0.001,0.004-0.002,0.005-0.002c0,0,0.002-0.002,0.003-0.002
			c0.001-0.001,0.003-0.001,0.004-0.002c0.001-0.001,0.002-0.001,0.003-0.002c0.002,0,0.004-0.002,0.006-0.003
			c0.001,0,0.002-0.001,0.002-0.001c0.001-0.001,0.004-0.002,0.005-0.002s0.001-0.001,0.003-0.002
			c0.001-0.001,0.003-0.001,0.006-0.003c0.001,0,0.001-0.001,0.002-0.001s0.004-0.002,0.005-0.003c0.001,0,0.002,0,0.003-0.001
			s0.003-0.002,0.005-0.003c0.001-0.001,0.001-0.001,0.002-0.002c0.001-0.001,0.003-0.002,0.006-0.002
			c0-0.001,0.001-0.001,0.002-0.001c0.002-0.001,0.004-0.002,0.006-0.003c0,0,0.001-0.001,0.002-0.001
			c0.002-0.001,0.003-0.002,0.006-0.002c0-0.001,0.001-0.001,0.002-0.002c0.001,0,0.004-0.002,0.006-0.003
			c0,0,0.001-0.001,0.002-0.001c0.002-0.001,0.004-0.002,0.006-0.003c0.001,0,0.001-0.001,0.002-0.001
			c0.001-0.001,0.003-0.002,0.006-0.003c0,0,0.001-0.001,0.002-0.001c0.002-0.001,0.004-0.002,0.006-0.003
			c0,0,0.001-0.001,0.002-0.001c0.001-0.001,0.004-0.002,0.006-0.003c0,0,0.001-0.001,0.002-0.001
			c0.002-0.001,0.003-0.002,0.005-0.003c0.001-0.001,0.002-0.001,0.003-0.002c0.002-0.001,0.003-0.001,0.005-0.003
			c0.001,0,0.001-0.001,0.002-0.001c0.002-0.001,0.003-0.002,0.006-0.003c0,0,0.001-0.002,0.002-0.002
			c0.002-0.001,0.004-0.002,0.006-0.003c0,0,0.001-0.001,0.002-0.001c0.002-0.001,0.004-0.001,0.006-0.003c0,0,0.001,0,0.002-0.001
			c0.002-0.001,0.004-0.002,0.005-0.003c0.001,0,0.002,0,0.003-0.001c0.002-0.001,0.004-0.001,0.005-0.003
			c0.001,0,0.001-0.001,0.002-0.001c0.002-0.001,0.004-0.001,0.006-0.003c0,0,0.001,0,0.002-0.001
			c0.002-0.001,0.004-0.003,0.006-0.004c0,0,0.002,0,0.002-0.001c0.002-0.001,0.004-0.002,0.006-0.003c0,0,0.001-0.001,0.003-0.001
			c0.001-0.001,0.003-0.001,0.004-0.003c0.001,0,0.002,0,0.002-0.001c0.002-0.001,0.004-0.002,0.006-0.003
			c0.001,0,0.002,0,0.003-0.001s0.003-0.001,0.005-0.003c0,0,0.002-0.001,0.003-0.001c0.001-0.001,0.003-0.002,0.005-0.003
			c0.001,0,0.002,0,0.002-0.001c0.002-0.001,0.004-0.002,0.005-0.003c0.001,0,0.002-0.001,0.003-0.001
			c0.001-0.001,0.004-0.001,0.005-0.003c0.002,0,0.002-0.001,0.003-0.001c0.001-0.001,0.004-0.002,0.006-0.003
			c0,0,0.001,0,0.002-0.001c0.001-0.001,0.003-0.002,0.005-0.003c0.001,0,0.001-0.001,0.002-0.001s0.004-0.001,0.006-0.003
			c0.001,0,0.001-0.001,0.002-0.001c0.002,0,0.004-0.002,0.006-0.002c0-0.001,0.001-0.001,0.002-0.002s0.003-0.001,0.005-0.003
			c0.001,0,0.001-0.001,0.002-0.001c0.002,0,0.003-0.001,0.007-0.003c0,0,0.001,0,0.002-0.001c0.001-0.001,0.003-0.002,0.005-0.003
			c0.001,0,0.001-0.001,0.002-0.002c0.002-0.001,0.003-0.001,0.005-0.002c0.001-0.001,0.001-0.001,0.002-0.002
			c0.002,0,0.004-0.002,0.006-0.003c0,0,0.001-0.001,0.002-0.001c0.002-0.001,0.003-0.002,0.005-0.003
			c0.001,0,0.001-0.001,0.002-0.002c0.002-0.001,0.003-0.001,0.006-0.002c0-0.001,0.001-0.001,0.002-0.002
			c0.002,0,0.003-0.002,0.005-0.003c0.001,0,0.002-0.001,0.003-0.001c0.002-0.001,0.003-0.002,0.005-0.002
			c0.001-0.001,0.001-0.001,0.002-0.002c0.002-0.001,0.004-0.002,0.006-0.002c0-0.001,0.001-0.001,0.002-0.001
			c0.002-0.001,0.003-0.002,0.005-0.003c0.001,0,0.001-0.001,0.002-0.002c0.003-0.001,0.005-0.002,0.006-0.002
			c0-0.001,0.001-0.001,0.002-0.002c0.002,0,0.005-0.002,0.006-0.003c0.001,0,0.001-0.001,0.003-0.001
			c0.001-0.001,0.003-0.002,0.005-0.003c0.001,0,0.001-0.001,0.002-0.001c0.003-0.001,0.005-0.001,0.006-0.003
			c0,0,0.001-0.001,0.003-0.001c0.001-0.001,0.003-0.002,0.005-0.003c0.001,0,0.001-0.001,0.002-0.001
			c0.002-0.001,0.004-0.002,0.006-0.003c0-0.001,0.001-0.001,0.003-0.001c0.001-0.001,0.004-0.002,0.005-0.003
			c0.001,0,0.001-0.001,0.002-0.001c0.002-0.001,0.004-0.001,0.005-0.003c0.001,0,0.002,0,0.003-0.001
			c0.001-0.001,0.003-0.002,0.005-0.003c0-0.001,0.002-0.001,0.003-0.001c0.001-0.001,0.004-0.002,0.005-0.003
			c0.001,0,0.002-0.001,0.003-0.001c0.001-0.001,0.003-0.001,0.005-0.003c0.001,0,0.001,0,0.002-0.001
			c0.001-0.002,0.003-0.002,0.006-0.004c0,0,0.001,0,0.002-0.001c0.001-0.001,0.003-0.001,0.006-0.003c0,0,0.001-0.001,0.002-0.001
			c0.001-0.001,0.003-0.001,0.005-0.003c0.001,0,0.002,0,0.002-0.001c0.002-0.001,0.003-0.002,0.006-0.003
			c0-0.001,0.001-0.001,0.002-0.001c0.001-0.001,0.003-0.002,0.005-0.003c0.001,0,0.002-0.001,0.003-0.001
			c0.002-0.001,0.003-0.001,0.005-0.003c0.001,0,0.002,0,0.002-0.001c0.002-0.001,0.003-0.002,0.006-0.003
			c0,0,0.001-0.001,0.002-0.001c0.002-0.001,0.003-0.001,0.005-0.003c0.001,0,0.002-0.001,0.003-0.001
			c0.002-0.001,0.003-0.002,0.006-0.003c0,0,0.001,0,0.002-0.001c0.002-0.001,0.003-0.001,0.005-0.003
			c0.001,0,0.001-0.001,0.002-0.001c0.002,0,0.003-0.001,0.005-0.003c0.001,0,0.002-0.001,0.002-0.001
			c0.003-0.001,0.005-0.003,0.007-0.004c0,0,0.001,0,0.002-0.001c0.002-0.001,0.003-0.001,0.005-0.003
			c0.001,0,0.002-0.001,0.002-0.001c0.002,0,0.003-0.001,0.006-0.003c0,0,0.001,0,0.002-0.001c0.002-0.001,0.005-0.002,0.006-0.003
			s0.001-0.001,0.002-0.002c0.002-0.001,0.004-0.001,0.005-0.003c0.001,0,0.002-0.001,0.002-0.001c0.002,0,0.005-0.002,0.006-0.003
			c0,0,0.001,0,0.002-0.001c0.002-0.001,0.005-0.003,0.006-0.003s0.002-0.001,0.003-0.002c0.001-0.001,0.003-0.001,0.005-0.002
			c0-0.001,0.001-0.001,0.002-0.002c0.002,0,0.004-0.002,0.005-0.003c0.001,0,0.001-0.001,0.003-0.001
			c0.001-0.001,0.003-0.002,0.005-0.002c0.001,0,0.001-0.001,0.002-0.002c0.002-0.001,0.005-0.001,0.006-0.003
			c0.001,0,0.001-0.001,0.003-0.001c0.001,0,0.003-0.002,0.004-0.003c0.001,0,0.002,0,0.003-0.001
			c0.001-0.001,0.003-0.002,0.006-0.002c0.001-0.001,0.002-0.001,0.002-0.002c0.001-0.001,0.004-0.002,0.006-0.003
			c0,0,0.001-0.001,0.002-0.001c0.001-0.001,0.003-0.002,0.005-0.003c0.001,0,0.002-0.001,0.003-0.001
			c0.001-0.001,0.003-0.002,0.005-0.002c0.001-0.001,0.002-0.001,0.003-0.002s0.003-0.002,0.005-0.003
			c0.001,0,0.001-0.001,0.002-0.001c0.001-0.001,0.003-0.003,0.006-0.004c0,0,0.001-0.001,0.002-0.001
			c0.001-0.001,0.004-0.002,0.006-0.003c0-0.001,0.001-0.001,0.002-0.002c0.002,0,0.003-0.002,0.006-0.003
			c0,0,0.001-0.001,0.002-0.001c0.001-0.001,0.003-0.002,0.005-0.003c0.001,0,0.002-0.001,0.003-0.001
			c0.002-0.001,0.003-0.002,0.005-0.003c0.001,0,0.001-0.001,0.002-0.001c0.003-0.001,0.004-0.002,0.006-0.003
			c0,0,0.001,0,0.002-0.001c0.002-0.002,0.004-0.003,0.006-0.003c0-0.001,0.001-0.001,0.002-0.001
			c0.002-0.001,0.003-0.002,0.006-0.003c0,0,0.001-0.001,0.002-0.001c0.002-0.001,0.004-0.001,0.006-0.003
			c0.001,0,0.002,0,0.002-0.001c0.002-0.001,0.004-0.002,0.006-0.003c0.001,0,0.001,0,0.002-0.001
			c0.002-0.001,0.004-0.001,0.006-0.003c0,0,0.001-0.001,0.002-0.001c0.002-0.001,0.004-0.001,0.006-0.003c0,0,0.001,0,0.002-0.001
			c0.002-0.001,0.004-0.002,0.006-0.003c0,0,0.001,0,0.002-0.001c0.002-0.001,0.004-0.001,0.005-0.003
			c0.001,0,0.002-0.001,0.002-0.001c0.002-0.001,0.004-0.002,0.006-0.003c0.001,0,0.001,0,0.002-0.001
			c0.002-0.001,0.004-0.002,0.006-0.003c0,0,0.001-0.001,0.003-0.001c0.001-0.001,0.003-0.001,0.005-0.003
			c0,0,0.002-0.001,0.002-0.001c0.002-0.002,0.004-0.003,0.005-0.004c0,0,0.001,0,0.002-0.001c0.002-0.001,0.004-0.002,0.005-0.003
			c0.002,0,0.002-0.001,0.003-0.001c0.001,0,0.003-0.001,0.005-0.003c0,0,0.001-0.001,0.003-0.001
			c0.001-0.001,0.003-0.002,0.005-0.003c0.001,0,0.002,0,0.003-0.001s0.003-0.001,0.005-0.003c0.001,0,0.001-0.001,0.002-0.001
			c0.002,0,0.004-0.001,0.006-0.003c0-0.001,0.001-0.001,0.002-0.001c0.001-0.001,0.003-0.002,0.005-0.003
			c0.001,0,0.001-0.001,0.002-0.002c0.002-0.001,0.004-0.001,0.006-0.002c0-0.001,0.001-0.001,0.002-0.002
			c0.002,0,0.003-0.002,0.005-0.003c0.001,0,0.001,0,0.002-0.001c0.001,0,0.003-0.002,0.005-0.002c0.001,0,0.001-0.001,0.002-0.002
			c0.003-0.001,0.004-0.001,0.006-0.002c0-0.001,0.001-0.001,0.002-0.002s0.003-0.002,0.005-0.003c0.001,0,0.001-0.001,0.002-0.001
			c0.002-0.001,0.003-0.002,0.006-0.002c0,0,0.001-0.001,0.002-0.002c0.002-0.001,0.004-0.001,0.006-0.003
			c0.001,0,0.001-0.001,0.002-0.001c0.002-0.001,0.003-0.002,0.005-0.003c0.001,0,0.001,0,0.002-0.001
			c0.002-0.001,0.004-0.002,0.006-0.002c0-0.001,0.001-0.001,0.002-0.002c0.002-0.001,0.003-0.002,0.006-0.003
			c0.001,0,0.001-0.001,0.002-0.001c0.002-0.002,0.003-0.003,0.006-0.004c0,0,0.001-0.001,0.002-0.001
			c0.002-0.001,0.005-0.002,0.006-0.003c0.001,0,0.001-0.001,0.002-0.001c0.002,0,0.003-0.002,0.005-0.003
			c0.001,0,0.002-0.001,0.002-0.001c0.002-0.001,0.004-0.002,0.006-0.003c0,0,0.001-0.001,0.002-0.001
			c0.002-0.001,0.004-0.002,0.005-0.003c0.001,0,0.001-0.001,0.002-0.001c0.002-0.001,0.004-0.002,0.006-0.003
			c0-0.001,0.002-0.001,0.002-0.001c0.002-0.001,0.004-0.002,0.006-0.003c0-0.001,0.001-0.001,0.003-0.001
			c0.001-0.001,0.003-0.002,0.005-0.003c0.001,0,0.001-0.001,0.002-0.001c0.002,0,0.004-0.001,0.006-0.003c0,0,0.002,0,0.003-0.001
			c0.001-0.001,0.003-0.002,0.005-0.003c0.001-0.001,0.001-0.001,0.002-0.001c0.002-0.001,0.004-0.002,0.006-0.003
			c0,0,0.002-0.001,0.003-0.001c0.001-0.001,0.003-0.002,0.005-0.003c0.001,0,0.001,0,0.003-0.001
			c0.002-0.001,0.004-0.002,0.005-0.003c0.001,0,0.002,0,0.003-0.001c0.001-0.001,0.003-0.001,0.005-0.003
			c0.001,0,0.001-0.001,0.002-0.001c0.001-0.001,0.003-0.001,0.006-0.003c0,0,0.001,0,0.002-0.001
			c0.001-0.001,0.004-0.002,0.006-0.003c0.001,0,0.001,0,0.002-0.001s0.003-0.001,0.005-0.003c0.001,0,0.002-0.001,0.002-0.001
			c0.002-0.002,0.004-0.002,0.006-0.004c0,0,0.001,0,0.002-0.001c0.002-0.001,0.003-0.002,0.006-0.003c0.001,0,0.002,0,0.002-0.001
			c0.001-0.001,0.003-0.001,0.006-0.003c0,0,0.001-0.001,0.002-0.001c0.002-0.001,0.003-0.002,0.005-0.003
			c0.001,0,0.001,0,0.002-0.001c0.002-0.001,0.003-0.001,0.006-0.003c0.001,0,0.001-0.001,0.002-0.001
			c0.002,0,0.004-0.002,0.006-0.003c0,0,0.001-0.001,0.002-0.001c0.002-0.001,0.003-0.002,0.005-0.003
			c0.001,0,0.002-0.001,0.002-0.001c0.002-0.001,0.003-0.001,0.006-0.003c0.001,0,0.001-0.001,0.002-0.001
			c0.002,0,0.003-0.001,0.005-0.003c0.001,0,0.001,0,0.002-0.001c0.002,0,0.003-0.002,0.005-0.002c0.001,0,0.001-0.001,0.002-0.002
			c0.002-0.001,0.004-0.001,0.006-0.002c0,0,0.001-0.001,0.002-0.002c0.002,0,0.004-0.002,0.005-0.003c0.001,0,0.002,0,0.002-0.001
			c0.002-0.001,0.003-0.002,0.006-0.003c0,0,0.001-0.001,0.002-0.002c0.002-0.001,0.004-0.002,0.005-0.002
			c0.001-0.001,0.001-0.001,0.002-0.002c0.002,0,0.004-0.002,0.006-0.003c0.001,0,0.001-0.001,0.002-0.001
			c0.002-0.001,0.004-0.002,0.006-0.002c0,0,0.001-0.001,0.002-0.002c0.002-0.001,0.004-0.001,0.005-0.002s0.002-0.002,0.003-0.002
			c0.001-0.001,0.004-0.002,0.006-0.003c0,0,0.001-0.001,0.002-0.001c0.002-0.001,0.004-0.002,0.005-0.002
			c0.001-0.001,0.002-0.001,0.003-0.002c0.001-0.001,0.003-0.002,0.005-0.003c0.001,0,0.002-0.001,0.003-0.001
			c0.001-0.001,0.004-0.002,0.006-0.003c0,0,0.002-0.001,0.002-0.001c0.001-0.001,0.004-0.002,0.005-0.003
			c0.002,0,0.002-0.001,0.003-0.001c0.001,0,0.003-0.002,0.005-0.003c0.001,0,0.002-0.001,0.002-0.001
			c0.001-0.001,0.004-0.002,0.006-0.003c0-0.001,0.001-0.001,0.002-0.001c0.001-0.001,0.003-0.002,0.006-0.003
			c0,0,0.001-0.001,0.002-0.001c0.002-0.001,0.003-0.002,0.005-0.003c0.001,0,0.002-0.001,0.002-0.001
			c0.001-0.001,0.004-0.002,0.006-0.003c0.001-0.001,0.001-0.001,0.002-0.001c0.001-0.001,0.003-0.002,0.006-0.003
			c0,0,0.001-0.001,0.002-0.001c0.001-0.001,0.004-0.002,0.006-0.003c0,0,0.001,0,0.002-0.001c0.002-0.001,0.003-0.002,0.006-0.003
			c0,0,0.001-0.001,0.002-0.001c0.001-0.001,0.003-0.002,0.005-0.003c0.001,0,0.002-0.001,0.002-0.001
			c0.002-0.001,0.004-0.001,0.006-0.003c0,0,0.001,0,0.002-0.001c0.002-0.001,0.003-0.002,0.006-0.003c0,0,0.001,0,0.002-0.001
			c0.002-0.001,0.004-0.002,0.006-0.003c0-0.001,0.001-0.001,0.002-0.002c0.002-0.001,0.004-0.001,0.006-0.003
			c0,0,0.001,0,0.002-0.001c0.002-0.001,0.003-0.002,0.005-0.003c0.001,0,0.002-0.001,0.002-0.001
			c0.002-0.001,0.004-0.001,0.006-0.003c0,0,0.001-0.001,0.002-0.001c0.002-0.001,0.003-0.002,0.005-0.003
			c0.001,0,0.002,0,0.002-0.001c0.002-0.001,0.004-0.002,0.006-0.003c0,0,0.001,0,0.002-0.001c0.002,0,0.004-0.002,0.006-0.003
			c0,0,0.001-0.001,0.003-0.001c0.001-0.001,0.003-0.002,0.004-0.003c0.001,0,0.002,0,0.002-0.001
			c0.002-0.001,0.004-0.002,0.006-0.003c0,0,0.001-0.001,0.002-0.001c0.002,0,0.004-0.001,0.006-0.003
			c0.001,0,0.002-0.001,0.003-0.001c0.001-0.001,0.003-0.002,0.005-0.003c0,0,0.002-0.001,0.002-0.002
			c0.002-0.001,0.004-0.001,0.005-0.003c0,0,0.001-0.001,0.002-0.002c0.002,0,0.004-0.001,0.005-0.003c0.002,0,0.003,0,0.003-0.001
			c0.001-0.001,0.003-0.002,0.005-0.002c0.001,0,0.002-0.001,0.002-0.002c0.002-0.001,0.004-0.001,0.005-0.002
			c0.002-0.001,0.002-0.001,0.003-0.002s0.003-0.002,0.005-0.003c0.001,0,0.002,0,0.002-0.001c0.002,0,0.004-0.002,0.006-0.002
			c0,0,0.001-0.001,0.002-0.002c0.001-0.001,0.003-0.002,0.005-0.002c0.001-0.001,0.001-0.002,0.002-0.002
			c0.001,0,0.003-0.002,0.006-0.003c0,0,0.001-0.001,0.002-0.001c0.002-0.001,0.004-0.002,0.006-0.002
			c0.001,0,0.001-0.001,0.002-0.002c0.001-0.001,0.003-0.001,0.005-0.003c0.001,0,0.001-0.001,0.002-0.001
			c0.002,0,0.004-0.002,0.006-0.003c0,0,0.001,0,0.002-0.001c0.002-0.001,0.004-0.002,0.006-0.002
			c0.001-0.001,0.001-0.001,0.002-0.002c0.002-0.001,0.003-0.002,0.006-0.003c0,0,0.001-0.001,0.002-0.001
			c0.002-0.001,0.004-0.002,0.006-0.003c0,0,0.001-0.001,0.002-0.001c0.002-0.001,0.003-0.002,0.006-0.003
			c0.001-0.001,0.001-0.001,0.002-0.002c0.002,0,0.004-0.002,0.006-0.003c0,0,0.001-0.001,0.002-0.001
			c0.002-0.001,0.003-0.002,0.005-0.003c0.001,0,0.001-0.001,0.002-0.001c0.002-0.001,0.005-0.002,0.006-0.003
			c0-0.001,0.001-0.002,0.002-0.002c0.002,0,0.004-0.001,0.006-0.003c0,0,0.001-0.001,0.002-0.001
			c0.002-0.001,0.004-0.002,0.005-0.003c0.001-0.001,0.001-0.001,0.002-0.001c0.002-0.001,0.004-0.002,0.006-0.003
			c0,0,0.001-0.001,0.002-0.001c0.002-0.001,0.004-0.002,0.005-0.003c0.001,0,0.001,0,0.003-0.001
			c0.001-0.001,0.003-0.002,0.005-0.003c0-0.001,0.002-0.001,0.003-0.002s0.003-0.001,0.005-0.003c0,0,0.002-0.001,0.003-0.001
			c0.002-0.001,0.004-0.002,0.005-0.003c0.001,0,0.002,0,0.003-0.001c0.001-0.001,0.003-0.002,0.005-0.003c0,0,0.001,0,0.003-0.001
			s0.003-0.001,0.005-0.003c0.001,0,0.002-0.001,0.003-0.001c0.001-0.001,0.003-0.002,0.005-0.003c0.001,0,0.002,0,0.003-0.001
			c0.001-0.001,0.003-0.002,0.005-0.003c0.001,0,0.001-0.001,0.002-0.001c0.002-0.001,0.004-0.002,0.006-0.003
			c0,0,0.001-0.001,0.002-0.001c0.001-0.001,0.004-0.002,0.006-0.003c0.001,0,0.002,0,0.002-0.001
			c0.001-0.001,0.003-0.002,0.006-0.003c0,0,0.001-0.001,0.002-0.001c0.001,0,0.003-0.001,0.005-0.003
			c0.001,0,0.001-0.001,0.002-0.001c0.001-0.001,0.004-0.002,0.006-0.003c0.001,0,0.001,0,0.002-0.001
			c0.002-0.001,0.004-0.001,0.006-0.003c0,0,0.001-0.001,0.002-0.002c0.002,0,0.003-0.001,0.005-0.003
			c0.001,0,0.002-0.001,0.002-0.001c0.001-0.001,0.004-0.002,0.006-0.003c0,0,0.001-0.001,0.002-0.002
			c0.002-0.001,0.003-0.001,0.005-0.003c0.001,0,0.001-0.001,0.002-0.001c0.002,0,0.003-0.002,0.005-0.003
			c0.001,0,0.001,0,0.002-0.001c0.002-0.001,0.004-0.002,0.007-0.003c0,0,0.001-0.001,0.002-0.002
			c0.002-0.001,0.003-0.001,0.005-0.003c0.001-0.001,0.002-0.001,0.002-0.002c0.002,0,0.004-0.002,0.006-0.003
			c0,0,0.001,0,0.002-0.001c0.002-0.001,0.003-0.002,0.005-0.003c0.001,0,0.002-0.001,0.003-0.002
			c0.002-0.001,0.004-0.002,0.005-0.002c0.001-0.001,0.001-0.001,0.002-0.002c0.002,0,0.004-0.002,0.006-0.003
			c0,0,0.001-0.001,0.002-0.001c0.002-0.001,0.004-0.002,0.005-0.002s0.002-0.001,0.002-0.002c0.002-0.001,0.004-0.002,0.006-0.003
			c0,0,0.001-0.001,0.002-0.001c0.001-0.001,0.004-0.002,0.005-0.003c0.001,0,0.001,0,0.002-0.001
			c0.002-0.001,0.004-0.002,0.005-0.002c0.001-0.001,0.001-0.001,0.003-0.002c0.001,0,0.003-0.002,0.005-0.003
			c0,0,0.001-0.001,0.002-0.001c0.002-0.001,0.004-0.002,0.005-0.003c0.001,0,0.002-0.001,0.003-0.001
			c0.001-0.001,0.003-0.002,0.005-0.004c0,0,0.002-0.001,0.002-0.001c0.002,0,0.004-0.002,0.005-0.003
			c0.001,0,0.002-0.001,0.003-0.001c0.001-0.001,0.003-0.002,0.005-0.003c0.001,0,0.001-0.001,0.002-0.001
			c0.002-0.001,0.004-0.002,0.006-0.003c0.001,0,0.002-0.001,0.002-0.001c0.001-0.001,0.004-0.001,0.005-0.003
			c0.001,0,0.002,0,0.003-0.001c0.001-0.001,0.003-0.002,0.006-0.003c0-0.001,0.001-0.001,0.002-0.001
			c0.001-0.001,0.004-0.002,0.006-0.004c0,0,0.001-0.001,0.002-0.001c0.002-0.001,0.003-0.001,0.006-0.003c0,0,0.001,0,0.002-0.001
			c0.001-0.001,0.003-0.002,0.005-0.003c0.001-0.001,0.002-0.001,0.002-0.001c0.002-0.001,0.003-0.002,0.006-0.003
			c0,0,0.001-0.001,0.002-0.001c0.001-0.001,0.003-0.001,0.006-0.003c0.001,0,0.002,0,0.002-0.001
			c0.002-0.001,0.004-0.002,0.006-0.003c0,0,0.001,0,0.002-0.001c0.002-0.001,0.003-0.002,0.006-0.003c0,0,0.001-0.001,0.002-0.001
			c0.002-0.001,0.003-0.002,0.005-0.003c0.001,0,0.002,0,0.003-0.001c0.002-0.001,0.003-0.002,0.006-0.003c0,0,0.001,0,0.002-0.001
			c0.002-0.001,0.003-0.001,0.005-0.003c0.001,0,0.002-0.001,0.002-0.001c0.002-0.001,0.004-0.002,0.006-0.003
			c0,0,0.001,0,0.002-0.001c0.002-0.001,0.004-0.001,0.006-0.003c0,0,0.001,0,0.002-0.001c0.002,0,0.004-0.001,0.005-0.003
			c0.001,0,0.002-0.001,0.002-0.001c0.002-0.001,0.004-0.002,0.006-0.003c0,0,0.001,0,0.002-0.001
			c0.003-0.001,0.005-0.001,0.006-0.003c0.001,0,0.002-0.001,0.002-0.001c0.002,0,0.004-0.002,0.006-0.003c0,0,0.001,0,0.002-0.001
			c0.002-0.001,0.004-0.002,0.006-0.003c0,0,0.001-0.001,0.003-0.002c0.001-0.001,0.004-0.002,0.005-0.003
			c0.001,0,0.002-0.001,0.002-0.002c0.002,0,0.004-0.002,0.006-0.003c0,0,0.001,0,0.002-0.001s0.004-0.002,0.005-0.002
			s0.001-0.001,0.002-0.002c0.002-0.001,0.004-0.001,0.006-0.002c0.001,0,0.002-0.001,0.002-0.002c0.002,0,0.004-0.002,0.005-0.003
			c0.001,0,0.001,0,0.003-0.001c0.001-0.001,0.003-0.002,0.004-0.002c0.002,0,0.002-0.002,0.003-0.002
			c0.001-0.001,0.003-0.002,0.006-0.002c0-0.001,0.001-0.001,0.002-0.002c0.001,0,0.004-0.002,0.006-0.003
			c0,0,0.001-0.001,0.002-0.001c0.001-0.001,0.003-0.002,0.005-0.002c0.001,0,0.001-0.001,0.002-0.002
			c0.002-0.001,0.004-0.002,0.006-0.002c0-0.001,0.001-0.001,0.002-0.001c0.001-0.001,0.003-0.002,0.005-0.003
			c0.001,0,0.001-0.001,0.002-0.001c0.001-0.001,0.003-0.002,0.006-0.003c0-0.001,0.001-0.001,0.002-0.002
			c0.002,0,0.004-0.002,0.006-0.003c0,0,0.002-0.001,0.003-0.001c0.001-0.001,0.003-0.002,0.005-0.003
			c0.001,0,0.001-0.001,0.002-0.001c0.002-0.001,0.004-0.002,0.006-0.003c1.821-1.053,2.908-2.937,2.908-5.041
			C44.061,30.175,42.026,26.65,38.75,24.759z"/>
		<path fill="#BCBACE" d="M36.344,26.108l-0.508-0.293v2.353c2.36,1.588,3.804,4.272,3.804,7.14c0,1.375-0.71,2.607-1.901,3.295
			c-0.595,0.344-1.248,0.516-1.902,0.517v2.019c1,0,2.001-0.264,2.912-0.791c1.822-1.052,2.908-2.937,2.908-5.041
			C41.655,31.524,39.62,28,36.344,26.108z"/>
	</g>
</g>
<g>
	<path opacity="0.8" fill="#687BBC" d="M116.817,35.867c-0.445,0.415-20.285,12.918-20.285,12.918s-25.571-14.906-24.69-14.641
		S116.817,35.867,116.817,35.867z"/>
	<polygon fill="#FCCF4F" points="116.817,35.867 92.82,22.024 71.842,34.144 92.929,46.317 98.822,46.256 	"/>
	<polygon fill="#B89255" points="95.826,42.853 98.822,46.256 92.929,46.317 	"/>
</g>
</svg>
