<svg xmlns="http://www.w3.org/2000/svg" viewBox="0 0 69.5 69.5"><defs><style>.cls-1{fill:#26c8be;}.cls-2{fill:#fff;}</style></defs><title>Asset 9</title><g id="Layer_2" data-name="Layer 2"><g id="Layer_1-2" data-name="Layer 1"><circle class="cls-1" cx="34.75" cy="34.75" r="34.75"/><g id="Uk310m.tif"><path class="cls-2" d="M55.3,33.31v2.25a1.61,1.61,0,0,0-.07.26,15.81,15.81,0,0,1-3.43,8.64A19.32,19.32,0,0,1,36.51,52c-7.32.16-14.65.05-22,.06a3.24,3.24,0,0,1-.34,0l.24-.41c1.5-2.43,3-4.85,4.5-7.27a.65.65,0,0,0,0-.85,15.72,15.72,0,0,1-2.81-9.14,16.15,16.15,0,0,1,4.62-11.27A19.63,19.63,0,0,1,33,17a20.52,20.52,0,0,1,15,3.77,16.92,16.92,0,0,1,7,10.66C55.12,32,55.2,32.68,55.3,33.31ZM35.71,36.38a1.95,1.95,0,1,0-2-2A1.94,1.94,0,0,0,35.71,36.38Zm7.82,0a1.95,1.95,0,1,0-1.94-1.94A1.94,1.94,0,0,0,43.53,36.38Zm-15.66,0a1.95,1.95,0,1,0-2-2A1.95,1.95,0,0,0,27.88,36.38Z"/></g></g></g></svg>