<?xml version="1.0" encoding="utf-8"?>
<!-- Generator: Adobe Illustrator 16.0.0, SVG Export Plug-In . SVG Version: 6.00 Build 0)  -->
<!DOCTYPE svg PUBLIC "-//W3C//DTD SVG 1.1//EN" "http://www.w3.org/Graphics/SVG/1.1/DTD/svg11.dtd">
<svg version="1.1" id="Layer_1" xmlns="http://www.w3.org/2000/svg" xmlns:xlink="http://www.w3.org/1999/xlink" x="0px" y="0px"
	 width="320px" height="233px" viewBox="0 0 320 233" enable-background="new 0 0 320 233" xml:space="preserve">
<g>
	<g>
		<g>
			<path fill="#58448F" d="M109.447,63.508L217.979,1.335c1.949-1.117,4.48-1.65,6.672-1.145c3.074,0.709,5.959,1.677,5.953,4.369
				l0.164,100.879l-9.549,5.641c3.125,1.521,98.395,47.891,98.551,48.005l0.23,3.892c0,1.68-0.889,3.228-2.342,4.069
				c-16.217,9.393-111.214,64.31-111.214,64.31c-3.126,1.807-6.978,1.807-10.103,0l-90.292-52.188
				c-0.941-0.544-1.522-1.549-1.524-2.637L104.37,72.242C104.379,68.632,106.314,65.302,109.447,63.508z"/>
			<g>
				<path fill="#382461" d="M107.568,176.188l123.295-70.349l0.254-100.657c0.008-2.908-3.135-4.734-5.658-3.289L111.762,67.026
					c-2.476,1.418-4.005,4.05-4.012,6.902L107.568,176.188z"/>
				<polygon fill="#382461" points="226.043,7.738 113.168,72.527 112.933,167.288 226.043,102.357 				"/>
			</g>
			<g>
				<path fill="#FEF9FB" d="M107.638,176.18l123.229-71.067l87.15,50.369c2.516,1.455,2.516,5.089,0,6.543l-113.451,65.562
					c-2.47,1.428-5.514,1.428-7.984,0L107.638,176.18z"/>
			</g>
			<g>
				<g>
					<path fill="#58448F" d="M141.745,178.366c-2.454,1.409-3.681,2.114-6.135,3.523c-2.481-1.403-3.722-2.104-6.203-3.507
						c2.455-1.409,3.681-2.114,6.136-3.523C138.023,176.262,139.264,176.964,141.745,178.366z"/>
					<path fill="#58448F" d="M150.801,173.166c-2.454,1.409-3.681,2.113-6.135,3.523c-2.481-1.403-3.722-2.104-6.203-3.507
						c2.454-1.409,3.681-2.114,6.135-3.523C147.079,171.062,148.32,171.763,150.801,173.166z"/>
					<path fill="#58448F" d="M159.857,167.965c-2.454,1.409-3.681,2.114-6.136,3.523c-2.481-1.402-3.722-2.104-6.203-3.506
						c2.455-1.409,3.682-2.114,6.136-3.523C156.136,165.861,157.376,166.563,159.857,167.965z"/>
					<path fill="#58448F" d="M168.914,162.765c-2.454,1.409-3.682,2.114-6.136,3.523c-2.481-1.402-3.722-2.104-6.203-3.507
						c2.455-1.409,3.682-2.114,6.136-3.523C165.192,160.66,166.434,161.361,168.914,162.765z"/>
					<path fill="#58448F" d="M177.971,157.563c-2.453,1.409-3.682,2.114-6.135,3.523c-2.482-1.402-3.723-2.104-6.203-3.506
						c2.453-1.41,3.682-2.114,6.135-3.524C174.25,155.46,175.49,156.161,177.971,157.563z"/>
					<path fill="#58448F" d="M187.028,152.362c-2.454,1.41-3.682,2.114-6.136,3.523c-2.481-1.402-3.723-2.104-6.203-3.506
						c2.454-1.409,3.682-2.114,6.137-3.523C183.307,150.259,184.547,150.96,187.028,152.362z"/>
					<path fill="#58448F" d="M196.086,147.162c-2.455,1.409-3.682,2.114-6.137,3.523c-2.48-1.403-3.722-2.104-6.203-3.507
						c2.455-1.409,3.682-2.114,6.137-3.523C192.363,145.058,193.604,145.759,196.086,147.162z"/>
					<path fill="#58448F" d="M205.143,141.961c-2.455,1.409-3.682,2.114-6.137,3.523c-2.48-1.402-3.721-2.104-6.203-3.506
						c2.455-1.41,3.682-2.114,6.137-3.524C201.42,139.857,202.661,140.559,205.143,141.961z"/>
					<path fill="#58448F" d="M214.199,136.76c-2.454,1.41-3.682,2.114-6.136,3.523c-2.481-1.402-3.722-2.104-6.203-3.506
						c2.454-1.41,3.682-2.114,6.136-3.523C210.478,134.656,211.719,135.357,214.199,136.76z"/>
					<path fill="#58448F" d="M223.256,131.56c-2.455,1.409-3.682,2.114-6.137,3.523c-2.48-1.402-3.721-2.104-6.202-3.507
						c2.454-1.409,3.681-2.113,6.136-3.523C219.533,129.456,220.775,130.157,223.256,131.56z"/>
					<path fill="#58448F" d="M232.313,126.359c-2.455,1.408-3.682,2.113-6.137,3.522c-2.48-1.402-3.721-2.104-6.203-3.506
						c2.455-1.409,3.682-2.114,6.137-3.523C228.59,124.255,229.832,124.957,232.313,126.359z"/>
					<path fill="#58448F" d="M241.369,121.158c-2.455,1.41-3.682,2.114-6.137,3.523c-2.48-1.402-3.721-2.104-6.203-3.506
						c2.455-1.41,3.682-2.114,6.137-3.523C237.646,119.055,238.887,119.756,241.369,121.158z"/>
					<path fill="#58448F" d="M150.452,183.288c-2.455,1.409-3.682,2.114-6.136,3.523c-2.481-1.403-3.722-2.104-6.204-3.507
						c2.454-1.409,3.681-2.114,6.136-3.523C146.729,181.184,147.97,181.886,150.452,183.288z"/>
					<path fill="#58448F" d="M159.508,178.088c-2.455,1.409-3.682,2.113-6.136,3.523c-2.481-1.403-3.722-2.104-6.204-3.507
						c2.454-1.41,3.682-2.114,6.136-3.523C155.785,175.983,157.026,176.685,159.508,178.088z"/>
					<path fill="#58448F" d="M168.564,172.887c-2.455,1.41-3.682,2.114-6.136,3.523c-2.481-1.402-3.723-2.104-6.204-3.507
						c2.454-1.409,3.681-2.114,6.136-3.523C164.842,170.783,166.082,171.484,168.564,172.887z"/>
					<path fill="#58448F" d="M177.621,167.687c-2.454,1.409-3.682,2.114-6.136,3.523c-2.481-1.403-3.723-2.104-6.204-3.507
						c2.455-1.409,3.682-2.114,6.137-3.523C173.898,165.582,175.14,166.283,177.621,167.687z"/>
					<path fill="#58448F" d="M186.678,162.485c-2.454,1.409-3.682,2.114-6.136,3.523c-2.481-1.402-3.722-2.104-6.204-3.507
						c2.455-1.409,3.682-2.114,6.137-3.523C182.956,160.381,184.197,161.083,186.678,162.485z"/>
					<path fill="#58448F" d="M195.735,157.284c-2.454,1.41-3.682,2.114-6.136,3.523c-2.482-1.402-3.723-2.104-6.204-3.506
						c2.454-1.41,3.682-2.114,6.136-3.524C192.014,155.181,193.254,155.882,195.735,157.284z"/>
					<path fill="#58448F" d="M204.792,152.084c-2.454,1.409-3.682,2.114-6.136,3.523c-2.481-1.403-3.723-2.104-6.204-3.507
						c2.454-1.41,3.683-2.114,6.136-3.523C201.07,149.979,202.311,150.681,204.792,152.084z"/>
					<path fill="#58448F" d="M213.85,146.883c-2.455,1.409-3.682,2.114-6.137,3.523c-2.481-1.402-3.723-2.104-6.203-3.507
						c2.454-1.409,3.682-2.114,6.136-3.523C210.127,144.778,211.367,145.48,213.85,146.883z"/>
					<path fill="#58448F" d="M222.906,141.682c-2.455,1.41-3.682,2.114-6.137,3.523c-2.48-1.402-3.722-2.104-6.203-3.507
						c2.455-1.409,3.682-2.113,6.137-3.523C219.184,139.578,220.424,140.279,222.906,141.682z"/>
					<path fill="#58448F" d="M231.963,136.481c-2.455,1.409-3.682,2.114-6.137,3.523c-2.48-1.403-3.723-2.104-6.203-3.507
						c2.455-1.409,3.682-2.114,6.135-3.523C228.24,134.377,229.48,135.078,231.963,136.481z"/>
					<path fill="#58448F" d="M241.02,131.281c-2.455,1.409-3.682,2.113-6.137,3.523c-2.48-1.403-3.721-2.104-6.203-3.508
						c2.455-1.409,3.682-2.113,6.135-3.523C237.297,129.177,238.537,129.878,241.02,131.281z"/>
					<path fill="#58448F" d="M250.074,126.08c-4.113,2.363-6.172,3.545-10.285,5.908c-2.482-1.403-3.723-2.104-6.205-3.508
						c4.115-2.363,6.172-3.544,10.287-5.906C246.354,123.977,247.594,124.678,250.074,126.08z"/>
					<path fill="#58448F" d="M163.213,185.882c-4.077,2.341-6.114,3.511-10.19,5.852c-2.481-1.403-3.722-2.104-6.204-3.507
						c4.076-2.341,6.113-3.511,10.189-5.852C159.49,183.778,160.73,184.479,163.213,185.882z"/>
					<path fill="#58448F" d="M168.215,183.01c-2.455,1.409-3.682,2.114-6.136,3.523c-2.481-1.403-3.722-2.104-6.204-3.507
						c2.454-1.41,3.681-2.114,6.136-3.523C164.492,180.905,165.733,181.606,168.215,183.01z"/>
					<path fill="#58448F" d="M177.271,177.809c-2.455,1.41-3.682,2.114-6.137,3.523c-2.48-1.402-3.722-2.104-6.203-3.507
						c2.455-1.409,3.682-2.114,6.136-3.523C173.549,175.705,174.789,176.406,177.271,177.809z"/>
					<path fill="#58448F" d="M186.328,172.608c-2.455,1.409-3.682,2.114-6.137,3.523c-2.48-1.403-3.722-2.104-6.203-3.507
						c2.455-1.409,3.682-2.114,6.137-3.523C182.605,170.504,183.847,171.205,186.328,172.608z"/>
					<path fill="#58448F" d="M195.385,167.407c-2.454,1.409-3.682,2.114-6.136,3.523c-2.481-1.402-3.722-2.104-6.204-3.507
						c2.455-1.409,3.682-2.114,6.137-3.523C191.662,165.303,192.903,166.005,195.385,167.407z"/>
					<path fill="#58448F" d="M204.442,162.206c-2.454,1.41-3.683,2.114-6.136,3.524c-2.482-1.403-3.723-2.104-6.205-3.508
						c2.455-1.409,3.682-2.113,6.137-3.523C200.721,160.103,201.961,160.804,204.442,162.206z"/>
					<path fill="#58448F" d="M213.498,157.006c-2.453,1.409-3.681,2.114-6.135,3.523c-2.482-1.402-3.723-2.104-6.204-3.507
						c2.454-1.409,3.682-2.114,6.136-3.523C209.777,154.901,211.018,155.603,213.498,157.006z"/>
					<path fill="#58448F" d="M222.557,151.805c-2.455,1.409-3.682,2.114-6.137,3.523c-2.482-1.402-3.723-2.104-6.203-3.507
						c2.454-1.409,3.682-2.114,6.135-3.523C218.834,149.7,220.074,150.402,222.557,151.805z"/>
					<path fill="#58448F" d="M231.613,146.604c-2.455,1.409-3.682,2.113-6.137,3.523c-2.48-1.403-3.723-2.104-6.203-3.508
						c2.453-1.409,3.682-2.113,6.135-3.523C227.891,144.5,229.131,145.201,231.613,146.604z"/>
					<path fill="#58448F" d="M240.67,141.403c-2.455,1.409-3.682,2.114-6.137,3.523c-2.48-1.402-3.721-2.104-6.203-3.507
						c2.455-1.409,3.682-2.114,6.137-3.523C236.947,139.299,238.188,140.001,240.67,141.403z"/>
					<path fill="#58448F" d="M249.727,136.203c-2.455,1.409-3.682,2.113-6.137,3.523c-2.48-1.403-3.721-2.104-6.203-3.508
						c2.455-1.409,3.682-2.113,6.135-3.522C246.004,134.099,247.244,134.8,249.727,136.203z"/>
					<path fill="#58448F" d="M258.781,131.003c-2.453,1.409-3.68,2.113-6.135,3.522c-2.48-1.402-3.723-2.104-6.203-3.507
						c2.453-1.409,3.682-2.114,6.135-3.522C255.061,128.898,256.301,129.6,258.781,131.003z"/>
					<path fill="#58448F" d="M167.865,193.132c-2.454,1.409-3.682,2.114-6.135,3.523c-2.482-1.403-3.723-2.104-6.204-3.507
						c2.454-1.409,3.681-2.114,6.136-3.523C164.143,191.027,165.384,191.729,167.865,193.132z"/>
					<path fill="#58448F" d="M176.922,187.932c-2.455,1.409-3.682,2.114-6.136,3.523c-2.481-1.403-3.722-2.104-6.204-3.507
						c2.455-1.409,3.682-2.114,6.136-3.523C173.199,185.827,174.439,186.528,176.922,187.932z"/>
					<path fill="#58448F" d="M185.979,182.731c-2.455,1.409-3.682,2.113-6.137,3.522c-2.48-1.402-3.722-2.104-6.203-3.507
						c2.455-1.409,3.682-2.113,6.136-3.523C182.256,180.627,183.496,181.328,185.979,182.731z"/>
					<path fill="#58448F" d="M195.035,177.53c-2.455,1.409-3.682,2.114-6.137,3.523c-2.48-1.402-3.722-2.104-6.203-3.507
						c2.455-1.409,3.682-2.114,6.137-3.523C191.313,175.426,192.554,176.128,195.035,177.53z"/>
					<path fill="#58448F" d="M204.092,172.329c-2.454,1.41-3.682,2.114-6.136,3.523c-2.481-1.402-3.722-2.104-6.204-3.507
						c2.455-1.409,3.682-2.113,6.137-3.523C200.369,170.226,201.611,170.927,204.092,172.329z"/>
					<path fill="#58448F" d="M213.148,167.128c-2.453,1.41-3.682,2.114-6.136,3.524c-2.481-1.403-3.722-2.104-6.203-3.507
						c2.454-1.41,3.681-2.114,6.136-3.524C209.427,165.024,210.668,165.726,213.148,167.128z"/>
					<path fill="#58448F" d="M222.205,161.928c-2.453,1.409-3.682,2.114-6.135,3.523c-2.482-1.402-3.723-2.104-6.204-3.507
						c2.454-1.409,3.681-2.114,6.136-3.523C218.484,159.823,219.725,160.525,222.205,161.928z"/>
					<path fill="#58448F" d="M231.264,156.727c-2.455,1.409-3.682,2.114-6.137,3.523c-2.482-1.402-3.723-2.104-6.203-3.507
						c2.453-1.409,3.682-2.114,6.135-3.523C227.541,154.623,228.781,155.324,231.264,156.727z"/>
					<path fill="#58448F" d="M240.32,151.525c-2.455,1.41-3.682,2.114-6.137,3.524c-2.48-1.403-3.723-2.104-6.203-3.507
						c2.455-1.41,3.682-2.114,6.137-3.524C236.598,149.422,237.838,150.123,240.32,151.525z"/>
					<path fill="#58448F" d="M249.377,146.325c-2.455,1.409-3.682,2.114-6.137,3.523c-2.48-1.402-3.721-2.104-6.203-3.507
						c2.455-1.409,3.682-2.114,6.137-3.523C245.654,144.222,246.895,144.923,249.377,146.325z"/>
					<path fill="#58448F" d="M262.346,138.878c-4.02,2.309-6.029,3.462-10.049,5.771c-2.48-1.403-3.723-2.104-6.203-3.507
						c4.02-2.309,6.029-3.463,10.049-5.771C258.623,136.774,259.863,137.476,262.346,138.878z"/>
					<path fill="#58448F" d="M267.488,135.925c-2.453,1.409-3.68,2.113-6.135,3.522c-2.48-1.402-3.723-2.104-6.203-3.507
						c2.453-1.409,3.682-2.113,6.135-3.522C263.768,133.82,265.008,134.521,267.488,135.925z"/>
					<path fill="#58448F" d="M177.775,198.734c-2.454,1.409-3.682,2.113-6.135,3.522c-2.481-1.402-3.723-2.104-6.203-3.506
						c2.453-1.409,3.681-2.114,6.135-3.523C174.054,196.63,175.295,197.331,177.775,198.734z"/>
					<path fill="#58448F" d="M186.832,193.533c-2.455,1.41-3.682,2.114-6.136,3.523c-2.481-1.402-3.722-2.104-6.203-3.506
						c2.454-1.41,3.681-2.114,6.136-3.523C183.109,191.43,184.351,192.131,186.832,193.533z"/>
					<path fill="#58448F" d="M195.889,188.333c-2.455,1.409-3.682,2.114-6.137,3.523c-2.48-1.402-3.721-2.104-6.203-3.507
						c2.455-1.409,3.682-2.114,6.137-3.523C192.166,186.229,193.407,186.931,195.889,188.333z"/>
					<path fill="#58448F" d="M250.23,157.128c-17.141,9.843-34.281,19.686-51.422,29.528c-2.48-1.403-3.721-2.104-6.203-3.507
						c17.141-9.843,34.281-19.686,51.422-29.528C246.508,155.024,247.748,155.726,250.23,157.128z"/>
					<path fill="#58448F" d="M259.287,151.928c-2.455,1.409-3.682,2.113-6.137,3.523c-2.48-1.403-3.721-2.104-6.203-3.507
						c2.455-1.409,3.682-2.114,6.137-3.523C255.564,149.823,256.805,150.525,259.287,151.928z"/>
					<path fill="#58448F" d="M268.344,146.727c-2.455,1.41-3.682,2.114-6.137,3.523c-2.48-1.402-3.721-2.104-6.203-3.506
						c2.455-1.41,3.682-2.114,6.137-3.523C264.621,144.623,265.861,145.324,268.344,146.727z"/>
					<path fill="#58448F" d="M277.398,141.526c-2.453,1.409-3.682,2.114-6.135,3.523c-2.48-1.402-3.723-2.104-6.203-3.507
						c2.455-1.409,3.682-2.113,6.135-3.522C273.678,139.423,274.918,140.124,277.398,141.526z"/>
				</g>
			</g>
			<polygon fill="#58448F" points="208.214,189.181 250.496,164.769 274.658,179.654 232.391,204.075 			"/>
		</g>
		<g>
			<g>
				<polygon fill="#806CB1" points="208.528,69.188 215.867,64.951 215.867,65.26 208.655,69.424 				"/>
			</g>
			<g>
				<polygon fill="#806CB1" points="202.9,72.746 202.758,72.52 205.611,70.872 205.475,71.26 				"/>
			</g>
			<g>
				<polygon fill="#806CB1" points="211.884,75.416 215.891,73.103 215.891,73.402 212.007,75.645 				"/>
			</g>
			<g enable-background="new    ">
				<g>
					<polygon fill="#8A8CC4" points="212.007,75.645 215.918,82.903 211.088,85.691 197.611,93.472 204.214,74.822 205.475,71.26 
						205.611,70.872 207.128,66.59 208.528,69.188 208.655,69.424 211.884,75.416 					"/>
				</g>
				<g>
					<polygon fill="#90CBEF" points="202.9,72.746 204.214,74.822 197.611,93.472 192.686,91.605 195.035,85.443 195.182,85.059 
						199.022,74.985 199.174,74.589 201.014,69.763 202.758,72.52 					"/>
				</g>
				<g>
					<polygon fill="#8A8CC4" points="187.66,89.701 192.686,91.605 197.611,93.472 190.383,97.645 177.754,104.937 185.989,92.075 
						187.421,89.839 187.539,89.655 					"/>
				</g>
				<g>
					<polygon fill="#806CB1" points="185.226,91.106 185.063,90.901 195.182,85.059 195.035,85.443 187.66,89.701 187.539,89.655 
						187.421,89.839 					"/>
				</g>
				<g>
					<polygon fill="#90CBEF" points="185.226,91.106 185.989,92.075 177.754,104.937 175.834,101.195 178.398,95.048 
						178.563,94.654 181.836,86.81 185.063,90.901 					"/>
				</g>
				<g>
					<polygon fill="#806CB1" points="173.985,97.596 173.867,97.365 178.563,94.654 178.398,95.048 					"/>
				</g>
				<g>
					<polygon fill="#806CB1" points="170.755,91.306 170.633,91.067 199.174,74.589 199.022,74.985 					"/>
				</g>
				<g>
					<polygon fill="#8A8CC4" points="173.985,97.596 175.834,101.195 177.754,104.937 173.168,107.585 161.243,114.47 
						166.709,96.774 167.887,92.962 168.002,92.586 169.283,88.439 170.633,91.067 170.755,91.306 173.867,97.365 					"/>
				</g>
				<g>
					<polygon fill="#806CB1" points="165.317,94.445 165.18,94.215 168.002,92.586 167.887,92.962 					"/>
				</g>
				<g>
					<polygon fill="#806CB1" points="161.321,87.757 215.842,56.279 215.844,56.587 161.459,87.986 					"/>
				</g>
				<g>
					<polygon fill="#806CB1" points="215.818,48.127 215.82,48.436 124.122,101.377 123.77,101.581 123.769,101.272 
						124.122,101.069 					"/>
				</g>
			</g>
			<g>
				<polygon fill="#806CB1" points="123.792,109.424 124.145,109.221 159.221,88.969 159.065,89.368 124.145,109.529 
					123.793,109.732 				"/>
			</g>
			<g>
				<polygon fill="#806CB1" points="151.692,102.312 151.525,102.099 154.827,100.193 154.67,100.592 				"/>
			</g>
			<g>
				<polygon fill="#806CB1" points="123.84,126.248 124.192,126.045 130.765,122.25 130.566,122.664 124.193,126.344 
					123.841,126.547 				"/>
			</g>
			<g enable-background="new    ">
				<g>
					<polygon fill="#8A8CC4" points="151.692,102.312 153.23,104.27 161.243,114.47 145.729,123.426 133.226,130.645 
						138.612,117.41 142.626,107.546 142.79,107.142 147.123,96.495 151.525,102.099 					"/>
				</g>
				<g>
					<polygon fill="#90CBEF" points="134.691,114.096 138.612,117.41 133.226,130.645 124.22,135.845 130.566,122.664 
						130.765,122.25 					"/>
				</g>
				<g>
					<polygon fill="#806CB1" points="123.817,118.097 124.169,117.893 142.79,107.142 142.626,107.546 124.17,118.201 
						123.818,118.404 					"/>
				</g>
			</g>
			<g>
				<polygon fill="#90CBEF" points="165.317,94.445 166.709,96.774 161.243,114.47 153.23,104.27 154.67,100.592 154.827,100.193 
					159.065,89.368 159.221,88.969 160.339,86.113 161.321,87.757 161.459,87.986 165.18,94.215 				"/>
			</g>
			<g>
				<polygon fill="#806CB1" points="215.793,38.944 215.795,39.243 123.744,92.388 123.743,92.089 				"/>
			</g>
			<g>
				<polygon fill="#806CB1" points="124.097,92.339 124.122,101.069 123.769,101.272 123.77,101.581 124.122,101.377 
					124.145,109.221 123.792,109.424 123.793,109.732 124.146,109.529 124.169,117.893 123.817,118.097 123.818,118.404 
					124.17,118.201 124.192,126.045 123.84,126.248 123.841,126.547 124.193,126.344 124.22,135.845 216.303,82.68 216.305,83.085 
					123.869,136.453 123.745,92.542 				"/>
			</g>
		</g>
		<path opacity="0.2" fill="#FEF9FB" d="M225.459,1.894L111.762,67.026c-2.476,1.418-4.005,4.05-4.012,6.902l-0.182,102.26
			l3.709-2.116c22.11-32.676,105.42-155.845,116.344-172.665C226.906,1.352,226.16,1.493,225.459,1.894z"/>
	</g>
</g>
</svg>
