<?xml version="1.0" encoding="utf-8"?>
<!-- Generator: Adobe Illustrator 16.0.0, SVG Export Plug-In . SVG Version: 6.00 Build 0)  -->
<!DOCTYPE svg PUBLIC "-//W3C//DTD SVG 1.1//EN" "http://www.w3.org/Graphics/SVG/1.1/DTD/svg11.dtd">
<svg version="1.1" id="Layer_1" xmlns="http://www.w3.org/2000/svg" xmlns:xlink="http://www.w3.org/1999/xlink" x="0px" y="0px"
	 width="320px" height="233px" viewBox="0 0 320 233" enable-background="new 0 0 320 233" xml:space="preserve">
<g>
	<path fill="#687BBC" d="M240.428,114.412c0.041-0.084,0.082-0.166,0.121-0.25c0.172,0.061,0.342,0.121,0.488,0.172
		c0.178,0.063,0.414,0.145,0.59,0.208c0.355,0.126,0.826,0.292,1.18,0.415c0.352,0.126,0.824,0.293,1.178,0.418
		c0.178,0.061,0.412,0.146,0.59,0.207c0.189,0.067,0.412,0.146,0.633,0.223l0,0l0,0c0.184,0.065,5.363,1.756,6.066,2.037
		l0.006-0.003l0.037,0.021c0.014,0.006,0.025,0.011,0.025,0.011l0.004,0.006l66.557,38.631l0.941,1.322l-0.932,2.401l-1.871,1.08
		l-66.623-38.669l-0.037-0.053c-1.809-1.577-3.756-3.678-5.561-5.24C242.689,116.369,241.559,115.392,240.428,114.412z"/>
	<g>
		<g>
			<g enable-background="new    ">
				<path fill="#342646" d="M241.705,113.005c0.174,0.06,0.344,0.12,0.49,0.172c0.176,0.063,0.412,0.146,0.588,0.208
					c0.355,0.125,0.826,0.291,1.18,0.416s0.826,0.291,1.18,0.416c0.176,0.062,0.412,0.145,0.588,0.207
					c0.191,0.068,0.414,0.146,0.635,0.225l-1.387,1.543c-1.131-0.979-2.262-1.957-3.391-2.938
					C241.625,113.171,241.668,113.088,241.705,113.005z"/>
				<path fill="#FDE2D7" d="M246.365,114.648c0.191,0.066,5.898,1.931,6.141,2.068c-0.127,0.225-0.219,0.251-0.604,0.465
					c-0.918,0.51-1.787,1.688-1.799,2.75c-0.006,0.465,0.277,1.365,0.508,1.566c-1.828-1.584-3.803-3.723-5.633-5.307
					C244.787,115.711,245.934,114.587,246.365,114.648z"/>
				<g>
					<path fill="#44406D" d="M250.104,119.932c-0.012,1.063,0.721,1.511,1.637,1c0.918-0.512,1.672-1.787,1.684-2.85
						c0.014-1.063-0.719-1.511-1.637-0.999C250.869,117.594,250.115,118.869,250.104,119.932z"/>
				</g>
			</g>
		</g>
		<g>
			<g enable-background="new    ">
				<g>
					<polygon fill="#DAAC34" points="316.26,158.833 249.637,120.164 250.574,121.484 317.197,160.154 					"/>
				</g>
				<g>
					<polygon fill="#DAAC34" points="317.188,156.432 250.564,117.764 249.637,120.164 316.26,158.833 					"/>
				</g>
				<g>
					<polygon fill="#FCCF4F" points="319.059,155.351 252.438,116.682 250.564,117.764 317.188,156.432 					"/>
				</g>
				<g>
					<polygon fill="#44406D" points="317.188,156.432 316.26,158.833 317.197,160.154 319.07,159.072 320,156.673 319.059,155.351 
											"/>
				</g>
			</g>
		</g>
	</g>
</g>
<g>
	<polygon opacity="0.8" fill="#687BBC" points="222.574,215.206 105.279,150.51 181.65,135.171 305.184,167.512 	"/>
	<g>
		<g>
			<path fill="#806CB1" d="M218.125,134.965c1.008-0.584,2.447-0.531,3.41,0.028c0.953,0.553,1.027,1.382,0.027,1.961
				c-1.002,0.578-2.439,0.534-3.396-0.022C217.213,136.379,217.102,135.554,218.125,134.965z M220.557,135.551
				c-0.525-0.307-1.164-0.336-1.576-0.099c-0.422,0.243-0.377,0.625,0.143,0.927c0.533,0.311,1.178,0.328,1.59,0.09
				C221.109,136.239,221.076,135.853,220.557,135.551"/>
		</g>
		<g enable-background="new    ">
			<g>
				<path fill="#FEF9FB" d="M219.123,136.379c0.533,0.311,1.178,0.328,1.59,0.09c0.396-0.229,0.363-0.616-0.156-0.918
					c-0.525-0.307-1.164-0.336-1.576-0.099C218.559,135.695,218.604,136.077,219.123,136.379z"/>
			</g>
			<g>
				<polygon fill="#806CB1" points="214.303,137.246 213.266,137.845 224.654,139.031 225.691,138.432 				"/>
			</g>
			<g>
				<path fill="#FEF9FB" d="M219.893,139.915c-0.533-0.311-1.17-0.341-1.604-0.089c-0.398,0.229-0.363,0.616,0.162,0.922
					c0.527,0.306,1.158,0.331,1.576,0.09C220.455,140.592,220.412,140.217,219.893,139.915z"/>
			</g>
			<g>
				<path fill="#806CB1" d="M211.104,142.661l-1.936,1.117c2.697,1.569,6.295,2.44,10.133,2.436
					c3.838,0.005,7.438-0.863,10.162-2.436c2.723-1.571,4.232-3.654,4.236-5.878c0.021-2.223-1.465-4.305-4.172-5.877
					c-2.697-1.568-6.295-2.44-10.133-2.436c-3.83,0-7.438,0.862-10.162,2.436l1.924,1.117c2.201-1.271,5.127-1.969,8.23-1.973
					c3.104,0.004,6.02,0.701,8.207,1.973c2.186,1.271,3.379,2.962,3.375,4.76c-0.016,1.798-1.229,3.489-3.43,4.761
					c-2.199,1.271-5.127,1.968-8.229,1.973C216.207,144.629,213.289,143.932,211.104,142.661z"/>
			</g>
			<g>
				<polygon fill="#806CB1" points="117.217,147.251 122.234,150.166 192.947,109.34 187.93,106.424 				"/>
			</g>
			<g>
				<path fill="#FEF9FB" d="M195.314,150.123c0.535,0.312,1.172,0.333,1.586,0.094c0.404-0.232,0.369-0.62-0.15-0.921
					c-0.525-0.308-1.164-0.337-1.576-0.099C194.746,149.444,194.795,149.821,195.314,150.123z"/>
			</g>
			<g>
				<path fill="#FEF9FB" d="M187.209,156.456c-2.27-1.317-3.461-3.068-3.379-4.931c0.092-1.729,1.305-3.36,3.432-4.59
					c2.201-1.27,5.125-1.967,8.229-1.972c3.105,0.005,6.021,0.702,8.207,1.972c2.188,1.271,3.381,2.963,3.377,4.762
					c-0.018,1.798-1.229,3.488-3.43,4.759c-2.201,1.271-5.125,1.969-8.229,1.973C192.305,158.429,189.395,157.728,187.209,156.456z"
					/>
			</g>
			<g>
				<path fill="#FEF9FB" d="M196.088,153.66c-0.535-0.312-1.172-0.339-1.605-0.09c-0.406,0.234-0.363,0.617,0.162,0.923
					s1.158,0.331,1.576,0.09C196.641,154.34,196.607,153.961,196.088,153.66z"/>
			</g>
			<g>
				<polygon fill="#806CB1" points="131.479,155.538 133.804,156.89 204.518,116.063 202.191,114.713 				"/>
			</g>
			<g>
				<polygon fill="#806CB1" points="136.496,158.454 138.829,159.81 209.541,118.982 207.209,117.627 				"/>
			</g>
			<g>
				<path fill="#806CB1" d="M185.338,145.818l1.924,1.117c-2.127,1.229-3.34,2.86-3.432,4.59c-0.082,1.862,1.109,3.613,3.379,4.931
					c-2.27-1.317-3.461-3.068-3.379-4.931c0.092-1.729,1.305-3.36,3.432-4.59c2.201-1.27,5.125-1.967,8.229-1.972
					c3.105,0.005,6.021,0.702,8.207,1.972c2.188,1.272,3.381,2.963,3.377,4.762c-0.018,1.798-1.229,3.488-3.43,4.759l1.924,1.118
					c-2.725,1.573-6.324,2.439-10.162,2.437c-3.838,0.003-7.443-0.863-10.141-2.432c2.697,1.568,6.303,2.435,10.141,2.432
					c3.838,0.003,7.438-0.863,10.162-2.437c2.715-1.567,4.232-3.655,4.236-5.877c0.012-2.219-1.465-4.306-4.172-5.879
					c-2.697-1.568-6.303-2.436-10.133-2.436S188.055,144.25,185.338,145.818z"/>
			</g>
			<g>
				<path fill="#90CBEF" d="M185.338,145.818c-2.621,1.513-4.129,3.527-4.236,5.665c-0.115,2.304,1.361,4.469,4.164,6.096
					c2.697,1.568,6.303,2.435,10.141,2.432c3.838,0.003,7.438-0.863,10.162-2.437l-1.924-1.118
					c-2.201,1.271-5.127,1.969-8.229,1.973c-3.111,0-6.021-0.701-8.207-1.973c-2.27-1.317-3.461-3.068-3.379-4.931
					c0.092-1.729,1.305-3.36,3.432-4.59L185.338,145.818z"/>
			</g>
			<g>
				<polygon fill="#806CB1" points="141.52,161.375 143.846,162.725 214.559,121.898 212.232,120.548 				"/>
			</g>
			<g>
				<path fill="#FEF9FB" d="M171.509,163.868c0.533,0.312,1.172,0.331,1.584,0.094c0.404-0.233,0.363-0.617-0.156-0.917
					c-0.527-0.307-1.164-0.336-1.578-0.099C170.94,163.189,170.989,163.566,171.509,163.868z"/>
			</g>
			<g>
				<path fill="#FEF9FB" d="M163.313,170.252c-2.267-1.317-3.46-3.068-3.377-4.93c0.091-1.729,1.303-3.361,3.43-4.59
					c2.201-1.271,5.125-1.968,8.229-1.973c3.105,0.005,6.021,0.701,8.208,1.973c2.188,1.271,3.381,2.961,3.377,4.76
					c-0.016,1.798-1.23,3.489-3.43,4.76c-2.202,1.271-5.134,1.972-8.229,1.972C168.409,172.224,165.499,171.523,163.313,170.252z"/>
			</g>
			<g>
				<path fill="#FEF9FB" d="M172.274,167.409c-0.535-0.311-1.172-0.34-1.6-0.095c-0.406,0.235-0.371,0.622,0.156,0.927
					c0.525,0.307,1.158,0.333,1.584,0.086C172.835,168.084,172.792,167.711,172.274,167.409z"/>
			</g>
			<g>
				<polygon fill="#90CBEF" points="259.838,155.709 283.131,169.245 289.691,165.46 266.396,151.922 				"/>
			</g>
			<g>
				<path fill="#806CB1" d="M161.443,159.614l1.923,1.118c-2.127,1.229-3.339,2.86-3.43,4.59c-0.083,1.861,1.111,3.612,3.377,4.93
					c-2.267-1.317-3.46-3.068-3.377-4.93c0.091-1.729,1.303-3.361,3.43-4.59c2.201-1.271,5.125-1.968,8.229-1.973
					c3.105,0.005,6.021,0.701,8.208,1.973l1.936-1.118c-2.697-1.568-6.304-2.436-10.134-2.436S164.159,158.046,161.443,159.614z"/>
			</g>
			<g>
				<polygon fill="#F0668F" points="263.945,166.657 275.74,173.514 282.301,169.727 270.504,162.87 				"/>
			</g>
			<g>
				<polygon fill="#90CBEF" points="252.037,176.861 260.959,182.047 267.52,178.261 258.596,173.074 				"/>
			</g>
			<g>
				<polygon fill="#806CB1" points="184.041,186.084 186.365,187.436 257.08,146.609 254.752,145.258 				"/>
			</g>
			<g>
				<polygon fill="#806CB1" points="190.645,189.923 192.971,191.272 263.682,150.447 261.357,149.096 				"/>
			</g>
			<g>
				<polygon fill="#806CB1" points="203.869,193.301 206.195,194.651 239.432,175.463 237.105,174.111 				"/>
			</g>
			<g>
				<polygon fill="#806CB1" points="209.42,196.526 211.746,197.879 244.984,178.69 242.656,177.338 				"/>
			</g>
			<g>
				<polygon fill="#806CB1" points="214.963,199.748 217.291,201.1 250.527,181.91 248.199,180.558 				"/>
			</g>
			<g>
				<polygon fill="#806CB1" points="219.719,202.511 222.043,203.863 255.279,184.674 252.955,183.321 				"/>
			</g>
			<g>
				<path fill="#FEF9FB" d="M305.184,167.512l-82.609,47.694L106.37,147.675l82.608-47.693L305.184,167.512z M205.633,145.818
					c-2.697-1.568-6.303-2.436-10.133-2.436s-7.445,0.867-10.162,2.436c-2.621,1.513-4.129,3.527-4.236,5.665
					c-0.115,2.304,1.361,4.467,4.164,6.096c2.697,1.568,6.303,2.435,10.141,2.432c3.838,0.003,7.438-0.863,10.162-2.437
					c2.715-1.567,4.232-3.655,4.236-5.877C209.816,149.479,208.34,147.392,205.633,145.818 M181.738,159.614
					c-2.697-1.568-6.304-2.436-10.134-2.436s-7.445,0.867-10.161,2.436c-2.627,1.518-4.129,3.528-4.236,5.665
					c-0.115,2.304,1.362,4.468,4.162,6.095c2.706,1.572,6.304,2.437,10.142,2.432c3.838,0.005,7.438-0.863,10.161-2.436
					c2.717-1.569,4.232-3.654,4.238-5.878C185.924,163.273,184.445,161.188,181.738,159.614 M229.527,132.023
					c-2.697-1.568-6.295-2.44-10.133-2.436c-3.83,0-7.438,0.862-10.162,2.436c-2.621,1.513-4.127,3.527-4.236,5.664
					c-0.115,2.305,1.369,4.463,4.172,6.091c2.697,1.569,6.295,2.44,10.133,2.436c3.838,0.005,7.438-0.863,10.162-2.436
					c2.723-1.571,4.232-3.654,4.236-5.878C233.721,135.678,232.234,133.596,229.527,132.023 M122.234,150.166l70.713-40.826
					l-5.018-2.916l-70.713,40.827L122.234,150.166 M138.829,159.81l70.712-40.827l-2.332-1.355l-70.713,40.827L138.829,159.81
					 M128.787,153.975l70.713-40.827l-2.326-1.351l-70.712,40.825L128.787,153.975 M133.804,156.89l70.713-40.826l-2.326-1.351
					l-70.713,40.825L133.804,156.89 M143.846,162.725l70.713-40.826l-2.326-1.351l-70.713,40.827L143.846,162.725 M192.971,191.272
					l70.711-40.825l-2.324-1.352l-70.713,40.827L192.971,191.272 M186.365,187.436l70.715-40.826l-2.328-1.352l-70.711,40.826
					L186.365,187.436 M179.236,183.292l70.711-40.827l-2.324-1.351l-70.714,40.826L179.236,183.292 M283.131,169.245l6.561-3.787
					l-23.295-13.536l-6.559,3.787L283.131,169.245 M268.352,177.779l6.557-3.786l-17.545-10.195l-6.559,3.785L268.352,177.779
					 M275.74,173.514l6.561-3.787l-11.797-6.856l-6.559,3.787L275.74,173.514 M211.746,197.879l33.238-19.188l-2.328-1.353
					l-33.236,19.188L211.746,197.879 M206.195,194.651l33.236-19.188l-2.326-1.352l-33.236,19.189L206.195,194.651 M217.291,201.1
					l33.236-19.189l-2.328-1.353l-33.236,19.19L217.291,201.1 M222.043,203.863l33.236-19.189l-2.324-1.353l-33.236,19.189
					L222.043,203.863 M260.959,182.047l6.559-3.787l-8.922-5.186l-6.559,3.787L260.959,182.047"/>
			</g>
			<g>
				<path fill="#F0668F" d="M209.232,132.023c-2.621,1.513-4.127,3.527-4.236,5.664c-0.115,2.305,1.369,4.464,4.172,6.091
					l1.936-1.117c-2.268-1.317-3.461-3.068-3.369-4.935c0.09-1.729,1.303-3.361,3.422-4.586L209.232,132.023z"/>
			</g>
			<g>
				<path fill="#FEF9FB" d="M230.969,137.9c0.004-1.797-1.189-3.489-3.375-4.76c-2.188-1.271-5.104-1.969-8.207-1.973
					c-3.104,0.004-6.029,0.701-8.23,1.973c-2.119,1.225-3.332,2.856-3.422,4.586c-0.092,1.866,1.102,3.617,3.369,4.935
					c2.186,1.271,5.104,1.968,8.207,1.973c3.102-0.005,6.029-0.702,8.229-1.973C229.74,141.391,230.953,139.698,230.969,137.9z"/>
			</g>
			<g>
				<polygon fill="#806CB1" points="126.461,152.622 128.787,153.975 199.5,113.147 197.174,111.797 				"/>
			</g>
			<g>
				<path fill="#90CBEF" d="M161.443,159.614c-2.627,1.518-4.129,3.528-4.236,5.665c-0.115,2.304,1.362,4.468,4.162,6.095
					c2.706,1.572,6.304,2.437,10.142,2.432c3.838,0.005,7.438-0.863,10.161-2.436c2.717-1.569,4.232-3.654,4.238-5.878
					c0.014-2.219-1.465-4.305-4.172-5.878l-1.936,1.118c2.188,1.271,3.381,2.961,3.377,4.76c-0.016,1.798-1.23,3.489-3.43,4.76
					c-2.202,1.271-5.134,1.972-8.229,1.972c-3.111,0-6.021-0.7-8.207-1.972c-2.267-1.317-3.46-3.068-3.377-4.93
					c0.091-1.729,1.303-3.361,3.43-4.59L161.443,159.614z"/>
			</g>
			<g>
				<polygon fill="#90CBEF" points="250.805,167.583 268.352,177.779 274.908,173.993 257.363,163.798 				"/>
			</g>
			<g>
				<polygon fill="#806CB1" points="176.909,181.94 179.236,183.292 249.947,142.465 247.623,141.114 				"/>
			</g>
		</g>
	</g>
</g>
<g>
	<path opacity="0.8" fill="#687BBC" d="M265.313,211.555c-0.738,0.69-33.676,21.445-33.676,21.445s-42.449-24.744-40.986-24.304
		S265.313,211.555,265.313,211.555z"/>
	<polygon fill="#FCCF4F" points="265.313,211.555 225.475,188.576 190.65,208.696 225.652,228.903 235.439,228.803 	"/>
	<polygon fill="#B89255" points="230.465,223.153 235.439,228.803 225.652,228.903 	"/>
</g>
<g>
	<ellipse opacity="0.5" fill="#687BBC" cx="33.679" cy="218.521" rx="30.356" ry="12.455"/>
	<g>
		<g>
			<g>
				<path fill="#FEF9FB" d="M49.935,177.867l-24.755,8.314v31.152c0,6.307,8.392,11.418,18.744,11.418
					c10.352,0,18.744-5.111,18.744-11.418v-31.152L49.935,177.867z"/>
				<ellipse fill="#D1B9DA" cx="43.924" cy="186.182" rx="18.744" ry="11.418"/>
				<path fill="#762A3A" d="M27.966,192.172c3.302,3.258,9.212,5.428,15.957,5.428s12.655-2.17,15.957-5.428
					c0.229-0.66,0.35-1.348,0.35-2.049c0-5.486-7.301-9.934-16.307-9.934s-16.307,4.447-16.307,9.934
					C27.617,190.824,27.738,191.512,27.966,192.172z"/>
			</g>
			<path fill="#BCBACE" d="M43.923,176.078c9.448,0,17.431,4.627,17.431,10.104c0,5.479-7.982,10.105-17.431,10.105
				s-17.431-4.627-17.431-10.105C26.493,180.705,34.475,176.078,43.923,176.078 M43.923,174.764
				c-10.352,0-18.744,5.113-18.744,11.418c0,6.307,8.392,11.418,18.744,11.418c10.352,0,18.744-5.111,18.744-11.418
				C62.667,179.877,54.275,174.764,43.923,174.764L43.923,174.764z"/>
		</g>
		<path fill="#1C695B" d="M59.855,133.576c-1.568,3.334-1.59,7.159-1.582,10.844c0.01,4.14,0.02,8.279,0.029,12.42
			c0.01,4.714,0.012,9.5-1.271,14.036c-1.284,4.536-4.045,8.87-8.268,10.966c-2.092,1.039-4.722,1.441-6.7,0.201
			c-0.876-0.551-1.547-1.375-2.104-2.248c-4.759-7.459-0.357-17.48,3.064-24.643C46.987,146.858,52.744,139.412,59.855,133.576z"/>
		<path fill="#419682" d="M24.27,167.621c-1.175-15.465-0.382-31.222-4.175-46.26c10.333,12.569,15.37,29.359,13.662,45.541
			c3.425-10.689,6.885-21.598,6.822-32.822c-0.03-5.365,3.271-18.029,3.271-18.029s1.943,12.116,3.729,18.003
			c1.219,4.02,1.466,8.26,1.706,12.452c0.35,6.117,0.699,12.235,1.048,18.353c5.089-15.382,18.714-36.58,18.714-36.58
			s-5.016,40.416-7.676,49.662c-3.017,10.49-12.834,17.623-24.08,15.143C27.061,190.826,24.916,176.119,24.27,167.621z"/>
		<path fill="#4EAF9D" d="M32.254,182.863c-2.14-5.879-0.151-12.34,1.184-18.452c1.592-7.286,2.223-14.908,0.6-22.187
			c5.381,11.362,10.118,23.03,14.18,34.93c1.05,3.076,2.059,6.422,1.061,9.516c-0.94,2.916-6.212,8.068-9.709,7.207
			C36.819,193.197,33.193,185.441,32.254,182.863z"/>
	</g>
</g>
</svg>
