<svg xmlns="http://www.w3.org/2000/svg" viewBox="0 0 63 58.07"><defs><style>.cls-1{fill:#fff;}</style></defs><title>Asset 3</title><g id="Layer_2" data-name="Layer 2"><g id="Layer_1-2" data-name="Layer 1"><path class="cls-1" d="M58.13,9.86H45.25V7.72A7.73,7.73,0,0,0,37.53,0H25.47a7.73,7.73,0,0,0-7.72,7.72V9.86H4.87A4.88,4.88,0,0,0,0,14.73V53.2a4.88,4.88,0,0,0,4.87,4.87H58.13A4.88,4.88,0,0,0,63,53.2V14.73A4.88,4.88,0,0,0,58.13,9.86ZM19.6,7.72a5.88,5.88,0,0,1,5.87-5.87H37.53A5.88,5.88,0,0,1,43.4,7.72V9.86H41.3V7.72a3.78,3.78,0,0,0-3.77-3.77H25.47A3.78,3.78,0,0,0,21.7,7.72V9.86H19.6ZM39.45,9.86H23.55V7.72a1.93,1.93,0,0,1,1.92-1.92H37.53a1.93,1.93,0,0,1,1.92,1.92ZM58.13,56.22H4.87a3,3,0,0,1-3-3v-13a4.84,4.84,0,0,0,3,1.05h5v4a2.9,2.9,0,0,0,5.79,0V35.45a2.9,2.9,0,0,0-5.79,0v4h-5a3,3,0,0,1-3-3V14.73a3,3,0,0,1,3-3H58.13a3,3,0,0,1,3,3v21.7a3,3,0,0,1-3,3h-3a.92.92,0,1,0,0,1.85h3a4.84,4.84,0,0,0,3-1.05v13A3,3,0,0,1,58.13,56.22ZM11.71,43.08a2.89,2.89,0,0,0,2.1,0v2.23a1,1,0,0,1-2.1,0Zm2.1-2.7a1,1,0,0,1-2.1,0V35.45a1,1,0,1,1,2.1,0Z"/><path class="cls-1" d="M49.25,32.55a2.9,2.9,0,0,0-2.9,2.9v4H18.68a.92.92,0,0,0,0,1.85H46.36v4a2.9,2.9,0,0,0,5.79,0V35.45A2.9,2.9,0,0,0,49.25,32.55Zm-1,2.9a1,1,0,1,1,2.1,0v4.93a1,1,0,0,1-2.1,0Zm1,10.91a1,1,0,0,1-1-1V43.08a2.89,2.89,0,0,0,2.1,0v2.23A1,1,0,0,1,49.25,46.36Z"/><path class="cls-1" d="M25.58,37.36H37.42a.92.92,0,0,0,0-1.85H25.58a.92.92,0,0,0,0,1.85Z"/></g></g></svg>