<svg xmlns="http://www.w3.org/2000/svg" viewBox="0 0 62 64.22"><defs><style>.cls-1{fill:#fff;}</style></defs><title>Asset 1</title><g id="Layer_2" data-name="Layer 2"><g id="Layer_1-2" data-name="Layer 1"><path class="cls-1" d="M41,0A21,21,0,0,0,22,30H7.85L7,27.65a3.27,3.27,0,0,0-3.06-2.13H1A1,1,0,1,0,1,27.6H3.93A1.18,1.18,0,0,1,5,28.37l9,24.17A7.65,7.65,0,0,0,15.5,55l-1.1,1.1a4.37,4.37,0,1,0,1.47,1.47l1.22-1.22a7.68,7.68,0,0,0,4.11,1.2H38.38a4.37,4.37,0,1,0,3.72-2.08H21.21a5.64,5.64,0,0,1-5.27-3.67l-.34-.91H42.1a5.49,5.49,0,0,0,5.48-5.48V41A21.19,21.19,0,0,0,57.7,33.75,20.82,20.82,0,0,0,62,21,21,21,0,0,0,41,0Zm3.4,59.85a2.29,2.29,0,1,1-2.29-2.29A2.29,2.29,0,0,1,44.38,59.85ZM57.68,30H51a37.88,37.88,0,0,0,1-7.91h7.89A18.71,18.71,0,0,1,57.68,30ZM47.57,32h.64q-.3.86-.64,1.65Zm-1-2.08H42V22.05h7.89A35.49,35.49,0,0,1,48.85,30Zm-13.4,0a35.53,35.53,0,0,1-1.07-7.91h7.89V30H33.13Zm-11-10a18.8,18.8,0,0,1,2.22-7.91H31A37.84,37.84,0,0,0,30,20H22.08Zm11.06-7.91h6.81V20H32.05A35.37,35.37,0,0,1,33.14,12.07ZM42,10V2.22c2.51.65,4.73,3.59,6.18,7.77Zm6.81,2.08A35.37,35.37,0,0,1,49.92,20H42V12.07ZM39.95,2.22V10H33.77C35.22,5.8,37.44,2.86,39.95,2.22ZM52,20a37.84,37.84,0,0,0-1-7.91h6.67A18.8,18.8,0,0,1,59.89,20Zm4.37-10H50.42a19.69,19.69,0,0,0-3.71-7A19,19,0,0,1,56.37,10ZM35.26,3a19.69,19.69,0,0,0-3.71,7H25.61A19,19,0,0,1,35.26,3ZM22.08,22.05H30A38,38,0,0,0,31,30H24.3a18.93,18.93,0,0,1-2.21-7.91ZM12.14,62.14a2.29,2.29,0,1,1,2.29-2.29A2.29,2.29,0,0,1,12.14,62.14ZM45.49,45.43a3.4,3.4,0,0,1-3.4,3.4H14.83L8.62,32H45.49Zm2.08-6.66V38A21.53,21.53,0,0,0,50.4,32h6l-.33.45a19.11,19.11,0,0,1-8.47,6.27Z"/><path class="cls-1" d="M31,46.47a1,1,0,0,0,1-1v-10a1,1,0,0,0-2.08,0v10A1,1,0,0,0,31,46.47Z"/><path class="cls-1" d="M35.44,46.47a1,1,0,0,0,1-1v-10a1,1,0,0,0-2.08,0v10A1,1,0,0,0,35.44,46.47Z"/><path class="cls-1" d="M39.88,46.47a1,1,0,0,0,1-1v-10a1,1,0,0,0-2.08,0v10A1,1,0,0,0,39.88,46.47Z"/><path class="cls-1" d="M17.68,34.4a1,1,0,0,0-1,1v10a1,1,0,1,0,2.08,0v-10A1,1,0,0,0,17.68,34.4Z"/><path class="cls-1" d="M22.12,34.4a1,1,0,0,0-1,1v10a1,1,0,1,0,2.08,0v-10A1,1,0,0,0,22.12,34.4Z"/><path class="cls-1" d="M26.56,46.47a1,1,0,0,0,1-1v-10a1,1,0,0,0-2.08,0v10A1,1,0,0,0,26.56,46.47Z"/></g></g></svg>