<?xml version="1.0" encoding="utf-8"?>
<!-- Generator: Adobe Illustrator 19.1.0, SVG Export Plug-In . SVG Version: 6.00 Build 0)  -->
<svg version="1.1" id="Layer_1" xmlns="http://www.w3.org/2000/svg" xmlns:xlink="http://www.w3.org/1999/xlink" x="0px" y="0px"
	 viewBox="0 0 60 60" style="enable-background:new 0 0 60 60;" xml:space="preserve">
<style type="text/css">
	.st0{clip-path:url(#SVGID_2_);fill:#444B54;}
	.st1{clip-path:url(#SVGID_2_);fill:#4995EC;}
	.st2{clip-path:url(#SVGID_2_);fill:#61B63D;}
</style>
<g>
	<defs>
		<rect id="SVGID_1_" width="60" height="60"/>
	</defs>
	<clipPath id="SVGID_2_">
		<use xlink:href="#SVGID_1_"  style="overflow:visible;"/>
	</clipPath>
	<path class="st0" d="M53.3,50.4l-1-0.4c5-5.5,7.7-12.6,7.7-20c0-6.1-1.8-12-5.2-16.9c0-0.1-0.1-0.2-0.2-0.2
		c-1.5-2.1-3.2-4.1-5.2-5.8c-0.4-0.3-1-0.3-1.3,0.1c-0.3,0.4-0.3,1,0.1,1.3c1.6,1.4,3,2.9,4.3,4.6c-2,0.8-4.4,1.4-7.1,2
		c-0.7-2.2-1.7-4.3-2.7-6.1c-1.4-2.5-3.1-4.5-4.9-6c2.8,0.8,5.5,2.1,8,3.7c0.4,0.3,1,0.2,1.3-0.3c0.3-0.4,0.2-1-0.3-1.3
		C41.8,1.8,36,0,30,0C22,0,14.5,3.1,8.8,8.8C3.1,14.5,0,22,0,30c0,7.5,2.7,14.5,7.7,20.1l-1,0.4c-0.4,0.1-3.4,1.3-3.4,5.2v3.4
		c0,0.5,0.4,0.9,0.9,0.9h5.4h0.8h1h4.8h1.8c0,0,0.1,0,0.1,0c0,0,0.1,0,0.1,0h6.8h1.1h2.8h4.5h7.9h1.2h0.8h1h4.8h6.3
		c0.5,0,0.9-0.4,0.9-1v-3.4C56.7,51.8,53.7,50.6,53.3,50.4 M50.4,49.3l-0.9-0.4v-0.5c1-0.6,1.8-1.6,2.2-2.7c1.4-0.1,2.5-1.3,2.5-2.7
		c0-0.8-0.4-1.6-1-2.1v-1.7c0-3.2-2.4-5.9-5.6-6.3c0-0.6,0.1-1.3,0.1-1.9h10.4C57.9,37.8,55.2,44.3,50.4,49.3 M47,47.2h-0.9
		c-1.7,0-3-1.4-3-3v-2.5c1.2-0.1,3.4-0.6,5.1-2c0.4,0.6,1,1.3,1.8,1.8v2.7C50.1,45.8,48.7,47.2,47,47.2 M47.6,49v0.5l-1.1,1.1l-1-1
		V49c0.2,0,0.4,0,0.6,0H47C47.2,49.1,47.4,49,47.6,49 M42.2,39.8L42.2,39.8c0,0-0.1,0-0.1,0c0,0,0,0,0,0c0,0,0,0-0.1,0c0,0,0,0,0,0
		c0,0,0,0,0,0c0,0,0,0,0,0v-0.6c0-2.5,2-4.5,4.5-4.5h0.5c2.5,0,4.5,2,4.5,4.5v0.6c0,0,0,0-0.1,0c0,0,0,0,0,0
		c-1.3-0.3-1.8-2.1-1.8-2.1c-0.1-0.4-0.4-0.6-0.7-0.7c-0.4-0.1-0.7,0.1-1,0.4C46.1,39.8,42.2,39.8,42.2,39.8 M52,43.6v-1.3
		c0.2,0.1,0.3,0.4,0.3,0.6C52.3,43.2,52.2,43.5,52,43.6 M53.6,14.7c2.7,4.2,4.3,9.2,4.5,14.3H47.7c-0.1-4.3-0.7-8.4-1.7-12.1
		C48.9,16.4,51.5,15.6,53.6,14.7 M45.8,29.1h-9.7c0,0,0,0,0,0c-1.3-1.4-3.1-2.4-5.1-2.5v-8.1c4.6,0,9.1-0.4,13.1-1.1
		C45.1,20.9,45.7,24.9,45.8,29.1 M37.4,38.9c0,0.6-0.4,1-0.9,1.2v-2.3C37.1,37.9,37.4,38.4,37.4,38.9 M30.9,1.9L30.9,1.9
		c3.8,0.4,7.3,3.2,10.1,8c1,1.7,1.8,3.5,2.5,5.5c-3.8,0.6-8.1,1-12.6,1V1.9z M30.3,28.4c3.2,0,5.9,2.6,5.9,5.9v1.2c0,0,0,0,0,0
		c0,0,0,0,0,0c0,0,0,0,0,0c0,0,0,0,0,0c0,0,0,0,0,0c0,0,0,0,0,0c0,0,0,0-0.1,0c0,0,0,0,0,0c0,0,0,0-0.1,0c0,0,0,0,0,0
		c-1.8-0.4-2.4-2.8-2.4-2.8c-0.1-0.4-0.4-0.6-0.7-0.7c-0.4-0.1-0.7,0.1-1,0.4c-2.2,3.1-7.1,3.1-7.2,3.1h0h0c0,0-0.1,0-0.1,0
		c0,0,0,0,0,0c0,0,0,0-0.1,0c0,0,0,0,0,0c0,0,0,0,0,0c0,0,0,0,0,0c0,0,0,0,0,0c0,0,0,0-0.1,0c0,0,0,0,0,0c0,0,0,0,0,0c0,0,0,0,0,0
		c0,0,0,0,0,0c0,0,0,0,0,0c0,0,0,0,0,0v-1.2c0-3.2,2.6-5.9,5.9-5.9H30.3z M30.6,44.4h-1.1c-2.2,0-4-1.8-4-4V37
		c1.5-0.1,4.5-0.7,6.7-2.6c0.5,0.9,1.2,1.9,2.5,2.4v3.6C34.7,42.6,32.8,44.4,30.6,44.4 M31.6,46.2v1v0v0.1L30,48.9l-1.5-1.4v-1.2
		c0.3,0.1,0.6,0.1,1,0.1h1.1C30.9,46.3,31.3,46.3,31.6,46.2 M14.2,29.1L14.2,29.1c0.1-4.2,0.7-8.2,1.7-11.8c4,0.7,8.5,1.1,13.1,1.1
		v8.2c-2,0.2-3.8,1.1-5,2.5c0,0-0.1,0-0.1,0H14.2z M23.6,37.8v2.4c-0.5-0.1-0.9-0.6-0.9-1.2C22.7,38.4,23.1,37.9,23.6,37.8
		 M29.1,1.9v14.5c-4.4,0-8.7-0.4-12.6-1c0.7-2,1.5-3.8,2.5-5.5C21.7,5.1,25.3,2.4,29.1,1.9 M22.2,3c-1.8,1.5-3.5,3.5-4.9,6
		c-1.1,1.9-2,3.9-2.7,6.1c-2.7-0.5-5.1-1.2-7.1-2C11.2,8.3,16.3,4.7,22.2,3 M6.4,14.7c2.1,0.9,4.7,1.6,7.6,2.2
		c-1.1,3.7-1.7,7.9-1.7,12.1H1.9C2.1,23.8,3.7,18.9,6.4,14.7 M14,47.2h-0.9c-1.7,0-3-1.4-3-3v-2.5c1.2-0.1,3.4-0.6,5.1-2
		c0.4,0.6,1,1.3,1.8,1.8v2.7C17,45.8,15.6,47.2,14,47.2 M14.6,49v0.5l-1.1,1.1l-1-1V49c0.2,0,0.4,0,0.6,0H14
		C14.2,49.1,14.4,49,14.6,49 M16.4,37.7c-0.1-0.4-0.4-0.6-0.7-0.7c-0.4-0.1-0.7,0.1-1,0.4c-1.7,2.4-5.5,2.4-5.6,2.4h0
		c0,0-0.1,0-0.1,0c0,0,0,0,0,0c0,0,0,0-0.1,0c0,0,0,0,0,0c0,0,0,0,0,0c0,0,0,0,0,0v-0.6c0-2.5,2-4.5,4.5-4.5h0.5
		c2.5,0,4.5,2,4.5,4.5v0.6c0,0,0,0-0.1,0c0,0,0,0,0,0C16.8,39.5,16.4,37.7,16.4,37.7 M1.9,30.9h10.4c0,0.7,0,1.3,0.1,2
		c-3.1,0.4-5.5,3.1-5.5,6.3v1.7c-0.6,0.5-1,1.2-1,2.1c0,1.4,1.1,2.6,2.5,2.7c0.4,1.2,1.2,2.1,2.2,2.7v0.5l-1,0.4
		C4.8,44.3,2.1,37.8,1.9,30.9 M8.2,42.3v1.3C8,43.5,7.8,43.3,7.8,43C7.8,42.7,8,42.5,8.2,42.3 M17.5,54.8v3.3h-1.1h-4.8h-1H9.7H5.2
		v-2.4c0-2.6,2.1-3.4,2.1-3.4c0,0,0,0,0,0l3.6-1.4l1.9,1.8c0.2,0.2,0.4,0.3,0.7,0.3c0,0,0,0,0,0c0.3,0,0.5-0.1,0.7-0.3l1.8-1.9
		l2.2,0.9C17.8,52.5,17.5,53.6,17.5,54.8 M16.5,48.9v-0.5c1-0.6,1.8-1.6,2.2-2.7c1.4-0.1,2.5-1.3,2.5-2.7c0-0.8-0.4-1.6-1-2.1v-1.7
		c0-3.3-2.6-6.1-5.9-6.4c0-0.6-0.1-1.3-0.1-1.9h8.6c-0.5,1-0.7,2.1-0.7,3.3v2.2c-0.8,0.6-1.2,1.5-1.2,2.5c0,1.7,1.4,3.1,3.1,3.1
		c0.4,1.5,1.5,2.8,2.8,3.5v1l-5,2c-0.6,0.2-1.5,0.7-2.3,1.6L16.5,48.9z M18.9,43.6v-1.3c0.2,0.1,0.3,0.4,0.3,0.6
		C19.2,43.2,19.1,43.5,18.9,43.6 M40.6,58.1h-6.9h-4.5h-2.8h-1.1h-5.9v-3.3c0-3.5,2.7-4.5,2.8-4.5c0,0,0,0,0,0l4.6-1.8c0,0,0,0,0,0
		l2.5,2.4c0.2,0.2,0.4,0.3,0.7,0.3c0,0,0,0,0,0c0.3,0,0.5-0.1,0.7-0.3l2.4-2.4l4.6,1.8c0,0,0,0,0,0c0.1,0,2.9,1,2.9,4.5V58.1z
		 M40.7,50.1c-0.8-0.8-1.7-1.4-2.3-1.6l-4.9-2v-1c1.3-0.7,2.4-2,2.8-3.5c1.7,0,3-1.4,3-3.1c0-1-0.5-1.9-1.2-2.5v-2.2
		c0-1.2-0.3-2.3-0.7-3.3h8.4c0,0.6,0,1.3-0.1,1.9c-3.2,0.3-5.8,3-5.8,6.4v1.7c-0.6,0.5-1,1.2-1,2.1c0,1.4,1.1,2.6,2.5,2.7
		c0.4,1.2,1.2,2.1,2.2,2.7v0.5L40.7,50.1z M41.2,42.3v1.3c-0.2-0.1-0.4-0.4-0.4-0.7C40.9,42.7,41,42.5,41.2,42.3 M54.8,58.1
		L54.8,58.1h-5.4h-4.8h-1h-0.8h-0.3v-3.3c0-1.2-0.3-2.3-0.7-3.1l2.2-0.9l1.9,1.8c0.2,0.2,0.4,0.3,0.7,0.3c0,0,0,0,0,0
		c0.3,0,0.5-0.1,0.7-0.3l1.8-1.9l3.6,1.4c0,0,0,0,0,0c0.1,0,2.2,0.8,2.2,3.4V58.1z"/>
	<path class="st1" d="M20.4,54.8v2.3h4.9h1.1h2.8h4.5h5.9v-2.3c0-2.8-2.1-3.5-2.2-3.6c0,0,0,0-0.1,0l-4-1.6l-1.9,2
		c-0.4,0.4-0.9,0.6-1.4,0.6h0c-0.5,0-1-0.2-1.4-0.6l-2-2l-4,1.6l0,0l-0.1,0C22.5,51.3,20.4,52,20.4,54.8"/>
	<path class="st2" d="M15.8,57.2H7.1c-0.4,0-0.8-0.4-0.8-0.8c0-0.4,0.4-0.8,0.8-0.8h8.6c0.4,0,0.8,0.4,0.8,0.8
		C16.6,56.8,16.2,57.2,15.8,57.2"/>
	<path class="st2" d="M52.9,57.2h-8.6c-0.4,0-0.8-0.4-0.8-0.8c0-0.4,0.4-0.8,0.8-0.8h8.6c0.4,0,0.8,0.4,0.8,0.8
		C53.7,56.8,53.4,57.2,52.9,57.2"/>
</g>
</svg>
