<?xml version="1.0" encoding="utf-8"?>
<!-- Generator: Adobe Illustrator 19.1.0, SVG Export Plug-In . SVG Version: 6.00 Build 0)  -->
<svg version="1.1" id="Layer_1" xmlns="http://www.w3.org/2000/svg" xmlns:xlink="http://www.w3.org/1999/xlink" x="0px" y="0px"
	 viewBox="0 0 58.6 60" style="enable-background:new 0 0 58.6 60;" xml:space="preserve">
<style type="text/css">
	.st0{fill:#444B54;}
	.st1{fill:#4995EC;}
	.st2{fill:#61B63D;}
</style>
<rect x="40.9" y="21.4" class="st0" width="1.9" height="1.9"/>
<rect x="45.7" y="12.7" class="st0" width="1.9" height="4.8"/>
<rect x="45.7" y="19.5" class="st0" width="1.9" height="1.9"/>
<rect x="33.1" y="14.7" class="st1" width="1.9" height="1.9"/>
<polygon class="st1" points="29.3,0 20.1,6.1 21.1,7.7 23.5,6.2 23.5,14.7 23.5,18.5 25.4,18.5 25.4,14.7 25.4,4.9 29.3,2.3 
	33.1,4.9 33.1,12.7 35.1,12.7 35.1,6.2 37.4,7.7 38.5,6.1 "/>
<rect x="23.5" y="20.5" class="st1" width="1.9" height="1.9"/>
<rect x="28.3" y="5" class="st1" width="1.9" height="9.6"/>
<rect x="28.3" y="16.6" class="st1" width="1.9" height="1.9"/>
<rect x="11.9" y="17.6" class="st0" width="1.9" height="3.9"/>
<rect x="31.2" y="54.2" class="st2" width="1.9" height="1.9"/>
<rect x="27.4" y="54.2" class="st2" width="1.9" height="1.9"/>
<rect x="23.5" y="54.2" class="st2" width="1.9" height="1.9"/>
<path class="st0" d="M37,32.7l2.2,7.1h13.3v18.3H37V32.7z M6.1,39.7h26.8l2.2-7.1v25.4H6.1V39.7z M5.9,27.2h28.8l-3.3,10.6H2.6
	L5.9,27.2z M37.3,27.2h4.5h10.9l3.3,10.6H40.6L37.3,27.2z M37.4,13.9l1.1,1.6l2.4-1.6v5.6h1.9v-6.9l3.9-2.6l3.9,2.6v12.7h-8.7H18.7
	v-6.6l2.4,1.6l1.1-1.6l-9.2-6.1l-9.2,6.1l1.1,1.6l2.4-1.6v4.6H9v-5.9l3.9-2.6l3.9,2.6v7.8H4.5L0,39.7h4.2V60h50.2V39.7h4.2
	l-4.5-14.5h-1.7V13.9l2.4,1.6l1.1-1.6l-9.2-6.1L37.4,13.9z"/>
</svg>
