<?xml version="1.0" encoding="utf-8"?>
<!-- Generator: Adobe Illustrator 19.1.0, SVG Export Plug-In . SVG Version: 6.00 Build 0)  -->
<svg version="1.1" id="Layer_1" xmlns="http://www.w3.org/2000/svg" xmlns:xlink="http://www.w3.org/1999/xlink" x="0px" y="0px"
	 viewBox="0 0 73.9 47.6" style="enable-background:new 0 0 73.9 47.6;" xml:space="preserve">
<style type="text/css">
	.st0{clip-path:url(#SVGID_2_);}
	.st1{clip-path:url(#SVGID_4_);fill:#FFFFFF;}
	.st2{opacity:0.6;clip-path:url(#SVGID_4_);}
	.st3{clip-path:url(#SVGID_6_);fill:#FFFFFF;}
	.st4{clip-path:url(#SVGID_8_);fill:#FFFFFF;}
	.st5{clip-path:url(#SVGID_10_);fill:#FFFFFF;}
	.st6{clip-path:url(#SVGID_12_);fill:#FFFFFF;}
	.st7{clip-path:url(#SVGID_14_);fill:#FFFFFF;}
	.st8{clip-path:url(#SVGID_16_);fill:#FFFFFF;}
	.st9{clip-path:url(#SVGID_18_);fill:#FFFFFF;}
	.st10{clip-path:url(#SVGID_20_);fill:#FFFFFF;}
	.st11{clip-path:url(#SVGID_22_);fill:#FFFFFF;}
	.st12{clip-path:url(#SVGID_24_);fill:#FFFFFF;}
	.st13{clip-path:url(#SVGID_26_);fill:#FFFFFF;}
	.st14{opacity:0.3;clip-path:url(#SVGID_4_);}
	.st15{clip-path:url(#SVGID_28_);fill:#FFFFFF;}
</style>
<g>
	<defs>
		<rect id="SVGID_1_" width="73.9" height="47.6"/>
	</defs>
	<clipPath id="SVGID_2_">
		<use xlink:href="#SVGID_1_"  style="overflow:visible;"/>
	</clipPath>
	<g class="st0">
		<defs>
			<rect id="SVGID_3_" y="0" width="73.9" height="47.6"/>
		</defs>
		<clipPath id="SVGID_4_">
			<use xlink:href="#SVGID_3_"  style="overflow:visible;"/>
		</clipPath>
		<path class="st1" d="M67.8,47.6c3.3,0,6-2.7,6-6v-2.9H63.1v-4.1l1.4,1.4c0.5,0.5,1.2,0.8,2,0.8c1.5,0,2.8-1.3,2.8-2.8
			c0-0.8-0.3-1.5-0.8-2l-5.4-5.4v-9.4l0.2,0.1c0.3,0.1,0.5,0.1,0.7,0.1c1.2,0,2.2-1,2.2-2.2c0-0.3-0.1-0.7-0.2-1l0-0.1l4.9-5.5
			l0.1,0C71.1,8.9,71.4,9,71.7,9c1.2,0,2.2-1,2.2-2.2s-1-2.2-2.2-2.2c-1.2,0-2.2,1-2.2,2.2c0,0.3,0.1,0.7,0.2,1l0,0.1L65,13.4
			l-0.1,0c-0.5-0.2-1-0.3-1.6-0.1l-0.2,0.1V6c0-3.3-2.7-6-6-6H32.3c-3.3,0-6,2.7-6,6v2.4h10.8v22.5h-8.6c-1.2,0-2.2,1-2.2,2.2
			c0,1.2,1,2.2,2.2,2.2h8.6v6.3c0,3.3,2.7,6,6,6c0.3,0,0.5,0,0.8,0l0.2,0v0.1H67.8z M71.7,5.9c0.5,0,0.9,0.4,0.9,0.9
			c0,0.5-0.4,0.9-0.9,0.9c-0.5,0-0.9-0.4-0.9-0.9C70.8,6.3,71.2,5.9,71.7,5.9 M64,14.4c0.5,0,0.9,0.4,0.9,0.9c0,0.5-0.4,0.9-0.9,0.9
			c-0.5,0-0.9-0.4-0.9-0.9C63.1,14.8,63.5,14.4,64,14.4 M72.6,39.9v1.7c0,2.6-2.1,4.8-4.8,4.8h-21l0.3-0.3c1.3-1.1,2-2.8,2-4.5v-1.7
			H72.6z M67.5,32.9c0.3,0.3,0.5,0.7,0.5,1.1c0,0.9-0.7,1.6-1.6,1.6c-0.4,0-0.8-0.2-1.1-0.5l-8.2-8.2l2.2-2.2L67.5,32.9z M50.1,15.5
			c-1.2,0-2.2,1-2.2,2.2c0,1.2,1,2.2,2.2,2.2c1.2,0,2.2-1,2.2-2.2c0-0.3-0.1-0.6-0.2-0.9l0-0.1l3.5-3.5l0.1,0.1
			c1,1.3,1.6,2.8,1.6,4.4c0,3.9-3.2,7.1-7.1,7.1S43,21.5,43,17.6s3.2-7.1,7.1-7.1c1.6,0,3.2,0.5,4.4,1.6l0.1,0.1l-3.5,3.5l-0.1,0
			C50.7,15.5,50.4,15.5,50.1,15.5 M51,17.6c0,0.5-0.4,0.9-0.9,0.9c-0.5,0-0.9-0.4-0.9-0.9c0-0.5,0.4-0.9,0.9-0.9
			C50.6,16.7,51,17.1,51,17.6 M54.9,24.4c0.8-0.5,1.4-1.2,2-2l0.1-0.1l1.5,1.5L56.3,26l-1.5-1.5L54.9,24.4z M61.8,25.4l-1.6-1.6l1-1
			l-0.9-0.9l-1,1l-1.7-1.7l0-0.1c0.5-1.1,0.8-2.3,0.8-3.5c0-1.9-0.7-3.8-1.9-5.3l-0.1-0.1l1.2-1.1l0.1,0c0.6,0.3,1.2,0.3,1.8,0
			l0.1,0l2.3,2.8V25.4z M57.7,9.1c0-0.5,0.4-0.9,0.9-0.9c0.5,0,0.9,0.4,0.9,0.9c0,0.5-0.4,0.9-0.9,0.9C58.1,10,57.7,9.6,57.7,9.1
			 M37.1,7.2h-9.6V6c0-2.6,2.1-4.8,4.8-4.8c2.6,0,4.8,2.1,4.8,4.8V7.2z M30.1,34h-1.7c-0.5,0-0.9-0.4-0.9-0.9c0-0.5,0.4-0.9,0.9-0.9
			h1.7V34z M31.4,32.2h16.5V34H31.4V32.2z M43.1,46.4c-2.6,0-4.8-2.1-4.8-4.8v-6.3l10.1,0l3.3,1.6l4.8-3.8l-4.8-3.8l-3.4,1.7
			l-10,0.2V6.3c0-2-0.7-3.6-2.1-4.8L36,1.2h21c2.6,0,4.8,2.1,4.8,4.8v5.9l-1.4-1.7l0-0.1c0.2-0.3,0.3-0.7,0.3-1c0-1.2-1-2.2-2.2-2.2
			c-1.2,0-2.2,1-2.2,2.2c0,0.3,0.1,0.6,0.2,0.9l0,0.1l-1.2,1.2l-0.1-0.1C53.9,10,52,9.3,50.1,9.3c-4.6,0-8.3,3.7-8.3,8.3
			c0,4.6,3.7,8.4,8.3,8.4c1.2,0,2.4-0.3,3.5-0.8l0.1,0l1.7,1.7l-1,1l0.9,0.9l1-1l5.6,5.6v5.3H47.9v2.9c0,1.3-0.5,2.5-1.4,3.4
			C45.6,45.9,44.4,46.4,43.1,46.4 M53.7,33.7l-2.2,1.7l-2.4-1.2v-2.3l2.4-1.2l2.2,1.7h-1.9v1.2H53.7z"/>
		<g class="st2">
			<g>
				<defs>
					<rect id="SVGID_5_" x="40.2" y="3.1" width="15.2" height="1.2"/>
				</defs>
				<clipPath id="SVGID_6_">
					<use xlink:href="#SVGID_5_"  style="overflow:visible;"/>
				</clipPath>
				<rect x="40.2" y="3.1" class="st3" width="15.2" height="1.2"/>
			</g>
		</g>
		<g class="st2">
			<g>
				<defs>
					<rect id="SVGID_7_" x="40.2" y="6.2" width="12.1" height="1.2"/>
				</defs>
				<clipPath id="SVGID_8_">
					<use xlink:href="#SVGID_7_"  style="overflow:visible;"/>
				</clipPath>
				<rect x="40.2" y="6.2" class="st4" width="12.1" height="1.2"/>
			</g>
		</g>
		<g class="st2">
			<g>
				<defs>
					<rect id="SVGID_9_" x="54.1" y="6.2" width="1.2" height="1.2"/>
				</defs>
				<clipPath id="SVGID_10_">
					<use xlink:href="#SVGID_9_"  style="overflow:visible;"/>
				</clipPath>
				<rect x="54.1" y="6.2" class="st5" width="1.2" height="1.2"/>
			</g>
		</g>
		<path class="st1" d="M14,21.2v1.3h7.6c0.4,0,0.6-0.3,0.6-0.6v-3.2c0-0.4-0.3-0.6-0.6-0.6H4.5C2,18,0,20,0,22.5v8.9h1.3v-8.9
			c0-1.8,1.4-3.2,3.2-3.2h0.8L7.1,24c0.1,0.2,0.3,0.4,0.6,0.4c0.3,0,0.5-0.2,0.7-0.4l1.8-4.7H21v1.9H14z M7.7,22l-1-2.7h2L7.7,22z"
			/>
		<path class="st1" d="M10.8,44.1H8.3V32H7v12.1H4.5v-21H3.2v21.6c0,0.4,0.3,0.6,0.6,0.6h3.8h3.8c0.4,0,0.6-0.3,0.6-0.6V23.1h-1.3
			V44.1z"/>
		<g class="st2">
			<g>
				<defs>
					<rect id="SVGID_11_" x="7" y="25.7" width="1.3" height="1.3"/>
				</defs>
				<clipPath id="SVGID_12_">
					<use xlink:href="#SVGID_11_"  style="overflow:visible;"/>
				</clipPath>
				<rect x="7" y="25.7" class="st6" width="1.3" height="1.3"/>
			</g>
		</g>
		<g class="st2">
			<g>
				<defs>
					<rect id="SVGID_13_" x="7" y="28.2" width="1.3" height="1.3"/>
				</defs>
				<clipPath id="SVGID_14_">
					<use xlink:href="#SVGID_13_"  style="overflow:visible;"/>
				</clipPath>
				<rect x="7" y="28.2" class="st7" width="1.3" height="1.3"/>
			</g>
		</g>
		<path class="st1" d="M7,17.4h1.3c1.8,0,3.2-1.4,3.2-3.2v-1.9c0-1.8-1.4-3.2-3.2-3.2H7c-1.8,0-3.2,1.4-3.2,3.2v1.9
			C3.8,16,5.2,17.4,7,17.4 M5.1,12.3c0-1.1,0.8-1.9,1.9-1.9h1.3c1.1,0,1.9,0.8,1.9,1.9v1.9c0,1.1-0.8,1.9-1.9,1.9H7
			c-1.1,0-1.9-0.8-1.9-1.9V12.3z"/>
		<g class="st2">
			<g>
				<defs>
					<rect id="SVGID_15_" x="24.8" y="18" width="9" height="1.3"/>
				</defs>
				<clipPath id="SVGID_16_">
					<use xlink:href="#SVGID_15_"  style="overflow:visible;"/>
				</clipPath>
				<rect x="24.8" y="18" class="st8" width="9" height="1.3"/>
			</g>
		</g>
		<g class="st2">
			<g>
				<defs>
					<rect id="SVGID_17_" x="24.8" y="20.6" width="9" height="1.3"/>
				</defs>
				<clipPath id="SVGID_18_">
					<use xlink:href="#SVGID_17_"  style="overflow:visible;"/>
				</clipPath>
				<rect x="24.8" y="20.6" class="st9" width="9" height="1.3"/>
			</g>
		</g>
		<g class="st2">
			<g>
				<defs>
					<rect id="SVGID_19_" x="24.8" y="23.1" width="9" height="1.3"/>
				</defs>
				<clipPath id="SVGID_20_">
					<use xlink:href="#SVGID_19_"  style="overflow:visible;"/>
				</clipPath>
				<rect x="24.8" y="23.1" class="st10" width="9" height="1.3"/>
			</g>
		</g>
		<g class="st2">
			<g>
				<defs>
					<rect id="SVGID_21_" x="24.8" y="25.7" width="9" height="1.3"/>
				</defs>
				<clipPath id="SVGID_22_">
					<use xlink:href="#SVGID_21_"  style="overflow:visible;"/>
				</clipPath>
				<rect x="24.8" y="25.7" class="st11" width="9" height="1.3"/>
			</g>
		</g>
		<g class="st2">
			<g>
				<defs>
					<rect id="SVGID_23_" x="13.4" y="13.8" width="20.5" height="1.3"/>
				</defs>
				<clipPath id="SVGID_24_">
					<use xlink:href="#SVGID_23_"  style="overflow:visible;"/>
				</clipPath>
				<rect x="13.4" y="13.8" class="st12" width="20.5" height="1.3"/>
			</g>
		</g>
		<g class="st2">
			<g>
				<defs>
					<rect id="SVGID_25_" x="13.4" y="11.1" width="20.5" height="1.3"/>
				</defs>
				<clipPath id="SVGID_26_">
					<use xlink:href="#SVGID_25_"  style="overflow:visible;"/>
				</clipPath>
				<rect x="13.4" y="11.1" class="st13" width="20.5" height="1.3"/>
			</g>
		</g>
		<path class="st1" d="M37.5,29.6h0.7V7.8c0-0.4-0.3-0.6-0.6-0.6H13.4v1.3h24.1V29.6z"/>
		<path class="st1" d="M28.2,36.6c-0.2,0-0.5,0-0.7-0.1H15.9v-1.9h9.2c-0.2-0.4-0.3-0.8-0.3-1.3h-9.5h-0.6v0.6v0.6v2.5
			c0,0.4,0.3,0.6,0.6,0.6h22.3c0.4,0,0.6-0.3,0.6-0.6v-0.6H28.2z"/>
		<g class="st14">
			<g>
				<defs>
					<rect id="SVGID_27_" x="27" y="0.5" width="10.3" height="7.4"/>
				</defs>
				<clipPath id="SVGID_28_">
					<use xlink:href="#SVGID_27_"  style="overflow:visible;"/>
				</clipPath>
				<path class="st15" d="M27.1,7.9c0,0-0.9-7.5,5.1-7.4c6.6,0.1,5,7.4,5,7.4H27.1z"/>
			</g>
		</g>
	</g>
</g>
</svg>
