<?xml version="1.0" encoding="utf-8"?>
<!-- Generator: Adobe Illustrator 19.1.0, SVG Export Plug-In . SVG Version: 6.00 Build 0)  -->
<svg version="1.1" id="Layer_1" xmlns="http://www.w3.org/2000/svg" xmlns:xlink="http://www.w3.org/1999/xlink" x="0px" y="0px"
	 viewBox="0 0 86.8 50" style="enable-background:new 0 0 86.8 50;" xml:space="preserve">
<style type="text/css">
	.st0{clip-path:url(#SVGID_2_);}
	.st1{opacity:0.6;clip-path:url(#SVGID_4_);}
	.st2{clip-path:url(#SVGID_6_);fill:#FFFFFF;}
	.st3{clip-path:url(#SVGID_8_);fill:#FFFFFF;}
	.st4{clip-path:url(#SVGID_10_);fill:#FFFFFF;}
	.st5{clip-path:url(#SVGID_12_);fill:#FFFFFF;}
	.st6{clip-path:url(#SVGID_2_);fill:#FFFFFF;}
	.st7{clip-path:url(#SVGID_14_);fill:#FFFFFF;}
	.st8{opacity:0.6;clip-path:url(#SVGID_14_);}
	.st9{clip-path:url(#SVGID_16_);fill:#FFFFFF;}
	.st10{clip-path:url(#SVGID_18_);fill:#FFFFFF;}
	.st11{clip-path:url(#SVGID_20_);fill:#FFFFFF;}
	.st12{clip-path:url(#SVGID_22_);fill:#FFFFFF;}
	.st13{clip-path:url(#SVGID_24_);fill:#FFFFFF;}
	.st14{clip-path:url(#SVGID_26_);fill:#FFFFFF;}
	.st15{clip-path:url(#SVGID_28_);fill:#FFFFFF;}
	.st16{clip-path:url(#SVGID_30_);fill:#FFFFFF;}
	.st17{clip-path:url(#SVGID_32_);fill:#FFFFFF;}
	.st18{clip-path:url(#SVGID_34_);fill:#FFFFFF;}
	.st19{clip-path:url(#SVGID_36_);fill:#FFFFFF;}
	.st20{clip-path:url(#SVGID_38_);fill:#FFFFFF;}
	.st21{clip-path:url(#SVGID_40_);fill:#FFFFFF;}
	.st22{clip-path:url(#SVGID_42_);fill:#FFFFFF;}
	.st23{clip-path:url(#SVGID_44_);fill:#FFFFFF;}
</style>
<g>
	<defs>
		<rect id="SVGID_1_" width="86.8" height="50"/>
	</defs>
	<clipPath id="SVGID_2_">
		<use xlink:href="#SVGID_1_"  style="overflow:visible;"/>
	</clipPath>
	<g class="st0">
		<defs>
			<rect id="SVGID_3_" width="86.8" height="50"/>
		</defs>
		<clipPath id="SVGID_4_">
			<use xlink:href="#SVGID_3_"  style="overflow:visible;"/>
		</clipPath>
		<g class="st1">
			<g>
				<defs>
					<rect id="SVGID_5_" x="4.5" y="27.8" width="11.6" height="6.1"/>
				</defs>
				<clipPath id="SVGID_6_">
					<use xlink:href="#SVGID_5_"  style="overflow:visible;"/>
				</clipPath>
				<polygon class="st2" points="13.3,27.8 12.3,28.9 14.5,31 14.5,32.3 6.1,32.3 6.1,31 8.4,28.9 7.3,27.8 4.5,30.3 4.5,33.9 
					16.1,33.9 16.1,30.3 				"/>
			</g>
		</g>
		<g class="st1">
			<g>
				<defs>
					<rect id="SVGID_7_" x="7.3" y="20.6" width="7" height="7.5"/>
				</defs>
				<clipPath id="SVGID_8_">
					<use xlink:href="#SVGID_7_"  style="overflow:visible;"/>
				</clipPath>
				<path class="st3" d="M12.7,20.6c0,0.5-0.1,0.8-0.3,1C12,22,9.8,21.9,9.5,21.9v1.6c0.2,0,1.9,0,2.1,0v1.7c0,0.8-0.6,1.4-1.4,1.4
					h0c-0.8,0-1.4-0.6-1.4-1.4v-1.6H7.3v1.6c0,1.7,1.3,3,3,3h0c1.6,0,3-1.3,3-3v-2.2c0.1-0.1,0.1-0.1,0.2-0.2
					c0.5-0.5,0.8-1.2,0.8-2.1H12.7z"/>
			</g>
		</g>
		<g class="st1">
			<g>
				<defs>
					<rect id="SVGID_9_" x="19.2" y="11.5" width="11.6" height="6.1"/>
				</defs>
				<clipPath id="SVGID_10_">
					<use xlink:href="#SVGID_9_"  style="overflow:visible;"/>
				</clipPath>
				<polygon class="st4" points="28,11.5 27,12.6 29.2,14.7 29.2,16 20.8,16 20.8,14.7 23.1,12.6 22,11.5 19.2,14 19.2,17.5 
					30.8,17.5 30.8,14 				"/>
			</g>
		</g>
		<g class="st1">
			<g>
				<defs>
					<rect id="SVGID_11_" x="22" y="4.3" width="7" height="7.5"/>
				</defs>
				<clipPath id="SVGID_12_">
					<use xlink:href="#SVGID_11_"  style="overflow:visible;"/>
				</clipPath>
				<path class="st5" d="M27.4,4.3c0,0.5-0.1,0.8-0.3,1c-0.4,0.4-2.6,0.3-2.9,0.3v1.6c0.2,0,1.9,0,2.1,0v1.7c0,0.8-0.6,1.4-1.4,1.4
					h0c-0.8,0-1.4-0.6-1.4-1.4V7.2H22v1.6c0,1.7,1.3,3,3,3h0c1.6,0,3-1.3,3-3V6.6c0.1-0.1,0.1-0.1,0.2-0.2c0.5-0.5,0.8-1.2,0.8-2.1
					H27.4z"/>
			</g>
		</g>
	</g>
	<path class="st6" d="M1.6,18.3h13.2V21h4.2v14.7h-6.4v3.5l-3.9-3.5h-7V18.3z M16.3,2h17.4v17.4h-6.3l-1.9,5.1l-1.9-5.1h-7.2V2z
		 M14.7,0.4v16.3H0v20.5h8l6.1,5.5v-5.5h6.4V21h1.9l3,8l3-8h1h0.2h5.6V0.4H14.7z"/>
	<g class="st0">
		<defs>
			<rect id="SVGID_13_" width="86.8" height="50"/>
		</defs>
		<clipPath id="SVGID_14_">
			<use xlink:href="#SVGID_13_"  style="overflow:visible;"/>
		</clipPath>
		<path class="st7" d="M78.7,21.8V4c0-2.2-1.8-4-4-4H40.8c-2.2,0-4,1.8-4,4v23.4c0,2.2,1.8,4,4,4h8.1v3.2h-1.6v1.6h1.5
			c-0.7,0.7-1.2,1.5-1.6,2.4H36.8v4.8H40v1.6h-3.2V50h14.5v-0.7c1,0.4,2.1,0.7,3.2,0.7c4.4,0,8.1-3.6,8.1-8.1c0-2.2-0.9-4.2-2.3-5.6
			H65V50h21.8V21.8H78.7z M40,48.4h-1.6v-1.6H40V48.4z M40,41.9h-1.6v-1.6H40V41.9z M43.2,48.4h-1.6v-1.6h1.6V48.4z M43.2,45.2h-1.6
			v-1.6h1.6V45.2z M43.2,41.9h-1.6v-1.6h1.6V41.9z M46.4,48.4h-1.6v-1.6h1.6V48.4z M46.4,45.2h-1.6v-1.6h1.6V45.2z M46.4,41.9h-1.6
			v-1.6h1.6V41.9z M49.7,48.4h-1.6v-1.6v0C48.5,47.4,49.1,47.9,49.7,48.4L49.7,48.4z M61,41.9c0,3.6-2.9,6.5-6.5,6.5
			s-6.5-2.9-6.5-6.5c0-3.6,2.9-6.5,6.5-6.5S61,38.4,61,41.9 M65,34.7h-7c-1.1-0.5-2.2-0.8-3.5-0.8c-1.3,0-2.4,0.3-3.5,0.8h-0.5v-3.2
			H65V34.7z M65,29.8H40.8c-1.3,0-2.4-1.1-2.4-2.4v-0.8H65V29.8z M65,25H38.4V4c0-1.3,1.1-2.4,2.4-2.4h33.9c1.3,0,2.4,1.1,2.4,2.4
			v17.7H65V25z M85.2,48.4H66.6V29.8h18.5V48.4z M85.2,28.2H66.6v-4.8h18.5V28.2z"/>
		<g class="st8">
			<g>
				<defs>
					<rect id="SVGID_15_" x="68.2" y="31.5" width="4" height="4"/>
				</defs>
				<clipPath id="SVGID_16_">
					<use xlink:href="#SVGID_15_"  style="overflow:visible;"/>
				</clipPath>
				<path class="st9" d="M72.2,31.5h-4v4h4V31.5z M70.6,33.9h-0.8v-0.8h0.8V33.9z"/>
			</g>
		</g>
		<g class="st8">
			<g>
				<defs>
					<rect id="SVGID_17_" x="73.9" y="31.5" width="4" height="4"/>
				</defs>
				<clipPath id="SVGID_18_">
					<use xlink:href="#SVGID_17_"  style="overflow:visible;"/>
				</clipPath>
				<path class="st10" d="M77.9,31.5h-4v4h4V31.5z M76.3,33.9h-0.8v-0.8h0.8V33.9z"/>
			</g>
		</g>
		<g class="st8">
			<g>
				<defs>
					<rect id="SVGID_19_" x="79.5" y="31.5" width="4" height="4"/>
				</defs>
				<clipPath id="SVGID_20_">
					<use xlink:href="#SVGID_19_"  style="overflow:visible;"/>
				</clipPath>
				<path class="st11" d="M83.5,31.5h-4v4h4V31.5z M81.9,33.9h-0.8v-0.8h0.8V33.9z"/>
			</g>
		</g>
		<g class="st8">
			<g>
				<defs>
					<rect id="SVGID_21_" x="68.2" y="37.1" width="4" height="4"/>
				</defs>
				<clipPath id="SVGID_22_">
					<use xlink:href="#SVGID_21_"  style="overflow:visible;"/>
				</clipPath>
				<path class="st12" d="M72.2,37.1h-4v4h4V37.1z M70.6,39.5h-0.8v-0.8h0.8V39.5z"/>
			</g>
		</g>
		<g class="st8">
			<g>
				<defs>
					<rect id="SVGID_23_" x="73.9" y="37.1" width="4" height="4"/>
				</defs>
				<clipPath id="SVGID_24_">
					<use xlink:href="#SVGID_23_"  style="overflow:visible;"/>
				</clipPath>
				<path class="st13" d="M77.9,37.1h-4v4h4V37.1z M76.3,39.5h-0.8v-0.8h0.8V39.5z"/>
			</g>
		</g>
		<g class="st8">
			<g>
				<defs>
					<rect id="SVGID_25_" x="79.5" y="37.1" width="4" height="4"/>
				</defs>
				<clipPath id="SVGID_26_">
					<use xlink:href="#SVGID_25_"  style="overflow:visible;"/>
				</clipPath>
				<path class="st14" d="M83.5,37.1h-4v4h4V37.1z M81.9,39.5h-0.8v-0.8h0.8V39.5z"/>
			</g>
		</g>
		<g class="st8">
			<g>
				<defs>
					<rect id="SVGID_27_" x="68.2" y="42.7" width="4" height="4"/>
				</defs>
				<clipPath id="SVGID_28_">
					<use xlink:href="#SVGID_27_"  style="overflow:visible;"/>
				</clipPath>
				<path class="st15" d="M72.2,42.7h-4v4h4V42.7z M70.6,45.2h-0.8v-0.8h0.8V45.2z"/>
			</g>
		</g>
		<g class="st8">
			<g>
				<defs>
					<rect id="SVGID_29_" x="73.9" y="42.7" width="4" height="4"/>
				</defs>
				<clipPath id="SVGID_30_">
					<use xlink:href="#SVGID_29_"  style="overflow:visible;"/>
				</clipPath>
				<path class="st16" d="M77.9,42.7h-4v4h4V42.7z M76.3,45.2h-0.8v-0.8h0.8V45.2z"/>
			</g>
		</g>
		<g class="st8">
			<g>
				<defs>
					<rect id="SVGID_31_" x="79.5" y="42.7" width="4" height="4"/>
				</defs>
				<clipPath id="SVGID_32_">
					<use xlink:href="#SVGID_31_"  style="overflow:visible;"/>
				</clipPath>
				<path class="st17" d="M83.5,42.7h-4v4h4V42.7z M81.9,45.2h-0.8v-0.8h0.8V45.2z"/>
			</g>
		</g>
		<g class="st8">
			<g>
				<defs>
					<rect id="SVGID_33_" x="51.3" y="36.3" width="6.5" height="11.3"/>
				</defs>
				<clipPath id="SVGID_34_">
					<use xlink:href="#SVGID_33_"  style="overflow:visible;"/>
				</clipPath>
				<path class="st18" d="M53.7,39.5h1.6c0.4,0,0.8,0.4,0.8,0.8h1.6c0-1.3-1.1-2.4-2.4-2.4v-1.6h-1.6v1.6c-1.3,0-2.4,1.1-2.4,2.4
					c0,1.3,1.1,2.4,2.4,2.4h1.6c0.4,0,0.8,0.4,0.8,0.8s-0.4,0.8-0.8,0.8h-1.6c-0.4,0-0.8-0.4-0.8-0.8h-1.6c0,1.3,1.1,2.4,2.4,2.4
					v1.6h1.6V46c1.3,0,2.4-1.1,2.4-2.4s-1.1-2.4-2.4-2.4h-1.6c-0.4,0-0.8-0.4-0.8-0.8C52.9,39.9,53.3,39.5,53.7,39.5"/>
			</g>
		</g>
		<g class="st8">
			<g>
				<defs>
					<rect id="SVGID_35_" x="55.3" y="8.9" width="4.8" height="11.3"/>
				</defs>
				<clipPath id="SVGID_36_">
					<use xlink:href="#SVGID_35_"  style="overflow:visible;"/>
				</clipPath>
				<path class="st19" d="M55.3,20.2h4.8V8.9h-4.8V20.2z M56.9,10.5h1.6v8.1h-1.6V10.5z"/>
			</g>
		</g>
		<g class="st8">
			<g>
				<defs>
					<rect id="SVGID_37_" x="48.9" y="12.1" width="4.8" height="8.1"/>
				</defs>
				<clipPath id="SVGID_38_">
					<use xlink:href="#SVGID_37_"  style="overflow:visible;"/>
				</clipPath>
				<path class="st20" d="M48.9,20.2h4.8v-8.1h-4.8V20.2z M50.5,13.7h1.6v4.8h-1.6V13.7z"/>
			</g>
		</g>
		<g class="st8">
			<g>
				<defs>
					<rect id="SVGID_39_" x="42.4" y="15.3" width="4.8" height="4.8"/>
				</defs>
				<clipPath id="SVGID_40_">
					<use xlink:href="#SVGID_39_"  style="overflow:visible;"/>
				</clipPath>
				<path class="st21" d="M42.4,20.2h4.8v-4.8h-4.8V20.2z M44,16.9h1.6v1.6H44V16.9z"/>
			</g>
		</g>
		<g class="st8">
			<g>
				<defs>
					<rect id="SVGID_41_" x="61.8" y="10.5" width="4.8" height="9.7"/>
				</defs>
				<clipPath id="SVGID_42_">
					<use xlink:href="#SVGID_41_"  style="overflow:visible;"/>
				</clipPath>
				<path class="st22" d="M61.8,20.2h4.8v-9.7h-4.8V20.2z M63.4,12.1H65v6.5h-1.6V12.1z"/>
			</g>
		</g>
		<g class="st8">
			<g>
				<defs>
					<rect id="SVGID_43_" x="68.2" y="4.2" width="4.8" height="15.9"/>
				</defs>
				<clipPath id="SVGID_44_">
					<use xlink:href="#SVGID_43_"  style="overflow:visible;"/>
				</clipPath>
				<path class="st23" d="M68.2,20.2h4.8V4.2h-4.8V20.2z M69.8,5.8h1.6v12.7h-1.6V5.8z"/>
			</g>
		</g>
	</g>
</g>
</svg>
