<?xml version="1.0" encoding="utf-8"?>
<!-- Generator: Adobe Illustrator 19.1.0, SVG Export Plug-In . SVG Version: 6.00 Build 0)  -->
<svg version="1.1" id="Capa_1" xmlns="http://www.w3.org/2000/svg" xmlns:xlink="http://www.w3.org/1999/xlink" x="0px" y="0px"
	 viewBox="-970 1471.7 58.3 58.3" style="enable-background:new -970 1471.7 58.3 58.3;" xml:space="preserve">
<style type="text/css">
	.st0{fill:#444B54;}
	.st1{fill:#4995EC;}
	.st2{fill:#61B63D;}
</style>
<path class="st0" d="M-943.9,1527.7h-23v-48h7v2c0,0.6,0.4,1,1,1h23c0.6,0,1-0.4,1-1v-2h7v22c0,0.6,0.4,1,1,1s1-0.4,1-1v-23
	c0-0.6-0.4-1-1-1h-8v-2c0-0.6-0.4-1-1-1h-6v-2c0-0.6-0.4-1-1-1h-9c-0.6,0-1,0.4-1,1v2h-6c-0.6,0-1,0.4-1,1v2h-8c-0.6,0-1,0.4-1,1v50
	c0,0.6,0.4,1,1,1h24c0.6,0,1-0.4,1-1S-943.3,1527.7-943.9,1527.7z M-950.9,1473.7h7v2v2h-7v-2V1473.7z M-957.9,1476.7h5v2
	c0,0.6,0.4,1,1,1h9c0.6,0,1-0.4,1-1v-2h5v2v2h-21v-2C-957.9,1478.7-957.9,1476.7-957.9,1476.7z"/>
<g>
	<g>
		<path class="st0" d="M-1212.5,1456.2c0.8-4.7,1.3-9.4,1.3-14c0-47.3-38.5-85.7-85.7-85.7h-66.7c-47.3,0-85.7,38.5-85.7,85.7
			c0,24.4,10.4,47.5,28.6,63.8v53.8l28.9-16.2c3.2,44.4,40.2,79.5,85.4,79.5h66.7c0.1,0,0.2,0,0.3,0l56.8,32v-53.8
			c18.2-16.3,28.6-39.4,28.6-63.8C-1154.1,1499.7-1178.6,1467.6-1212.5,1456.2z M-1391.9,1532.5c0,0.1,0,0.1,0,0.2l-19.2,10.8v-41.9
			l-1.7-1.4c-17.1-14.5-26.9-35.7-26.9-58c0-42,34.2-76.2,76.2-76.2h66.7c42,0,76.2,34.2,76.2,76.2c0,3.8-0.3,7.6-0.9,11.5
			c-5.9-1.3-11.9-2-18.1-2h-57.1h-9.5h-100v9.5h60.9C-1371.8,1474.7-1390.1,1501.4-1391.9,1532.5z M-1190.5,1595.4l-1.7,1.4v41.9
			l-45-25.3l-1.3,0c-0.3,0-0.6,0-1.4,0.1h-66.7c-42,0-76.2-34.2-76.2-76.2s34.2-76.2,76.2-76.2h9.5h57.1c42,0,76.2,34.2,76.2,76.2
			C-1163.6,1559.7-1173.4,1580.9-1190.5,1595.4z"/>
		<rect x="-1406.4" y="1394.5" class="st1" width="152.4" height="9.5"/>
		<rect x="-1406.4" y="1423.1" class="st1" width="152.4" height="9.5"/>
		<path class="st2" d="M-1253,1544.6c12.5-6.9,21-20.2,21-35.4c0-22.3-18.2-40.5-40.5-40.5s-40.5,18.2-40.5,40.5
			c0,15.2,8.5,28.5,21,35.4c-15.2,7.3-25.7,22.8-25.7,40.8v16.7h90.5v-16.7C-1227.2,1567.4-1237.8,1551.9-1253,1544.6z
			 M-1303.4,1509.2c0-17.1,13.9-31,31-31s31,13.9,31,31c0,17.1-13.9,31-31,31S-1303.4,1526.3-1303.4,1509.2z M-1236.8,1592.5h-71.4
			v-7.1c0-19.7,16-35.7,35.7-35.7c19.7,0,35.7,16,35.7,35.7V1592.5L-1236.8,1592.5z"/>
		<circle class="st2" cx="-1284.4" cy="1497.3" r="4.8"/>
		<circle class="st2" cx="-1260.6" cy="1497.3" r="4.8"/>
		<path class="st2" d="M-1249.7,1519.2l-7.6-5.7c-3.7,4.9-9.2,7.6-15.1,7.6s-11.5-2.8-15.1-7.6l-7.6,5.7
			c5.5,7.3,13.8,11.4,22.7,11.4S-1255.2,1526.5-1249.7,1519.2z"/>
		<path class="st2" d="M-1859.3,1352.8c-9.7-9.7-25.6-9.7-35.3,0l-6.3,6.3l-6.3-6.3c-9.7-9.7-25.6-9.7-35.3,0
			c-4.7,4.7-7.3,11-7.3,17.7c0,6.7,2.6,12.9,7.3,17.7l36,36c1.6,1.6,3.6,2.3,5.7,2.3c2,0,4.1-0.8,5.7-2.3l36-36
			c4.7-4.7,7.3-11,7.3-17.7C-1852,1363.8-1854.6,1357.5-1859.3,1352.8z M-1870.6,1376.8l-30.3,30.3l-30.3-30.3
			c-1.7-1.7-2.6-3.9-2.6-6.3c0-2.4,0.9-4.6,2.6-6.3c1.8-1.8,4-2.6,6.3-2.6c2.3,0,4.6,0.9,6.3,2.6l12,12c3.1,3.1,8.2,3.1,11.3,0
			l12-12c3.5-3.5,9.2-3.5,12.7,0c1.7,1.7,2.6,3.9,2.6,6.3C-1868,1372.9-1868.9,1375.1-1870.6,1376.8z"/>
		<path class="st1" d="M-1709,1554h-40v-24c0-13.2-10.8-24-24-24h-16c-4.4,0-8,3.6-8,8v44.7l-19.3,19.3h-52.7c-4.4,0-8,3.6-8,8v72
			c0,4.4,3.6,8,8,8h56h104c22.1,0,40-17.9,40-40v-32C-1669,1571.9-1686.9,1554-1709,1554z M-1821,1650h-40v-56h40V1650z M-1685,1626
			c0,13.2-10.8,24-24,24h-96v-60.7l21.7-21.7c1.5-1.5,2.3-3.5,2.3-5.7v-40h8c4.4,0,8,3.6,8,8v32c0,4.4,3.6,8,8,8h48
			c13.2,0,24,10.8,24,24V1626z"/>
	</g>
</g>
<path class="st1" d="M-913.7,1507.5l-2.8-2.8c-1.1-1.1-3.1-1.1-4.2,0l-15.4,15.4l-2.1,7.8l-0.5,0.5c-0.4,0.4-0.4,1,0,1.4l0,0l0,0
	c0.2,0.2,0.4,0.3,0.7,0.3c0.3,0,0.5-0.1,0.7-0.3l0.5-0.5l7.8-2.1l15.4-15.4C-912.6,1510.5-912.6,1508.6-913.7,1507.5z
	 M-933.9,1520.5l10.2-10.2l4.2,4.2l-10.2,10.2L-933.9,1520.5z M-934.8,1522.4l3.2,3.2l-4.4,1.2L-934.8,1522.4z M-915.2,1510.3
	l-2.8,2.8l-4.2-4.2l2.8-2.8c0.4-0.4,1-0.4,1.4,0l2.8,2.8C-914.8,1509.3-914.8,1509.9-915.2,1510.3z"/>
<path class="st2" d="M-961.9,1507.7h26c0.6,0,1-0.4,1-1s-0.4-1-1-1h-26c-0.6,0-1,0.4-1,1S-962.4,1507.7-961.9,1507.7z"/>
<path class="st2" d="M-939.9,1511.7h-22c-0.6,0-1,0.4-1,1s0.4,1,1,1h22c0.6,0,1-0.4,1-1S-939.3,1511.7-939.9,1511.7z"/>
<path class="st2" d="M-961.9,1489.7h13c0.6,0,1-0.4,1-1s-0.4-1-1-1h-13c-0.6,0-1,0.4-1,1S-962.4,1489.7-961.9,1489.7z"/>
<path class="st2" d="M-948.9,1519.7c0.6,0,1-0.4,1-1s-0.4-1-1-1h-13c-0.6,0-1,0.4-1,1s0.4,1,1,1H-948.9z"/>
<path class="st2" d="M-932.9,1493.7h-29c-0.6,0-1,0.4-1,1s0.4,1,1,1h29c0.6,0,1-0.4,1-1S-932.3,1493.7-932.9,1493.7z"/>
<path class="st2" d="M-961.9,1501.7h14c0.6,0,1-0.4,1-1s-0.4-1-1-1h-14c-0.6,0-1,0.4-1,1S-962.4,1501.7-961.9,1501.7z"/>
<path class="st2" d="M-931.9,1500.7c0-0.6-0.4-1-1-1h-7c-0.6,0-1,0.4-1,1s0.4,1,1,1h7C-932.3,1501.7-931.9,1501.3-931.9,1500.7z"/>
<path class="st2" d="M-943.2,1501.4c0.2-0.2,0.3-0.4,0.3-0.7s-0.1-0.5-0.3-0.7c-0.4-0.4-1-0.4-1.4,0c-0.2,0.2-0.3,0.4-0.3,0.7
	c0,0.3,0.1,0.5,0.3,0.7c0.2,0.2,0.5,0.3,0.7,0.3S-943.3,1501.6-943.2,1501.4z"/>
</svg>
