<?xml version="1.0" encoding="utf-8"?>
<!-- Generator: Adobe Illustrator 19.1.0, SVG Export Plug-In . SVG Version: 6.00 Build 0)  -->
<svg version="1.1" id="Layer_1" xmlns="http://www.w3.org/2000/svg" xmlns:xlink="http://www.w3.org/1999/xlink" x="0px" y="0px"
	 viewBox="-850 1351.4 298.6 298.6" style="enable-background:new -850 1351.4 298.6 298.6;" xml:space="preserve">
<style type="text/css">
	.st0{fill:#444B54;}
	.st1{fill:#4995EC;}
	.st2{fill:#61B63D;}
</style>
<g>
	<g>
		<path class="st0" d="M-611.5,1451.1c0.8-4.7,1.3-9.4,1.3-14c0-47.3-38.5-85.7-85.7-85.7h-66.7c-47.3,0-85.7,38.5-85.7,85.7
			c0,24.4,10.4,47.5,28.6,63.8v53.8l28.9-16.2c3.2,44.4,40.2,79.5,85.4,79.5h66.7c0.1,0,0.2,0,0.3,0l56.8,32v-53.8
			c18.2-16.3,28.6-39.4,28.6-63.8C-553.1,1494.6-577.6,1462.6-611.5,1451.1z M-790.9,1527.5c0,0.1,0,0.1,0,0.2l-19.2,10.8v-41.9
			l-1.7-1.4c-17.1-14.5-26.9-35.7-26.9-58c0-42,34.2-76.2,76.2-76.2h66.7c42,0,76.2,34.2,76.2,76.2c0,3.8-0.3,7.6-0.9,11.5
			c-5.9-1.3-11.9-2-18.1-2h-57.1h-9.5h-100v9.5h60.9C-770.8,1469.7-789.2,1496.4-790.9,1527.5z M-589.5,1590.4l-1.7,1.4v41.9
			l-45-25.3l-1.3,0c-0.3,0-0.6,0-1.4,0.1h-66.7c-42,0-76.2-34.2-76.2-76.2s34.2-76.2,76.2-76.2h9.5h57.1c42,0,76.2,34.2,76.2,76.2
			C-562.6,1554.7-572.4,1575.8-589.5,1590.4z"/>
		<rect x="-805.5" y="1389.5" class="st1" width="152.4" height="9.5"/>
		<rect x="-805.5" y="1418" class="st1" width="152.4" height="9.5"/>
		<path class="st2" d="M-652,1539.6c12.5-6.9,21-20.2,21-35.4c0-22.3-18.2-40.5-40.5-40.5c-22.3,0-40.5,18.2-40.5,40.5
			c0,15.2,8.5,28.5,21,35.4c-15.2,7.3-25.7,22.8-25.7,40.8v16.7h90.5v-16.7C-626.3,1562.4-636.8,1546.9-652,1539.6z M-702.5,1504.1
			c0-17.1,13.9-31,31-31s31,13.9,31,31c0,17.1-13.9,31-31,31S-702.5,1521.2-702.5,1504.1z M-635.8,1587.5h-71.4v-7.1
			c0-19.7,16-35.7,35.7-35.7s35.7,16,35.7,35.7V1587.5L-635.8,1587.5z"/>
		<circle class="st2" cx="-683.4" cy="1492.2" r="4.8"/>
		<circle class="st2" cx="-659.6" cy="1492.2" r="4.8"/>
		<path class="st2" d="M-648.8,1514.2l-7.6-5.7c-3.7,4.9-9.2,7.6-15.1,7.6s-11.5-2.8-15.1-7.6l-7.6,5.7c5.5,7.3,13.8,11.4,22.7,11.4
			C-662.5,1525.6-654.2,1521.4-648.8,1514.2z"/>
		<path class="st2" d="M-1258.3,1347.8c-9.7-9.7-25.6-9.7-35.3,0l-6.3,6.3l-6.3-6.3c-9.7-9.7-25.6-9.7-35.3,0
			c-4.7,4.7-7.3,11-7.3,17.7s2.6,12.9,7.3,17.7l36,36c1.6,1.6,3.6,2.3,5.7,2.3c2,0,4.1-0.8,5.7-2.3l36-36c4.7-4.7,7.3-11,7.3-17.7
			S-1253.6,1352.5-1258.3,1347.8z M-1269.7,1371.8l-30.3,30.3l-30.3-30.3c-1.7-1.7-2.6-3.9-2.6-6.3s0.9-4.6,2.6-6.3
			c1.8-1.8,4-2.6,6.3-2.6c2.3,0,4.6,0.9,6.3,2.6l12,12c3.1,3.1,8.2,3.1,11.3,0l12-12c3.5-3.5,9.2-3.5,12.7,0
			c1.7,1.7,2.6,3.9,2.6,6.3S-1268,1370.1-1269.7,1371.8z"/>
		<path class="st1" d="M-1108,1548.9h-40v-24c0-13.2-10.8-24-24-24h-16c-4.4,0-8,3.6-8,8v44.7l-19.3,19.3h-52.7c-4.4,0-8,3.6-8,8v72
			c0,4.4,3.6,8,8,8h56h104c22.1,0,40-17.9,40-40v-32C-1068,1566.9-1085.9,1548.9-1108,1548.9z M-1220,1644.9h-40v-56h40V1644.9z
			 M-1084,1620.9c0,13.2-10.8,24-24,24h-96v-60.7l21.7-21.7c1.5-1.5,2.3-3.5,2.3-5.7v-40h8c4.4,0,8,3.6,8,8v32c0,4.4,3.6,8,8,8h48
			c13.2,0,24,10.8,24,24V1620.9z"/>
	</g>
</g>
</svg>
