<?xml version="1.0" encoding="utf-8"?>
<!-- Generator: Adobe Illustrator 19.1.0, SVG Export Plug-In . SVG Version: 6.00 Build 0)  -->
<svg version="1.1" id="Layer_1" xmlns="http://www.w3.org/2000/svg" xmlns:xlink="http://www.w3.org/1999/xlink" x="0px" y="0px"
	 viewBox="0 0 144.4 101" style="enable-background:new 0 0 144.4 101;" xml:space="preserve">
<style type="text/css">
	.st0{clip-path:url(#SVGID_2_);}
	.st1{opacity:0.6;clip-path:url(#SVGID_4_);}
	.st2{clip-path:url(#SVGID_6_);fill:#FFFFFF;}
	.st3{clip-path:url(#SVGID_4_);fill:#FFFFFF;}
	.st4{clip-path:url(#SVGID_8_);fill:#FFFFFF;}
	.st5{clip-path:url(#SVGID_10_);fill:#FFFFFF;}
	.st6{clip-path:url(#SVGID_12_);fill:#FFFFFF;}
	.st7{clip-path:url(#SVGID_14_);fill:#FFFFFF;}
	.st8{clip-path:url(#SVGID_16_);fill:#FFFFFF;}
	.st9{clip-path:url(#SVGID_18_);fill:#FFFFFF;}
	.st10{clip-path:url(#SVGID_20_);fill:#FFFFFF;}
	.st11{clip-path:url(#SVGID_22_);fill:#FFFFFF;}
	.st12{clip-path:url(#SVGID_24_);fill:#FFFFFF;}
	.st13{clip-path:url(#SVGID_26_);fill:#FFFFFF;}
	.st14{clip-path:url(#SVGID_28_);fill:#FFFFFF;}
	.st15{clip-path:url(#SVGID_30_);fill:#FFFFFF;}
	.st16{clip-path:url(#SVGID_32_);fill:#FFFFFF;}
	.st17{clip-path:url(#SVGID_34_);fill:#FFFFFF;}
	.st18{clip-path:url(#SVGID_36_);fill:#FFFFFF;}
	.st19{clip-path:url(#SVGID_38_);fill:#FFFFFF;}
	.st20{clip-path:url(#SVGID_40_);fill:#FFFFFF;}
	.st21{clip-path:url(#SVGID_42_);fill:#FFFFFF;}
	.st22{clip-path:url(#SVGID_44_);fill:#FFFFFF;}
	.st23{clip-path:url(#SVGID_46_);fill:#FFFFFF;}
	.st24{clip-path:url(#SVGID_48_);fill:#FFFFFF;}
	.st25{clip-path:url(#SVGID_50_);fill:#FFFFFF;}
	.st26{clip-path:url(#SVGID_52_);fill:#FFFFFF;}
	.st27{clip-path:url(#SVGID_54_);fill:#FFFFFF;}
	.st28{clip-path:url(#SVGID_56_);fill:#FFFFFF;}
	.st29{clip-path:url(#SVGID_58_);fill:#FFFFFF;}
	.st30{clip-path:url(#SVGID_60_);fill:#FFFFFF;}
	.st31{clip-path:url(#SVGID_62_);fill:#FFFFFF;}
	.st32{clip-path:url(#SVGID_64_);fill:#FFFFFF;}
	.st33{clip-path:url(#SVGID_66_);fill:#FFFFFF;}
	.st34{clip-path:url(#SVGID_68_);fill:#FFFFFF;}
	.st35{clip-path:url(#SVGID_70_);fill:#FFFFFF;}
	.st36{clip-path:url(#SVGID_72_);fill:#FFFFFF;}
	.st37{clip-path:url(#SVGID_74_);fill:#FFFFFF;}
	.st38{clip-path:url(#SVGID_76_);fill:#FFFFFF;}
	.st39{clip-path:url(#SVGID_78_);fill:#FFFFFF;}
	.st40{opacity:0.3;clip-path:url(#SVGID_4_);}
	.st41{clip-path:url(#SVGID_80_);fill:#FFFFFF;}
	.st42{clip-path:url(#SVGID_82_);fill:#FFFFFF;}
	.st43{clip-path:url(#SVGID_84_);fill:#FFFFFF;}
</style>
<g>
	<defs>
		<rect id="SVGID_1_" width="144.4" height="101"/>
	</defs>
	<clipPath id="SVGID_2_">
		<use xlink:href="#SVGID_1_"  style="overflow:visible;"/>
	</clipPath>
	<g class="st0">
		<defs>
			<rect id="SVGID_3_" y="0" width="144.4" height="101"/>
		</defs>
		<clipPath id="SVGID_4_">
			<use xlink:href="#SVGID_3_"  style="overflow:visible;"/>
		</clipPath>
		<g class="st1">
			<g>
				<defs>
					<rect id="SVGID_5_" x="9.4" y="12.4" width="59.1" height="41.7"/>
				</defs>
				<clipPath id="SVGID_6_">
					<use xlink:href="#SVGID_5_"  style="overflow:visible;"/>
				</clipPath>
				<path class="st2" d="M10.4,14.5h2.3c0.6,0,1.1-0.5,1.1-1.1c0-0.6-0.5-1.1-1.1-1.1h-2.3c-0.6,0-1.1,0.5-1.1,1.1
					C9.4,14,9.8,14.5,10.4,14.5"/>
				<path class="st2" d="M10.4,20.2h2.3c0.6,0,1.1-0.5,1.1-1.1c0-0.6-0.5-1.1-1.1-1.1h-2.3c-0.6,0-1.1,0.5-1.1,1.1
					C9.4,19.7,9.8,20.2,10.4,20.2"/>
				<path class="st2" d="M13.9,23.8h-1.1c-0.6,0-1.1,0.5-1.1,1.1c0,0.6,0.5,1.1,1.1,1.1h1.1c0.6,0,1.1-0.5,1.1-1.1
					C14.9,24.3,14.4,23.8,13.9,23.8"/>
				<path class="st2" d="M10.4,31.6h2.3c0.6,0,1.1-0.5,1.1-1.1c0-0.6-0.5-1.1-1.1-1.1h-2.3c-0.6,0-1.1,0.5-1.1,1.1
					C9.4,31.1,9.8,31.6,10.4,31.6"/>
				<path class="st2" d="M17.3,14.5h4.6c0.6,0,1.1-0.5,1.1-1.1c0-0.6-0.5-1.1-1.1-1.1h-4.6c-0.6,0-1.1,0.5-1.1,1.1
					C16.2,14,16.7,14.5,17.3,14.5"/>
				<path class="st2" d="M17.3,31.6h9.1c0.6,0,1.1-0.5,1.1-1.1c0-0.6-0.5-1.1-1.1-1.1h-9.1c-0.6,0-1.1,0.5-1.1,1.1
					C16.2,31.1,16.7,31.6,17.3,31.6"/>
				<path class="st2" d="M17.3,20.2h11.4c0.6,0,1.1-0.5,1.1-1.1c0-0.6-0.5-1.1-1.1-1.1H17.3c-0.6,0-1.1,0.5-1.1,1.1
					C16.2,19.7,16.7,20.2,17.3,20.2"/>
				<path class="st2" d="M18.4,23.8c-0.6,0-1.1,0.5-1.1,1.1c0,0.6,0.5,1.1,1.1,1.1H23c0.6,0,1.1-0.5,1.1-1.1c0-0.6-0.5-1.1-1.1-1.1
					H18.4z"/>
				<path class="st2" d="M32,24.8c0-0.6-0.5-1.1-1.1-1.1h-3.4c-0.6,0-1.1,0.5-1.1,1.1c0,0.6,0.5,1.1,1.1,1.1h3.4
					C31.5,25.9,32,25.4,32,24.8"/>
				<path class="st2" d="M35.5,23.8c-0.3,0-0.6,0.1-0.8,0.3c-0.2,0.2-0.3,0.5-0.3,0.8c0,0.3,0.1,0.6,0.3,0.8
					c0.2,0.2,0.5,0.3,0.8,0.3c0.3,0,0.6-0.1,0.8-0.3c0.2-0.2,0.3-0.5,0.3-0.8c0-0.3-0.1-0.6-0.3-0.8C36,23.9,35.8,23.8,35.5,23.8"/>
				<path class="st2" d="M32.5,35.5c-0.2,0.2-0.3,0.5-0.3,0.8c0,0.3,0.1,0.6,0.3,0.8c0.2,0.2,0.5,0.3,0.8,0.3c0.3,0,0.6-0.1,0.8-0.3
					c0.2-0.2,0.3-0.5,0.3-0.8c0-0.3-0.1-0.6-0.3-0.8c-0.2-0.2-0.5-0.3-0.8-0.3C32.9,35.2,32.7,35.3,32.5,35.5"/>
				<path class="st2" d="M13.9,35.2h-1.1c-0.6,0-1.1,0.5-1.1,1.1c0,0.6,0.5,1.1,1.1,1.1h1.1c0.6,0,1.1-0.5,1.1-1.1
					C14.9,35.6,14.4,35.2,13.9,35.2"/>
				<path class="st2" d="M29.7,36.2c0-0.6-0.5-1.1-1.1-1.1H18.4c-0.6,0-1.1,0.5-1.1,1.1c0,0.6,0.5,1.1,1.1,1.1h10.2
					C29.2,37.3,29.7,36.8,29.7,36.2"/>
				<path class="st2" d="M13.9,40.9h-1.1c-0.6,0-1.1,0.5-1.1,1.1c0,0.6,0.5,1.1,1.1,1.1h1.1c0.6,0,1.1-0.5,1.1-1.1
					C14.9,41.3,14.4,40.9,13.9,40.9"/>
				<path class="st2" d="M18.4,40.9c-0.6,0-1.1,0.5-1.1,1.1c0,0.6,0.5,1.1,1.1,1.1h6.8c0.6,0,1.1-0.5,1.1-1.1c0-0.6-0.5-1.1-1.1-1.1
					H18.4z"/>
				<path class="st2" d="M34.3,41.9c0-0.6-0.5-1.1-1.1-1.1h-3.4c-0.6,0-1.1,0.5-1.1,1.1c0,0.6,0.5,1.1,1.1,1.1h3.4
					C33.8,43,34.3,42.5,34.3,41.9"/>
				<path class="st2" d="M12.7,46.5h-2.3c-0.6,0-1.1,0.5-1.1,1.1c0,0.6,0.5,1.1,1.1,1.1h2.3c0.6,0,1.1-0.5,1.1-1.1
					C13.8,47,13.3,46.5,12.7,46.5"/>
				<path class="st2" d="M20.7,46.5h-3.4c-0.6,0-1.1,0.5-1.1,1.1c0,0.6,0.5,1.1,1.1,1.1h3.4c0.6,0,1.1-0.5,1.1-1.1
					C21.8,47,21.3,46.5,20.7,46.5"/>
				<path class="st2" d="M36.6,46.5h-2.3c-0.6,0-1.1,0.5-1.1,1.1c0,0.6,0.5,1.1,1.1,1.1h2.3c0.6,0,1.1-0.5,1.1-1.1
					C37.7,47,37.2,46.5,36.6,46.5"/>
				<path class="st2" d="M26.4,14.5h9.1c0.6,0,1.1-0.5,1.1-1.1c0-0.6-0.5-1.1-1.1-1.1h-9.1c-0.6,0-1.1,0.5-1.1,1.1
					C25.3,14,25.8,14.5,26.4,14.5"/>
				<path class="st2" d="M29.8,46.5h-4.6c-0.6,0-1.1,0.5-1.1,1.1c0,0.6,0.5,1.1,1.1,1.1h4.6c0.6,0,1.1-0.5,1.1-1.1
					C30.9,47,30.4,46.5,29.8,46.5"/>
				<path class="st2" d="M41.2,14.5h2.3c0.6,0,1.1-0.5,1.1-1.1c0-0.6-0.5-1.1-1.1-1.1h-2.3c-0.6,0-1.1,0.5-1.1,1.1
					C40.1,14,40.6,14.5,41.2,14.5"/>
				<path class="st2" d="M41.2,20.2h2.3c0.6,0,1.1-0.5,1.1-1.1c0-0.6-0.5-1.1-1.1-1.1h-2.3c-0.6,0-1.1,0.5-1.1,1.1
					C40.1,19.7,40.6,20.2,41.2,20.2"/>
				<path class="st2" d="M34.1,20.2h2.3c0.6,0,1.1-0.5,1.1-1.1c0-0.6-0.5-1.1-1.1-1.1h-2.3c-0.6,0-1.1,0.5-1.1,1.1
					C33,19.7,33.5,20.2,34.1,20.2"/>
				<path class="st2" d="M44.6,23.8h-1.1c-0.6,0-1.1,0.5-1.1,1.1c0,0.6,0.5,1.1,1.1,1.1h1.1c0.6,0,1.1-0.5,1.1-1.1
					C45.7,24.3,45.2,23.8,44.6,23.8"/>
				<path class="st2" d="M41.2,31.6h2.3c0.6,0,1.1-0.5,1.1-1.1c0-0.6-0.5-1.1-1.1-1.1h-2.3c-0.6,0-1.1,0.5-1.1,1.1
					C40.1,31.1,40.6,31.6,41.2,31.6"/>
				<path class="st2" d="M33.6,31.6h2.3c0.6,0,1.1-0.5,1.1-1.1c0-0.6-0.5-1.1-1.1-1.1h-2.3c-0.6,0-1.1,0.5-1.1,1.1
					C32.5,31.1,33,31.6,33.6,31.6"/>
				<path class="st2" d="M48,14.5h4.6c0.6,0,1.1-0.5,1.1-1.1c0-0.6-0.5-1.1-1.1-1.1H48c-0.6,0-1.1,0.5-1.1,1.1
					C47,14,47.4,14.5,48,14.5"/>
				<path class="st2" d="M48,31.6h9.1c0.6,0,1.1-0.5,1.1-1.1c0-0.6-0.5-1.1-1.1-1.1H48c-0.6,0-1.1,0.5-1.1,1.1
					C47,31.1,47.4,31.6,48,31.6"/>
				<path class="st2" d="M48,20.2h11.4c0.6,0,1.1-0.5,1.1-1.1c0-0.6-0.5-1.1-1.1-1.1H48c-0.6,0-1.1,0.5-1.1,1.1
					C47,19.7,47.4,20.2,48,20.2"/>
				<path class="st2" d="M49.2,23.8c-0.6,0-1.1,0.5-1.1,1.1c0,0.6,0.5,1.1,1.1,1.1h4.6c0.6,0,1.1-0.5,1.1-1.1c0-0.6-0.5-1.1-1.1-1.1
					H49.2z"/>
				<path class="st2" d="M62.7,24.8c0-0.6-0.5-1.1-1.1-1.1h-3.4c-0.6,0-1.1,0.5-1.1,1.1c0,0.6,0.5,1.1,1.1,1.1h3.4
					C62.3,25.9,62.7,25.4,62.7,24.8"/>
				<path class="st2" d="M66.2,23.8c-0.3,0-0.6,0.1-0.8,0.3c-0.2,0.2-0.3,0.5-0.3,0.8c0,0.3,0.1,0.6,0.3,0.8
					c0.2,0.2,0.5,0.3,0.8,0.3c0.3,0,0.6-0.1,0.8-0.3c0.2-0.2,0.3-0.5,0.3-0.8c0-0.3-0.1-0.6-0.3-0.8C66.8,23.9,66.5,23.8,66.2,23.8"
					/>
				<path class="st2" d="M63.2,35.5c-0.2,0.2-0.3,0.5-0.3,0.8c0,0.3,0.1,0.6,0.3,0.8c0.2,0.2,0.5,0.3,0.8,0.3c0.3,0,0.6-0.1,0.8-0.3
					c0.2-0.2,0.3-0.5,0.3-0.8c0-0.3-0.1-0.6-0.3-0.8c-0.2-0.2-0.5-0.3-0.8-0.3C63.7,35.2,63.4,35.3,63.2,35.5"/>
				<path class="st2" d="M44.6,35.2h-1.1c-0.6,0-1.1,0.5-1.1,1.1c0,0.6,0.5,1.1,1.1,1.1h1.1c0.6,0,1.1-0.5,1.1-1.1
					C45.7,35.6,45.2,35.2,44.6,35.2"/>
				<path class="st2" d="M60.5,36.2c0-0.6-0.5-1.1-1.1-1.1H49.2c-0.6,0-1.1,0.5-1.1,1.1c0,0.6,0.5,1.1,1.1,1.1h10.2
					C60,37.3,60.5,36.8,60.5,36.2"/>
				<path class="st2" d="M44.6,40.9h-1.1c-0.6,0-1.1,0.5-1.1,1.1c0,0.6,0.5,1.1,1.1,1.1h1.1c0.6,0,1.1-0.5,1.1-1.1
					C45.7,41.3,45.2,40.9,44.6,40.9"/>
				<path class="st2" d="M39.1,35.2H38c-0.6,0-1.1,0.5-1.1,1.1c0,0.6,0.5,1.1,1.1,1.1h1.1c0.6,0,1.1-0.5,1.1-1.1
					C40.2,35.6,39.7,35.2,39.1,35.2"/>
				<path class="st2" d="M39.1,40.9H38c-0.6,0-1.1,0.5-1.1,1.1c0,0.6,0.5,1.1,1.1,1.1h1.1c0.6,0,1.1-0.5,1.1-1.1
					C40.2,41.3,39.7,40.9,39.1,40.9"/>
				<path class="st2" d="M49.2,40.9c-0.6,0-1.1,0.5-1.1,1.1c0,0.6,0.5,1.1,1.1,1.1H56c0.6,0,1.1-0.5,1.1-1.1c0-0.6-0.5-1.1-1.1-1.1
					H49.2z"/>
				<path class="st2" d="M65,41.9c0-0.6-0.5-1.1-1.1-1.1h-3.4c-0.6,0-1.1,0.5-1.1,1.1c0,0.6,0.5,1.1,1.1,1.1H64
					C64.5,43,65,42.5,65,41.9"/>
				<path class="st2" d="M43.5,46.5h-2.3c-0.6,0-1.1,0.5-1.1,1.1c0,0.6,0.5,1.1,1.1,1.1h2.3c0.6,0,1.1-0.5,1.1-1.1
					C44.5,47,44.1,46.5,43.5,46.5"/>
				<path class="st2" d="M51.4,46.5H48c-0.6,0-1.1,0.5-1.1,1.1c0,0.6,0.5,1.1,1.1,1.1h3.4c0.6,0,1.1-0.5,1.1-1.1
					C52.5,47,52,46.5,51.4,46.5"/>
				<path class="st2" d="M67.4,46.5h-2.3c-0.6,0-1.1,0.5-1.1,1.1c0,0.6,0.5,1.1,1.1,1.1h2.3c0.6,0,1.1-0.5,1.1-1.1
					C68.4,47,68,46.5,67.4,46.5"/>
				<path class="st2" d="M57.1,14.5h9.1c0.6,0,1.1-0.5,1.1-1.1c0-0.6-0.5-1.1-1.1-1.1h-9.1c-0.6,0-1.1,0.5-1.1,1.1
					C56.1,14,56.5,14.5,57.1,14.5"/>
				<path class="st2" d="M10.4,54.1h2.3c0.6,0,1.1-0.5,1.1-1.1c0-0.6-0.5-1.1-1.1-1.1h-2.3c-0.6,0-1.1,0.5-1.1,1.1
					C9.4,53.6,9.8,54.1,10.4,54.1"/>
				<path class="st2" d="M17.3,54.1h4.6c0.6,0,1.1-0.5,1.1-1.1c0-0.6-0.5-1.1-1.1-1.1h-4.6c-0.6,0-1.1,0.5-1.1,1.1
					C16.2,53.6,16.7,54.1,17.3,54.1"/>
				<path class="st2" d="M26.4,54.1h9.1c0.6,0,1.1-0.5,1.1-1.1c0-0.6-0.5-1.1-1.1-1.1h-9.1c-0.6,0-1.1,0.5-1.1,1.1
					C25.3,53.6,25.8,54.1,26.4,54.1"/>
				<path class="st2" d="M41.2,54.1h2.3c0.6,0,1.1-0.5,1.1-1.1c0-0.6-0.5-1.1-1.1-1.1h-2.3c-0.6,0-1.1,0.5-1.1,1.1
					C40.1,53.6,40.6,54.1,41.2,54.1"/>
				<path class="st2" d="M48,54.1h4.6c0.6,0,1.1-0.5,1.1-1.1c0-0.6-0.5-1.1-1.1-1.1H48C47.4,52,47,52.5,47,53
					C47,53.6,47.4,54.1,48,54.1"/>
				<path class="st2" d="M57.1,54.1h9.1c0.6,0,1.1-0.5,1.1-1.1c0-0.6-0.5-1.1-1.1-1.1h-9.1c-0.6,0-1.1,0.5-1.1,1.1
					C56.1,53.6,56.5,54.1,57.1,54.1"/>
				<path class="st2" d="M60.5,46.5H56c-0.6,0-1.1,0.5-1.1,1.1c0,0.6,0.5,1.1,1.1,1.1h4.6c0.6,0,1.1-0.5,1.1-1.1
					C61.6,47,61.1,46.5,60.5,46.5"/>
			</g>
		</g>
		<path class="st3" d="M142.8,19.6H73.9c-0.9,0-1.5,0.6-1.5,1.5v57c0,0.9,0.6,1.5,1.5,1.5h21.7v-3H75.4V32.1h65.9v44.5h-20.2v3h21.7
			c0.9,0,1.5-0.6,1.5-1.5v-57C144.4,20.2,143.7,19.6,142.8,19.6 M141.3,29.1H75.4v-6.5h65.9V29.1z"/>
		<rect x="77.2" y="24.3" class="st3" width="5.4" height="3"/>
		<rect x="84.3" y="24.3" class="st3" width="5.4" height="3"/>
		<path class="st3" d="M108.4,39.8c-7.4,0-13.4,6-13.4,13.4c0,3.4,1.3,6.7,3.6,9.2v20.3c0,0.5,0.3,1,0.8,1.4
			c0.3,0.2,0.5,0.2,0.7,0.2c0.3,0,0.6-0.1,0.9-0.3l7.4-5.3l7.5,5.4c0.3,0.1,0.5,0.3,0.9,0.3c0.2,0,0.4,0,0.8-0.2
			c0.5-0.3,0.7-0.8,0.7-1.3V62.3c2.3-2.5,3.6-5.7,3.6-9.2C121.8,45.8,115.8,39.8,108.4,39.8 M115.2,64.6v15.1l-5.3-3.8v-9.5
			C111.7,66.2,113.5,65.6,115.2,64.6 M106.9,66.4v9.5l-5.3,3.8V64.6C103.4,65.7,105.2,66.3,106.9,66.4 M108.4,42.8
			c5.7,0,10.4,4.7,10.4,10.4s-4.7,10.4-10.4,10.4c-5.7,0-10.4-4.7-10.4-10.4S102.7,42.8,108.4,42.8"/>
		<path class="st3" d="M106.9,50.8v5.6h-2.4v3h7.8v-3h-2.4v-9.2c0-0.6-0.3-1.1-0.9-1.4c-0.6-0.3-1.2-0.2-1.7,0.3l-3.8,3.8l2.1,2.1
			L106.9,50.8z"/>
		<g class="st1">
			<g>
				<defs>
					<rect id="SVGID_7_" x="78.4" y="70.7" width="3" height="3"/>
				</defs>
				<clipPath id="SVGID_8_">
					<use xlink:href="#SVGID_7_"  style="overflow:visible;"/>
				</clipPath>
				<rect x="78.3" y="70.7" class="st4" width="3" height="3"/>
			</g>
		</g>
		<g class="st1">
			<g>
				<defs>
					<rect id="SVGID_9_" x="83.1" y="70.7" width="3" height="3"/>
				</defs>
				<clipPath id="SVGID_10_">
					<use xlink:href="#SVGID_9_"  style="overflow:visible;"/>
				</clipPath>
				<rect x="83.1" y="70.7" class="st5" width="3" height="3"/>
			</g>
		</g>
		<g class="st1">
			<g>
				<defs>
					<rect id="SVGID_11_" x="87.9" y="70.7" width="3" height="3"/>
				</defs>
				<clipPath id="SVGID_12_">
					<use xlink:href="#SVGID_11_"  style="overflow:visible;"/>
				</clipPath>
				<rect x="87.9" y="70.7" class="st6" width="3" height="3"/>
			</g>
		</g>
		<g class="st1">
			<g>
				<defs>
					<rect id="SVGID_13_" x="92.6" y="70.7" width="3" height="3"/>
				</defs>
				<clipPath id="SVGID_14_">
					<use xlink:href="#SVGID_13_"  style="overflow:visible;"/>
				</clipPath>
				<rect x="92.6" y="70.7" class="st7" width="3" height="3"/>
			</g>
		</g>
		<g class="st1">
			<g>
				<defs>
					<rect id="SVGID_15_" x="78.4" y="65.9" width="3" height="3"/>
				</defs>
				<clipPath id="SVGID_16_">
					<use xlink:href="#SVGID_15_"  style="overflow:visible;"/>
				</clipPath>
				<rect x="78.3" y="65.9" class="st8" width="3" height="3"/>
			</g>
		</g>
		<g class="st1">
			<g>
				<defs>
					<rect id="SVGID_17_" x="83.1" y="65.9" width="3" height="3"/>
				</defs>
				<clipPath id="SVGID_18_">
					<use xlink:href="#SVGID_17_"  style="overflow:visible;"/>
				</clipPath>
				<rect x="83.1" y="65.9" class="st9" width="3" height="3"/>
			</g>
		</g>
		<g class="st1">
			<g>
				<defs>
					<rect id="SVGID_19_" x="87.9" y="65.9" width="3" height="3"/>
				</defs>
				<clipPath id="SVGID_20_">
					<use xlink:href="#SVGID_19_"  style="overflow:visible;"/>
				</clipPath>
				<rect x="87.9" y="65.9" class="st10" width="3" height="3"/>
			</g>
		</g>
		<g class="st1">
			<g>
				<defs>
					<rect id="SVGID_21_" x="92.6" y="65.9" width="3" height="3"/>
				</defs>
				<clipPath id="SVGID_22_">
					<use xlink:href="#SVGID_21_"  style="overflow:visible;"/>
				</clipPath>
				<rect x="92.6" y="65.9" class="st11" width="3" height="3"/>
			</g>
		</g>
		<g class="st1">
			<g>
				<defs>
					<rect id="SVGID_23_" x="78.4" y="61.2" width="3" height="3"/>
				</defs>
				<clipPath id="SVGID_24_">
					<use xlink:href="#SVGID_23_"  style="overflow:visible;"/>
				</clipPath>
				<rect x="78.3" y="61.2" class="st12" width="3" height="3"/>
			</g>
		</g>
		<g class="st1">
			<g>
				<defs>
					<rect id="SVGID_25_" x="83.1" y="61.2" width="3" height="3"/>
				</defs>
				<clipPath id="SVGID_26_">
					<use xlink:href="#SVGID_25_"  style="overflow:visible;"/>
				</clipPath>
				<rect x="83.1" y="61.2" class="st13" width="3" height="3"/>
			</g>
		</g>
		<g class="st1">
			<g>
				<defs>
					<rect id="SVGID_27_" x="87.9" y="61.2" width="3" height="3"/>
				</defs>
				<clipPath id="SVGID_28_">
					<use xlink:href="#SVGID_27_"  style="overflow:visible;"/>
				</clipPath>
				<rect x="87.9" y="61.2" class="st14" width="3" height="3"/>
			</g>
		</g>
		<g class="st1">
			<g>
				<defs>
					<rect id="SVGID_29_" x="78.4" y="56.4" width="3" height="3"/>
				</defs>
				<clipPath id="SVGID_30_">
					<use xlink:href="#SVGID_29_"  style="overflow:visible;"/>
				</clipPath>
				<rect x="78.3" y="56.4" class="st15" width="3" height="3"/>
			</g>
		</g>
		<g class="st1">
			<g>
				<defs>
					<rect id="SVGID_31_" x="83.1" y="56.4" width="3" height="3"/>
				</defs>
				<clipPath id="SVGID_32_">
					<use xlink:href="#SVGID_31_"  style="overflow:visible;"/>
				</clipPath>
				<rect x="83.1" y="56.4" class="st16" width="3" height="3"/>
			</g>
		</g>
		<g class="st1">
			<g>
				<defs>
					<rect id="SVGID_33_" x="78.4" y="51.7" width="3" height="3"/>
				</defs>
				<clipPath id="SVGID_34_">
					<use xlink:href="#SVGID_33_"  style="overflow:visible;"/>
				</clipPath>
				<rect x="78.3" y="51.7" class="st17" width="3" height="3"/>
			</g>
		</g>
		<g class="st1">
			<g>
				<defs>
					<rect id="SVGID_35_" x="78.4" y="46.9" width="3" height="3"/>
				</defs>
				<clipPath id="SVGID_36_">
					<use xlink:href="#SVGID_35_"  style="overflow:visible;"/>
				</clipPath>
				<rect x="78.3" y="46.9" class="st18" width="3" height="3"/>
			</g>
		</g>
		<g class="st1">
			<g>
				<defs>
					<rect id="SVGID_37_" x="83.1" y="51.7" width="3" height="3"/>
				</defs>
				<clipPath id="SVGID_38_">
					<use xlink:href="#SVGID_37_"  style="overflow:visible;"/>
				</clipPath>
				<rect x="83.1" y="51.7" class="st19" width="3" height="3"/>
			</g>
		</g>
		<g class="st1">
			<g>
				<defs>
					<rect id="SVGID_39_" x="87.9" y="56.4" width="3" height="3"/>
				</defs>
				<clipPath id="SVGID_40_">
					<use xlink:href="#SVGID_39_"  style="overflow:visible;"/>
				</clipPath>
				<rect x="87.9" y="56.4" class="st20" width="3" height="3"/>
			</g>
		</g>
		<g class="st1">
			<g>
				<defs>
					<rect id="SVGID_41_" x="92.6" y="61.2" width="3" height="3"/>
				</defs>
				<clipPath id="SVGID_42_">
					<use xlink:href="#SVGID_41_"  style="overflow:visible;"/>
				</clipPath>
				<rect x="92.6" y="61.2" class="st21" width="3" height="3"/>
			</g>
		</g>
		<g class="st1">
			<g>
				<defs>
					<rect id="SVGID_43_" x="121.1" y="70.7" width="3" height="3"/>
				</defs>
				<clipPath id="SVGID_44_">
					<use xlink:href="#SVGID_43_"  style="overflow:visible;"/>
				</clipPath>
				<rect x="121.1" y="70.7" class="st22" width="3" height="3"/>
			</g>
		</g>
		<g class="st1">
			<g>
				<defs>
					<rect id="SVGID_45_" x="125.9" y="70.7" width="3" height="3"/>
				</defs>
				<clipPath id="SVGID_46_">
					<use xlink:href="#SVGID_45_"  style="overflow:visible;"/>
				</clipPath>
				<rect x="125.9" y="70.7" class="st23" width="3" height="3"/>
			</g>
		</g>
		<g class="st1">
			<g>
				<defs>
					<rect id="SVGID_47_" x="130.6" y="70.7" width="3" height="3"/>
				</defs>
				<clipPath id="SVGID_48_">
					<use xlink:href="#SVGID_47_"  style="overflow:visible;"/>
				</clipPath>
				<rect x="130.6" y="70.7" class="st24" width="3" height="3"/>
			</g>
		</g>
		<g class="st1">
			<g>
				<defs>
					<rect id="SVGID_49_" x="135.4" y="70.7" width="3" height="3"/>
				</defs>
				<clipPath id="SVGID_50_">
					<use xlink:href="#SVGID_49_"  style="overflow:visible;"/>
				</clipPath>
				<rect x="135.4" y="70.7" class="st25" width="3" height="3"/>
			</g>
		</g>
		<g class="st1">
			<g>
				<defs>
					<rect id="SVGID_51_" x="121.1" y="65.9" width="3" height="3"/>
				</defs>
				<clipPath id="SVGID_52_">
					<use xlink:href="#SVGID_51_"  style="overflow:visible;"/>
				</clipPath>
				<rect x="121.1" y="65.9" class="st26" width="3" height="3"/>
			</g>
		</g>
		<g class="st1">
			<g>
				<defs>
					<rect id="SVGID_53_" x="125.9" y="65.9" width="3" height="3"/>
				</defs>
				<clipPath id="SVGID_54_">
					<use xlink:href="#SVGID_53_"  style="overflow:visible;"/>
				</clipPath>
				<rect x="125.9" y="65.9" class="st27" width="3" height="3"/>
			</g>
		</g>
		<g class="st1">
			<g>
				<defs>
					<rect id="SVGID_55_" x="130.6" y="65.9" width="3" height="3"/>
				</defs>
				<clipPath id="SVGID_56_">
					<use xlink:href="#SVGID_55_"  style="overflow:visible;"/>
				</clipPath>
				<rect x="130.6" y="65.9" class="st28" width="3" height="3"/>
			</g>
		</g>
		<g class="st1">
			<g>
				<defs>
					<rect id="SVGID_57_" x="135.4" y="65.9" width="3" height="3"/>
				</defs>
				<clipPath id="SVGID_58_">
					<use xlink:href="#SVGID_57_"  style="overflow:visible;"/>
				</clipPath>
				<rect x="135.4" y="65.9" class="st29" width="3" height="3"/>
			</g>
		</g>
		<g class="st1">
			<g>
				<defs>
					<rect id="SVGID_59_" x="121.1" y="61.2" width="3" height="3"/>
				</defs>
				<clipPath id="SVGID_60_">
					<use xlink:href="#SVGID_59_"  style="overflow:visible;"/>
				</clipPath>
				<rect x="121.1" y="61.2" class="st30" width="3" height="3"/>
			</g>
		</g>
		<g class="st1">
			<g>
				<defs>
					<rect id="SVGID_61_" x="125.9" y="61.2" width="3" height="3"/>
				</defs>
				<clipPath id="SVGID_62_">
					<use xlink:href="#SVGID_61_"  style="overflow:visible;"/>
				</clipPath>
				<rect x="125.9" y="61.2" class="st31" width="3" height="3"/>
			</g>
		</g>
		<g class="st1">
			<g>
				<defs>
					<rect id="SVGID_63_" x="130.6" y="61.2" width="3" height="3"/>
				</defs>
				<clipPath id="SVGID_64_">
					<use xlink:href="#SVGID_63_"  style="overflow:visible;"/>
				</clipPath>
				<rect x="130.6" y="61.2" class="st32" width="3" height="3"/>
			</g>
		</g>
		<g class="st1">
			<g>
				<defs>
					<rect id="SVGID_65_" x="135.4" y="61.2" width="3" height="3"/>
				</defs>
				<clipPath id="SVGID_66_">
					<use xlink:href="#SVGID_65_"  style="overflow:visible;"/>
				</clipPath>
				<rect x="135.4" y="61.2" class="st33" width="3" height="3"/>
			</g>
		</g>
		<g class="st1">
			<g>
				<defs>
					<rect id="SVGID_67_" x="125.9" y="56.4" width="3" height="3"/>
				</defs>
				<clipPath id="SVGID_68_">
					<use xlink:href="#SVGID_67_"  style="overflow:visible;"/>
				</clipPath>
				<rect x="125.9" y="56.4" class="st34" width="3" height="3"/>
			</g>
		</g>
		<g class="st1">
			<g>
				<defs>
					<rect id="SVGID_69_" x="130.6" y="56.4" width="3" height="3"/>
				</defs>
				<clipPath id="SVGID_70_">
					<use xlink:href="#SVGID_69_"  style="overflow:visible;"/>
				</clipPath>
				<rect x="130.6" y="56.4" class="st35" width="3" height="3"/>
			</g>
		</g>
		<g class="st1">
			<g>
				<defs>
					<rect id="SVGID_71_" x="135.4" y="56.4" width="3" height="3"/>
				</defs>
				<clipPath id="SVGID_72_">
					<use xlink:href="#SVGID_71_"  style="overflow:visible;"/>
				</clipPath>
				<rect x="135.4" y="56.4" class="st36" width="3" height="3"/>
			</g>
		</g>
		<g class="st1">
			<g>
				<defs>
					<rect id="SVGID_73_" x="130.6" y="51.7" width="3" height="3"/>
				</defs>
				<clipPath id="SVGID_74_">
					<use xlink:href="#SVGID_73_"  style="overflow:visible;"/>
				</clipPath>
				<rect x="130.6" y="51.7" class="st37" width="3" height="3"/>
			</g>
		</g>
		<g class="st1">
			<g>
				<defs>
					<rect id="SVGID_75_" x="135.4" y="51.7" width="3" height="3"/>
				</defs>
				<clipPath id="SVGID_76_">
					<use xlink:href="#SVGID_75_"  style="overflow:visible;"/>
				</clipPath>
				<rect x="135.4" y="51.7" class="st38" width="3" height="3"/>
			</g>
		</g>
		<g class="st1">
			<g>
				<defs>
					<rect id="SVGID_77_" x="135.4" y="46.9" width="3" height="3"/>
				</defs>
				<clipPath id="SVGID_78_">
					<use xlink:href="#SVGID_77_"  style="overflow:visible;"/>
				</clipPath>
				<rect x="135.4" y="46.9" class="st39" width="3" height="3"/>
			</g>
		</g>
		<path class="st3" d="M72.7,91.2l-0.1,0L72.6,91c-0.1-0.2-0.3-0.4-0.5-0.6l-3.1-2.3c-2.5-1.7-3.8-4.7-3.6-7.9l0-0.2h4.8v-3H7.6
			C5,77,3,75,3,72.4v-8.1h67.2v-3H3V7.6C3,5,5,3,7.6,3h89.3c2.6,0,4.6,2,4.6,4.6v9.7h3V7.6c0-4.2-3.4-7.6-7.6-7.6H7.6
			C3.4,0,0,3.4,0,7.6v64.8C0,76.6,3.4,80,7.6,80h31.5l0,0.2c0.3,3.2-1.1,6.2-3.7,7.9l-3.1,2.3c-0.3,0.2-0.5,0.4-0.7,0.7l-0.1,0.1
			l-0.1,0C29.4,91.9,28,93.8,28,96c0,2.8,2.1,5,5,5h38.5c2.8,0,5-2.1,5-5C76.5,93.6,75,91.7,72.7,91.2 M42.2,80h20.2l0,0.3
			c-0.3,3.9,1.4,7.8,4.6,10.3l0.6,0.5H36.7l0.6-0.5c3.2-2.3,5-6.2,4.8-10.3L42.2,80z M71.5,98H33c-1.2,0-2-0.8-2-2c0-1.2,0.8-2,2-2
			h38.5c1.2,0,2,0.8,2,2C73.5,97.2,72.7,98,71.5,98"/>
		<g class="st40">
			<g>
				<defs>
					<rect id="SVGID_79_" x="96" y="40.5" width="25.4" height="42.8"/>
				</defs>
				<clipPath id="SVGID_80_">
					<use xlink:href="#SVGID_79_"  style="overflow:visible;"/>
				</clipPath>
				<path class="st41" d="M121.5,53.2c0,7-5.7,12.7-12.7,12.7c-7,0-12.7-5.7-12.7-12.7s5.7-12.7,12.7-12.7
					C115.8,40.5,121.5,46.2,121.5,53.2"/>
				<polygon class="st41" points="116.3,83.2 108.2,76.9 99.9,83.2 99.9,60.3 116.3,60.3 				"/>
			</g>
		</g>
		<g class="st40">
			<g>
				<defs>
					<rect id="SVGID_81_" x="1.7" y="62.4" width="68.4" height="16.3"/>
				</defs>
				<clipPath id="SVGID_82_">
					<use xlink:href="#SVGID_81_"  style="overflow:visible;"/>
				</clipPath>
				<path class="st42" d="M70.1,78.6H7.5c-3.2,0-5.8-2.6-5.8-5.8V62.4h68.4V78.6z"/>
			</g>
		</g>
		<g class="st40">
			<g>
				<defs>
					<rect id="SVGID_83_" x="73.8" y="21.4" width="69.5" height="8.5"/>
				</defs>
				<clipPath id="SVGID_84_">
					<use xlink:href="#SVGID_83_"  style="overflow:visible;"/>
				</clipPath>
				<rect x="73.8" y="21.4" class="st43" width="69.5" height="8.5"/>
			</g>
		</g>
	</g>
</g>
</svg>
