<?xml version="1.0" encoding="utf-8"?>
<!-- Generator: Adobe Illustrator 19.1.0, SVG Export Plug-In . SVG Version: 6.00 Build 0)  -->
<svg version="1.1" id="Layer_1" xmlns="http://www.w3.org/2000/svg" xmlns:xlink="http://www.w3.org/1999/xlink" x="0px" y="0px"
	 viewBox="0 0 143.1 79.2" style="enable-background:new 0 0 143.1 79.2;" xml:space="preserve">
<style type="text/css">
	.st0{clip-path:url(#SVGID_2_);}
	.st1{clip-path:url(#SVGID_4_);fill:#FFFFFF;}
	.st2{opacity:0.6;clip-path:url(#SVGID_4_);}
	.st3{clip-path:url(#SVGID_6_);fill:#FFFFFF;}
	.st4{clip-path:url(#SVGID_8_);fill:#FFFFFF;}
	.st5{clip-path:url(#SVGID_10_);fill:#FFFFFF;}
	.st6{clip-path:url(#SVGID_12_);fill:#FFFFFF;}
	.st7{clip-path:url(#SVGID_14_);fill:#FFFFFF;}
	.st8{clip-path:url(#SVGID_16_);fill:#FFFFFF;}
	.st9{clip-path:url(#SVGID_18_);fill:#FFFFFF;}
	.st10{clip-path:url(#SVGID_20_);fill:#FFFFFF;}
	.st11{clip-path:url(#SVGID_22_);fill:#FFFFFF;}
	.st12{clip-path:url(#SVGID_24_);fill:#FFFFFF;}
	.st13{clip-path:url(#SVGID_26_);fill:#FFFFFF;}
	.st14{clip-path:url(#SVGID_28_);fill:#FFFFFF;}
	.st15{clip-path:url(#SVGID_30_);fill:#FFFFFF;}
	.st16{clip-path:url(#SVGID_32_);fill:#FFFFFF;}
	.st17{clip-path:url(#SVGID_34_);fill:#FFFFFF;}
</style>
<g>
	<defs>
		<rect id="SVGID_1_" width="143.1" height="79.2"/>
	</defs>
	<clipPath id="SVGID_2_">
		<use xlink:href="#SVGID_1_"  style="overflow:visible;"/>
	</clipPath>
	<g class="st0">
		<defs>
			<rect id="SVGID_3_" y="0" width="143.1" height="79.2"/>
		</defs>
		<clipPath id="SVGID_4_">
			<use xlink:href="#SVGID_3_"  style="overflow:visible;"/>
		</clipPath>
		<path class="st1" d="M23.1,79.2c-0.5-4.1-1-8.2-1.6-12.4C17.4,67.2,13.3,67.6,9,68c-0.5-5.7-0.9-11.5-1.4-17.2H0
			c0.3-1,0.6-1.8,0.9-2.7c1.8-5.2,3.6-10.4,5.3-15.5c0.2-0.6,0.3-1.3,0.3-1.9c-0.1-3.7,0.3-7.2,1.4-10.7C9.8,14.3,13,9.7,17.6,6.1
			c3.5-2.7,7.4-4.5,11.7-5.3C31.1,0.4,33,0.3,35,0c0,0.9,0,1.6,0,2.3c0,0.2-0.4,0.4-0.6,0.4c-3.1,0.1-6,0.7-8.9,1.8
			c-5.1,2-9.1,5.4-12.1,9.9c-2.8,4.3-4.2,9-4.1,14.2c0,2.4-0.4,4.7-1.3,6.9c-1.4,3.9-2.7,7.8-4,11.7c-0.1,0.2-0.1,0.4-0.3,0.8
			c1.1,0,2.1,0,3,0c0.9,0,1.8,0,2.7,0c0.6,0,0.7,0.2,0.8,0.7c0.4,5.3,0.8,10.6,1.3,15.9c0,0.1,0,0.1,0.1,0.3
			c4.1-0.4,8.2-0.8,12.3-1.2c0.6,5,1.2,9.9,1.8,14.8c-0.8,0.1-1.5,0.3-2.2,0.4H23.1z"/>
		<path class="st1" d="M56,79.2c-0.3-2.4-0.7-4.7-1-7.1c-0.5-3.2-1-6.4-1.4-9.6c-0.1-0.4,0-0.8,0.2-1.2c1.3-3.9,2.7-7.7,3.9-11.6
			c0.3-0.8,0.4-1.7,0.4-2.6c0.1-1.3,0-2.5,0-3.8h2.6c0,1.3,0,2.6,0,3.8c0.1,1.3-0.2,2.4-0.6,3.6c-1.1,3.1-2,6.2-3.2,9.3
			c-0.6,1.6-0.7,3.1-0.4,4.8c0.7,4.6,1.4,9.2,2.1,13.7c0,0.1,0,0.2,0,0.2c-0.6,0.1-1.3,0.3-1.9,0.4H56z"/>
		<g class="st2">
			<g>
				<defs>
					<rect id="SVGID_5_" x="37.8" width="2.6" height="2.7"/>
				</defs>
				<clipPath id="SVGID_6_">
					<use xlink:href="#SVGID_5_"  style="overflow:visible;"/>
				</clipPath>
				<rect x="37.8" y="0" class="st3" width="2.6" height="2.7"/>
			</g>
		</g>
		<g class="st2">
			<g>
				<defs>
					<rect id="SVGID_7_" x="43.5" width="2.5" height="2.7"/>
				</defs>
				<clipPath id="SVGID_8_">
					<use xlink:href="#SVGID_7_"  style="overflow:visible;"/>
				</clipPath>
				<rect x="43.5" y="0" class="st4" width="2.5" height="2.7"/>
			</g>
		</g>
		<g class="st2">
			<g>
				<defs>
					<rect id="SVGID_9_" x="17.3" y="5.7" width="49.2" height="73.3"/>
				</defs>
				<clipPath id="SVGID_10_">
					<use xlink:href="#SVGID_9_"  style="overflow:visible;"/>
				</clipPath>
				<path class="st5" d="M32.2,43.9h-3.9V40H23v-2.5h5.2v-3.1H17.3v-2.6h10.9v-3H17.3v-2.6h10.9v-3H23v-2.6h5.2v-3.9h3.9v-5.3h2.6
					v5.2h3V5.7h2.6v10.9h3V5.7H46v10.9h3V5.8h11.8v2.5h-9.1v8.3h3.8v3.9h5.2v2.6h-5.2v3h10.9v2.6H55.6v3h10.9v2.6H55.6v3h5.2V40
					h-5.2v3.9h-3.9v5.2h-2.6V44h-3v34.9h-2.6v-35h-3v29.3h-2.6V44h-3v2.9c0,1.6,0,3.2,0,4.9c0,0.6-0.2,1-0.6,1.4
					c-0.8,0.7-1.5,1.4-2.2,2.2c-0.2,0.2-0.4,0.6-0.4,0.9c-0.1,0.9,0,1.9,0,2.9h-2.5c0-1.5,0-3,0-4.5c0-0.2,0.2-0.3,0.4-0.5
					c0.8-0.8,1.6-1.6,2.4-2.4c0.2-0.2,0.3-0.5,0.3-0.7C32.2,48.7,32.2,46.4,32.2,43.9 M30.9,41.2h22v-22h-22V41.2z"/>
			</g>
		</g>
		<g class="st2">
			<g>
				<defs>
					<rect id="SVGID_11_" x="69.4" y="26.2" width="2.7" height="2.5"/>
				</defs>
				<clipPath id="SVGID_12_">
					<use xlink:href="#SVGID_11_"  style="overflow:visible;"/>
				</clipPath>
				<rect x="69.4" y="26.2" class="st6" width="2.7" height="2.5"/>
			</g>
		</g>
		<g class="st2">
			<g>
				<defs>
					<rect id="SVGID_13_" x="69.5" y="31.8" width="2.7" height="2.5"/>
				</defs>
				<clipPath id="SVGID_14_">
					<use xlink:href="#SVGID_13_"  style="overflow:visible;"/>
				</clipPath>
				<rect x="69.5" y="31.8" class="st7" width="2.7" height="2.5"/>
			</g>
		</g>
		<rect x="11.7" y="26.2" class="st1" width="2.7" height="2.5"/>
		<g class="st2">
			<g>
				<defs>
					<rect id="SVGID_15_" x="37.9" y="76.2" width="2.5" height="2.7"/>
				</defs>
				<clipPath id="SVGID_16_">
					<use xlink:href="#SVGID_15_"  style="overflow:visible;"/>
				</clipPath>
				<rect x="37.9" y="76.2" class="st8" width="2.5" height="2.7"/>
			</g>
		</g>
		<rect x="11.7" y="31.8" class="st1" width="2.7" height="2.5"/>
		<g class="st2">
			<g>
				<defs>
					<rect id="SVGID_17_" x="34.8" y="23.3" width="2.8" height="2.5"/>
				</defs>
				<clipPath id="SVGID_18_">
					<use xlink:href="#SVGID_17_"  style="overflow:visible;"/>
				</clipPath>
				<rect x="34.8" y="23.3" class="st9" width="2.8" height="2.5"/>
			</g>
		</g>
		<g class="st2">
			<g>
				<defs>
					<rect id="SVGID_19_" x="40.5" y="34.8" width="2.8" height="2.5"/>
				</defs>
				<clipPath id="SVGID_20_">
					<use xlink:href="#SVGID_19_"  style="overflow:visible;"/>
				</clipPath>
				<rect x="40.5" y="34.8" class="st10" width="2.8" height="2.5"/>
			</g>
		</g>
		<g class="st2">
			<g>
				<defs>
					<rect id="SVGID_21_" x="40.5" y="29" width="2.8" height="2.5"/>
				</defs>
				<clipPath id="SVGID_22_">
					<use xlink:href="#SVGID_21_"  style="overflow:visible;"/>
				</clipPath>
				<rect x="40.5" y="29" class="st11" width="2.8" height="2.5"/>
			</g>
		</g>
		<g class="st2">
			<g>
				<defs>
					<rect id="SVGID_23_" x="34.7" y="28.9" width="2.8" height="2.6"/>
				</defs>
				<clipPath id="SVGID_24_">
					<use xlink:href="#SVGID_23_"  style="overflow:visible;"/>
				</clipPath>
				<path class="st12" d="M37.6,31.5h-2.8c0-0.7,0-1.4,0-2.2c0-0.1,0.3-0.4,0.4-0.4c0.8,0,1.6,0,2.4,0V31.5z"/>
			</g>
		</g>
		<g class="st2">
			<g>
				<defs>
					<rect id="SVGID_25_" x="34.8" y="34.8" width="2.8" height="2.5"/>
				</defs>
				<clipPath id="SVGID_26_">
					<use xlink:href="#SVGID_25_"  style="overflow:visible;"/>
				</clipPath>
				<rect x="34.8" y="34.8" class="st13" width="2.8" height="2.5"/>
			</g>
		</g>
		<g class="st2">
			<g>
				<defs>
					<rect id="SVGID_27_" x="40.6" y="23.2" width="2.8" height="2.5"/>
				</defs>
				<clipPath id="SVGID_28_">
					<use xlink:href="#SVGID_27_"  style="overflow:visible;"/>
				</clipPath>
				<rect x="40.5" y="23.2" class="st14" width="2.8" height="2.5"/>
			</g>
		</g>
		<g class="st2">
			<g>
				<defs>
					<rect id="SVGID_29_" x="46.3" y="29" width="2.7" height="2.5"/>
				</defs>
				<clipPath id="SVGID_30_">
					<use xlink:href="#SVGID_29_"  style="overflow:visible;"/>
				</clipPath>
				<rect x="46.3" y="29" class="st15" width="2.7" height="2.5"/>
			</g>
		</g>
		<g class="st2">
			<g>
				<defs>
					<rect id="SVGID_31_" x="46.3" y="23.2" width="2.7" height="2.5"/>
				</defs>
				<clipPath id="SVGID_32_">
					<use xlink:href="#SVGID_31_"  style="overflow:visible;"/>
				</clipPath>
				<rect x="46.3" y="23.2" class="st16" width="2.7" height="2.5"/>
			</g>
		</g>
		<g class="st2">
			<g>
				<defs>
					<rect id="SVGID_33_" x="46.3" y="34.7" width="2.7" height="2.5"/>
				</defs>
				<clipPath id="SVGID_34_">
					<use xlink:href="#SVGID_33_"  style="overflow:visible;"/>
				</clipPath>
				<rect x="46.3" y="34.7" class="st17" width="2.7" height="2.5"/>
			</g>
		</g>
		<polygon class="st1" points="82.6,10.3 82.6,13.4 82.6,16.5 79.8,16.5 79.8,1 82.5,1 82.5,7.3 88.1,7.3 88.1,1 91,1 91,16.5 
			88.2,16.5 88.2,10.3 		"/>
		<path class="st1" d="M68.8,10.2v6.3H66V1c2.5,0,5-0.2,7.5,0.1c2.3,0.2,3.9,2.4,3.8,4.7c-0.1,2.4-1.9,4.3-4.4,4.4
			C71.5,10.2,70.2,10.2,68.8,10.2 M68.9,3.9v3.4c1.3,0,2.6,0,3.8,0c1,0,1.7-0.8,1.7-1.7c0-0.9-0.7-1.7-1.7-1.7
			C71.4,3.8,70.2,3.9,68.9,3.9"/>
		<path class="st1" d="M93.5,16.5V1C93.7,1,94,1,94.2,1c2,0,3.9,0,5.9,0c2.7,0,4.7,2,4.7,4.6c0,2.6-1.9,4.6-4.6,4.6
			c-1.2,0-2.5,0-3.8,0v6.3H93.5z M96.4,7.3c1.4,0,2.6,0,3.9,0c0.9,0,1.6-0.7,1.7-1.6c0.1-0.8-0.5-1.7-1.2-1.7c-1.4-0.1-2.8,0-4.3,0
			V7.3z"/>
		<path class="st1" d="M99.9,57.2v10.1h-2.8c0-0.3,0-0.6,0-0.8c0-4.2,0-8.5,0-12.7c0-0.8,0.1-1.5,0.9-1.8c0.8-0.3,1.4,0.1,1.9,0.7
			c1.3,1.5,2.5,3.1,3.9,4.7c1.3-1.5,2.5-3,3.7-4.4c0.2-0.2,0.3-0.5,0.5-0.6c0.5-0.2,1.1-0.5,1.5-0.4c0.4,0.1,0.9,0.8,0.9,1.3
			c0.1,4.6,0,9.2,0,13.8c0,0.1-0.1,0.2-0.1,0.3h-2.7v-9.8c-0.1,0-0.1-0.1-0.2-0.1c-0.7,0.8-1.4,1.6-2,2.4c-1.3,1.6-2,1.6-3.3,0
			C101.5,59,100.8,58.2,99.9,57.2"/>
		<polygon class="st1" points="78.7,67.3 75.9,67.3 75.9,61.1 70.3,61.1 70.3,67.3 67.5,67.3 67.5,51.9 70.3,51.9 70.3,58.1 
			75.9,58.1 75.9,51.8 78.7,51.8 		"/>
		<polygon class="st1" points="89.3,67.3 86.5,67.3 86.5,54.7 82.3,54.7 82.3,51.9 93.6,51.9 93.6,54.6 89.3,54.6 		"/>
		<path class="st1" d="M114,51.8h2.8c0,0.3,0.1,0.7,0.1,1c0,3.1,0,6.1,0,9.2c0,1.9,0.6,2.5,2.5,2.5c2,0,3.9,0,5.9,0v2.9
			c-1.1,0-2.2,0-3.3,0c-1.4,0-2.8,0-4.2-0.1c-2-0.2-3.6-2-3.8-3.9c0-0.4,0-0.7,0-1.1C114,58.8,114,55.4,114,51.8"/>
		<path class="st1" d="M128.6,21.3h2.9v3.1h3.1v2.9h-3v3.5h3v2.9h-3.1v3.1h-2.8v-3.1h-3.5v3.1h-2.9v-3.1h-3.1v-2.9h3.1v-3.5h-3.1
			v-2.8h3.1v-3.1h2.9v3h3.5V21.3z M125.2,30.8h3.4v-3.4h-3.4V30.8z"/>
		<path class="st1" d="M112.7,30.9h2.7c0.7,3.1-1.4,5.9-4.6,6c-0.7,0-1.3,0-2,0c-2.6-0.1-4.5-1.9-4.6-4.5c-0.1-2.2-0.1-4.4,0-6.6
			c0.1-2.6,2-4.4,4.7-4.5c0.6,0,1.1,0,1.7,0c3.3,0,5.4,2.6,4.8,6h-2.8c0-0.5,0-0.9,0-1.3c-0.1-1.1-0.7-1.7-1.8-1.7
			c-0.7,0-1.4,0-2.1,0c-1,0.1-1.7,0.7-1.7,1.7c0,2.1,0,4.3,0,6.4c0,1,0.7,1.7,1.7,1.7c0.6,0,1.3,0,1.9,0c1.3,0,1.9-0.7,2-2
			C112.8,31.6,112.7,31.3,112.7,30.9"/>
		<path class="st1" d="M143,26.6c-0.5-4.4-2.1-8.4-4.8-12c-5.9-7.7-16.6-11.1-25.8-8.1C98.8,11,92.1,25.8,97.9,38.8
			c0.2,0.5,0.4,0.9,0.7,1.5H63.1l0.2,2.9h65.2v32.6H61.2l0.4,2.9h69.9v-1.1c0-9.1,0-18.1,0-27.2c0-0.7,0.2-1.1,0.8-1.5
			c4.9-3.1,8.2-7.5,9.8-13.1c0.5-1.6,0.7-3.2,1-4.8v-3.8C143.1,27,143,26.8,143,26.6 M131.9,45.7c-0.1,0.1-0.2,0.1-0.5,0.3v-5.7
			c-0.5,0-0.9,0-1.3,0c-9.1,0-18.2,0-27.3,0c-0.7,0-1.1-0.2-1.4-0.8c-7.1-12.2,0-28.1,13.8-30.9c11.2-2.2,22.2,4.9,24.4,16.1
			C141.5,33.3,138.7,40.3,131.9,45.7"/>
	</g>
</g>
</svg>
