<?xml version="1.0" encoding="utf-8"?>
<!-- Generator: Adobe Illustrator 19.1.0, SVG Export Plug-In . SVG Version: 6.00 Build 0)  -->
<svg version="1.1" id="Layer_1" xmlns="http://www.w3.org/2000/svg" xmlns:xlink="http://www.w3.org/1999/xlink" x="0px" y="0px"
	 viewBox="0 0 60 60" style="enable-background:new 0 0 60 60;" xml:space="preserve">
<style type="text/css">
	.st0{clip-path:url(#SVGID_2_);fill:#4995EC;}
	.st1{clip-path:url(#SVGID_2_);fill:#444B54;}
	.st2{clip-path:url(#SVGID_2_);fill:#61B63D;}
</style>
<g>
	<defs>
		<rect id="SVGID_1_" y="0" width="60" height="60"/>
	</defs>
	<clipPath id="SVGID_2_">
		<use xlink:href="#SVGID_1_"  style="overflow:visible;"/>
	</clipPath>
	<path class="st0" d="M39.8,30c0,5.4-4.4,9.8-9.8,9.8c-5.4,0-9.8-4.4-9.8-9.8s4.4-9.8,9.8-9.8C35.4,20.2,39.8,24.6,39.8,30"/>
	<path class="st1" d="M1,31c0.6,0,1-0.4,1-1C2,14.6,14.6,2,30,2c6.3,0,12.4,2.1,17.3,6H42c-0.6,0-1,0.4-1,1c0,0.6,0.4,1,1,1h7.9
		c0.1,0,0.1,0,0.2,0H51V1c0-0.6-0.4-1-1-1c-0.6,0-1,0.4-1,1v5.8C43.6,2.4,37,0,30,0C13.5,0,0,13.5,0,30C0,30.6,0.4,31,1,31"/>
	<path class="st1" d="M30,8C17.9,8,8,17.9,8,30s9.9,22,22,22s22-9.9,22-22S42.1,8,30,8 M30,50c-11,0-20-9-20-20s9-20,20-20
		s20,9,20,20S41,50,30,50"/>
	<path class="st2" d="M30,15c0.6,0,1-0.4,1-1v-2c0-0.6-0.4-1-1-1c-0.6,0-1,0.4-1,1v2C29,14.6,29.4,15,30,15"/>
	<path class="st2" d="M30,45c-0.6,0-1,0.4-1,1v2c0,0.6,0.4,1,1,1c0.6,0,1-0.4,1-1v-2C31,45.4,30.6,45,30,45"/>
	<path class="st2" d="M46,31h2c0.6,0,1-0.4,1-1c0-0.6-0.4-1-1-1h-2c-0.6,0-1,0.4-1,1C45,30.6,45.4,31,46,31"/>
	<path class="st2" d="M14,29h-2c-0.6,0-1,0.4-1,1c0,0.6,0.4,1,1,1h2c0.6,0,1-0.4,1-1C15,29.4,14.6,29,14,29"/>
	<path class="st1" d="M31,26.5v-5.1c0-0.6-0.4-1-1-1c-0.6,0-1,0.4-1,1v5.1c-1.7,0.4-3,2-3,3.9c0,0.7,0.2,1.4,0.6,2l-7,7.1
		c-0.4,0.4-0.4,1,0,1.4c0.2,0.2,0.5,0.3,0.7,0.3c0.3,0,0.5-0.1,0.7-0.3l7-7.1c0.6,0.4,1.3,0.6,2,0.6c2.2,0,4-1.8,4-4
		C34,28.5,32.7,27,31,26.5 M30,32.4c-1.1,0-2-0.9-2-2c0-1.1,0.9-2,2-2c1.1,0,2,0.9,2,2C32,31.5,31.1,32.4,30,32.4"/>
	<path class="st1" d="M11.9,52.7c-0.3,0.4-0.2,1.1,0.2,1.4c0.2,0.1,0.4,0.2,0.6,0.2c0.3,0,0.6-0.1,0.8-0.4c0.3-0.4,0.2-1.1-0.2-1.4
		C12.8,52.1,12.2,52.2,11.9,52.7"/>
	<path class="st1" d="M7.2,46.3c-0.3-0.4-1-0.5-1.4-0.2c-0.5,0.3-0.6,0.9-0.2,1.4c0.2,0.3,0.5,0.4,0.8,0.4c0.2,0,0.4-0.1,0.6-0.2
		C7.4,47.4,7.5,46.7,7.2,46.3"/>
	<path class="st1" d="M7.6,48.5c-0.4,0.4-0.5,1-0.1,1.4c0.2,0.2,0.5,0.3,0.8,0.3c0.2,0,0.5-0.1,0.7-0.2c0.4-0.4,0.4-1,0.1-1.4
		C8.7,48.1,8,48.1,7.6,48.5"/>
	<path class="st1" d="M11.1,50.6c-0.4-0.4-1-0.3-1.4,0.1c-0.4,0.4-0.3,1,0.1,1.4c0.2,0.2,0.4,0.3,0.7,0.3c0.3,0,0.5-0.1,0.7-0.3
		C11.5,51.6,11.5,51,11.1,50.6L11.1,50.6z"/>
	<path class="st1" d="M5.7,43.8L5.7,43.8c-0.3-0.5-0.9-0.6-1.4-0.4c-0.5,0.3-0.6,0.9-0.4,1.4c0.2,0.3,0.5,0.5,0.9,0.5
		c0.2,0,0.3,0,0.5-0.1C5.8,44.9,5.9,44.3,5.7,43.8"/>
	<path class="st1" d="M58.9,32.1L58.9,32.1c0.6,0,1-0.4,1-1c0-0.6-0.4-1-1-1c-0.5,0-1,0.4-1,1S58.4,32.1,58.9,32.1"/>
	<path class="st1" d="M1.3,34c0.5-0.1,0.9-0.6,0.9-1.1c-0.1-0.6-0.5-1-1.1-0.9c-0.5,0-0.9,0.5-0.9,1.1c0.1,0.5,0.5,0.9,1,0.9
		C1.2,34,1.2,34,1.3,34"/>
	<path class="st1" d="M1.8,36.9c0.5-0.1,0.9-0.6,0.8-1.2C2.5,35.2,2,34.9,1.4,35c-0.5,0.1-0.9,0.6-0.8,1.2c0.1,0.5,0.5,0.8,1,0.8
		C1.7,37,1.8,37,1.8,36.9"/>
	<path class="st1" d="M4.4,41.3c-0.2-0.5-0.8-0.7-1.3-0.5c-0.5,0.2-0.7,0.8-0.5,1.3c0.2,0.4,0.5,0.6,0.9,0.6c0.1,0,0.3,0,0.4-0.1
		C4.3,42.4,4.6,41.8,4.4,41.3"/>
	<path class="st1" d="M3.3,38.6c-0.2-0.5-0.7-0.8-1.2-0.6c-0.5,0.2-0.8,0.7-0.6,1.3c0.1,0.4,0.5,0.7,0.9,0.7c0.1,0,0.2,0,0.3,0
		C3.2,39.6,3.5,39.1,3.3,38.6"/>
	<path class="st1" d="M29.5,58c-0.6,0-1,0.4-1,1c0,0.6,0.4,1,1,1h0c0.5,0,1-0.4,1-1C30.4,58.5,30,58,29.5,58"/>
	<path class="st1" d="M52.1,47.1c-0.3,0.4-0.3,1.1,0.2,1.4c0.2,0.1,0.4,0.2,0.6,0.2c0.3,0,0.6-0.1,0.8-0.4c0.3-0.4,0.3-1.1-0.2-1.4
		C53.1,46.6,52.5,46.7,52.1,47.1"/>
	<path class="st1" d="M45.8,53.1c-0.5,0.3-0.6,0.9-0.2,1.4c0.2,0.3,0.5,0.4,0.8,0.4c0.2,0,0.4,0,0.6-0.2c0.4-0.3,0.6-0.9,0.2-1.4
		C46.9,52.9,46.3,52.8,45.8,53.1"/>
	<path class="st1" d="M48.1,51.3c-0.4,0.4-0.5,1-0.1,1.4c0.2,0.2,0.5,0.4,0.8,0.4c0.2,0,0.5-0.1,0.7-0.2c0.4-0.4,0.5-1,0.1-1.4
		C49.2,51,48.5,51,48.1,51.3"/>
	<path class="st1" d="M55.2,44.4c-0.5-0.3-1.1-0.1-1.4,0.3c-0.3,0.5-0.2,1.1,0.3,1.4c0.2,0.1,0.3,0.1,0.5,0.1c0.3,0,0.7-0.2,0.9-0.5
		C55.8,45.4,55.6,44.7,55.2,44.4"/>
	<path class="st1" d="M50.2,49.3c-0.4,0.4-0.4,1,0,1.4c0.2,0.2,0.4,0.3,0.7,0.3c0.3,0,0.5-0.1,0.7-0.3c0.4-0.4,0.4-1,0-1.4
		C51.2,48.9,50.6,48.9,50.2,49.3"/>
	<path class="st1" d="M58.8,33.1c-0.5-0.1-1.1,0.3-1.1,0.9c-0.1,0.5,0.3,1,0.8,1.1c0,0,0.1,0,0.1,0c0.5,0,0.9-0.4,1-0.9
		C59.8,33.7,59.4,33.2,58.8,33.1"/>
	<path class="st1" d="M58.4,36.1c-0.5-0.1-1.1,0.2-1.2,0.7c-0.1,0.5,0.2,1.1,0.7,1.2c0.1,0,0.2,0,0.2,0c0.4,0,0.9-0.3,1-0.8
		C59.2,36.8,58.9,36.2,58.4,36.1"/>
	<path class="st1" d="M15.7,54.1c-0.5-0.3-1.1-0.1-1.4,0.4c-0.3,0.5-0.1,1.1,0.3,1.4c0.2,0.1,0.3,0.1,0.5,0.1c0.3,0,0.7-0.2,0.9-0.5
		C16.3,55,16.2,54.4,15.7,54.1"/>
	<path class="st1" d="M57.6,39c-0.5-0.2-1.1,0.1-1.3,0.6c-0.2,0.5,0.1,1.1,0.6,1.3c0.1,0,0.2,0.1,0.3,0.1c0.4,0,0.8-0.2,0.9-0.7
		C58.4,39.7,58.1,39.2,57.6,39"/>
	<path class="st1" d="M56.5,41.8c-0.5-0.2-1.1,0-1.3,0.5c-0.2,0.5,0,1.1,0.5,1.3c0.1,0.1,0.3,0.1,0.4,0.1c0.4,0,0.7-0.2,0.9-0.6
		C57.2,42.6,57,42,56.5,41.8"/>
	<path class="st1" d="M26.6,57.8c-0.6-0.1-1,0.3-1.1,0.9c-0.1,0.6,0.3,1.1,0.9,1.1v0h0.1c0.5,0,0.9-0.4,1-0.9
		C27.5,58.4,27.1,57.9,26.6,57.8"/>
	<path class="st1" d="M20.9,56.5c-0.5-0.2-1.1,0.1-1.3,0.6c-0.2,0.5,0.1,1.1,0.6,1.3c0.1,0,0.2,0,0.3,0c0.4,0,0.8-0.3,0.9-0.7
		C21.7,57.2,21.5,56.7,20.9,56.5"/>
	<path class="st1" d="M23.7,57.3c-0.5-0.1-1.1,0.2-1.2,0.8c-0.1,0.5,0.2,1.1,0.8,1.2c0.1,0,0.1,0,0.2,0c0.5,0,0.9-0.3,1-0.8
		C24.6,58,24.3,57.4,23.7,57.3"/>
	<path class="st1" d="M18.3,55.4c-0.5-0.2-1.1,0-1.3,0.5c-0.2,0.5,0,1.1,0.5,1.3c0.1,0.1,0.3,0.1,0.4,0.1c0.4,0,0.7-0.2,0.9-0.6
		C19,56.2,18.8,55.6,18.3,55.4"/>
	<path class="st1" d="M35.2,57.5c-0.5,0.1-0.9,0.6-0.8,1.2c0.1,0.5,0.5,0.8,1,0.8c0.1,0,0.1,0,0.2,0c0.5-0.1,0.9-0.6,0.8-1.2
		C36.3,57.8,35.8,57.4,35.2,57.5"/>
	<path class="st1" d="M38,56.8c-0.5,0.1-0.8,0.7-0.7,1.2c0.1,0.4,0.5,0.7,1,0.7c0.1,0,0.2,0,0.3,0c0.5-0.2,0.8-0.7,0.7-1.2
		C39.1,57,38.6,56.7,38,56.8"/>
	<path class="st1" d="M40.8,55.9c-0.5,0.2-0.8,0.8-0.5,1.3c0.2,0.4,0.5,0.6,0.9,0.6c0.1,0,0.3,0,0.4-0.1c0.5-0.2,0.8-0.8,0.5-1.3
		C41.8,55.9,41.3,55.6,40.8,55.9"/>
	<path class="st1" d="M32.3,57.9c-0.6,0.1-1,0.5-0.9,1.1c0,0.5,0.5,0.9,1,0.9h0.1v0c0.5,0,1-0.5,0.9-1.1
		C33.4,58.3,32.9,57.9,32.3,57.9"/>
	<path class="st1" d="M43.4,54.6c-0.5,0.3-0.7,0.9-0.4,1.4c0.2,0.3,0.5,0.5,0.9,0.5c0.2,0,0.3,0,0.5-0.1c0.5-0.3,0.7-0.9,0.4-1.3
		C44.5,54.5,43.8,54.3,43.4,54.6"/>
</g>
</svg>
