<?xml version="1.0" encoding="utf-8"?>
<!-- Generator: Adobe Illustrator 19.1.0, SVG Export Plug-In . SVG Version: 6.00 Build 0)  -->
<svg version="1.1" id="Layer_1" xmlns="http://www.w3.org/2000/svg" xmlns:xlink="http://www.w3.org/1999/xlink" x="0px" y="0px"
	 viewBox="0 0 60 58.3" style="enable-background:new 0 0 60 58.3;" xml:space="preserve">
<style type="text/css">
	.st0{fill:#61B63D;}
	.st1{clip-path:url(#SVGID_2_);fill:#444B54;}
	.st2{clip-path:url(#SVGID_2_);fill:#4995EC;}
</style>
<rect x="6" y="0.8" class="st0" width="3.8" height="11.9"/>
<rect x="21.1" y="0.8" class="st0" width="3.8" height="11.9"/>
<rect x="36.2" y="0.8" class="st0" width="3.8" height="11.9"/>
<g>
	<defs>
		<rect id="SVGID_1_" y="0" width="60" height="58.3"/>
	</defs>
	<clipPath id="SVGID_2_">
		<use xlink:href="#SVGID_1_"  style="overflow:visible;"/>
	</clipPath>
	<path class="st1" d="M15,18H7C6.4,18,6,18.5,6,19v8c0,0.5,0.4,0.9,0.9,0.9h8c0.5,0,0.9-0.4,0.9-0.9v-8C15.9,18.5,15.5,18,15,18
		 M14,26.1H7.9v-6.1H14V26.1z"/>
	<path class="st1" d="M27,18h-8C18.5,18,18,18.5,18,19v8c0,0.5,0.4,0.9,0.9,0.9h8c0.5,0,0.9-0.4,0.9-0.9v-8C27.9,18.5,27.5,18,27,18
		 M26.1,26.1h-6.1v-6.1h6.1V26.1z"/>
	<path class="st1" d="M15,30.1H7C6.4,30.1,6,30.5,6,31v8C6,39.5,6.4,40,7,40h8c0.5,0,0.9-0.4,0.9-0.9v-8
		C15.9,30.5,15.5,30.1,15,30.1 M14,38.1H7.9v-6.1H14V38.1z"/>
	<path class="st1" d="M46,24.6V7C46,6.4,45.6,6,45,6H41V0.9C41,0.4,40.5,0,40,0h-4c-0.5,0-0.9,0.4-0.9,0.9V6h-9.1V0.9
		C25.9,0.4,25.5,0,25,0h-4C20.5,0,20,0.4,20,0.9V6h-9.1V0.9C10.9,0.4,10.5,0,10,0H6C5.4,0,5,0.4,5,0.9V6H0.9C0.4,6,0,6.4,0,7V43
		C0,43.5,0.4,44,0.9,44h25.3c0.6,3.8,2.5,7.3,5.4,10c3.1,2.8,7.2,4.4,11.4,4.4c9.4,0,17-7.6,17-17C60,33.1,54,26,46,24.6 M37,7V1.9
		h2.1V7V12H37V7z M21.9,7V1.9h2.1V7V12h-2.1V7z M6.9,7V1.9H9V7V12H6.9V7z M27,30.1h-8c-0.5,0-0.9,0.4-0.9,0.9v8
		c0,0.5,0.4,0.9,0.9,0.9h7.1c0,0.5-0.1,0.9-0.1,1.4c0,0.2,0,0.5,0,0.7H1.9V7.9H5V13c0,0.5,0.4,0.9,0.9,0.9h4c0.5,0,0.9-0.4,0.9-0.9
		V7.9H20V13c0,0.5,0.4,0.9,0.9,0.9h4c0.5,0,0.9-0.4,0.9-0.9V7.9h9.1V13c0,0.5,0.4,0.9,0.9,0.9h4c0.5,0,0.9-0.4,0.9-0.9V7.9h3.1v16.5
		c-0.4,0-0.7,0-1.1,0c-1,0-2.1,0.1-3.1,0.3V19c0-0.5-0.4-0.9-0.9-0.9h-8c-0.5,0-0.9,0.4-0.9,0.9v8c0,0.5,0.4,0.9,0.9,0.9h1.6
		c-1.6,1.2-2.9,2.7-4,4.4c-0.3,0.4-0.5,0.8-0.7,1.3V31C27.9,30.5,27.5,30.1,27,30.1 M26.1,38.1h-6.1v-6.1h6.1V38.1z M38.1,19.9v5.2
		c-0.8,0.3-1.6,0.6-2.4,1h-3.7v-6.1H38.1z M43,56.4c-7.8,0-14.2-5.8-15-13.5c0,0,0,0,0,0c-0.1-0.5-0.1-1.1-0.1-1.6
		c0-5.8,3.2-10.9,8.3-13.5c0,0,0,0,0,0c1-0.5,2-0.9,3-1.1h0c1.2-0.3,2.5-0.5,3.8-0.5c0.6,0,1.3,0,1.9,0.1c7.5,0.9,13.2,7.4,13.2,15
		C58.1,49.7,51.4,56.4,43,56.4"/>
	<path class="st1" d="M56.1,36.7c-0.2-0.5-0.7-0.7-1.2-0.6c-0.5,0.2-0.7,0.7-0.6,1.2c0.5,1.3,0.7,2.6,0.7,4c0,0.5,0.4,0.9,0.9,0.9
		c0.5,0,0.9-0.4,0.9-0.9C56.9,39.7,56.6,38.2,56.1,36.7"/>
	<path class="st1" d="M54.4,33.5c-1.8-2.6-4.5-4.6-7.6-5.5c-0.5-0.1-1,0.1-1.2,0.6c-0.1,0.5,0.1,1,0.6,1.2c2.7,0.8,5,2.4,6.6,4.7
		c0.2,0.3,0.5,0.4,0.8,0.4c0.2,0,0.4-0.1,0.5-0.2C54.6,34.5,54.7,33.9,54.4,33.5"/>
	<path class="st2" d="M43,30.7c-5.9,0-10.6,4.8-10.6,10.6S37.2,52,43,52s10.6-4.8,10.6-10.6S48.9,30.7,43,30.7 M43,50.1
		c-4.8,0-8.8-3.9-8.8-8.8c0-4.8,3.9-8.8,8.8-8.8s8.8,3.9,8.8,8.8C51.8,46.2,47.9,50.1,43,50.1"/>
	<path class="st2" d="M48.5,41.1H44v-4.6c0-0.5-0.4-0.9-0.9-0.9c-0.5,0-0.9,0.4-0.9,0.9V42c0,0.5,0.4,0.9,0.9,0.9h5.5
		c0.5,0,0.9-0.4,0.9-0.9C49.5,41.5,49.1,41.1,48.5,41.1"/>
</g>
</svg>
