<?xml version="1.0" encoding="utf-8"?>
<!-- Generator: Adobe Illustrator 19.1.0, SVG Export Plug-In . SVG Version: 6.00 Build 0)  -->
<svg version="1.1" id="Layer_1" xmlns="http://www.w3.org/2000/svg" xmlns:xlink="http://www.w3.org/1999/xlink" x="0px" y="0px"
	 viewBox="0 0 63.8 60" style="enable-background:new 0 0 63.8 60;" xml:space="preserve">
<style type="text/css">
	.st0{fill:#444B54;}
	.st1{clip-path:url(#SVGID_2_);fill:#444B54;}
	.st2{clip-path:url(#SVGID_2_);fill:#4995EC;}
	.st3{clip-path:url(#SVGID_2_);fill:#61B63D;}
</style>
<polygon class="st0" points="34.2,25.5 31.6,27.9 28.9,25.5 27.5,27 30.5,29.8 30.5,34.7 32.6,34.7 32.6,29.8 35.7,27 "/>
<polygon class="st0" points="42.3,25.5 40.9,27 43.9,29.8 43.9,34.7 46,34.7 46,28.9 "/>
<g>
	<defs>
		<rect id="SVGID_1_" width="63.8" height="60"/>
	</defs>
	<clipPath id="SVGID_2_">
		<use xlink:href="#SVGID_1_"  style="overflow:visible;"/>
	</clipPath>
	<path class="st1" d="M41.4,15.9c0,0.6-0.1,1-0.4,1.3c-0.5,0.5-3.5,0.4-3.8,0.4v2.1c0.3,0,2.6,0.1,2.9,0V22c0,1-0.8,1.9-1.9,1.9h0
		c-1,0-1.9-0.8-1.9-1.9v-2.2h-2.1V22c0,2.2,1.8,4,4,4h0c2.2,0,4-1.8,4-4v-3c0.1-0.1,0.2-0.2,0.3-0.2c0.7-0.7,1-1.6,1-2.8H41.4z"/>
	<polygon class="st1" points="20.9,25.5 17.2,28.9 17.2,34.7 19.3,34.7 19.3,29.8 22.3,27 	"/>
	<path class="st1" d="M28,15.9c0,0.6-0.1,1-0.4,1.3c-0.5,0.5-3.5,0.4-3.8,0.4v2.1c0.3,0,2.6,0.1,2.9,0V22c0,1-0.8,1.9-1.9,1.9h0
		c-1,0-1.9-0.8-1.9-1.9v-2.2h-2.1V22c0,2.2,1.8,4,4,4h0c2.2,0,4-1.8,4-4v-3c0.1-0.1,0.2-0.2,0.3-0.2c0.7-0.7,1-1.6,1-2.8H28z"/>
	<path class="st1" d="M37,5.2c0,0.4-0.3,0.7-0.7,0.7s-0.7-0.3-0.7-0.7h0V3c0-1.8-2.6-2.4-5.2-2.7C28.3,0,26.1,0,26.1,0l0,2.1
		c0.5,0,1.1,0,1.6,0.1v3c0,0.4-0.3,0.7-0.7,0.7c-0.4,0-0.7-0.3-0.7-0.7h-2.1c0,1.6,1.3,2.8,2.8,2.8c0.5,0,0.9-0.1,1.3-0.3
		c0.7,1.1,2,1.9,3.4,1.9c1.4,0,2.7-0.8,3.4-1.9C35.4,7.9,35.9,8,36.3,8c1.6,0,2.8-1.3,2.8-2.8H37z M33.5,5.6c0,1-0.8,1.9-1.9,1.9
		s-1.9-0.8-1.9-1.9V2.4c1.9,0.2,3.3,0.5,3.8,0.9V5.6z"/>
	<polygon class="st1" points="35.6,9.1 34.2,10.6 37.2,13.4 37.2,16 39.4,16 39.4,12.5 	"/>
	<polygon class="st1" points="27.7,9.1 24,12.5 24,16 26.1,16 26.1,13.4 29.1,10.6 	"/>
	<rect x="13.7" y="16.8" class="st2" width="2.1" height="2.1"/>
	<rect x="13.7" y="22.7" class="st2" width="2.1" height="2.1"/>
	<rect x="13.7" y="10.9" class="st2" width="2.1" height="2.1"/>
	<rect x="7.9" y="22.7" class="st2" width="2.1" height="2.1"/>
	<rect x="7.9" y="16.8" class="st2" width="2.1" height="2.1"/>
	<rect x="2.1" y="22.7" class="st2" width="2.1" height="2.1"/>
	<rect x="47" y="22.7" class="st3" width="2.1" height="2.1"/>
	<rect x="47" y="16.8" class="st3" width="2.1" height="2.1"/>
	<rect x="47" y="10.9" class="st3" width="2.1" height="2.1"/>
	<rect x="52.8" y="22.7" class="st3" width="2.1" height="2.1"/>
	<rect x="52.8" y="16.8" class="st3" width="2.1" height="2.1"/>
	<rect x="58.6" y="22.7" class="st3" width="2.1" height="2.1"/>
	<path class="st1" d="M51.9,50.3l-23.4,7.4L3.3,41.9l2-2.2l20.9,10.7h12.1v-2.1H26.7L22.7,46v-1.7h12l0.3-0.6
		c0.6-1.2,1.6-3.1,2.3-3.6l0.1,0l0.1,0c5.6-5.1,16.6,0.7,16.7,0.7h9.8v-2.1h-9C53,37.7,42.2,32.7,36,38.4c-1,0.8-2.1,2.7-2.6,3.8
		H20.6v2.7L4.8,37.1L0,42.4L28.2,60l24-7.6h11.6v-2.1H51.9z"/>
</g>
</svg>
