<?xml version="1.0" encoding="utf-8"?>
<!-- Generator: Adobe Illustrator 19.1.0, SVG Export Plug-In . SVG Version: 6.00 Build 0)  -->
<svg version="1.1" id="Layer_1" xmlns="http://www.w3.org/2000/svg" xmlns:xlink="http://www.w3.org/1999/xlink" x="0px" y="0px"
	 viewBox="0 0 59.6 59.7" style="enable-background:new 0 0 59.6 59.7;" xml:space="preserve">
<style type="text/css">
	.st0{fill:#4995EC;}
	.st1{fill:#61B63D;}
	.st2{clip-path:url(#SVGID_2_);fill:#444B54;}
	.st3{clip-path:url(#SVGID_2_);fill:#FFFFFF;}
</style>
<rect x="34.8" y="8.5" class="st0" width="5.7" height="5.5"/>
<rect x="43.4" y="8.5" class="st0" width="5.7" height="5.5"/>
<rect x="52.2" y="8.5" class="st0" width="5.7" height="5.5"/>
<rect x="0.7" y="44.6" class="st1" width="58" height="3.7"/>
<g>
	<defs>
		<rect id="SVGID_1_" y="0" width="59.6" height="59.7"/>
	</defs>
	<clipPath id="SVGID_2_">
		<use xlink:href="#SVGID_1_"  style="overflow:visible;"/>
	</clipPath>
	<path class="st2" d="M59.6,49.1v-5.4H47.2H47v-0.2v-1.9v-0.2h0.2h9.7c1.5,0,2.7-1.2,2.7-2.7V23.1c0-1.5-1.2-2.7-2.7-2.7H29.8
		c-1.5,0-2.7,1.2-2.7,2.7v15.5c0,1.5,1.2,2.7,2.7,2.7h9.7h0.2v0.2v1.9v0.2h-0.2H23h-0.2v-0.2v-1c0-1.5-1.3-2.7-2.8-2.7h-3.3h-0.1
		l-0.1-0.1L6.7,23.5l-0.1-0.1l0.1-0.1c0.4-0.6,0.7-1.3,0.7-2.1c0-0.2,0-0.4-0.1-0.7l0-0.1l0-0.1l4.1-7.4l0.3-0.5l0.1,0.5
		c0.4,1.8,1.4,3.4,2.9,4.5l0.5,0.4l2.3-2l0.1-0.1l0.1,0c0.5,0.2,1,0.3,1.5,0.3c2.6,0,4.6-2.1,4.6-4.6c0-0.3,0-0.6-0.1-1l0-0.1
		l0.1-0.1l2.3-2l-0.3-0.5C24.3,5.4,21.8,4,19.1,4c-0.2,0-0.3,0-0.5,0l-0.1,0l-0.1,0l-0.1-0.1l-3.1-3.1L8.4,6.6l1.2,1.6l0.1,0.1
		L9.6,8.4l-6.4,9.1l0,0.1l-0.1,0C1.3,17.9,0,19.4,0,21.2c0,1.3,0.7,2.5,1.9,3.2l0.1,0l0,0.1l8,15l0.2,0.3H9.8H6.5
		c-1.5,0-2.6,1.2-2.6,2.7v1v0.2H3.7H0v5.4h2.7h0.2v0.2v10.4h1.5V49.3v-0.2h0.2h1.9h0.2v0.2v10.4h1.5V49.3v-0.2h0.2h42.6h0.2v0.2
		v10.4h1.5V49.3v-0.2H53H55h0.2v0.2v10.4h1.5V49.3v-0.2h0.2H59.6z M28.6,35.7V23.1c0-0.6,0.5-1.2,1.2-1.2h27.1
		c0.6,0,1.2,0.5,1.2,1.2v12.6v0.2h-0.2h-29h-0.2V35.7z M39.5,39.8h-9.7c-0.6,0-1.2-0.5-1.2-1.2v-1v-0.2h0.2h29h0.2v0.2v1
		c0,0.6-0.5,1.2-1.2,1.2h-9.7H39.5z M45.5,41.3v0.2v1.9v0.2h-0.2h-3.9h-0.2v-0.2v-1.9v-0.2h0.2h3.9H45.5z M22.1,12.2
		c-0.3,1.3-1.4,2.3-2.8,2.5l-0.6,0.1l0.5-0.4l2.6-2.3l0.5-0.4L22.1,12.2z M19.1,5.5c1.8,0,3.6,0.9,4.7,2.3L24,8l-0.1,0.1l-8.6,7.7
		L15,15.9l-0.1-0.1c-1.2-1.1-1.8-2.7-1.8-4.3C13.1,8.2,15.8,5.5,19.1,5.5 M10.6,6.7L15,3l0.1-0.1L15.3,3l1.1,1.2l0.2,0.2l-0.3,0.1
		c-1.9,0.7-3.4,2.2-4.2,4.1L12,8.9l-0.2-0.3l-1.2-1.6l-0.1-0.2L10.6,6.7z M5.1,17.5l5.4-7.7l0.2-0.2l0.2,0.2l0.2,0.3l0.1,0.1
		L11,10.3l-4.5,8.2l-0.1,0.2l-0.2-0.2c-0.3-0.3-0.7-0.6-1.1-0.7l-0.2-0.1L5.1,17.5z M1.5,21.2c0-1.2,1-2.1,2.1-2.1
		c1.2,0,2.1,1,2.1,2.1c0,1.2-1,2.1-2.1,2.1C2.5,23.3,1.5,22.4,1.5,21.2 M4.1,25.1l-0.1-0.3l0.3,0c0.4-0.1,0.7-0.2,1.1-0.3l0.2-0.1
		l0.1,0.2l9.2,14.9l0.2,0.3h-0.4H12h-0.1l-0.1-0.1L4.1,25.1z M6.5,41.3h13.5c0.7,0,1.2,0.5,1.2,1.2v1v0.2h-0.2H5.6H5.4v-0.2v-1
		C5.4,41.8,5.9,41.3,6.5,41.3 M51.1,47.5H8.5H2.7h-1H1.5v-0.2v-1.9v-0.2h0.2h1.9H23h16.5h7.7h10.6h0.2v0.2v1.9v0.2h-0.2h-1H51.1z"/>
	<rect x="28.1" y="16.6" class="st2" width="30.6" height="1.5"/>
	<path class="st2" d="M33.9,15.2h7.3V0.1h-7.3V15.2z M39.7,9.6v3.9v0.2h-0.2h-3.9h-0.2v-0.2V9.6V9.4h0.2h3.9h0.2V9.6z M39.7,1.8v5.8
		v0.2h-0.2h-3.9h-0.2V7.6V1.8V1.6h0.2h3.9h0.2V1.8z"/>
	<path class="st3" d="M37.5,10.7c-0.4,0-0.8,0.3-0.8,0.8c0,0.4,0.3,0.8,0.8,0.8c0.4,0,0.8-0.3,0.8-0.8C38.3,11.1,38,10.7,37.5,10.7"
		/>
	<path class="st2" d="M42.6,15.2h7.3V0.1h-7.3V15.2z M44.1,7.6V1.8V1.6h0.2h3.9h0.2v0.2v5.8v0.2h-0.2h-3.9h-0.2V7.6z M48.4,9.6v3.9
		v0.2h-0.2h-3.9h-0.2v-0.2V9.6V9.4h0.2h3.9h0.2V9.6z"/>
	<path class="st3" d="M46.3,10.7c-0.4,0-0.8,0.3-0.8,0.8c0,0.4,0.3,0.8,0.8,0.8c0.4,0,0.8-0.3,0.8-0.8C47,11.1,46.7,10.7,46.3,10.7"
		/>
	<path class="st2" d="M51.2,15.3h7.5V0h-7.5V15.3z M52.9,1.7H57v6h-4.1V1.7z M57.1,9.6v3.9v0.2h-0.2H53h-0.2v-0.2V9.6V9.4H53h3.9
		h0.2V9.6z"/>
	<path class="st3" d="M55,10.7c-0.4,0-0.8,0.3-0.8,0.8c0,0.4,0.3,0.8,0.8,0.8c0.4,0,0.8-0.3,0.8-0.8C55.7,11.1,55.4,10.7,55,10.7"/>
</g>
</svg>
