<?xml version="1.0" encoding="utf-8"?>
<!-- Generator: Adobe Illustrator 19.1.0, SVG Export Plug-In . SVG Version: 6.00 Build 0)  -->
<svg version="1.1" id="Layer_1" xmlns="http://www.w3.org/2000/svg" xmlns:xlink="http://www.w3.org/1999/xlink" x="0px" y="0px"
	 viewBox="0 0 60 58" style="enable-background:new 0 0 60 58;" xml:space="preserve">
<style type="text/css">
	.st0{clip-path:url(#SVGID_2_);fill:#4995EC;}
	.st1{clip-path:url(#SVGID_2_);fill:#61B63D;}
	.st2{clip-path:url(#SVGID_2_);fill:#444B54;}
	.st3{clip-path:url(#SVGID_2_);fill:#FFFFFF;}
</style>
<g>
	<defs>
		<rect id="SVGID_1_" width="60" height="58"/>
	</defs>
	<clipPath id="SVGID_2_">
		<use xlink:href="#SVGID_1_"  style="overflow:visible;"/>
	</clipPath>
	<path class="st0" d="M44,38c0,0-3.9-1.1-6.5,2s-1.9,18-1.9,18h22.2V43.2c0,0-0.8-5.2-4.8-5.2c-0.9,0-2.8,0-2.8,0l-3.2,7.3L44,38z"
		/>
	<rect x="23.2" y="26.2" class="st1" width="13.8" height="5.8"/>
	<path class="st2" d="M56,10H41V6h2c0.6,0,1-0.4,1-1V1c0-0.6-0.4-1-1-1H17c-0.6,0-1,0.4-1,1v4c0,0.6,0.4,1,1,1h2v4H4
		c-2.2,0-4,1.8-4,4v15c0,0.6,0.4,1,1,1h3v27c0,0.6,0.4,1,1,1h26v-2H6V30h14v-2H5H2V14c0-1.1,0.9-2,2-2h16h20h16c1.1,0,2,0.9,2,2v14
		h-2v2h3c0.6,0,1-0.4,1-1V14C60,11.8,58.2,10,56,10 M18,2h24v2H18V2z M21,6h18v4H21V6z"/>
	<path class="st2" d="M38,32v-6c0-0.6-0.4-1-1-1H23c-0.6,0-1,0.4-1,1v6c0,0.6,0.4,1,1,1h14C37.6,33,38,32.6,38,32 M36,31H24v-4h12
		V31z"/>
	<path class="st2" d="M52,37H42c-3.9,0-7,3.1-7,7v14h2V44c0-2.8,2.2-5,5-5h1.3l2.8,7.4c0.1,0.3,0.5,0.6,0.9,0.6
		c0.4,0,0.8-0.3,1.1-0.6l2.8-7.4H52c2.8,0,5,2.2,5,5v14h2V44C59,40.1,55.9,37,52,37 M47.1,43.2L45.5,39h3.2L47.1,43.2z"/>
	<rect x="46" y="49" class="st3" width="2" height="2"/>
	<rect x="46" y="53" class="st3" width="2" height="2"/>
	<path class="st2" d="M46,36h2c2.8,0,5-2.2,5-5v-3c0-2.8-2.2-5-5-5h-2c-2.8,0-5,2.2-5,5v3C41,33.8,43.2,36,46,36 M43,28
		c0-1.7,1.3-3,3-3h2c1.7,0,3,1.3,3,3v3c0,1.7-1.3,3-3,3h-2c-1.7,0-3-1.3-3-3V28z"/>
	<rect x="40" y="47" class="st2" width="2" height="11"/>
	<rect x="52" y="47" class="st2" width="2" height="11"/>
</g>
</svg>
