<?xml version="1.0" encoding="utf-8"?>
<!-- Generator: Adobe Illustrator 19.1.0, SVG Export Plug-In . SVG Version: 6.00 Build 0)  -->
<svg version="1.1" id="Capa_1" xmlns="http://www.w3.org/2000/svg" xmlns:xlink="http://www.w3.org/1999/xlink" x="0px" y="0px"
	 viewBox="-743 1245 512 512" style="enable-background:new -743 1245 512 512;" xml:space="preserve">
<style type="text/css">
	.st0{fill:#4995EC;}
	.st1{fill:#61B63D;}
	.st2{fill:#444B54;}
</style>
<g>
	<g>
		<path class="st0" d="M-624,1661.2l-29.2-29.6c-2.4-2.4-6.1-3.2-9.3-1.9l-6.9,2.8c-43.6,17.8-71.6,59.7-71.5,106.7v9.2
			c0,2.3,0.9,4.4,2.5,6c1.6,1.6,3.8,2.5,6,2.5c0,0,0,0,0,0c51.4-0.2,96.6-35.1,109.7-84.7l0.8-2.8
			C-621,1666.5-621.8,1663.4-624,1661.2z M-723.8,1739.5v-0.3c-0.1-40.1,23.8-75.8,60.9-90.9l1.6-0.7l21.8,22
			C-650.6,1708.2-684.3,1735.9-723.8,1739.5z"/>
	</g>
</g>
<g>
	<g>
		
			<rect x="-527.7" y="1490.6" transform="matrix(-0.7071 0.7071 -0.7071 -0.7071 193.2652 2973.4802)" class="st1" width="17.1" height="72.3"/>
	</g>
</g>
<g>
	<g>
		
			<rect x="-553.3" y="1516.2" transform="matrix(-0.7071 0.7071 -0.7071 -0.7071 167.6767 3035.2683)" class="st1" width="17.1" height="72.3"/>
	</g>
</g>
<g>
	<g>
		<path class="st2" d="M-233.9,1526.8c-12.9-59.3-41.2-114.3-82-159.3l-12.6,11.5c38.8,42.7,65.7,95.1,77.9,151.3
			c1.2,5.9,0.2,12.1-2.7,17.4c-6.9,12.3-22.4,16.8-34.8,9.9l-17.5-9.6c-16-8.8-36.1-6-48.8,6.8c-13,12.6-16.3,32.5-7.9,48.5
			l34.9,68.2c0.9,1.7,1.7,3.5,2.3,5.4c7.8,22.2-4,46.6-26,54.3c-76.9,25.1-177.8-4-257-74.2l-11.3,12.8
			c63.4,56.2,140.5,87.3,210.1,87.3c22.2,0,43.7-3.2,63.7-9.7c31.1-10.9,47.5-45,36.7-76c-0.9-2.6-2-5.1-3.2-7.5l-34.9-68.3
			c-4.9-9.4-3-21,4.7-28.5c7.5-7.5,19.3-9.2,28.7-4l17.5,9.6c20.6,11.4,46.6,4,58-16.5C-233.6,1547.2-232,1536.9-233.9,1526.8z"/>
	</g>
</g>
<g>
	<g>
		<path class="st2" d="M-690.7,1295.6c-76.3,76.4-64,218.5,28.5,330.4l13.1-10.9c-86.9-105.2-99.7-237.3-29.6-307.5
			c71.9-71.8,210.6-55.5,315.8,37.1l11.3-12.8C-465.4,1231.8-611.2,1216.1-690.7,1295.6z"/>
	</g>
</g>
<g>
	<g>
		<path class="st2" d="M-468,1296.6c-23.5,0-42.6,19.1-42.6,42.6s19.1,42.6,42.6,42.6s42.6-19.1,42.6-42.6
			C-425.4,1315.7-444.5,1296.6-468,1296.6z M-468,1364.8c-14.1,0-25.6-11.5-25.6-25.6c0-14.1,11.5-25.6,25.6-25.6
			c14.1,0,25.6,11.5,25.6,25.6C-442.5,1353.3-453.9,1364.8-468,1364.8z"/>
	</g>
</g>
<g>
	<g>
		<path class="st2" d="M-578.9,1279.5c-23.5,0-42.6,19.1-42.6,42.6s19.1,42.6,42.6,42.6c23.5,0,42.6-19.1,42.6-42.6
			C-536.2,1298.7-555.4,1279.5-578.9,1279.5z M-578.9,1347.7c-14.1,0-25.6-11.5-25.6-25.6c0-14.1,11.5-25.6,25.6-25.6
			c14.1,0,25.6,11.5,25.6,25.6C-553.3,1336.3-564.8,1347.7-578.9,1347.7z"/>
	</g>
</g>
<g>
	<g>
		<path class="st2" d="M-655.6,1356.3c-23.5,0-42.6,19.1-42.6,42.6s19.1,42.6,42.6,42.6c23.5,0,42.6-19.1,42.6-42.6
			S-632.1,1356.3-655.6,1356.3z M-655.6,1424.5c-14.1,0-25.6-11.5-25.6-25.6c0-14.1,11.5-25.6,25.6-25.6c14.1,0,25.6,11.5,25.6,25.6
			C-630,1413-641.5,1424.5-655.6,1424.5z"/>
	</g>
</g>
<g>
	<g>
		<path class="st2" d="M-638.6,1458.6c-23.5,0-42.6,19.1-42.6,42.6s19.1,42.6,42.6,42.6c23.5,0,42.6-19.1,42.6-42.6
			C-595.9,1477.7-615.1,1458.6-638.6,1458.6z M-638.6,1526.8c-14.1,0-25.6-11.5-25.6-25.6c0-14.1,11.5-25.6,25.6-25.6
			c14.1,0,25.6,11.5,25.6,25.6C-613,1515.3-624.5,1526.8-638.6,1526.8z"/>
	</g>
</g>
<g>
	<g>
		<path class="st2" d="M-493.6,1612c-23.5,0-42.6,19.1-42.6,42.6s19.1,42.6,42.6,42.6c23.5,0,42.6-19.1,42.6-42.6
			S-470.1,1612-493.6,1612z M-493.6,1680.3c-14.1,0-25.6-11.5-25.6-25.6s11.5-25.6,25.6-25.6c14.1,0,25.6,11.5,25.6,25.6
			S-479.5,1680.3-493.6,1680.3z"/>
	</g>
</g>
<g>
	<g>
		<path class="st2" d="M-335.9,1450.1c-21.2,0-38.4,17.2-38.4,38.4c0,21.2,17.2,38.4,38.4,38.4c21.2,0,38.4-17.2,38.4-38.4
			C-297.5,1467.3-314.7,1450.1-335.9,1450.1z M-335.9,1509.7c-11.8,0-21.3-9.6-21.3-21.3s9.6-21.3,21.3-21.3
			c11.8,0,21.3,9.6,21.3,21.3S-324.1,1509.7-335.9,1509.7z"/>
	</g>
</g>
<g>
	<g>
		<path class="st0" d="M-244.9,1260.4c-10.2-9.9-26.1-10.5-37.1-1.3l-209.2,179.1c-50.5,43.3-174.1,187.8-179.4,194
			c-2.9,3.4-2.7,8.4,0.5,11.6l34.1,34.1c1.7,1.7,3.8,2.5,6,2.5c1.8,0,3.7-0.6,5.2-1.8c6.9-5.3,168.8-131.5,229.8-202.9l150.8-176.7
			C-234,1287.9-234.3,1271-244.9,1260.4z M-256.9,1287.5l-151.1,177c-53.3,62.5-191.1,172.1-221.3,195.9l-23.2-23.2
			c24.3-28.3,128.6-148.5,172.4-186.1l209.2-179c4.2-3.5,10.3-3.3,14.1,0.4C-252.9,1276.6-252.8,1283-256.9,1287.5z"/>
	</g>
</g>
</svg>
