<?xml version="1.0" encoding="utf-8"?>
<!-- Generator: Adobe Illustrator 19.1.0, SVG Export Plug-In . SVG Version: 6.00 Build 0)  -->
<svg version="1.1" id="Layer_1" xmlns="http://www.w3.org/2000/svg" xmlns:xlink="http://www.w3.org/1999/xlink" x="0px" y="0px"
	 viewBox="-964 1466.5 69.5 69.5" style="enable-background:new -964 1466.5 69.5 69.5;" xml:space="preserve">
<style type="text/css">
	.st0{fill:#8B0499;}
	.st1{fill:#26C8BE;}
	.st2{fill:#FFFFFF;}
</style>
<title>Asset 6</title>
<circle class="st0" cx="-929.2" cy="1501.2" r="34.8"/>
<g id="Layer_2_1_">
	<g id="Layer_1-2_1_">
		<circle class="st1" cx="-1273.2" cy="1480.3" r="34.8"/>
		<path class="st2" d="M-1290.8,1480.7c0.1-0.7,0.5-1.4,1-1.9c0.5-0.5,1.2-0.7,1.9-0.7c1.9,0,3.8,0,5.8,0c1.3,0,2.5,0.9,2.8,2.2
			c0.1,0.3,0.1,0.6,0.1,0.9c0,3.7,0,7.5,0,11.2c0.1,1.4-0.8,2.6-2.2,3c-0.3,0.1-0.6,0.1-0.9,0.1c-1.8,0-3.6,0-5.4,0
			c-1.5,0.1-2.8-1-3.1-2.5c0,0,0-0.1,0-0.1L-1290.8,1480.7z M-1282,1481h-5.8v7.2h5.8V1481z"/>
		<path class="st2" d="M-1268.9,1489.8v2.9h4.3v2.9h-11.6v-2.8h4.3v-10.2h13.1v-14.6h-27.7c0-0.6,0-1.1,0-1.7
			c0.1-0.7,0.7-1.3,1.5-1.2h27.5c0.8-0.1,1.5,0.4,1.6,1.2c0,0.2,0,0.3,0,0.5c0,7.2,0,14.3,0,21.5c0.1,0.8-0.5,1.6-1.3,1.7
			c-0.1,0-0.2,0-0.3,0L-1268.9,1489.8L-1268.9,1489.8z"/>
		<path class="st2" d="M-1277.6,1489.8v-5.8h1.4v-8.7h-10.2v1.4h-2.9c0-0.1,0-0.2,0-0.3c0-1.3,0-2.6,0-3.9c-0.1-1.6,1.2-3,2.8-3.1
			c0.1,0,0.2,0,0.3,0h9.9c1.2-0.1,2.3,0.6,2.8,1.6c0.2,0.4,0.3,0.9,0.3,1.4c0,4.8,0,9.6,0,14.4c0,1.6-1.2,3-2.8,3
			c-0.1,0-0.1,0-0.2,0C-1276.7,1489.8-1277.1,1489.8-1277.6,1489.8z"/>
	</g>
</g>
<g>
	<path class="st2" d="M-912.2,1513.6l-7.3-7.3l5.2-3c0.4-0.2,0.6-0.7,0.6-1.2s-0.3-0.9-0.8-1.1l-23.4-9.3c-0.5-0.2-1-0.1-1.3,0.3
		c-0.3,0.3-0.5,0.9-0.3,1.3l9.3,23.4c0.2,0.4,0.6,0.7,1.1,0.8c0.5,0,0.9-0.2,1.2-0.6l3-5.2l7.3,7.3c0.2,0.2,0.5,0.4,0.9,0.4
		c0.3,0,0.6-0.1,0.9-0.4l3.6-3.6C-911.7,1514.9-911.7,1514.1-912.2,1513.6z"/>
	<path class="st2" d="M-943.3,1486.1c-0.5-0.5-1.3-0.5-1.7,0c-0.5,0.5-0.5,1.3,0,1.7l2.7,2.7c0.2,0.2,0.6,0.4,0.9,0.4
		c0.3,0,0.6-0.1,0.9-0.4c0.5-0.5,0.5-1.3,0-1.7L-943.3,1486.1z"/>
	<path class="st2" d="M-942.4,1494.6c0-0.7-0.6-1.2-1.2-1.2h-3.9c-0.7,0-1.2,0.6-1.2,1.2c0,0.7,0.6,1.2,1.2,1.2h3.9
		C-943,1495.9-942.4,1495.3-942.4,1494.6z"/>
	<path class="st2" d="M-942.9,1498.4l-2.7,2.7c-0.5,0.5-0.5,1.3,0,1.7c0.2,0.2,0.6,0.4,0.9,0.4s0.6-0.1,0.9-0.4l2.7-2.7
		c0.5-0.5,0.5-1.3,0-1.7C-941.6,1498-942.4,1498-942.9,1498.4z"/>
	<path class="st2" d="M-936.5,1488.8c0.7,0,1.2-0.6,1.2-1.2v-3.9c0-0.7-0.6-1.2-1.2-1.2c-0.7,0-1.2,0.6-1.2,1.2v3.9
		C-937.8,1488.2-937.2,1488.8-936.5,1488.8z"/>
	<path class="st2" d="M-931.9,1490.4c0.3,0,0.6-0.1,0.9-0.4l2.7-2.7c0.5-0.5,0.5-1.3,0-1.7c-0.5-0.5-1.3-0.5-1.7,0l-2.7,2.7
		c-0.5,0.5-0.5,1.3,0,1.7C-932.5,1490.2-932.2,1490.4-931.9,1490.4z"/>
</g>
</svg>
