<?xml version="1.0" encoding="utf-8"?>
<!-- Generator: Adobe Illustrator 19.1.0, SVG Export Plug-In . SVG Version: 6.00 Build 0)  -->
<svg version="1.1" id="Layer_1" xmlns="http://www.w3.org/2000/svg" xmlns:xlink="http://www.w3.org/1999/xlink" x="0px" y="0px"
	 viewBox="-743 1245 512 512" style="enable-background:new -743 1245 512 512;" xml:space="preserve">
<style type="text/css">
	.st0{fill:#444B54;}
	.st1{fill:#4995EC;}
	.st2{fill:#61B63D;}
</style>
<g>
	<path class="st0" d="M-308.6,1557.3c46-32.9,73.3-84,73.3-138.2c0-96-83.9-174.1-187-174.1c-60.7,0-117.4,27.3-152.5,73.3h-155.8
		c-4.5,0-8.1,3.6-8.1,8.1V1667c0,4.5,3.6,8.1,8.1,8.1h60.9v73.8c0,3.3,1.9,6.2,4.9,7.4c1,0.4,2.1,0.6,3.1,0.6c2.1,0,4.1-0.8,5.6-2.3
		l81.7-79.6h145.5c4.5,0,8.1-3.6,8.1-8.1v-73.9c15.2-0.1,30.3-1.9,44.9-5.4l82.1,30.8c0.9,0.3,1.9,0.5,2.8,0.5c2.2,0,4.4-0.9,6-2.7
		c2.2-2.5,2.7-6.1,1.2-9L-308.6,1557.3z M-436.9,1658.9h-140.7c-2.1,0-4.1,0.8-5.6,2.3l-70.3,68.5V1667c0-4.5-3.6-8.1-8.1-8.1h-60.9
		v-324.4h136.7c-9.8,16.4-16.7,34.4-20.4,52.8h-64.1c-4.5,0-8.1,3.6-8.1,8.1v25.9c0,4.5,3.6,8.1,8.1,8.1h61.2
		c0.9,15.1,4,29.9,9,44.2h-70.2c-4.5,0-8.1,3.6-8.1,8.1v25.9c0,4.5,3.6,8.1,8.1,8.1h92.3c12.3,17.2,27.7,32.1,45.5,44.2h-137.7
		c-4.5,0-8.1,3.6-8.1,8.1v25.9c0,4.5,3.6,8.1,8.1,8.1h181.1c4.5,0,8.1-3.6,8.1-8.1v-9.3c14.3,4.4,29.1,7.2,44.2,8.2L-436.9,1658.9
		L-436.9,1658.9z M-608.6,1403.5c-0.3,3.2-0.6,6.5-0.7,9.7h-52.9v-9.7H-608.6z M-593.3,1489.7c1.6,3.3,3.2,6.5,5,9.7h-73.9v-9.7
		H-593.3z M-503.5,1575.9c2.1,0.9,4.2,1.8,6.3,2.7v7h-164.9v-9.7H-503.5z M-372.5,1571.7c-1.5-0.6-3.2-0.7-4.8-0.3
		c-14.6,3.7-29.8,5.6-45.1,5.6c-1.9,0-3.8,0-6.2-0.1h0c-20-0.7-39.4-4.5-57.8-11.3c-4.1-1.5-8.1-3.2-12.1-5
		c-28.2-13-51.9-32.9-68.7-57.5c0,0,0,0,0,0c0,0,0,0,0,0c0,0,0,0,0,0c-5.3-7.8-9.8-16-13.6-24.5c0,0,0,0,0,0c0,0,0-0.1,0-0.1
		c0,0,0,0,0,0c-8-18.2-12.2-37.4-12.4-57.2c0,0,0,0,0,0v0l0-0.7c0-0.4,0-0.9,0-1.3c0-7.5,0.6-15,1.7-22.5v0
		c3.6-23.6,12.8-45.6,27.2-65.5c31.8-43.8,84.9-70,141.9-70c94.2,0,170.8,70.8,170.8,157.9c0,51-26.9,99.2-72,128.8
		c-3.4,2.3-4.6,6.7-2.8,10.4l19,37.9L-372.5,1571.7z"/>
</g>
<g>
	<g>
		<path class="st1" d="M-283.2,1357.1c-2.1-3.9-7-5.4-10.9-3.3c-3.9,2.1-5.4,7-3.3,10.9c9.1,17.1,13.7,35.4,13.7,54.4
			c0,4.5,3.6,8.1,8.1,8.1s8.1-3.6,8.1-8.1C-267.6,1397.4-272.9,1376.5-283.2,1357.1z"/>
	</g>
</g>
<g>
	<g>
		<path class="st1" d="M-311.1,1320.6c-29.4-27.9-68.9-43.3-111.2-43.3c-4.5,0-8.1,3.6-8.1,8.1c0,4.5,3.6,8.1,8.1,8.1
			c38.1,0,73.6,13.8,100.1,38.9c1.6,1.5,3.6,2.2,5.6,2.2c2.1,0,4.3-0.8,5.9-2.5C-307.8,1328.8-307.9,1323.7-311.1,1320.6z"/>
	</g>
</g>
<g>
	<g>
		<path class="st2" d="M-430.9,1400.2c-17.5,0-31.8,14.3-31.8,31.8c0,17.5,14.3,31.8,31.8,31.8s31.8-14.3,31.8-31.8
			C-399.2,1414.5-413.4,1400.2-430.9,1400.2z M-430.9,1447.6c-8.6,0-15.6-7-15.6-15.6c0-8.6,7-15.6,15.6-15.6
			c8.6,0,15.6,7,15.6,15.6C-415.3,1440.6-422.3,1447.6-430.9,1447.6z"/>
	</g>
</g>
<g>
	<g>
		<path class="st2" d="M-344.7,1400.2c-17.5,0-31.8,14.3-31.8,31.8c0,17.5,14.3,31.8,31.8,31.8s31.8-14.3,31.8-31.8
			C-312.9,1414.5-327.2,1400.2-344.7,1400.2z M-344.7,1447.6c-8.6,0-15.6-7-15.6-15.6c0-8.6,7-15.6,15.6-15.6s15.6,7,15.6,15.6
			C-329.1,1440.6-336.1,1447.6-344.7,1447.6z"/>
	</g>
</g>
<g>
	<g>
		<path class="st2" d="M-517.2,1400.2c-17.5,0-31.8,14.3-31.8,31.8c0,17.5,14.3,31.8,31.8,31.8c17.5,0,31.8-14.3,31.8-31.8
			C-485.4,1414.5-499.6,1400.2-517.2,1400.2z M-517.2,1447.6c-8.6,0-15.6-7-15.6-15.6c0-8.6,7-15.6,15.6-15.6
			c8.6,0,15.6,7,15.6,15.6C-501.6,1440.6-508.6,1447.6-517.2,1447.6z"/>
	</g>
</g>
<path class="st0" d="M-1195.5,1600.7H-1320V1341h37.9v10.8c0,3,2.4,5.4,5.4,5.4h124.4c3,0,5.4-2.4,5.4-5.4V1341h37.9v119
	c0,3,2.4,5.4,5.4,5.4s5.4-2.4,5.4-5.4v-124.4c0-3-2.4-5.4-5.4-5.4h-43.3v-10.8c0-3-2.4-5.4-5.4-5.4h-32.5v-10.8c0-3-2.4-5.4-5.4-5.4
	h-48.7c-3,0-5.4,2.4-5.4,5.4v10.8h-32.5c-3,0-5.4,2.4-5.4,5.4v10.8h-43.3c-3,0-5.4,2.4-5.4,5.4v270.5c0,3,2.4,5.4,5.4,5.4h129.9
	c3,0,5.4-2.4,5.4-5.4S-1192.5,1600.7-1195.5,1600.7z M-1233.4,1308.5h37.9v10.8v10.8h-37.9v-10.8V1308.5z M-1271.3,1324.7h27.1v10.8
	c0,3,2.4,5.4,5.4,5.4h48.7c3,0,5.4-2.4,5.4-5.4v-10.8h27.1v10.8v10.8h-113.6v-10.8C-1271.3,1335.6-1271.3,1324.7-1271.3,1324.7z"/>
<path class="st1" d="M-1032.5,1491l-15.4-15.4c-6.1-6.1-16.7-6.1-22.8,0l-83.3,83.3l-11.5,42.1l-2.8,2.8c-2.1,2.1-2.1,5.5,0,7.6
	l0,0.1l0.1,0c1,1,2.4,1.6,3.8,1.6c1.4,0,2.8-0.5,3.8-1.6l2.8-2.8l42.1-11.5l83.3-83.3C-1026.2,1507.5-1026.2,1497.3-1032.5,1491z
	 M-1141.6,1561.6l55.4-55.4l23,23l-55.4,55.4L-1141.6,1561.6z M-1146.4,1572l17.4,17.4l-24,6.5L-1146.4,1572z M-1040.2,1506.2
	l-15.4,15.4l-23-23l15.4-15.4c2-2,5.5-2,7.5,0l15.4,15.4C-1038.1,1500.7-1038.1,1504.1-1040.2,1506.2z"/>
<path class="st2" d="M-1292.9,1492.5h140.7c3,0,5.4-2.4,5.4-5.4s-2.4-5.4-5.4-5.4h-140.7c-3,0-5.4,2.4-5.4,5.4
	S-1295.9,1492.5-1292.9,1492.5z"/>
<path class="st2" d="M-1173.9,1514.1h-119c-3,0-5.4,2.4-5.4,5.4c0,3,2.4,5.4,5.4,5.4h119c3,0,5.4-2.4,5.4-5.4
	C-1168.5,1516.5-1170.9,1514.1-1173.9,1514.1z"/>
<path class="st2" d="M-1292.9,1395.1h70.3c3,0,5.4-2.4,5.4-5.4s-2.4-5.4-5.4-5.4h-70.3c-3,0-5.4,2.4-5.4,5.4
	S-1295.9,1395.1-1292.9,1395.1z"/>
<path class="st2" d="M-1222.6,1557.4c3,0,5.4-2.4,5.4-5.4s-2.4-5.4-5.4-5.4h-70.3c-3,0-5.4,2.4-5.4,5.4s2.4,5.4,5.4,5.4H-1222.6z"/>
<path class="st2" d="M-1136,1416.7h-156.9c-3,0-5.4,2.4-5.4,5.4c0,3,2.4,5.4,5.4,5.4h156.9c3,0,5.4-2.4,5.4-5.4
	C-1130.6,1419.1-1133,1416.7-1136,1416.7z"/>
<path class="st2" d="M-1292.9,1460h75.7c3,0,5.4-2.4,5.4-5.4s-2.4-5.4-5.4-5.4h-75.7c-3,0-5.4,2.4-5.4,5.4S-1295.9,1460-1292.9,1460
	z"/>
<path class="st2" d="M-1130.6,1454.6c0-3-2.4-5.4-5.4-5.4h-37.9c-3,0-5.4,2.4-5.4,5.4s2.4,5.4,5.4,5.4h37.9
	C-1133,1460-1130.6,1457.6-1130.6,1454.6z"/>
<path class="st2" d="M-1191.7,1458.4c1-1,1.6-2.4,1.6-3.8c0-1.4-0.6-2.8-1.6-3.8c-2.1-2-5.7-2-7.7,0c-1,1-1.6,2.4-1.6,3.8
	c0,1.5,0.6,2.8,1.6,3.8c1,1,2.4,1.6,3.8,1.6S-1192.7,1459.4-1191.7,1458.4z"/>
</svg>
