<svg enable-background="new 0 0 69.5 69.5" viewBox="0 0 69.5 69.5" xmlns="http://www.w3.org/2000/svg"><circle cx="34.7" cy="34.4" fill="#00ccbf" r="34.1"/><g fill="#fff"><path d="m37.5 40.2c-.2-.2-.3-.3-.5-.4-.4-.2-.9-.4-1.4-.5v3.7c.8-.1 1.7-.4 2.1-1.1.2-.3.2-.8.2-1.1-.2-.3-.3-.4-.4-.6z"/><path d="m32 34.3c-.1.2-.2.4-.2.6s0 .5.1.7.3.4.4.5c.2.1.4.2.7.3.2.1.4.2.6.2v-3.3c-.6.2-1.3.5-1.6 1z"/><path d="m36.9 21.8c3.1-2.6 5.2-8.5 3.9-8.8-1.7-.3-5.4 1.2-7.2 1.4-2.5.3-5.3-2.8-6.9-1-1.3 1.4.9 6.4 4.3 8.6-10.1 5-24.4 30 .5 31.8 34.3 2.5 17.1-27.1 5.4-32zm2.9 19.7c-.1 1-.6 1.9-1.4 2.5s-1.8.9-2.9 1v1.1c0 .3-.1.6-.3.8-.3.3-.7.3-1.1.2-.4-.2-.6-.5-.6-.9v-1.2c-.2 0-.3-.1-.5-.1-.9-.3-1.8-.8-2.5-1.5-.3-.4-.6-.8-.8-1.3 0-.1-.1-.2-.1-.4 0-.1-.1-.2-.1-.3 0-.2 0-.4.1-.6.2-.4.6-.6 1-.5.4 0 .7.3.9.7 0 .1.1.2.1.4 0 .1.1.2.2.3.1.2.3.4.4.6.4.3.8.6 1.3.7v-4c-.9-.2-1.9-.5-2.6-1.1-.4-.3-.7-.6-.9-1.1-.2-.4-.3-.9-.3-1.4s.1-1 .3-1.5c.2-.4.5-.8.8-1.1.7-.7 1.7-1.1 2.7-1.2v-.1-1c0-.3.1-.6.3-.8.3-.3.7-.3 1.1-.2.4.2.6.5.6.9v1 .1c.1 0 .3 0 .4.1 1 .2 1.9.6 2.6 1.3.3.3.6.7.8 1.2.1.1.1.2.1.4 0 .1.1.2.1.4s0 .4-.1.6c-.2.4-.6.6-1 .6s-.8-.3-.9-.6c0-.1-.1-.2-.1-.3s-.1-.2-.2-.3c-.1-.2-.3-.4-.5-.5-.4-.3-.9-.5-1.4-.5v3.8c.6.1 1.2.3 1.7.5.8.3 1.6.8 2.1 1.6-.1-.1-.1-.2 0 0s.1.1 0 0c.7.2.8 1 .7 1.7z"/></g></svg>