<svg xmlns="http://www.w3.org/2000/svg" viewBox="0 0 70 70"><defs><style>.cls-1{fill:#4995ec;}.cls-2{fill:#444b54;}.cls-3{fill:#61b63d;}</style></defs><title>Asset 4</title><g id="Layer_2" data-name="Layer 2"><g id="Layer_1-2" data-name="Layer 1"><path class="cls-1" d="M68.1,58.67a16.68,16.68,0,0,0-1.26,1.17c-1.11,1.11-2,2-3.84,2s-2.73-.88-3.84-2a7,7,0,0,0-11,0c-1.11,1.11-2,2-3.84,2s-2.73-.88-3.84-2a7,7,0,0,0-11,0c-1.11,1.11-2,2-3.84,2s-2.73-.88-3.84-2a7.23,7.23,0,0,0-5.49-2.67,7.23,7.23,0,0,0-5.49,2.67c-1.11,1.11-2,2-3.84,2s-2.73-.88-3.84-2A16.48,16.48,0,0,0,1.9,58.67,1.17,1.17,0,0,0,.43,60.48a14.23,14.23,0,0,1,1.08,1A7.23,7.23,0,0,0,7,64.17a7.23,7.23,0,0,0,5.49-2.68c1.11-1.11,2-2,3.84-2s2.73.88,3.84,2a7,7,0,0,0,11,0c1.11-1.11,2-2,3.84-2s2.73.88,3.84,2a7,7,0,0,0,11,0c1.11-1.11,2-2,3.84-2s2.73.88,3.84,2a7,7,0,0,0,11,0,14.75,14.75,0,0,1,1.08-1,1.17,1.17,0,0,0-1.47-1.81Z"/><path class="cls-2" d="M7.39,39.63a27.84,27.84,0,0,0,1.36,5.13L3.37,47.87a1.17,1.17,0,0,0-.43,1.59,8.18,8.18,0,0,0,10.48,3.34c.54.63,1.23,1.39,2.08,2.26a1.17,1.17,0,0,0,1.68-1.62,37,37,0,0,1-2.53-2.83,1.17,1.17,0,0,0-1.51-.3l-.2.12a5.85,5.85,0,0,1-7.28-1.18l5.15-3a1.17,1.17,0,0,0,.5-1.46,25.5,25.5,0,0,1-1.73-6.48,1.17,1.17,0,0,0-1.16-1H8.17a5.84,5.84,0,0,1-5.72-4.67H8.4a1.17,1.17,0,0,0,1.16-1,25.5,25.5,0,0,1,1.73-6.48,1.17,1.17,0,0,0-.5-1.46l-.19-.11A5.83,5.83,0,0,1,8,16.7l5.15,3a1.17,1.17,0,0,0,1.51-.3,25.84,25.84,0,0,1,4.74-4.74,1.16,1.16,0,0,0,.3-1.51l-.12-.2a5.84,5.84,0,0,1,1.18-7.28l3,5.15a1.17,1.17,0,0,0,1.46.49,25.51,25.51,0,0,1,6.48-1.73,1.17,1.17,0,0,0,1-1.16V8.17a5.84,5.84,0,0,1,4.67-5.72v6a1.17,1.17,0,0,0,1,1.16,25.49,25.49,0,0,1,6.48,1.73,1.17,1.17,0,0,0,1.46-.49l.11-.2A5.84,5.84,0,0,1,53.3,8l-3,5.15a1.17,1.17,0,0,0,.3,1.51,25.84,25.84,0,0,1,4.74,4.74,1.16,1.16,0,0,0,1.51.3l.2-.12a5.84,5.84,0,0,1,7.28,1.18l-5.15,3a1.17,1.17,0,0,0-.5,1.46,25.49,25.49,0,0,1,1.73,6.48,1.17,1.17,0,0,0,1.16,1h.24a5.84,5.84,0,0,1,5.72,4.67h-6a1.17,1.17,0,0,0-1.16,1,25.5,25.5,0,0,1-1.73,6.48,1.17,1.17,0,0,0,.5,1.46l.19.11A5.84,5.84,0,0,1,62,53.3l-5.16-3a1.17,1.17,0,0,0-1.51.3,25.69,25.69,0,0,1-1.93,2.24,1.17,1.17,0,0,0,1.68,1.62c.51-.52,1-1.07,1.46-1.64L62,56a1.18,1.18,0,0,0,.58.16,1.21,1.21,0,0,0,.3,0,1.17,1.17,0,0,0,.71-.54A8.18,8.18,0,0,0,61.23,44.8a27.76,27.76,0,0,0,1.37-5.13h6.23A1.17,1.17,0,0,0,70,38.5a8.17,8.17,0,0,0-7.39-8.13,27.76,27.76,0,0,0-1.36-5.13l5.39-3.11a1.17,1.17,0,0,0,.43-1.59A8.17,8.17,0,0,0,56.6,17.19a28.2,28.2,0,0,0-3.75-3.76L56,8a1.17,1.17,0,0,0-.43-1.59A8.17,8.17,0,0,0,44.8,8.77,27.78,27.78,0,0,0,39.67,7.4V1.17A1.17,1.17,0,0,0,38.5,0h0a8.17,8.17,0,0,0-8.13,7.39,27.94,27.94,0,0,0-5.13,1.36L22.13,3.37a1.17,1.17,0,0,0-1.59-.43A8.17,8.17,0,0,0,17.19,13.4a28.29,28.29,0,0,0-3.76,3.75L8,14a1.16,1.16,0,0,0-1.59.43A8.17,8.17,0,0,0,8.77,25.2,27.85,27.85,0,0,0,7.4,30.33H1.17A1.17,1.17,0,0,0,0,31.5,8.18,8.18,0,0,0,7.39,39.63Z"/><path class="cls-1" d="M68.1,64.5a16.44,16.44,0,0,0-1.26,1.17c-1.11,1.11-2,2-3.84,2s-2.73-.88-3.84-2a7,7,0,0,0-11,0c-1.11,1.11-2,2-3.84,2s-2.73-.88-3.84-2a7,7,0,0,0-11,0c-1.11,1.11-2,2-3.84,2s-2.73-.88-3.84-2A7.22,7.22,0,0,0,16.33,63a7.23,7.23,0,0,0-5.49,2.68c-1.11,1.11-2,2-3.84,2s-2.73-.88-3.84-2A16.48,16.48,0,0,0,1.9,64.5,1.17,1.17,0,0,0,.43,66.32a14.23,14.23,0,0,1,1.08,1A7.23,7.23,0,0,0,7,70a7.23,7.23,0,0,0,5.49-2.68c1.11-1.11,2-2,3.84-2s2.73.88,3.84,2a7,7,0,0,0,11,0c1.11-1.11,2-2,3.84-2s2.73.88,3.84,2a7,7,0,0,0,11,0c1.11-1.11,2-2,3.84-2s2.73.88,3.84,2a7,7,0,0,0,11,0,14.75,14.75,0,0,1,1.08-1A1.17,1.17,0,0,0,68.1,64.5Z"/><path class="cls-3" d="M31,48.87a1.17,1.17,0,0,0,1.43-.29l11.67-14a1.17,1.17,0,0,0-.9-1.91H37.59l2.05-10.27a1.17,1.17,0,0,0-2.09-.91L25.88,37.82a1.17,1.17,0,0,0,.95,1.85h5.51l-2,7.88A1.17,1.17,0,0,0,31,48.87Z"/></g></g></svg>