<?xml version="1.0" encoding="utf-8"?>
<!-- Generator: Adobe Illustrator 19.1.0, SVG Export Plug-In . SVG Version: 6.00 Build 0)  -->
<svg version="1.1" id="Layer_1" xmlns="http://www.w3.org/2000/svg" xmlns:xlink="http://www.w3.org/1999/xlink" x="0px" y="0px"
	 viewBox="0 0 60 54.6" style="enable-background:new 0 0 60 54.6;" xml:space="preserve">
<style type="text/css">
	.st0{clip-path:url(#SVGID_2_);fill:#444B54;}
	.st1{clip-path:url(#SVGID_2_);fill:#4995EC;}
	.st2{clip-path:url(#SVGID_2_);fill:#61B63D;}
</style>
<g>
	<defs>
		<rect id="SVGID_1_" y="0" width="60" height="54.6"/>
	</defs>
	<clipPath id="SVGID_2_">
		<use xlink:href="#SVGID_1_"  style="overflow:visible;"/>
	</clipPath>
	<path class="st0" d="M60,23.8c-0.5,0.8-1,1-1.5,0.7c-0.5-0.3-0.6-0.7-0.6-1.2c0-1.4,0-2.7,0-4.1c0-5.3,0-10.6,0-15.9
		c0-0.9-0.2-1.1-1-1.1c-17.8,0-35.7,0-53.5,0c-1,0-1.1,0.1-1.1,1.1c0,9.2,0,18.4,0,27.6c0,0.2,0,0.3,0,0.6h55.7c0-0.7,0-1.4,0-2
		c0-0.4,0.2-0.8,0.4-1.1c0.5-0.5,1.4-0.3,1.7,0.6v10.5c-0.6,1.7-1.8,2.3-3.6,2.3c-5.4-0.1-10.9,0-16.3,0c-0.2,0-0.4,0-0.6,0
		c0.7,2.1,1.4,4.2,2.1,6.3c0.2,0,0.3,0,0.5,0c1.9-0.2,3.5,1.1,3.4,3.4c-0.1,2-1.2,3.1-3.2,3.1c-6.5,0-13,0-19.6,0
		c-1.7,0-3.4,0-5.2,0c-1.6,0-2.7-0.8-3-2.2c-0.1-0.5-0.1-1-0.1-1.5c0-1.6,1.2-2.7,2.8-2.8c0.3,0,0.7,0,1.1,0
		c0.7-2.1,1.4-4.2,2.2-6.3h-0.8c-5.5,0-10.9,0-16.4,0c-0.4,0-0.8,0-1.2-0.1C1,41.4,0.4,40.5,0,39.5V2.3C0.6,0.6,1.8,0,3.6,0
		c10.7,0,21.3,0,32,0c7.1,0,14.1,0,21.2,0c0.9,0,1.8,0.2,2.4,0.9c0.4,0.4,0.6,1,0.8,1.4V23.8z M2.2,33.7c0,0.2,0,0.4,0,0.6
		c0,1.3,0,2.7,0,4c0,1.1,0.1,1.2,1.2,1.2c14.8,0,29.6,0,44.4,0c3,0,6,0,9,0c0.8,0,1-0.2,1-1c0-1.5,0-2.9,0-4.4c0-0.2,0-0.3,0-0.5
		H2.2z M20.7,48h18.6c-0.7-2-1.4-4-2.1-6c-0.1-0.1-0.4-0.3-0.5-0.3c-4.5,0-8.9,0-13.4,0c-0.4,0-0.5,0.1-0.7,0.5
		c-0.5,1.6-1.1,3.1-1.6,4.7C20.9,47.3,20.8,47.6,20.7,48 M30,52.4c1.6,0,3.1,0,4.7,0c2.6,0,5.2,0,7.7,0c0.4,0,0.7,0,0.9-0.4
		c0.4-1-0.1-1.7-1.1-1.7c-5.1,0-10.2,0-15.3,0c-3,0-6,0-9.1,0c-0.3,0-0.8,0.1-0.8,0.3c-0.1,0.5-0.2,1-0.1,1.5c0,0.2,0.6,0.4,0.9,0.4
		C21.8,52.4,25.9,52.4,30,52.4"/>
	<path class="st0" d="M18.2,13.7c-0.7-1.4-0.7-2.7,0-4c1-1.9,3.4-2.7,5.3-1.8c2,0.9,3,3.2,2.2,5.3c-0.2,0.4-0.1,0.7,0.2,1
		c2.1,2.1,4.2,4.2,6.3,6.3c0.3,0.3,0.4,0.3,0.8,0.2c1.1-0.5,2.2-0.4,3.3,0.1c0.2,0.1,0.5,0.1,0.6,0c0.9-0.9,1.8-1.8,2.7-2.6
		c-0.5-1.1-1-2.1-1.3-3.1c-1.2-4.3,1.4-8.7,5.7-9.9c5.6-1.6,11.1,3.1,10.4,8.9c-0.1,0.9-0.4,1.7-0.8,2.6c-0.4,1-1,1.3-1.6,0.9
		c-0.7-0.3-0.8-0.9-0.3-1.9c0.6-1.4,0.8-2.8,0.4-4.2c-0.6-2.4-2.7-4.1-5.3-4.4c-2.2-0.3-4.7,1-5.8,3.1c-1.2,2.1-1.1,4.3,0.2,6.3
		c1.3,1.9,3.2,2.8,5.5,2.7c0.2,0,0.5-0.1,0.7-0.1c0.7,0,1.2,0.3,1.2,0.9c0.1,0.6-0.3,1.2-1,1.2c-1,0.1-2.1,0.2-3.1-0.1
		c-1.2-0.2-2.2-0.8-3.5-1.3c-0.8,0.8-1.8,1.7-2.7,2.7c-0.1,0.1-0.1,0.4,0,0.6c0.9,2.4-0.3,4.9-2.7,5.6c-1.6,0.5-3.1,0.1-4.3-1.2
		c-1.2-1.3-1.4-2.9-0.7-4.5c0.2-0.4,0.1-0.6-0.2-0.8c-2.1-2.1-4.2-4.1-6.3-6.2c-0.3-0.3-0.5-0.3-0.8-0.2c-1.1,0.5-2.3,0.5-3.5,0
		c-0.2-0.1-0.4-0.2-0.7,0.1c-1.3,1.3-2.5,2.5-3.8,3.8c0.3,0.7,0.6,1.3,0.7,2c0.5,2.2-0.5,4.7-2.4,5.8c-2.2,1.3-4.7,1.1-6.6-0.6
		c-1.6-1.4-2.2-4-1.3-6.1c1.2-2.9,4.8-4.2,7.5-2.7c0.4,0.2,0.6,0.2,0.8-0.1C15.6,16.2,16.9,15,18.2,13.7 M11.1,19.2
		c-1.8,0-3.3,1.5-3.3,3.3c0,1.8,1.5,3.3,3.3,3.3c1.8,0,3.3-1.5,3.3-3.3C14.3,20.6,12.9,19.2,11.1,19.2 M36.6,24.5c0-1.1-0.9-2-2-2
		c-1.1,0-2,0.9-2,2c0,1.1,0.9,2,2,2C35.7,26.5,36.6,25.6,36.6,24.5 M23.8,11.7c0-1.1-0.9-2-2-2c-1.1,0-2,0.9-2,2c0,1.1,0.9,2,2,2
		C22.9,13.7,23.8,12.8,23.8,11.7"/>
	<path class="st1" d="M11.1,19.2c1.8,0,3.3,1.5,3.3,3.3c0,1.8-1.5,3.3-3.3,3.3c-1.8,0-3.3-1.5-3.3-3.3C7.8,20.7,9.3,19.2,11.1,19.2"
		/>
	<path class="st2" d="M36.6,24.5c0,1.1-0.9,2-2,2c-1.1,0-2-0.9-2-2c0-1.1,0.9-2,2-2C35.7,22.5,36.6,23.3,36.6,24.5"/>
	<path class="st2" d="M23.8,11.7c0,1.1-0.9,2-2,2c-1.1,0-2-0.9-2-2c0-1.1,0.9-2,2-2C22.9,9.7,23.8,10.6,23.8,11.7"/>
</g>
</svg>
