<?xml version="1.0" encoding="utf-8"?>
<!-- Generator: Adobe Illustrator 19.1.0, SVG Export Plug-In . SVG Version: 6.00 Build 0)  -->
<svg version="1.1" id="Layer_1" xmlns="http://www.w3.org/2000/svg" xmlns:xlink="http://www.w3.org/1999/xlink" x="0px" y="0px"
	 viewBox="0 0 60 51.8" style="enable-background:new 0 0 60 51.8;" xml:space="preserve">
<style type="text/css">
	.st0{clip-path:url(#SVGID_2_);fill:#61B63D;}
	.st1{clip-path:url(#SVGID_2_);fill:#505358;}
	.st2{clip-path:url(#SVGID_2_);fill:#4995EC;}
</style>
<g>
	<defs>
		<rect id="SVGID_1_" y="0" width="60" height="51.8"/>
	</defs>
	<clipPath id="SVGID_2_">
		<use xlink:href="#SVGID_1_"  style="overflow:visible;"/>
	</clipPath>
	<path class="st0" d="M54.4,3.3h-1.5c-0.5,0-1,0.4-1,1c0,0.5,0.4,1,1,1h1.5c0.5,0,1-0.4,1-1C55.4,3.8,55,3.3,54.4,3.3"/>
	<path class="st0" d="M49.1,3.3h-1.5c-0.5,0-1,0.4-1,1c0,0.5,0.4,1,1,1h1.5c0.5,0,1-0.4,1-1C50.1,3.8,49.7,3.3,49.1,3.3"/>
	<path class="st0" d="M43.7,3.3h-1.5c-0.5,0-1,0.4-1,1c0,0.5,0.4,1,1,1h1.5c0.5,0,1-0.4,1-1C44.7,3.8,44.3,3.3,43.7,3.3"/>
	<path class="st1" d="M54.6,24.9V12.7c0-0.5-0.4-1-1-1H41.3c0,0,0,0,0,0H6.4c-0.5,0-1,0.4-1,1V25c0,0.5,0.4,1,1,1h47.1
		c0,0,0.1,0,0.1,0c0,0,0,0,0,0c0,0,0,0,0.1,0C54.2,25.8,54.6,25.4,54.6,24.9C54.6,25,54.6,24.9,54.6,24.9 M7.4,24V13.7h33.5L51.2,24
		H7.4z M52.6,22.6l-8.9-8.9h8.9V22.6z"/>
	<path class="st1" d="M27.1,28.5h-21c-0.5,0-1,0.4-1,1v16.7c0,0.5,0.4,1,1,1h21c0.5,0,1-0.4,1-1v-6.8c0,0,0,0,0,0v-9.9
		C28.1,29,27.7,28.5,27.1,28.5 M26.2,30.5v6.6l-6.6-6.6H26.2z M26.2,45.3h-19V30.5h9.7l9.4,9.4V45.3z"/>
	<path class="st1" d="M59,0H35H1C0.4,0,0,0.4,0,1v6.6v43.2c0,0.5,0.4,1,1,1h44.3c0.5,0,1-0.4,1-1c0-0.5-0.4-1-1-1H2V8.6H35h23v41.2
		h-7.9c-0.5,0-1,0.4-1,1c0,0.5,0.4,1,1,1H59c0.5,0,1-0.4,1-1V7.6V1C60,0.4,59.6,0,59,0 M34,6.6H2V2H34V6.6z M58,6.6H36V2h22V6.6z"/>
	<path class="st2" d="M37.9,29h-5.8c-0.5,0-1,0.4-1,1v5.8c0,0.5,0.4,1,1,1h5.8c0.5,0,1-0.4,1-1V30C38.9,29.5,38.4,29,37.9,29
		 M36.9,34.8h-3.8V31h3.8V34.8z"/>
	<path class="st2" d="M37.9,39.4h-5.8c-0.5,0-1,0.4-1,1v5.8c0,0.5,0.4,1,1,1h5.8c0.5,0,1-0.4,1-1v-5.8
		C38.9,39.8,38.4,39.4,37.9,39.4 M36.9,45.1h-3.8v-3.8h3.8V45.1z"/>
	<path class="st2" d="M52.1,30.8h-9.4c-0.5,0-1,0.4-1,1c0,0.5,0.4,1,1,1h9.4c0.5,0,1-0.4,1-1C53.1,31.3,52.6,30.8,52.1,30.8"/>
	<path class="st2" d="M52.1,34.2h-9.4c-0.5,0-1,0.4-1,1c0,0.5,0.4,1,1,1h9.4c0.5,0,1-0.4,1-1C53.1,34.6,52.6,34.2,52.1,34.2"/>
	<path class="st2" d="M52.1,40.3h-9.4c-0.5,0-1,0.4-1,1c0,0.5,0.4,1,1,1h9.4c0.5,0,1-0.4,1-1C53.1,40.7,52.6,40.3,52.1,40.3"/>
	<path class="st2" d="M52.1,43.7h-9.4c-0.5,0-1,0.4-1,1c0,0.5,0.4,1,1,1h9.4c0.5,0,1-0.4,1-1C53.1,44.1,52.6,43.7,52.1,43.7"/>
	<path class="st1" d="M20.6,3.3h-15c-0.5,0-1,0.4-1,1c0,0.5,0.4,1,1,1h15c0.5,0,1-0.4,1-1C21.6,3.8,21.1,3.3,20.6,3.3"/>
</g>
</svg>
