<?xml version="1.0" encoding="utf-8"?>
<!-- Generator: Adobe Illustrator 19.1.0, SVG Export Plug-In . SVG Version: 6.00 Build 0)  -->
<svg version="1.1" id="Layer_1" xmlns="http://www.w3.org/2000/svg" xmlns:xlink="http://www.w3.org/1999/xlink" x="0px" y="0px"
	 viewBox="0 0 60 51" style="enable-background:new 0 0 60 51;" xml:space="preserve">
<style type="text/css">
	.st0{fill:#505358;}
	.st1{fill:#4995EC;}
	.st2{clip-path:url(#SVGID_2_);fill:#61B63D;}
</style>
<path class="st0" d="M1.9,9.7h56.1v39.4H1.9V9.7z M1.9,1.9h56.1v5.8H1.9V1.9z M0,51h60V0H0V51z"/>
<rect x="3.9" y="3.9" class="st0" width="1.9" height="1.9"/>
<rect x="7.7" y="3.9" class="st0" width="1.9" height="1.9"/>
<rect x="11.6" y="3.9" class="st0" width="1.9" height="1.9"/>
<path class="st0" d="M56.1,12H3.9v34.8h52.3V12z M54.2,44.9H5.8v-31h48.4V44.9z"/>
<path class="st0" d="M52.3,18.3H27.1v9.7h25.2V18.3z M50.3,26H29v-5.8h21.3V26z"/>
<rect x="46.5" y="22.1" class="st1" width="1.9" height="1.9"/>
<rect x="42.6" y="22.1" class="st1" width="1.9" height="1.9"/>
<rect x="38.7" y="22.1" class="st1" width="1.9" height="1.9"/>
<rect x="34.8" y="22.1" class="st1" width="1.9" height="1.9"/>
<rect x="31" y="22.1" class="st1" width="1.9" height="1.9"/>
<path class="st0" d="M52.3,31.8H27.1v9.7h25.2V31.8z M50.3,39.5H29v-5.8h21.3V39.5z"/>
<rect x="46.5" y="35.7" class="st1" width="1.9" height="1.9"/>
<rect x="42.6" y="35.7" class="st1" width="1.9" height="1.9"/>
<rect x="38.7" y="35.7" class="st1" width="1.9" height="1.9"/>
<rect x="34.8" y="35.7" class="st1" width="1.9" height="1.9"/>
<rect x="31" y="35.7" class="st1" width="1.9" height="1.9"/>
<g>
	<defs>
		<rect id="SVGID_1_" width="60" height="51"/>
	</defs>
	<clipPath id="SVGID_2_">
		<use xlink:href="#SVGID_1_"  style="overflow:visible;"/>
	</clipPath>
	<path class="st2" d="M23.2,34.7c0-2.5-1.4-4.7-3.4-5.9c1.5-1.1,2.5-2.8,2.5-4.8c0-3.2-2.6-5.8-5.8-5.8c-3.2,0-5.8,2.6-5.8,5.8
		c0,2,1,3.7,2.5,4.8c-2.1,1.2-3.4,3.4-3.4,5.9v6.8h13.5V34.7z M12.6,24.1c0-2.1,1.7-3.9,3.9-3.9s3.9,1.7,3.9,3.9s-1.7,3.9-3.9,3.9
		S12.6,26.2,12.6,24.1 M21.3,39.5h-9.7v-4.8c0-2.7,2.2-4.8,4.8-4.8s4.8,2.2,4.8,4.8V39.5z"/>
</g>
</svg>
