<?xml version="1.0" encoding="utf-8"?>
<!-- Generator: Adobe Illustrator 19.1.0, SVG Export Plug-In . SVG Version: 6.00 Build 0)  -->
<svg version="1.1" id="Layer_1" xmlns="http://www.w3.org/2000/svg" xmlns:xlink="http://www.w3.org/1999/xlink" x="0px" y="0px"
	 viewBox="0 0 60 60" style="enable-background:new 0 0 60 60;" xml:space="preserve">
<style type="text/css">
	.st0{clip-path:url(#SVGID_2_);fill:#444B54;}
	.st1{clip-path:url(#SVGID_2_);fill:#61B63D;}
	.st2{clip-path:url(#SVGID_2_);fill:#4995EC;}
</style>
<g>
	<defs>
		<rect id="SVGID_1_" width="60" height="60"/>
	</defs>
	<clipPath id="SVGID_2_">
		<use xlink:href="#SVGID_1_"  style="overflow:visible;"/>
	</clipPath>
	<path class="st0" d="M59,0H1C0.4,0,0,0.4,0,1V59c0,0.5,0.4,1,1,1H59c0.5,0,1-0.4,1-1V1C60,0.4,59.6,0,59,0 M58.1,58.1H1.9V1.9h56.2
		V58.1z"/>
	<path class="st1" d="M55.2,3.8H4.8c-0.5,0-1,0.4-1,1v3.8c0,0.5,0.4,1,1,1h50.4c0.5,0,1-0.4,1-1V4.8C56.2,4.3,55.7,3.8,55.2,3.8
		 M54.3,7.7H5.7V5.7h48.5V7.7z"/>
	<path class="st2" d="M51.2,31.3H9c-0.5,0-1,0.4-1,1v3.8c0,0.5,0.4,1,1,1h42.1c0.5,0,1-0.4,1-1v-3.8C52.1,31.8,51.7,31.3,51.2,31.3
		 M50.2,35.2H10v-1.9h40.2V35.2z"/>
	<path class="st0" d="M55.2,12.1H4.8c-0.5,0-1,0.4-1,1v26.8c0,0.5,0.4,1,1,1h50.4c0.5,0,1-0.4,1-1V13C56.2,12.5,55.7,12.1,55.2,12.1
		 M54.3,38.9H5.7V14h48.5V38.9z"/>
	<path class="st0" d="M37.1,43.8H22.9c-0.5,0-1,0.4-1,1c0,0.5,0.4,1,1,1h14.3c0.5,0,1-0.4,1-1C38.1,44.3,37.7,43.8,37.1,43.8"/>
	<path class="st0" d="M55.2,43.8H41c-0.5,0-1,0.4-1,1c0,0.5,0.4,1,1,1h14.3c0.5,0,1-0.4,1-1C56.2,44.3,55.7,43.8,55.2,43.8"/>
	<path class="st0" d="M19,43.8H4.8c-0.5,0-1,0.4-1,1c0,0.5,0.4,1,1,1H19c0.5,0,1-0.4,1-1C20,44.3,19.6,43.8,19,43.8"/>
	<path class="st0" d="M37.1,47.7H22.9c-0.5,0-1,0.4-1,1c0,0.5,0.4,1,1,1h14.3c0.5,0,1-0.4,1-1C38.1,48.1,37.7,47.7,37.1,47.7"/>
	<path class="st0" d="M55.2,47.7H41c-0.5,0-1,0.4-1,1c0,0.5,0.4,1,1,1h14.3c0.5,0,1-0.4,1-1C56.2,48.1,55.7,47.7,55.2,47.7"/>
	<path class="st0" d="M19,47.7H4.8c-0.5,0-1,0.4-1,1c0,0.5,0.4,1,1,1H19c0.5,0,1-0.4,1-1C20,48.1,19.6,47.7,19,47.7"/>
	<path class="st0" d="M30,51.5h-7.1c-0.5,0-1,0.4-1,1c0,0.5,0.4,1,1,1H30c0.5,0,1-0.4,1-1C31,51.9,30.6,51.5,30,51.5"/>
	<path class="st0" d="M48.1,51.5H41c-0.5,0-1,0.4-1,1c0,0.5,0.4,1,1,1h7.1c0.5,0,1-0.4,1-1C49.1,51.9,48.6,51.5,48.1,51.5"/>
	<path class="st0" d="M11.9,51.5H4.8c-0.5,0-1,0.4-1,1c0,0.5,0.4,1,1,1h7.1c0.5,0,1-0.4,1-1C12.9,51.9,12.5,51.5,11.9,51.5"/>
</g>
</svg>
