<?xml version="1.0" encoding="utf-8"?>
<!-- Generator: Adobe Illustrator 19.1.0, SVG Export Plug-In . SVG Version: 6.00 Build 0)  -->
<svg version="1.1" id="Layer_1" xmlns="http://www.w3.org/2000/svg" xmlns:xlink="http://www.w3.org/1999/xlink" x="0px" y="0px"
	 viewBox="0 0 60 57.7" style="enable-background:new 0 0 60 57.7;" xml:space="preserve">
<style type="text/css">
	.st0{clip-path:url(#SVGID_2_);fill:#444B54;}
	.st1{clip-path:url(#SVGID_2_);fill:#4995EC;}
	.st2{clip-path:url(#SVGID_2_);fill:#61B63D;}
</style>
<g>
	<defs>
		<rect id="SVGID_1_" y="0" width="60" height="57.7"/>
	</defs>
	<clipPath id="SVGID_2_">
		<use xlink:href="#SVGID_1_"  style="overflow:visible;"/>
	</clipPath>
	<path class="st0" d="M0,18.1c0.3-1.4,0.4-2.9,0.8-4.2C1.9,10,4.1,6.8,7.2,4.2c2.9-2.4,6.3-3.7,10-4.1C18,0,18.8,0,19.6,0
		c6.9,0,13.9,0,20.8,0c5.3,0,10,1.8,13.8,5.5c3.1,3,4.9,6.6,5.5,10.8c0.8,5.5-0.6,10.5-4,14.9c-0.1,0.1-0.2,0.2-0.4,0.5
		c0.2,0.1,0.3,0.1,0.5,0.2c2.9,2.5,4.2,5.7,4.2,9.5c0,5.2,0,10.4,0,15.6v0.5c-0.2-0.1-0.4-0.2-0.6-0.2c-2.5-1.3-5.1-2.5-7.6-3.8
		c-0.3-0.1-0.6-0.2-0.9-0.2c-7.8,0-15.6,0-23.4,0c-2.8,0-5.4-0.4-7.8-2c-4-2.5-6.3-7.6-5.4-12.2c0-0.2,0.1-0.5,0.1-0.8
		c-0.6,0-1.2,0.1-1.8,0c-2.1-0.2-3.9,0.3-5.6,1.4c-2.3,1.4-4.7,2.6-7,3.9C0,35.2,0,26.7,0,18.1 M1.9,40.6c0.2-0.1,0.3-0.2,0.4-0.2
		c2.1-1.2,4.2-2.4,6.3-3.5c0.3-0.2,0.6-0.2,0.9-0.2c1.6,0,3.2,0,4.7,0c0.5,0,0.7-0.1,0.9-0.6c2.2-4.3,5.7-6.8,10.6-6.9
		c7.3-0.1,14.6,0,22,0c1.5,0,3,0.2,4.3,0.8c0.6,0.2,1.1,0.5,1.7,0.7c2.2-2.6,3.6-5.6,4.1-8.9c0.6-4.4-0.3-8.6-2.8-12.2
		c-3.5-5-8.5-7.6-14.6-7.6c-7,0-14,0-21,0c-1.4,0-2.8,0.2-4.1,0.5C7.5,4.1,1.9,11,1.9,19c0,7.1,0,14.2,0,21.3
		C1.9,40.4,1.9,40.4,1.9,40.6 M58.1,54.7c0-0.2,0-0.3,0-0.3c0-4.4,0-8.8,0-13.2c0-1.8-0.4-3.5-1.4-5.1c-2.1-3.5-5.2-5.2-9.3-5.2
		c-7,0-13.9,0-20.9,0c-1.7,0-3.4,0.3-5,1.1c-6.4,3.2-7.6,12.1-2.3,16.8c2.2,1.9,4.7,2.7,7.6,2.7c8.1,0,16.2,0,24.3,0
		c0.4,0,0.8,0.1,1.1,0.3c1.8,0.8,3.5,1.7,5.2,2.6C57.7,54.5,57.9,54.6,58.1,54.7"/>
	<rect x="12.2" y="18.8" class="st1" width="35.6" height="1.8"/>
	<rect x="20.7" y="9.4" class="st1" width="27.1" height="1.8"/>
	<rect x="26.4" y="14.1" class="st1" width="21.5" height="1.8"/>
	<rect x="12.2" y="14.2" class="st1" width="12.1" height="1.8"/>
	<rect x="12.2" y="9.4" class="st1" width="6.6" height="1.8"/>
	<rect x="16" y="23.5" class="st1" width="1.8" height="1.8"/>
	<rect x="19.7" y="23.5" class="st1" width="1.8" height="1.8"/>
	<rect x="12.2" y="23.5" class="st1" width="1.7" height="1.8"/>
	<rect x="35.7" y="41.2" class="st2" width="1.8" height="1.8"/>
	<rect x="31.9" y="41.2" class="st2" width="1.8" height="1.8"/>
	<rect x="39.4" y="41.2" class="st2" width="1.8" height="1.8"/>
</g>
</svg>
