<?xml version="1.0" encoding="utf-8"?>
<!-- Generator: Adobe Illustrator 19.1.0, SVG Export Plug-In . SVG Version: 6.00 Build 0)  -->
<svg version="1.1" id="Layer_1" xmlns="http://www.w3.org/2000/svg" xmlns:xlink="http://www.w3.org/1999/xlink" x="0px" y="0px"
	 viewBox="0 0 53.3 60" style="enable-background:new 0 0 53.3 60;" xml:space="preserve">
<style type="text/css">
	.st0{fill:#61B63D;}
	.st1{clip-path:url(#SVGID_2_);fill:#444B54;}
	.st2{clip-path:url(#SVGID_2_);fill:#4995EC;}
</style>
<polygon class="st0" points="41.3,49 31.6,49 31.6,58.2 "/>
<g>
	<defs>
		<rect id="SVGID_1_" width="53.3" height="60"/>
	</defs>
	<clipPath id="SVGID_2_">
		<use xlink:href="#SVGID_1_"  style="overflow:visible;"/>
	</clipPath>
	<path class="st1" d="M42.7,49.1c0.2-0.2,0.4-0.4,0.4-0.7V4.8c0-0.5-0.4-1-1-1H14.4C13.7,1.6,11.6,0,9.2,0C6.8,0,4.7,1.6,4,3.8H1
		c-0.5,0-1,0.4-1,1V59c0,0.5,0.4,1,1,1h30.4c0.3,0,0.6-0.1,0.8-0.4L42.7,49.1z M32.3,56.7v-7.4h7.4L32.3,56.7z M9.2,1.9
		c1.4,0,2.5,0.8,3.1,1.9H6.1C6.7,2.7,7.9,1.9,9.2,1.9 M1.9,5.7h10.8v6.7c0,0.9-0.7,1.6-1.6,1.6s-1.6-0.7-1.6-1.6V8.6
		c0-0.5-0.4-1-1-1s-1,0.4-1,1v3.8c0,1.9,1.6,3.5,3.5,3.5s3.5-1.6,3.5-3.5V5.7h26.5v41.6h-9.8c-0.5,0-1,0.4-1,1v9.8H1.9V5.7z"/>
	<path class="st1" d="M34.4,44.1c0.5,0,1-0.4,1-1c0-0.5-0.4-1-1-1H8.6c-0.5,0-1,0.4-1,1c0,0.5,0.4,1,1,1H34.4z"/>
	<path class="st1" d="M8.6,38.4h25.8c0.5,0,1-0.4,1-1c0-0.5-0.4-1-1-1H8.6c-0.5,0-1,0.4-1,1C7.7,37.9,8.1,38.4,8.6,38.4"/>
	<path class="st1" d="M8.6,32.6h25.8c0.5,0,1-0.4,1-1c0-0.5-0.4-1-1-1H8.6c-0.5,0-1,0.4-1,1C7.7,32.2,8.1,32.6,8.6,32.6"/>
	<path class="st2" d="M8.6,26.9h25.8c0.5,0,1-0.4,1-1c0-0.5-0.4-1-1-1H8.6c-0.5,0-1,0.4-1,1C7.7,26.4,8.1,26.9,8.6,26.9"/>
	<path class="st2" d="M8.6,21.1h25.8c0.5,0,1-0.4,1-1c0-0.5-0.4-1-1-1H8.6c-0.5,0-1,0.4-1,1C7.7,20.7,8.1,21.1,8.6,21.1"/>
	<path class="st1" d="M47.2,3.8h-1.3c-0.5,0-1,0.4-1,1c0,0.5,0.4,1,1,1h0.3v52.3H36c-0.5,0-1,0.4-1,1c0,0.5,0.4,1,1,1h11.2
		c0.5,0,1-0.4,1-1V4.8C48.2,4.3,47.7,3.8,47.2,3.8"/>
	<path class="st1" d="M52.3,3.8H51c-0.5,0-1,0.4-1,1c0,0.5,0.4,1,1,1h0.3v52.3H51c-0.5,0-1,0.4-1,1c0,0.5,0.4,1,1,1h1.3
		c0.5,0,1-0.4,1-1V4.8C53.3,4.3,52.8,3.8,52.3,3.8"/>
</g>
</svg>
