<?xml version="1.0" encoding="utf-8"?>
<!-- Generator: Adobe Illustrator 19.1.0, SVG Export Plug-In . SVG Version: 6.00 Build 0)  -->
<svg version="1.1" id="Layer_1" xmlns="http://www.w3.org/2000/svg" xmlns:xlink="http://www.w3.org/1999/xlink" x="0px" y="0px"
	 viewBox="0 0 43.4 60" style="enable-background:new 0 0 43.4 60;" xml:space="preserve">
<style type="text/css">
	.st0{clip-path:url(#SVGID_2_);fill:#61B63D;}
	.st1{clip-path:url(#SVGID_2_);fill:#444B54;}
	.st2{clip-path:url(#SVGID_2_);fill:#4995EC;}
</style>
<g>
	<defs>
		<rect id="SVGID_1_" width="43.4" height="60"/>
	</defs>
	<clipPath id="SVGID_2_">
		<use xlink:href="#SVGID_1_"  style="overflow:visible;"/>
	</clipPath>
	<path class="st0" d="M22.7,13.4c0-5.1-4.2-9.3-9.3-9.3s-9.3,4.2-9.3,9.3c0,3.1,1.6,6,4.1,7.7v-2.5c-1.4-1.4-2.2-3.2-2.2-5.2
		c0-4,3.3-7.3,7.3-7.3c4,0,7.3,3.3,7.3,7.3c0,2-0.8,3.9-2.2,5.2v2.5C21.1,19.4,22.7,16.5,22.7,13.4"/>
	<path class="st1" d="M13.9,8.3C12.5,8.2,11,8.7,10,9.6c-1.1,1-1.7,2.3-1.7,3.8v0.2c0-2.8,2.3-5.1,5.1-5.1c2.8,0,5.1,2.3,5.1,5v0
		C18.5,10.9,16.5,8.6,13.9,8.3"/>
	<polyline class="st1" points="18.5,21.1 18.5,23.7 18.5,23.7 18.5,21.1 18.5,21.1 	"/>
	<path class="st1" d="M8.3,18.6C8.3,18.6,8.3,18.6,8.3,18.6l0-5c0,0,0,0,0,0V18.6z"/>
	<polyline class="st1" points="8.3,21.1 8.3,23.7 8.3,23.7 8.3,21.1 8.3,21.1 	"/>
	<path class="st1" d="M18.5,13.6v5c0,0,0,0,0,0L18.5,13.6C18.5,13.7,18.5,13.7,18.5,13.6"/>
	<path class="st1" d="M11.3,11.1c0.7-0.6,1.5-0.9,2.4-0.8c1.6,0.2,2.9,1.6,2.9,3.3v10.1h1.9v-2.5c0,0,0,0,0,0v-2.5c0,0,0,0,0,0v-5
		c0-2.8-2.3-5-5.1-5c-2.8,0-5.1,2.3-5.1,5.1v5c0,0,0,0,0,0v2.5c0,0,0,0,0,0v2.5h1.9V13.4C10.2,12.5,10.6,11.7,11.3,11.1"/>
	<path class="st2" d="M1.9,13.4c0-6.3,5.1-11.5,11.5-11.5c6.3,0,11.5,5.1,11.5,11.5c0,4.2-2.3,8.1-6,10.1c0.7-0.3,2.2-1,3.9-0.5
		c2.5-2.5,4-5.9,4-9.5C26.8,6,20.8,0,13.4,0C6,0,0,6,0,13.4c0,5.4,3.3,10.3,8.3,12.4v-2.1C4.4,21.8,1.9,17.8,1.9,13.4"/>
	<path class="st1" d="M16.6,34.1c0,0.5,0.4,1,1,1c0.5,0,1-0.4,1-1v-5.8l-1.9-0.1V30V34.1z"/>
	<path class="st1" d="M38.8,24.9c-1.4-0.1-2.9,0.3-3.9,1.3c-0.1,0.1-0.3,0.2-0.4,0.4c-0.8-1.5-2.3-2.6-4-2.7
		c-1.4-0.1-2.9,0.3-3.9,1.3c-0.1,0.1-0.3,0.2-0.4,0.4c-0.7-1.3-1.9-2.3-3.3-2.6c1.1,0.3,1.3,1.7,1.3,3c0.5,0.6,0.8,1.4,0.8,2.2V29
		v6.2c0,0.5,0.4,1,1,1s1-0.4,1-1V29c0-0.9,0.4-1.7,1-2.4c0.7-0.6,1.5-0.9,2.5-0.8c1.6,0.2,2.9,1.6,2.9,3.3V30v6.2c0,0.5,0.4,1,1,1
		c0.5,0,1-0.4,1-1V30c0-0.9,0.4-1.7,1-2.3c0.7-0.6,1.5-0.9,2.5-0.8c1.6,0.2,2.9,1.6,2.9,3.3v18.5h0c0,5.2-4.2,9.4-9.4,9.4H16.7
		c-4.1,0-7.6-2.6-8.9-6.4l-3.7-11c-0.6-1.8,0-3.7,1.5-4.8L8.3,34v8.5c0,0.5,0.4,1,1,1c0.5,0,1-0.4,1-1V30v-2.3l-1.9-0.1v4l-3.7,2.7
		c-2.2,1.6-3.1,4.4-2.3,7L6,52.2c1.5,4.6,5.9,7.8,10.8,7.8h15.3c6.3,0,11.3-5.1,11.3-11.3V30.2C43.4,27.5,41.4,25.2,38.8,24.9"/>
	<path class="st1" d="M18.9,23.5c-0.2,0.1-0.4,0.2-0.4,0.2C18.7,23.6,18.8,23.5,18.9,23.5"/>
	<polygon class="st1" points="18.5,23.7 18.5,23.7 18.5,23.7 	"/>
	<path class="st1" d="M8.3,26.1v-0.3c0,0,0,0,0,0L8.3,26.1C8.3,26.1,8.3,26.1,8.3,26.1"/>
	<polyline class="st1" points="8.3,23.7 8.3,23.7 8.3,23.7 8.3,23.7 	"/>
	<polygon class="st1" points="10.2,23.7 8.3,23.7 8.3,23.7 8.3,23.7 8.3,25.8 8.3,25.8 8.3,26.1 8.3,27.5 10.2,27.7 	"/>
	<path class="st1" d="M18.9,23.5c-0.1,0.1-0.2,0.1-0.4,0.2c0,0,0,0,0,0v0h-1.9v4.5l1.9,0.1v-0.4c0-0.9,0.4-1.7,1-2.3
		c0.7-0.6,1.5-0.9,2.5-0.8c0.8,0.1,1.6,0.5,2.1,1.2c0.1-1.3-0.2-2.7-1.3-3C21.1,22.5,19.6,23.1,18.9,23.5"/>
</g>
</svg>
