<?xml version="1.0" encoding="utf-8"?>
<!-- Generator: Adobe Illustrator 19.1.0, SVG Export Plug-In . SVG Version: 6.00 Build 0)  -->
<svg version="1.1" id="Layer_1" xmlns="http://www.w3.org/2000/svg" xmlns:xlink="http://www.w3.org/1999/xlink" x="0px" y="0px"
	 viewBox="0 0 59.6 59.6" style="enable-background:new 0 0 59.6 59.6;" xml:space="preserve">
<style type="text/css">
	.st0{clip-path:url(#SVGID_2_);fill:#444B54;}
	.st1{clip-path:url(#SVGID_2_);fill:#4995EC;}
	.st2{clip-path:url(#SVGID_2_);fill:#61B63D;}
</style>
<g>
	<defs>
		<rect id="SVGID_1_" y="0" width="59.6" height="59.6"/>
	</defs>
	<clipPath id="SVGID_2_">
		<use xlink:href="#SVGID_1_"  style="overflow:visible;"/>
	</clipPath>
	<path class="st0" d="M50,41.8l0.1-0.1c1.1-1.9,1.9-3.9,2.5-6l0-0.1l7-1.2v-9.3l-7-1.2l0-0.1c-0.5-2.1-1.4-4.1-2.5-6L50,17.8
		l4.1-5.8l-6.6-6.6l-5.8,4.1l-0.1-0.1c-1.9-1.1-3.9-1.9-6-2.5l-0.1,0l-1.2-7h-9.3L24,7l-0.1,0c-2.1,0.5-4.1,1.4-6,2.5l-0.1,0.1
		L12,5.4L5.4,12l4.1,5.8l-0.1,0.1c-1.1,1.9-1.9,3.9-2.5,6L7,24l-7,1.2v9.3l7,1.2l0,0.1c0.5,2.1,1.4,4.1,2.5,6l0.1,0.1l-4.1,5.8
		l6.6,6.6l5.8-4.1l0.1,0.1c1.9,1.1,3.9,1.9,6,2.5l0.1,0l1.2,7h9.3l1.2-7l0.1,0c2.1-0.5,4.1-1.4,6-2.5l0.1-0.1l5.8,4.1l6.6-6.6
		L50,41.8z M47.4,51.4l-5.5-3.9l-0.6,0.4c-2.1,1.4-4.4,2.3-6.8,2.8l-0.7,0.2l-1.1,6.6h-5.7l-1.1-6.6l-0.7-0.2
		c-2.4-0.5-4.7-1.5-6.8-2.8l-0.6-0.4l-5.5,3.9l-4-4l3.9-5.5l-0.4-0.6c-1.3-2.1-2.3-4.4-2.8-6.8l-0.2-0.7l-6.6-1.1v-5.7l6.6-1.1
		l0.2-0.7c0.5-2.4,1.5-4.7,2.8-6.8l0.4-0.6l-3.9-5.5l4-4l5.5,3.9l0.6-0.4c2.1-1.3,4.4-2.3,6.8-2.8l0.7-0.2l1.1-6.6h5.7l1.1,6.6
		l0.7,0.2c2.4,0.5,4.7,1.5,6.8,2.8l0.6,0.4l5.5-3.9l4,4l-3.9,5.5l0.4,0.6c1.3,2.1,2.3,4.4,2.8,6.8l0.2,0.7l6.6,1.1v5.7l-6.6,1.1
		l-0.2,0.7c-0.5,2.4-1.5,4.7-2.8,6.8l-0.4,0.6l3.9,5.5L47.4,51.4z"/>
	<polygon class="st1" points="41.3,29.8 36,24.5 34.5,26 38.3,29.8 34.5,33.6 36,35.1 	"/>
	<polygon class="st1" points="25.1,26 23.6,24.5 18.3,29.8 23.6,35.1 25.1,33.6 21.3,29.8 	"/>
	
		<rect x="22.1" y="29.5" transform="matrix(0.3417 -0.9398 0.9398 0.3417 -9.1238 48.0932)" class="st2" width="15.4" height="2.1"/>
	<path class="st0" d="M29.8,13.8c-8.9,0-16,7.2-16,16s7.2,16,16,16s16-7.2,16-16S38.6,13.8,29.8,13.8 M29.8,43.8
		c-7.7,0-13.9-6.3-13.9-13.9s6.3-14,13.9-14s13.9,6.3,13.9,14S37.5,43.8,29.8,43.8"/>
</g>
</svg>
