<?xml version="1.0" encoding="utf-8"?>
<!-- Generator: Adobe Illustrator 19.1.0, SVG Export Plug-In . SVG Version: 6.00 Build 0)  -->
<svg version="1.1" id="Layer_1" xmlns="http://www.w3.org/2000/svg" xmlns:xlink="http://www.w3.org/1999/xlink" x="0px" y="0px"
	 viewBox="0 0 60.8 60" style="enable-background:new 0 0 60.8 60;" xml:space="preserve">
<style type="text/css">
	.st0{clip-path:url(#SVGID_2_);fill:#444B54;}
	.st1{clip-path:url(#SVGID_2_);fill:#4995EC;}
	.st2{clip-path:url(#SVGID_2_);fill:#61B63D;}
</style>
<g>
	<defs>
		<rect id="SVGID_1_" width="60.8" height="60"/>
	</defs>
	<clipPath id="SVGID_2_">
		<use xlink:href="#SVGID_1_"  style="overflow:visible;"/>
	</clipPath>
	<path class="st0" d="M30.4,6.7c-8.7,0-15.7,7.1-15.7,15.7c0,8.7,7.1,15.7,15.7,15.7c8.7,0,15.7-7.1,15.7-15.7
		C46.1,13.8,39,6.7,30.4,6.7 M30.4,36.3c-7.7,0-13.9-6.2-13.9-13.9S22.7,8.6,30.4,8.6s13.9,6.2,13.9,13.9S38,36.3,30.4,36.3"/>
	<path class="st0" d="M39.3,20.2l-6.2-0.9l-2.8-5.6l-2.8,5.6l-6.2,0.9l4.5,4.4l-1.1,6.1l5.5-2.9l5.5,2.9l-1.1-6.1L39.3,20.2z
		 M30.4,25.7l-3,1.6l0.6-3.4l-2.5-2.4l3.4-0.5l1.5-3.1l1.5,3.1l3.4,0.5L32.8,24l0.6,3.4L30.4,25.7z"/>
	<polygon class="st1" points="53.7,2.6 53.7,1.2 51.8,1.2 51.8,2.6 50.4,2.6 50.4,4.5 51.8,4.5 51.8,5.9 53.7,5.9 53.7,4.5 
		55.1,4.5 55.1,2.6 	"/>
	<polygon class="st2" points="59.4,41 59.4,39.6 57.5,39.6 57.5,41 56.1,41 56.1,42.9 57.5,42.9 57.5,44.3 59.4,44.3 59.4,42.9 
		60.8,42.9 60.8,41 	"/>
	<polygon class="st1" points="26.7,56.1 26.7,54.6 24.9,54.6 24.9,56.1 23.4,56.1 23.4,57.9 24.9,57.9 24.9,59.4 26.7,59.4 
		26.7,57.9 28.2,57.9 28.2,56.1 	"/>
	<polygon class="st2" points="3.8,18.9 3.8,17 1.9,17 1.9,18.9 0,18.9 0,20.7 1.9,20.7 1.9,22.6 3.8,22.6 3.8,20.7 5.6,20.7 
		5.6,18.9 	"/>
	<path class="st0" d="M30.4,10.2c-6.8,0-12.3,5.5-12.3,12.3c0,6.8,5.5,12.3,12.3,12.3s12.3-5.5,12.3-12.3
		C42.7,15.7,37.2,10.2,30.4,10.2 M30.4,32.9c-5.8,0-10.4-4.7-10.4-10.4c0-5.8,4.7-10.4,10.4-10.4s10.4,4.7,10.4,10.4
		C40.8,28.2,36.1,32.9,30.4,32.9"/>
	<path class="st0" d="M45.4,37.3l4.1-1l-0.6-7.9l5.1-6l-5.1-6l0.6-7.9l-7.7-1.9L37.7,0l-7.3,3l-7.3-3l-4.1,6.7l-7.7,1.9l0.6,7.9
		l-5.1,6l5.1,6l-0.6,7.9l4.1,1l-13,13l8.2,1.5l1.5,8.2L30,42.1l0.4-0.1l0.4,0.1L48.7,60l1.5-8.2l8.2-1.5L45.4,37.3z M11.1,50
		l-4.9-0.9l11.3-11.3l1.5,0.4l1.5,2.4l-6.2,6.2L11.1,50z M13.3,56.2l-0.9-4.9l9-9l1.6,2.7l2.5-1L13.3,56.2z M30.4,39.9l-6.5,2.7
		l-1-1.7l-0.1-0.1l-1-1.5l-1.7-2.7l-3.2-0.8l-3.6-0.9l0.5-7l-4.6-5.4l4.6-5.4l-0.5-7l6.9-1.7l3.7-6L30.4,5l6.5-2.7l3.7,6l6.9,1.7
		l-0.5,7l4.6,5.4L47,27.8l0.5,7l-3.6,0.9l-3.2,0.8L39,39.3l-0.8,1.3l-0.2,0.4l-1,1.7L30.4,39.9z M47.5,56.2L35.2,43.9l1.1,0.5
		l1.4,0.6l1.6-2.7l9,9L47.5,56.2z M49.7,50l-3.2-3.2l-6.2-6.2l1.5-2.4l1.5-0.4l11.3,11.3L49.7,50z"/>
</g>
</svg>
