<?xml version="1.0" encoding="utf-8"?>
<!-- Generator: Adobe Illustrator 19.1.0, SVG Export Plug-In . SVG Version: 6.00 Build 0)  -->
<svg version="1.1" id="Layer_1" xmlns="http://www.w3.org/2000/svg" xmlns:xlink="http://www.w3.org/1999/xlink" x="0px" y="0px"
	 viewBox="0 0 60.9 60" style="enable-background:new 0 0 60.9 60;" xml:space="preserve">
<style type="text/css">
	.st0{fill:#4995EC;}
	.st1{fill:#61B63D;}
	.st2{clip-path:url(#SVGID_2_);fill:#505358;}
</style>
<rect x="23.3" y="54.5" class="st0" width="14.5" height="3.8"/>
<rect x="29.6" y="0.7" class="st1" width="30.7" height="4.7"/>
<g>
	<defs>
		<rect id="SVGID_1_" width="60.9" height="60"/>
	</defs>
	<clipPath id="SVGID_2_">
		<use xlink:href="#SVGID_1_"  style="overflow:visible;"/>
	</clipPath>
	<path class="st2" d="M60,41.7H0.9c-0.5,0-0.9,0.4-0.9,0.9v16.6C0,59.6,0.4,60,0.9,60H60c0.5,0,0.9-0.4,0.9-0.9V42.5
		C60.9,42.1,60.5,41.7,60,41.7 M46.3,43.4h5.8v3.8h-5.8V43.4z M54.9,52.7h-3.8v-3.8h3.8V52.7z M49.3,52.7h-5.8v-3.8h5.8V52.7z
		 M38.8,43.4h5.8v3.8h-5.8V43.4z M41.8,52.7H36v-3.8h5.8V52.7z M31.3,43.4h5.8v3.8h-5.8V43.4z M34.3,52.7h-5.8v-3.8h5.8V52.7z
		 M23.8,43.4h5.8v3.8h-5.8V43.4z M26.8,52.7H21v-3.8h5.8V52.7z M16.3,43.4h5.8v3.8h-5.8V43.4z M19.3,52.7h-5.8v-3.8h5.8V52.7z
		 M8.8,43.4h5.8v3.8H8.8V43.4z M11.8,52.7H6v-3.8h5.8V52.7z M1.7,43.4H7v3.8H1.7V43.4z M1.7,48.9h2.5v3.8H1.7V48.9z M7,58.3H1.7
		v-3.8H7V58.3z M14.6,58.3H8.8v-3.8h5.8V58.3z M22.1,58.3h-5.8v-3.8h5.8V58.3z M37.1,58.3H23.8v-3.8h13.3V58.3z M44.6,58.3h-5.8
		v-3.8h5.8V58.3z M52.1,58.3h-5.8v-3.8h5.8V58.3z M59.1,58.3h-5.3v-3.8h5.3V58.3z M56.6,48.9h2.5v3.8h-2.5V48.9z M59.1,47.2h-5.3
		v-3.8h5.3V47.2z"/>
	<path class="st2" d="M24.1,0H0.9C0.4,0,0,0.4,0,0.9v37.1c0,0.5,0.4,0.9,0.9,0.9h23.3c0.5,0,0.9-0.4,0.9-0.9V0.9
		C25,0.4,24.6,0,24.1,0 M23.3,37.1H1.7V1.7h21.5V37.1z"/>
	<path class="st2" d="M60,0H29.6c-0.5,0-0.9,0.4-0.9,0.9v37.1c0,0.5,0.4,0.9,0.9,0.9H60c0.5,0,0.9-0.4,0.9-0.9V0.9
		C60.9,0.4,60.5,0,60,0 M59.1,37.1H30.5V6.9h28.6V37.1z M59.1,5.1H30.5V1.7h28.6V5.1z"/>
	<path class="st2" d="M19.1,6H5.9C5.5,6,5.1,6.4,5.1,6.9c0,0.5,0.4,0.9,0.9,0.9h13.1c0.5,0,0.9-0.4,0.9-0.9C19.9,6.4,19.5,6,19.1,6"
		/>
	<path class="st2" d="M12.5,11H5.9c-0.5,0-0.9,0.4-0.9,0.9c0,0.5,0.4,0.9,0.9,0.9h6.6c0.5,0,0.9-0.4,0.9-0.9
		C13.4,11.4,13,11,12.5,11"/>
	<path class="st2" d="M19.1,16H5.9c-0.5,0-0.9,0.4-0.9,0.9c0,0.5,0.4,0.9,0.9,0.9h13.1c0.5,0,0.9-0.4,0.9-0.9
		C19.9,16.4,19.5,16,19.1,16"/>
	<path class="st2" d="M12.5,21H5.9c-0.5,0-0.9,0.4-0.9,0.9c0,0.5,0.4,0.9,0.9,0.9h6.6c0.5,0,0.9-0.4,0.9-0.9
		C13.4,21.4,13,21,12.5,21"/>
	<path class="st2" d="M19.1,26H5.9c-0.5,0-0.9,0.4-0.9,0.9c0,0.5,0.4,0.9,0.9,0.9h13.1c0.5,0,0.9-0.4,0.9-0.9
		C19.9,26.4,19.5,26,19.1,26"/>
	<path class="st2" d="M12.5,31H5.9c-0.5,0-0.9,0.4-0.9,0.9s0.4,0.9,0.9,0.9h6.6c0.5,0,0.9-0.4,0.9-0.9S13,31,12.5,31"/>
	<path class="st2" d="M39.7,25.4l-4-4l4-4c0.2-0.2,0.3-0.4,0.3-0.6c0-0.2-0.1-0.4-0.3-0.6c-0.2-0.2-0.4-0.3-0.6-0.3
		s-0.4,0.1-0.6,0.3l-4.6,4.6c-0.2,0.2-0.3,0.4-0.3,0.6c0,0.2,0.1,0.4,0.3,0.6l4.6,4.6c0.3,0.3,0.9,0.3,1.2,0
		C40,26.3,40,25.8,39.7,25.4"/>
	<path class="st2" d="M51.2,26.7l4.6-4.6c0.2-0.2,0.3-0.4,0.3-0.6S56,21,55.8,20.8l-4.6-4.6c-0.2-0.2-0.4-0.3-0.6-0.3
		s-0.4,0.1-0.6,0.3c-0.2,0.2-0.3,0.4-0.3,0.6c0,0.2,0.1,0.4,0.3,0.6l4,4l-4,4c-0.3,0.3-0.3,0.9,0,1.2C50.3,27,50.8,27,51.2,26.7"/>
	<path class="st2" d="M42.6,26.5c-0.1,0.2,0,0.5,0.1,0.7c0.1,0.2,0.3,0.3,0.5,0.4c0.5,0.1,0.9-0.2,1.1-0.6l2.9-11.4
		c0.1-0.5-0.2-0.9-0.6-1.1c-0.1,0-0.1,0-0.2,0c-0.4,0-0.7,0.3-0.8,0.7L42.6,26.5z"/>
</g>
</svg>
