<?xml version="1.0" encoding="utf-8"?>
<!-- Generator: Adobe Illustrator 19.1.0, SVG Export Plug-In . SVG Version: 6.00 Build 0)  -->
<svg version="1.1" id="Layer_1" xmlns="http://www.w3.org/2000/svg" xmlns:xlink="http://www.w3.org/1999/xlink" x="0px" y="0px"
	 viewBox="0 0 58.9 58.5" style="enable-background:new 0 0 58.9 58.5;" xml:space="preserve">
<style type="text/css">
	.st0{fill:#4995EC;}
	.st1{fill:#9DCC3C;}
	.st2{clip-path:url(#SVGID_2_);fill:#444B54;}
</style>
<rect x="26.1" y="19.7" class="st0" width="11" height="6.2"/>
<rect x="43.7" y="7.7" class="st1" width="11" height="6.2"/>
<rect x="7.6" y="30.4" class="st0" width="11" height="6.2"/>
<g>
	<defs>
		<rect id="SVGID_1_" width="58.9" height="58.5"/>
	</defs>
	<clipPath id="SVGID_2_">
		<use xlink:href="#SVGID_1_"  style="overflow:visible;"/>
	</clipPath>
	<path class="st2" d="M45.3,9h8.5v47.7h2.2V7.9c0-0.6-0.5-1.1-1.1-1.1H44.2c-0.6,0-1.1,0.5-1.1,1.1v48.8h2.2V9z"/>
	<path class="st2" d="M27.4,21H36v35.8h2.2V19.9c0-0.6-0.5-1.1-1.1-1.1H26.3c-0.6,0-1.1,0.5-1.1,1.1v36.9h2.2V21z"/>
	<path class="st2" d="M8,29.7c-0.6,0-1.1,0.5-1.1,1.1v26h2.2V31.9h8.5v24.9h2.2v-26c0-0.6-0.5-1.1-1.1-1.1H8z"/>
	<path class="st2" d="M0,1.1v56.3c0,0.6,0.5,1.1,1.1,1.1h4.5c-0.2-0.3-0.3-0.7-0.3-1.1v-1.1H2.2V1.1C2.2,0.5,1.7,0,1.1,0
		C0.5,0,0,0.5,0,1.1"/>
	<path class="st2" d="M3.5,57.4L3.5,57.4c0-0.6,0.5-1.1,1.1-1.1h53.3c0.6,0,1.1,0.5,1.1,1.1c0,0.6-0.5,1.1-1.1,1.1H4.5
		C4,58.5,3.5,58,3.5,57.4"/>
</g>
</svg>
