<?xml version="1.0" encoding="utf-8"?>
<!-- Generator: Adobe Illustrator 19.1.0, SVG Export Plug-In . SVG Version: 6.00 Build 0)  -->
<svg version="1.1" id="Layer_1" xmlns="http://www.w3.org/2000/svg" xmlns:xlink="http://www.w3.org/1999/xlink" x="0px" y="0px"
	 viewBox="0 0 60 60" style="enable-background:new 0 0 60 60;" xml:space="preserve">
<style type="text/css">
	.st0{fill:#4995EC;}
	.st1{fill:#61B63D;}
	.st2{clip-path:url(#SVGID_2_);fill:#444B54;}
</style>
<rect x="18" y="23.5" class="st0" width="24.3" height="3.7"/>
<rect x="0.3" y="55.7" class="st1" width="24.3" height="3.7"/>
<rect x="35.3" y="55.7" class="st1" width="24.3" height="3.7"/>
<g>
	<defs>
		<rect id="SVGID_1_" width="60" height="60"/>
	</defs>
	<clipPath id="SVGID_2_">
		<use xlink:href="#SVGID_1_"  style="overflow:visible;"/>
	</clipPath>
	<path class="st2" d="M42.6,22.2c0-2-0.7-4-2-5.6c-1.2-1.4-2.9-2.4-4.8-2.8l-0.4-0.1L35,13.9c-0.7,0.5-3.3,3.7-5,5.8
		c-1.7-2.1-4.3-5.4-5-5.8l-0.3-0.2l-0.4,0.1c-1.9,0.4-3.6,1.4-4.8,2.8c-1.3,1.6-2,3.6-2,5.6v5.9h25.2L42.6,22.2L42.6,22.2z
		 M40.6,26.1H19.4v-3.9c0-1.6,0.6-3.2,1.6-4.4c0.8-1,1.9-1.7,3.2-2.1c0.9,0.9,3.1,3.7,5.1,6.1l0.8,1l0.8-1c2-2.5,4.2-5.2,5.1-6.1
		c1.3,0.4,2.4,1.1,3.2,2.1c1,1.2,1.6,2.8,1.6,4.4L40.6,26.1L40.6,26.1z"/>
	<path class="st2" d="M5.8,38.7c0,3.7,3,6.8,6.8,6.8s6.8-3,6.8-6.8s-3-6.8-6.8-6.8c-2.2,0-4.1,1-5.3,2.6C7,33,6.8,31.5,6.8,30
		c0-10.3,6.7-19.3,16.5-22.2c0.5,3.3,3.3,5.8,6.7,5.8c3.4,0,6.2-2.5,6.7-5.8c9.8,2.9,16.5,11.9,16.5,22.2c0,1.5-0.2,3.1-0.5,4.6
		c-1.2-1.6-3.2-2.6-5.3-2.6c-3.7,0-6.8,3-6.8,6.8s3,6.8,6.8,6.8c3.7,0,6.8-3,6.8-6.8c0-0.5,0-0.9-0.1-1.3c0.7-2.4,1.1-4.9,1.1-7.4
		c0-11.4-7.6-21.2-18.5-24.2C36.2,2.5,33.4,0,30,0c-3.4,0-6.2,2.5-6.7,5.8C12.4,8.8,4.8,18.6,4.8,30c0,2.5,0.4,5,1.1,7.4
		C5.9,37.8,5.8,38.2,5.8,38.7 M47.4,43.5c-2.7,0-4.8-2.2-4.8-4.8c0-2.7,2.2-4.8,4.8-4.8c2.7,0,4.8,2.2,4.8,4.8
		C52.3,41.4,50.1,43.5,47.4,43.5 M30,1.9c2.7,0,4.8,2.2,4.8,4.8c0,2.7-2.2,4.8-4.8,4.8c-2.7,0-4.8-2.2-4.8-4.8
		C25.2,4.1,27.3,1.9,30,1.9 M12.6,33.9c2.7,0,4.8,2.2,4.8,4.8c0,2.7-2.2,4.8-4.8,4.8s-4.8-2.2-4.8-4.8C7.7,36,9.9,33.9,12.6,33.9"/>
	<path class="st2" d="M58,48.5L58,48.5c-1.2-1.4-2.9-2.4-4.8-2.8l-0.4-0.1l-0.3,0.2c-0.7,0.5-3.3,3.7-5,5.8c-1.7-2.1-4.3-5.4-5-5.8
		l-0.3-0.2l-0.4,0.1c-1.9,0.4-3.6,1.4-4.8,2.8c-1,1.2-1.6,2.6-1.9,4.2c-3.2,0.7-6.7,0.7-9.9,0c-0.2-1.5-0.9-3-1.9-4.2
		c-1.2-1.4-2.9-2.4-4.8-2.8l-0.4-0.1l-0.3,0.2c-0.7,0.5-3.3,3.7-5,5.8c-1.7-2.1-4.3-5.4-5-5.8l-0.3-0.2l-0.4,0.1
		c-1.9,0.4-3.6,1.4-4.8,2.8c-1.3,1.6-2,3.6-2,5.6V60h25.2v-5.3c1.6,0.3,3.2,0.5,4.8,0.5c1.6,0,3.2-0.2,4.8-0.5V60H60v-5.9
		C60,52.1,59.3,50.1,58,48.5 M23.2,58.1H1.9v-3.9c0-1.6,0.6-3.2,1.6-4.4c0.8-1,1.9-1.7,3.2-2.1c0.9,0.9,3.1,3.7,5.1,6.1l0.8,1l0.8-1
		c2-2.5,4.2-5.2,5.1-6.1c1.3,0.4,2.4,1.1,3.2,2.1c1,1.2,1.6,2.8,1.6,4.4L23.2,58.1L23.2,58.1z M58.1,58.1H36.8v-3.9
		c0-1.6,0.6-3.2,1.6-4.4c0.8-1,1.9-1.7,3.2-2.1c0.9,0.9,3.1,3.7,5.1,6.1l0.8,1l0.8-1c2-2.5,4.2-5.2,5.1-6.1c1.3,0.4,2.4,1.1,3.2,2.1
		c1,1.2,1.6,2.8,1.6,4.4L58.1,58.1L58.1,58.1z"/>
	<rect x="29" y="31.9" class="st2" width="1.9" height="1.9"/>
	<rect x="32.9" y="31.9" class="st2" width="1.9" height="1.9"/>
	<rect x="25.2" y="31.9" class="st2" width="1.9" height="1.9"/>
</g>
</svg>
