<?xml version="1.0" encoding="utf-8"?>
<!-- Generator: Adobe Illustrator 19.1.0, SVG Export Plug-In . SVG Version: 6.00 Build 0)  -->
<svg version="1.1" id="Layer_1" xmlns="http://www.w3.org/2000/svg" xmlns:xlink="http://www.w3.org/1999/xlink" x="0px" y="0px"
	 viewBox="0 0 43.6 60" style="enable-background:new 0 0 43.6 60;" xml:space="preserve">
<style type="text/css">
	.st0{fill:#4995EC;}
	.st1{fill:#61B63D;}
	.st2{clip-path:url(#SVGID_2_);fill:#444B54;}
</style>
<polygon class="st0" points="20.3,49 18.2,59.3 25.5,58.9 23.9,48.9 "/>
<polygon class="st1" points="21.9,42.6 18.6,45.7 19.8,48.8 23.4,48.8 25.2,45.6 "/>
<g>
	<defs>
		<rect id="SVGID_1_" width="43.6" height="60"/>
	</defs>
	<clipPath id="SVGID_2_">
		<use xlink:href="#SVGID_1_"  style="overflow:visible;"/>
	</clipPath>
	<path class="st2" d="M38.6,41.6L38.6,41.6c-0.9-0.6-1.7-0.9-1.9-1l-5.4-2.3l-3.8-2.5c0,0-0.1,0-0.1-0.1v-1.6c2.9-1.4,5-4.2,5.4-7.6
		c2.3-0.2,4.2-2.1,4.2-4.5c0-1.2-0.4-2.2-1.2-3.1v-5.8C35.7,6,29.8,0,22.5,0h-1C14.1,0,8.2,6,8.2,13.3V19c-0.8,0.8-1.2,1.9-1.2,3.1
		c0,2.4,1.8,4.3,4.2,4.5c0.5,3.3,2.5,6.1,5.4,7.6v1.5l-4,2.6c-0.1,0-0.1,0-0.2,0l-5.5,2.3c-0.3,0.1-1.9,0.7-3.5,2.2
		C1.9,44.4,0,47.1,0,51.4V59c0,0.5,0.4,1,1,1h11.3c0.5,0,1-0.4,1-1c0-0.5-0.4-1-1-1H9.3V51c0-0.5-0.4-1-1-1s-1,0.4-1,1v7.1H1.9v-6.7
		c0-6.9,5.4-8.8,5.7-8.9c0,0,0,0,0.1,0l4.5-1.9l4.9,17.5h-1.9c-0.5,0-1,0.4-1,1c0,0.5,0.4,1,1,1h3.1c0,0,0,0,0,0s0,0,0,0h7.2h0h0
		c0,0,0,0,0,0c0,0,0,0,0,0h17.1c0.5,0,1-0.4,1-1v-7.7C43.6,45.8,40.4,42.9,38.6,41.6 M29.7,39.7l-2.9,5.9L23.3,43l3.8-3.9
		c0.2-0.2,0.3-0.5,0.3-0.8c0,0,0-0.1,0-0.1v-0.1L29.7,39.7z M23.9,45.8l-0.7,2h-2.6l-0.8-2l2.1-1.5L23.9,45.8z M18.4,38.3
		c0-0.1,0-0.1,0-0.2v-1.9v0v-1.3c0.8,0.2,1.7,0.3,2.5,0.3h2c0.9,0,1.7-0.1,2.5-0.3V38l-3.5,3.7L18.4,38.3z M35,22.1
		c0,1.3-0.9,2.4-2.2,2.6v-5.2C34.1,19.8,35,20.8,35,22.1 M11,24.7c-1.2-0.2-2.2-1.3-2.2-2.6c0-1.3,0.9-2.4,2.2-2.6V24.7z M12,16.7
		L12,16.7c0,0-0.1,0-0.1,0c0,0,0,0,0,0c0,0,0,0-0.1,0c0,0,0,0,0,0c0,0,0,0-0.1,0c0,0,0,0,0,0c0,0,0,0,0,0c0,0,0,0-0.1,0c0,0,0,0,0,0
		c0,0,0,0,0,0c0,0,0,0,0,0c0,0,0,0,0,0c0,0,0,0,0,0c0,0,0,0,0,0c0,0,0,0,0,0c0,0,0,0,0,0c0,0,0,0,0,0c0,0,0,0,0,0c0,0,0,0,0,0
		c0,0,0,0,0,0c0,0,0,0,0,0c0,0,0,0,0,0c0,0,0,0,0,0c0,0,0,0,0,0c0,0,0,0,0,0c0,0,0,0,0,0c0,0,0,0,0,0.1c0,0,0,0,0,0c0,0,0,0,0,0.1
		c0,0,0,0,0,0c0,0,0,0,0,0c-0.3,0-0.6,0.1-0.9,0.2v-4.5c0-6.3,5.1-11.4,11.4-11.4h1c6.3,0,11.4,5.1,11.4,11.4v4.6
		c-0.3-0.1-0.6-0.2-1-0.2c0,0,0,0,0,0c0,0,0,0,0-0.1c0,0,0,0,0,0c0,0,0,0,0-0.1c0,0,0,0,0,0c0,0,0,0,0,0c0,0,0,0,0-0.1c0,0,0,0,0,0
		c0,0,0,0,0-0.1c0,0,0,0,0,0c0,0,0,0,0,0c0,0,0,0,0,0c0,0,0,0,0,0c0,0,0,0,0,0c0,0,0,0,0,0c0,0,0,0,0,0c0,0,0,0,0,0c0,0,0,0,0,0
		c0,0,0,0,0,0c0,0,0,0,0,0c0,0,0,0,0,0c0,0,0,0,0,0c0,0,0,0,0,0c0,0,0,0,0,0c0,0,0,0-0.1,0c0,0,0,0,0,0c0,0,0,0-0.1,0c0,0,0,0,0,0
		c-3.7-0.8-4.9-5.5-4.9-5.6c-0.1-0.4-0.4-0.6-0.7-0.7c-0.4-0.1-0.7,0.1-1,0.4C21.3,16.6,12.1,16.7,12,16.7L12,16.7z M12.9,25.3v-6.7
		c2.4-0.2,8.9-1,13.1-5.3c0.7,1.7,2.2,4.2,5,5.1v7c0,4.4-3.6,8-8,8h-2C16.5,33.3,12.9,29.7,12.9,25.3 M16.5,38v0.1
		c0,0.1,0,0.2,0,0.3c-0.1,0.3,0,0.7,0.2,1l3.6,3.5l-3.6,2.6L14,39.7L16.5,38z M18.1,54.6L16.2,48c0,0,0,0,0,0c0.1,0,0.2,0,0.2,0
		c0.2,0,0.4-0.1,0.6-0.2l1.2-0.8l0.8,1.9L18.1,54.6z M19.5,58.1l1.4-8.4H23l1.4,8.4H19.5z M24.8,48.9l0.7-1.9l1.1,0.8
		c0.2,0.1,0.4,0.2,0.6,0.2c0.1,0,0.2,0,0.2,0c0.1,0,0.2,0,0.2-0.1l-1.9,6.8L24.8,48.9z M41.7,58.1L41.7,58.1h-5.5V51
		c0-0.5-0.4-1-1-1c-0.5,0-1,0.4-1,1v7.1h-7.6l4.9-17.4l4.3,1.8c0,0,0,0,0.1,0c0,0,0.6,0.2,1.5,0.8l0,0c1.9,1.2,4.2,3.7,4.2,8.1V58.1
		z"/>
	<path class="st2" d="M23,26.2c0.5,0,1-0.4,1-1c0-0.5-0.4-1-1-1h-0.7v-2.2c0-0.5-0.4-1-1-1c-0.5,0-1,0.4-1,1v3.2c0,0.5,0.4,1,1,1H23
		z"/>
</g>
</svg>
