<svg xmlns="http://www.w3.org/2000/svg" viewBox="0 0 69.5 69.5"><defs><style>.cls-1{fill:#2bb0e1;}.cls-2{fill:#fff;}</style></defs><title>Asset 4</title><g id="Layer_2" data-name="Layer 2"><g id="Layer_1-2" data-name="Layer 1"><circle class="cls-1" cx="34.75" cy="34.75" r="34.75"/><path class="cls-2" d="M50.54,17.57H19a2.79,2.79,0,0,0-2.79,2.79v3.71H53.32V20.36A2.79,2.79,0,0,0,50.54,17.57ZM20.82,22.68a1.86,1.86,0,1,1,1.86-1.86A1.86,1.86,0,0,1,20.82,22.68Zm29.72-.46H34.75V19.43H50.54Z"/><path class="cls-2" d="M16.18,26.86V49.14A2.79,2.79,0,0,0,19,51.93H50.54a2.79,2.79,0,0,0,2.79-2.79V26.86ZM39.86,39.39a5.1,5.1,0,0,1-.16,1.25l1.37.79-1.39,2.41-1.38-.8a5.11,5.11,0,0,1-2.16,1.25v1.59H33.36V44.31a5.11,5.11,0,0,1-2.16-1.25l-1.38.8-1.39-2.41,1.37-.79a5.11,5.11,0,0,1,0-2.5l-1.37-.79,1.39-2.41,1.38.8a5.11,5.11,0,0,1,2.16-1.25V32.89h2.79v1.59a5.11,5.11,0,0,1,2.16,1.25l1.38-.8,1.39,2.41-1.37.79A5.09,5.09,0,0,1,39.86,39.39Z"/><path class="cls-2" d="M34.75,37.07a2.32,2.32,0,1,0,2.32,2.32A2.32,2.32,0,0,0,34.75,37.07Z"/></g></g></svg>