<svg xmlns="http://www.w3.org/2000/svg" viewBox="0 0 69.5 69.5"><defs><style>.cls-1{fill:#595ebd;}.cls-2{fill:#fff;}</style></defs><title>Asset 12</title><g id="Layer_2" data-name="Layer 2"><g id="Layer_1-2" data-name="Layer 1"><circle class="cls-1" cx="34.75" cy="34.75" r="34.75"/><path class="cls-2" d="M45.29,39.23a15.41,15.41,0,0,1-9,3.71h-.24a2.14,2.14,0,0,1-.24-4.27,11.2,11.2,0,0,0,8.65-4.91,10.81,10.81,0,0,1,2.33-2.37l.08,0a4.43,4.43,0,0,1,2.84-1.06h2.67a4.5,4.5,0,0,1,4.48,4.49V47.26H45.29Z"/><path class="cls-2" d="M51.09,29.14A4.94,4.94,0,1,1,56,24.19,4.93,4.93,0,0,1,51.09,29.14Z"/><path class="cls-2" d="M32.68,41.18a3.39,3.39,0,0,0,.62,1.54,15.12,15.12,0,0,1-7.78-3.53v8.06H13.89V34.79a4.5,4.5,0,0,1,4.48-4.49H21a4.47,4.47,0,0,1,2.85,1.06s.05,0,.08,0a10.8,10.8,0,0,1,2.32,2.37,11.15,11.15,0,0,0,7.36,4.68A3.41,3.41,0,0,0,32.68,41.18Z"/><path class="cls-2" d="M19.71,29.14a4.94,4.94,0,1,1,4.92-4.94A4.93,4.93,0,0,1,19.71,29.14Z"/></g></g></svg>