<svg xmlns="http://www.w3.org/2000/svg" viewBox="0 0 69.5 69.5"><defs><style>.cls-1{fill:#2bb0e1;}.cls-2{fill:#fff;}</style></defs><title>Asset 13</title><g id="Layer_2" data-name="Layer 2"><g id="Layer_1-2" data-name="Layer 1"><circle class="cls-1" cx="34.75" cy="34.75" r="34.75"/><path class="cls-2" d="M47.27,34.73V32.41h5v2.32ZM42.85,23.82l3.45-3.46,1.54,1.55L44.4,25.36Zm-9.26-7.89h2.33v5H33.59Zm9.63,11.84a10.35,10.35,0,0,1-.75,12.56,9.87,9.87,0,0,0-1.78,2.4.31.31,0,0,1-.23.16H35.92c0-2,0-3.84,0-5.73a.42.42,0,0,1,.22-.3,3.71,3.71,0,0,0,2.28-3.23,3.68,3.68,0,0,0-7.23-1.23,3.71,3.71,0,0,0,2,4.38.52.52,0,0,1,.37.58c0,1.69,0,3.38,0,5.08v.41a3.12,3.12,0,0,1-.31,0H29.19a.47.47,0,0,1-.45-.27,13.58,13.58,0,0,0-1.28-1.8A10.35,10.35,0,0,1,32,23.64,10.18,10.18,0,0,1,43.22,27.77ZM21.66,21.95l1.59-1.6,3.39,3.43-1.58,1.6Zm.58,12.78h-5V32.4h5Zm12.49-2.64a1.34,1.34,0,1,1-1.31,1.35A1.32,1.32,0,0,1,34.73,32.09ZM41.34,45.3v3.42c0,1.66-.35,2.15-1.91,2.7a4.7,4.7,0,0,1-1.61,3.34,4.48,4.48,0,0,1-2.31,1.1,1.49,1.49,0,0,0-.22.07H34.21a10.16,10.16,0,0,1-1.07-.3,4.6,4.6,0,0,1-3-3.95.34.34,0,0,0-.31-.35,2,2,0,0,1-1.6-1.78c-.06-1.4,0-2.81,0-4.24Z"/></g></g></svg>