<svg xmlns="http://www.w3.org/2000/svg" viewBox="0 0 731.07 179.41"><defs><style>.cls-1{fill:#f97933;}.cls-1,.cls-2,.cls-3,.cls-4,.cls-5{opacity:0.9;}.cls-2{fill:#f43868;}.cls-3{fill:#6a40ad;}.cls-4{fill:#349bf1;}.cls-5{fill:#01bb74;}.cls-6{fill:#fff;}</style></defs><title>Asset 14</title><g id="Layer_2" data-name="Layer 2"><g id="Layer_1-2" data-name="Layer 1"><circle class="cls-1" cx="87.89" cy="87.89" r="87.89"/><circle class="cls-2" cx="226.71" cy="91.51" r="87.89"/><circle class="cls-3" cx="365.54" cy="87.89" r="87.89"/><circle class="cls-4" cx="504.36" cy="91.51" r="87.89"/><circle class="cls-5" cx="643.18" cy="91.51" r="87.89"/><path class="cls-6" d="M661.2,121.27a1.67,1.67,0,0,1,1.89,1.89v7.2a1.93,1.93,0,0,1-.59,1.42,1.8,1.8,0,0,1-1.3.59l-37.38-.12a1.67,1.67,0,0,1-1.89-1.89V51.62a1.67,1.67,0,0,1,1.89-1.89h37.26a2,2,0,0,1,1.42.53,1.75,1.75,0,0,1,.59,1.36v7.2a1.75,1.75,0,0,1-.59,1.36,2,2,0,0,1-1.42.53H632.9V85H657a2,2,0,0,1,2,2v7.2a1.75,1.75,0,0,1-.59,1.36,2,2,0,0,1-1.42.53H632.9v25.15ZM520.77,89.34a24.07,24.07,0,0,1-7.43,5,22.39,22.39,0,0,1-9,1.83h-14v34.35a1.75,1.75,0,0,1-.59,1.36,1.9,1.9,0,0,1-1.3.53h-7.19a2,2,0,0,1-1.42-.53,1.74,1.74,0,0,1-.59-1.36V51.62a1.75,1.75,0,0,1,.59-1.36,2,2,0,0,1,1.42-.53h23.11a22.42,22.42,0,0,1,9,1.83,24.14,24.14,0,0,1,7.43,5,23,23,0,0,1,5,7.38,22.49,22.49,0,0,1,1.83,9,23,23,0,0,1-6.84,16.47ZM515.58,68.2a13,13,0,0,0-2.6-3.89,11.66,11.66,0,0,0-3.89-2.66,12,12,0,0,0-4.72-.94h-14V85.14h14a12,12,0,0,0,4.72-.95A11.6,11.6,0,0,0,513,81.54a12.8,12.8,0,0,0,2.6-4,12.07,12.07,0,0,0,.94-4.72A11.66,11.66,0,0,0,515.58,68.2Zm-118.15,64h-7.66a1.63,1.63,0,0,1-1.77-1.18l-12-29.75-23.11.12-12,29.63a1.63,1.63,0,0,1-1.77,1.18h-7.78a1.8,1.8,0,0,1-1.53-.83,1.84,1.84,0,0,1-.24-1.77L358.4,58l-2.24-5.79a2,2,0,0,1,.12-1.77,1.91,1.91,0,0,1,1.65-.83h7.67a2,2,0,0,1,1.89,1.18l31.72,78.86a2,2,0,0,1-.12,1.77A1.91,1.91,0,0,1,397.44,132.25Zm-33-59.62-7.08,17.71h14.15ZM249.87,132.37h-7.19a1.67,1.67,0,0,1-1.89-1.89V96.12h-32.9v34.35a1.75,1.75,0,0,1-.59,1.36,2,2,0,0,1-1.41.53h-7.08a2,2,0,0,1-1.41-.53,1.74,1.74,0,0,1-.59-1.36V51.62a1.75,1.75,0,0,1,.59-1.36,2,2,0,0,1,1.41-.53h7.08a2,2,0,0,1,1.41.53,1.75,1.75,0,0,1,.59,1.36V85.14h32.9V51.62a1.67,1.67,0,0,1,1.89-1.89h7.19a2,2,0,0,1,1.42.53,1.75,1.75,0,0,1,.59,1.36v78.86a1.75,1.75,0,0,1-.59,1.36A2,2,0,0,1,249.87,132.37ZM111,118.55a12.8,12.8,0,0,1-1.42,2.6q-.83,1.18-2.36,3a20,20,0,0,1-4.42,3.72,33.38,33.38,0,0,1-7.31,3.42,46.57,46.57,0,0,1-10.91,2.13H82.43a30,30,0,0,1-8.73-1.18,35.88,35.88,0,0,1-6.9-2.83A32.3,32.3,0,0,1,61.74,126q-2.06-1.71-3.24-2.89a1.9,1.9,0,0,1-.53-1.24,1.37,1.37,0,0,1,.53-1.24q2-1.53,3.6-2.83T64.27,116a1.5,1.5,0,0,1,.71-.35,1.73,1.73,0,0,1,1.65.47q1.18.95,2.89,2.13a22.58,22.58,0,0,0,3.89,2.13,26.71,26.71,0,0,0,4.84,1.53,19.29,19.29,0,0,0,5.72.35q7.78-.71,11.79-3.07,3.65-2.36,4.48-4a24,24,0,0,0,1.18-3.25,8.45,8.45,0,0,0-.12-5,16.32,16.32,0,0,0-2.06-3.48,13.18,13.18,0,0,0-3.95-3.13L71.35,89Q65.57,85.62,63.21,82a21.73,21.73,0,0,1-3.07-6.73,19,19,0,0,1-.53-4.9,20.8,20.8,0,0,1,.59-4.55,17.06,17.06,0,0,1,1.36-3.72,18.38,18.38,0,0,1,1.53-2.54q7.54-10.74,23-10.74A33.92,33.92,0,0,1,93.4,50a33.17,33.17,0,0,1,6,2.3A38.44,38.44,0,0,1,104,55a35.15,35.15,0,0,1,3.3,2.6,1.46,1.46,0,0,1,.41,1.42,2.78,2.78,0,0,1-.77,1.42q-1.53,1.18-2.83,2.24a23.54,23.54,0,0,1-2.06,1.65q-1,.71-1.12.83a2.51,2.51,0,0,1-.83.47c-.4.16-.83,0-1.3-.59a41.85,41.85,0,0,0-5.25-3.31A15.38,15.38,0,0,0,86.09,60a24.64,24.64,0,0,0-6.13.65,17.7,17.7,0,0,0-4.07,1.53A9,9,0,0,0,73.47,64a11.63,11.63,0,0,0-1.18,1.53q-.35.83-1.12,2.83a8.5,8.5,0,0,0-.41,4.37q.82,3.66,5.54,6.49l23.94,11.1.59.24A23.05,23.05,0,0,1,105.66,94a21.4,21.4,0,0,1,3.24,3.78,23.13,23.13,0,0,1,2,3.72,21.23,21.23,0,0,1,1.12,3.37,22.3,22.3,0,0,1,.53,5.25,28.1,28.1,0,0,1-.47,4.66A18.65,18.65,0,0,1,111,118.55Z"/></g></g></svg>