<svg xmlns="http://www.w3.org/2000/svg" viewBox="0 0 69.5 69.5"><defs><style>.cls-1{fill:#5eb833;}.cls-2{fill:#fff;}</style></defs><title>Asset 11</title><g id="Layer_2" data-name="Layer 2"><g id="Layer_1-2" data-name="Layer 1"><circle class="cls-1" cx="34.75" cy="34.75" r="34.75"/><path class="cls-2" d="M52.9,29.49c-1.34,0-2.68,0-4,0h-.4V30q0,2.15,0,4.3c0,1-.43,1.41-1.43,1.41H45.41a1.16,1.16,0,0,1-1.29-1.27c0-1.5,0-3,0-4.49,0-.13,0-.25,0-.42H39.51a1.17,1.17,0,0,1-1.3-1.29q0-.79,0-1.59a1.18,1.18,0,0,1,1.32-1.29h4.56c0-.17,0-.3,0-.44,0-1.44,0-2.89,0-4.33,0-1,.42-1.38,1.41-1.38h1.56c1,0,1.39.42,1.39,1.36,0,1.44,0,2.89,0,4.33v.46h.46c1.31,0,2.63,0,3.94,0a1.38,1.38,0,0,1,1.5.91v2.4A1.39,1.39,0,0,1,52.9,29.49Z"/><path class="cls-2" d="M40.74,47.62c-.49-1.61-1-3.22-1.51-4.84L32.59,21.56a2,2,0,0,0-2.23-1.62H24.73a2,2,0,0,0-2.2,1.61L17.19,38.89,14.38,48v.7s.06.05.07.08a1.89,1.89,0,0,0,2,1.4h2.65a2,2,0,0,0,2.23-1.67c.53-1.91,1.07-3.82,1.59-5.74a.4.4,0,0,1,.47-.36q4,0,8,0a.41.41,0,0,1,.48.35c.58,2,1.18,3.92,1.77,5.89a1.91,1.91,0,0,0,2.06,1.53h3a2.66,2.66,0,0,0,.73-.08A1.85,1.85,0,0,0,40.74,47.62ZM24,37.24c.07-.29.12-.55.19-.8l2.42-9.15.07-.22a.55.55,0,0,1,1.09,0c.23.77.45,1.53.67,2.3l2.16,7.46c0,.12.06.24.11.42Z"/></g></g></svg>