<?xml version="1.0" encoding="utf-8"?>
<!-- Generator: Adobe Illustrator 19.1.0, SVG Export Plug-In . SVG Version: 6.00 Build 0)  -->
<svg version="1.1" id="Layer_1" xmlns="http://www.w3.org/2000/svg" xmlns:xlink="http://www.w3.org/1999/xlink" x="0px" y="0px"
	 viewBox="-743 1245 512 512" style="enable-background:new -743 1245 512 512;" xml:space="preserve">
<style type="text/css">
	.st0{fill:#4995EC;}
	.st1{fill:#61B63D;}
	.st2{fill:#444B54;}
</style>
<path class="st0" d="M-316.3,1573.5h-128c-5.1,0-8.5,3.4-8.5,8.5c0,5.1,3.4,8.5,8.5,8.5h128c5.1,0,8.5-3.4,8.5-8.5
	C-307.8,1576.9-311.2,1573.5-316.3,1573.5z"/>
<path class="st0" d="M-563.8,1530.9c0-5.1-3.4-8.5-8.5-8.5h-85.3c-5.1,0-8.5,3.4-8.5,8.5c0,5.1,3.4,8.5,8.5,8.5h85.3
	C-567.2,1539.4-563.8,1536-563.8,1530.9z"/>
<path class="st0" d="M-487,1539.4h128c5.1,0,8.5-3.4,8.5-8.5c0-5.1-3.4-8.5-8.5-8.5h-128c-5.1,0-8.5,3.4-8.5,8.5
	C-495.5,1536-492.1,1539.4-487,1539.4z"/>
<path class="st0" d="M-478.5,1582.1c0-5.1-3.4-8.5-8.5-8.5h-128c-5.1,0-8.5,3.4-8.5,8.5s3.4,8.5,8.5,8.5h128
	C-481.9,1590.6-478.5,1587.2-478.5,1582.1z"/>
<path class="st1" d="M-452.9,1428.5c0,5.1,3.4,8.5,8.5,8.5h128c5.1,0,8.5-3.4,8.5-8.5c0-5.1-3.4-8.5-8.5-8.5h-128
	C-449.5,1419.9-452.9,1423.3-452.9,1428.5z"/>
<path class="st1" d="M-316.3,1471.1h-85.3c-5.1,0-8.5,3.4-8.5,8.5s3.4,8.5,8.5,8.5h85.3c5.1,0,8.5-3.4,8.5-8.5
	C-307.8,1474.5-311.2,1471.1-316.3,1471.1z"/>
<path class="st1" d="M-487,1488.2h17.1c5.1,0,8.5-3.4,8.5-8.5s-3.4-8.5-8.5-8.5H-487c-5.1,0-8.5,3.4-8.5,8.5
	S-492.1,1488.2-487,1488.2z"/>
<path class="st1" d="M-487,1385.8h128c5.1,0,8.5-3.4,8.5-8.5s-3.4-8.5-8.5-8.5h-128c-5.1,0-8.5,3.4-8.5,8.5
	S-492.1,1385.8-487,1385.8z"/>
<path class="st1" d="M-529.7,1360.2h-136.5v136.5h136.5V1360.2L-529.7,1360.2z M-546.7,1479.7h-102.4v-102.4h102.4V1479.7z"/>
<path class="st2" d="M-239.5,1616.2h-25.6v-264.5c0-14.5-11.1-25.6-25.6-25.6h-392.5c-14.5,0-25.6,11.1-25.6,25.6v264.5h-25.6
	c-5.1,0-8.5,3.4-8.5,8.5v25.6c0,14.5,11.1,25.6,25.6,25.6h460.8c14.5,0,25.6-11.1,25.6-25.6v-25.6
	C-231,1619.6-234.4,1616.2-239.5,1616.2z M-691.8,1351.7c0-5.1,3.4-8.5,8.5-8.5h392.5c5.1,0,8.5,3.4,8.5,8.5v264.5h-136.5
	c-5.1,0-8.5,3.4-8.5,8.5v8.5h-119.5v-8.5c0-5.1-3.4-8.5-8.5-8.5h-136.5V1351.7z M-248.1,1650.3c0,5.1-3.4,8.5-8.5,8.5h-460.8
	c-5.1,0-8.5-3.4-8.5-8.5v-17.1h25.6h136.5v8.5c0,5.1,3.4,8.5,8.5,8.5h136.5c5.1,0,8.5-3.4,8.5-8.5v-8.5h136.5h25.6L-248.1,1650.3
	L-248.1,1650.3z"/>
<g>
	<path class="st2" d="M-981.6,1520.1c46-32.9,73.3-84,73.3-138.2c0-96-83.9-174.1-187-174.1c-60.7,0-117.4,27.3-152.5,73.3h-155.8
		c-4.5,0-8.1,3.6-8.1,8.1v340.6c0,4.5,3.6,8.1,8.1,8.1h60.9v73.8c0,3.3,1.9,6.2,4.9,7.4c1,0.4,2.1,0.6,3.1,0.6
		c2.1,0,4.1-0.8,5.6-2.3l81.7-79.6h145.5c4.5,0,8.1-3.6,8.1-8.1v-73.9c15.2-0.1,30.3-1.9,44.9-5.4l82.1,30.8
		c0.9,0.3,1.9,0.5,2.8,0.5c2.2,0,4.4-0.9,6-2.7c2.2-2.5,2.7-6.1,1.2-9L-981.6,1520.1z M-1109.9,1621.7h-140.7
		c-2.1,0-4.1,0.8-5.6,2.3l-70.3,68.5v-62.8c0-4.5-3.6-8.1-8.1-8.1h-60.9v-324.4h136.7c-9.8,16.4-16.7,34.4-20.4,52.8h-64.1
		c-4.5,0-8.1,3.6-8.1,8.1v25.9c0,4.5,3.6,8.1,8.1,8.1h61.2c0.9,15.1,4,29.9,9,44.2h-70.2c-4.5,0-8.1,3.6-8.1,8.1v25.9
		c0,4.5,3.6,8.1,8.1,8.1h92.3c12.3,17.2,27.7,32.1,45.5,44.2h-137.7c-4.5,0-8.1,3.6-8.1,8.1v25.9c0,4.5,3.6,8.1,8.1,8.1h181.1
		c4.5,0,8.1-3.6,8.1-8.1v-9.3c14.3,4.4,29.1,7.2,44.2,8.2L-1109.9,1621.7L-1109.9,1621.7z M-1281.6,1366.3c-0.3,3.2-0.6,6.5-0.7,9.7
		h-52.9v-9.7H-1281.6z M-1266.3,1452.5c1.6,3.3,3.2,6.5,5,9.7h-73.9v-9.7H-1266.3z M-1176.5,1538.7c2.1,0.9,4.2,1.8,6.3,2.7v7
		h-164.9v-9.7H-1176.5z M-1045.5,1534.5c-1.5-0.6-3.2-0.7-4.8-0.3c-14.6,3.7-29.8,5.6-45.1,5.6c-1.9,0-3.8,0-6.2-0.1h0
		c-20-0.7-39.4-4.5-57.8-11.3c-4.1-1.5-8.1-3.2-12.1-5c-28.2-13-51.9-32.9-68.7-57.5c0,0,0,0,0,0c0,0,0,0,0,0c0,0,0,0,0,0
		c-5.3-7.8-9.8-16-13.6-24.5c0,0,0,0,0,0c0,0,0-0.1,0-0.1c0,0,0,0,0,0c-8-18.2-12.2-37.4-12.4-57.2c0,0,0,0,0,0v0l0-0.7
		c0-0.4,0-0.9,0-1.3c0-7.5,0.6-15,1.7-22.5v0c3.6-23.6,12.8-45.6,27.2-65.5c31.8-43.8,84.9-70,141.9-70
		c94.2,0,170.8,70.8,170.8,157.9c0,51-26.9,99.2-72,128.8c-3.4,2.3-4.6,6.7-2.8,10.4l19,37.9L-1045.5,1534.5z"/>
</g>
<g>
	<g>
		<path class="st0" d="M-956.2,1319.9c-2.1-3.9-7-5.4-10.9-3.3c-3.9,2.1-5.4,7-3.3,10.9c9.1,17.1,13.7,35.4,13.7,54.4
			c0,4.5,3.6,8.1,8.1,8.1s8.1-3.6,8.1-8.1C-940.6,1360.2-945.9,1339.3-956.2,1319.9z"/>
	</g>
</g>
<g>
	<g>
		<path class="st0" d="M-984.1,1283.4c-29.4-27.9-68.9-43.3-111.2-43.3c-4.5,0-8.1,3.6-8.1,8.1c0,4.5,3.6,8.1,8.1,8.1
			c38.1,0,73.6,13.8,100.1,38.9c1.6,1.5,3.6,2.2,5.6,2.2c2.1,0,4.3-0.8,5.9-2.5C-980.8,1291.6-980.9,1286.5-984.1,1283.4z"/>
	</g>
</g>
<g>
	<g>
		<path class="st1" d="M-1103.9,1363c-17.5,0-31.8,14.3-31.8,31.8c0,17.5,14.3,31.8,31.8,31.8c17.5,0,31.8-14.3,31.8-31.8
			C-1072.2,1377.3-1086.4,1363-1103.9,1363z M-1103.9,1410.5c-8.6,0-15.6-7-15.6-15.6c0-8.6,7-15.6,15.6-15.6
			c8.6,0,15.6,7,15.6,15.6C-1088.3,1403.4-1095.3,1410.5-1103.9,1410.5z"/>
	</g>
</g>
<g>
	<g>
		<path class="st1" d="M-1017.7,1363c-17.5,0-31.8,14.3-31.8,31.8c0,17.5,14.3,31.8,31.8,31.8c17.5,0,31.8-14.3,31.8-31.8
			C-985.9,1377.3-1000.2,1363-1017.7,1363z M-1017.7,1410.5c-8.6,0-15.6-7-15.6-15.6c0-8.6,7-15.6,15.6-15.6c8.6,0,15.6,7,15.6,15.6
			C-1002.1,1403.4-1009.1,1410.5-1017.7,1410.5z"/>
	</g>
</g>
<g>
	<g>
		<path class="st1" d="M-1190.2,1363c-17.5,0-31.8,14.3-31.8,31.8c0,17.5,14.3,31.8,31.8,31.8c17.5,0,31.8-14.3,31.8-31.8
			C-1158.4,1377.3-1172.6,1363-1190.2,1363z M-1190.2,1410.5c-8.6,0-15.6-7-15.6-15.6c0-8.6,7-15.6,15.6-15.6s15.6,7,15.6,15.6
			C-1174.6,1403.4-1181.6,1410.5-1190.2,1410.5z"/>
	</g>
</g>
</svg>
