<svg xmlns="http://www.w3.org/2000/svg" viewBox="0 0 69.5 69.5"><defs><style>.cls-1{fill:#5eb833;}.cls-2{fill:#fff;}</style></defs><title>Asset 2</title><g id="Layer_2" data-name="Layer 2"><g id="Layer_1-2" data-name="Layer 1"><circle class="cls-1" cx="34.75" cy="34.75" r="34.75"/><path class="cls-2" d="M47.41,49.75V18.19H48c2.5,0,2.49-3.44,2.49-3.44H19s0,3.44,2.49,3.44h.62V51.31h-.62C19,51.31,19,54.75,19,54.75H50.52s0-3.44-2.49-3.44h-.62V49.75ZM41.37,38a9.6,9.6,0,0,1,3,11.28S39.93,44.62,36,40.37v-8.7a8.46,8.46,0,0,0,4.14-1.82,9.78,9.78,0,0,0,2.73-4.32H26.62a9.83,9.83,0,0,0,2.74,4.32,8.46,8.46,0,0,0,4.14,1.82v8.7c-4.33,4.74-8.38,8.89-8.38,8.89a9.51,9.51,0,0,1,6.35-12.91V33.14a9.5,9.5,0,0,1-6.35-12.91l.2-.48H44.18l.2.48A9.5,9.5,0,0,1,38,33.14v3.23A9.47,9.47,0,0,1,41.37,38Z"/></g></g></svg>