<svg xmlns="http://www.w3.org/2000/svg" xmlns:xlink="http://www.w3.org/1999/xlink" viewBox="0 0 339.66 399.64"><defs><style>.cls-1{isolation:isolate;}.cls-2{opacity:0.4;}.cls-3{fill:#5c8896;}.cls-11,.cls-12,.cls-13,.cls-14,.cls-15,.cls-16,.cls-17,.cls-18,.cls-20,.cls-21,.cls-22,.cls-23,.cls-24,.cls-26,.cls-27,.cls-28,.cls-3,.cls-4,.cls-5,.cls-6,.cls-7,.cls-8,.cls-9{fill-rule:evenodd;}.cls-4{fill:#193a45;}.cls-5{fill:#ffe3d3;}.cls-6{fill:#264b57;}.cls-7{fill:#495154;}.cls-8{fill:#646b6e;}.cls-25,.cls-9{fill:#fff;}.cls-10{fill:#d1b8aa;}.cls-11{fill:#e6e6e6;}.cls-12{fill:#946335;}.cls-13{fill:#427687;}.cls-14{fill:#36393b;}.cls-15{fill:gray;}.cls-16{fill:#4a2e13;}.cls-17{fill:#66401c;}.cls-18,.cls-19{fill:#ccc;}.cls-20{fill:#2f5866;}.cls-21{fill:#643a12;}.cls-22{fill:#c23700;}.cls-23{fill:#8e2602;}.cls-24{fill:#d4a142;}.cls-26{fill:none;stroke:#c23700;stroke-miterlimit:22.93;stroke-width:1.2px;}.cls-27{fill:#f6bf5b;}.cls-28{opacity:0.7;mix-blend-mode:overlay;fill:url(#linear-gradient);}</style><linearGradient id="linear-gradient" x1="169.83" y1="399.64" x2="169.83" gradientUnits="userSpaceOnUse"><stop offset="0" stop-color="#febdf4"/><stop offset="1" stop-color="#b8b8b8"/></linearGradient></defs><title>Asset 1</title><g class="cls-1"><g id="Layer_2" data-name="Layer 2"><g id="Layer_1-2" data-name="Layer 1"><g class="cls-2"><path class="cls-3" d="M162.42,161.68l-67.54,39,146.89,84.81,67.54-39Z"/><path class="cls-3" d="M117.77,178.66c11.86-2.21,24.48-.7,28.19,3.38s-2.91,9.19-14.78,11.4-24.48.7-28.19-3.38S105.91,180.88,117.77,178.66Z"/><path class="cls-3" d="M265.59,193.36c-15.45-3.19-31.88-1-36.71,4.86s3.79,13.21,19.24,16.4,31.89,1,36.71-4.86S281,196.55,265.59,193.36Z"/><path class="cls-3" d="M298.57,257.79c14.45-5.1,30.61-3.52,36.11,3.53s-1.76,16.91-16.21,22-30.61,3.52-36.11-3.53S284.12,262.89,298.57,257.79Z"/><path class="cls-3" d="M182.18,266.24c-15.45-3.19-31.88-1-36.71,4.86s3.79,13.21,19.24,16.4,31.89,1,36.71-4.86S197.63,269.42,182.18,266.24Z"/></g><path class="cls-4" d="M124.44,176.11a17.8,17.8,0,0,1,.94,7.52c-.06.74,2.05,1.45,2.12.74.19-1.89-.39-3.78,1.75-4.88C131,178.57,124.73,173.44,124.44,176.11Z"/><path class="cls-5" d="M138.25,182.09c-1.6-1.66-3.32-6.71-4.22-9.2s-7.8-4.6-8.63-1.41,5.37,9.78,7.22,11.18S139.27,185.1,138.25,182.09Z"/><path class="cls-4" d="M138.35,182.13a20.67,20.67,0,0,0,2.94,2.54c1.2.88,1.24,3-3.46,2.42s-6-3-7.87-5.84-6.22-3.23-6-6.89a3.6,3.6,0,0,1,1.45-2.94c.52,3,5.35,7,7.45,9.32S137.26,183.15,138.35,182.13Z"/><path class="cls-4" d="M109.68,182a17.79,17.79,0,0,1,.94,7.52c-.06.75,2.05,1.45,2.12.74.19-1.89-.39-3.78,1.76-4.88C116.28,184.47,110,179.34,109.68,182Z"/><path class="cls-5" d="M123.49,188c-1.6-1.66-3.32-6.71-4.22-9.2s-7.8-4.6-8.63-1.41,5.37,9.78,7.22,11.18S124.51,191,123.49,188Z"/><path class="cls-4" d="M123.59,188a20.48,20.48,0,0,0,2.94,2.53c1.2.88,1.24,3-3.46,2.43s-6-3-7.87-5.84-6.21-3.23-6-6.89a3.61,3.61,0,0,1,1.45-2.94c.52,3,5.35,7,7.45,9.32S122.51,189.06,123.59,188Z"/><path class="cls-6" d="M120.5,97.5c-.48,17.58,5.49,30.44,4.65,41.44a209.92,209.92,0,0,0,.63,31.23c1.69,3.35,6.61,5,8.59,2.85,0,0,.86-7.84,1.35-18.23.43-9.33,3.22-43.61,3.09-58.62C134.64,93,124.1,93.13,120.5,97.5Z"/><path class="cls-6" d="M105.74,103.4c-.48,17.58,5.07,33,4.23,44.21s.68,26.9,1.17,29.65c1.94,3.25,4.08,1.65,7.67,1.27,0,0,1.7-18,2.18-28.39.43-9.33,4.6-33.77,4.47-48.77C121.3,98.21,109.34,99,105.74,103.4Z"/><path class="cls-6" d="M110.52,79.3l0,.18c.87,6.26-6.45,9.58-4.64,29.32,15.12,7.73,29.25-.9,32.49-5.15,1.17-12.72-.87-18.89-1.83-23.6A52.55,52.55,0,0,1,110.52,79.3Z"/><path class="cls-4" d="M125.82,105.56c-1.48,15.55-4.39,35.25-4.82,44.58-.1,2.09-.25,4.5-.42,7C124.07,137.1,127.53,114.46,125.82,105.56Z"/><path class="cls-4" d="M125.79,105.56a9.39,9.39,0,0,0,5.09-1.4c1.76-1.06-2.12,2.89-5,3.12C125.66,107.3,125.85,106.1,125.79,105.56Z"/><path class="cls-5" d="M248.49,127.86c.27,3.12.3,4.94-1.36,7.18a4.55,4.55,0,0,1-3.59,2.13c-.82,2.41-4.22,3.54-4.3-.23,0,0-3,2.41-1.57-6.66S247.67,122.77,248.49,127.86Z"/><path class="cls-7" d="M240.18,194.44c-2.53,1-6,2.85-6.38,5.7s3.62,6.81,10.51,4.75,7.91-5.26,8.95-4,5.64-.74,8-4.3-1.35-8.47-5.28-9.44S246.23,192.3,240.18,194.44Z"/><path class="cls-8" d="M265.77,116.54c.61,17.58-3.64,32.3-2.58,43.3s.28,31.09-.33,33.84c-2.45,4-9.78,6.72-17.72,0,0,0-.31-6.72-.92-17.11-.55-9.33-.37-46-.21-61C249.27,112.42,261.23,112.18,265.77,116.54Z"/><path class="cls-9" d="M237.48,129.39c0-.59.49-4.09.6-5,7.86,2.44,10.27-.08,12-2.3-.11,1-.57,4.55-.66,5.29C247.82,129.39,246.2,132.67,237.48,129.39Z"/><path class="cls-7" d="M256.36,204.74c-2.53,1-6,2.85-6.38,5.7s3.62,6.81,10.51,4.75,7.91-5.26,8.94-4,5.64-.73,8-4.3-1.35-8.47-5.28-9.44S262.41,202.6,256.36,204.74Z"/><path class="cls-7" d="M260.8,196c-2.87-8-9.26-51.72-7-67S276.44,139.46,260.8,196Z"/><path class="cls-8" d="M282,126.84c.61,17.58-3.64,32.3-2.58,43.3s.28,31.09-.33,33.84c-2.45,4-9.78,6.72-17.72,0,0,0-.31-6.72-.92-17.11-.55-9.33-2.93-46-2.77-61C262.9,122.72,277.41,122.47,282,126.84Z"/><rect class="cls-10" x="249.28" y="49.89" width="17.35" height="19.88"/><path class="cls-8" d="M237,126.58c.45-5.66,3-24.83,1.64-36.27s-.46-28.63,4.82-30.87c6.94-3,10.18,19.42,9.22,32.36s-2.2,26.7-2.93,32.63C248.11,126.58,246.38,130.08,237,126.58Z"/><path class="cls-7" d="M285.64,79.09c.13,11.65-.36,39.87.6,51.16-7.24,9.42-37.84,6.06-46.08.06-.5-11.46,2-32.93,1.09-41.79s-3-25.81,3.26-29.66A14.48,14.48,0,0,1,252,57.29a18.08,18.08,0,0,0,1.69,10.81,58.16,58.16,0,0,1,12.75-7.62C275.19,64.08,285.54,69.63,285.64,79.09Z"/><path class="cls-8" d="M248.84,57.39c.68,0,1.94-.13,3.21-.11a18.08,18.08,0,0,0,1.69,10.81,58.16,58.16,0,0,1,12.75-7.62c2.94,1.22,3.5,1.62,5.27,2.47-4.47,7.41-5.29,8.57-9.07,14a37.82,37.82,0,0,0-6.34,1.43c.54,1,1,3.08,1.31,6.53-2.13,5.81-8.41,12.69-9.9,18.18-1.4-6.66-4.12-14.58-4.6-20.48.8-1.4,1.73-3.68,3-5.57-.78-2.05-1.76-4.21-2.58-6C244.07,67.73,247.07,60.43,248.84,57.39Z"/><path class="cls-11" d="M250.23,57.34c.59,0,1.19-.05,1.81,0a18.07,18.07,0,0,0,1.69,10.8,58.17,58.17,0,0,1,12.75-7.62,39.87,39.87,0,0,1,4.07,2c-3.23,1.63-11.23,7.42-17,18.44-2.35,4.5-4.29,6.48-5.42,12.8,0-6.39-.83-9-.7-14.45C247.68,69.88,248.82,62.14,250.23,57.34Z"/><path class="cls-9" d="M250.23,57.34c.59,0,1.19-.05,1.81,0a18.07,18.07,0,0,0,1.69,10.8,58.17,58.17,0,0,1,12.75-7.62A31.14,31.14,0,0,1,270.15,62c-2.4,1.21-7,5.15-11.82,11.4l-4.5-5.27-5.66.32A67.65,67.65,0,0,1,250.23,57.34Z"/><path class="cls-5" d="M253.59,29.06c10.86.15,17.72,7.45,18.19,15.95s-12.63,17.93-20,17.93-10.53-6.58-10.26-15.38S242.73,28.91,253.59,29.06Z"/><path class="cls-12" d="M241.56,29.2c-3.06,3.2-3.79,8,5.1,10.78a27.73,27.73,0,0,0,17.77-.15c1.75-.73.73,5.68.58,7.86s1.89,4.08,2.77,1.75,4.39-6.28,4.08-3.79a22.46,22.46,0,0,1-1.6,5.24s2.33,1.31,4.51-4.37,2.94-17.44-2.59-21.81C263,17.51,249,21.41,241.56,29.2Z"/><path class="cls-13" d="M256.2,70.86,252.7,74l-.5,2.45,1.46,4.25a56,56,0,0,0-5.53,16.34,147.64,147.64,0,0,1-.66-18l1.75-2.73.91-2.95-.38-5,4-.26Z"/><path class="cls-8" d="M272.53,68.86c-7.76,5.42-2.44,19.19,3.41,26.81,5.43,7.07,11.6,18.28,17.5,14.93,6.63-3.77.88-18-3.1-26.81S279.07,64.29,272.53,68.86Z"/><path class="cls-5" d="M263.37,128.85c-1.87,1.94-3,3-5.35,3.18a3.6,3.6,0,0,1-3.26-1.11c-2,.83-4.5-.72-2.11-2.91,0,0-3.14-.57,3.48-4.78S266.24,125.44,263.37,128.85Z"/><path class="cls-9" d="M265.35,129.2q-1.27.56-2.64,1.1c-.75-2.78-2.74-6.4-5.77-7.76a15.78,15.78,0,0,1,1.32-1l1.18-.84C262.25,122.55,264.35,126.23,265.35,129.2Z"/><path class="cls-8" d="M293.73,110.91c-5.4,3.75-12,12.39-28.63,19-.88-3.26-3.17-7.37-6.72-9a19.24,19.24,0,0,1,1.55-1.21c6.54-4.57,21.57-17.06,27.47-20.42S300.08,106.5,293.73,110.91Z"/><path class="cls-12" d="M239.5,34.54c2.26,6.05,15.16,11.89,22,8.35,4.81-2.47-10.66,2-15.39-6.31S242.46,28.3,239.5,34.54Z"/><polygon class="cls-14" points="288.25 175.37 288.25 241.36 294.23 244.81 294.23 178.82 288.25 175.37"/><polygon class="cls-15" points="300.21 175.37 300.21 241.36 294.23 244.81 294.23 178.82 300.21 175.37"/><polygon class="cls-14" points="160.8 101.79 160.8 167.77 166.78 171.23 166.78 105.24 160.8 101.79"/><polygon class="cls-15" points="172.76 101.79 172.76 167.77 166.78 171.23 166.78 105.24 172.76 101.79"/><polygon class="cls-14" points="232.67 214.37 232.67 280.35 238.65 283.8 238.65 217.82 232.67 214.37"/><polygon class="cls-15" points="244.63 214.37 244.63 280.35 238.65 283.8 238.65 217.82 244.63 214.37"/><polygon class="cls-14" points="105.22 140.78 105.22 206.77 111.2 210.22 111.2 144.24 105.22 140.78"/><polygon class="cls-15" points="117.18 140.78 117.18 206.77 111.2 210.22 111.2 144.24 117.18 140.78"/><path class="cls-12" d="M162.42,101.39l-67.54,39L241.76,225.2l67.54-39Z"/><path class="cls-12" d="M162.42,95.82l-67.54,39,146.89,84.81,67.54-39Z"/><polygon class="cls-16" points="94.88 134.82 94.88 140.39 241.76 225.2 241.76 219.62 94.88 134.82"/><polygon class="cls-17" points="309.31 180.63 241.76 219.62 241.76 225.2 309.31 186.2 309.31 180.63"/><path class="cls-9" d="M240.43,180.73l24.86,14.35,13-15.09-24.86-14.35S243,178.59,240.43,180.73Z"/><path class="cls-18" d="M224.58,189.88l24.86,14.35,15.85-9.15-24.86-14.35S227.14,187.74,224.58,189.88Z"/><path class="cls-9" d="M150.33,134.13l-21.65,12.5L145,156l21.65-12.5Z"/><path class="cls-18" d="M134,124.71l-21.65,12.5,16.32,9.42,21.65-12.5Z"/><path class="cls-11" d="M161.38,97.5l-18.26,17.08,18,5.48L179.41,103Z"/><path class="cls-9" d="M161.38,97.5l-18.26,17.08,17.63-1.71L179,95.79S164.56,98.47,161.38,97.5Z"/><polygon class="cls-18" points="200.55 159.82 172.92 175.77 208.81 196.49 236.44 180.54 200.55 159.82"/><rect class="cls-19" x="226.84" y="178.83" width="9.6" height="1.72"/><rect class="cls-19" x="172.92" y="174.05" width="9.6" height="1.72"/><polygon class="cls-9" points="200.55 158.1 172.92 174.05 208.81 194.78 236.44 178.83 200.55 158.1"/><polygon class="cls-18" points="211.09 128.12 201.77 158.06 237.66 178.78 246.99 148.85 211.09 128.12"/><polygon class="cls-18" points="209.87 128.17 211.09 128.12 237.66 178.78 236.44 178.83 209.87 128.17"/><polygon class="cls-9" points="209.87 128.17 200.55 158.1 236.44 178.83 245.76 148.89 209.87 128.17"/><path class="cls-18" d="M229.48,178.17l1.09.63c.12.07.1.2,0,.28l-.93.54a.54.54,0,0,1-.48,0L228,179c-.12-.07-.1-.2,0-.28l.92-.54A.56.56,0,0,1,229.48,178.17Z"/><path class="cls-18" d="M227.75,179.22l1,.57c.15.09.14.25,0,.34l-1.25.73a.65.65,0,0,1-.59,0l-1-.57c-.15-.08-.13-.24,0-.34l1.25-.73A.64.64,0,0,1,227.75,179.22Z"/><path class="cls-18" d="M225.55,180.51l1,.57c.15.09.14.24,0,.34l-1.25.73a.67.67,0,0,1-.6,0l-1-.57c-.15-.09-.13-.24,0-.34l1.25-.73A.64.64,0,0,1,225.55,180.51Z"/><path class="cls-18" d="M223.35,181.8l1,.57c.15.09.14.25,0,.35l-1.25.73a.65.65,0,0,1-.59,0l-1-.57c-.15-.08-.13-.24,0-.34l1.25-.73A.65.65,0,0,1,223.35,181.8Z"/><path class="cls-18" d="M221.16,183.09l1,.57c.15.09.14.24,0,.34l-1.25.74a.66.66,0,0,1-.59,0l-1-.57c-.15-.09-.13-.24,0-.34l1.25-.74A.65.65,0,0,1,221.16,183.09Z"/><path class="cls-18" d="M219,184.37l1,.57c.15.09.14.25,0,.35l-1.25.73a.66.66,0,0,1-.59,0l-1-.57c-.15-.09-.13-.24,0-.34l1.25-.73A.65.65,0,0,1,219,184.37Z"/><path class="cls-18" d="M227.56,177.06l1.09.63c.13.07.11.2,0,.28l-.93.54a.53.53,0,0,1-.48,0l-1.09-.63c-.12-.07-.1-.2,0-.28l.93-.54A.54.54,0,0,1,227.56,177.06Z"/><path class="cls-18" d="M224.09,177.1l2.72,1.57c.16.09.15.26,0,.37l-1.21.71a.69.69,0,0,1-.63,0l-2.71-1.57c-.16-.09-.15-.26,0-.37l1.21-.71A.68.68,0,0,1,224.09,177.1Z"/><path class="cls-18" d="M223.13,179.11l1.47.85c.16.09.15.26,0,.37l-1.21.71a.7.7,0,0,1-.63,0l-1.47-.85c-.16-.09-.14-.26,0-.36l1.21-.71A.69.69,0,0,1,223.13,179.11Z"/><path class="cls-18" d="M219.47,179.55l2.93,1.7c.16.09.15.26,0,.37l-1.21.7a.69.69,0,0,1-.63,0l-2.93-1.7c-.16-.09-.14-.26,0-.37l1.21-.71A.7.7,0,0,1,219.47,179.55Z"/><path class="cls-18" d="M219.24,182l1,.57c.15.09.13.24,0,.34l-1.25.73a.64.64,0,0,1-.58,0l-1-.57c-.15-.09-.13-.24,0-.34l1.25-.74A.65.65,0,0,1,219.24,182Z"/><path class="cls-18" d="M217,183.26l1,.57c.15.09.14.25,0,.35l-1.25.73a.65.65,0,0,1-.59,0l-1-.57c-.15-.09-.14-.24,0-.34l1.25-.73A.64.64,0,0,1,217,183.26Z"/><path class="cls-18" d="M225.78,176l.94.54c.12.07.1.2,0,.28l-.93.54a.53.53,0,0,1-.48,0l-.94-.54c-.13-.07-.11-.2,0-.28l.93-.54A.54.54,0,0,1,225.78,176Z"/><path class="cls-18" d="M224,175l.94.55c.12.07.1.2,0,.28l-.93.54a.53.53,0,0,1-.48,0l-.94-.55c-.12-.07-.11-.2,0-.28l.93-.54A.54.54,0,0,1,224,175Z"/><path class="cls-18" d="M222.19,174l.94.54c.12.07.1.2,0,.28l-.93.54a.53.53,0,0,1-.48,0l-.94-.54c-.13-.07-.11-.2,0-.28l.93-.54A.53.53,0,0,1,222.19,174Z"/><path class="cls-18" d="M220.39,172.91l.94.54c.12.07.11.2,0,.28l-.93.54a.53.53,0,0,1-.48,0l-.94-.55c-.12-.07-.1-.2,0-.28l.93-.54A.54.54,0,0,1,220.39,172.91Z"/><path class="cls-18" d="M218.59,171.87l.94.54c.13.07.11.2,0,.28l-.93.54a.54.54,0,0,1-.49,0l-.94-.54c-.12-.07-.1-.2,0-.28l.93-.54A.55.55,0,0,1,218.59,171.87Z"/><path class="cls-18" d="M216.8,170.83l.94.54c.12.07.1.2,0,.28l-.92.54a.54.54,0,0,1-.49,0l-.94-.54c-.12-.07-.11-.2,0-.28l.93-.54A.54.54,0,0,1,216.8,170.83Z"/><path class="cls-18" d="M215,169.78l.94.54c.12.07.1.2,0,.28l-.92.54a.54.54,0,0,1-.49,0l-.94-.55c-.12-.07-.11-.2,0-.28l.93-.54A.55.55,0,0,1,215,169.78Z"/><path class="cls-18" d="M213.2,168.74l.94.54c.13.07.11.2,0,.28l-.93.54a.53.53,0,0,1-.48,0l-.94-.54c-.13-.07-.11-.2,0-.28l.92-.54A.54.54,0,0,1,213.2,168.74Z"/><path class="cls-18" d="M211.4,167.7l.94.55c.12.07.11.2,0,.28l-.93.54a.53.53,0,0,1-.48,0l-.94-.54c-.12-.07-.1-.2,0-.28l.92-.54A.55.55,0,0,1,211.4,167.7Z"/><path class="cls-18" d="M209.6,166.66l.94.54c.12.07.11.2,0,.28l-.93.54a.53.53,0,0,1-.48,0l-.94-.54c-.13-.07-.11-.2,0-.28l.92-.54A.55.55,0,0,1,209.6,166.66Z"/><path class="cls-18" d="M207.8,165.62l.94.54c.12.07.1.2,0,.28l-.92.54a.54.54,0,0,1-.49,0l-.93-.54c-.13-.07-.11-.2,0-.28l.92-.54A.55.55,0,0,1,207.8,165.62Z"/><path class="cls-18" d="M206,164.58l.94.55c.12.07.1.2,0,.28l-.92.54a.54.54,0,0,1-.49,0l-.94-.55c-.12-.07-.1-.2,0-.28l.92-.54A.55.55,0,0,1,206,164.58Z"/><path class="cls-18" d="M204.2,163.54l.94.54c.13.07.1.2,0,.28l-.92.54a.53.53,0,0,1-.48,0l-.94-.54c-.12-.07-.11-.2,0-.28l.92-.54A.55.55,0,0,1,204.2,163.54Z"/><path class="cls-18" d="M202.4,162.49l.94.54c.12.07.1.2,0,.28l-.92.54a.53.53,0,0,1-.48,0l-.94-.54c-.12-.07-.11-.2,0-.28l.92-.54A.55.55,0,0,1,202.4,162.49Z"/><path class="cls-18" d="M200.38,161.33l1.09.63c.12.07.1.2,0,.28l-.92.54a.53.53,0,0,1-.48,0l-1.09-.62c-.13-.07-.1-.2,0-.28l.92-.54A.53.53,0,0,1,200.38,161.33Z"/><path class="cls-18" d="M222.15,176l1,.56c.15.08.14.24,0,.34l-1.27.74a.64.64,0,0,1-.57,0l-1-.56c-.15-.08-.13-.24,0-.34l1.26-.74A.64.64,0,0,1,222.15,176Z"/><path class="cls-18" d="M220.2,174.85l1,.56c.15.09.14.24,0,.33l-1.27.74a.64.64,0,0,1-.57,0l-1-.56c-.15-.09-.13-.24,0-.34l1.26-.74A.64.64,0,0,1,220.2,174.85Z"/><path class="cls-18" d="M218.25,173.72l1,.56c.15.08.14.24,0,.34l-1.27.74a.64.64,0,0,1-.58,0l-1-.56c-.15-.09-.13-.24,0-.34l1.26-.74A.63.63,0,0,1,218.25,173.72Z"/><path class="cls-18" d="M216.29,172.59l1,.56c.15.08.14.24,0,.33l-1.26.74a.64.64,0,0,1-.58,0l-1-.56c-.15-.09-.13-.24,0-.34l1.26-.74A.62.62,0,0,1,216.29,172.59Z"/><path class="cls-18" d="M214.34,171.46l1,.56c.15.08.14.24,0,.34l-1.27.74a.64.64,0,0,1-.57,0l-1-.56c-.15-.08-.13-.24,0-.34l1.27-.74A.63.63,0,0,1,214.34,171.46Z"/><path class="cls-18" d="M212.39,170.33l1,.56c.15.09.14.24,0,.34l-1.27.74a.64.64,0,0,1-.57,0l-1-.56c-.15-.09-.13-.24,0-.34l1.27-.74A.63.63,0,0,1,212.39,170.33Z"/><path class="cls-18" d="M210.44,169.2l1,.56c.15.09.14.24,0,.34l-1.26.74a.63.63,0,0,1-.57,0l-1-.56c-.15-.09-.13-.24,0-.34l1.26-.74A.63.63,0,0,1,210.44,169.2Z"/><path class="cls-18" d="M208.49,168.07l1,.56c.15.08.14.24,0,.33l-1.27.74a.64.64,0,0,1-.57,0l-1-.56c-.15-.08-.13-.24,0-.34l1.26-.74A.64.64,0,0,1,208.49,168.07Z"/><path class="cls-18" d="M206.54,166.94l1,.56c.15.09.13.23,0,.33l-1.26.74a.64.64,0,0,1-.57,0l-1-.56c-.15-.09-.13-.24,0-.34L206,167A.64.64,0,0,1,206.54,166.94Z"/><path class="cls-18" d="M204.59,165.81l1,.56c.15.09.13.24,0,.33l-1.26.74a.64.64,0,0,1-.57,0l-1-.56c-.15-.09-.13-.24,0-.34l1.26-.74A.63.63,0,0,1,204.59,165.81Z"/><path class="cls-18" d="M202.63,164.68l1,.56c.15.09.13.24,0,.34l-1.26.74a.64.64,0,0,1-.57,0l-1-.56c-.15-.08-.13-.24,0-.34l1.26-.74A.63.63,0,0,1,202.63,164.68Z"/><path class="cls-18" d="M200.68,163.55l1,.56c.15.09.13.24,0,.33l-1.26.74a.64.64,0,0,1-.58,0l-1-.56c-.15-.08-.13-.24,0-.33l1.26-.74A.64.64,0,0,1,200.68,163.55Z"/><path class="cls-18" d="M198.67,162.39l1,.57c.15.09.14.24,0,.34l-1.25.73a.64.64,0,0,1-.58,0l-1-.57c-.15-.08-.13-.24,0-.34l1.25-.73A.64.64,0,0,1,198.67,162.39Z"/><path class="cls-18" d="M196.49,163.68l2,1.17c.16.09.15.26,0,.37l-1.21.71a.7.7,0,0,1-.63,0l-2-1.17c-.16-.09-.14-.26,0-.37l1.21-.71A.68.68,0,0,1,196.49,163.68Z"/><path class="cls-18" d="M194.29,165l2.41,1.39c.16.09.14.26,0,.37l-1.21.7a.7.7,0,0,1-.63,0l-2.41-1.4c-.16-.09-.14-.26,0-.37l1.2-.7A.69.69,0,0,1,194.29,165Z"/><path class="cls-18" d="M192.09,166.26l3.45,2c.16.09.14.26,0,.37l-1.21.7a.69.69,0,0,1-.63,0l-3.45-2c-.16-.09-.14-.26,0-.37l1.21-.71A.68.68,0,0,1,192.09,166.26Z"/><path class="cls-18" d="M189.89,167.55l1.43.83c.16.09.14.25,0,.36l-1.2.71a.7.7,0,0,1-.63,0l-1.43-.83c-.16-.09-.14-.26,0-.36l1.2-.71A.68.68,0,0,1,189.89,167.55Z"/><path class="cls-18" d="M199.34,165.34l1,.6c.16.09.14.25,0,.36l-1.22.71a.68.68,0,0,1-.62,0l-1-.6c-.15-.09-.14-.25,0-.36l1.22-.71A.68.68,0,0,1,199.34,165.34Z"/><path class="cls-18" d="M201.33,166.49l1,.6c.16.09.14.25,0,.36l-1.22.71a.69.69,0,0,1-.62,0l-1-.6c-.16-.09-.14-.25,0-.36l1.22-.71A.68.68,0,0,1,201.33,166.49Z"/><path class="cls-18" d="M203.32,167.64l1,.6c.16.09.14.26,0,.36l-1.22.71a.69.69,0,0,1-.62,0l-1-.6c-.16-.09-.14-.25,0-.36l1.22-.71A.68.68,0,0,1,203.32,167.64Z"/><path class="cls-18" d="M205.3,168.79l1,.6c.16.09.14.26,0,.36l-1.22.71a.69.69,0,0,1-.62,0l-1-.6c-.16-.09-.14-.25,0-.36l1.22-.71A.69.69,0,0,1,205.3,168.79Z"/><path class="cls-18" d="M207.29,169.94l1,.6c.16.09.14.25,0,.36l-1.22.71a.69.69,0,0,1-.62,0l-1-.6c-.16-.09-.14-.25,0-.36l1.22-.71A.69.69,0,0,1,207.29,169.94Z"/><path class="cls-18" d="M209.28,171.09l1,.6c.15.09.14.25,0,.36l-1.22.71a.69.69,0,0,1-.62,0l-1-.6c-.16-.09-.14-.25,0-.36l1.22-.71A.67.67,0,0,1,209.28,171.09Z"/><path class="cls-18" d="M211.27,172.24l1,.6c.16.09.14.25,0,.36l-1.22.71a.68.68,0,0,1-.62,0l-1-.6c-.16-.09-.13-.25,0-.36l1.22-.71A.67.67,0,0,1,211.27,172.24Z"/><path class="cls-18" d="M213.25,173.39l1,.6c.16.09.14.25,0,.36l-1.22.71a.69.69,0,0,1-.62,0l-1-.6c-.16-.09-.14-.25,0-.36l1.22-.71A.67.67,0,0,1,213.25,173.39Z"/><path class="cls-18" d="M215.24,174.54l1,.6c.16.09.14.26,0,.36l-1.22.71a.69.69,0,0,1-.62,0l-1-.6c-.16-.09-.14-.25,0-.36l1.22-.71A.68.68,0,0,1,215.24,174.54Z"/><path class="cls-18" d="M217.23,175.7l1,.6c.16.09.14.26,0,.36l-1.22.71a.69.69,0,0,1-.62,0l-1-.6c-.16-.09-.14-.25,0-.36l1.22-.71A.68.68,0,0,1,217.23,175.7Z"/><path class="cls-18" d="M219.22,176.85l1,.6c.16.09.14.26,0,.36l-1.22.71a.69.69,0,0,1-.62,0l-1-.6c-.16-.09-.14-.25,0-.36l1.22-.71A.68.68,0,0,1,219.22,176.85Z"/><path class="cls-18" d="M221.2,178l1,.6c.16.09.14.25,0,.36l-1.22.71a.68.68,0,0,1-.62,0l-1-.6c-.16-.09-.13-.25,0-.36l1.22-.71A.68.68,0,0,1,221.2,178Z"/><path class="cls-18" d="M197.7,166.94l1,.6c.16.09.14.26,0,.36l-1.22.71a.68.68,0,0,1-.61,0l-1-.6c-.16-.09-.14-.26,0-.36l1.22-.71A.69.69,0,0,1,197.7,166.94Z"/><path class="cls-18" d="M199.68,168.09l1,.6c.16.09.14.26,0,.36l-1.22.71a.67.67,0,0,1-.61,0l-1-.6c-.16-.09-.14-.26,0-.36l1.22-.71A.69.69,0,0,1,199.68,168.09Z"/><path class="cls-18" d="M201.67,169.24l1,.6c.16.09.14.26,0,.36l-1.22.71a.68.68,0,0,1-.62,0l-1-.6c-.15-.09-.14-.25,0-.36l1.22-.71A.69.69,0,0,1,201.67,169.24Z"/><path class="cls-18" d="M203.66,170.39l1,.6c.16.09.14.26,0,.36l-1.22.71a.68.68,0,0,1-.62,0l-1-.6c-.16-.09-.14-.26,0-.36l1.22-.71A.7.7,0,0,1,203.66,170.39Z"/><path class="cls-18" d="M205.65,171.54l1,.6c.16.09.14.26,0,.37l-1.22.71a.69.69,0,0,1-.62,0l-1-.6c-.16-.09-.14-.25,0-.36l1.22-.71A.68.68,0,0,1,205.65,171.54Z"/><path class="cls-18" d="M207.63,172.69l1,.6c.16.09.14.25,0,.36l-1.22.71a.68.68,0,0,1-.62,0l-1-.6c-.16-.09-.14-.26,0-.36l1.22-.71A.69.69,0,0,1,207.63,172.69Z"/><path class="cls-18" d="M209.62,173.84l1,.6c.15.09.14.26,0,.36l-1.22.71a.68.68,0,0,1-.61,0l-1-.6c-.16-.09-.14-.26,0-.36l1.22-.71A.7.7,0,0,1,209.62,173.84Z"/><path class="cls-18" d="M211.61,175l1,.6c.16.09.14.26,0,.36l-1.22.71a.68.68,0,0,1-.61,0l-1-.6c-.16-.09-.14-.26,0-.36L211,175A.68.68,0,0,1,211.61,175Z"/><path class="cls-18" d="M213.6,176.15l1,.6c.16.09.14.26,0,.36l-1.22.71a.67.67,0,0,1-.61,0l-1-.6c-.16-.09-.14-.26,0-.36l1.22-.71A.68.68,0,0,1,213.6,176.15Z"/><path class="cls-18" d="M215.58,177.3l1,.6c.16.09.14.26,0,.37l-1.22.71a.68.68,0,0,1-.62,0l-1-.6c-.16-.09-.14-.26,0-.37l1.22-.71A.68.68,0,0,1,215.58,177.3Z"/><path class="cls-18" d="M217.57,178.45l1,.6c.16.09.14.26,0,.36l-1.22.71a.69.69,0,0,1-.62,0l-1-.6c-.16-.09-.14-.26,0-.36l1.22-.71A.69.69,0,0,1,217.57,178.45Z"/><path class="cls-18" d="M196.54,168.83l1,.6c.16.09.14.25,0,.36l-1.22.71a.68.68,0,0,1-.62,0l-1-.6c-.16-.09-.14-.25,0-.36l1.21-.71A.69.69,0,0,1,196.54,168.83Z"/><path class="cls-18" d="M198.52,170l1,.6c.16.09.14.25,0,.36l-1.22.71a.68.68,0,0,1-.62,0l-1-.6c-.16-.09-.14-.25,0-.36l1.21-.71A.69.69,0,0,1,198.52,170Z"/><path class="cls-18" d="M200.51,171.13l1,.6c.15.09.13.25,0,.36l-1.22.71a.68.68,0,0,1-.61,0l-1-.6c-.16-.09-.14-.25,0-.36l1.21-.71A.69.69,0,0,1,200.51,171.13Z"/><path class="cls-18" d="M202.5,172.29l1,.6c.16.09.14.25,0,.36l-1.21.71a.68.68,0,0,1-.62,0l-1-.6c-.16-.09-.14-.25,0-.36l1.22-.71A.68.68,0,0,1,202.5,172.29Z"/><path class="cls-18" d="M204.49,173.44l1,.6c.16.09.14.25,0,.36l-1.21.71a.68.68,0,0,1-.62,0l-1-.6c-.16-.09-.14-.26,0-.36l1.22-.71A.68.68,0,0,1,204.49,173.44Z"/><path class="cls-18" d="M206.47,174.59l1,.6c.16.09.14.25,0,.36l-1.21.71a.68.68,0,0,1-.62,0l-1-.6c-.16-.09-.14-.26,0-.36l1.22-.71A.68.68,0,0,1,206.47,174.59Z"/><path class="cls-18" d="M208.46,175.74l1,.6c.16.09.14.25,0,.36l-1.21.71a.68.68,0,0,1-.62,0l-1-.6c-.15-.09-.14-.25,0-.36l1.22-.71A.69.69,0,0,1,208.46,175.74Z"/><path class="cls-18" d="M210.45,176.89l1,.6c.16.09.14.25,0,.36l-1.22.71a.69.69,0,0,1-.62,0l-1-.6c-.16-.09-.14-.25,0-.36l1.21-.71A.69.69,0,0,1,210.45,176.89Z"/><path class="cls-18" d="M212.44,178l1,.6c.16.09.14.25,0,.36l-1.22.71a.68.68,0,0,1-.62,0l-1-.6c-.16-.09-.14-.25,0-.36l1.21-.71A.69.69,0,0,1,212.44,178Z"/><path class="cls-18" d="M214.43,179.19l1,.6c.16.09.14.25,0,.36l-1.22.71a.68.68,0,0,1-.62,0l-1-.6c-.16-.09-.14-.25,0-.36l1.21-.71A.69.69,0,0,1,214.43,179.19Z"/><path class="cls-18" d="M216.42,180.35l1.87,1.08c.16.09.14.26,0,.37l-1.21.71a.68.68,0,0,1-.62,0l-1.87-1.08c-.16-.09-.15-.26,0-.37l1.21-.7A.7.7,0,0,1,216.42,180.35Z"/><path class="cls-18" d="M192.31,169l1,.6c.16.09.14.25,0,.36l-1.22.71a.69.69,0,0,1-.62,0l-1-.6c-.16-.09-.14-.25,0-.36l1.22-.71A.68.68,0,0,1,192.31,169Z"/><path class="cls-18" d="M194.3,170.1l1,.6c.16.09.14.25,0,.36l-1.22.71a.7.7,0,0,1-.62,0l-1-.6c-.16-.09-.14-.25,0-.36l1.22-.71A.69.69,0,0,1,194.3,170.1Z"/><path class="cls-18" d="M196.29,171.25l1,.6c.16.09.14.25,0,.36l-1.22.71a.69.69,0,0,1-.62,0l-1-.6c-.16-.09-.14-.25,0-.36l1.22-.71A.67.67,0,0,1,196.29,171.25Z"/><path class="cls-18" d="M198.28,172.4l1,.6c.16.09.14.25,0,.36l-1.22.71a.68.68,0,0,1-.62,0l-1-.6c-.16-.09-.14-.25,0-.36l1.22-.71A.68.68,0,0,1,198.28,172.4Z"/><path class="cls-18" d="M200.26,173.56l1,.6c.16.09.14.26,0,.36l-1.22.71a.69.69,0,0,1-.62,0l-1-.6c-.16-.09-.14-.25,0-.36l1.22-.71A.68.68,0,0,1,200.26,173.56Z"/><path class="cls-18" d="M202.25,174.71l1,.6c.16.09.14.26,0,.36l-1.22.71a.68.68,0,0,1-.62,0l-1-.6c-.15-.09-.14-.25,0-.36l1.22-.71A.68.68,0,0,1,202.25,174.71Z"/><path class="cls-18" d="M204.24,175.85l1,.6c.15.09.14.25,0,.36l-1.22.71a.68.68,0,0,1-.62,0l-1-.6c-.15-.09-.14-.25,0-.36l1.22-.71A.68.68,0,0,1,204.24,175.85Z"/><path class="cls-18" d="M206.23,177l1,.6c.16.09.14.25,0,.36l-1.22.71a.68.68,0,0,1-.62,0l-1-.6c-.16-.09-.14-.25,0-.36l1.22-.71A.68.68,0,0,1,206.23,177Z"/><path class="cls-18" d="M208.21,178.16l1,.6c.16.09.14.25,0,.36l-1.22.71a.68.68,0,0,1-.62,0l-1-.6c-.16-.09-.14-.25,0-.36l1.22-.71A.68.68,0,0,1,208.21,178.16Z"/><path class="cls-18" d="M210.2,179.31l1,.6c.16.09.14.25,0,.36L210,181a.68.68,0,0,1-.62,0l-1-.6c-.16-.09-.14-.25,0-.36l1.22-.71A.69.69,0,0,1,210.2,179.31Z"/><path class="cls-18" d="M212.19,180.46l1.88,1.09c.16.09.14.26,0,.37l-1.21.71a.68.68,0,0,1-.62,0l-1.88-1.09c-.16-.09-.15-.26,0-.36l1.21-.71A.69.69,0,0,1,212.19,180.46Z"/><path class="cls-18" d="M215.12,182.16l1,.57c.15.09.13.25,0,.35l-1.25.73a.65.65,0,0,1-.58,0l-1-.57c-.15-.08-.13-.24,0-.34l1.25-.73A.65.65,0,0,1,215.12,182.16Z"/><path class="cls-18" d="M196.14,175.18l5.16,3,5.17,3c.16.09.14.26,0,.36l-2.85,1.66-2.84,1.66a.67.67,0,0,1-.61,0l-5.17-3-5.16-3c-.16-.09-.15-.25,0-.36l2.84-1.66,2.85-1.66A.68.68,0,0,1,196.14,175.18Z"/><path class="cls-18" d="M189.14,179l5.14,3s0,.05,0,.07l-1.18.69a.14.14,0,0,1-.12,0l-5.13-3s0-.05,0-.07L189,179A.14.14,0,0,1,189.14,179Z"/><path class="cls-18" d="M194.79,182.28l5.14,3s0,.05,0,.07l-1.18.69a.14.14,0,0,1-.12,0l-5.13-3s0-.05,0-.07l1.18-.69A.14.14,0,0,1,194.79,182.28Z"/><polygon class="cls-15" points="211.8 132.04 203.77 157.26 234.31 174.76 241.65 149.04 211.8 132.04"/><polygon class="cls-9" points="212.66 135.22 210.12 143.19 236.59 158.25 238.91 150.12 212.66 135.22"/><polygon class="cls-9" points="209.11 146.43 208.31 148.87 234.78 163.94 235.36 161.33 209.11 146.43"/><polygon class="cls-9" points="207.85 150.24 207.09 152.7 233.56 167.77 234.1 165.14 207.85 150.24"/><polygon class="cls-9" points="206.67 154.02 205.9 156.48 232.37 171.54 232.92 168.92 206.67 154.02"/><path class="cls-13" d="M331.35,124.61c-9.43.84-8.54,15.76-7.26,25.28,1.19,8.84-2.16,21.31,4.63,21.34,7.63,0,9.71-15.16,10.65-24.8S339.3,123.9,331.35,124.61Z"/><path class="cls-5" d="M297.3,182.55c-2.21,1.54-3.56,2.35-5.87,2.08a3.6,3.6,0,0,1-3-1.73c-2.11.43-4.27-1.59-1.5-3.26,0,0-3-1.17,4.34-4S300.77,179.76,297.3,182.55Z"/><path class="cls-9" d="M299.17,183.28q-1.35.3-2.8.57c-.2-2.87-1.45-6.81-4.15-8.74a16.11,16.11,0,0,1,1.49-.75l1.32-.6C297.42,176.16,298.76,180.17,299.17,183.28Z"/><path class="cls-8" d="M330.56,170.86c-6,2.63-14.18,9.82-31.78,13.09-.23-3.37-1.67-7.85-4.84-10.11a18.58,18.58,0,0,1,1.75-.89c7.31-3.21,24.48-12.54,30.91-14.68S337.65,167.76,330.56,170.86Z"/><rect class="cls-10" x="311.81" y="117.96" width="12.65" height="15.28"/><path class="cls-20" d="M314.83,257.68c-2.55-.9-9-2.4-11.11-.45s-1.61,7.54,5,10.39,12,1.77,12,3.42,4.79,3.06,8.93,1.87,4.41-7.35,2-10.62S320.84,259.93,314.83,257.68Z"/><path class="cls-13" d="M336,187.23c.61,17.58-3.64,32.3-2.58,43.3s.29,31.09-.33,33.84c-2.45,4-9.78,6.72-17.72,0,0,0-.31-6.72-.92-17.11-.55-9.33-.37-46-.21-61C319.47,183.11,331.42,182.87,336,187.23Z"/><path class="cls-20" d="M297.51,267.32c-2.55-.9-9-2.4-11.11-.45s-1.61,7.54,5,10.39,12,1.77,12,3.42,4.79,3.06,8.93,1.87,4.41-7.35,2-10.63S303.51,269.58,297.51,267.32Z"/><path class="cls-20" d="M315.86,270c2.87-9.92,4.7-25.59,4.18-32.64s2.87-29.77,3.13-39.69S303.33,170,315.86,270Z"/><path class="cls-13" d="M319.94,196.62c.61,17.58-4.95,32.56-3.89,43.56s.28,31.09-.33,33.84c-2.45,4-9.78,6.72-17.72,0,0,0-.31-6.72-.92-17.11-.55-9.33-.37-46-.21-61C302.14,192.76,315.41,192.25,319.94,196.62Z"/><path class="cls-20" d="M306.86,132.8c-3.61,2-8.72,8.31-10.19,12.73s-1.29,19.58.19,27.29.49,19-.82,22.63,8.36,8,15.74,7.87,23-9.84,25.09-15.42,1.64-14.76.66-21.32-.49-15.25.33-23.94-.33-19-5.41-19.68c-1.8-.23-4.7.4-8,1.51-2.14,5.5-7.54,6.54-12.66,5.51C309.94,131,308.25,131.92,306.86,132.8Z"/><path class="cls-13" d="M326.79,123.74c-.75.21-1.54.45-2.35.73-2.14,5.5-7.54,6.54-12.66,5.51-1.36.71-2.63,1.42-3.76,2.09C315.13,135.56,326.1,136,326.79,123.74Z"/><path class="cls-5" d="M315.14,95.52c7.36,0,12.8,6.88,12.14,15.38s-9.72,15.38-17.08,15.38-10.23-6.89-9.58-15.38S307.78,95.52,315.14,95.52Z"/><path class="cls-21" d="M319.09,89.7c-6.47-1.54-17.42,2.24-19.7,9-1.74,5.12-.31,7.42,2.57,11.15.87,1.12,1.61,3.58,2.22,5.75,1.29,4.62,1.66,4.66,2.68.67.78-3,4.2-3.85,3.55.55s4.9,11.61,11.41,10,5.53-4.66,7.7-12.3S331.73,92.72,319.09,89.7Z"/><path class="cls-9" d="M325.06,125.51a8.13,8.13,0,0,1-1.6.78c-2.17,2.91-6.56,4.73-11.68,3.7l-1.14.61C316.76,132.5,323,131.32,325.06,125.51Z"/><path class="cls-13" d="M303.59,137.13c-9.38-1.26-11.81,13.49-12.65,23.05-.79,8.88-6.81,20.31-.2,21.83,7.44,1.71,12.81-12.64,15.86-21.84S311.51,138.19,303.59,137.13Z"/><path class="cls-5" d="M257.59,186.12c-2.5,1-4,1.5-6.18.74a3.6,3.6,0,0,1-2.53-2.34c-2.15,0-3.82-2.49-.75-3.51,0,0-2.63-1.8,5.12-3S261.59,184.17,257.59,186.12Z"/><path class="cls-9" d="M259.26,187.25q-1.39,0-2.86-.06c.44-2.84.09-7-2.12-9.44a16.25,16.25,0,0,1,1.62-.41l1.42-.29C259.13,179.91,259.55,184.13,259.26,187.25Z"/><path class="cls-13" d="M292.62,182.06c-6.46,1.23-16,6.45-33.89,5.76.52-3.34.1-8-2.49-10.93a19.12,19.12,0,0,1,1.9-.48c7.84-1.52,26.64-6.83,33.39-7.5S300.22,180.6,292.62,182.06Z"/><path class="cls-7" d="M163.37,126.83c9.76,2.4,6.48,17.09,3.6,26.87-2.68,9.08-2.68,21.64-9.8,20.57-8-1.2-6.3-15.58-5.73-25.85S155.14,124.81,163.37,126.83Z"/><rect class="cls-10" x="168.74" y="125.97" width="15.28" height="12.65" transform="translate(6.82 273.22) rotate(-76.6)"/><path class="cls-14" d="M167.72,262c2.55-.9,9-2.4,11.11-.45s1.61,7.54-5,10.39-12,1.77-12,3.42-4.79,3.06-8.93,1.87-4.41-7.35-2-10.62S161.72,264.24,167.72,262Z"/><path class="cls-7" d="M146.59,191.55c-.61,17.58,3.64,32.3,2.58,43.3s-.28,31.09.33,33.84c2.45,4,9.78,6.72,17.72,0,0,0,.31-6.72.92-17.11.55-9.33.38-46,.21-61C163.09,187.42,151.13,187.18,146.59,191.55Z"/><path class="cls-14" d="M185,271.64c2.55-.9,9-2.4,11.11-.45s1.61,7.54-5,10.39-12,1.77-12,3.42-4.79,3.06-8.93,1.87-4.41-7.35-2-10.62S179,273.89,185,271.64Z"/><path class="cls-14" d="M166.69,274.29c-2.87-9.92-4.7-25.59-4.18-32.64s-2.87-29.77-3.13-39.69S179.23,174.28,166.69,274.29Z"/><path class="cls-7" d="M162.61,200.93c-.61,17.58,4.95,32.56,3.89,43.56s-.28,31.09.33,33.84c2.45,4,9.78,6.72,17.72,0,0,0,.31-6.72.92-17.11.55-9.33.37-46,.21-61C180.41,197.07,167.15,196.56,162.61,200.93Z"/><path class="cls-14" d="M185.68,141.91c3.05,2.75,8.91,11.05,9.32,15.69s-5.64,18.4-8.86,25.55.2,15.18.64,19-11.07,5.08-22.22,3.47-18.18-9.54-20.3-12.25,1.29-19.55,3.77-25.71,4-14.72,5.23-23.37,4.73-18.43,9.82-17.89c1.81.19,4.48,1.48,7.43,3.32.81,5.85,5.82,8.11,11,8.3C183.12,139.4,184.54,140.73,185.68,141.91Z"/><path class="cls-7" d="M168.39,128.48c.68.38,1.39.8,2.11,1.25.81,5.85,5.82,8.11,11,8.3,1.16,1,2.23,2,3.17,2.91C177,142.68,166.24,140.53,168.39,128.48Z"/><path class="cls-5" d="M186.27,103.73c-7.16-1.7-14,3.73-15.37,12.15s5.89,17.21,13.05,18.92,11.55-4.33,12.88-12.74S193.43,105.43,186.27,103.73Z"/><path class="cls-22" d="M183.77,97.15c6.66,0,15.91,5.78,16.57,12.86.5,5.39-.9,7.72-4.57,10.69a15.83,15.83,0,0,0-4.06,4.07c-1.79,3-2.62,2.49-3.72-.39s-1.49-5.3-5-1.55c-3.32,3.57-7.82,5.43-9.44,4.11-2.36-1.93-2.78-3.93-3.65-10.84C169.49,112.45,170.77,97.15,183.77,97.15Z"/><path class="cls-9" d="M169.2,128.94l1.31.79c.81,5.85,5.82,8.11,11,8.3l1,.85C176.12,139.32,169.22,136.94,169.2,128.94Z"/><path class="cls-7" d="M184.94,147.93c9.27-1.9,12.42,11.92,13.93,21.41,1.39,8.81,6.47,19.5,0,21.47-7.3,2.22-11.66-10.71-15.33-19.68S177.13,149.53,184.94,147.93Z"/><path class="cls-5" d="M219,174.32c2.59-.75,4.06-1.28,5.32-3.24a3.6,3.6,0,0,0,.54-3.4c1.66-1.37.88-3.54-1.51-2.75,0,0,4.62-1.8,3.63-3.46-.32-.54-5.42,1.48-9.55,3.83C210.6,169.17,214.64,175.26,219,174.32Z"/><path class="cls-9" d="M219.05,176.12c.62-.68,1.25-1.4,1.88-2.15-2.39-1.6-5.2-4.63-5.53-7.94a16.13,16.13,0,0,0-1.4.92l-1.17.85C213.73,171.07,216.56,174.23,219.05,176.12Z"/><path class="cls-7" d="M199.15,190.71c6.11-2.41,9.73-3.87,21.29-15.44-2.8-.82-6.06-4.77-7.75-8.45a127,127,0,0,0-18.42,12.45C189.08,183.63,192.81,193.21,199.15,190.71Z"/><path class="cls-22" d="M156.7,100.19c-4.07.49-14.69-20.24-21-36.1s-4.69-28,1.86-26.81c6.9.29,11.39,25.84,11.69,32.75s15,26,12.41,27.49A7.34,7.34,0,0,1,156.7,100.19Z"/><rect class="cls-10" x="121.17" y="25.73" width="12.91" height="20.07"/><path class="cls-5" d="M156.37,100.93c.63,1.81,1.07,2.83,2.54,3.63a2.68,2.68,0,0,0,2.5.22c1.05,1.12,3.2.83,2.3-1.28,0,0,2.25.54-.81-4.12S155.55,97.88,156.37,100.93Z"/><path class="cls-23" d="M103.28,51.12c1.06,8.66,5.81,18.15,7.24,28.68a53.24,53.24,0,0,0,26,2.54,12.56,12.56,0,0,1-.3-3.41c.47-6.27,5.42-10.89,6.21-16.11.83-5.44-1.59-9.21-2.48-13.23-.44-2,3.21-10.53-.09-11.69-1.94-.68-3.78-1.76-5.9-1.87a44.49,44.49,0,0,1-3.49,10.4c-3.25-2.59-5.73-5.14-10.07-8.56C112.28,40.73,102.17,42,103.28,51.12Z"/><path class="cls-24" d="M113.09,4.57c-2.23-4.55-10.57-7.43-15.61,0-6,8.85,5.27,28.29-3.71,29.46-2.54,9.76,23.5,10,14-8.78-5.56-11-1.37-17.56,2.73-14.43S115.94,10.37,113.09,4.57Z"/><ellipse class="cls-25" cx="110.53" cy="6.67" rx="5.02" ry="2.51" transform="translate(32.53 85.27) rotate(-48.67)"/><path class="cls-26" d="M130.81,45.9A82.11,82.11,0,0,0,136,56.4c1.79,3.24,2.14,7-.25,12.79s-2.54,7.31-1.49,11.64"/><path class="cls-4" d="M110.52,79.3l0,.18a7.64,7.64,0,0,1,0,2.4,50.65,50.65,0,0,0,26.84,1.66c-.28-1.28-.55-2.43-.77-3.5A52.55,52.55,0,0,1,110.52,79.3Z"/><path class="cls-22" d="M111.53,44.14c5.69,4.44-.6,13.16-5.56,18.84-4.61,5.28-8.4,15-12.76,12.23-4.91-3.13.1-13.44,3.69-20.13S106.73,40.4,111.53,44.14Z"/><path class="cls-5" d="M115.88,89.83c1.4,1.5,2.27,2.32,4.06,2.46a2.88,2.88,0,0,0,2.55-.86c1.52.64,3.5-.56,1.71-2.25,0,0,2.44-.45-2.57-3.7S113.75,87.19,115.88,89.83Z"/><path class="cls-22" d="M92.83,75.94c4.09,2.9,14.21,13.19,22.67,12.43-.43-1.32.34-3,3.13-4.22C118.36,79.07,103.26,70,98,67,93.54,64.39,88,72.53,92.83,75.94Z"/><path class="cls-5" d="M127.15,2.07C116.28,2.22,109,9.52,108.06,18s11.63,17.93,19,17.93,10.89-6.58,11.12-15.38S138,1.92,127.15,2.07Z"/><path class="cls-24" d="M137.53,10.63c-4.13-3-14.6-3.34-18.28,2.41-1.68,2.62-.92,6.17-1.26,7.86-.16.78-1.35-1.53-4.08-.79-1.14.31-3.37,2.79-.19,8.85-8.79-5-10.33-19.71,1.42-26.64C124.25-3.07,136,1.46,137.53,10.63Z"/><path class="cls-24" d="M135.85,7.34c5.55,4.92-11,15.32-14.54,15.77S127.1,18,124.86,8.35,131.6,2.42,135.85,7.34Z"/><path class="cls-22" d="M135.41,36c-.56-.07-.79-.1-1.39-.13a54.25,54.25,0,0,1-3.1,9.87c-3.1-2.58-5.49-4.72-9.63-8.13a15.33,15.33,0,0,0-4,1.12c2.25,1.31,5.51,6.13,9.88,12.38l3.7-5.35L138,47.22C137.63,42.89,136.11,38.69,135.41,36Z"/><g class="cls-2"><path class="cls-3" d="M21.11,357.51c11.86-3,24.48-2.23,28.19,1.62s-2.91,9.37-14.78,12.32S10,373.69,6.34,369.84,9.25,360.47,21.11,357.51Z"/><path class="cls-3" d="M43.39,320.83c11.86-3,24.48-2.23,28.19,1.62s-2.91,9.37-14.78,12.32S32.31,337,28.61,333.16,31.52,323.79,43.39,320.83Z"/><path class="cls-3" d="M105.22,371.1c14.45-5.1,30.61-3.52,36.11,3.53s-1.76,16.91-16.21,22S94.51,400.17,89,393.11,90.78,376.21,105.22,371.1Z"/></g><path class="cls-5" d="M59.09,250.08c-.07,2.13,0,3.37,1.19,4.79a3,3,0,0,0,2.51,1.23c.65,1.58,3,2.15,2.9-.41,0,0,2.12,1.46.81-4.61S59.46,246.57,59.09,250.08Z"/><path class="cls-9" d="M58.27,250.68c-.15-.55-.29-1.13-.43-1.74a15.45,15.45,0,0,0,9-1c.11.63.21,1.24.32,1.81C63.57,251.18,60.63,251.37,58.27,250.68Z"/><path class="cls-13" d="M57.45,249.07c-2.49-9.43-4.85-26.55-5.08-45.56s6.35-30.92,12.69-27.09c7,3.07,1.65,29.57.05,36.94s.42,25.22,2.18,34.68C63.32,249.62,60.06,249.83,57.45,249.07Z"/><path class="cls-22" d="M63.43,149.62c3,1.85,2.8,7.81,1.63,11.89s-1.87,12.12.35,14.57,2.57,10.14-1,14.34-2.22,2.56-1.63-3.26-4.66-10.84-5-17.25S57.33,145.89,63.43,149.62Z"/><path class="cls-4" d="M50,316.94a17.78,17.78,0,0,1,.94,7.52c-.06.75,2.05,1.45,2.12.74.19-1.89-.39-3.78,1.76-4.88C56.63,319.4,50.32,314.28,50,316.94Z"/><path class="cls-5" d="M63.84,322.93c-1.6-1.66-3.32-6.71-4.22-9.2s-7.8-4.6-8.63-1.41,5.37,9.78,7.22,11.18S64.86,325.93,63.84,322.93Z"/><path class="cls-4" d="M63.94,323a20.61,20.61,0,0,0,2.94,2.54c1.2.88,1.24,3-3.46,2.42s-6-3-7.87-5.84-6.22-3.23-6-6.89A3.6,3.6,0,0,1,51,312.26c.52,3,5.35,7,7.45,9.32S62.85,324,63.94,323Z"/><path class="cls-4" d="M35.28,322.85a17.82,17.82,0,0,1,.94,7.52c-.06.75,2.05,1.45,2.12.74.19-1.89-.39-3.78,1.76-4.88C41.87,325.31,35.56,320.18,35.28,322.85Z"/><path class="cls-5" d="M49.08,328.83c-1.6-1.66-3.32-6.71-4.22-9.2s-7.8-4.6-8.63-1.41,5.37,9.78,7.22,11.18S50.11,331.84,49.08,328.83Z"/><path class="cls-4" d="M49.18,328.87a20.45,20.45,0,0,0,2.94,2.53c1.2.88,1.24,3-3.46,2.43s-6-3-7.87-5.84-6.22-3.23-6-6.89a3.61,3.61,0,0,1,1.45-2.94c.52,3,5.35,7,7.45,9.32S48.1,329.89,49.18,328.87Z"/><rect class="cls-10" x="45.87" y="166.87" width="13.01" height="20.07"/><path class="cls-13" d="M46.09,238.34c-.48,17.58,2.89,32.3,2,43.3s-.23,31.09.26,33.84c1.94,4,10.45,4,14,0,0,0,.24-6.72.73-17.11C63.6,289,64.53,252,64.4,237,60.23,233.86,49.69,234,46.09,238.34Z"/><path class="cls-20" d="M47.55,315.23c3-10.39,6.28-62.79,5.85-72.53-.16-3.59-5.27-6.45-6.73,1.69C44.16,258.33,44.13,292,47.55,315.23Z"/><path class="cls-13" d="M31.34,244.24c-.48,17.58,2.89,32.3,2,43.3s-.23,31.09.26,33.84c1.94,4,10.45,4,14,0,0,0,.24-6.72.73-17.11.44-9.33,2.78-47.05,2.65-62.05C46.89,239,34.93,239.87,31.34,244.24Z"/><path class="cls-20" d="M25.71,195.38c-.48,11.09,1.1,27.15,0,36.68s2,14.37,9.75,15.47c9.75,1.39,26.38,1.2,30.45-4.16.64-7.45-2.79-11.95-2.22-17.11,1-9.4,5.56-16.35,5.84-24.09.14-3.74-2.56-8.81-2.26-12.9.25-3.41,2-10.81-1.77-13.15a13.53,13.53,0,0,0-7.13-1.49,17.47,17.47,0,0,1-1.94,10.29c-3.09-2.37-5.4-4.83-9.54-8C38.49,180.39,26.1,186.37,25.71,195.38Z"/><path class="cls-13" d="M61.42,174.72c-.65,0-1.85-.12-3.05-.1a17.47,17.47,0,0,1-1.94,10.29c-3.09-2.37-5.4-4.83-9.54-8-2.83,1.16-3.38,1.55-5.09,2.35,4,7.06,2.4,8.85,5.84,14a35.18,35.18,0,0,1,6,1.36c-.55.95-1,2.93-1.45,6.22C54,206.44,59.79,213,61,218.22c1.53-6.34,4.36-13.89,5-19.5-.72-1.33-1.54-3.51-2.7-5.31.8-2,1.81-4,2.64-5.72C65.65,184.56,63,177.61,61.42,174.72Z"/><path class="cls-11" d="M60.09,174.66c-.56,0-1.13,0-1.73,0a17.46,17.46,0,0,1-1.94,10.29c-3.09-2.37-5.4-4.83-9.53-8A39.46,39.46,0,0,0,43,178.82C47.22,181,57.86,191.74,60.9,212.5,63,196.23,62,181.93,60.09,174.66Z"/><path class="cls-9" d="M60.09,174.66c-.56,0-1.13,0-1.73,0a17.47,17.47,0,0,1-1.94,10.29c-3.09-2.37-6-4.75-10.17-7.87a29.31,29.31,0,0,0-3.3,1.78C45.21,180,47.53,184,51.9,190l4.44-5,6.39.4C62.39,181,60.79,177.33,60.09,174.66Z"/><path class="cls-6" d="M54,187.54l3.24,3,.41,2.34-1.26,3.35c2.13,4.32,3.62,10.17,4.51,16.26a141.33,141.33,0,0,0,1.17-17.11l-1.59-2.6L59.71,190l.52-4.81-3.84-.25Z"/><path class="cls-5" d="M52.69,143.21c-10.87.15-18.14,7.45-19.09,15.95s11.63,17.93,19,17.93,10.89-6.58,11.12-15.38S63.56,143.05,52.69,143.21Z"/><path class="cls-22" d="M64,147.52c.49,3.1-5,9.78-11,11.72-4.27,1.36-9.66,5.4-8.45,10.39s4.59,13,1.43,16.95c-2.2,2.75-2.25,4.83-1,8.63.48,1.53,2.73,5.08,0,4.19-1.66-.54-5-3.19-5.38-8.39-.68-9.06-8.66-8-12.25-.53,0,0-2.18-9.65,1.54-18.58,2.13-5.11,1.65-7.5.7-13.17-1.08-6.47,1.92-14.19,8.07-17.82C46.7,135.5,62.51,138,64,147.52Z"/><path class="cls-5" d="M28.33,258.6c-.14,2.13-.13,3.36,1,4.82a3,3,0,0,0,2.47,1.31c.6,1.6,2.92,2.24,2.91-.32,0,0,2.08,1.53,1-4.58S28.8,255.11,28.33,258.6Z"/><path class="cls-20" d="M37,258.29c.15-2.91-.31-11.5,0-16.1S29.28,249.24,37,258.29Z"/><path class="cls-9" d="M27.49,259.18c-.13-.55-.25-1.14-.38-1.75a15.43,15.43,0,0,0,9-.73c.09.64.18,1.24.26,1.82C32.77,259.84,29.82,259.94,27.49,259.18Z"/><path class="cls-13" d="M26.72,257.54c-2.19-9.5-4-26.69-3.66-45.7s7.31-30.71,13.53-26.69c6.95,3.29.73,29.61-1.1,36.92s-.37,25.22,1.1,34.73C32.57,258.27,29.31,258.39,26.72,257.54Z"/><path class="cls-22" d="M63.7,147.61c-.24,9.21-9.83,17.41-13.79,18.78s-.2-2.32,2.44-6.55,4.36-8.62,4.49-12.2S64,144.05,63.7,147.61Z"/><path class="cls-21" d="M10.85,202,8.09,228.94l22.08,3.22,8.05-28.52S25.57,192.37,10.85,202Z"/><path class="cls-6" d="M39,212.59c7.44-.16,8.54,10.62,8.44,17.94-.09,6.8,3.34,16.55-2,17.14-5.95.67-9-10.66-10.67-17.89S32.76,212.72,39,212.59Z"/><path class="cls-5" d="M61.43,264.86c1.27,1.7,2.07,2.63,3.83,3a2.7,2.7,0,0,0,2.59-.5c1.45.86,3.51-.07,1.86-2,0,0,2.45-.1-2.26-4.06S59.53,261.92,61.43,264.86Z"/><path class="cls-9" d="M59.89,264.91q.93.57,1.93,1.14c.81-2.06,2.64-4.63,5.08-5.35a12.8,12.8,0,0,0-.92-.94l-.83-.78A13,13,0,0,0,59.89,264.91Z"/><path class="cls-6" d="M41.34,248.27c3.72,4.18,7.57,9.89,18.68,17.23,1-2.41,3-5.33,5.9-6.18a15.27,15.27,0,0,0-1.08-1.1C60.21,254,52,243.21,47.75,240S37.29,243.73,41.34,248.27Z"/><path class="cls-21" d="M40.41,186.3c1.58,6.56-.4,25.13,2.77,28.63,2.21,2.45,1.78,8-1.83,12.18s-2.22,2.56-1.63-3.26S35,213,34.7,206.58,38.74,179.35,40.41,186.3Z"/><path class="cls-4" d="M27,353.63a17.79,17.79,0,0,1,.94,7.52c-.06.75,2.05,1.45,2.12.74.19-1.89-.39-3.78,1.76-4.88C33.61,356.09,27.3,351,27,353.63Z"/><path class="cls-5" d="M40.82,359.61c-1.6-1.66-3.32-6.71-4.22-9.2s-7.8-4.6-8.63-1.41,5.37,9.78,7.22,11.18S41.84,362.62,40.82,359.61Z"/><path class="cls-4" d="M40.92,359.65a20.56,20.56,0,0,0,2.94,2.54c1.2.88,1.24,3-3.46,2.42s-6-3-7.87-5.84-6.22-3.23-6-6.89A3.6,3.6,0,0,1,28,348.94c.52,3,5.35,7,7.45,9.32S39.83,360.67,40.92,359.65Z"/><path class="cls-4" d="M12.26,359.53a17.79,17.79,0,0,1,.94,7.52c-.06.75,2.05,1.45,2.12.74.19-1.9-.39-3.78,1.76-4.88C18.86,362,12.54,356.86,12.26,359.53Z"/><path class="cls-5" d="M26.07,365.51c-1.6-1.66-3.32-6.71-4.22-9.2s-7.8-4.6-8.63-1.41,5.37,9.78,7.22,11.18S27.09,368.52,26.07,365.51Z"/><path class="cls-4" d="M26.16,365.55a20.54,20.54,0,0,0,2.94,2.53c1.2.88,1.24,3-3.46,2.43s-6-3-7.87-5.84-6.22-3.23-6-6.89a3.61,3.61,0,0,1,1.45-2.94c.52,3,5.35,7,7.45,9.32S25.08,366.58,26.16,365.55Z"/><rect class="cls-10" x="22.85" y="203.55" width="13.01" height="20.07"/><path class="cls-6" d="M23.07,275c-.48,17.58,2.89,32.3,2,43.3s-.23,31.09.26,33.84c1.94,4,10.45,4,14,0,0,0,.24-6.72.73-17.11.43-9.33,1.36-46.34,1.23-61.34C37.21,270.54,26.67,270.65,23.07,275Z"/><path class="cls-4" d="M24.53,351.91c3-10.39,6.28-62.79,5.85-72.53-.16-3.59-5.27-6.45-6.73,1.69C21.14,295,21.11,328.67,24.53,351.91Z"/><path class="cls-6" d="M8.32,280.92c-.48,17.58,2.89,32.3,2,43.3s-.23,31.09.26,33.84c1.94,4,10.45,4,14,0,0,0,.24-6.72.73-17.11.43-9.33,2.78-47.05,2.65-62.05C23.87,275.73,11.91,276.55,8.32,280.92Z"/><path class="cls-4" d="M2.69,232.06c-.48,11.09,1.1,27.15,0,36.68s2,14.37,9.75,15.47c9.75,1.39,26.38,1.2,30.45-4.16.64-7.45-2.79-11.95-2.22-17.11,1-9.4,5.56-16.35,5.84-24.09.14-3.74-2.56-8.81-2.26-12.9.25-3.41,2-10.81-1.77-13.15a13.53,13.53,0,0,0-7.13-1.49,17.46,17.46,0,0,1-1.94,10.29c-3.09-2.37-5.4-4.83-9.54-8C15.47,217.07,3.08,223,2.69,232.06Z"/><path class="cls-6" d="M38.4,211.4c-.64,0-1.85-.12-3.05-.1a17.46,17.46,0,0,1-1.94,10.29c-3.09-2.37-5.4-4.83-9.54-8-2.83,1.16-3.38,1.55-5.09,2.35,4,7.06,2.4,8.85,5.83,14a35.26,35.26,0,0,1,6,1.36c-.55.95-1,2.93-1.45,6.22C31,243.12,36.77,249.67,38,254.9c1.53-6.34,4.36-13.89,5-19.5-.72-1.33-1.54-3.51-2.7-5.31.8-2,1.81-4,2.64-5.71C42.63,221.24,40,214.29,38.4,211.4Z"/><path class="cls-11" d="M37.08,211.35c-.56,0-1.13,0-1.73,0a17.45,17.45,0,0,1-1.94,10.29c-3.09-2.37-5.39-4.83-9.53-8a39.45,39.45,0,0,0-3.93,1.86c4.26,2.19,14.91,12.92,17.94,33.68C40,232.91,39,218.61,37.08,211.35Z"/><path class="cls-9" d="M37.08,211.35c-.56,0-1.13,0-1.73,0a17.46,17.46,0,0,1-1.94,10.29c-3.09-2.37-6-4.75-10.17-7.87a29.42,29.42,0,0,0-3.3,1.78c2.25,1.15,4.57,5.19,8.94,11.14l4.44-5,6.39.4C39.37,217.72,37.77,214,37.08,211.35Z"/><path class="cls-27" d="M31,224.22l3.24,3,.41,2.33-1.26,3.35c2.13,4.32,3.62,10.17,4.51,16.26a141.29,141.29,0,0,0,1.17-17.11l-1.59-2.6-.78-2.81.51-4.81-3.84-.25Z"/><path class="cls-5" d="M29.68,179.89c-10.87.15-18.14,7.45-19.09,15.95s11.63,17.93,19,17.93,10.89-6.58,11.12-15.38S40.54,179.73,29.68,179.89Z"/><path class="cls-21" d="M40.41,190.24c-6.37-9.39-9.05-1.88-13.78,2.58-3,2.83-4.79,5.17-7.71,7.25-1.3.93-2-3.74-4.27-2.66-1.48.69-2.63,5.4,5.07,12.61,4,3.73-9,6.29-10.57,11-1.17,3.61-.63,6-4.91,6.13,0,0-2.19-9.65,1.54-18.58,2.13-5.11,1.65-7.5.7-13.17-1.08-6.47,1.92-14.19,8.07-17.82C23.68,172.18,40.78,173.37,40.41,190.24Z"/><path class="cls-5" d="M5.31,295.28c-.14,2.13-.13,3.36,1,4.82a3,3,0,0,0,2.47,1.31c.6,1.6,2.92,2.24,2.91-.32,0,0,2.08,1.53,1-4.58S5.78,291.79,5.31,295.28Z"/><path class="cls-9" d="M4.47,295.86q-.19-.83-.38-1.75a15.43,15.43,0,0,0,9-.73c.09.64.18,1.24.27,1.82C9.76,296.52,6.81,296.62,4.47,295.86Z"/><path class="cls-6" d="M3.7,294.22c-2.19-9.5-4-26.69-3.66-45.7s7.31-30.71,13.53-26.69c6.95,3.29.73,29.61-1.1,36.92s-.37,25.22,1.1,34.73C9.55,295,6.29,295.07,3.7,294.22Z"/><path class="cls-9" d="M48.94,273.18,73.8,287.53l15.85-9.15L64.79,264S51.49,271,48.94,273.18Z"/><path class="cls-8" d="M138.23,238c-8.95-3.1-14.25,10.87-17,20.08-2.54,8.55-10.7,18.55-4.53,21.36,6.95,3.16,15.07-9.84,19.88-18.26S145.77,240.59,138.23,238Z"/><path class="cls-5" d="M83.41,276.87c-2.65.5-4.2.68-6.2-.51a3.6,3.6,0,0,1-2-2.8c-2.1-.47-3.25-3.2,0-3.59,0,0-2.23-2.29,5.6-1.88S87.73,275.74,83.41,276.87Z"/><path class="cls-9" d="M84.83,278.3q-1.36-.28-2.79-.63c1-2.7,1.47-6.81-.21-9.67a16.14,16.14,0,0,1,1.67-.08H85C86.15,271.09,85.73,275.3,84.83,278.3Z"/><path class="cls-8" d="M118.56,279.84c-6.57-.07-17,3.14-34.36-1.09,1.17-3.17,1.69-7.85-.27-11.21a18.76,18.76,0,0,1,2-.09c8,.07,27.47-1.41,34.22-.72S126.29,279.92,118.56,279.84Z"/><path class="cls-7" d="M96.78,267.13c-1.7,2.79-3.15,9.34-2.06,13.28S103.14,262.77,96.78,267.13Z"/><rect class="cls-10" x="116.8" y="231.34" width="12.65" height="15.28"/><path class="cls-7" d="M119.82,371.06c-2.55-.9-9-2.4-11.11-.45s-1.61,7.54,5,10.39,12,1.77,12,3.42,4.79,3.06,8.93,1.87,4.41-7.36,2-10.63S125.83,373.31,119.82,371.06Z"/><path class="cls-8" d="M141,300.62c.61,17.58-3.64,32.3-2.58,43.3s.28,31.09-.33,33.84c-2.45,4-9.78,6.72-17.72,0,0,0-.31-6.72-.92-17.11-.55-9.33-.37-46-.21-61C124.45,296.49,136.41,296.25,141,300.62Z"/><path class="cls-7" d="M102.5,380.71c-2.55-.9-9-2.4-11.11-.45s-1.61,7.54,5,10.39,12,1.77,12,3.42,4.79,3.06,8.93,1.87,4.41-7.36,2-10.63S108.5,383,102.5,380.71Z"/><path class="cls-7" d="M120.85,383.36c2.87-9.92,4.7-25.59,4.18-32.64S127.9,321,128.16,311,108.32,283.35,120.85,383.36Z"/><path class="cls-8" d="M124.93,310c.61,17.58-4.95,32.56-3.89,43.56s.28,31.09-.33,33.84c-2.45,4-9.78,6.72-17.72,0,0,0-.31-6.72-.92-17.11-.55-9.33-.37-46-.21-61C107.13,306.14,120.39,305.64,124.93,310Z"/><path class="cls-7" d="M111.85,246.18c-3.61,2-8.72,8.31-10.19,12.73s-1.29,19.58.19,27.29.49,19-.82,22.63,8.36,8,15.74,7.87,23-9.84,25.09-15.42,1.64-14.76.66-21.32-.49-15.25.33-23.94-.33-19-5.41-19.68c-1.8-.23-4.7.4-8,1.51-2.14,5.5-7.54,6.54-12.66,5.51C114.93,244.34,113.24,245.3,111.85,246.18Z"/><path class="cls-8" d="M131.78,237.13c-.75.21-1.54.45-2.34.72-2.14,5.5-7.54,6.54-12.66,5.51-1.36.71-2.63,1.42-3.76,2.09C120.12,248.95,131.08,249.35,131.78,237.13Z"/><path class="cls-5" d="M120.13,208.91c7.36,0,12.8,6.89,12.14,15.38s-9.72,15.38-17.08,15.38-10.23-6.89-9.58-15.38S112.77,208.91,120.13,208.91Z"/><path class="cls-12" d="M124.08,203.08c-6.47-1.54-17.41,2.24-19.7,9-1.74,5.12-.31,7.41,2.57,11.15.87,1.12,1.61,3.58,2.22,5.75,1.29,4.62,1.66,4.66,2.68.67.78-3,4.2-3.85,3.55.55s4.89,11.61,11.41,10,5.53-4.66,7.7-12.3S136.72,206.1,124.08,203.08Z"/><path class="cls-9" d="M130.05,238.89a8.19,8.19,0,0,1-1.6.78c-2.17,2.91-6.56,4.73-11.68,3.7l-1.14.61C121.75,245.88,128,244.7,130.05,238.89Z"/><path class="cls-8" d="M108.58,250.51C99.2,249.25,96.78,264,95.93,273.56c-.79,8.88-6.8,20.31-.2,21.83,7.44,1.71,12.81-12.64,15.86-21.84S116.49,251.57,108.58,250.51Z"/><path class="cls-5" d="M70.93,291.14c-2.69.22-4.25.25-6.12-1.14a3.6,3.6,0,0,1-1.71-3c-2-.69-2.9-3.52.33-3.58,0,0-2-2.5,5.77-1.3S75.33,290.46,70.93,291.14Z"/><path class="cls-9" d="M72.19,292.71q-1.32-.42-2.71-.91c1.27-2.58,2.16-6.62.79-9.64a16.16,16.16,0,0,1,1.67.1l1.44.14C74.25,285.67,73.39,289.82,72.19,292.71Z"/><path class="cls-8" d="M98.5,295.23c-5.4,1.72-16.68-.15-27.09-2.14,1.49-3,2.59-7.63,1-11.18a19,19,0,0,1,2,.11c7.93.89,18-.84,24.67.54S105.87,292.89,98.5,295.23Z"/><path class="cls-28" d="M336.41,126.73c-.9-2.11-2.19-3.54-4-3.77a15.68,15.68,0,0,0-5.59.77c1.2-2,1.41-4.83,2.66-9.25,2.17-7.64,2.22-21.77-10.42-24.78-6.47-1.54-17.42,2.24-19.7,9-1.53,4.5-.61,6.82,1.59,9.85a18.2,18.2,0,0,0-.36,2.38c-.66,8.49,2.21,15.38,9.58,15.38a12.79,12.79,0,0,0,1.61-.11V130h0l-.52.28-.62.33h0L310,131l-.31.17-1.57.91-.06,0h0l-1.18.72a20.1,20.1,0,0,0-4.9,4.27c-8,.58-10.22,14.13-11,23.11a60,60,0,0,1-1.76,8.83l-9.9-5.71c.42-8.4,2.36-18.44,2.68-29.83a11.41,11.41,0,0,0,4.28-3.21c-.27-3.14-.42-7.58-.51-12.61,3.3-2.76,5.76-5.17,8-6.73a5.66,5.66,0,0,0,2.55-4.71c1.08-6-2.94-15.73-5.95-22.41a51.33,51.33,0,0,0-6.15-10.45c-2.61-5-8.37-8.62-14.11-11.3l.07,0a28.35,28.35,0,0,0-3.52-1.48V55.44a20.65,20.65,0,0,0,3.86-5.11c-.15.36-.24.57-.24.57s2.33,1.31,4.51-4.37,2.94-17.44-2.59-21.81C263,17.51,249,21.41,241.56,29.2a6.11,6.11,0,0,0-2,5.2l-.06.13a6.82,6.82,0,0,0,.3.67,5.13,5.13,0,0,0,1,1.53,13.57,13.57,0,0,0,1.66,1.74,49.11,49.11,0,0,0-.91,9.09c-.14,4.7.71,8.76,2.64,11.53l-.27.2a3.4,3.4,0,0,0-.4.13c-5.28,2.25-6.19,19.43-4.82,30.87s-1.18,30.61-1.64,36.27l.73.25c-.14,1.12-.27,2.24-.3,2.56l.33.12c-.05.25-.1.51-.15.78-1.44,9.07,1.57,6.66,1.57,6.66.08,3.76,3.48,2.63,4.3.23a2.12,2.12,0,0,0,.32,0c0,1.87,0,3.77,0,5.68L199.2,117.05c1.08-1.8,1.44-3.9,1.15-7-.66-7.08-9.92-12.86-16.57-12.86a12,12,0,0,0-9.58,4.25l-.89-.27,5.7-5.33s-8,1.49-13.44,1.85l-3.14-1.81-.58.33C160.72,91.36,149.47,76,149.21,70c-.24-5.56-3.21-23.23-8-30a2.25,2.25,0,0,0-1.35-2.1c-1.48-.52-2.89-1.26-4.42-1.64l-.07-.27c-.53-.07-.78-.09-1.33-.13V33c2.62-2.74,4-7.2,4.09-12.47.16-6.27,0-13.07-4-16.41-4.49-4.45-12.44-5.73-19-1.85-.41.24-.79.49-1.17.75a1.28,1.28,0,0,0-.12-.16,2.07,2.07,0,0,0-2.06-.15c-3.24-3.35-10-4.56-14.31,1.81-6,8.85,5.27,28.29-3.71,29.46-2.54,9.76,23.5,10,14-8.78-3.94-7.82-3-13.37-.62-14.83l0,0a1.36,1.36,0,0,0,.55.28,15.11,15.11,0,0,0,4.3,17.12,27.61,27.61,0,0,0,9.1,6.66v3.12a15,15,0,0,0-3.91,1.1l.2.13c-4.8,1.49-9.72,2.85-12.34,5.76C102,46.79,99,51.16,96.9,55.09c-2.56,4.77-5.83,11.36-5.73,15.9a4.39,4.39,0,0,0,1.66,5c3,2.14,9.34,8.32,15.84,11.09-1.6,3.87-3.51,9.25-2.95,19.23a136.32,136.32,0,0,0,2.17,21l-13,7.52v5.57l10.34,6v36.82c-3.21,2.18-4.22,4.68-2.22,6.88a8.28,8.28,0,0,0,2.22,1.63v3l-10.34,6,10.34,6v.12l2,1.14a10.36,10.36,0,0,0-2.81,4.15c-1.53,4.5-.61,6.82,1.59,9.85a18.19,18.19,0,0,0-.36,2.38c-.66,8.49,2.22,15.38,9.58,15.38a12.79,12.79,0,0,0,1.61-.11v3.82h0l-.57.3-.57.31h0l-.67.37-.32.18c-.55.31-1.09.62-1.59.92l0,0h0l-1.18.72a20.11,20.11,0,0,0-4.9,4.27c-6.26.45-9,8.78-10.24,16.69-4.28.18-8.18.33-10.82.3a18.75,18.75,0,0,0-2,.09c.07.12.13.25.2.38h-.62a16.14,16.14,0,0,0-1.67.08c0,.07.07.15.11.23a10.92,10.92,0,0,0-1.18-.13c-7.83-.41-5.6,1.88-5.6,1.88H75.1l-4.9-2.83c.24-.4.17-1-.48-1.77,0,0,2.45-.1-2.26-4.06a8.78,8.78,0,0,0-.75-.56l.18-.07a12.8,12.8,0,0,0-.92-.94l-.34-.32c.1,0,.19-.09.3-.12a15.26,15.26,0,0,0-1.08-1.1l-.61-.58v-.24c.76.18,1.5-.26,1.45-1.72,0,0,2.12,1.46.81-4.61a8.45,8.45,0,0,0-.28-1c.31-.11.62-.22.94-.34-.09-.49-.18-1-.28-1.56l.41-.15a174.61,174.61,0,0,1-2.76-26.62c1.67-7.08,4.76-12.9,5-19.25.07-2.06-.71-4.52-1.37-7,.6-5.84.71-11.62-.47-15.25a5.29,5.29,0,0,0-2.19-3.81l-.1-.05c-2.2-2.47-1.5-10.48-.33-14.55s1.37-9.76-1.44-11.75a4.42,4.42,0,0,0,.39-2.24c-1.5-9.48-17.32-12-26.44-6.63-6.15,3.63-9.15,11.36-8.07,17.82.95,5.67,1.43,8.06-.7,13.17a25.89,25.89,0,0,0-1,3,21.84,21.84,0,0,0-13.23,2.71c-6.15,3.63-9.15,11.36-8.07,17.82.95,5.67,1.44,8.06-.7,13.17C2.26,217,4,226.09,4.22,227.05a11.33,11.33,0,0,0-1.36,3.58A59.12,59.12,0,0,0,0,248.53c-.36,19,1.46,36.19,3.66,45.7l.44.12c.11.52.22,1,.33,1.52.26.08.52.15.8.22a5.27,5.27,0,0,0,1.08,4,3,3,0,0,0,2.47,1.31,2.31,2.31,0,0,0,.39.66c.76,8.47,1.64,15.91,1.16,22.14-.84,11-.23,31.09.26,33.84a4.44,4.44,0,0,0,1.61,1.75c.06.09.11.18.17.27l.12.42c-6.16,2.93-8.86,6.57-6.19,9.35,3.7,3.85,16.32,4.58,28.19,1.62S53,363,49.3,359.13c-1.8-1.88-5.73-3-10.65-3.33-.32-.74-.63-1.51-.91-2.26a7.72,7.72,0,0,0,1.68-1.39s.22-6.09.66-15.62a59.53,59.53,0,0,0,16.72-1.76c11.86-3,18.48-8.47,14.78-12.32-1.71-1.78-5.32-2.88-9.88-3.27-.33-.76-.65-1.55-.94-2.32a7.72,7.72,0,0,0,1.68-1.39s.24-6.72.73-17.11c.1-2.08.22-5.53.35-9.8A4.5,4.5,0,0,0,64.81,290a6.67,6.67,0,0,0,4.93,1.22c-.08.19-.16.39-.25.57.75.27,1.47.5,2.19.74l-.26.56c9.8,1.88,20.38,3.64,26.09,2.4a6.37,6.37,0,0,0,2.9-1.12,7.7,7.7,0,0,0,2.13-1.8c.27,6.58-.52,13.57-1.5,16.26a2.69,2.69,0,0,0,.82,2.72c-.15,16.13-.29,49.84.23,58.74l.12,2c-12.4,5.34-18.27,14.28-13.18,20.82,5.5,7.05,21.66,8.63,36.11,3.53s21.7-15,16.21-22a12.22,12.22,0,0,0-2.79-2.56c.4-7.46.59-20.2-.17-28.17-1-10.53,2.82-24.47,2.62-41.07a7.42,7.42,0,0,0,.87-1.56c2.13-5.58,1.64-14.76.66-21.32s-.49-15.25.33-23.94-.33-19-5.41-19.68a15.69,15.69,0,0,0-5.59.77c1.2-2,1.41-4.83,2.66-9.25a28.85,28.85,0,0,0,.8-3.85l14,8.09c0,.93-.06,1.85-.15,2.73-1,10.47-.35,29.17.24,33.32a12,12,0,0,0-3.94,2.94c-4.82,5.87,3.79,13.21,19.24,16.4s31.89,1,36.71-4.86c3-3.71.72-8-5.29-11.47a3.11,3.11,0,0,0-1.11-.61,46.44,46.44,0,0,0-9.88-3.64q.15-2.62.33-5.71c.11-1.8.18-4.62.24-8.1l47,27.11v.12l6,3.45.1-.06,3,1.74L297,253.62c0,1.31.08,2.41.14,3.28l.08,1.41C283.66,263.54,277,273,282.37,279.8c5.5,7.05,21.66,8.63,36.11,3.53s21.7-15,16.21-22a11.06,11.06,0,0,0-1.21-1.3c.45-7.19.72-21-.1-29.49-1-10.52,2.82-24.47,2.62-41.07a7.42,7.42,0,0,0,.87-1.56c2.13-5.58,1.64-14.76.66-21.32a51.77,51.77,0,0,1-.49-5.78,91.2,91.2,0,0,0,2.33-14.38C340.05,139.41,339.7,130.69,336.41,126.73ZM106,63l.17-.2c1.15,3.69,2.4,7.51,3.33,11.49-2.68-1.93-5.52-3.74-7.88-5.18A59.85,59.85,0,0,1,106,63Zm19.81,107.18c.06.12.13.23.2.35a1.9,1.9,0,0,0-.58,1h0l0-.07a3.6,3.6,0,0,0-1.45,2.94,3.42,3.42,0,0,0,.66,2.29q.17.59.3,1.13c-1.92.13-3.86.35-5.8.66a2.81,2.81,0,0,0-.24-.33c.2-2.15,1.12-12.18,1.73-21l.3-1.72,4.09,2.36C125.18,163.8,125.54,168.8,125.78,170.17Zm8.36,3.05a2.65,2.65,0,0,0,.22-.2s.41-3.69.82-9.36L147,170.51l0,.06-11.41,6.59C135,175.72,134.53,174.29,134.15,173.22ZM130.8,45.8l-.28.62-.1-.08.37-.53Zm127,170.12c12.12.81,23.21-1.52,27-6.17,2.26-2.75,1.57-5.82-1.38-8.63l4.79-2.77v36l-31.15-18Zm14-170.27c0,.21-.06.42-.1.64a8.38,8.38,0,0,0,0-1.28v0A1,1,0,0,1,271.85,45.66ZM155.47,99.83l-17,9.82c.23-5.19.37-9.88.34-13.47l-.07,0a56.87,56.87,0,0,0-1.41-12.59h0l-.07-.32-.35-1.58c-.12-.55-.24-1.08-.35-1.59l-.3.06a9,9,0,0,1,0-1.16,19.39,19.39,0,0,1,2.49-7.52C144.38,84.17,151.55,97.49,155.47,99.83ZM48.4,315.47A4.44,4.44,0,0,0,50,317.22c.06.09.11.18.17.27.2.73.37,1.38.5,2-1,.12-2,.26-2.94.43.05-1.35.14-3.59.27-6.55l.14-.69C48.23,314,48.31,315,48.4,315.47Zm-23,36.68A4.44,4.44,0,0,0,27,353.9c.06.09.11.18.17.27.21.76.39,1.45.52,2.08-1,.13-2,.3-3,.49.05-1.33.14-3.63.27-6.69l.14-.69C25.21,350.7,25.3,351.68,25.38,352.15ZM63.71,281.7l.45.26a2.2,2.2,0,0,0-.46.17Zm19.24.54,4.73-2.73c2.47.49,4.77.82,6.94,1l-.37,1.5C90.76,281.92,86.83,282.14,83,282.25Z"/></g></g></g></svg>