<svg xmlns="http://www.w3.org/2000/svg" viewBox="0 0 69.5 69.5"><defs><style>.cls-1{fill:#2bb0e1;}.cls-2{fill:#fff;}</style></defs><title>Asset 4</title><g id="Layer_2" data-name="Layer 2"><g id="Layer_1-2" data-name="Layer 1"><circle class="cls-1" cx="34.75" cy="34.75" r="34.75"/><path class="cls-2" d="M19.71,22.69A4.32,4.32,0,1,0,24,27,4.33,4.33,0,0,0,19.71,22.69Z"/><path class="cls-2" d="M22.42,38.88a8.51,8.51,0,0,1,1.26-5.53,5.33,5.33,0,0,0-1.37-.18H17.11a5.34,5.34,0,0,0-5.3,6l1.16,10A1.07,1.07,0,0,0,14,50.1h9.69Z"/><path class="cls-2" d="M49.79,22.69A4.32,4.32,0,1,0,54.11,27,4.33,4.33,0,0,0,49.79,22.69Z"/><path class="cls-2" d="M56.37,35a5.34,5.34,0,0,0-4-1.79H47.18a5.33,5.33,0,0,0-1.37.18,8.51,8.51,0,0,1,1.26,5.53L45.77,50.1h9.69a1.07,1.07,0,0,0,1.06-.94l1.16-10A5.34,5.34,0,0,0,56.37,35Z"/><path class="cls-2" d="M34.75,15.9a4.86,4.86,0,1,0,4.86,4.86A4.86,4.86,0,0,0,34.75,15.9Z"/><path class="cls-2" d="M43.39,33.67a6.37,6.37,0,0,0-4.75-2.13H30.87a6.37,6.37,0,0,0-6.32,7.1l1.74,15H43.22l1.74-15A6.37,6.37,0,0,0,43.39,33.67Z"/></g></g></svg>