<?xml version="1.0" encoding="utf-8"?>
<!-- Generator: Adobe Illustrator 19.1.0, SVG Export Plug-In . SVG Version: 6.00 Build 0)  -->
<svg version="1.1" id="Layer_1" xmlns="http://www.w3.org/2000/svg" xmlns:xlink="http://www.w3.org/1999/xlink" x="0px" y="0px"
	 viewBox="0 0 66.4 66.4" style="enable-background:new 0 0 66.4 66.4;" xml:space="preserve">
<style type="text/css">
	.st0{fill:#4995EC;}
	.st1{clip-path:url(#SVGID_2_);fill:#4995EC;}
	.st2{clip-path:url(#SVGID_2_);fill:#61B63D;}
	.st3{clip-path:url(#SVGID_2_);fill:#444B54;}
</style>
<polygon class="st0" points="40.7,1.9 35.5,9.1 45.9,9.1 "/>
<g>
	<defs>
		<rect id="SVGID_1_" y="0" width="66.4" height="66.4"/>
	</defs>
	<clipPath id="SVGID_2_">
		<use xlink:href="#SVGID_1_"  style="overflow:visible;"/>
	</clipPath>
	<path class="st1" d="M35.5,52.7h10.4v8.5c0,0-1.6,4.4-5.2,4.4c-3.6,0-5.2-5.1-5.2-5.1V52.7z"/>
	<rect x="50.5" y="0.7" class="st2" width="10.5" height="64.3"/>
	<path class="st3" d="M66.4,8.6h-4.3V0H49.6v8.6h-3.1l-5.8-8.2l-5.8,8.2H0v51.3h34.5v0.2c0,3.4,2.8,6.2,6.2,6.2
		c3.4,0,6.2-2.8,6.2-6.2v-0.2h2.6v6.5h12.5v-6.5h4.3V8.6z M34.5,36.7H18.7l7.3-9.1h5.7l2.8,3.8V36.7z M34.5,28.5l-2-2.6h-7.3
		l-8.6,10.8h-8v1.7h25.9V41H6V23.2h28.5V28.5z M34.5,21.6H4.3v21.1h30.2v15.6H1.7V18.9h32.8V21.6z M34.5,17.3H1.7v-7h32.8V17.3z
		 M40.7,3.3l3.8,5.3H37L40.7,3.3z M36.2,10.3h3.7v41.5h-3.7V10.3z M45.3,60.2c0,2.5-2,4.6-4.6,4.6s-4.6-2-4.6-4.6v-2.4h9.1V60.2z
		 M45.3,56.1h-9.1v-2.6h9.1V56.1z M45.3,51.8h-3.7V10.3h3.7V51.8z M49.6,58.2H47V42.6h2.6V58.2z M49.6,41H47v-2.6h2.6V41z
		 M49.6,36.7H47V23.2h2.6V36.7z M49.6,21.6H47v-2.6h2.6V21.6z M49.6,17.3H47v-7h2.6V17.3z M60.4,6.5h-4.3v1.7h4.3v4.8h-4.3v1.7h4.3
		v4.8h-4.3v1.7h4.3v4.8h-4.3v1.7h4.3v4.8h-4.3V34h4.3v4.8h-4.3v1.7h4.3v4.8h-4.3V47h4.3v4.8h-4.3v1.7h4.3v4.8h-4.3v1.7h4.3v4.8h-9.1
		v-63h9.1V6.5z M64.7,58.2h-2.6V10.3h2.6V58.2z"/>
	<rect x="4.3" y="12.9" class="st3" width="1.7" height="1.7"/>
	<rect x="8.6" y="12.9" class="st3" width="1.7" height="1.7"/>
	<rect x="12.9" y="12.9" class="st3" width="1.7" height="1.7"/>
	<path class="st3" d="M4.3,55.6h14.6V45.3H4.3V55.6z M17.3,53.9H6v-7h11.3V53.9z"/>
	<rect x="21.6" y="45.3" class="st3" width="10.3" height="1.7"/>
	<rect x="21.6" y="49.6" class="st3" width="10.3" height="1.7"/>
	<rect x="21.6" y="53.9" class="st3" width="10.3" height="1.7"/>
</g>
</svg>
