<?xml version="1.0" encoding="utf-8"?>
<!-- Generator: Adobe Illustrator 19.1.0, SVG Export Plug-In . SVG Version: 6.00 Build 0)  -->
<svg version="1.1" id="Layer_1" xmlns="http://www.w3.org/2000/svg" xmlns:xlink="http://www.w3.org/1999/xlink" x="0px" y="0px"
	 viewBox="0 0 59.6 58.8" style="enable-background:new 0 0 59.6 58.8;" xml:space="preserve">
<style type="text/css">
	.st0{fill:#4995EC;}
	.st1{fill:#61B63D;}
	.st2{clip-path:url(#SVGID_2_);fill:#444B54;}
</style>
<rect x="22.8" y="53.4" class="st0" width="14.2" height="3.7"/>
<rect x="29" y="0.7" class="st1" width="30.1" height="4.6"/>
<g>
	<defs>
		<rect id="SVGID_1_" y="0" width="59.6" height="58.8"/>
	</defs>
	<clipPath id="SVGID_2_">
		<use xlink:href="#SVGID_1_"  style="overflow:visible;"/>
	</clipPath>
	<path class="st2" d="M58.8,40.8H0.9c-0.5,0-0.9,0.4-0.9,0.9V58c0,0.5,0.4,0.8,0.9,0.8h57.9c0.5,0,0.8-0.4,0.8-0.8V41.7
		C59.6,41.2,59.3,40.8,58.8,40.8 M45.4,42.5H51v3.7h-5.7V42.5z M53.8,51.7H50V48h3.7V51.7z M48.3,51.7h-5.7V48h5.7V51.7z M38,42.5
		h5.7v3.7H38V42.5z M41,51.7h-5.7V48H41V51.7z M30.7,42.5h5.7v3.7h-5.7V42.5z M33.6,51.7H28V48h5.7V51.7z M23.3,42.5H29v3.7h-5.7
		V42.5z M26.3,51.7h-5.7V48h5.7V51.7z M16,42.5h5.7v3.7H16V42.5z M18.9,51.7h-5.7V48h5.7V51.7z M8.6,42.5h5.7v3.7H8.6V42.5z
		 M11.6,51.7H5.9V48h5.7V51.7z M1.7,42.5h5.2v3.7H1.7V42.5z M1.7,48h2.5v3.7H1.7V48z M6.9,57.1H1.7v-3.7h5.2V57.1z M14.3,57.1H8.6
		v-3.7h5.7V57.1z M21.6,57.1H16v-3.7h5.7V57.1z M36.3,57.1h-13v-3.7h13V57.1z M43.7,57.1H38v-3.7h5.7V57.1z M51,57.1h-5.7v-3.7H51
		V57.1z M57.9,57.1h-5.2v-3.7h5.2V57.1z M55.5,48h2.5v3.7h-2.5V48z M57.9,46.3h-5.2v-3.7h5.2V46.3z"/>
	<path class="st2" d="M23.7,0H0.9C0.4,0,0,0.4,0,0.8v36.3C0,37.6,0.4,38,0.9,38h22.8c0.5,0,0.8-0.4,0.8-0.8V0.8
		C24.5,0.4,24.1,0,23.7,0 M22.8,36.3H1.7V1.7h21.1V36.3z"/>
	<path class="st2" d="M58.8,0H29c-0.5,0-0.8,0.4-0.8,0.8v36.3c0,0.5,0.4,0.8,0.8,0.8h29.8c0.5,0,0.8-0.4,0.8-0.8V0.8
		C59.6,0.4,59.3,0,58.8,0 M57.9,36.3H29.9V6.7h28.1V36.3z M57.9,5H29.9V1.7h28.1V5z"/>
	<path class="st2" d="M18.7,5.9H5.8C5.4,5.9,5,6.3,5,6.8c0,0.5,0.4,0.8,0.9,0.8h12.9c0.5,0,0.8-0.4,0.8-0.8
		C19.5,6.3,19.2,5.9,18.7,5.9"/>
	<path class="st2" d="M12.3,10.8H5.8c-0.5,0-0.8,0.4-0.8,0.9c0,0.5,0.4,0.8,0.8,0.8h6.4c0.5,0,0.8-0.4,0.8-0.8
		C13.1,11.2,12.7,10.8,12.3,10.8"/>
	<path class="st2" d="M18.7,15.7H5.8c-0.5,0-0.9,0.4-0.9,0.9c0,0.5,0.4,0.8,0.9,0.8h12.9c0.5,0,0.8-0.4,0.8-0.8
		C19.5,16.1,19.2,15.7,18.7,15.7"/>
	<path class="st2" d="M12.3,20.6H5.8C5.4,20.6,5,21,5,21.5c0,0.5,0.4,0.8,0.8,0.8h6.4c0.5,0,0.8-0.4,0.8-0.8
		C13.1,21,12.7,20.6,12.3,20.6"/>
	<path class="st2" d="M18.7,25.5H5.8c-0.5,0-0.9,0.4-0.9,0.9c0,0.5,0.4,0.8,0.9,0.8h12.9c0.5,0,0.8-0.4,0.8-0.8
		C19.5,25.9,19.2,25.5,18.7,25.5"/>
	<path class="st2" d="M12.3,30.4H5.8c-0.5,0-0.8,0.4-0.8,0.9c0,0.5,0.4,0.8,0.8,0.8h6.4c0.5,0,0.8-0.4,0.8-0.8
		C13.1,30.8,12.7,30.4,12.3,30.4"/>
	<path class="st2" d="M38.9,24.9L35,21l3.9-3.9c0.2-0.2,0.2-0.4,0.2-0.6s-0.1-0.4-0.2-0.6c-0.2-0.2-0.4-0.2-0.6-0.2
		c-0.2,0-0.4,0.1-0.6,0.2l-4.5,4.5c-0.2,0.2-0.2,0.4-0.2,0.6s0.1,0.4,0.2,0.6l4.5,4.5c0.3,0.3,0.9,0.3,1.2,0
		C39.2,25.8,39.2,25.3,38.9,24.9"/>
	<path class="st2" d="M50.1,26.1l4.5-4.5c0.2-0.2,0.2-0.4,0.2-0.6s-0.1-0.4-0.2-0.6l-4.5-4.5c-0.2-0.2-0.4-0.2-0.6-0.2
		s-0.4,0.1-0.6,0.2c-0.2,0.2-0.2,0.4-0.2,0.6c0,0.2,0.1,0.4,0.2,0.6l3.9,3.9l-3.9,3.9c-0.3,0.3-0.3,0.9,0,1.2
		C49.3,26.4,49.8,26.4,50.1,26.1"/>
	<path class="st2" d="M41.7,26c-0.1,0.2,0,0.4,0.1,0.6c0.1,0.2,0.3,0.3,0.5,0.4c0.5,0.1,0.9-0.2,1-0.6l2.8-11.1
		c0.1-0.5-0.2-0.9-0.6-1c-0.1,0-0.1,0-0.2,0c-0.4,0-0.7,0.3-0.8,0.6L41.7,26z"/>
</g>
</svg>
