<svg xmlns="http://www.w3.org/2000/svg" xmlns:xlink="http://www.w3.org/1999/xlink" preserveAspectRatio="xMidYMid" width="62.658" height="52.32" viewBox="0 0 62.658 52.32">
  <defs>
    <style>
      .cls-1 {
        fill: #fff;
        fill-rule: evenodd;
      }
    </style>
  </defs>
  <path d="M60.296,43.410 L56.833,43.410 C56.325,43.410 55.914,42.994 55.914,42.481 C55.914,41.969 56.325,41.554 56.833,41.554 L60.295,41.554 C60.595,41.554 60.819,41.370 60.819,41.206 L60.819,38.726 C60.819,37.333 59.974,35.684 58.357,35.198 L53.350,34.440 C53.329,34.437 53.308,34.432 53.287,34.428 C53.277,34.425 53.268,34.424 53.259,34.422 C53.224,34.413 53.191,34.402 53.159,34.390 C53.151,34.386 53.143,34.382 53.135,34.380 C53.109,34.368 53.083,34.356 53.057,34.342 C53.053,34.340 53.049,34.338 53.044,34.336 C53.036,34.332 53.029,34.327 53.021,34.322 C53.014,34.318 53.007,34.315 53.000,34.310 C51.886,33.668 51.500,32.508 51.367,31.373 C50.146,32.103 48.744,32.521 47.254,32.521 C46.002,32.521 44.796,32.234 43.669,31.669 C43.214,31.440 43.029,30.883 43.255,30.425 C43.481,29.966 44.033,29.778 44.488,30.007 C45.359,30.443 46.289,30.666 47.254,30.666 C50.947,30.666 53.951,27.347 53.951,23.270 L53.951,19.312 C53.951,18.411 53.225,17.678 52.332,17.678 L49.965,17.678 C49.457,17.678 49.046,17.263 49.046,16.750 C49.046,16.238 49.457,15.823 49.965,15.823 L52.332,15.823 C54.239,15.823 55.791,17.388 55.791,19.312 L55.791,19.797 C55.871,19.471 55.914,19.133 55.914,18.787 L55.914,13.782 C55.914,12.110 54.566,10.751 52.909,10.751 L49.965,10.751 C49.457,10.751 49.046,10.336 49.046,9.823 C49.046,9.310 49.457,8.895 49.965,8.895 L52.909,8.895 C55.580,8.895 57.753,11.087 57.753,13.782 L57.753,18.786 C57.753,20.505 57.042,22.116 55.791,23.262 L55.791,23.270 C55.791,25.900 54.770,28.276 53.138,29.963 C53.148,31.143 53.238,32.200 53.816,32.635 L58.690,33.372 C58.728,33.378 58.765,33.386 58.802,33.396 C61.334,34.112 62.659,36.619 62.659,38.726 L62.659,41.206 C62.659,42.421 61.599,43.410 60.296,43.410 ZM44.017,21.699 C44.017,25.612 42.510,29.150 40.093,31.663 C40.095,33.832 40.212,35.835 41.449,36.643 L49.103,37.802 C49.141,37.807 49.178,37.815 49.215,37.825 C50.898,38.301 52.330,39.354 53.357,40.870 C54.294,42.255 54.810,43.925 54.810,45.575 L54.810,49.409 C54.810,51.007 53.396,52.308 51.659,52.308 L10.989,52.308 C9.251,52.308 7.838,51.007 7.838,49.409 L7.838,45.575 C7.838,43.925 8.354,42.254 9.290,40.870 C10.317,39.354 11.749,38.301 13.432,37.825 C13.469,37.815 13.506,37.807 13.544,37.802 L21.198,36.643 C22.436,35.835 22.552,33.832 22.555,31.663 C20.138,29.150 18.630,25.612 18.630,21.699 L18.630,21.382 C16.754,19.701 15.687,17.318 15.687,14.771 L15.687,9.823 C15.687,6.317 18.305,3.417 21.673,3.007 C22.068,1.280 23.606,-0.012 25.437,-0.012 L38.192,-0.012 C43.027,-0.012 46.961,3.956 46.961,8.834 L46.961,14.771 C46.961,17.318 45.893,19.701 44.017,21.382 L44.017,21.699 ZM20.816,38.577 L13.876,39.627 C11.119,40.436 9.677,43.224 9.677,45.575 L9.677,49.409 C9.677,49.975 10.278,50.452 10.989,50.452 L51.659,50.452 C52.370,50.452 52.970,49.975 52.970,49.409 L52.970,45.575 C52.970,43.224 51.528,40.436 48.772,39.627 L41.832,38.577 C40.803,43.085 36.453,46.378 31.324,46.378 C26.194,46.378 21.845,43.085 20.816,38.577 ZM40.085,37.933 C38.720,36.800 38.372,34.922 38.284,33.228 C36.284,34.658 33.892,35.492 31.324,35.492 C28.755,35.492 26.364,34.658 24.364,33.228 C24.275,34.922 23.928,36.800 22.562,37.933 C23.301,41.724 26.969,44.523 31.324,44.523 C35.678,44.523 39.347,41.724 40.085,37.933 ZM45.121,14.771 L45.121,8.832 C45.121,4.979 42.013,1.844 38.192,1.844 L25.437,1.844 C24.321,1.844 23.413,2.759 23.413,3.885 C23.413,4.397 23.001,4.813 22.493,4.813 C19.755,4.813 17.526,7.060 17.526,9.823 L17.526,14.771 C17.526,16.137 17.917,17.443 18.630,18.557 L18.630,15.761 C18.630,13.067 20.803,10.874 23.475,10.874 L40.154,10.874 C40.662,10.874 41.074,11.290 41.074,11.802 C41.074,12.315 40.662,12.730 40.154,12.730 L23.475,12.730 C21.818,12.730 20.470,14.089 20.470,15.761 L20.470,20.873 C20.475,20.929 20.475,20.985 20.470,21.042 L20.470,21.699 C20.470,28.281 25.339,33.636 31.324,33.636 C37.309,33.636 42.178,28.281 42.178,21.699 L42.178,14.771 C42.178,14.258 42.589,13.843 43.097,13.843 C43.605,13.843 44.017,14.258 44.017,14.771 L44.017,18.557 C44.731,17.443 45.121,16.137 45.121,14.771 ZM15.394,30.666 C16.358,30.666 17.289,30.444 18.159,30.008 C18.614,29.778 19.166,29.966 19.393,30.425 C19.619,30.884 19.434,31.441 18.979,31.669 C17.851,32.234 16.645,32.521 15.394,32.521 C13.903,32.521 12.501,32.103 11.280,31.373 C11.147,32.508 10.762,33.668 9.647,34.310 C9.640,34.315 9.634,34.318 9.627,34.322 C9.619,34.327 9.611,34.332 9.603,34.336 C9.599,34.338 9.594,34.340 9.590,34.343 C9.565,34.356 9.539,34.368 9.512,34.380 C9.504,34.382 9.497,34.387 9.489,34.390 C9.456,34.402 9.423,34.413 9.389,34.422 C9.380,34.424 9.370,34.425 9.361,34.428 C9.340,34.432 9.319,34.437 9.297,34.440 L4.290,35.198 C2.673,35.684 1.828,37.333 1.828,38.726 L1.828,41.206 C1.828,41.371 2.052,41.554 2.352,41.554 L5.814,41.554 C6.322,41.554 6.734,41.970 6.734,42.481 C6.734,42.994 6.322,43.410 5.814,43.410 L2.352,43.410 C1.049,43.410 -0.012,42.421 -0.012,41.206 L-0.012,38.726 C-0.012,36.619 1.313,34.112 3.845,33.396 C3.882,33.386 3.919,33.378 3.957,33.372 L8.831,32.635 C9.410,32.200 9.499,31.143 9.509,29.963 C7.877,28.276 6.856,25.900 6.856,23.270 L6.856,23.262 C5.605,22.116 4.894,20.505 4.894,18.787 L4.894,15.586 C4.894,13.227 6.601,11.261 8.835,10.882 C9.198,9.731 10.267,8.895 11.527,8.895 L12.682,8.895 C13.190,8.895 13.602,9.310 13.602,9.823 C13.602,10.336 13.190,10.751 12.682,10.751 L11.527,10.751 C10.984,10.751 10.543,11.196 10.543,11.743 C10.543,12.256 10.131,12.672 9.623,12.672 C8.030,12.672 6.734,13.979 6.734,15.586 L6.734,18.787 C6.734,19.133 6.776,19.471 6.856,19.797 L6.856,19.312 C6.856,17.388 8.408,15.823 10.315,15.823 L12.682,15.823 C13.190,15.823 13.602,16.238 13.602,16.750 C13.602,17.263 13.190,17.678 12.682,17.678 L10.315,17.678 C9.422,17.678 8.696,18.411 8.696,19.312 L8.696,23.270 C8.696,27.347 11.701,30.666 15.394,30.666 Z" class="cls-1"/>
</svg>
