<svg xmlns="http://www.w3.org/2000/svg" xmlns:xlink="http://www.w3.org/1999/xlink" preserveAspectRatio="xMidYMid" width="61" height="45" viewBox="0 0 61 45">
  <defs>
    <style>
      .cls-1 {
        fill: #fff;
        fill-rule: evenodd;
      }
    </style>
  </defs>
  <path d="M60.458,38.428 C60.245,42.056 57.126,45.007 53.504,45.007 L41.358,45.007 C37.799,45.007 34.402,42.147 33.784,38.633 L32.564,31.687 L28.445,31.687 L27.225,38.632 C26.608,42.147 23.210,45.007 19.651,45.007 L7.506,45.007 C3.884,45.007 0.764,42.056 0.551,38.428 L0.001,29.014 C-0.079,27.657 0.377,26.378 1.283,25.411 C1.599,25.075 1.967,24.812 2.355,24.586 L10.873,0.742 C10.999,0.390 11.294,0.125 11.656,0.037 C12.019,-0.050 12.401,0.053 12.672,0.310 L18.237,5.588 L16.720,7.203 L12.383,3.088 L4.941,23.918 L24.595,23.918 C25.966,23.918 27.175,24.460 27.997,25.444 C28.820,26.431 29.142,27.724 28.903,29.085 L28.903,29.085 L28.836,29.468 L32.174,29.468 L32.107,29.085 C31.868,27.724 32.190,26.431 33.013,25.444 C33.836,24.460 35.044,23.918 36.415,23.918 L56.144,23.918 L48.702,3.088 L44.364,7.203 L42.848,5.588 L48.413,0.310 C48.684,0.054 49.064,-0.049 49.428,0.037 C49.790,0.125 50.085,0.390 50.211,0.742 L58.749,24.639 C59.102,24.856 59.437,25.102 59.727,25.412 C60.634,26.378 61.089,27.657 61.009,29.014 L60.458,38.428 ZM26.304,26.871 C25.909,26.398 25.301,26.138 24.595,26.138 L4.772,26.138 C4.040,26.138 3.373,26.421 2.890,26.934 C2.406,27.451 2.163,28.143 2.207,28.884 L2.757,38.298 C2.902,40.773 5.032,42.787 7.506,42.787 L19.651,42.787 C22.146,42.787 24.617,40.708 25.050,38.246 L26.728,28.699 C26.851,27.995 26.701,27.346 26.304,26.871 ZM58.120,26.934 C57.638,26.421 56.969,26.138 56.237,26.138 L36.416,26.138 C35.709,26.138 35.101,26.398 34.706,26.871 C34.309,27.346 34.159,27.995 34.282,28.699 L35.959,38.246 C36.393,40.708 38.865,42.787 41.358,42.787 L53.504,42.787 C55.977,42.787 58.107,40.773 58.253,38.298 L58.804,28.884 C58.847,28.144 58.604,27.451 58.120,26.934 ZM46.879,39.457 L54.060,39.457 L54.060,41.677 L46.879,41.677 L46.879,39.457 ZM7.106,39.457 L14.287,39.457 L14.287,41.677 L7.106,41.677 L7.106,39.457 Z" class="cls-1"/>
</svg>
