<svg xmlns="http://www.w3.org/2000/svg" xmlns:xlink="http://www.w3.org/1999/xlink" preserveAspectRatio="xMidYMid" width="66.594" height="54.28" viewBox="0 0 66.594 54.28">
  <defs>
    <style>
      .cls-1 {
        fill: #fff;
        fill-rule: evenodd;
      }
    </style>
  </defs>
  <path d="M64.048,19.986 L53.416,24.535 C53.419,24.568 53.421,24.600 53.421,24.634 L53.421,32.228 C53.421,35.397 51.246,38.329 47.299,40.484 C43.541,42.534 38.566,43.664 33.292,43.664 C28.017,43.664 23.042,42.534 19.285,40.484 C15.337,38.329 13.162,35.397 13.162,32.228 L13.162,24.634 C13.162,24.600 13.164,24.568 13.168,24.535 L7.715,22.202 L7.715,36.534 C8.949,36.950 9.841,38.116 9.841,39.487 C9.841,40.281 9.541,41.007 9.049,41.558 C9.593,42.091 9.955,42.813 10.029,43.631 L10.794,52.031 C10.847,52.604 10.653,53.177 10.264,53.602 C9.875,54.028 9.321,54.272 8.743,54.272 L4.694,54.272 C4.117,54.272 3.562,54.028 3.173,53.602 C2.784,53.177 2.591,52.604 2.643,52.031 L3.408,43.631 C3.483,42.813 3.844,42.091 4.389,41.558 C3.896,41.007 3.596,40.281 3.596,39.487 C3.596,38.116 4.488,36.950 5.722,36.534 L5.722,21.452 C5.722,21.418 5.724,21.385 5.727,21.352 L2.534,19.986 C0.970,19.317 -0.002,17.846 -0.002,16.148 C-0.002,14.449 0.970,12.978 2.535,12.308 L29.550,0.754 C31.928,-0.264 34.654,-0.264 37.030,0.751 L64.050,12.309 C65.614,12.978 66.586,14.449 66.586,16.147 C66.586,17.846 65.613,19.318 64.048,19.986 ZM15.156,27.985 C15.156,30.393 16.962,32.705 20.241,34.495 C23.711,36.389 28.345,37.431 33.292,37.431 C34.686,37.431 36.075,37.347 37.421,37.180 C37.968,37.112 38.465,37.499 38.532,38.045 C38.600,38.589 38.212,39.086 37.666,39.154 C36.239,39.330 34.767,39.421 33.292,39.421 C28.017,39.421 23.043,38.290 19.285,36.241 C17.602,35.321 16.243,34.262 15.236,33.104 C15.618,35.192 17.361,37.167 20.241,38.739 C23.711,40.632 28.346,41.674 33.292,41.674 C38.238,41.674 42.873,40.632 46.343,38.739 C49.233,37.161 50.978,35.178 51.352,33.081 C50.180,34.438 48.537,35.658 46.486,36.660 C46.345,36.729 46.195,36.761 46.048,36.761 C45.680,36.761 45.325,36.557 45.152,36.204 C44.911,35.711 45.115,35.115 45.609,34.874 C49.307,33.067 51.428,30.556 51.428,27.985 L51.428,25.385 L37.034,31.542 C35.844,32.051 34.567,32.306 33.291,32.306 C32.015,32.306 30.741,32.051 29.554,31.544 L15.156,25.385 L15.156,27.985 ZM4.628,52.210 C4.627,52.218 4.625,52.239 4.645,52.261 C4.664,52.283 4.686,52.283 4.694,52.283 L8.743,52.283 C8.751,52.283 8.773,52.283 8.792,52.261 C8.812,52.239 8.810,52.218 8.810,52.210 L8.045,43.811 C7.982,43.122 7.412,42.603 6.719,42.603 C6.026,42.603 5.455,43.122 5.393,43.811 L4.628,52.210 ZM5.589,39.487 C5.589,40.109 6.096,40.614 6.719,40.614 C7.341,40.614 7.848,40.109 7.848,39.487 C7.848,38.865 7.341,38.359 6.719,38.359 C6.096,38.359 5.589,38.865 5.589,39.487 ZM63.265,14.137 L36.245,2.579 C35.307,2.178 34.301,1.978 33.293,1.978 C32.284,1.978 31.275,2.180 30.335,2.581 L3.321,14.137 C2.488,14.492 1.991,15.244 1.991,16.148 C1.991,17.051 2.488,17.802 3.319,18.157 L6.366,19.461 C6.424,19.439 6.485,19.423 6.548,19.411 L28.100,15.670 C28.464,14.137 30.574,13.031 33.292,13.031 C36.284,13.031 38.540,14.372 38.540,16.148 C38.540,17.924 36.284,19.263 33.292,19.263 C31.195,19.263 29.461,18.606 28.610,17.601 L9.693,20.884 L30.339,29.716 C32.216,30.518 34.370,30.518 36.249,29.714 L63.263,18.159 C64.096,17.803 64.593,17.050 64.593,16.146 C64.593,15.244 64.096,14.492 63.265,14.137 ZM30.037,16.148 C30.037,16.437 31.156,17.275 33.292,17.275 C35.428,17.275 36.547,16.437 36.547,16.148 C36.547,15.858 35.428,15.021 33.292,15.021 C31.156,15.021 30.037,15.858 30.037,16.148 ZM40.508,36.638 C41.209,36.476 41.898,36.288 42.557,36.080 C43.082,35.915 43.642,36.205 43.808,36.729 C43.974,37.253 43.683,37.811 43.159,37.977 C42.449,38.201 41.709,38.403 40.957,38.576 C40.881,38.593 40.806,38.602 40.731,38.602 C40.278,38.602 39.868,38.290 39.761,37.830 C39.637,37.295 39.972,36.761 40.508,36.638 Z" class="cls-1"/>
</svg>
