<svg xmlns="http://www.w3.org/2000/svg" xmlns:xlink="http://www.w3.org/1999/xlink" preserveAspectRatio="xMidYMid" width="58.75" height="53.63" viewBox="0 0 58.75 53.63">
  <defs>
    <style>
      .cls-1 {
        fill: #fff;
        fill-rule: evenodd;
      }
    </style>
  </defs>
  <path d="M54.050,53.618 L4.672,53.618 C2.087,53.618 -0.016,51.526 -0.016,48.952 L-0.016,47.087 C-0.016,47.055 -0.014,47.024 -0.011,46.992 C-0.007,46.956 -0.000,46.919 0.008,46.883 C0.009,46.874 0.012,46.866 0.014,46.858 C0.021,46.830 0.030,46.802 0.039,46.774 C0.043,46.766 0.045,46.757 0.049,46.749 C0.061,46.716 0.075,46.686 0.091,46.656 C0.092,46.653 0.093,46.651 0.099,46.639 L5.297,36.902 L5.297,9.942 C5.297,7.370 7.400,5.277 9.985,5.277 L47.184,5.277 C47.702,5.277 48.122,5.695 48.122,6.210 C48.122,6.725 47.702,7.143 47.184,7.143 L9.985,7.143 C8.434,7.143 7.172,8.399 7.172,9.942 L7.172,36.201 L51.550,36.201 L51.550,11.489 C51.550,10.973 51.970,10.556 52.488,10.556 C53.005,10.556 53.425,10.973 53.425,11.489 L53.425,36.902 C53.425,36.902 58.624,46.639 58.629,46.649 C58.630,46.651 58.630,46.653 58.631,46.656 C58.647,46.686 58.661,46.716 58.674,46.748 C58.677,46.757 58.680,46.766 58.683,46.774 C58.693,46.802 58.702,46.830 58.709,46.858 C58.711,46.866 58.713,46.874 58.715,46.883 C58.723,46.919 58.730,46.956 58.733,46.994 C58.737,47.024 58.738,47.055 58.738,47.087 L58.738,48.952 C58.738,51.526 56.635,53.618 54.050,53.618 ZM51.924,38.067 L6.798,38.067 L2.482,46.153 L56.241,46.153 L51.924,38.067 ZM56.863,48.020 L1.860,48.020 L1.860,48.952 C1.860,50.496 3.121,51.752 4.672,51.752 L54.050,51.752 C55.601,51.752 56.863,50.496 56.863,48.952 L56.863,48.020 ZM26.557,42.422 L32.182,42.422 C32.700,42.422 33.120,42.839 33.120,43.355 C33.120,43.870 32.700,44.288 32.182,44.288 L26.557,44.288 C26.039,44.288 25.619,43.870 25.619,43.355 C25.619,42.839 26.039,42.422 26.557,42.422 ZM57.801,6.832 C57.283,6.832 56.863,6.415 56.863,5.899 L56.863,3.176 L33.823,26.104 C33.457,26.469 32.863,26.469 32.497,26.104 L25.571,19.210 L10.648,34.062 C10.465,34.244 10.225,34.335 9.985,34.335 C9.745,34.335 9.505,34.244 9.322,34.062 C8.956,33.697 8.956,33.107 9.322,32.742 L24.908,17.232 C25.274,16.866 25.867,16.866 26.234,17.232 L33.160,24.126 L55.537,1.857 L52.800,1.857 C52.282,1.857 51.863,1.438 51.863,0.924 C51.863,0.408 52.282,-0.010 52.800,-0.010 L57.801,-0.010 C58.318,-0.010 58.738,0.408 58.738,0.924 L58.738,5.899 C58.738,6.415 58.318,6.832 57.801,6.832 Z" class="cls-1"/>
</svg>
