<svg xmlns="http://www.w3.org/2000/svg" xmlns:xlink="http://www.w3.org/1999/xlink" preserveAspectRatio="xMidYMid" width="36.566" height="63.44" viewBox="0 0 36.566 63.44">
  <defs>
    <style>
      .cls-1 {
        fill: #fff;
        fill-rule: evenodd;
      }
    </style>
  </defs>
  <path d="M31.242,63.432 L5.341,63.432 C2.403,63.432 0.013,61.004 0.013,58.020 L0.013,5.406 C0.013,2.422 2.403,-0.007 5.341,-0.007 L31.242,-0.007 C34.180,-0.007 36.571,2.422 36.571,5.406 L36.571,58.020 C36.571,61.004 34.180,63.432 31.242,63.432 ZM34.547,5.406 C34.547,3.556 33.064,2.049 31.242,2.049 L5.341,2.049 C3.519,2.049 2.036,3.556 2.036,5.406 L2.036,8.763 L34.547,8.763 L34.547,5.406 ZM34.547,10.818 L2.036,10.818 L2.036,52.607 L34.547,52.607 L34.547,10.818 ZM34.547,54.663 L2.036,54.663 L2.036,58.020 C2.036,59.870 3.519,61.376 5.341,61.376 L31.242,61.376 C33.064,61.376 34.547,59.870 34.547,58.020 L34.547,54.663 ZM18.292,60.006 C17.213,60.006 16.336,59.115 16.336,58.020 C16.336,56.925 17.213,56.033 18.292,56.033 C19.370,56.033 20.248,56.925 20.248,58.020 C20.248,59.115 19.370,60.006 18.292,60.006 ZM8.579,16.436 L10.737,16.436 C12.485,16.436 13.907,17.880 13.907,19.656 L13.907,21.848 C13.907,23.623 12.485,25.068 10.737,25.068 L8.579,25.068 C6.831,25.068 5.409,23.623 5.409,21.848 L5.409,19.656 C5.409,17.880 6.831,16.436 8.579,16.436 ZM7.432,21.848 C7.432,22.490 7.947,23.012 8.579,23.012 L10.737,23.012 C11.370,23.012 11.884,22.490 11.884,21.848 L11.884,19.656 C11.884,19.014 11.370,18.491 10.737,18.491 L8.579,18.491 C7.947,18.491 7.432,19.014 7.432,19.656 L7.432,21.848 ZM8.579,27.398 L10.737,27.398 C12.485,27.398 13.907,28.842 13.907,30.617 L13.907,32.809 C13.907,34.585 12.485,36.029 10.737,36.029 L8.579,36.029 C6.831,36.029 5.409,34.585 5.409,32.809 L5.409,30.617 C5.409,28.842 6.831,27.398 8.579,27.398 ZM7.432,32.809 C7.432,33.451 7.947,33.974 8.579,33.974 L10.737,33.974 C11.370,33.974 11.884,33.451 11.884,32.809 L11.884,30.617 C11.884,29.974 11.370,29.452 10.737,29.452 L8.579,29.452 C7.947,29.452 7.432,29.974 7.432,30.617 L7.432,32.809 ZM8.579,38.359 L10.737,38.359 C12.485,38.359 13.907,39.803 13.907,41.578 L13.907,43.770 C13.907,45.545 12.485,46.990 10.737,46.990 L8.579,46.990 C6.831,46.990 5.409,45.545 5.409,43.770 L5.409,41.578 C5.409,39.803 6.831,38.359 8.579,38.359 ZM7.432,43.770 C7.432,44.413 7.947,44.936 8.579,44.936 L10.737,44.936 C11.370,44.936 11.884,44.413 11.884,43.770 L11.884,41.578 C11.884,40.936 11.370,40.413 10.737,40.413 L8.579,40.413 C7.947,40.413 7.432,40.936 7.432,41.578 L7.432,43.770 ZM17.212,17.532 L25.846,17.532 C26.405,17.532 26.858,17.992 26.858,18.560 C26.858,19.127 26.405,19.587 25.846,19.587 L17.212,19.587 C16.654,19.587 16.201,19.127 16.201,18.560 C16.201,17.992 16.654,17.532 17.212,17.532 ZM17.212,21.916 L30.163,21.916 C30.722,21.916 31.175,22.376 31.175,22.944 C31.175,23.512 30.722,23.972 30.163,23.972 L17.212,23.972 C16.654,23.972 16.201,23.512 16.201,22.944 C16.201,22.376 16.654,21.916 17.212,21.916 ZM17.212,28.493 L25.846,28.493 C26.405,28.493 26.858,28.953 26.858,29.521 C26.858,30.089 26.405,30.548 25.846,30.548 L17.212,30.548 C16.654,30.548 16.201,30.089 16.201,29.521 C16.201,28.953 16.654,28.493 17.212,28.493 ZM17.212,32.877 L30.163,32.877 C30.722,32.877 31.175,33.338 31.175,33.905 C31.175,34.472 30.722,34.933 30.163,34.933 L17.212,34.933 C16.654,34.933 16.201,34.472 16.201,33.905 C16.201,33.338 16.654,32.877 17.212,32.877 ZM17.212,39.454 L25.846,39.454 C26.405,39.454 26.858,39.914 26.858,40.481 C26.858,41.049 26.405,41.509 25.846,41.509 L17.212,41.509 C16.654,41.509 16.201,41.049 16.201,40.481 C16.201,39.914 16.654,39.454 17.212,39.454 ZM17.212,43.839 L30.163,43.839 C30.722,43.839 31.175,44.299 31.175,44.867 C31.175,45.433 30.722,45.894 30.163,45.894 L17.212,45.894 C16.654,45.894 16.201,45.433 16.201,44.867 C16.201,44.299 16.654,43.839 17.212,43.839 ZM15.054,4.378 L21.529,4.378 C22.088,4.378 22.541,4.839 22.541,5.406 C22.541,5.973 22.088,6.433 21.529,6.433 L15.054,6.433 C14.495,6.433 14.042,5.973 14.042,5.406 C14.042,4.839 14.495,4.378 15.054,4.378 Z" class="cls-1"/>
</svg>
