<svg xmlns="http://www.w3.org/2000/svg" viewBox="0 0 101.08 78.85"><defs><style>.cls-1{fill:#61b63d;}.cls-2{fill:#4995ec;}.cls-3{fill:#444b54;}</style></defs><title>Asset 3</title><g id="Layer_2" data-name="Layer 2"><g id="Layer_1-2" data-name="Layer 1"><rect class="cls-1" x="0.56" y="48.73" width="7.48" height="10.46" rx="2.27" ry="2.27"/><rect class="cls-1" x="93.6" y="48.73" width="6.26" height="10.46" rx="2.27" ry="2.27"/><path class="cls-2" d="M23.18,56.5A10.76,10.76,0,1,0,33.94,67.26,10.76,10.76,0,0,0,23.18,56.5Zm0,15.3a4.17,4.17,0,1,1,4.17-4.17A4.17,4.17,0,0,1,23.19,71.81Z"/><path class="cls-2" d="M77.89,56.5A10.76,10.76,0,1,0,88.65,67.26,10.76,10.76,0,0,0,77.89,56.5Zm0,15.3a4.17,4.17,0,1,1,4.17-4.17A4.17,4.17,0,0,1,77.9,71.81Z"/><path class="cls-3" d="M77.9,71.81a4.17,4.17,0,1,1,4.17-4.17A4.17,4.17,0,0,1,77.9,71.81Zm0-6.84a2.67,2.67,0,1,0,2.67,2.67A2.67,2.67,0,0,0,77.9,65Z"/><path class="cls-3" d="M23.19,71.81a4.17,4.17,0,1,1,4.17-4.17A4.17,4.17,0,0,1,23.19,71.81Zm0-6.84a2.67,2.67,0,1,0,2.67,2.67A2.67,2.67,0,0,0,23.19,65Z"/><path class="cls-3" d="M19.77,13.68H12.93a4.28,4.28,0,0,0-4.38,4.38V28.31a4.28,4.28,0,0,0,4.38,4.38h6.84a4.28,4.28,0,0,0,4.38-4.38V18.06A4.28,4.28,0,0,0,19.77,13.68Zm2.46,14.64a2.35,2.35,0,0,1-2.46,2.46H12.93a2.35,2.35,0,0,1-2.46-2.46V25.85h4.92v.75a.87.87,0,0,0,1,1,.87.87,0,0,0,1-1v-.75h4.92Zm0-4.38H10.47V18.06a2.35,2.35,0,0,1,2.46-2.46h6.84a2.35,2.35,0,0,1,2.46,2.46Z"/><path class="cls-3" d="M44.66,18.06a4.28,4.28,0,0,0-4.38-4.38H33.44a4.28,4.28,0,0,0-4.38,4.38V28.31a4.28,4.28,0,0,0,4.38,4.38h6.84a4.28,4.28,0,0,0,4.38-4.38ZM42.74,28.31a2.35,2.35,0,0,1-2.46,2.46H33.44A2.35,2.35,0,0,1,31,28.31V25.85H35.9v.75a1,1,0,1,0,1.92,0v-.75h4.92Zm0-4.38H31V18.06a2.35,2.35,0,0,1,2.46-2.46h6.84a2.35,2.35,0,0,1,2.46,2.46Z"/><path class="cls-3" d="M60.8,13.68H54a4.28,4.28,0,0,0-4.38,4.38V28.31A4.28,4.28,0,0,0,54,32.69H60.8a4.28,4.28,0,0,0,4.38-4.38V18.06A4.28,4.28,0,0,0,60.8,13.68Zm2.46,14.64a2.35,2.35,0,0,1-2.46,2.46H54a2.35,2.35,0,0,1-2.46-2.46V22.44h4.92v.75a1,1,0,0,0,1.92,0v-.75h4.92Zm0-7.8H51.5V18.06A2.35,2.35,0,0,1,54,15.6H60.8a2.35,2.35,0,0,1,2.46,2.46Z"/><path class="cls-3" d="M0,62.17A6.44,6.44,0,0,0,6.43,68.6H12l.09.65a11.22,11.22,0,0,0,22.21,0l.09-.65H66.7l.09.65a11.22,11.22,0,0,0,22.21,0l.09-.65h5.56a6.44,6.44,0,0,0,6.43-6.43V42a1,1,0,0,0-.28-.73l-.11-.13L83.14,15.6H96.7a4.45,4.45,0,0,0,3.06-1.15,4.53,4.53,0,0,0,1.32-3.23A11.23,11.23,0,0,0,89.86,0H11.22A11.1,11.1,0,0,0,0,11.22ZM23.19,76.94a9.3,9.3,0,1,1,9.3-9.3A9.2,9.2,0,0,1,23.19,76.94Zm54.71,0a9.3,9.3,0,1,1,9.3-9.3A9.2,9.2,0,0,1,77.9,76.94ZM99,58.13H94.24V49.79H99ZM98.3,41H86.41L88.9,37.3a1.1,1.1,0,0,0,.15-.76.86.86,0,0,0-.42-.57,1.13,1.13,0,0,0-.79-.16.86.86,0,0,0-.57.42L84.05,41H73.73V15.6h7.13ZM1.92,49.79H6.84v8.34H1.92ZM1.92,60H6.09a2.67,2.67,0,0,0,2.67-2.67V50.54a2.67,2.67,0,0,0-2.67-2.67H1.92V43H65.14a1,1,0,0,0,0-1.92H1.92V11.22a9.2,9.2,0,0,1,9.3-9.3H89.86a9.42,9.42,0,0,1,9.3,9.3,2.28,2.28,0,0,1-.73,1.73,2.29,2.29,0,0,1-1.73.73H72.77a.87.87,0,0,0-1,1V42a.87.87,0,0,0,1,1H99v4.92H95a2.67,2.67,0,0,0-2.67,2.67v6.84A2.67,2.67,0,0,0,95,60h4v2.12a4.57,4.57,0,0,1-4.51,4.51H89.09L89,66a11.1,11.1,0,0,0-11.1-9.61h-.34A11.27,11.27,0,0,0,66.5,66l-.09.64h-32L34.29,66a11.1,11.1,0,0,0-11.1-9.61H23A11.28,11.28,0,0,0,12,66l-.09.64H6.43a4.57,4.57,0,0,1-4.51-4.51Z"/></g></g></svg>