<svg xmlns="http://www.w3.org/2000/svg" viewBox="0 0 79.86 79.88"><defs><style>.cls-1{fill:#4995ec;}.cls-2{fill:#61b63d;}.cls-3{fill:#444b54;}</style></defs><title>Asset 12</title><g id="Layer_2" data-name="Layer 2"><g id="Layer_1-2" data-name="Layer 1"><polygon class="cls-1" points="71.72 24.72 60.55 35.64 58.16 32.96 68.58 22.24 71.72 24.72"/><path class="cls-2" d="M12.33,59l8,7.28L8.94,78.49S4.32,78.74,2.43,76a5.93,5.93,0,0,1-.64-5.52Z"/><path class="cls-3" d="M78.14,74.9A10.42,10.42,0,0,0,70,58.79h-.07l-.06,0c-7.39-4.84-12.15-8.41-15-11.25l-8.78-8.78,5.52-6.18.18.1a8.65,8.65,0,0,0,3,1.05,9.91,9.91,0,0,0,1.84.13,2.92,2.92,0,0,1,2.57,1l.23.2-.25.19a1.91,1.91,0,0,0-.7,1.54,2.71,2.71,0,0,0,.73,1.83l4.69,4.69a3.42,3.42,0,0,0,2.64,1.13,3.14,3.14,0,0,0,2.61-1.23l9.53-9.54A3.42,3.42,0,0,0,79.84,31a3.58,3.58,0,0,0-1.13-2.64L74,23.67a2.4,2.4,0,0,0-1.7-.73,3.05,3.05,0,0,0-1.72.75l-.16.12-.15-.13a2.47,2.47,0,0,1-1.16-2.46,5.71,5.71,0,0,0-.25-1.93,9.15,9.15,0,0,0-2.62-5.12L61.43,9.34c-2.83-2.83-4.12-4.12-7.69-5.71C46,.05,38.23.71,26.77,5.91a1,1,0,0,0-.66,1.2A1.05,1.05,0,0,0,27.2,8h1.74c5.85,0,9.07,0,14.5,5.43a6.62,6.62,0,0,1,.33,8.92l-.06.08h-.1a1,1,0,0,0-.57.31l-6.11,6.82-4.68-4.68A58.63,58.63,0,0,1,21.11,10l0-.1a10.29,10.29,0,0,0-3-6.84,10.71,10.71,0,0,0-8.5-3,1.49,1.49,0,0,0-.73.53,1,1,0,0,0,0,1.09l3.82,6.82-.05.12a5,5,0,0,1-4.8,2.82H7.64l-4-6.54a1,1,0,0,0-.86-.55H2.75l-.13,0A.9.9,0,0,0,2,4.75,10.29,10.29,0,0,0,4.71,19,10.4,10.4,0,0,0,10,20.94l.16.05A58.63,58.63,0,0,1,25.1,32.15l5.07,5-.16.18L1.54,69A5.46,5.46,0,0,0,0,72.9,5.14,5.14,0,0,0,1.53,76.6l1.88,1.87A5.47,5.47,0,0,0,7,79.88a5.35,5.35,0,0,0,3.71-1.53l28.6-32,8.44,8.44c2.64,2.64,6,7.13,11.27,15l0,.06v.07a10.32,10.32,0,0,0,10.34,9.69h1.07a1.12,1.12,0,0,0,.86-.56,1,1,0,0,0,0-1.06l-4-6.69.07-.12a5.12,5.12,0,0,1,4.92-2.81h.13l3.82,6.54a1,1,0,0,0,.86.55A1.52,1.52,0,0,0,78.14,74.9ZM45.35,23.2a8.63,8.63,0,0,0-.52-11.58c-4.45-4.31-7.6-5.45-11-5.82l-1.18-.13,1.13-.36c7.61-2.4,13.31-2.32,19.06.28C56.13,6.94,57.2,8,60,10.86l4.82,4.82a6.52,6.52,0,0,1,1.95,3.9,7.8,7.8,0,0,1,.14,1.63,4.66,4.66,0,0,0,1.67,4,2.71,2.71,0,0,0,1.83.73,2,2,0,0,0,1.67-.7l.17-.23,4.89,4.89a1.54,1.54,0,0,1,0,2.23l-9.51,9.51a1.54,1.54,0,0,1-2.23,0l-4.89-4.89.23-.17a1.63,1.63,0,0,0,.57-1.63A2.75,2.75,0,0,0,60.63,33a4.66,4.66,0,0,0-4-1.67A7.93,7.93,0,0,1,55,31.23a6.17,6.17,0,0,1-3.88-1.94l-5.92-5.92ZM5.9,17.27A8.46,8.46,0,0,1,2.72,8.16l.16-.56L6,12.92a1.12,1.12,0,0,0,.85.55h.67a7.42,7.42,0,0,0,7-4l.26-.65a.79.79,0,0,0,0-1L11.59,2.27l.52.09A8.17,8.17,0,0,1,16.53,4.7a8.64,8.64,0,0,1,2.39,5.59v.07a1.11,1.11,0,0,0,0,.28,8.07,8.07,0,0,1-.22,1.87,8.45,8.45,0,0,1-3.51,4.9,8.32,8.32,0,0,1-4.53,1.33A8.23,8.23,0,0,1,5.9,17.27ZM26.62,30.63a58.76,58.76,0,0,0-12.27-9.87l-.44-.26.47-.19a15.67,15.67,0,0,0,2.11-1.05,10.27,10.27,0,0,0,4-5.1l.18-.49.27.45a62.45,62.45,0,0,0,9.74,12.27l4.77,4.77-3.94,4.4ZM38.36,43.87a1.15,1.15,0,0,0-.28.43l0,.08L9.17,76.69a3.18,3.18,0,0,1-2.24.94,2.8,2.8,0,0,1-2-.81L3.06,75.09A2.9,2.9,0,0,1,2.18,73a3.12,3.12,0,0,1,1-2.32l.92-1,2.11,2.11a1,1,0,0,0,.76.33,1,1,0,0,0,.76-.33,1,1,0,0,0,0-1.52L5.55,68.07l2.1-2.35L10,68a1,1,0,0,0,1.52,0,1,1,0,0,0,0-1.52l-2.4-2.4.16-.18L43.86,25.21l6,6-5.77,6.42a1.12,1.12,0,0,0-.36.25ZM60.15,64.43l-.14.28-.19.41-.12.28-.26,0h0l.23.09-.11.29-.17.45-.27-.4Q58,64.14,56.93,62.65l-.12-.17,1.94-1.94A1.08,1.08,0,0,0,57.23,59l-1.7,1.7-.17-.23q-.83-1.13-1.61-2.13l-.13-.17L55,56.79a1,1,0,0,0,0-1.52,1.07,1.07,0,0,0-1.52,0l-1.22,1.22-.18-.21c-1-1.18-1.89-2.19-2.71-3l-8.6-8.6,4-4.48L53.62,49c2.39,2.52,6.49,5.7,12.55,9.74l.43.28-.48.16a10.72,10.72,0,0,0-5.92,5.16l-.26,0h0Zm17.1,7.06-.16.56L74,66.73a1.12,1.12,0,0,0-.86-.55h-.67a7.14,7.14,0,0,0-7,4l-.26.65a.79.79,0,0,0,0,1l3.22,5.56-.52-.09a8.16,8.16,0,0,1-4.42-2.35,8.68,8.68,0,0,1-2.39-5.47v-.07a1.15,1.15,0,0,0,0-.26,8.31,8.31,0,0,1,1.52-4.77,8.52,8.52,0,0,1,2.2-2.13,7.68,7.68,0,0,1,4.56-1.38,8.29,8.29,0,0,1,4.7,1.52A8.45,8.45,0,0,1,77.25,71.49Z"/></g></g></svg>