<?xml version="1.0" encoding="utf-8"?>
<!-- Generator: Adobe Illustrator 19.1.0, SVG Export Plug-In . SVG Version: 6.00 Build 0)  -->
<svg version="1.1" id="Layer_1" xmlns="http://www.w3.org/2000/svg" xmlns:xlink="http://www.w3.org/1999/xlink" x="0px" y="0px"
	 viewBox="-964 1466.5 69.5 69.5" style="enable-background:new -964 1466.5 69.5 69.5;" xml:space="preserve">
<style type="text/css">
	.st0{fill:#595EBD;}
	.st1{fill:#FFFFFF;}
</style>
<title>Asset 6</title>
<g id="Layer_2">
	<g id="Layer_1-2">
		<circle class="st0" cx="-929.2" cy="1501.2" r="34.8"/>
		<path class="st1" d="M-932.5,1490.3c-4.2,0-7.7,3.4-7.7,7.7c0,0.6,0.5,1.1,1.1,1.1c0.6,0,1.1-0.5,1.1-1.1c0-3,2.5-5.5,5.5-5.5
			c0.6,0,1.1-0.5,1.1-1.1S-931.9,1490.3-932.5,1490.3z"/>
		<path class="st1" d="M-912.7,1513.2l-6-6c0.7-1.3,0.4-2.8-0.6-3.8l-0.1-0.1c2.9-7.3-0.6-15.6-7.9-18.5s-15.6,0.6-18.5,7.9
			c-2.9,7.3,0.6,15.6,7.9,18.5c3.4,1.4,7.2,1.4,10.6,0l0,0.1c1,1,2.6,1.3,3.9,0.6l6,6c1.3,1.3,3.4,1.3,4.6,0
			C-911.4,1516.5-911.4,1514.4-912.7,1513.2L-912.7,1513.2z M-942.4,1498c0-5.4,4.4-9.8,9.8-9.8c5.4,0,9.8,4.4,9.8,9.8
			s-4.4,9.8-9.8,9.8l0,0C-938,1507.8-942.4,1503.4-942.4,1498z"/>
	</g>
</g>
</svg>
