<svg xmlns="http://www.w3.org/2000/svg" viewBox="0 0 69.5 69.5"><defs><style>.cls-1{fill:#2bb0e1;}.cls-2{fill:#fff;}</style></defs><title>Asset 8</title><g id="Layer_2" data-name="Layer 2"><g id="Layer_1-2" data-name="Layer 1"><circle class="cls-1" cx="34.75" cy="34.75" r="34.75"/><path class="cls-2" d="M34.75,13.39A21.36,21.36,0,1,0,56.11,34.75,21.36,21.36,0,0,0,34.75,13.39Zm-1.24,7.14V17.66l8.1,4.68L33.51,27V24.29a10.69,10.69,0,0,0-7.38,4.47L23,26.61A14.45,14.45,0,0,1,33.51,20.53Zm-13,15.71H17.66l4.68-8.1L27,36.25H24.29a10.69,10.69,0,0,0,4.47,7.38l-2.15,3.08A14.45,14.45,0,0,1,20.53,36.25Zm15.72,13v2.87l-8.1-4.68,8.1-4.68v2.72A10.72,10.72,0,0,0,43.63,41l3.08,2.15A14.45,14.45,0,0,1,36.25,49.22Zm11.17-7.61-4.68-8.1h2.73A10.72,10.72,0,0,0,41,26.12L43.14,23a14.45,14.45,0,0,1,6.08,10.46h2.87Z"/></g></g></svg>