<svg xmlns="http://www.w3.org/2000/svg" viewBox="0 0 69.5 69.5"><defs><style>.cls-1{fill:#6a7686;}.cls-2{fill:#fff;}</style></defs><title>Asset 6</title><g id="Layer_2" data-name="Layer 2"><g id="Layer_1-2" data-name="Layer 1"><circle class="cls-1" cx="34.75" cy="34.75" r="34.75"/><path class="cls-2" d="M49.76,19.85A16,16,0,0,0,37,13.8,18.25,18.25,0,0,0,26.72,17a16.19,16.19,0,0,0-6.48,8.91,34.32,34.32,0,0,0-.81,3.66,13.55,13.55,0,0,1-2.38,6.27,2.26,2.26,0,0,0-.43,1.91,2.93,2.93,0,0,0,1.89,1.68,3.62,3.62,0,0,1,.74.39c.44.55.4,2.06.36,3.39,0,1.9-.1,3.87.85,5.3,1.32,2,3.37,2,5,2,1.93,0,2.81,0,3,2.18,0,.05,0,.28,0,.49A7.09,7.09,0,0,0,28.65,55a1,1,0,0,0,1,.68H47.69a1,1,0,0,0,.91-1.45c-2.28-4.72-.41-9.56,1.56-14.69A36.14,36.14,0,0,0,52.89,30,13.59,13.59,0,0,0,49.76,19.85Zm-16.28,11a1.05,1.05,0,0,1-1.35,1.62L28.07,29.1a1.05,1.05,0,0,1,0-1.62l4.06-3.37a1.05,1.05,0,0,1,1.35,1.62l-3.08,2.56Zm6.6-9L36.2,35.27a1.05,1.05,0,0,1-2-.59L38,21.31a1.05,1.05,0,0,1,2,.59Zm6.11,7.2-4.06,3.37a1.05,1.05,0,1,1-1.35-1.62l3.08-2.56-3.08-2.56a1.05,1.05,0,0,1,1.35-1.62l4.06,3.37a1.05,1.05,0,0,1,0,1.62Z"/></g></g></svg>