<svg xmlns="http://www.w3.org/2000/svg" viewBox="0 0 69.5 69.5"><defs><style>.cls-1{fill:#5eb833;}.cls-2{fill:#fff;}</style></defs><title>Asset 5</title><g id="Layer_2" data-name="Layer 2"><g id="Layer_1-2" data-name="Layer 1"><circle class="cls-1" cx="34.75" cy="34.75" r="34.75"/><path class="cls-2" d="M49.73,49.73h-2.5v-10A2.53,2.53,0,0,0,46.5,38l-3.23-3.23,3.23-3.23a2.53,2.53,0,0,0,.73-1.77v-10h2.5a2.5,2.5,0,0,0,0-5h-30a2.5,2.5,0,0,0,0,5h2.5v10A2.54,2.54,0,0,0,23,31.52l3.23,3.23L23,38a2.54,2.54,0,0,0-.74,1.77v10h-2.5a2.5,2.5,0,0,0,0,5h30a2.5,2.5,0,0,0,0-5ZM31.52,33l-4.26-4.26v-9h15v9L38,33a2.5,2.5,0,0,0,0,3.53l4.26,4.26v4l-7.49-7.49-7.49,7.49v-4l4.26-4.26A2.5,2.5,0,0,0,31.52,33Z"/><polygon class="cls-2" points="39.75 27.26 29.76 27.26 34.75 32.25 39.75 27.26"/></g></g></svg>