<svg xmlns="http://www.w3.org/2000/svg" viewBox="0 0 69.5 69.5"><defs><style>.cls-1{fill:#5eb833;}.cls-2{fill:#fff;}</style></defs><title>Asset 1</title><g id="Layer_2" data-name="Layer 2"><g id="Layer_1-2" data-name="Layer 1"><circle class="cls-1" cx="34.75" cy="34.75" r="34.75"/><rect class="cls-2" x="25.21" y="32.4" width="13.62" height="10.16" transform="translate(-17.12 33.62) rotate(-45)"/><path class="cls-2" d="M53.42,16.08a1.11,1.11,0,0,0-1.57,0l-2.57,2.57-1.73-1.73a1.11,1.11,0,0,0-.79-.33H36.68a1.11,1.11,0,0,0-.79.33L16.77,36a3.49,3.49,0,0,0,0,4.93L28.53,52.73a3.47,3.47,0,0,0,2.47,1h0a3.47,3.47,0,0,0,2.47-1L52.58,33.6a1.11,1.11,0,0,0,.33-.79V22.74a1.11,1.11,0,0,0-.33-.79l-1.73-1.73,2.57-2.57A1.11,1.11,0,0,0,53.42,16.08ZM42.51,37,31.78,47.69a1.11,1.11,0,0,1-1.57,0l-8.4-8.4a1.11,1.11,0,0,1,0-1.57L32.54,27a1.11,1.11,0,0,1,1.57,0l8.4,8.4a1.11,1.11,0,0,1,0,1.57Zm4.2-7.56a4.68,4.68,0,1,1-.88-7.3l-1.67,1.67a2.45,2.45,0,1,0,1.57,1.57l1.67-1.67A4.68,4.68,0,0,1,46.71,29.41Z"/></g></g></svg>