<svg xmlns="http://www.w3.org/2000/svg" viewBox="0 0 69.5 69.5"><defs><style>.cls-1{fill:#595ebd;}.cls-2{fill:#fff;}</style></defs><title>Asset 7</title><g id="Layer_2" data-name="Layer 2"><g id="Layer_1-2" data-name="Layer 1"><circle class="cls-1" cx="34.75" cy="34.75" r="34.75"/><path class="cls-2" d="M13.76,46c.37,0,.74-.09,1.11-.09,6.21,0,12.41,0,18.62,0a12.79,12.79,0,0,0,3-25.3,4,4,0,0,0-.5,0l-.13,1.2-3.82-4L36,13.67c-.57,1.91.75,1.92,1.83,2.23,7.28,2.06,12,6.55,13.46,14.18A17.55,17.55,0,0,1,36.75,50.45a37.53,37.53,0,0,1-5.13.29c-5.61,0-11.23,0-16.84,0-.24,0-.48,0-1-.09l2.57-2.21-2.59-2.31Q13.76,46.07,13.76,46Z"/><path class="cls-2" d="M53.44,52.53V50.85H43c.33-.3.46-.43.61-.54,1.63-1.28,3.25-2.59,4.9-3.84a2.77,2.77,0,0,1,1.38-.56c1.17-.08,2.34,0,3.56,0l.1-1.69,4.22,4v.19l-4.12,4.12Z"/><path class="cls-2" d="M31.39,15.63,29.1,17.76l2.75,2.58c-5.5,1.26-9.3,4.2-10.63,9.78s.67,9.93,5.2,13.6c-2.37,0-4.44,0-6.51,0-.33,0-.73-.43-1-.76a17.56,17.56,0,0,1,.95-21,17.91,17.91,0,0,1,10.56-6.24C30.73,15.67,31,15.66,31.39,15.63Z"/><circle class="cls-2" cx="34.03" cy="33.13" r="6.63"/></g></g></svg>