<svg xmlns="http://www.w3.org/2000/svg" xmlns:xlink="http://www.w3.org/1999/xlink" viewBox="0 0 406.49 310.59"><defs><style>.cls-1{fill:#303a49;opacity:0.6;}.cls-2{fill:url(#linear-gradient);}.cls-3{fill:url(#linear-gradient-2);}.cls-4{fill:none;stroke:#dac8be;stroke-miterlimit:10;stroke-width:3.67px;}.cls-5{opacity:0.11;}.cls-6{fill:#fff;}.cls-7{fill:#b0998b;}.cls-8{opacity:0.51;}.cls-9{fill:#9a8680;}.cls-10{fill:#958180;}.cls-11{fill:url(#linear-gradient-3);}.cls-12{opacity:0.75;}.cls-13{fill:#ffe0d5;}.cls-14{opacity:0.66;}.cls-15,.cls-21{fill:#232426;}.cls-16{fill:#8d8180;}.cls-16,.cls-17{opacity:0.38;}.cls-18{fill:#786e69;}.cls-19,.cls-26{opacity:0.87;}.cls-20{fill:#6b625e;}.cls-21{opacity:0.42;}.cls-22{opacity:0.1;}.cls-23{fill:#1f1f21;}.cls-24{opacity:0.7;}.cls-25{opacity:0.62;}.cls-26,.cls-27{fill:#bbaca3;}</style><linearGradient id="linear-gradient" x1="139.92" y1="118.06" x2="404.65" y2="118.06" gradientUnits="userSpaceOnUse"><stop offset="0" stop-color="#4c5c76"/><stop offset="0.28" stop-color="#49566e"/><stop offset="0.73" stop-color="#424557"/><stop offset="1" stop-color="#3c3946"/></linearGradient><linearGradient id="linear-gradient-2" x1="274.66" y1="217.45" x2="274.66" y2="14.57" gradientUnits="userSpaceOnUse"><stop offset="0" stop-color="#7d80f5"/><stop offset="0.28" stop-color="#7688ef"/><stop offset="0.71" stop-color="#629fde"/><stop offset="1" stop-color="#51b2d0"/></linearGradient><linearGradient id="linear-gradient-3" x1="173.34" y1="297.52" x2="173.34" y2="138.33" gradientUnits="userSpaceOnUse"><stop offset="0" stop-color="#bfbbbf"/><stop offset="0.39" stop-color="#c7c1c6"/><stop offset="1" stop-color="#ded3d9"/></linearGradient></defs><title>Asset 2</title><g id="Layer_2" data-name="Layer 2"><g id="Layer_1-2" data-name="Layer 1"><path class="cls-1" d="M346.76,238.08l-.34-.1a3.4,3.4,0,0,0-1.77-1.83l-199.55-91a16.21,16.21,0,0,0-13.51,0L99,160.06h0l-52.46,24L2,204.51a3.47,3.47,0,0,0-1.23.94,3.37,3.37,0,0,0-.28.4,3.41,3.41,0,0,0-.31.68h0v.12l0,.07a3.56,3.56,0,0,0,0,1.88l0,.06v5.73A3.46,3.46,0,0,0,2,218.57l197.68,90.17a20.68,20.68,0,0,0,6.67,1.77h0a20.71,20.71,0,0,0,2.12.09h0a20.7,20.7,0,0,0,2.1-.13h.07a20.68,20.68,0,0,0,2.06-.35l.07,0a20.67,20.67,0,0,0,2-.57l.05,0q.51-.17,1-.37h0l.59-.25.4-.17L344.63,250a3.4,3.4,0,0,0,1.68-1.67h0a3.46,3.46,0,0,0,.23-.66l0-.12a3.57,3.57,0,0,0,.08-.67l.11,0h0Z"/><path class="cls-2" d="M212.12,2.73,397,87a13.11,13.11,0,0,1,6.5,17.35L345.71,234.28,139.92,140.42,199,7.64A9.89,9.89,0,0,1,212.12,2.73Z"/><path class="cls-3" d="M211.7,14.87,391.23,96.76a3.34,3.34,0,0,1,1.67,4.4L342.06,215.47a3.34,3.34,0,0,1-4.44,1.68L158.09,135.26a3.34,3.34,0,0,1-1.67-4.4L207.26,16.56A3.34,3.34,0,0,1,211.7,14.87Z"/><path class="cls-4" d="M212.12,2.73,397,87a13.11,13.11,0,0,1,6.5,17.35L345.71,234.28,139.92,140.42,199,7.64A9.89,9.89,0,0,1,212.12,2.73Z"/><g class="cls-5"><path class="cls-6" d="M199,7.64a9.89,9.89,0,0,1,13.11-4.91l45.26,20.64,6.73,173.69L139.92,140.42Z"/></g><path class="cls-7" d="M.15,209.07V201.2l43.7-13.55,94.6-43.57,168.29,77,40,11.65v8.85l-.11,0a3.42,3.42,0,0,1-2,3.13L217,303.37a20.69,20.69,0,0,1-17.24,0L2,213.23A3.46,3.46,0,0,1,.15,209.07Z"/><g class="cls-8"><path class="cls-9" d="M340.41,246.5,217,303.37a20.69,20.69,0,0,1-16.85.2V288a32.07,32.07,0,0,0,6.27,2.09c7.21.51,84.06-35.41,129.89-57.19"/></g><path class="cls-7" d="M344.63,244.68,217,303.37l128.41-59.15A3.53,3.53,0,0,1,344.63,244.68Z"/><path class="cls-10" d="M216,303.79h0c.33-.13.66-.27,1-.42C216.63,303.52,216.3,303.66,216,303.79Z"/><path class="cls-10" d="M342.12,231.39l4.64,1.35v8.85l-.11,0a3.43,3.43,0,0,1-1.28,2.67L217,303.37c-.33.15-.66.29-1,.42V291.52C236.2,284.77,304.62,250.47,342.12,231.39Z"/><path class="cls-11" d="M145.09,139.79l199.55,91a3.47,3.47,0,0,1,0,6.31L217,295.62a20.69,20.69,0,0,1-17.24,0L2,205.48a3.47,3.47,0,0,1,0-6.31l129.56-59.36A16.21,16.21,0,0,1,145.09,139.79Z"/><g class="cls-12"><path class="cls-13" d="M312.76,251.09l-3.83,1.67c-2.43,1.08-5.92,2.59-10.08,4.47s-9,4-14.21,6.4l-16.25,7.43-16.2,7.52-7.44,3.49-6.66,3.14L228.15,290l-3.76,1.82a.36.36,0,0,0,.3.65l3.83-1.68,10.08-4.47,6.72-3,7.49-3.38,16.25-7.42,16.2-7.52c5.17-2.39,10-4.7,14.1-6.64s7.54-3.61,9.95-4.75l3.76-1.82a.36.36,0,0,0-.3-.65Z"/></g><g class="cls-14"><path class="cls-15" d="M325.52,221.47l-6,2.74a2.14,2.14,0,0,1-1.78,0l-164.45-75a.88.88,0,0,1,0-1.6l6.48-3a.88.88,0,0,1,.73,0l165,75.25A.88.88,0,0,1,325.52,221.47Z"/></g><path class="cls-16" d="M122.4,213.72l52.52,24a1.36,1.36,0,0,1,0,2.48L140.56,256a7.51,7.51,0,0,1-6.26,0l-50-22.78a1.36,1.36,0,0,1,0-2.48l36.93-17A1.36,1.36,0,0,1,122.4,213.72Z"/><g class="cls-17"><path class="cls-18" d="M88.29,229.19l12.51-5.58,12.79-5.79,7.2-3.29.46-.21.23-.11.09,0,.07,0a.84.84,0,0,1,.63.08l1.86.85,3.73,1.71,14.66,6.64,12.81,5.74,12.53,5.53a.26.26,0,0,0,.21-.46l-12.39-5.83-12.73-5.91-14.62-6.71-3.74-1.7-1.86-.84a1.93,1.93,0,0,0-1.35-.14l-.18.06-.15.06-.23.11-.46.21-7.18,3.33-12.71,6-12.37,5.88a.26.26,0,0,0,.21.46Z"/></g><g class="cls-19"><path class="cls-13" d="M164,279.12l-18.2-8.46-18.68-8.61-21.44-9.81L84.2,242.49,65.46,234l-18.32-8.2a.22.22,0,0,0-.18.39l18.2,8.46,18.68,8.61,21.44,9.82,21.47,9.76,18.75,8.47,18.32,8.2a.22.22,0,0,0,.18-.39Z"/></g><g class="cls-17"><path class="cls-20" d="M124.35,263.38l-2-1c-1.31-.64-3.17-1.58-5.43-2.66s-4.88-2.35-7.71-3.67-5.86-2.72-8.88-4.11-6.07-2.75-8.93-4-5.54-2.41-7.83-3.41-4.22-1.79-5.56-2.36l-2.12-.87a.38.38,0,0,0-.32.7l2,1c1.31.64,3.17,1.58,5.43,2.65s4.88,2.35,7.71,3.67,5.85,2.72,8.88,4.11,6.07,2.75,8.93,4,5.54,2.41,7.83,3.41,4.22,1.78,5.56,2.36l2.12.87a.38.38,0,0,0,.32-.7Z"/></g><path class="cls-21" d="M340.09,241.93v2.79a.46.46,0,0,1-.27.42l-6,2.76a.46.46,0,0,1-.65-.42v-2.79a.46.46,0,0,1,.27-.42l6-2.76A.46.46,0,0,1,340.09,241.93Z"/><path class="cls-21" d="M327,247.74v2.79a.46.46,0,0,1-.27.42l-6,2.76a.46.46,0,0,1-.65-.42v-2.79a.46.46,0,0,1,.27-.42l6-2.76A.46.46,0,0,1,327,247.74Z"/><path class="cls-21" d="M314.64,253.45v2.79a.46.46,0,0,1-.27.42l-6,2.76a.46.46,0,0,1-.65-.42v-2.79a.46.46,0,0,1,.27-.42l6-2.76A.46.46,0,0,1,314.64,253.45Z"/><g class="cls-22"><path class="cls-6" d="M2,199.18l97-44.45L259.25,276.25,217,295.62a20.69,20.69,0,0,1-17.24,0L2,205.48A3.47,3.47,0,0,1,2,199.18Z"/></g><path class="cls-23" d="M87.47,191l6.32,2.88a5.63,5.63,0,0,0,4.11,0l1.19-.55a1.54,1.54,0,0,0,.63-.48c.3.42.1.9-.63,1.24l-1.19.55a5.63,5.63,0,0,1-4.11,0l-6.32-2.88c-.68-.31-.86-.77-.55-1.16A1.46,1.46,0,0,0,87.47,191Z"/><path class="cls-23" d="M131.42,211.71l59.46,27.12a5.51,5.51,0,0,0,4,0l8.6-4a1.6,1.6,0,0,0,.69-.54c.29.45.07.95-.69,1.3l-8.6,4a5.51,5.51,0,0,1-4,0l-59.46-27.12c-.77-.35-1-.85-.7-1.3A1.6,1.6,0,0,0,131.42,211.71Z"/><path class="cls-23" d="M100.09,197.42l7.16,3.27a5.51,5.51,0,0,0,4,0l8.6-4a1.6,1.6,0,0,0,.69-.54c.29.45.07.95-.69,1.3l-8.6,4a5.51,5.51,0,0,1-4,0l-7.16-3.27c-.77-.35-1-.85-.7-1.3A1.6,1.6,0,0,0,100.09,197.42Z"/><path class="cls-23" d="M198.23,242.19l9.1,4.15a5.51,5.51,0,0,0,4,0l8.6-4a1.6,1.6,0,0,0,.69-.54c.29.45.07.95-.69,1.3l-8.6,4a5.51,5.51,0,0,1-4,0l-9.1-4.15c-.77-.35-1-.85-.7-1.3A1.6,1.6,0,0,0,198.23,242.19Z"/><path class="cls-23" d="M114.6,204l9.46,4.32a5.51,5.51,0,0,0,4,0l8.6-4a1.61,1.61,0,0,0,.69-.54c.29.44.07.95-.69,1.3l-8.6,4a5.51,5.51,0,0,1-4,0l-9.46-4.32c-.77-.35-1-.85-.7-1.3A1.6,1.6,0,0,0,114.6,204Z"/><path class="cls-23" d="M253.73,252.66a1.59,1.59,0,0,0,.7.55L269.27,260a5.51,5.51,0,0,0,4,0l6.93-3.19a1.6,1.6,0,0,0,.69-.54c.29.45.07.95-.69,1.3l-6.93,3.19a5.51,5.51,0,0,1-4,0L254.43,254C253.66,253.61,253.44,253.11,253.73,252.66Z"/><path class="cls-23" d="M214.68,249.69l7.86,3.59a5.51,5.51,0,0,0,4,0l8.6-4a1.6,1.6,0,0,0,.69-.54c.29.45.07.95-.69,1.3l-8.6,4a5.51,5.51,0,0,1-4,0l-7.86-3.59c-.77-.35-1-.85-.7-1.3A1.6,1.6,0,0,0,214.68,249.69Z"/><path class="cls-23" d="M229.9,256.63l6.86,3.13a5.51,5.51,0,0,0,4,0l8.6-4a1.6,1.6,0,0,0,.69-.54c.29.45.07.95-.69,1.3l-8.6,4a5.51,5.51,0,0,1-4,0l-6.86-3.13c-.77-.35-1-.85-.7-1.3A1.6,1.6,0,0,0,229.9,256.63Z"/><path class="cls-23" d="M244.11,263.11l9.22,4.21a5.51,5.51,0,0,0,4,0l8.6-4a1.6,1.6,0,0,0,.69-.54c.29.45.07.95-.69,1.3l-8.6,4a5.51,5.51,0,0,1-4,0l-9.22-4.21c-.77-.35-1-.85-.7-1.3A1.6,1.6,0,0,0,244.11,263.11Z"/><path class="cls-23" d="M188.48,191.14l-4.82,2.22a11,11,0,0,1-2.14.68,4.55,4.55,0,0,1-2.24-.44l-7.59-3.46c-.77-.35-1-.85-.7-1.3a1.6,1.6,0,0,0,.7.54l7.59,3.46a4.55,4.55,0,0,0,2.24.44,11,11,0,0,0,2.14-.68l4.82-2.22a1.6,1.6,0,0,0,.69-.54C189.47,190.28,189.24,190.79,188.48,191.14Z"/><path class="cls-23" d="M83.15,189a6,6,0,0,0,4.36,0l1.43-.66a1.4,1.4,0,0,0,.46-.31.52.52,0,0,1,.14.49,3.9,3.9,0,0,0-.71.23l-1.37.63a1.14,1.14,0,0,0-.67.62,6.06,6.06,0,0,1-3.65-.23l-6.62-3c-.63-.29-.78-.71-.46-1.07a1.39,1.39,0,0,0,.46.31Z"/><path class="cls-23" d="M203.93,198.18l-5.19,2.39a5.75,5.75,0,0,1-2.06.52,4.94,4.94,0,0,1-2-.49l-8.1-3.7c-.77-.35-1-.85-.7-1.3a1.6,1.6,0,0,0,.7.54l8.1,3.7a4.94,4.94,0,0,0,2,.49,5.75,5.75,0,0,0,2.06-.52l5.19-2.39a1.6,1.6,0,0,0,.69-.54C204.91,197.33,204.69,197.83,203.93,198.18Z"/><path class="cls-23" d="M219.3,205.2l-5.25,2.42a5.51,5.51,0,0,1-4,0L202,204c-.77-.35-1-.85-.7-1.3a1.6,1.6,0,0,0,.7.54l8,3.66a5.51,5.51,0,0,0,4,0l5.25-2.42a1.6,1.6,0,0,0,.69-.54C220.29,204.34,220.07,204.84,219.3,205.2Z"/><path class="cls-23" d="M140.22,175l8.06,3.68a5.51,5.51,0,0,0,4,0l5.25-2.42a1.6,1.6,0,0,0,.69-.54c.29.45.07.95-.69,1.3l-5.25,2.42a5.51,5.51,0,0,1-4,0l-8.06-3.68c-.77-.35-1-.85-.7-1.3A1.6,1.6,0,0,0,140.22,175Z"/><path class="cls-23" d="M173.62,184.36l-5.24,2.41a4.76,4.76,0,0,1-2.15.42,3.8,3.8,0,0,1-1.89-.41l-8.71-4c-.77-.35-1-.85-.7-1.3a1.6,1.6,0,0,0,.7.54l8.71,4a3.8,3.8,0,0,0,1.89.41,4.75,4.75,0,0,0,2.15-.42l5.24-2.41a1.6,1.6,0,0,0,.69-.54C174.61,183.5,174.39,184,173.62,184.36Z"/><path class="cls-23" d="M66,181.15a1.23,1.23,0,0,0,.29.18l6.12,2.79a5.7,5.7,0,0,0,4.16,0l2-.93.17-.1c.26.18.32.4.17.59A4.32,4.32,0,0,0,78,184l-1.43.66a1.17,1.17,0,0,0-.53.43,5.79,5.79,0,0,1-3.6-.19l-6.12-2.79C65.72,181.84,65.63,181.45,66,181.15Z"/><path class="cls-23" d="M122.15,179.79l8.88,4a5.51,5.51,0,0,0,4,0l6.85-3.16a1.6,1.6,0,0,0,.69-.54c.29.45.07.95-.69,1.3L135,184.59a5.51,5.51,0,0,1-4,0l-8.88-4c-.77-.35-1-.85-.7-1.3A1.6,1.6,0,0,0,122.15,179.79Z"/><path class="cls-23" d="M232,190.2l-2.37,1.09a5.51,5.51,0,0,1-4,0l-9.94-4.53c-.77-.35-1-.85-.7-1.3a1.6,1.6,0,0,0,.7.54l9.94,4.53a5.51,5.51,0,0,0,4,0l2.37-1.09a1.6,1.6,0,0,0,.69-.54C233,189.35,232.78,189.85,232,190.2Z"/><path class="cls-23" d="M183,167.87,180.67,169a5.51,5.51,0,0,1-4,0l-10.15-4.63c-.77-.35-1-.85-.7-1.3a1.6,1.6,0,0,0,.7.54l10.15,4.63a5.51,5.51,0,0,0,4,0l2.37-1.09a1.6,1.6,0,0,0,.69-.54C184,167,183.8,167.52,183,167.87Z"/><path class="cls-23" d="M150.25,152.91,147.88,154a5.51,5.51,0,0,1-4,0l-9.21-4.2c-.77-.35-1-.85-.7-1.3a1.6,1.6,0,0,0,.7.54l9.21,4.2a5.51,5.51,0,0,0,4,0l2.37-1.09a1.6,1.6,0,0,0,.69-.54C151.23,152.05,151,152.56,150.25,152.91Z"/><path class="cls-23" d="M165.54,159.89,163.17,161a5.51,5.51,0,0,1-4,0l-7.95-3.63c-.77-.35-1-.85-.7-1.3a1.6,1.6,0,0,0,.7.54l7.95,3.63a5.51,5.51,0,0,0,4,0l2.37-1.09a1.6,1.6,0,0,0,.69-.54C166.53,159,166.31,159.54,165.54,159.89Z"/><path class="cls-23" d="M199,175.14l-2.37,1.09a5.51,5.51,0,0,1-4,0l-8.6-3.92c-.77-.35-1-.85-.7-1.3a1.6,1.6,0,0,0,.7.54l8.6,3.92a5.51,5.51,0,0,0,4,0l2.37-1.09a1.6,1.6,0,0,0,.69-.54C200,174.29,199.75,174.79,199,175.14Z"/><path class="cls-23" d="M214.72,182.32l-2.37,1.09a5.51,5.51,0,0,1-4,0l-8.38-3.82c-.77-.35-1-.85-.7-1.3a1.6,1.6,0,0,0,.7.54l8.38,3.82a5.51,5.51,0,0,0,4,0l2.37-1.09a1.6,1.6,0,0,0,.69-.54C215.71,181.46,215.49,182,214.72,182.32Z"/><path class="cls-23" d="M80.62,173.93l27.64,12.61a3.93,3.93,0,0,0,2,.41,6.05,6.05,0,0,0,2.18-.51l6.75-3.11a1.6,1.6,0,0,0,.69-.54c.29.45.07.95-.69,1.3l-6.75,3.11a6.05,6.05,0,0,1-2.18.51,3.93,3.93,0,0,1-2-.41L80.62,174.69c-.77-.35-1-.85-.7-1.3A1.6,1.6,0,0,0,80.62,173.93Z"/><path class="cls-23" d="M261.12,242.95a1.6,1.6,0,0,0,.7.55l21.58,9.84a6.48,6.48,0,0,0,2.21.52,4.1,4.1,0,0,0,1.94-.45l6.87-3.16a1.6,1.6,0,0,0,.69-.54c.29.45.07.95-.69,1.3l-6.87,3.16a4.1,4.1,0,0,1-1.94.45,6.48,6.48,0,0,1-2.21-.52l-21.58-9.84C261,243.9,260.82,243.4,261.12,242.95Z"/><path class="cls-23" d="M121.67,155l18.71,8.53a5.33,5.33,0,0,0,4-.05l5.39-2.63a1.6,1.6,0,0,0,.69-.57c.28.45.06,1-.69,1.32l-5.39,2.63a5.33,5.33,0,0,1-4,.05l-18.71-8.53c-.77-.35-1-.85-.7-1.3A1.6,1.6,0,0,0,121.67,155Z"/><path class="cls-23" d="M94.89,167.36l3.17,1.45a5.51,5.51,0,0,0,4,0l9.65-4.45a6.74,6.74,0,0,1,3-.94,12.79,12.79,0,0,1,2.49,1.13,7.11,7.11,0,0,0,2.43.59,5.14,5.14,0,0,0,2.1-.65l4.95-2.28a1.6,1.6,0,0,0,.69-.54c.29.45.07.95-.69,1.3l-4.95,2.28a5.14,5.14,0,0,1-2.1.65,7.11,7.11,0,0,1-2.43-.59,12.79,12.79,0,0,0-2.49-1.13,6.74,6.74,0,0,0-3,.94l-9.65,4.45a5.51,5.51,0,0,1-4,0l-3.17-1.45c-.77-.35-1-.85-.7-1.3A1.6,1.6,0,0,0,94.89,167.36Z"/><path class="cls-23" d="M311.69,226.55l-2.37,1.09a5.51,5.51,0,0,1-4,0l-8.6-3.92c-.77-.35-1-.85-.7-1.3a1.6,1.6,0,0,0,.7.54l8.6,3.92a5.51,5.51,0,0,0,4,0l2.37-1.09a1.6,1.6,0,0,0,.69-.54C312.67,225.69,312.45,226.19,311.69,226.55Z"/><path class="cls-23" d="M301.19,236.68a1.6,1.6,0,0,0,.7.54l8.43,3.84a5.51,5.51,0,0,0,4,0l5.63-2.59a1.6,1.6,0,0,0,.69-.54c.29.45.07.95-.69,1.3l-5.63,2.59a5.51,5.51,0,0,1-4,0L301.89,238C301.12,237.63,300.9,237.13,301.19,236.68Z"/><path class="cls-23" d="M295.74,219.27l-2.37,1.09a5.51,5.51,0,0,1-4,0l-8.6-3.92c-.77-.35-1-.85-.7-1.3a1.6,1.6,0,0,0,.7.54l8.6,3.92a5.51,5.51,0,0,0,4,0l2.37-1.09a1.6,1.6,0,0,0,.69-.54C296.72,218.42,296.5,218.92,295.74,219.27Z"/><path class="cls-23" d="M234.77,212.25l-5.25,2.42a5.51,5.51,0,0,1-4,0l-8.11-3.7c-.77-.35-1-.85-.7-1.3a1.6,1.6,0,0,0,.7.54l8.11,3.7a5.51,5.51,0,0,0,4,0l5.25-2.42a1.6,1.6,0,0,0,.69-.54C235.75,211.39,235.53,211.9,234.77,212.25Z"/><path class="cls-23" d="M278.66,237.94a1.6,1.6,0,0,0,.7.54l18.38,8.38a5.51,5.51,0,0,0,4,0l5.25-2.42a1.6,1.6,0,0,0,.69-.54c.29.45.07.95-.69,1.3l-5.25,2.42a5.51,5.51,0,0,1-4,0l-18.38-8.38C278.59,238.89,278.36,238.39,278.66,237.94Z"/><path class="cls-23" d="M247.89,197.45l-2.37,1.09a5.51,5.51,0,0,1-4,0L233,194.66c-.77-.35-1-.85-.7-1.3a1.6,1.6,0,0,0,.7.54l8.53,3.89a5.51,5.51,0,0,0,4,0l2.37-1.09a1.6,1.6,0,0,0,.69-.54C248.88,196.59,248.65,197.09,247.89,197.45Z"/><path class="cls-23" d="M279.79,212l-2.37,1.09a5.51,5.51,0,0,1-4,0l-8.6-3.92c-.77-.35-1-.85-.7-1.3a1.6,1.6,0,0,0,.7.54l8.6,3.92a5.51,5.51,0,0,0,4,0l2.37-1.09a1.6,1.6,0,0,0,.69-.54C280.77,211.14,280.55,211.64,279.79,212Z"/><path class="cls-23" d="M263.84,204.72l-2.37,1.09a5.51,5.51,0,0,1-4,0l-8.6-3.92c-.77-.35-1-.85-.7-1.3a1.6,1.6,0,0,0,.7.54l8.6,3.92a5.51,5.51,0,0,0,4,0l2.37-1.09a1.6,1.6,0,0,0,.69-.54C264.82,203.87,264.6,204.37,263.84,204.72Z"/><path class="cls-23" d="M311.66,230.08s0-.16.18-.39a2.5,2.5,0,0,0,.88.59l10.56,4.82a5.51,5.51,0,0,0,4,0l2.37-1.09a1.6,1.6,0,0,0,.69-.54c.29.45.07.95-.69,1.3l-2.37,1.09a5.51,5.51,0,0,1-4,0L312.72,231C311.62,230.53,311.67,230.09,311.66,230.08Z"/><path class="cls-23" d="M239.12,246.22l8,3.63a5.51,5.51,0,0,0,4,0l6.93-3.19a1.6,1.6,0,0,0,.69-.54c.29.45.07.95-.69,1.3l-6.93,3.19a5.51,5.51,0,0,1-4,0l-8-3.63c-.77-.35-1-.85-.7-1.3A1.6,1.6,0,0,0,239.12,246.22Z"/><path class="cls-23" d="M265.34,237.74l-6.85,3.16a5.51,5.51,0,0,1-4,0l-8-3.65c-.77-.35-1-.85-.7-1.3a1.6,1.6,0,0,0,.7.54l8,3.65a5.51,5.51,0,0,0,4,0l6.85-3.16a1.6,1.6,0,0,0,.69-.54C266.33,236.88,266.1,237.38,265.34,237.74Z"/><path class="cls-23" d="M281.16,233.41l-5.25,2.42a5.51,5.51,0,0,1-4,0l-8.11-3.7c-.77-.35-1-.85-.7-1.3a1.6,1.6,0,0,0,.7.54l8.11,3.7a5.51,5.51,0,0,0,4,0l5.25-2.42a1.6,1.6,0,0,0,.69-.54C282.14,232.55,281.92,233.06,281.16,233.41Z"/><path class="cls-23" d="M223.65,239.17l8.12,3.7a6.16,6.16,0,0,0,2.24.52,5.42,5.42,0,0,0,1.81-.54l6.91-3.18a1.6,1.6,0,0,0,.69-.54c.29.45.07.95-.69,1.3l-6.91,3.18a5.42,5.42,0,0,1-1.81.54,6.16,6.16,0,0,1-2.24-.52l-8.12-3.7c-.77-.35-1-.85-.7-1.3A1.6,1.6,0,0,0,223.65,239.17Z"/><path class="cls-23" d="M286.43,230.17l8.11,3.7a5.51,5.51,0,0,0,4,0l5.63-2.59a1.6,1.6,0,0,0,.69-.54c.29.45.07.95-.69,1.3l-5.63,2.59a5.51,5.51,0,0,1-4,0l-8.11-3.7c-.77-.35-1-.85-.7-1.3A1.6,1.6,0,0,0,286.43,230.17Z"/><path class="cls-23" d="M273.28,218l-5.45,2.62a5.38,5.38,0,0,1-4,0l-8.32-3.79c-.77-.35-1-.85-.7-1.3a1.6,1.6,0,0,0,.7.54l8.32,3.79a5.38,5.38,0,0,0,4,0l5.45-2.62a1.6,1.6,0,0,0,.69-.56C274.25,217.08,274,217.59,273.28,218Z"/><path class="cls-23" d="M281,228.1a5.39,5.39,0,0,1-2-.52l-8.12-3.7c-.77-.35-1-.85-.7-1.3a1.6,1.6,0,0,0,.7.54l8.12,3.7a5.4,5.4,0,0,0,2,.52,6,6,0,0,0,2.08-.54l5.61-2.58a1.6,1.6,0,0,0,.69-.54c.29.45.07.95-.69,1.3l-5.61,2.58A6,6,0,0,1,281,228.1Z"/><path class="cls-23" d="M208.19,232.11l8.11,3.7a5.51,5.51,0,0,0,4,0l6.93-3.19a1.6,1.6,0,0,0,.69-.54c.29.45.07.95-.69,1.3l-6.93,3.19a5.51,5.51,0,0,1-4,0l-8.11-3.7c-.77-.35-1-.85-.7-1.3A1.6,1.6,0,0,0,208.19,232.11Z"/><path class="cls-23" d="M131,196.92l8.06,3.68a5.51,5.51,0,0,0,4,0l6.93-3.19a1.6,1.6,0,0,0,.69-.54c.29.45.07.95-.69,1.3l-6.93,3.19a5.51,5.51,0,0,1-4,0L131,197.68c-.77-.35-1-.85-.7-1.3A1.6,1.6,0,0,0,131,196.92Z"/><path class="cls-23" d="M115.6,189.88l8.09,3.69a5.51,5.51,0,0,0,4,0l6.93-3.19a1.6,1.6,0,0,0,.69-.54c.29.45.07.95-.69,1.3l-6.93,3.19a5.51,5.51,0,0,1-4,0l-8.09-3.69c-.77-.35-1-.85-.7-1.3A1.6,1.6,0,0,0,115.6,189.88Z"/><path class="cls-23" d="M88.94,187l-6.62-3a4.22,4.22,0,0,0-.83-.26.65.65,0,0,1,.08-.64,1.61,1.61,0,0,0,.71.55l6.67,3a4.42,4.42,0,0,0,3.22,0l2-.94a1.67,1.67,0,0,0,.76-.61c.29.47,0,1-.76,1.36l-2,.94a4.47,4.47,0,0,1-2.62.2C89.52,187.39,89.32,187.17,88.94,187Z"/><path class="cls-23" d="M257.8,210.87l-5.63,2.59a5.26,5.26,0,0,1-2,.5,5.14,5.14,0,0,1-2-.49l-8.11-3.7c-.77-.35-1-.85-.7-1.3a1.6,1.6,0,0,0,.7.54l8.11,3.7a5.15,5.15,0,0,0,2,.49,5.27,5.27,0,0,0,2-.5l5.63-2.59a1.6,1.6,0,0,0,.69-.54C258.79,210,258.57,210.52,257.8,210.87Z"/><path class="cls-23" d="M192.81,225.1l8,3.66a5.51,5.51,0,0,0,4,0l6.93-3.19a1.6,1.6,0,0,0,.69-.54c.29.45.07.95-.69,1.3l-6.93,3.19a5.51,5.51,0,0,1-4,0l-8-3.66c-.77-.35-1-.85-.7-1.3A1.6,1.6,0,0,0,192.81,225.1Z"/><path class="cls-23" d="M177.37,218.06l8.09,3.69a5.51,5.51,0,0,0,4,0l6.93-3.19a1.6,1.6,0,0,0,.69-.54c.29.45.07.95-.69,1.3l-6.93,3.19a5.51,5.51,0,0,1-4,0l-8.09-3.69c-.77-.35-1-.85-.7-1.3A1.6,1.6,0,0,0,177.37,218.06Z"/><path class="cls-23" d="M162.51,211.28l7.55,3.44a4,4,0,0,0,2.19.35,6.24,6.24,0,0,0,2.09-.52l6.62-3a1.6,1.6,0,0,0,.69-.54c.29.45.07.95-.69,1.3l-6.62,3a6.24,6.24,0,0,1-2.09.52,4,4,0,0,1-2.19-.35L162.51,212c-.77-.35-1-.85-.7-1.3A1.6,1.6,0,0,0,162.51,211.28Z"/><path class="cls-23" d="M146.45,204l8.71,4a5.51,5.51,0,0,0,4,0l6.93-3.19a1.6,1.6,0,0,0,.69-.54c.29.45.07.95-.69,1.3l-6.93,3.19a5.51,5.51,0,0,1-4,0l-8.71-4c-.77-.35-1-.85-.7-1.3A1.6,1.6,0,0,0,146.45,204Z"/><path class="cls-23" d="M250.23,219.3l-5.11,2.35a4.17,4.17,0,0,1-2,.54,3.71,3.71,0,0,1-2.15-.46L232.84,218c-.77-.35-1-.85-.7-1.3a1.6,1.6,0,0,0,.7.54L241,221a3.71,3.71,0,0,0,2.15.46,4.17,4.17,0,0,0,2-.54l5.11-2.35a1.6,1.6,0,0,0,.69-.54C251.22,218.45,251,219,250.23,219.3Z"/><path class="cls-23" d="M184.71,208.32l8.18,3.73a3.71,3.71,0,0,0,2.15.48,5.2,5.2,0,0,0,2.23-.73l6.41-3a1.6,1.6,0,0,0,.69-.54c.29.45.07.95-.69,1.3l-6.41,3a5.2,5.2,0,0,1-2.23.73,3.71,3.71,0,0,1-2.15-.48l-8.18-3.73c-.77-.35-1-.85-.7-1.3A1.6,1.6,0,0,0,184.71,208.32Z"/><path class="cls-23" d="M169.85,201.55l7.51,3.42a5.51,5.51,0,0,0,4,0l6.85-3.16a1.6,1.6,0,0,0,.69-.54c.29.45.07.95-.69,1.3l-6.85,3.16a5.51,5.51,0,0,1-4,0l-7.51-3.42c-.77-.35-1-.85-.7-1.3A1.6,1.6,0,0,0,169.85,201.55Z"/><path class="cls-23" d="M138.38,187.19l8.06,3.68a5.51,5.51,0,0,0,4,0l6.85-3.16a1.6,1.6,0,0,0,.69-.54c.29.45.07.95-.69,1.3l-6.85,3.16a5.51,5.51,0,0,1-4,0l-8.06-3.68c-.77-.35-1-.85-.7-1.3A1.6,1.6,0,0,0,138.38,187.19Z"/><path class="cls-23" d="M200.15,215.37l8,3.66a5.51,5.51,0,0,0,4,0l6.85-3.16a1.6,1.6,0,0,0,.69-.54c.29.45.07.95-.69,1.3l-6.85,3.16a5.51,5.51,0,0,1-4,0l-8-3.66c-.77-.35-1-.85-.7-1.3A1.6,1.6,0,0,0,200.15,215.37Z"/><path class="cls-23" d="M153.81,194.18l9.06,3.88a5.7,5.7,0,0,0,4-.05l6.46-3a1.6,1.6,0,0,0,.69-.54c.29.45.07.95-.69,1.3l-6.46,3a5.7,5.7,0,0,1-4,.05l-9.06-3.88c-.78-.34-1-.83-.7-1.28A1.6,1.6,0,0,0,153.81,194.18Z"/><path class="cls-23" d="M215.53,222.38l8.11,3.7a5.51,5.51,0,0,0,4,0l6.85-3.16a1.6,1.6,0,0,0,.69-.54c.29.45.07.95-.69,1.3l-6.85,3.16a5.51,5.51,0,0,1-4,0l-8.11-3.7c-.77-.35-1-.85-.7-1.3A1.6,1.6,0,0,0,215.53,222.38Z"/><path class="cls-23" d="M265.69,226.36l-5.25,2.42a5.51,5.51,0,0,1-4,0l-8.11-3.7c-.77-.35-1-.85-.7-1.3a1.6,1.6,0,0,0,.7.54l8.11,3.7a5.51,5.51,0,0,0,4,0l5.25-2.42a1.6,1.6,0,0,0,.69-.54C266.68,225.5,266.46,226,265.69,226.36Z"/><path class="cls-23" d="M231,229.44l8.23,3.75a4.12,4.12,0,0,0,2.21.42,15,15,0,0,0,2.22-.72L250,230a1.6,1.6,0,0,0,.69-.54c.29.45.07.95-.69,1.3l-6.33,2.91a15,15,0,0,1-2.22.72,4.12,4.12,0,0,1-2.21-.42L231,230.19c-.77-.35-1-.85-.7-1.3A1.6,1.6,0,0,0,231,229.44Z"/><path class="cls-23" d="M165.18,168.62l-5.59,2.57-2,.94-2-.91-8.09-3.69c-.77-.35-1-.85-.7-1.3a1.6,1.6,0,0,0,.7.54l8.09,3.69,2,.91,2-.94,5.59-2.57a1.6,1.6,0,0,0,.69-.54C166.17,167.77,165.95,168.27,165.18,168.62Z"/><path class="cls-23" d="M227,196.8l-5.63,2.59a5.51,5.51,0,0,1-4,0l-8.09-3.69c-.77-.35-1-.85-.7-1.3a1.6,1.6,0,0,0,.7.54l8.09,3.69a5.51,5.51,0,0,0,4,0L227,196a1.6,1.6,0,0,0,.69-.54C227.95,195.95,227.73,196.45,227,196.8Z"/><path class="cls-23" d="M105.41,172.16l9.38,4.28a5.51,5.51,0,0,0,4,0l6.85-3.16a1.6,1.6,0,0,0,.69-.54c.29.45.07.95-.69,1.3l-6.85,3.16a5.51,5.51,0,0,1-4,0l-9.38-4.28c-.77-.35-1-.85-.7-1.3A1.6,1.6,0,0,0,105.41,172.16Z"/><path class="cls-23" d="M196.66,183,191,185.57a5.51,5.51,0,0,1-4,0l-8.71-4c-.77-.35-1-.85-.7-1.3a1.6,1.6,0,0,0,.7.54l8.71,4a5.51,5.51,0,0,0,4,0l5.63-2.59a1.6,1.6,0,0,0,.69-.54C197.64,182.12,197.42,182.63,196.66,183Z"/><path class="cls-23" d="M211.52,189.76l-5.63,2.59a5.51,5.51,0,0,1-4,0l-7.51-3.42c-.77-.35-1-.85-.7-1.3a1.6,1.6,0,0,0,.7.54l7.51,3.42a5.51,5.51,0,0,0,4,0l5.63-2.59a1.6,1.6,0,0,0,.69-.54C212.5,188.9,212.28,189.4,211.52,189.76Z"/><path class="cls-23" d="M242.34,203.82l-5.52,2.54a6.44,6.44,0,0,1-2.1.55,4.82,4.82,0,0,1-2-.49l-8-3.67c-.77-.35-1-.85-.7-1.3a1.6,1.6,0,0,0,.7.54l8,3.67a4.82,4.82,0,0,0,2,.48,6.44,6.44,0,0,0,2.1-.55l5.52-2.54a1.6,1.6,0,0,0,.69-.54C243.33,203,243.1,203.46,242.34,203.82Z"/><path class="cls-23" d="M180.6,175.65,175,178.25a5.51,5.51,0,0,1-4,0l-8.06-3.68c-.77-.35-1-.85-.7-1.3a1.6,1.6,0,0,0,.7.54l8.06,3.68a5.51,5.51,0,0,0,4,0l5.63-2.59a1.6,1.6,0,0,0,.69-.54C181.59,174.8,181.36,175.3,180.6,175.65Z"/><path class="cls-23" d="M142.15,170l-5.25,2.42a5.51,5.51,0,0,1-4,0l-8.09-3.69c-.77-.35-1-.85-.7-1.3a1.6,1.6,0,0,0,.7.54l8.09,3.69a5.51,5.51,0,0,0,4,0l5.25-2.42a1.6,1.6,0,0,0,.69-.54C143.14,169.15,142.91,169.65,142.15,170Z"/><g class="cls-24"><path class="cls-15" d="M99.08,191.58c1,.47,1,1.25,0,1.72l-1.19.55a5.63,5.63,0,0,1-4.11,0L87.47,191c-.94-.43-.94-1.13,0-1.56l1.37-.63a5.63,5.63,0,0,1,4.11,0Z"/></g><g class="cls-24"><path class="cls-15" d="M203.51,233c1.11.51,1.11,1.34,0,1.84l-8.6,4a5.51,5.51,0,0,1-4,0l-59.46-27.12c-1.11-.51-1.11-1.34,0-1.84l8.6-4a5.51,5.51,0,0,1,4,0Z"/></g><g class="cls-24"><path class="cls-15" d="M119.88,194.87c1.11.51,1.11,1.34,0,1.84l-8.6,4a5.51,5.51,0,0,1-4,0l-7.16-3.27c-1.11-.51-1.11-1.34,0-1.84l8.6-4a5.51,5.51,0,0,1,4,0Z"/></g><g class="cls-24"><path class="cls-15" d="M220,240.52c1.11.51,1.11,1.34,0,1.84l-8.6,4a5.51,5.51,0,0,1-4,0l-9.1-4.15c-1.11-.51-1.11-1.34,0-1.84l8.6-4a5.51,5.51,0,0,1,4,0Z"/></g><g class="cls-24"><path class="cls-15" d="M136.69,202.55c1.11.5,1.11,1.33,0,1.84l-8.6,4a5.51,5.51,0,0,1-4,0L114.6,204c-1.11-.51-1.11-1.34,0-1.84l8.53-3.93a5.54,5.54,0,0,1,4,0Z"/></g><g class="cls-24"><path class="cls-15" d="M261.16,248.1a5.4,5.4,0,0,1,4,0l15.05,6.87c1.11.51,1.11,1.34,0,1.84L273.3,260a5.51,5.51,0,0,1-4,0l-14.84-6.77c-1.11-.51-1.11-1.34,0-1.86Z"/></g><g class="cls-24"><path class="cls-15" d="M235.17,247.46c1.11.51,1.11,1.34,0,1.84l-8.6,4a5.51,5.51,0,0,1-4,0l-7.86-3.59c-1.11-.51-1.11-1.34,0-1.84l8.6-4a5.51,5.51,0,0,1,4,0Z"/></g><g class="cls-24"><path class="cls-15" d="M249.38,253.95c1.11.51,1.11,1.34,0,1.84l-8.6,4a5.51,5.51,0,0,1-4,0l-6.86-3.13c-1.11-.51-1.11-1.34,0-1.84l8.6-4a5.51,5.51,0,0,1,4,0Z"/></g><g class="cls-24"><path class="cls-15" d="M266,261.5c1.11.51,1.11,1.34,0,1.84l-8.6,4a5.51,5.51,0,0,1-4,0l-9.22-4.21c-1.11-.51-1.11-1.34,0-1.84l8.6-4a5.51,5.51,0,0,1,4,0Z"/></g><g class="cls-24"><path class="cls-15" d="M178.48,184.59a4.16,4.16,0,0,1,2.39.47l7.61,3.47c1.11.51,1.11,1.34,0,1.84l-4.82,2.22a11,11,0,0,1-2.14.68,4.55,4.55,0,0,1-2.24-.44l-7.59-3.46c-1.11-.51-1.11-1.34,0-1.84l4.77-2.2C177.57,184.83,177.7,184.64,178.48,184.59Z"/></g><g class="cls-24"><path class="cls-15" d="M88.94,187c.83.38.83,1,0,1.38l-1.43.66a6,6,0,0,1-4.36,0l-6.62-3c-.83-.38-.83-1,0-1.38L78,184a6,6,0,0,1,4.36,0Z"/></g><g class="cls-24"><path class="cls-15" d="M203.92,195.58c1.11.51,1.11,1.34,0,1.84l-5.19,2.39a5.75,5.75,0,0,1-2.06.52,4.94,4.94,0,0,1-2-.49l-8.1-3.7c-1.11-.51-1.11-1.34,0-1.84l5.25-2.42a5.51,5.51,0,0,1,4,0Z"/></g><g class="cls-24"><path class="cls-15" d="M209.19,198.4a5.18,5.18,0,0,1,2.06.52l8,3.67c1.11.51,1.11,1.34,0,1.84l-5.25,2.42a5.51,5.51,0,0,1-4,0l-8-3.66c-1.11-.51-1.11-1.34,0-1.84l5.07-2.34A8.15,8.15,0,0,1,209.19,198.4Z"/></g><g class="cls-24"><path class="cls-15" d="M140.22,175c-1.11-.51-1.11-1.34,0-1.84l5.25-2.42a5.51,5.51,0,0,1,4,0l8.06,3.68c1.11.51,1.11,1.34,0,1.84l-5.25,2.42a5.51,5.51,0,0,1-4,0Z"/></g><g class="cls-24"><path class="cls-15" d="M162.36,177.31a3.94,3.94,0,0,1,2.41.42l8.84,4c1.11.51,1.11,1.34,0,1.84L168.39,186a4.75,4.75,0,0,1-2.15.42,3.8,3.8,0,0,1-1.89-.41l-8.71-4c-1.11-.51-1.11-1.34,0-1.84l4.67-2.15A8.5,8.5,0,0,1,162.36,177.31Z"/></g><g class="cls-24"><path class="cls-15" d="M76.55,184.12a5.7,5.7,0,0,1-4.16,0l-6.12-2.79c-.67-.31-.67-.81,0-1.12l1.82-.84a5.7,5.7,0,0,1,4.16,0l6.31,2.88c.57.26.57.69,0,.95Z"/></g><g class="cls-24"><path class="cls-15" d="M141.9,178.83c1.11.51,1.11,1.34,0,1.84L135,183.83a5.51,5.51,0,0,1-4,0l-8.88-4c-1.11-.51-1.11-1.34,0-1.84l6.85-3.16a5.51,5.51,0,0,1,4,0Z"/></g><g class="cls-24"><path class="cls-15" d="M215.68,186c-1.11-.51-1.11-1.34,0-1.84l2.37-1.09a5.51,5.51,0,0,1,4,0L232,187.6c1.11.51,1.11,1.34,0,1.84l-2.37,1.09a5.51,5.51,0,0,1-4,0Z"/></g><g class="cls-24"><path class="cls-15" d="M166.5,163.58c-1.11-.51-1.11-1.34,0-1.84l2.37-1.09a5.51,5.51,0,0,1,4,0L183,165.27c1.11.51,1.11,1.34,0,1.84l-2.37,1.09a5.51,5.51,0,0,1-4,0Z"/></g><g class="cls-24"><path class="cls-15" d="M134.64,149.05c-1.11-.51-1.11-1.34,0-1.84l2.37-1.09a5.51,5.51,0,0,1,4,0l9.21,4.2c1.11.51,1.11,1.34,0,1.84l-2.37,1.09a5.51,5.51,0,0,1-4,0Z"/></g><g class="cls-24"><path class="cls-15" d="M151.2,156.61c-1.11-.51-1.11-1.34,0-1.84l2.37-1.09a5.51,5.51,0,0,1,4,0l7.95,3.63c1.11.51,1.11,1.34,0,1.84l-2.37,1.09a5.51,5.51,0,0,1-4,0Z"/></g><g class="cls-24"><path class="cls-15" d="M184,171.56c-1.11-.51-1.11-1.34,0-1.84l2.37-1.09a5.51,5.51,0,0,1,4,0l8.6,3.92c1.11.51,1.11,1.34,0,1.84l-2.37,1.09a5.51,5.51,0,0,1-4,0Z"/></g><g class="cls-24"><path class="cls-15" d="M199.95,178.84c-1.11-.51-1.11-1.34,0-1.84l2.37-1.09a5.51,5.51,0,0,1,4,0l8.38,3.82c1.11.51,1.11,1.34,0,1.84l-2.37,1.09a5.51,5.51,0,0,1-4,0Z"/></g><g class="cls-24"><path class="cls-15" d="M112.45,186.44a6.05,6.05,0,0,1-2.18.51,3.93,3.93,0,0,1-2-.41L80.62,173.93c-1.11-.51-1.11-1.34,0-1.84l6.93-3.19a5.51,5.51,0,0,1,4,0l27.62,12.6c1.11.51,1.11,1.34,0,1.84Z"/></g><g class="cls-24"><path class="cls-15" d="M261.82,243.5c-1.11-.51-1.11-1.34,0-1.85l6.82-3.16a5.49,5.49,0,0,1,4,0l21.77,9.93c1.11.51,1.11,1.34,0,1.84l-6.87,3.16a4.1,4.1,0,0,1-1.94.45,6.48,6.48,0,0,1-2.21-.52Z"/></g><g class="cls-24"><path class="cls-15" d="M144.38,163.5a5.33,5.33,0,0,1-4,.05L121.67,155c-1.11-.51-1.11-1.34,0-1.84l5.63-2.59a5.51,5.51,0,0,1,4,0l18.42,8.4c1.11.51,1.12,1.36,0,1.89Z"/></g><g class="cls-24"><path class="cls-15" d="M121.76,164.49a5.14,5.14,0,0,1-2.1.65,7.11,7.11,0,0,1-2.43-.59,12.8,12.8,0,0,0-2.49-1.13,6.74,6.74,0,0,0-3,.94l-9.65,4.45a5.51,5.51,0,0,1-4,0l-3.17-1.45c-1.11-.51-1.11-1.34,0-1.84l19.44-9a5.51,5.51,0,0,1,4,0l8.36,3.81c1.11.51,1.11,1.34,0,1.84Z"/></g><g class="cls-24"><path class="cls-15" d="M296.69,223c-1.11-.51-1.11-1.34,0-1.84l2.37-1.09a5.51,5.51,0,0,1,4,0l8.6,3.92c1.11.51,1.11,1.34,0,1.84l-2.37,1.09a5.51,5.51,0,0,1-4,0Z"/></g><g class="cls-24"><path class="cls-15" d="M307.52,232.79a5.51,5.51,0,0,1,4,0l8.43,3.84c1.11.51,1.11,1.34,0,1.84l-5.63,2.59a5.51,5.51,0,0,1-4,0l-8.43-3.84c-1.11-.51-1.11-1.34,0-1.84Z"/></g><g class="cls-24"><path class="cls-15" d="M280.74,215.69c-1.11-.51-1.11-1.34,0-1.84l2.37-1.09a5.51,5.51,0,0,1,4,0l8.6,3.92c1.11.51,1.11,1.34,0,1.84l-2.37,1.09a5.51,5.51,0,0,1-4,0Z"/></g><g class="cls-24"><path class="cls-15" d="M234.76,209.65c1.11.51,1.11,1.34,0,1.84l-5.25,2.42a5.51,5.51,0,0,1-4,0l-8.11-3.7c-1.11-.51-1.11-1.34,0-1.84l5.25-2.42a5.51,5.51,0,0,1,4,0Z"/></g><g class="cls-24"><path class="cls-15" d="M284.6,234.22a5.51,5.51,0,0,1,4,0L307,242.6c1.11.51,1.11,1.34,0,1.84l-5.25,2.42a5.51,5.51,0,0,1-4,0l-18.38-8.38c-1.11-.51-1.11-1.34,0-1.84Z"/></g><g class="cls-24"><path class="cls-15" d="M233,193.9c-1.11-.51-1.11-1.34,0-1.84l2.37-1.09a5.51,5.51,0,0,1,4,0l8.53,3.89c1.11.51,1.11,1.34,0,1.84l-2.37,1.09a5.51,5.51,0,0,1-4,0Z"/></g><g class="cls-24"><path class="cls-15" d="M264.79,208.42c-1.11-.51-1.11-1.34,0-1.84l2.37-1.09a5.51,5.51,0,0,1,4,0l8.6,3.92c1.11.51,1.11,1.34,0,1.84l-2.37,1.09a5.51,5.51,0,0,1-4,0Z"/></g><g class="cls-24"><path class="cls-15" d="M248.84,201.14c-1.11-.51-1.11-1.34,0-1.84l2.37-1.09a5.51,5.51,0,0,1,4,0l8.6,3.92c1.11.51,1.11,1.34,0,1.84l-2.37,1.09a5.51,5.51,0,0,1-4,0Z"/></g><g class="cls-24"><path class="cls-15" d="M311.66,229.32s-.09-.43,1-.94l2.34-1.08a5.51,5.51,0,0,1,4,0l10.64,4.85c1.11.51,1.11,1.34,0,1.84l-2.37,1.09a5.51,5.51,0,0,1-4,0l-10.56-4.82C311.62,229.77,311.67,229.33,311.66,229.32Z"/></g><g class="cls-24"><path class="cls-15" d="M247.93,240.62a5.33,5.33,0,0,1,2.1.54l8,3.65c1.11.51,1.11,1.34,0,1.84l-6.93,3.19a5.51,5.51,0,0,1-4,0l-8-3.63c-1.11-.51-1.11-1.34,0-1.84l6.67-3.07A10.57,10.57,0,0,1,247.93,240.62Z"/></g><g class="cls-24"><path class="cls-15" d="M246.46,236.49c-1.11-.51-1.11-1.34,0-1.84l6.85-3.16a5.51,5.51,0,0,1,4,0l8,3.65c1.11.51,1.11,1.34,0,1.84l-6.85,3.16a5.51,5.51,0,0,1-4,0Z"/></g><g class="cls-24"><path class="cls-15" d="M268.64,227.29a10.79,10.79,0,0,1,2.11-.68,4.85,4.85,0,0,1,2.22.47l8.18,3.73c1.11.51,1.11,1.34,0,1.84l-5.25,2.42a5.51,5.51,0,0,1-4,0l-8.11-3.7c-1.11-.51-1.11-1.34,0-1.84Z"/></g><g class="cls-24"><path class="cls-15" d="M242.72,237.82c1.11.51,1.11,1.34,0,1.84l-6.91,3.18a5.42,5.42,0,0,1-1.81.54,6.16,6.16,0,0,1-2.24-.52l-8.12-3.7c-1.11-.51-1.11-1.34,0-1.84l6.93-3.19a5.51,5.51,0,0,1,4,0Z"/></g><g class="cls-24"><path class="cls-15" d="M294,225.22a4.8,4.8,0,0,1,2,.5l8.13,3.71c1.11.51,1.11,1.34,0,1.84l-5.63,2.59a5.51,5.51,0,0,1-4,0l-8.11-3.7c-1.11-.51-1.11-1.34,0-1.84l5.46-2.52A7.51,7.51,0,0,1,294,225.22Z"/></g><g class="cls-24"><path class="cls-15" d="M255.5,216.07c-1.11-.51-1.11-1.34,0-1.84l5.63-2.59a5.51,5.51,0,0,1,4,0l8.11,3.7c1.11.51,1.12,1.35,0,1.88l-5.45,2.62a5.38,5.38,0,0,1-4,0Z"/></g><g class="cls-24"><path class="cls-15" d="M281,227.34a5.39,5.39,0,0,1-2-.52l-8.12-3.7c-1.11-.51-1.11-1.34,0-1.84l5.63-2.59a5.51,5.51,0,0,1,4,0l8.11,3.7c1.11.51,1.11,1.34,0,1.84l-5.61,2.58A6,6,0,0,1,281,227.34Z"/></g><g class="cls-24"><path class="cls-15" d="M227.25,230.77c1.11.51,1.11,1.34,0,1.84l-6.93,3.19a5.51,5.51,0,0,1-4,0l-8.11-3.7c-1.11-.51-1.11-1.34,0-1.84l6.93-3.19a5.51,5.51,0,0,1,4,0Z"/></g><g class="cls-24"><path class="cls-15" d="M150,195.56c1.11.51,1.11,1.34,0,1.84l-6.93,3.19a5.51,5.51,0,0,1-4,0L131,196.92c-1.11-.51-1.11-1.34,0-1.84l6.93-3.19a5.51,5.51,0,0,1,4,0Z"/></g><g class="cls-24"><path class="cls-15" d="M134.63,188.53c1.11.51,1.11,1.34,0,1.84l-6.93,3.19a5.51,5.51,0,0,1-4,0l-8.09-3.69c-1.11-.51-1.11-1.34,0-1.84l6.93-3.19a5.51,5.51,0,0,1,4,0Z"/></g><g class="cls-24"><path class="cls-15" d="M94.19,183.76c1.18.54,1.19,1.43,0,2l-2,.94a4.42,4.42,0,0,1-3.22,0l-6.67-3c-1.12-.51-1.12-1.35,0-1.86L85,180.49a2.72,2.72,0,0,1,2,0Z"/></g><g class="cls-24"><path class="cls-15" d="M250.14,213.21a5.14,5.14,0,0,1-2-.49L240,209c-1.11-.51-1.11-1.34,0-1.84l5.63-2.59a5.51,5.51,0,0,1,4,0l8.11,3.7c1.11.51,1.11,1.34,0,1.84l-5.63,2.59A5.27,5.27,0,0,1,250.14,213.21Z"/></g><g class="cls-24"><path class="cls-15" d="M211.79,223.72c1.11.51,1.11,1.34,0,1.84l-6.93,3.19a5.51,5.51,0,0,1-4,0l-8-3.66c-1.11-.51-1.11-1.34,0-1.84l6.93-3.19a5.51,5.51,0,0,1,4,0Z"/></g><g class="cls-24"><path class="cls-15" d="M196.41,216.7c1.11.51,1.11,1.34,0,1.84l-6.93,3.19a5.51,5.51,0,0,1-4,0l-8.09-3.69c-1.11-.51-1.11-1.34,0-1.84l6.93-3.19a5.51,5.51,0,0,1,4,0Z"/></g><g class="cls-24"><path class="cls-15" d="M171.49,205.74a4.88,4.88,0,0,1,2,.49l7.52,3.43c1.11.51,1.11,1.34,0,1.84l-6.62,3a6.23,6.23,0,0,1-2.09.52,4,4,0,0,1-2.19-.35l-7.55-3.44c-1.11-.51-1.11-1.34,0-1.84l6.87-3.16A6.11,6.11,0,0,1,171.49,205.74Z"/></g><g class="cls-24"><path class="cls-15" d="M155.38,198.47a4.07,4.07,0,0,1,2,.43l8.73,4c1.11.51,1.11,1.34,0,1.84l-6.93,3.19a5.51,5.51,0,0,1-4,0l-8.71-4c-1.11-.51-1.11-1.34,0-1.84L153.2,199A6.3,6.3,0,0,1,155.38,198.47Z"/></g><g class="cls-24"><path class="cls-15" d="M240,212.45a5.75,5.75,0,0,1,2.12.55l8.13,3.71c1.11.51,1.11,1.34,0,1.84l-5.11,2.35a4.17,4.17,0,0,1-2,.54A3.71,3.71,0,0,1,241,221l-8.13-3.71c-1.11-.51-1.11-1.34,0-1.84l5.09-2.34A8.56,8.56,0,0,1,240,212.45Z"/></g><g class="cls-24"><path class="cls-15" d="M195,212.54a3.71,3.71,0,0,1-2.15-.48l-8.18-3.73c-1.11-.51-1.11-1.34,0-1.84l6.85-3.16a5.51,5.51,0,0,1,4,0l8.09,3.69c1.11.51,1.11,1.34,0,1.84l-6.41,3A5.2,5.2,0,0,1,195,212.54Z"/></g><g class="cls-24"><path class="cls-15" d="M169.85,201.55c-1.11-.51-1.11-1.34,0-1.84l6.85-3.16a5.51,5.51,0,0,1,4,0l7.51,3.42c1.11.51,1.11,1.34,0,1.84L181.38,205a5.51,5.51,0,0,1-4,0Z"/></g><g class="cls-24"><path class="cls-15" d="M138.38,187.19c-1.11-.51-1.11-1.34,0-1.84l6.85-3.16a5.51,5.51,0,0,1,4,0l8.06,3.68c1.11.51,1.11,1.34,0,1.84l-6.85,3.16a5.51,5.51,0,0,1-4,0Z"/></g><g class="cls-24"><path class="cls-15" d="M200.15,215.37c-1.11-.51-1.11-1.34,0-1.84l6.85-3.16a5.51,5.51,0,0,1,4,0l8,3.66c1.11.51,1.11,1.34,0,1.84L212.2,219a5.51,5.51,0,0,1-4,0Z"/></g><g class="cls-24"><path class="cls-15" d="M153.81,194.18c-1.12-.48-1.13-1.29,0-1.8l6.85-3.16a5.51,5.51,0,0,1,4,0l8.71,4c1.11.51,1.11,1.34,0,1.84l-6.46,3a5.7,5.7,0,0,1-4,.05Z"/></g><g class="cls-24"><path class="cls-15" d="M215.53,222.38c-1.11-.51-1.11-1.34,0-1.84l6.08-2.8a7.2,7.2,0,0,1,2.25-.86,3.73,3.73,0,0,1,2.32.4l8.34,3.8c1.11.51,1.11,1.34,0,1.84l-6.85,3.16a5.51,5.51,0,0,1-4,0Z"/></g><g class="cls-24"><path class="cls-15" d="M265.69,223.75c1.11.51,1.11,1.34,0,1.84L260.44,228a5.51,5.51,0,0,1-4,0l-8.11-3.7c-1.11-.51-1.11-1.34,0-1.84l5.25-2.42a5.51,5.51,0,0,1,4,0Z"/></g><g class="cls-24"><path class="cls-15" d="M241.43,233.61a4.12,4.12,0,0,1-2.21-.42L231,229.44c-1.11-.51-1.11-1.34,0-1.84l6.85-3.16a5.51,5.51,0,0,1,4,0l8.11,3.7c1.11.51,1.11,1.34,0,1.84l-6.33,2.91A15,15,0,0,1,241.43,233.61Z"/></g><g class="cls-24"><path class="cls-15" d="M157.56,171.38l-2-.91-8.09-3.69c-1.11-.51-1.11-1.34,0-1.84l5.63-2.59a5.51,5.51,0,0,1,4,0l8.09,3.69c1.11.51,1.11,1.34,0,1.84l-5.59,2.57Z"/></g><g class="cls-24"><path class="cls-15" d="M209.21,195c-1.11-.51-1.11-1.34,0-1.84l5.63-2.59a5.51,5.51,0,0,1,4,0L227,194.2c1.11.51,1.11,1.34,0,1.84l-5.63,2.59a5.51,5.51,0,0,1-4,0Z"/></g><g class="cls-24"><path class="cls-15" d="M118.82,176.43a5.51,5.51,0,0,1-4,0l-9.38-4.28c-1.11-.51-1.11-1.34,0-1.84l6.85-3.16a5.51,5.51,0,0,1,4,0l9.38,4.28c1.11.51,1.11,1.34,0,1.84Z"/></g><g class="cls-24"><path class="cls-15" d="M178.3,180.85c-1.11-.51-1.11-1.34,0-1.84l5.26-2.42a9.94,9.94,0,0,1,2.13-.66,4.65,4.65,0,0,1,2.21.45l8.77,4c1.11.51,1.11,1.34,0,1.84L191,184.82a5.51,5.51,0,0,1-4,0Z"/></g><g class="cls-24"><path class="cls-15" d="M194.35,188.18c-1.11-.51-1.11-1.34,0-1.84l5.36-2.47a7.79,7.79,0,0,1,2-.61,5,5,0,0,1,2.25.46l7.54,3.44c1.11.51,1.11,1.34,0,1.84l-5.63,2.59a5.51,5.51,0,0,1-4,0Z"/></g><g class="cls-24"><path class="cls-15" d="M234.72,206.15a4.81,4.81,0,0,1-2-.49l-8-3.67c-1.11-.51-1.11-1.34,0-1.84l5.63-2.59a5.51,5.51,0,0,1,4,0l8,3.66c1.11.51,1.11,1.34,0,1.84l-5.52,2.54A6.44,6.44,0,0,1,234.72,206.15Z"/></g><g class="cls-24"><path class="cls-15" d="M162.88,173.82c-1.11-.51-1.11-1.34,0-1.84l5.63-2.59a5.51,5.51,0,0,1,4,0l8.06,3.68c1.11.51,1.11,1.34,0,1.84L175,177.49a5.51,5.51,0,0,1-4,0Z"/></g><g class="cls-24"><path class="cls-15" d="M124.79,168c-1.11-.51-1.11-1.34,0-1.84l5.25-2.42a5.51,5.51,0,0,1,4,0l8.09,3.69c1.11.51,1.11,1.34,0,1.84l-5.25,2.42a5.51,5.51,0,0,1-4,0Z"/></g><g class="cls-25"><path class="cls-26" d="M255.69,259.62l3.33,1.52a.35.35,0,0,1,0,.64l-1.47.68a.35.35,0,0,1-.29,0l-3.33-1.52a.35.35,0,0,1,0-.64l1.47-.68A.35.35,0,0,1,255.69,259.62Z"/><path class="cls-26" d="M129.89,153.19l3.33,1.52a.35.35,0,0,1,0,.64l-1.48.68a.35.35,0,0,1-.29,0l-3.33-1.52a.35.35,0,0,1,0-.64l1.47-.68A.35.35,0,0,1,129.89,153.19Z"/><path class="cls-26" d="M117.53,159.65l3.33,1.52a.35.35,0,0,1,0,.64l-1.47.68a.35.35,0,0,1-.29,0L115.76,161a.35.35,0,0,1,0-.64l1.47-.68A.35.35,0,0,1,117.53,159.65Z"/><path class="cls-26" d="M282.25,247.82l3.33,1.52a.35.35,0,0,1,0,.64l-1.48.68a.35.35,0,0,1-.29,0l-3.33-1.52a.35.35,0,0,1,0-.64l1.48-.68A.35.35,0,0,1,282.25,247.82Z"/><path class="cls-26" d="M295.39,241.73l3.33,1.52a.35.35,0,0,1,0,.64l-1.47.68a.35.35,0,0,1-.29,0l-3.33-1.52a.35.35,0,0,1,0-.64l1.47-.68A.35.35,0,0,1,295.39,241.73Z"/><path class="cls-26" d="M319.19,229.37l3.33,1.52a.35.35,0,0,1,0,.64l-1.47.68a.35.35,0,0,1-.29,0l-3.33-1.52a.35.35,0,0,1,0-.64l1.48-.68A.35.35,0,0,1,319.19,229.37Z"/><path class="cls-26" d="M302.77,221.81l3.33,1.52a.35.35,0,0,1,0,.64l-1.48.68a.35.35,0,0,1-.29,0L301,223.13a.35.35,0,0,1,0-.64l1.47-.68A.35.35,0,0,1,302.77,221.81Z"/><path class="cls-26" d="M286.35,214.25l3.33,1.52a.35.35,0,0,1,0,.64l-1.47.68a.35.35,0,0,1-.29,0l-3.33-1.52a.35.35,0,0,1,0-.64l1.47-.68A.35.35,0,0,1,286.35,214.25Z"/><path class="cls-26" d="M271.41,207.05l3.33,1.52a.35.35,0,0,1,0,.64l-1.47.68a.35.35,0,0,1-.29,0l-3.33-1.52a.35.35,0,0,1,0-.64l1.47-.68A.35.35,0,0,1,271.41,207.05Z"/><path class="cls-26" d="M255.18,199.67l3.33,1.52a.35.35,0,0,1,0,.64l-1.47.68a.35.35,0,0,1-.29,0L253.41,201a.35.35,0,0,1,0-.64l1.47-.68A.35.35,0,0,1,255.18,199.67Z"/><path class="cls-26" d="M239.13,192.67l3.33,1.52a.35.35,0,0,1,0,.64l-1.47.68a.35.35,0,0,1-.29,0L237.36,194a.35.35,0,0,1,0-.64l1.47-.68A.35.35,0,0,1,239.13,192.67Z"/><path class="cls-26" d="M222.9,185.29l3.33,1.52a.35.35,0,0,1,0,.64l-1.47.68a.35.35,0,0,1-.29,0l-3.33-1.52a.35.35,0,0,1,0-.64l1.47-.68A.35.35,0,0,1,222.9,185.29Z"/><path class="cls-26" d="M206.85,177.72l3.33,1.52a.35.35,0,0,1,0,.64l-1.47.68a.35.35,0,0,1-.29,0L205.08,179a.35.35,0,0,1,0-.64l1.47-.68A.35.35,0,0,1,206.85,177.72Z"/><path class="cls-26" d="M191.17,170.71l3.33,1.52a.35.35,0,0,1,0,.64l-1.47.68a.35.35,0,0,1-.29,0L189.4,172a.35.35,0,0,1,0-.64l1.47-.68A.35.35,0,0,1,191.17,170.71Z"/><path class="cls-26" d="M174,163l3.33,1.52a.35.35,0,0,1,0,.64l-1.47.68a.35.35,0,0,1-.29,0l-3.33-1.52a.35.35,0,0,1,0-.64l1.48-.68A.35.35,0,0,1,174,163Z"/><path class="cls-26" d="M157.6,155.4l3.33,1.52a.35.35,0,0,1,0,.64l-1.48.68a.35.35,0,0,1-.29,0l-3.33-1.52a.35.35,0,0,1,0-.64l1.47-.68A.35.35,0,0,1,157.6,155.4Z"/><path class="cls-26" d="M141.55,148l3.33,1.52a.35.35,0,0,1,0,.64l-1.47.68a.35.35,0,0,1-.29,0l-3.33-1.52a.35.35,0,0,1,0-.64l1.47-.68A.35.35,0,0,1,141.55,148Z"/><path class="cls-26" d="M267.59,254.09l3.33,1.52a.35.35,0,0,1,0,.64l-1.48.68a.35.35,0,0,1-.29,0l-3.33-1.52a.35.35,0,0,1,0-.64l1.47-.68A.35.35,0,0,1,267.59,254.09Z"/><path class="cls-27" d="M240.89,256.09c.28.13.28.34,0,.47l-1.75.81a1.38,1.38,0,0,1-.46.14,1.56,1.56,0,0,1-.57-.13l-2.06-.94c-.28-.13-.28-.34,0-.47l1.76-.81a1.4,1.4,0,0,1,1,0Z"/><path class="cls-27" d="M225.77,249.26c.28.13.28.34,0,.47l-1.75.81a1.38,1.38,0,0,1-.46.14,1.57,1.57,0,0,1-.57-.13l-2.06-.94c-.28-.13-.28-.34,0-.47l1.76-.81a1.4,1.4,0,0,1,1,0Z"/><path class="cls-27" d="M210.46,241.88c.28.13.28.34,0,.47l-1.75.81a1.38,1.38,0,0,1-.46.14,1.56,1.56,0,0,1-.57-.13l-2.06-.94c-.28-.13-.28-.34,0-.47l1.76-.81a1.4,1.4,0,0,1,1,0Z"/><path class="cls-27" d="M126.71,204.07c.28.13.28.34,0,.47l-1.75.81a1.37,1.37,0,0,1-.46.14,1.56,1.56,0,0,1-.57-.13l-2.06-.94c-.28-.13-.28-.34,0-.47l1.76-.81a1.4,1.4,0,0,1,1,0Z"/><path class="cls-27" d="M111.08,196.74c.28.13.28.34,0,.47l-1.75.81a1.38,1.38,0,0,1-.46.14,1.56,1.56,0,0,1-.57-.13l-2.06-.94c-.28-.13-.28-.34,0-.47l1.76-.81a1.4,1.4,0,0,1,1,0Z"/><path class="cls-27" d="M90.28,173c.28.13.28.34,0,.47l-1.75.81a1.38,1.38,0,0,1-.46.14,1.57,1.57,0,0,1-.57-.13l-2.06-.94c-.28-.13-.28-.34,0-.47l1.76-.81a1.4,1.4,0,0,1,1,0Z"/><path class="cls-27" d="M189.09,217.15c.23.1.23.28,0,.38l-1.42.66a1.1,1.1,0,0,1-.37.11,1.25,1.25,0,0,1-.46-.11l-1.67-.76c-.23-.1-.23-.28,0-.38l1.43-.66a1.14,1.14,0,0,1,.83,0Z"/><path class="cls-27" d="M250.7,245.19c.23.1.23.28,0,.38l-1.42.66a1.1,1.1,0,0,1-.37.11,1.25,1.25,0,0,1-.46-.11l-1.67-.76c-.23-.1-.23-.28,0-.38l1.43-.66a1.14,1.14,0,0,1,.83,0Z"/><path class="cls-27" d="M235.21,238.18c.23.1.23.28,0,.38l-1.42.66a1.12,1.12,0,0,1-.37.11,1.27,1.27,0,0,1-.46-.11l-1.67-.76c-.23-.1-.23-.28,0-.38l1.43-.66a1.14,1.14,0,0,1,.83,0Z"/><path class="cls-27" d="M219.71,231.17c.23.1.23.28,0,.38l-1.42.66a1.12,1.12,0,0,1-.37.11,1.27,1.27,0,0,1-.46-.11l-1.67-.76c-.23-.1-.23-.28,0-.38l1.43-.66a1.14,1.14,0,0,1,.83,0Z"/><path class="cls-27" d="M204.22,224.16c.23.1.23.28,0,.38l-1.42.66a1.12,1.12,0,0,1-.37.11,1.29,1.29,0,0,1-.46-.11l-1.67-.76c-.23-.1-.23-.28,0-.38l1.43-.66a1.14,1.14,0,0,1,.83,0Z"/><path class="cls-27" d="M173.23,210.14c.23.1.23.28,0,.38l-1.42.66a1.12,1.12,0,0,1-.37.11,1.27,1.27,0,0,1-.46-.11l-1.67-.76c-.23-.1-.23-.28,0-.38l1.43-.66a1.14,1.14,0,0,1,.83,0Z"/><path class="cls-27" d="M157.74,203.13c.23.1.23.28,0,.38l-1.42.66a1.12,1.12,0,0,1-.37.11,1.27,1.27,0,0,1-.46-.11l-1.67-.76c-.23-.1-.23-.28,0-.38l1.43-.66a1.14,1.14,0,0,1,.83,0Z"/><path class="cls-27" d="M142.24,196.12c.23.1.23.28,0,.38l-1.42.66a1.12,1.12,0,0,1-.37.11,1.27,1.27,0,0,1-.46-.11l-1.67-.76c-.23-.1-.23-.28,0-.38l1.43-.66a1.14,1.14,0,0,1,.83,0Z"/><path class="cls-27" d="M126.75,189.11c.23.1.23.28,0,.38l-1.42.66a1.12,1.12,0,0,1-.37.11,1.27,1.27,0,0,1-.46-.11l-1.67-.76c-.23-.1-.23-.28,0-.38l1.43-.66a1.14,1.14,0,0,1,.83,0Z"/><path class="cls-27" d="M195.92,207.37c.23.1.23.28,0,.38l-1.42.66a1.12,1.12,0,0,1-.37.11,1.27,1.27,0,0,1-.46-.11l-1.67-.76c-.23-.1-.23-.28,0-.38l1.43-.66a1.14,1.14,0,0,1,.83,0Z"/><path class="cls-27" d="M257.53,235.41c.23.1.23.28,0,.38l-1.42.66a1.1,1.1,0,0,1-.37.11,1.25,1.25,0,0,1-.46-.11l-1.67-.76c-.23-.1-.23-.28,0-.38l1.43-.66a1.14,1.14,0,0,1,.83,0Z"/><path class="cls-27" d="M242,228.4c.23.1.23.28,0,.38l-1.42.66a1.12,1.12,0,0,1-.37.11,1.27,1.27,0,0,1-.46-.11l-1.67-.76c-.23-.1-.23-.28,0-.38l1.43-.66a1.14,1.14,0,0,1,.83,0Z"/><path class="cls-27" d="M226.54,221.39c.23.1.23.28,0,.38l-1.42.66a1.12,1.12,0,0,1-.37.11,1.27,1.27,0,0,1-.46-.11l-1.67-.76c-.23-.1-.23-.28,0-.38l1.43-.66a1.14,1.14,0,0,1,.83,0Z"/><path class="cls-27" d="M211,214.38c.23.1.23.28,0,.38l-1.42.66a1.1,1.1,0,0,1-.37.11,1.25,1.25,0,0,1-.46-.11l-1.67-.76c-.23-.1-.23-.28,0-.38l1.43-.66a1.14,1.14,0,0,1,.83,0Z"/><path class="cls-27" d="M180.06,200.36c.23.1.23.28,0,.38l-1.42.66a1.12,1.12,0,0,1-.37.11,1.27,1.27,0,0,1-.46-.11l-1.67-.76c-.23-.1-.23-.28,0-.38l1.43-.66a1.14,1.14,0,0,1,.83,0Z"/><path class="cls-27" d="M164.56,193.35c.23.1.23.28,0,.38l-1.42.66a1.12,1.12,0,0,1-.37.11,1.29,1.29,0,0,1-.46-.11l-1.67-.76c-.23-.1-.23-.28,0-.38l1.43-.66a1.14,1.14,0,0,1,.83,0Z"/><path class="cls-27" d="M149.07,186.34c.23.1.23.28,0,.38l-1.42.66a1.1,1.1,0,0,1-.37.11,1.25,1.25,0,0,1-.46-.11l-1.67-.76c-.23-.1-.23-.28,0-.38l1.43-.66a1.14,1.14,0,0,1,.83,0Z"/><path class="cls-27" d="M133.57,179.33c.23.1.23.28,0,.38l-1.42.66a1.12,1.12,0,0,1-.37.11,1.27,1.27,0,0,1-.46-.11l-1.67-.76c-.23-.1-.23-.28,0-.38l1.43-.66a1.14,1.14,0,0,1,.83,0Z"/><path class="cls-27" d="M117,171.77c.23.1.23.28,0,.38l-1.42.66a1.12,1.12,0,0,1-.37.11,1.27,1.27,0,0,1-.46-.11L113,172c-.23-.1-.23-.28,0-.38l1.43-.66a1.14,1.14,0,0,1,.83,0Z"/><path class="cls-27" d="M212.52,202.76c.23.1.23.28,0,.38l-1.42.66a1.12,1.12,0,0,1-.37.11,1.27,1.27,0,0,1-.46-.11l-1.67-.76c-.23-.1-.23-.28,0-.38L210,202a1.14,1.14,0,0,1,.83,0Z"/><path class="cls-27" d="M274.13,230.8c.23.1.23.28,0,.38l-1.42.66a1.12,1.12,0,0,1-.37.11,1.27,1.27,0,0,1-.46-.11l-1.67-.76c-.23-.1-.23-.28,0-.38l1.43-.66a1.14,1.14,0,0,1,.83,0Z"/><path class="cls-27" d="M258.64,223.79c.23.1.23.28,0,.38l-1.42.66a1.12,1.12,0,0,1-.37.11,1.29,1.29,0,0,1-.46-.11l-1.67-.76c-.23-.1-.23-.28,0-.38l1.43-.66a1.14,1.14,0,0,1,.83,0Z"/><path class="cls-27" d="M243.14,216.78c.23.1.23.28,0,.38l-1.42.66a1.1,1.1,0,0,1-.37.11,1.25,1.25,0,0,1-.46-.11l-1.67-.76c-.23-.1-.23-.28,0-.38l1.43-.66a1.14,1.14,0,0,1,.83,0Z"/><path class="cls-27" d="M227.65,209.77c.23.1.23.28,0,.38l-1.42.66a1.12,1.12,0,0,1-.37.11,1.27,1.27,0,0,1-.46-.11l-1.67-.76c-.23-.1-.23-.28,0-.38l1.43-.66a1.14,1.14,0,0,1,.83,0Z"/><path class="cls-27" d="M196.66,195.75c.23.1.23.28,0,.38l-1.42.66a1.12,1.12,0,0,1-.37.11,1.27,1.27,0,0,1-.46-.11l-1.67-.76c-.23-.1-.23-.28,0-.38l1.43-.66a1.14,1.14,0,0,1,.83,0Z"/><path class="cls-27" d="M181.16,188.74c.23.1.23.28,0,.38l-1.42.66a1.12,1.12,0,0,1-.37.11,1.27,1.27,0,0,1-.46-.11l-1.67-.76c-.23-.1-.23-.28,0-.38l1.43-.66a1.14,1.14,0,0,1,.83,0Z"/><path class="cls-27" d="M165.67,181.73c.23.1.23.28,0,.38l-1.42.66a1.12,1.12,0,0,1-.37.11,1.27,1.27,0,0,1-.46-.11l-1.67-.76c-.23-.1-.23-.28,0-.38l1.43-.66a1.14,1.14,0,0,1,.83,0Z"/><path class="cls-27" d="M150.17,174.72c.23.1.23.28,0,.38l-1.42.66a1.1,1.1,0,0,1-.37.11,1.25,1.25,0,0,1-.46-.11l-1.67-.76c-.23-.1-.23-.28,0-.38l1.43-.66a1.14,1.14,0,0,1,.83,0Z"/><path class="cls-27" d="M135.38,167.51c.23.1.23.28,0,.38l-1.42.66a1.12,1.12,0,0,1-.37.11,1.27,1.27,0,0,1-.46-.11l-1.67-.76c-.23-.1-.23-.28,0-.38l1.43-.66a1.14,1.14,0,0,1,.83,0Z"/><path class="cls-27" d="M251.26,208.66c.23.1.23.28,0,.38l-1.42.66a1.12,1.12,0,0,1-.37.11,1.27,1.27,0,0,1-.46-.11l-1.67-.76c-.23-.1-.23-.28,0-.38l1.43-.66a1.14,1.14,0,0,1,.83,0Z"/><path class="cls-27" d="M312.87,236.7c.23.1.23.28,0,.38l-1.42.66a1.12,1.12,0,0,1-.37.11,1.27,1.27,0,0,1-.46-.11l-1.67-.76c-.23-.1-.23-.28,0-.38l1.43-.66a1.14,1.14,0,0,1,.83,0Z"/><path class="cls-27" d="M297.37,229.69c.23.1.23.28,0,.38l-1.42.66a1.12,1.12,0,0,1-.37.11,1.27,1.27,0,0,1-.46-.11l-1.67-.76c-.23-.1-.23-.28,0-.38l1.43-.66a1.14,1.14,0,0,1,.83,0Z"/><path class="cls-27" d="M281.88,222.68c.23.1.23.28,0,.38l-1.42.66a1.12,1.12,0,0,1-.37.11,1.27,1.27,0,0,1-.46-.11l-1.67-.76c-.23-.1-.23-.28,0-.38l1.43-.66a1.14,1.14,0,0,1,.83,0Z"/><path class="cls-27" d="M266.38,215.67c.23.1.23.28,0,.38l-1.42.66a1.12,1.12,0,0,1-.37.11,1.27,1.27,0,0,1-.46-.11l-1.67-.76c-.23-.1-.23-.28,0-.38l1.43-.66a1.14,1.14,0,0,1,.83,0Z"/><path class="cls-27" d="M235.39,201.65c.23.1.23.28,0,.38l-1.42.66a1.12,1.12,0,0,1-.37.11,1.29,1.29,0,0,1-.46-.11l-1.67-.76c-.23-.1-.23-.28,0-.38l1.43-.66a1.14,1.14,0,0,1,.83,0Z"/><path class="cls-27" d="M219.9,194.65c.23.1.23.28,0,.38l-1.42.66a1.1,1.1,0,0,1-.37.11,1.25,1.25,0,0,1-.46-.11l-1.67-.76c-.23-.1-.23-.28,0-.38l1.43-.66a1.14,1.14,0,0,1,.83,0Z"/><path class="cls-27" d="M204.4,187.64c.23.1.23.28,0,.38l-1.42.66a1.12,1.12,0,0,1-.37.11,1.27,1.27,0,0,1-.46-.11l-1.67-.76c-.23-.1-.23-.28,0-.38l1.43-.66a1.14,1.14,0,0,1,.83,0Z"/><path class="cls-27" d="M188.91,180.63c.23.1.23.28,0,.38l-1.42.66a1.12,1.12,0,0,1-.37.11,1.27,1.27,0,0,1-.46-.11L185,180.9c-.23-.1-.23-.28,0-.38l1.43-.66a1.14,1.14,0,0,1,.83,0Z"/><path class="cls-27" d="M174.11,173.41c.23.1.23.28,0,.38l-1.42.66a1.12,1.12,0,0,1-.37.11,1.27,1.27,0,0,1-.46-.11l-1.67-.76c-.23-.1-.23-.28,0-.38l1.43-.66a1.14,1.14,0,0,1,.83,0Z"/><path class="cls-27" d="M158.44,166.22c.23.1.23.28,0,.38l-1.42.66a1.12,1.12,0,0,1-.37.11,1.27,1.27,0,0,1-.46-.11l-1.67-.76c-.23-.1-.23-.28,0-.38l1.43-.66a1.14,1.14,0,0,1,.83,0Z"/><path class="cls-27" d="M88.5,182.93l-1.42.5a.15.15,0,0,0,0,.28l1.18.53a.15.15,0,0,0,.21-.1l.24-1A.15.15,0,0,0,88.5,182.93Z"/><path class="cls-27" d="M84,186.27l-1-.55a.15.15,0,0,0-.2.07l-.43.93a.15.15,0,0,0,.17.2l1.41-.38A.15.15,0,0,0,84,186.27Z"/><path class="cls-27" d="M93.71,191a.28.28,0,0,0-.39-.08l-.67.43c-.13.08-.11.18,0,.21l1.36.3c.15,0,.2,0,.12-.17Z"/><path class="cls-27" d="M73.31,181.55c.15,0,.17.11,0,.19l-.67.43a.33.33,0,0,1-.41-.06l-.54-.65c-.1-.12-.06-.19.1-.17Z"/></g></g></g></svg>