<svg xmlns="http://www.w3.org/2000/svg" viewBox="0 0 69.5 69.5"><defs><style>.cls-1{fill:#595ebd;}.cls-2{fill:#fff;}</style></defs><title>Asset 3</title><g id="Layer_2" data-name="Layer 2"><g id="Layer_1-2" data-name="Layer 1"><circle class="cls-1" cx="34.75" cy="34.75" r="34.75"/><path class="cls-2" d="M49.11,41a30.51,30.51,0,0,0-7.72-1.87A50.79,50.79,0,0,0,41.66,34a51,51,0,0,0-.26-5.19,30.18,30.18,0,0,0,7.71-1.88,16,16,0,0,1,0,14.12ZM34.18,18h1.15c1.14.77,2.62,3.71,3.4,8.66a50.93,50.93,0,0,1-8,0C31.56,21.67,33,18.75,34.18,18ZM30.24,34c0-1.81.08-3.47.23-5,1.45.13,3,.19,4.51.19,1.35,0,2.7-.05,4-.16.15,1.51.23,3.15.23,4.95s-.08,3.44-.23,4.94c-1.3-.11-2.65-.16-4-.16-1.55,0-3.06.06-4.51.19C30.33,37.45,30.24,35.78,30.24,34Zm17.63-9.14a28.71,28.71,0,0,1-6.77,1.58,25.12,25.12,0,0,0-2.36-7.93A16,16,0,0,1,47.87,24.83ZM30.76,18.48a25,25,0,0,0-2.36,7.87,27.46,27.46,0,0,1-6.67-1.67A16,16,0,0,1,30.76,18.48Zm16.08,30A18.63,18.63,0,0,0,53.75,34,19,19,0,0,0,16,30.62a18.8,18.8,0,0,0-.3,3.36c0,10.48,5.57,18.7,16.32,21.8v4.74l15.84-9.15L32.07,42.23v4.49c-8.67,0-13.29-7-13.29-13.7a15.67,15.67,0,0,1,.32-2.39,15.51,15.51,0,0,1,1.38-3.86,28.73,28.73,0,0,0,7.63,2,52.25,52.25,0,0,0,0,10.49,34,34,0,0,0-5,1l.25.32a8.76,8.76,0,0,0,.77.91l.06.05.05.07a6.5,6.5,0,0,0,.68.64,35.05,35.05,0,0,1,3.5-.65c.17,1.07.37,2.09.6,3.06h0a4.66,4.66,0,0,0,1,.23H30l.23,0v-5.8l3.58,2.06H35c1.28,0,2.54,0,3.74.14-.14.87-.29,1.68-.47,2.42L40.42,45c.27-1.07.5-2.23.68-3.43a28.7,28.7,0,0,1,6.78,1.58A16.17,16.17,0,0,1,44,47Z"/></g></g></svg>