<svg xmlns="http://www.w3.org/2000/svg" viewBox="0 0 71.6 71.76"><defs><style>.cls-1{fill:#444b54;}.cls-2{fill:#61b63d;}.cls-3{fill:#505358;}.cls-4{fill:#4995ec;}</style></defs><title>Asset 4</title><g id="Layer_2" data-name="Layer 2"><g id="Layer_1-2" data-name="Layer 1"><path class="cls-1" d="M0,64v7.73H71.6V64Zm69.68,5.81H1.92V66H69.68Z"/><path class="cls-1" d="M70.9,16.42l0,0L51.16,4.81H43.7L35.8,0,27.9,4.81H20.44L.7,16.42H0v7.73H71.6V16.42ZM50.64,6.73l0,0,16.43,9.66H62.78l0,0L46.86,6.73ZM21,6.73h3.78L8.82,16.42H4.49Zm48.71,15.5H1.92V18.34H29.79V16.42H12.52L35.8,2.25l.1.06L59.08,16.42H41.81v1.92H69.68Z"/><path class="cls-2" d="M35.8,21.13A7.23,7.23,0,1,1,43,13.9,7.24,7.24,0,0,1,35.8,21.13Z"/><path class="cls-3" d="M35.8,7.77a6.13,6.13,0,1,1-6.13,6.13A6.14,6.14,0,0,1,35.8,7.77m0-2a8.13,8.13,0,1,0,8.13,8.13A8.14,8.14,0,0,0,35.8,5.77Z"/><path class="cls-1" d="M10.31,61.55H2.64V26.7h7.67Zm-5.67-2H8.31V28.7H4.64Z"/><path class="cls-1" d="M11.47,28.7h-10a1,1,0,0,1,0-2h10a1,1,0,1,1,0,2Z"/><path class="cls-1" d="M11.47,61.55h-10a1,1,0,0,1,0-2h10a1,1,0,0,1,0,2Z"/><path class="cls-1" d="M30,61.55H22.33V26.7H30Zm-5.67-2H28V28.7H24.33Z"/><path class="cls-1" d="M31.17,28.7h-10a1,1,0,0,1,0-2h10a1,1,0,0,1,0,2Z"/><path class="cls-1" d="M31.17,61.55h-10a1,1,0,0,1,0-2h10a1,1,0,0,1,0,2Z"/><path class="cls-1" d="M49.7,61.55H42V26.7H49.7Zm-5.67-2H47.7V28.7H44Z"/><path class="cls-1" d="M50.86,28.7h-10a1,1,0,0,1,0-2h10a1,1,0,0,1,0,2Z"/><path class="cls-1" d="M50.86,61.55h-10a1,1,0,0,1,0-2h10a1,1,0,0,1,0,2Z"/><path class="cls-1" d="M69.39,61.55H61.72V26.7h7.67Zm-5.67-2h3.67V28.7H63.72Z"/><path class="cls-1" d="M70.56,28.7h-10a1,1,0,0,1,0-2h10a1,1,0,0,1,0,2Z"/><path class="cls-1" d="M70.56,61.55h-10a1,1,0,0,1,0-2h10a1,1,0,0,1,0,2Z"/><rect class="cls-4" x="24.74" y="67.05" width="24.53" height="1.63"/></g></g></svg>