<svg xmlns="http://www.w3.org/2000/svg" viewBox="0 0 70 70"><defs><style>.cls-1{fill:#444b54;}.cls-2{fill:#61b63d;}.cls-3{fill:#4995ec;}</style></defs><title>Asset 5</title><g id="Layer_2" data-name="Layer 2"><g id="Layer_1-2" data-name="Layer 1"><path class="cls-1" d="M40.22,53.65a9,9,0,1,0-10.44,0A7.91,7.91,0,0,0,24.84,61v9H45.16V61A7.91,7.91,0,0,0,40.22,53.65Zm-12-7.36A6.77,6.77,0,1,1,35,53.06,6.78,6.78,0,0,1,28.23,46.29Zm2.41,21.45H27.1V61a5.63,5.63,0,0,1,3.16-5l1.66,2.87Zm2.28,0,1.15-8h1.87l1.15,8Zm3.35-10.3H33.74l-1.21-2.1.22,0h4.52l.22,0Zm6.64,10.3H39.37L38.09,58.8l1.66-2.87a5.64,5.64,0,0,1,3.16,5Z"/><path class="cls-1" d="M15.38,53.65a9,9,0,1,0-10.44,0A7.91,7.91,0,0,0,0,61v9H20.32V61A7.91,7.91,0,0,0,15.38,53.65Zm-12-7.36a6.77,6.77,0,1,1,6.77,6.77A6.78,6.78,0,0,1,3.39,46.29ZM5.79,67.74H2.26V61a5.63,5.63,0,0,1,3.16-5L7.07,58.8Zm2.28,0,1.15-8H11.1l1.15,8Zm3.35-10.3H8.9l-1.21-2.1.22,0h4.52l.22,0Zm6.64,10.3H14.53L13.25,58.8l1.66-2.87a5.64,5.64,0,0,1,3.16,5Z"/><path class="cls-1" d="M65.06,53.65a9,9,0,1,0-10.44,0A7.91,7.91,0,0,0,49.68,61v9H70V61A7.91,7.91,0,0,0,65.06,53.65Zm-12-7.36a6.77,6.77,0,1,1,6.77,6.77A6.78,6.78,0,0,1,53.06,46.29Zm2.41,21.45H51.94V61a5.63,5.63,0,0,1,3.16-5l1.66,2.87Zm2.28,0,1.15-8h1.87l1.15,8Zm3.35-10.3H58.58l-1.21-2.1.22,0H62.1l.22,0Zm6.64,10.3H64.21L62.93,58.8l1.66-2.87a5.64,5.64,0,0,1,3.16,5Z"/><rect class="cls-2" x="27.1" y="4.52" width="38.39" height="2.26"/><rect class="cls-2" x="63.23" y="18.06" width="2.26" height="2.26"/><rect class="cls-2" x="27.1" y="18.06" width="33.87" height="2.26"/><rect class="cls-2" x="27.1" y="11.29" width="38.39" height="2.26"/><path class="cls-1" d="M22.58,0V4.52H0V29.35H10.16v6.71l9.39-6.71H47.42V24.84h3l9.45,8.1v-8.1H70V0ZM45.16,27.1H18.83l-6.41,4.58V27.1H2.26V6.77H22.58V24.84H45.16Zm22.58-4.52H57.58V28l-6.36-5.45H24.84V2.26h42.9Z"/><rect class="cls-3" x="4.52" y="9.03" width="15.81" height="2.26"/><rect class="cls-3" x="18.06" y="22.58" width="2.26" height="2.26"/><rect class="cls-3" x="4.52" y="22.58" width="11.29" height="2.26"/><rect class="cls-3" x="4.52" y="15.81" width="15.81" height="2.26"/></g></g></svg>