<svg xmlns="http://www.w3.org/2000/svg" viewBox="0 0 69.5 61.98"><defs><style>.cls-1{fill:#4995ec;}.cls-2{fill:#61b63d;}.cls-3{fill:#444b54;}</style></defs><title>Asset 2</title><g id="Layer_2" data-name="Layer 2"><g id="Layer_1-2" data-name="Layer 1"><circle class="cls-1" cx="13.5" cy="35.99" r="2.67"/><circle class="cls-1" cx="41.75" cy="29.87" r="2.67"/><circle class="cls-2" cx="27.5" cy="21.87" r="2.67"/><circle class="cls-2" cx="55.87" cy="14.87" r="2.67"/><path class="cls-3" d="M66.07,52a3.43,3.43,0,0,0,3.43-3.43V3.43A3.43,3.43,0,0,0,66.07,0H3.43A3.43,3.43,0,0,0,0,3.43v45.1A3.43,3.43,0,0,0,3.43,52h24l-1,8.17H22.22a.92.92,0,1,0,0,1.85H47.28a.92.92,0,1,0,0-1.85H43.08l-1-8.17ZM3.43,50.11a1.58,1.58,0,0,1-1.58-1.58V3.43A1.58,1.58,0,0,1,3.43,1.85H66.07a1.58,1.58,0,0,1,1.58,1.58v45.1a1.58,1.58,0,0,1-1.58,1.58Zm24.85,10,1-8.17H40.2l1,8.17Z"/><path class="cls-3" d="M55.72,5.94A.93.93,0,0,0,54.79,5H5.94A.93.93,0,0,0,5,5.94V44.77a.93.93,0,0,0,.92.92H9.69a.92.92,0,1,0,0-1.85H6.86v-37H54.79A.93.93,0,0,0,55.72,5.94Z"/><path class="cls-3" d="M14.71,43.85a.92.92,0,1,0,0,1.85H63.56a.93.93,0,0,0,.92-.92V5.94A.93.93,0,0,0,63.56,5H59.81a.92.92,0,0,0,0,1.85h2.83v37Z"/><path class="cls-3" d="M56,11.28a3.43,3.43,0,0,0-3,5l.08.16L43.45,26.7l-.16-.08a3.47,3.47,0,0,0-3.79.63l-.13.12L31,23l0-.18a3.5,3.5,0,0,0,0-.55,3.43,3.43,0,1,0-6.86,0,3.39,3.39,0,0,0,.34,1.48l.08.16L15.18,33,15,33a3.39,3.39,0,0,0-1.57-.38A3.43,3.43,0,1,0,16.88,36a3.39,3.39,0,0,0-.33-1.48l-.08-.16,9.45-9.17.16.08A3.47,3.47,0,0,0,30,24.71l.13-.12L38.49,29l0,.18a3.43,3.43,0,1,0,6.41-1.06L44.79,28l9.66-10.23.16.08a3.4,3.4,0,0,0,1.44.32,3.43,3.43,0,1,0,0-6.86ZM13.45,37.58A1.58,1.58,0,1,1,15,36,1.58,1.58,0,0,1,13.45,37.58ZM27.65,23.8a1.58,1.58,0,1,1,1.58-1.58A1.58,1.58,0,0,1,27.65,23.8Zm14.2,7.52a1.58,1.58,0,1,1,1.58-1.58A1.58,1.58,0,0,1,41.85,31.32Zm14.2-15a1.58,1.58,0,1,1,1.58-1.58A1.58,1.58,0,0,1,56,16.29Z"/><path class="cls-3" d="M56,21.3a.93.93,0,0,0-.92.92V39.76a.92.92,0,1,0,1.85,0V22.22A.93.93,0,0,0,56,21.3Z"/><path class="cls-3" d="M28.58,29.74a.92.92,0,1,0-1.85,0v10a.92.92,0,1,0,1.85,0Z"/><path class="cls-3" d="M42.77,37.26a.92.92,0,1,0-1.85,0v2.51a.92.92,0,1,0,1.85,0Z"/></g></g></svg>