<?xml version="1.0" encoding="utf-8"?>
<!-- Generator: Adobe Illustrator 19.1.0, SVG Export Plug-In . SVG Version: 6.00 Build 0)  -->
<svg version="1.1" id="Layer_1" xmlns="http://www.w3.org/2000/svg" xmlns:xlink="http://www.w3.org/1999/xlink" x="0px" y="0px"
	 viewBox="-743 1245 512 512" style="enable-background:new -743 1245 512 512;" xml:space="preserve">
<style type="text/css">
	.st0{fill:#444B54;}
	.st1{fill:#4995EC;}
	.st2{fill:#61B63D;}
</style>
<g>
	<g>
		<path class="st0" d="M-234.5,1487.1l-245.8-212.9c-3.8-3.3-9.5-3.3-13.4,0l-245.8,212.9c-3.2,2.8-4.4,7.3-2.9,11.3
			c1.5,4,5.3,6.6,9.6,6.6h61.8v215c0,5.6,4.6,10.2,10.2,10.2h347.6c5.6,0,10.2-4.6,10.2-10.2v-215h61.8c4.3,0,8.1-2.6,9.6-6.6
			C-230.2,1494.4-231.3,1489.9-234.5,1487.1z M-419.5,1709.2h-135.1l0,0v-173.4c0-37.2,30.3-67.5,67.5-67.5s67.5,30.3,67.5,67.5
			L-419.5,1709.2L-419.5,1709.2z M-313.2,1484.7c-5.6,0-10.2,4.6-10.2,10.2v215h-75.7v-174.2c0-48.5-39.4-87.9-87.9-87.9
			s-87.9,39.4-87.9,87.9v174.2h-75.7v-215c0-5.6-4.6-10.2-10.2-10.2h-44.6l218.5-189.2l218.5,189.2H-313.2L-313.2,1484.7z"/>
	</g>
</g>
<g>
	<g>
		<path class="st1" d="M-455.7,1566.4c-15.4,0-28,12.6-28,28c0,15.4,12.6,28,28,28s28-12.6,28-28
			C-427.7,1578.9-440.2,1566.4-455.7,1566.4z M-455.7,1602c-4.2,0-7.6-3.4-7.6-7.6s3.4-7.6,7.6-7.6s7.6,3.4,7.6,7.6
			S-451.5,1602-455.7,1602z"/>
	</g>
</g>
<g>
	<g>
		<path class="st2" d="M-500.7,1338.5c-3.7-4.3-10.1-4.8-14.4-1.2l-4.8,4.1c-4.3,3.7-4.8,10.1-1.2,14.4c2,2.4,4.9,3.6,7.8,3.6
			c2.3,0,4.7-0.8,6.6-2.4l4.8-4.1C-497.5,1349.3-497,1342.8-500.7,1338.5z"/>
	</g>
</g>
<g>
	<g>
		<path class="st2" d="M-530.6,1364c-3.7-4.3-10.1-4.8-14.4-1.2l-107.8,91.8c-4.3,3.7-4.8,10.1-1.1,14.4c2,2.4,4.9,3.6,7.8,3.6
			c2.3,0,4.7-0.8,6.6-2.4l107.8-91.8C-527.4,1374.8-526.9,1368.3-530.6,1364z"/>
	</g>
</g>
<g>
	<g>
		<path class="st0" d="M-1149.1,1244.5c-141.2,0-256,114.8-256,256s114.8,256,256,256s256-114.8,256-256
			S-1007.9,1244.5-1149.1,1244.5z M-1149.1,1739.4c-131.7,0-238.9-107.2-238.9-238.9s107.2-238.9,238.9-238.9
			s238.9,107.2,238.9,238.9S-1017.4,1739.4-1149.1,1739.4z"/>
	</g>
</g>
<g>
	<g>
		<path class="st1" d="M-1028.7,1467.4l-1.4-3.9c-1.6-4.4-6.5-6.8-10.9-5.2c-4.4,1.6-6.8,6.4-5.2,10.9l1.5,4
			c3.2,9,6.6,18.3,6.6,27.3s-3.4,18.3-6.6,27.2l-1.5,4c-1.6,4.4,0.8,9.3,5.2,10.9c0.9,0.3,1.9,0.5,2.8,0.5c3.5,0,6.8-2.2,8-5.7
			l1.4-3.9c3.6-9.9,7.6-21.1,7.6-33.1S-1025.1,1477.3-1028.7,1467.4z"/>
	</g>
</g>
<g>
	<g>
		<path class="st2" d="M-1132,1406.6h-59.7c-4.7,0-8.5,3.8-8.5,8.5v85.3c0,4.7,3.8,8.5,8.5,8.5h59.7c28.2,0,51.2-23,51.2-51.2
			C-1080.8,1429.6-1103.8,1406.6-1132,1406.6z M-1132,1492h-51.2v-68.3h51.2c18.8,0,34.1,15.3,34.1,34.1
			C-1097.9,1476.7-1113.2,1492-1132,1492z"/>
	</g>
</g>
</svg>
