<svg xmlns="http://www.w3.org/2000/svg" viewBox="0 0 64 70"><defs><style>.cls-1{fill:#444b54;}.cls-2{fill:#61b63d;}.cls-3{fill:#4995ec;}</style></defs><title>Asset 6</title><g id="Layer_2" data-name="Layer 2"><g id="Layer_1-2" data-name="Layer 1"><path class="cls-1" d="M35.92,49.68A14.6,14.6,0,0,0,46.81,35.51v-1A14.6,14.6,0,0,0,35.92,20.32,14.6,14.6,0,0,0,46.81,6.16V0H44.55V4.52H22V6.77H44.52a12.36,12.36,0,0,1-2.41,6.77H25.35v2.26H40a12.43,12.43,0,0,1-5,2.45L31,19.16l-3.92-.91a12.36,12.36,0,0,1-8.53-7H38.9V9H17.79a12.59,12.59,0,0,1-.34-2.87V2.26H38.9V0H15.19V6.16A14.6,14.6,0,0,0,26.08,20.32,14.6,14.6,0,0,0,15.19,34.49v1A14.6,14.6,0,0,0,26.08,49.68,14.6,14.6,0,0,0,15.19,63.84V70H38.9V67.74H17.45v-3.9A12.59,12.59,0,0,1,17.79,61H38.9V58.71H18.55a12.36,12.36,0,0,1,8.53-7L31,50.84l3.92.91a12.43,12.43,0,0,1,5,2.45H25.35v2.26H42.12a12.37,12.37,0,0,1,2.41,6.77H22v2.26H44.55V70h2.26V63.84A14.6,14.6,0,0,0,35.92,49.68Zm-1-2.06L31,48.52l-3.92-.91a12.43,12.43,0,0,1-5-2.45h14.6V42.9H19.88a12.37,12.37,0,0,1-2.41-6.77H40V33.87H17.48a12.36,12.36,0,0,1,2.41-6.77H36.65V24.84H22a12.43,12.43,0,0,1,5-2.45L31,21.48l3.92.91a12.36,12.36,0,0,1,8.53,7H23.1v2.26H44.21a12.59,12.59,0,0,1,.34,2.87v1a12.59,12.59,0,0,1-.34,2.87H23.1v2.26H43.45A12.36,12.36,0,0,1,34.92,47.61Z"/><rect class="cls-2" x="5.52" y="59.35" width="2.26" height="2.26"/><rect class="cls-2" x="5.52" y="63.87" width="2.26" height="2.26"/><rect class="cls-2" x="7.77" y="61.61" width="2.26" height="2.26"/><rect class="cls-2" x="3.26" y="61.61" width="2.26" height="2.26"/><rect class="cls-3" x="57.23" y="29.87" width="2.26" height="2.26"/><rect class="cls-3" x="54.03" y="31.19" width="2.26" height="2.26" transform="translate(-6.7 48.47) rotate(-45)"/><rect class="cls-3" x="52.71" y="34.39" width="2.26" height="2.26"/><rect class="cls-3" x="54.03" y="37.58" width="2.26" height="2.26" transform="translate(-11.21 50.34) rotate(-45)"/><rect class="cls-3" x="57.23" y="38.9" width="2.26" height="2.26"/><rect class="cls-3" x="60.42" y="37.58" width="2.26" height="2.26" transform="translate(-9.34 54.86) rotate(-45)"/><rect class="cls-3" x="61.74" y="34.39" width="2.26" height="2.26"/><rect class="cls-3" x="60.42" y="31.19" width="2.26" height="2.26" transform="translate(-4.83 52.99) rotate(-45)"/><rect class="cls-2" x="4.52" y="2.9" width="2.26" height="2.26"/><rect class="cls-2" x="1.32" y="4.23" width="2.26" height="2.26" transform="translate(-3.07 3.3) rotate(-45)"/><rect class="cls-2" y="7.42" width="2.26" height="2.26"/><rect class="cls-2" x="1.32" y="10.61" width="2.26" height="2.26" transform="translate(-7.58 5.17) rotate(-45)"/><rect class="cls-2" x="4.52" y="11.94" width="2.26" height="2.26"/><rect class="cls-2" x="7.71" y="10.61" width="2.26" height="2.26" transform="translate(-5.71 9.69) rotate(-45)"/><rect class="cls-2" x="9.03" y="7.42" width="2.26" height="2.26"/><rect class="cls-2" x="7.71" y="4.23" width="2.26" height="2.26" transform="translate(-1.2 7.82) rotate(-45)"/><rect class="cls-1" x="42.29" y="19.19" width="2.26" height="2.26"/><rect class="cls-1" x="46.81" y="19.19" width="2.26" height="2.26"/><rect class="cls-1" x="51.32" y="19.19" width="2.26" height="2.26"/><rect class="cls-1" x="8.42" y="19.19" width="2.26" height="2.26"/><rect class="cls-1" x="12.94" y="19.19" width="2.26" height="2.26"/><rect class="cls-1" x="17.45" y="19.19" width="2.26" height="2.26"/><rect class="cls-1" x="42.29" y="48.55" width="2.26" height="2.26"/><rect class="cls-1" x="46.81" y="48.55" width="2.26" height="2.26"/><rect class="cls-1" x="51.32" y="48.55" width="2.26" height="2.26"/><rect class="cls-1" x="8.42" y="48.55" width="2.26" height="2.26"/><rect class="cls-1" x="12.94" y="48.55" width="2.26" height="2.26"/><rect class="cls-1" x="17.45" y="48.55" width="2.26" height="2.26"/></g></g></svg>