<?xml version="1.0" encoding="utf-8"?>
<!-- Generator: Adobe Illustrator 19.1.0, SVG Export Plug-In . SVG Version: 6.00 Build 0)  -->
<svg version="1.1" id="Capa_1" xmlns="http://www.w3.org/2000/svg" xmlns:xlink="http://www.w3.org/1999/xlink" x="0px" y="0px"
	 viewBox="-781 1282.8 436.2 436.2" style="enable-background:new -781 1282.8 436.2 436.2;" xml:space="preserve">
<style type="text/css">
	.st0{fill:#444B54;}
	.st1{fill:#4995EC;}
	.st2{fill:#61B63D;}
</style>
<path id="XMLID_185_" class="st0" d="M-658.9,1469.5v-69c0-52.9,43.1-96,96-96c9.6,0,19.1,1.4,28.3,4.3c0,0,0,0,0,0
	c8,2.5,15.7,6.1,22.9,10.6c28.1,17.8,44.8,48.1,44.8,81.1v68.2c0,5-4,9-9,9s-9-4-9-9v-68.2c0-26.8-13.6-51.4-36.5-65.9
	c-5.8-3.7-12.1-6.6-18.6-8.6c0,0,0,0,0,0c-7.4-2.3-15.1-3.5-22.9-3.5c-43,0-78,35-78,78v69c0,5-4,9-9,9
	C-654.8,1478.5-658.9,1474.5-658.9,1469.5z M-553.9,1653.7v47.3h43.4c5,0,9,4,9,9c0,5-4,9-9,9h-52.2c-0.1,0-0.1,0-0.2,0
	s-0.1,0-0.2,0h-52.2c-5,0-9-4-9-9c0-5,4-9,9-9h43.4v-47.3c-75.4-4.7-135.2-67.4-135.2-144c0-5,4-9,9-9h270.5c5,0,9,4,9,9
	C-418.7,1586.2-478.5,1649-553.9,1653.7z M-437,1518.7h-30.4c-2.2,22.5-12.2,43.3-28.6,59.4c-18.1,17.6-41.9,27.4-66.9,27.4
	c-36.3,0-70.2-21.2-86.3-54c-2.2-4.5-0.3-9.9,4.1-12c4.5-2.2,9.9-0.3,12,4.1c13.1,26.7,40.6,43.9,70.1,43.9
	c39.4,0,72.8-30.2,77.4-68.7h-203.3c4.6,65.4,59.3,117.2,125.9,117.2C-496.3,1636-441.6,1584.2-437,1518.7z"/>
<g>
	<g>
		<path class="st0" d="M-1283.1,1227.3c-141.2,0-256,114.8-256,256s114.8,256,256,256s256-114.8,256-256
			S-1141.9,1227.3-1283.1,1227.3z M-1283.1,1722.2c-131.7,0-238.9-107.2-238.9-238.9s107.2-238.9,238.9-238.9
			s238.9,107.2,238.9,238.9S-1151.4,1722.2-1283.1,1722.2z"/>
	</g>
</g>
<g>
	<g>
		<path class="st1" d="M-1162.7,1450.2l-1.4-3.9c-1.6-4.4-6.5-6.8-10.9-5.2c-4.4,1.6-6.8,6.4-5.2,10.9l1.5,4
			c3.2,9,6.6,18.3,6.6,27.3s-3.4,18.3-6.6,27.2l-1.5,4c-1.6,4.4,0.8,9.3,5.2,10.9c0.9,0.3,1.9,0.5,2.8,0.5c3.5,0,6.8-2.2,8-5.7
			l1.4-3.9c3.6-9.9,7.6-21.1,7.6-33.1S-1159.1,1460.1-1162.7,1450.2z"/>
	</g>
</g>
<g>
	<g>
		<path class="st2" d="M-1266,1389.4h-59.7c-4.7,0-8.5,3.8-8.5,8.5v85.3c0,4.7,3.8,8.5,8.5,8.5h59.7c28.2,0,51.2-23,51.2-51.2
			C-1214.8,1412.4-1237.8,1389.4-1266,1389.4z M-1266,1474.8h-51.2v-68.3h51.2c18.8,0,34.1,15.3,34.1,34.1
			C-1231.9,1459.5-1247.2,1474.8-1266,1474.8z"/>
	</g>
</g>
<path class="st1" d="M-504.7,1299.7c18.3,9.9,33.5,24.7,43.8,42.8c9.7,16.8,14.8,35.9,14.8,55.2c0,5,4,9,9,9s9-4,9-9
	c0-22.5-5.9-44.7-17.2-64.2c-12.1-20.9-29.6-38.1-50.9-49.6c-4.4-2.4-9.8-0.7-12.2,3.6C-510.7,1291.9-509.1,1297.3-504.7,1299.7z"/>
<path class="st2" d="M-526.4,1421h-72.9c-5,0-9,4-9,9s4,9,9,9h72.9c5,0,9-4,9-9S-521.5,1421-526.4,1421z"/>
<path class="st2" d="M-526.4,1460.5h-72.9c-5,0-9,4-9,9c0,5,4,9,9,9h72.9c5,0,9-4,9-9C-517.4,1464.6-521.5,1460.5-526.4,1460.5z"/>
<path class="st2" d="M-526.4,1381.4h-72.9c-5,0-9,4-9,9c0,5,4,9,9,9h72.9c5,0,9-4,9-9C-517.4,1385.5-521.5,1381.4-526.4,1381.4z"/>
</svg>
