<svg xmlns="http://www.w3.org/2000/svg" viewBox="0 0 69.5 69.5"><defs><style>.cls-1{fill:#6a7686;}.cls-2{fill:#fff;}</style></defs><title>Asset 2</title><g id="Layer_2" data-name="Layer 2"><g id="Layer_1-2" data-name="Layer 1"><circle class="cls-1" cx="34.75" cy="34.75" r="34.75"/><path class="cls-2" d="M27.2,28.21a.83.83,0,0,0,.45-1.08,7.68,7.68,0,1,1,14.23,0,.83.83,0,1,0,1.53.62,9.33,9.33,0,1,0-17.29,0A.83.83,0,0,0,27.2,28.21Z"/><path class="cls-2" d="M46.23,20.84a.83.83,0,0,0,.83.83h2.53a.82.82,0,1,0,0-1.65H47.05A.82.82,0,0,0,46.23,20.84Z"/><path class="cls-2" d="M46.07,18.48a.82.82,0,0,0,.46-.14l2.09-1.42a.83.83,0,0,0-.93-1.37L45.61,17a.83.83,0,0,0,.47,1.51Z"/><path class="cls-2" d="M46.54,23.33a.83.83,0,1,0-.92,1.37l2.09,1.41a.83.83,0,0,0,.92-1.37Z"/><path class="cls-2" d="M22.45,21.67a.83.83,0,0,0,0-1.65H19.92a.82.82,0,1,0,0,1.65h2.53Z"/><path class="cls-2" d="M20.87,16.92,23,18.34A.83.83,0,1,0,23.89,17L21.8,15.55a.83.83,0,0,0-.93,1.37Z"/><path class="cls-2" d="M23,23.33l-2.09,1.41a.83.83,0,1,0,.93,1.37l2.09-1.41A.83.83,0,0,0,23,23.33Z"/><path class="cls-2" d="M48.7,38.73C48.15,35.46,45.88,35,44.76,35h-.13a.85.85,0,0,1-.76-.41A3,3,0,0,0,41,33s-.1,0-.14,0h0a.68.68,0,0,1-.74-.63v-9a2.27,2.27,0,0,0-4.54-.1v9a.82.82,0,0,1-.78.85h0a.81.81,0,0,1-.79-.81V24.93a2.24,2.24,0,0,0-4.48,0s0,14,0,14.54a.82.82,0,0,1-.83.82A.8.8,0,0,1,28,39.9l-2-3.18a2.06,2.06,0,0,0-1.79-1.08,2.18,2.18,0,0,0-1.94,3.29l0,.06,8.25,15.07a.9.9,0,0,0,.82.51H42.69a.9.9,0,0,0,.89-.72l1.14-3.4a.9.9,0,0,1,.13-.32C48,45.29,49.23,41.9,48.7,38.73Z"/></g></g></svg>