<svg xmlns="http://www.w3.org/2000/svg" viewBox="0 0 69.5 69.5"><defs><style>.cls-1{fill:#595ebd;}.cls-2{fill:#fff;}</style></defs><title>Asset 3</title><g id="Layer_2" data-name="Layer 2"><g id="Layer_1-2" data-name="Layer 1"><circle class="cls-1" cx="34.75" cy="34.75" r="34.75"/><path class="cls-2" d="M30.69,23.05,28,25.76a1.08,1.08,0,1,1-1.53-1.53l2.7-2.7-1.71-1.71L23.67,23.6a1.08,1.08,0,0,1-1.53-1.53l3.78-3.78-1.64-1.64a1.08,1.08,0,0,0-1.53,0l-6.11,6.11a1.08,1.08,0,0,0,0,1.53l8.85,8.85,7.64-7.64Z"/><path class="cls-2" d="M20.55,41.78l-2.12,7.77a1.08,1.08,0,0,0,1,1.36,1.1,1.1,0,0,0,.28,0l7.77-2.12Z"/><path class="cls-2" d="M49.48,19.83a5.41,5.41,0,0,0-7.64,0l-.76.76,7.64,7.64.76-.76A5.41,5.41,0,0,0,49.48,19.83Z"/><polygon class="cls-2" points="44.14 26.7 26.33 44.51 29.39 47.56 47.19 29.76 44.14 26.7"/><polygon class="cls-2" points="39.56 22.12 21.75 39.93 24.81 42.98 42.61 25.18 39.56 22.12"/><path class="cls-2" d="M52.85,45.22l-1.64-1.64-3.78,3.78a1.08,1.08,0,1,1-1.53-1.53L49.68,42,48,40.33,45.27,43a1.08,1.08,0,0,1-1.53-1.53l2.7-2.7-2.62-2.62-7.64,7.64,9,9a1.08,1.08,0,0,0,1.53,0l6.11-6.11A1.08,1.08,0,0,0,52.85,45.22Z"/></g></g></svg>