<svg xmlns="http://www.w3.org/2000/svg" viewBox="0 0 69.6 69.6"><defs><style>.cls-1{fill:#61b63d;}.cls-2{fill:#fff;}.cls-3{fill:#444b54;}</style></defs><title>Asset 3</title><g id="Layer_2" data-name="Layer 2"><g id="Layer_1-2" data-name="Layer 1"><circle class="cls-1" cx="34.95" cy="34.96" r="9.06"/><path class="cls-2" d="M39.12,36.49a2.63,2.63,0,0,0-2.62-2.62H33.11a.76.76,0,0,1,0-1.53h3.39a.77.77,0,0,1,.76.76v.36h1.86v-.36a2.63,2.63,0,0,0-2.62-2.62h-.76V28.23H33.87v2.26h-.76a2.62,2.62,0,1,0,0,5.24h3.39a.76.76,0,0,1,0,1.53H33.11a.77.77,0,0,1-.76-.76v-.36H30.48v.36a2.63,2.63,0,0,0,2.62,2.62h.76v2.26h1.86V39.12h.76A2.63,2.63,0,0,0,39.12,36.49Z"/><path class="cls-3" d="M45.11,69.6a5.67,5.67,0,0,0,5.26-3.7L54,53.73l3.68,11.4A6,6,0,0,0,69.6,63.55v-1a6.1,6.1,0,0,0-.18-1.48l-8.08-32V28a14.38,14.38,0,0,0-5.7-11.48l-.32-.24.38-.11A8.26,8.26,0,1,0,45.16,8.27a8.18,8.18,0,0,0,1.69,5l.24.32h-.4A14.53,14.53,0,0,0,36.15,18.3l-.13.14,0,0a4.76,4.76,0,0,0-1,2.86s0,.05,0,.08a4.73,4.73,0,0,0,1.34,3.25l.4.41-.57-.08a8.68,8.68,0,0,0-2.73,0l-.57.08.4-.42a4.73,4.73,0,0,0,1.34-3.26s0-.06,0-.08a4.76,4.76,0,0,0-1-2.85l0,0-.13-.14a14.52,14.52,0,0,0-10.55-4.73h-.4l.24-.32a8.19,8.19,0,0,0,1.69-5A8.27,8.27,0,1,0,13.9,16.21l.38.11-.32.24A14.38,14.38,0,0,0,8.27,28v1l-8.09,32A6.09,6.09,0,0,0,0,62.53v1a6.05,6.05,0,0,0,11.87,1.64l3.7-11.46L19.25,66a5.6,5.6,0,0,0,10.83-2V62.72a5.6,5.6,0,0,0-.34-1.91l-3.26-9,.62.33A4.36,4.36,0,0,0,33,50.24a4.35,4.35,0,0,0-1.61-5.67l-1.46-.9-.1.22C25.42,42.13,18,37.73,18,28a4.72,4.72,0,0,1,8.05-3.33,5.1,5.1,0,0,0,3,1.48l.54.06-.45.31a10,10,0,0,0,.79,17l-.06.13,1.62.56a9.85,9.85,0,0,0,6.47,0l1.62-.56-.06-.13a10,10,0,0,0,.79-17l-.45-.31.54-.06a5.1,5.1,0,0,0,3-1.48A4.72,4.72,0,0,1,51.57,28c0,9.69-7.4,14.08-11.8,15.84l-.1-.22-1.46.9a4.37,4.37,0,0,0,1,7.88,4.32,4.32,0,0,0,3.32-.28l.61-.33-3.26,9a5.58,5.58,0,0,0-.34,1.91V64A5.6,5.6,0,0,0,45.11,69.6ZM47,8.27a6.44,6.44,0,1,1,4.82,6.2c-.3-.11-.61-.22-.93-.31A6.42,6.42,0,0,1,47,8.27Zm-37.26,0a6.41,6.41,0,1,1,9,5.88c-.34.1-.65.21-.94.32a6.38,6.38,0,0,1-8-6.2ZM28,61.44a3.72,3.72,0,0,1,.23,1.28V64A3.74,3.74,0,0,1,21,65.39l-4-13.5a1.43,1.43,0,0,0-1.36-1,1.49,1.49,0,0,0-1.38,1l-4.13,12.8a4.19,4.19,0,0,1-8.23-1.11v-1a4.16,4.16,0,0,1,.13-1L9,33.7l.22.62c1.47,4.15,5.21,10.3,14.7,16.05l.06,0Zm-.6-38A6.57,6.57,0,0,0,16.17,28c0,11.2,8.64,16,13.79,17.88a2.51,2.51,0,0,1,1.38,3.48,2.53,2.53,0,0,1-2.25,1.4A2.42,2.42,0,0,1,28,50.53c-9.55-5-13.9-10.55-15.86-14.3a15.21,15.21,0,0,1-2-7.06V28a12.69,12.69,0,0,1,8.19-11.8,8.38,8.38,0,0,0,1-.32A12.54,12.54,0,0,1,32,19.48l0,0,.17.15a2.87,2.87,0,0,1,.51,2.11,2.91,2.91,0,0,1-1.28,2l-.26.17A3,3,0,0,1,27.4,23.4ZM42.9,34.8a8.1,8.1,0,1,1-8.1-8.1A8.11,8.11,0,0,1,42.9,34.8ZM41.63,50.53h0a2.43,2.43,0,0,1-1.13.28,2.48,2.48,0,0,1-.76-.12,2.51,2.51,0,0,1-1.49-1.28,2.51,2.51,0,0,1,1.38-3.48C44.79,44.05,53.43,39.24,53.43,28A6.57,6.57,0,0,0,42.2,23.4a3,3,0,0,1-3.77.51l-.26-.17a2.91,2.91,0,0,1-1.28-2,2.87,2.87,0,0,1,.51-2.11l.13-.18.05,0a12.62,12.62,0,0,1,12.71-3.57,8.62,8.62,0,0,0,1,.33A12.69,12.69,0,0,1,59.47,28v1.2C59.48,29.35,60.06,40.84,41.63,50.53Zm-.26,12.19a3.72,3.72,0,0,1,.23-1.28l4-11,.06,0c9.48-5.75,13.23-11.9,14.7-16l.22-.62,7,27.79a4.13,4.13,0,0,1,.13,1v1a4.19,4.19,0,0,1-8.25,1.05L55.37,51.86a1.43,1.43,0,0,0-2.74,0l-4,13.41A3.74,3.74,0,0,1,41.37,64Z"/></g></g></svg>