<svg enable-background="new 0 0 69.5 69.5" viewBox="0 0 69.5 69.5" xmlns="http://www.w3.org/2000/svg"><circle cx="34.1" cy="34.8" fill="#ffac06" r="34.8"/><path d="m34.3 21.6c-4.8 0-8.7 3.9-8.7 8.7s3.9 8.7 8.7 8.7 8.7-3.9 8.7-8.7-3.9-8.7-8.7-8.7zm4.4 7.8-5.4 3.9c-.2.1-.4.2-.6.2-.1 0-.1 0-.2 0-.3 0-.5-.2-.7-.4l-1.6-2.3c-.3-.4-.2-1.1.2-1.4s1.1-.2 1.4.2l1 1.5 4.6-3.3c.4-.3 1.1-.2 1.4.2.5.5.4 1.1-.1 1.4zm10.4 1.1c-2.2-1.5-2.9-4.6-1.6-6.9.8-1.4.4-2.8-.3-3.6s-1.9-1.6-3.5-1.1c-2.6.8-5.4-.6-6.4-3.1-.6-1.5-2-2.1-3-2.1s-2.4.5-3 2.1c-1 2.5-3.8 3.9-6.4 3.1-1.6-.5-2.8.2-3.5 1.1-.7.8-1.1 2.2-.3 3.6 1.4 2.4.7 5.4-1.6 6.9-1.3.9-1.6 2.4-1.3 3.4.2 1 1.1 2.2 2.7 2.5 2.7.4 4.6 2.9 4.4 5.6-.1 1.6.9 2.7 1.8 3.2 1 .5 2.4.6 3.6-.5 1-.9 2.3-1.4 3.6-1.4s2.6.5 3.6 1.4c1.2 1.1 2.7 1 3.6.5 1-.5 2-1.5 1.8-3.2-.2-2.7 1.8-5.1 4.4-5.6 1.6-.2 2.4-1.4 2.7-2.5v-1.5c-.1-.6-.5-1.3-1.3-1.9zm-14.8 10.4c-5.9 0-10.7-4.8-10.7-10.6s4.8-10.6 10.7-10.6 10.7 4.8 10.7 10.6c-.1 5.8-4.8 10.6-10.7 10.6zm-8.2 6.1c-.7-.3-1.3-.8-1.8-1.4l-2.7 6c-.1.3 0 .5.1.6s.2.2.5.2l2-.5c.2-.1.5-.1.7-.1.9 0 1.8.5 2.3 1.4l.9 1.8c.1.3.4.3.5.3s.3 0 .5-.3l4.3-9.5c-.5.1-.9.4-1.3.7-1.8 1.4-4 1.7-6 .8zm18.2-1.4c-.5.6-1.1 1-1.8 1.4-2 1-4.2.6-5.8-.9-.4-.4-.8-.6-1.3-.7l4.3 9.5c.1.3.4.3.5.3s.3 0 .5-.3l.9-1.8c.4-.9 1.3-1.4 2.3-1.4.2 0 .4 0 .7.1l2 .5c.3.1.5-.1.5-.2.1-.1.2-.3.1-.6z" fill="#fff"/></svg>