<svg xmlns="http://www.w3.org/2000/svg" viewBox="0 0 69.5 69.5"><defs><style>.cls-1{fill:#595ebd;}.cls-2{fill:#fff;}</style></defs><title>Asset 3</title><g id="Layer_2" data-name="Layer 2"><g id="Layer_1-2" data-name="Layer 1"><circle class="cls-1" cx="34.75" cy="34.75" r="34.75"/><g id="NqfyU5.tif"><path class="cls-2" d="M16.94,48.21q0-12.93,0-25.87c0-.09,0-.18.07-.28a3.27,3.27,0,0,1,2.69-2.66c1.29-.1,2.59-.05,3.88-.07,0,0,0,0,.08.08v4.92H27V16h3.34v3.33H40.42v5h3.36V16h3.34v3.32c1.06,0,2.07,0,3.07,0a4.39,4.39,0,0,1,1.07.12,3.3,3.3,0,0,1,2.56,3.32q0,12.5,0,25a3.33,3.33,0,0,1-.7,2.11,3.48,3.48,0,0,1-2.93,1.32H20.51a3.25,3.25,0,0,1-2.89-1.38A8.72,8.72,0,0,1,16.94,48.21Zm15.13-8.75v6.67H38.7V39.47Zm-3.4,0H22v6.66h6.67ZM38.72,29.43H32.06v6.66h6.66ZM22,36.07h6.67V29.42H22Zm20.13-6.66v6.67h6.65V29.41Z"/></g></g></g></svg>