<?xml version="1.0" encoding="utf-8"?>
<!-- Generator: Adobe Illustrator 19.1.0, SVG Export Plug-In . SVG Version: 6.00 Build 0)  -->
<svg version="1.1" id="Layer_1" xmlns="http://www.w3.org/2000/svg" xmlns:xlink="http://www.w3.org/1999/xlink" x="0px" y="0px"
	 viewBox="0 0 86.3 56" style="enable-background:new 0 0 86.3 56;" xml:space="preserve">
<style type="text/css">
	.st0{clip-path:url(#SVGID_2_);}
	.st1{clip-path:url(#SVGID_4_);fill:#FFFFFF;}
	.st2{opacity:0.6;clip-path:url(#SVGID_4_);}
	.st3{clip-path:url(#SVGID_6_);fill:#FFFFFF;}
	.st4{clip-path:url(#SVGID_8_);fill:#FFFFFF;}
	.st5{clip-path:url(#SVGID_10_);fill:#FFFFFF;}
	.st6{clip-path:url(#SVGID_12_);fill:#FFFFFF;}
	.st7{clip-path:url(#SVGID_14_);fill:#FFFFFF;}
	.st8{clip-path:url(#SVGID_16_);fill:#FFFFFF;}
	.st9{clip-path:url(#SVGID_18_);fill:#FFFFFF;}
</style>
<g>
	<defs>
		<rect id="SVGID_1_" width="86.3" height="56"/>
	</defs>
	<clipPath id="SVGID_2_">
		<use xlink:href="#SVGID_1_"  style="overflow:visible;"/>
	</clipPath>
	<g class="st0">
		<defs>
			<rect id="SVGID_3_" width="86.3" height="56"/>
		</defs>
		<clipPath id="SVGID_4_">
			<use xlink:href="#SVGID_3_"  style="overflow:visible;"/>
		</clipPath>
		<path class="st1" d="M71.8,22v-0.8H54.9V4.2h-0.8c-9.8,0-17.7,8-17.7,17.7c0,8,5.3,14.9,12.9,17v12h37.1V24.4H71.6
			C71.7,23.6,71.8,22.8,71.8,22 M49.2,37.3c-6.7-2.1-11.3-8.3-11.3-15.4c0-8.6,6.8-15.7,15.3-16.1v16.9h16.9c0,0.5-0.1,1.1-0.2,1.6
			H49.2V37.3z M62.9,31.6c-0.4,0-0.8-0.4-0.8-0.8c0-0.4,0.4-0.8,0.8-0.8h1.6c0.4,0,0.8,0.4,0.8,0.8c0,0.4-0.4,0.8-0.8,0.8H62.9z
			 M64.6,34.9c0.4,0,0.8,0.4,0.8,0.8s-0.4,0.8-0.8,0.8h-1.6c-0.4,0-0.8-0.4-0.8-0.8s0.4-0.8,0.8-0.8H64.6z M54.9,36.5
			c-0.4,0-0.8-0.4-0.8-0.8s0.4-0.8,0.8-0.8h1.6c0.4,0,0.8,0.4,0.8,0.8s-0.4,0.8-0.8,0.8H54.9z M56.5,39.7c0.4,0,0.8,0.4,0.8,0.8
			s-0.4,0.8-0.8,0.8h-1.6c-0.4,0-0.8-0.4-0.8-0.8s0.4-0.8,0.8-0.8H56.5z M54.9,49.4h-4V26h4v7.3c-1.3,0-2.4,1.1-2.4,2.4
			s1.1,2.4,2.4,2.4c-1.3,0-2.4,1.1-2.4,2.4s1.1,2.4,2.4,2.4c-1.3,0-2.4,1.1-2.4,2.4c0,1.3,1.1,2.4,2.4,2.4V49.4z M54.1,45.4
			c0-0.4,0.4-0.8,0.8-0.8h1.6c0.4,0,0.8,0.4,0.8,0.8c0,0.4-0.4,0.8-0.8,0.8h-1.6C54.4,46.2,54.1,45.8,54.1,45.4 M62.9,49.4h-6.5
			v-1.6c1.3,0,2.4-1.1,2.4-2.4c0-1.3-1.1-2.4-2.4-2.4c1.3,0,2.4-1.1,2.4-2.4s-1.1-2.4-2.4-2.4c1.3,0,2.4-1.1,2.4-2.4
			s-1.1-2.4-2.4-2.4V26h6.5v2.4c-1.3,0-2.4,1.1-2.4,2.4c0,1.3,1.1,2.4,2.4,2.4c-1.3,0-2.4,1.1-2.4,2.4s1.1,2.4,2.4,2.4
			c-1.3,0-2.4,1.1-2.4,2.4s1.1,2.4,2.4,2.4V49.4z M62.1,40.5c0-0.4,0.4-0.8,0.8-0.8h1.6c0.4,0,0.8,0.4,0.8,0.8s-0.4,0.8-0.8,0.8
			h-1.6C62.5,41.3,62.1,41,62.1,40.5 M71,49.4h-6.5v-6.5c1.3,0,2.4-1.1,2.4-2.4s-1.1-2.4-2.4-2.4c1.3,0,2.4-1.1,2.4-2.4
			s-1.1-2.4-2.4-2.4c1.3,0,2.4-1.1,2.4-2.4c0-1.3-1.1-2.4-2.4-2.4V26H71v2.4c-1.3,0-2.4,1.1-2.4,2.4c0,1.3,1.1,2.4,2.4,2.4v4.8
			c-1.3,0-2.4,1.1-2.4,2.4s1.1,2.4,2.4,2.4c-1.3,0-2.4,1.1-2.4,2.4c0,1.3,1.1,2.4,2.4,2.4V49.4z M72.6,39.7c0.4,0,0.8,0.4,0.8,0.8
			s-0.4,0.8-0.8,0.8H71c-0.4,0-0.8-0.4-0.8-0.8s0.4-0.8,0.8-0.8H72.6z M70.2,45.4c0-0.4,0.4-0.8,0.8-0.8h1.6c0.4,0,0.8,0.4,0.8,0.8
			c0,0.4-0.4,0.8-0.8,0.8H71C70.6,46.2,70.2,45.8,70.2,45.4 M80.7,44.5c0.4,0,0.8,0.4,0.8,0.8c0,0.4-0.4,0.8-0.8,0.8h-1.6
			c-0.4,0-0.8-0.4-0.8-0.8c0-0.4,0.4-0.8,0.8-0.8H80.7z M79.1,36.5c-0.4,0-0.8-0.4-0.8-0.8s0.4-0.8,0.8-0.8h1.6
			c0.4,0,0.8,0.4,0.8,0.8s-0.4,0.8-0.8,0.8H79.1z M80.7,26h4v23.4h-4v-1.6c1.3,0,2.4-1.1,2.4-2.4c0-1.3-1.1-2.4-2.4-2.4v-4.8
			c1.3,0,2.4-1.1,2.4-2.4s-1.1-2.4-2.4-2.4c1.3,0,2.4-1.1,2.4-2.4c0-1.3-1.1-2.4-2.4-2.4V26z M81.5,30.8c0,0.4-0.4,0.8-0.8,0.8h-1.6
			c-0.4,0-0.8-0.4-0.8-0.8c0-0.4,0.4-0.8,0.8-0.8h1.6C81.1,30,81.5,30.4,81.5,30.8 M72.6,26h6.5v2.4c-1.3,0-2.4,1.1-2.4,2.4
			c0,1.3,1.1,2.4,2.4,2.4c-1.3,0-2.4,1.1-2.4,2.4s1.1,2.4,2.4,2.4v4.8c-1.3,0-2.4,1.1-2.4,2.4c0,1.3,1.1,2.4,2.4,2.4v1.6h-6.5v-1.6
			c1.3,0,2.4-1.1,2.4-2.4c0-1.3-1.1-2.4-2.4-2.4c1.3,0,2.4-1.1,2.4-2.4s-1.1-2.4-2.4-2.4v-4.8c1.3,0,2.4-1.1,2.4-2.4
			c0-1.3-1.1-2.4-2.4-2.4V26z M72.6,30c0.4,0,0.8,0.4,0.8,0.8c0,0.4-0.4,0.8-0.8,0.8H71c-0.4,0-0.8-0.4-0.8-0.8
			c0-0.4,0.4-0.8,0.8-0.8H72.6z"/>
		<path class="st1" d="M72.3,1l-3.9,3.9C65.3,2.5,61.5,1,57.3,1h-0.8v18.5H75v-0.8c0-5-2.1-9.5-5.4-12.8L73,2.6h13.4V1H72.3z
			 M73.4,17.9H58.1V2.6c3.4,0.2,6.6,1.4,9.1,3.4l-4.9,4.9l1.1,1.1l4.9-4.9C71.3,9.9,73.2,13.7,73.4,17.9"/>
		<rect x="84.7" y="4.2" class="st1" width="1.6" height="1.6"/>
		<rect x="74.2" y="4.2" class="st1" width="8.9" height="1.6"/>
		<g class="st2">
			<g>
				<defs>
					<rect id="SVGID_5_" x="4" y="13" width="28" height="16"/>
				</defs>
				<clipPath id="SVGID_6_">
					<use xlink:href="#SVGID_5_"  style="overflow:visible;"/>
				</clipPath>
				<path class="st3" d="M29,13c-1.7,0-3,1.3-3,3c0,0.5,0.1,0.9,0.3,1.3l-3.4,3.4C22.4,20.3,21.7,20,21,20c-0.8,0-1.5,0.3-2,0.8
					l-3.1-1.9c0.1-0.3,0.2-0.6,0.2-0.9c0-1.7-1.3-3-3-3s-3,1.3-3,3c0,0.5,0.1,1,0.4,1.4L7.5,23c-0.2,0-0.3,0-0.5,0c-1.7,0-3,1.3-3,3
					c0,1.7,1.3,3,3,3s3-1.3,3-3c0-0.8-0.3-1.4-0.7-2l2.6-3.3c0.4,0.1,0.7,0.2,1.1,0.2c0.6,0,1.1-0.2,1.6-0.5l3.4,2.1
					c0,0.1,0,0.3,0,0.4c0,1.7,1.3,3,3,3c1.7,0,3-1.3,3-3c0-0.2,0-0.4-0.1-0.5l3.8-3.8c0.4,0.2,0.8,0.3,1.3,0.3c1.7,0,3-1.3,3-3
					C32,14.3,30.7,13,29,13 M7,27c-0.6,0-1-0.4-1-1s0.4-1,1-1s1,0.4,1,1S7.6,27,7,27 M12,18c0-0.6,0.4-1,1-1c0.6,0,1,0.4,1,1
					c0,0.6-0.4,1-1,1C12.4,19,12,18.6,12,18 M21,24c-0.6,0-1-0.4-1-1c0-0.6,0.4-1,1-1c0.6,0,1,0.4,1,1C22,23.6,21.6,24,21,24 M29,17
					c-0.6,0-1-0.4-1-1c0-0.6,0.4-1,1-1c0.6,0,1,0.4,1,1C30,16.6,29.6,17,29,17"/>
			</g>
		</g>
		<g class="st2">
			<g>
				<defs>
					<rect id="SVGID_7_" x="6" y="31" width="24" height="2"/>
				</defs>
				<clipPath id="SVGID_8_">
					<use xlink:href="#SVGID_7_"  style="overflow:visible;"/>
				</clipPath>
				<rect x="6" y="31" class="st4" width="24" height="2"/>
			</g>
		</g>
		<g class="st2">
			<g>
				<defs>
					<rect id="SVGID_9_" x="6" y="35" width="24" height="2"/>
				</defs>
				<clipPath id="SVGID_10_">
					<use xlink:href="#SVGID_9_"  style="overflow:visible;"/>
				</clipPath>
				<rect x="6" y="35" class="st5" width="24" height="2"/>
			</g>
		</g>
		<g class="st2">
			<g>
				<defs>
					<rect id="SVGID_11_" x="5" y="39" width="12" height="12"/>
				</defs>
				<clipPath id="SVGID_12_">
					<use xlink:href="#SVGID_11_"  style="overflow:visible;"/>
				</clipPath>
				<path class="st6" d="M11,39c-3.3,0-6,2.7-6,6s2.7,6,6,6s6-2.7,6-6S14.3,39,11,39 M15,45c0,0.5-0.1,1.1-0.3,1.5l-2.7-2v-3.4
					C13.7,41.6,15,43.1,15,45 M10,41.1V44H7.1C7.5,42.6,8.6,41.5,10,41.1 M7.1,46h3.5l2.8,2.1C12.8,48.7,11.9,49,11,49
					C9.1,49,7.6,47.7,7.1,46"/>
			</g>
		</g>
		<g class="st2">
			<g>
				<defs>
					<rect id="SVGID_13_" x="19" y="40" width="11" height="2"/>
				</defs>
				<clipPath id="SVGID_14_">
					<use xlink:href="#SVGID_13_"  style="overflow:visible;"/>
				</clipPath>
				<rect x="19" y="40" class="st7" width="11" height="2"/>
			</g>
		</g>
		<g class="st2">
			<g>
				<defs>
					<rect id="SVGID_15_" x="19" y="44" width="11" height="2"/>
				</defs>
				<clipPath id="SVGID_16_">
					<use xlink:href="#SVGID_15_"  style="overflow:visible;"/>
				</clipPath>
				<rect x="19" y="44" class="st8" width="11" height="2"/>
			</g>
		</g>
		<g class="st2">
			<g>
				<defs>
					<rect id="SVGID_17_" x="19" y="48" width="11" height="2"/>
				</defs>
				<clipPath id="SVGID_18_">
					<use xlink:href="#SVGID_17_"  style="overflow:visible;"/>
				</clipPath>
				<rect x="19" y="48" class="st9" width="11" height="2"/>
			</g>
		</g>
		<path class="st1" d="M42,37.3V43c0,1.3-0.8,2.4-2,2.8V35.5c-0.7-0.7-1.4-1.5-2-2.4V47c0,1.3-0.8,2.4-2,2.8V29.5
			c-1-2.3-1.5-4.7-1.5-7.3s0.5-5.1,1.5-7.3V13c0-2.8-2.2-5-5-5H6.2C6.6,6.8,7.7,6,9,6h26c1.7,0,3,1.3,3,3v2.2c0.6-0.8,1.3-1.6,2-2.4
			C39.9,6.2,37.7,4,35,4H10.2c0.4-1.2,1.5-2,2.8-2h26c1.7,0,3,1.3,3,3v2.1c0.6-0.5,1.3-0.9,2-1.4V5c0-2.8-2.2-5-5-5H13
			c-2.4,0-4.5,1.8-4.9,4.1c-2,0.4-3.6,2-4,4C1.8,8.5,0,10.6,0,13v38c0,2.8,2.2,5,5,5h26c2.4,0,4.5-1.8,4.9-4.1c2-0.4,3.6-2,4-4
			c2.3-0.4,4.1-2.5,4.1-4.9v-4.4C43.3,38.2,42.6,37.8,42,37.3 M34,51c0,1.7-1.3,3-3,3H5c-1.7,0-3-1.3-3-3V13c0-1.7,1.3-3,3-3h26
			c1.7,0,3,1.3,3,3V51z"/>
	</g>
</g>
</svg>
