<?xml version="1.0" encoding="utf-8"?>
<!-- Generator: Adobe Illustrator 19.1.0, SVG Export Plug-In . SVG Version: 6.00 Build 0)  -->
<svg version="1.1" id="Layer_1" xmlns="http://www.w3.org/2000/svg" xmlns:xlink="http://www.w3.org/1999/xlink" x="0px" y="0px"
	 viewBox="0 0 138.6 82.2" style="enable-background:new 0 0 138.6 82.2;" xml:space="preserve">
<style type="text/css">
	.st0{clip-path:url(#SVGID_2_);}
	.st1{clip-path:url(#SVGID_4_);fill:#FFFFFF;}
	.st2{opacity:0.6;clip-path:url(#SVGID_4_);}
	.st3{clip-path:url(#SVGID_6_);fill:#FFFFFF;}
	.st4{clip-path:url(#SVGID_8_);fill:#FFFFFF;}
	.st5{clip-path:url(#SVGID_10_);fill:#FFFFFF;}
	.st6{clip-path:url(#SVGID_12_);fill:#FFFFFF;}
	.st7{clip-path:url(#SVGID_14_);fill:#FFFFFF;}
	.st8{clip-path:url(#SVGID_16_);fill:#FFFFFF;}
	.st9{clip-path:url(#SVGID_18_);fill:#FFFFFF;}
	.st10{clip-path:url(#SVGID_20_);fill:#FFFFFF;}
	.st11{clip-path:url(#SVGID_22_);fill:#FFFFFF;}
	.st12{clip-path:url(#SVGID_24_);fill:#FFFFFF;}
	.st13{clip-path:url(#SVGID_26_);fill:#FFFFFF;}
	.st14{clip-path:url(#SVGID_28_);fill:#FFFFFF;}
	.st15{clip-path:url(#SVGID_30_);fill:#FFFFFF;}
	.st16{clip-path:url(#SVGID_32_);fill:#FFFFFF;}
	.st17{clip-path:url(#SVGID_34_);fill:#FFFFFF;}
	.st18{clip-path:url(#SVGID_36_);fill:#FFFFFF;}
	.st19{clip-path:url(#SVGID_38_);fill:#FFFFFF;}
	.st20{clip-path:url(#SVGID_40_);fill:#FFFFFF;}
	.st21{clip-path:url(#SVGID_42_);fill:#FFFFFF;}
	.st22{clip-path:url(#SVGID_44_);fill:#FFFFFF;}
	.st23{clip-path:url(#SVGID_46_);fill:#FFFFFF;}
	.st24{clip-path:url(#SVGID_48_);fill:#FFFFFF;}
	.st25{clip-path:url(#SVGID_50_);fill:#FFFFFF;}
	.st26{clip-path:url(#SVGID_52_);fill:#FFFFFF;}
	.st27{clip-path:url(#SVGID_54_);fill:#FFFFFF;}
	.st28{clip-path:url(#SVGID_56_);fill:#FFFFFF;}
	.st29{clip-path:url(#SVGID_58_);fill:#FFFFFF;}
	.st30{clip-path:url(#SVGID_60_);fill:#FFFFFF;}
	.st31{clip-path:url(#SVGID_62_);fill:#FFFFFF;}
	.st32{clip-path:url(#SVGID_64_);fill:#FFFFFF;}
	.st33{clip-path:url(#SVGID_66_);fill:#FFFFFF;}
	.st34{clip-path:url(#SVGID_68_);fill:#FFFFFF;}
	.st35{clip-path:url(#SVGID_70_);fill:#FFFFFF;}
	.st36{clip-path:url(#SVGID_72_);fill:#FFFFFF;}
	.st37{clip-path:url(#SVGID_74_);fill:#FFFFFF;}
	.st38{clip-path:url(#SVGID_76_);fill:#FFFFFF;}
	.st39{clip-path:url(#SVGID_78_);fill:#FFFFFF;}
	.st40{clip-path:url(#SVGID_80_);fill:#FFFFFF;}
	.st41{clip-path:url(#SVGID_82_);fill:#FFFFFF;}
	.st42{clip-path:url(#SVGID_84_);fill:#FFFFFF;}
	.st43{clip-path:url(#SVGID_86_);fill:#FFFFFF;}
	.st44{clip-path:url(#SVGID_88_);fill:#FFFFFF;}
	.st45{clip-path:url(#SVGID_90_);fill:#FFFFFF;}
	.st46{clip-path:url(#SVGID_92_);fill:#FFFFFF;}
	.st47{clip-path:url(#SVGID_94_);fill:#FFFFFF;}
	.st48{clip-path:url(#SVGID_96_);fill:#FFFFFF;}
	.st49{clip-path:url(#SVGID_98_);fill:#FFFFFF;}
	.st50{clip-path:url(#SVGID_100_);fill:#FFFFFF;}
	.st51{clip-path:url(#SVGID_102_);fill:#FFFFFF;}
	.st52{clip-path:url(#SVGID_104_);fill:#FFFFFF;}
	.st53{clip-path:url(#SVGID_106_);fill:#FFFFFF;}
	.st54{clip-path:url(#SVGID_108_);fill:#FFFFFF;}
	.st55{clip-path:url(#SVGID_110_);fill:#FFFFFF;}
	.st56{clip-path:url(#SVGID_112_);fill:#FFFFFF;}
	.st57{clip-path:url(#SVGID_114_);fill:#FFFFFF;}
	.st58{clip-path:url(#SVGID_116_);fill:#FFFFFF;}
	.st59{clip-path:url(#SVGID_118_);fill:#FFFFFF;}
	.st60{clip-path:url(#SVGID_120_);fill:#FFFFFF;}
	.st61{clip-path:url(#SVGID_122_);fill:#FFFFFF;}
	.st62{clip-path:url(#SVGID_124_);fill:#FFFFFF;}
	.st63{clip-path:url(#SVGID_126_);fill:#FFFFFF;}
	.st64{clip-path:url(#SVGID_128_);fill:#FFFFFF;}
	.st65{clip-path:url(#SVGID_130_);fill:#FFFFFF;}
	.st66{clip-path:url(#SVGID_132_);fill:#FFFFFF;}
	.st67{clip-path:url(#SVGID_134_);fill:#FFFFFF;}
	.st68{opacity:0.3;clip-path:url(#SVGID_4_);}
	.st69{clip-path:url(#SVGID_136_);fill:#FFFFFF;}
</style>
<g>
	<defs>
		<rect id="SVGID_1_" width="138.6" height="82.2"/>
	</defs>
	<clipPath id="SVGID_2_">
		<use xlink:href="#SVGID_1_"  style="overflow:visible;"/>
	</clipPath>
	<g class="st0">
		<defs>
			<rect id="SVGID_3_" y="0" width="138.6" height="82.2"/>
		</defs>
		<clipPath id="SVGID_4_">
			<use xlink:href="#SVGID_3_"  style="overflow:visible;"/>
		</clipPath>
		<path class="st1" d="M107.4,3c0.5,0.4,1,0.8,1.4,1.2c2.9,2.8,5.7,5.7,8.5,8.5c0.2,0.2,0.4,0.3,0.6,0.5c-0.2,0.2-0.2,0.3-0.3,0.4
			c-3.1,3.1-6.2,6.2-9.3,9.3c-0.7,0.7-1.4,0.9-2.2,0.6c-0.7-0.3-1-0.9-1-1.7c0-1.2,0-2.3,0-3.5c-9.2,0.2-20.9,8.1-21.2,22.2h-2.2
			C81.3,27.2,93.3,15,107.5,16v4.1c2.3-2.3,4.6-4.6,6.8-6.8c-2.2-2.2-4.5-4.5-6.8-6.8v4.3c-8.4-0.1-15.8,2.5-21.8,8.3
			c-6.1,5.8-9.1,13-9.2,21.4h-2.4c0.1-8.6,3.1-16.1,9.1-22.3c5.9-6.2,13.3-9.4,21.9-9.9c0-1.1,0-2.2,0-3.3c-0.1-1.1,0.4-1.8,1.3-2.2
			H107.4z"/>
		<path class="st1" d="M105.5,78.3c-0.4-0.3-1-0.6-1.3-1c-3-2.9-5.9-5.9-8.8-8.8c-0.2-0.2-0.4-0.3-0.6-0.5c1.4-1.4,2.7-2.7,4-4
			c1.9-1.9,3.8-3.9,5.8-5.8c0.8-0.8,1.9-0.9,2.5-0.2c0.3,0.4,0.5,0.9,0.6,1.4c0.1,1.1,0,2.3,0,3.4c10.6-0.4,20.9-9.1,21.2-22.2h2.3
			c0.3,13-11,25.3-25.8,24.6v-4.1c-2.3,2.3-4.5,4.5-6.8,6.8c2.1,2.1,4.4,4.4,6.7,6.7v-4.3c8.4,0.1,15.8-2.6,21.8-8.4
			c6-5.8,9.1-13,9.2-21.4h2.4c-0.1,8.6-3.1,16.1-9.1,22.3c-5.9,6.2-13.3,9.4-21.9,9.9c0,1.1,0,2.2,0,3.2c0.1,1.1-0.3,1.8-1.3,2.3
			H105.5z"/>
		<path class="st1" d="M120,40.7c0,7.5-6.2,13.7-13.8,13.6c-7.5,0-13.6-6.2-13.6-13.7c0-7.5,6.2-13.7,13.8-13.6
			C114,27,120.1,33.1,120,40.7 M106.4,51.9c6.2,0,11.3-5.1,11.3-11.3c0-6.2-5.1-11.3-11.3-11.3c-6.2,0-11.3,5.1-11.3,11.3
			C95.1,46.9,100.2,52,106.4,51.9"/>
		<path class="st1" d="M78.1,44.8c0.9-0.1,1.7-0.3,2.6-0.4c0.2,0.8,0.3,1.6,0.5,2.5c-0.8,0.2-1.6,0.4-2.6,0.7
			C78.4,46.7,78.3,45.8,78.1,44.8"/>
		<path class="st1" d="M134.1,33.7c0.2,0.9,0.4,1.8,0.5,2.7c-0.9,0.1-1.7,0.3-2.6,0.4c-0.2-0.8-0.3-1.6-0.5-2.5
			C132.4,34.1,133.2,33.9,134.1,33.7"/>
		<path class="st1" d="M83.4,57.7c-0.5-0.8-1-1.5-1.6-2.3c0.7-0.5,1.5-0.9,2.3-1.4c0.5,0.7,0.9,1.4,1.4,2.1
			C84.8,56.6,84.1,57.1,83.4,57.7"/>
		<path class="st1" d="M128.6,27.3c-0.5-0.7-0.9-1.4-1.4-2.1c0.7-0.5,1.4-1,2.1-1.6c0.5,0.8,1,1.5,1.6,2.3
			C130.1,26.4,129.4,26.8,128.6,27.3"/>
		<path class="st1" d="M121.8,19.8c-0.7-0.5-1.4-0.9-2.1-1.4c0.5-0.8,0.9-1.5,1.4-2.3c0.8,0.5,1.5,1,2.3,1.6
			C122.9,18.3,122.4,19,121.8,19.8"/>
		<path class="st1" d="M130.8,31.9c-0.3-0.8-0.6-1.6-1-2.3c0.8-0.4,1.6-0.7,2.4-1.1c0.4,0.9,0.7,1.7,1.1,2.6
			C132.5,31.3,131.7,31.5,130.8,31.9"/>
		<path class="st1" d="M81.9,49.4c0.3,0.8,0.7,1.5,1,2.3c-0.8,0.4-1.6,0.8-2.4,1.1c-0.4-0.9-0.7-1.7-1.1-2.6
			C80.2,50,81,49.7,81.9,49.4"/>
		<path class="st1" d="M90.9,61.5c0.8,0.5,1.4,1,2.1,1.4c-0.5,0.8-0.9,1.5-1.4,2.3c-0.8-0.5-1.5-1-2.3-1.6
			C89.9,62.9,90.4,62.2,90.9,61.5"/>
		<path class="st1" d="M127.5,21.5c-0.6,0.5-1.2,1.1-1.9,1.7c-0.6-0.6-1.2-1.2-1.8-1.8c0.6-0.6,1.1-1.3,1.7-1.9
			C126.2,20.2,126.8,20.8,127.5,21.5"/>
		<path class="st1" d="M87.1,58.1c0.6,0.6,1.2,1.2,1.8,1.8c-0.5,0.6-1.1,1.2-1.7,1.9c-0.7-0.7-1.3-1.3-2-2
			C85.8,59.2,86.5,58.7,87.1,58.1"/>
		<path class="st1" d="M101.7,39c1.1,1.1,2.2,2.3,3.3,3.4c2.1-2.1,4-4.1,6-6c0.6,0.6,1.2,1.2,1.7,1.7c-2.5,2.5-5.1,5-7.6,7.6
			c-1.6-1.6-3.3-3.3-5-5C100.5,40.1,101.1,39.5,101.7,39"/>
		<g class="st2">
			<g>
				<defs>
					<rect id="SVGID_5_" x="5.5" y="49.3" width="5.5" height="2.7"/>
				</defs>
				<clipPath id="SVGID_6_">
					<use xlink:href="#SVGID_5_"  style="overflow:visible;"/>
				</clipPath>
				<rect x="5.5" y="49.3" class="st3" width="5.5" height="2.7"/>
			</g>
		</g>
		<g class="st2">
			<g>
				<defs>
					<rect id="SVGID_7_" x="5.5" y="74" width="5.5" height="2.7"/>
				</defs>
				<clipPath id="SVGID_8_">
					<use xlink:href="#SVGID_7_"  style="overflow:visible;"/>
				</clipPath>
				<rect x="5.5" y="74" class="st4" width="5.5" height="2.7"/>
			</g>
		</g>
		<g class="st2">
			<g>
				<defs>
					<rect id="SVGID_9_" x="13.7" y="74" width="5.5" height="2.7"/>
				</defs>
				<clipPath id="SVGID_10_">
					<use xlink:href="#SVGID_9_"  style="overflow:visible;"/>
				</clipPath>
				<rect x="13.7" y="74" class="st5" width="5.5" height="2.7"/>
			</g>
		</g>
		<g class="st2">
			<g>
				<defs>
					<rect id="SVGID_11_" x="21.9" y="74" width="38.4" height="2.7"/>
				</defs>
				<clipPath id="SVGID_12_">
					<use xlink:href="#SVGID_11_"  style="overflow:visible;"/>
				</clipPath>
				<rect x="21.9" y="74" class="st6" width="38.4" height="2.7"/>
			</g>
		</g>
		<g class="st2">
			<g>
				<defs>
					<rect id="SVGID_13_" x="13.7" y="49.3" width="5.5" height="2.7"/>
				</defs>
				<clipPath id="SVGID_14_">
					<use xlink:href="#SVGID_13_"  style="overflow:visible;"/>
				</clipPath>
				<rect x="13.7" y="49.3" class="st7" width="5.5" height="2.7"/>
			</g>
		</g>
		<g class="st2">
			<g>
				<defs>
					<rect id="SVGID_15_" x="21.9" y="49.3" width="5.5" height="2.7"/>
				</defs>
				<clipPath id="SVGID_16_">
					<use xlink:href="#SVGID_15_"  style="overflow:visible;"/>
				</clipPath>
				<rect x="21.9" y="49.3" class="st8" width="5.5" height="2.7"/>
			</g>
		</g>
		<g class="st2">
			<g>
				<defs>
					<rect id="SVGID_17_" x="30.1" y="49.3" width="5.5" height="2.7"/>
				</defs>
				<clipPath id="SVGID_18_">
					<use xlink:href="#SVGID_17_"  style="overflow:visible;"/>
				</clipPath>
				<rect x="30.1" y="49.3" class="st9" width="5.5" height="2.7"/>
			</g>
		</g>
		<g class="st2">
			<g>
				<defs>
					<rect id="SVGID_19_" x="38.4" y="49.3" width="5.5" height="2.7"/>
				</defs>
				<clipPath id="SVGID_20_">
					<use xlink:href="#SVGID_19_"  style="overflow:visible;"/>
				</clipPath>
				<rect x="38.4" y="49.3" class="st10" width="5.5" height="2.7"/>
			</g>
		</g>
		<g class="st2">
			<g>
				<defs>
					<rect id="SVGID_21_" x="46.6" y="49.3" width="5.5" height="2.7"/>
				</defs>
				<clipPath id="SVGID_22_">
					<use xlink:href="#SVGID_21_"  style="overflow:visible;"/>
				</clipPath>
				<rect x="46.6" y="49.3" class="st11" width="5.5" height="2.7"/>
			</g>
		</g>
		<g class="st2">
			<g>
				<defs>
					<rect id="SVGID_23_" x="54.8" y="49.3" width="5.5" height="2.7"/>
				</defs>
				<clipPath id="SVGID_24_">
					<use xlink:href="#SVGID_23_"  style="overflow:visible;"/>
				</clipPath>
				<rect x="54.8" y="49.3" class="st12" width="5.5" height="2.7"/>
			</g>
		</g>
		<g class="st2">
			<g>
				<defs>
					<rect id="SVGID_25_" x="63" y="49.3" width="5.5" height="2.7"/>
				</defs>
				<clipPath id="SVGID_26_">
					<use xlink:href="#SVGID_25_"  style="overflow:visible;"/>
				</clipPath>
				<rect x="63" y="49.3" class="st13" width="5.5" height="2.7"/>
			</g>
		</g>
		<g class="st2">
			<g>
				<defs>
					<rect id="SVGID_27_" x="63" y="74" width="5.5" height="2.7"/>
				</defs>
				<clipPath id="SVGID_28_">
					<use xlink:href="#SVGID_27_"  style="overflow:visible;"/>
				</clipPath>
				<rect x="63" y="74" class="st14" width="5.5" height="2.7"/>
			</g>
		</g>
		<g class="st2">
			<g>
				<defs>
					<rect id="SVGID_29_" x="71.2" y="74" width="5.5" height="2.7"/>
				</defs>
				<clipPath id="SVGID_30_">
					<use xlink:href="#SVGID_29_"  style="overflow:visible;"/>
				</clipPath>
				<rect x="71.2" y="74" class="st15" width="5.5" height="2.7"/>
			</g>
		</g>
		<g class="st2">
			<g>
				<defs>
					<rect id="SVGID_31_" x="6.8" y="56.2" width="2.7" height="2.7"/>
				</defs>
				<clipPath id="SVGID_32_">
					<use xlink:href="#SVGID_31_"  style="overflow:visible;"/>
				</clipPath>
				<rect x="6.8" y="56.2" class="st16" width="2.7" height="2.7"/>
			</g>
		</g>
		<g class="st2">
			<g>
				<defs>
					<rect id="SVGID_33_" x="12.3" y="56.2" width="2.7" height="2.7"/>
				</defs>
				<clipPath id="SVGID_34_">
					<use xlink:href="#SVGID_33_"  style="overflow:visible;"/>
				</clipPath>
				<rect x="12.3" y="56.2" class="st17" width="2.7" height="2.7"/>
			</g>
		</g>
		<g class="st2">
			<g>
				<defs>
					<rect id="SVGID_35_" x="17.8" y="56.2" width="2.7" height="2.7"/>
				</defs>
				<clipPath id="SVGID_36_">
					<use xlink:href="#SVGID_35_"  style="overflow:visible;"/>
				</clipPath>
				<rect x="17.8" y="56.2" class="st18" width="2.7" height="2.7"/>
			</g>
		</g>
		<g class="st2">
			<g>
				<defs>
					<rect id="SVGID_37_" x="23.3" y="56.2" width="2.7" height="2.7"/>
				</defs>
				<clipPath id="SVGID_38_">
					<use xlink:href="#SVGID_37_"  style="overflow:visible;"/>
				</clipPath>
				<rect x="23.3" y="56.2" class="st19" width="2.7" height="2.7"/>
			</g>
		</g>
		<g class="st2">
			<g>
				<defs>
					<rect id="SVGID_39_" x="28.8" y="56.2" width="2.7" height="2.7"/>
				</defs>
				<clipPath id="SVGID_40_">
					<use xlink:href="#SVGID_39_"  style="overflow:visible;"/>
				</clipPath>
				<rect x="28.8" y="56.2" class="st20" width="2.7" height="2.7"/>
			</g>
		</g>
		<g class="st2">
			<g>
				<defs>
					<rect id="SVGID_41_" x="34.2" y="56.2" width="2.7" height="2.7"/>
				</defs>
				<clipPath id="SVGID_42_">
					<use xlink:href="#SVGID_41_"  style="overflow:visible;"/>
				</clipPath>
				<rect x="34.2" y="56.2" class="st21" width="2.7" height="2.7"/>
			</g>
		</g>
		<g class="st2">
			<g>
				<defs>
					<rect id="SVGID_43_" x="39.7" y="56.2" width="2.7" height="2.7"/>
				</defs>
				<clipPath id="SVGID_44_">
					<use xlink:href="#SVGID_43_"  style="overflow:visible;"/>
				</clipPath>
				<rect x="39.7" y="56.2" class="st22" width="2.7" height="2.7"/>
			</g>
		</g>
		<g class="st2">
			<g>
				<defs>
					<rect id="SVGID_45_" x="45.2" y="56.2" width="2.7" height="2.7"/>
				</defs>
				<clipPath id="SVGID_46_">
					<use xlink:href="#SVGID_45_"  style="overflow:visible;"/>
				</clipPath>
				<rect x="45.2" y="56.2" class="st23" width="2.7" height="2.7"/>
			</g>
		</g>
		<g class="st2">
			<g>
				<defs>
					<rect id="SVGID_47_" x="50.7" y="56.2" width="2.7" height="2.7"/>
				</defs>
				<clipPath id="SVGID_48_">
					<use xlink:href="#SVGID_47_"  style="overflow:visible;"/>
				</clipPath>
				<rect x="50.7" y="56.2" class="st24" width="2.7" height="2.7"/>
			</g>
		</g>
		<g class="st2">
			<g>
				<defs>
					<rect id="SVGID_49_" x="56.2" y="56.2" width="2.7" height="2.7"/>
				</defs>
				<clipPath id="SVGID_50_">
					<use xlink:href="#SVGID_49_"  style="overflow:visible;"/>
				</clipPath>
				<rect x="56.2" y="56.2" class="st25" width="2.7" height="2.7"/>
			</g>
		</g>
		<g class="st2">
			<g>
				<defs>
					<rect id="SVGID_51_" x="61.6" y="56.2" width="2.7" height="2.7"/>
				</defs>
				<clipPath id="SVGID_52_">
					<use xlink:href="#SVGID_51_"  style="overflow:visible;"/>
				</clipPath>
				<rect x="61.6" y="56.2" class="st26" width="2.7" height="2.7"/>
			</g>
		</g>
		<g class="st2">
			<g>
				<defs>
					<rect id="SVGID_53_" x="67.1" y="56.2" width="2.7" height="2.7"/>
				</defs>
				<clipPath id="SVGID_54_">
					<use xlink:href="#SVGID_53_"  style="overflow:visible;"/>
				</clipPath>
				<rect x="67.1" y="56.2" class="st27" width="2.7" height="2.7"/>
			</g>
		</g>
		<g class="st2">
			<g>
				<defs>
					<rect id="SVGID_55_" x="72.6" y="56.2" width="2.7" height="2.7"/>
				</defs>
				<clipPath id="SVGID_56_">
					<use xlink:href="#SVGID_55_"  style="overflow:visible;"/>
				</clipPath>
				<rect x="72.6" y="56.2" class="st28" width="2.7" height="2.7"/>
			</g>
		</g>
		<g class="st2">
			<g>
				<defs>
					<rect id="SVGID_57_" x="6.8" y="61.6" width="2.7" height="2.7"/>
				</defs>
				<clipPath id="SVGID_58_">
					<use xlink:href="#SVGID_57_"  style="overflow:visible;"/>
				</clipPath>
				<rect x="6.8" y="61.6" class="st29" width="2.7" height="2.7"/>
			</g>
		</g>
		<g class="st2">
			<g>
				<defs>
					<rect id="SVGID_59_" x="12.3" y="61.6" width="2.7" height="2.7"/>
				</defs>
				<clipPath id="SVGID_60_">
					<use xlink:href="#SVGID_59_"  style="overflow:visible;"/>
				</clipPath>
				<rect x="12.3" y="61.6" class="st30" width="2.7" height="2.7"/>
			</g>
		</g>
		<g class="st2">
			<g>
				<defs>
					<rect id="SVGID_61_" x="17.8" y="61.6" width="2.7" height="2.7"/>
				</defs>
				<clipPath id="SVGID_62_">
					<use xlink:href="#SVGID_61_"  style="overflow:visible;"/>
				</clipPath>
				<rect x="17.8" y="61.6" class="st31" width="2.7" height="2.7"/>
			</g>
		</g>
		<g class="st2">
			<g>
				<defs>
					<rect id="SVGID_63_" x="23.3" y="61.6" width="2.7" height="2.7"/>
				</defs>
				<clipPath id="SVGID_64_">
					<use xlink:href="#SVGID_63_"  style="overflow:visible;"/>
				</clipPath>
				<rect x="23.3" y="61.6" class="st32" width="2.7" height="2.7"/>
			</g>
		</g>
		<g class="st2">
			<g>
				<defs>
					<rect id="SVGID_65_" x="28.8" y="61.6" width="2.7" height="2.7"/>
				</defs>
				<clipPath id="SVGID_66_">
					<use xlink:href="#SVGID_65_"  style="overflow:visible;"/>
				</clipPath>
				<rect x="28.8" y="61.6" class="st33" width="2.7" height="2.7"/>
			</g>
		</g>
		<g class="st2">
			<g>
				<defs>
					<rect id="SVGID_67_" x="34.2" y="61.6" width="2.7" height="2.7"/>
				</defs>
				<clipPath id="SVGID_68_">
					<use xlink:href="#SVGID_67_"  style="overflow:visible;"/>
				</clipPath>
				<rect x="34.2" y="61.6" class="st34" width="2.7" height="2.7"/>
			</g>
		</g>
		<g class="st2">
			<g>
				<defs>
					<rect id="SVGID_69_" x="39.7" y="61.6" width="2.7" height="2.7"/>
				</defs>
				<clipPath id="SVGID_70_">
					<use xlink:href="#SVGID_69_"  style="overflow:visible;"/>
				</clipPath>
				<rect x="39.7" y="61.6" class="st35" width="2.7" height="2.7"/>
			</g>
		</g>
		<g class="st2">
			<g>
				<defs>
					<rect id="SVGID_71_" x="45.2" y="61.6" width="2.7" height="2.7"/>
				</defs>
				<clipPath id="SVGID_72_">
					<use xlink:href="#SVGID_71_"  style="overflow:visible;"/>
				</clipPath>
				<rect x="45.2" y="61.6" class="st36" width="2.7" height="2.7"/>
			</g>
		</g>
		<g class="st2">
			<g>
				<defs>
					<rect id="SVGID_73_" x="50.7" y="61.6" width="2.7" height="2.7"/>
				</defs>
				<clipPath id="SVGID_74_">
					<use xlink:href="#SVGID_73_"  style="overflow:visible;"/>
				</clipPath>
				<rect x="50.7" y="61.6" class="st37" width="2.7" height="2.7"/>
			</g>
		</g>
		<g class="st2">
			<g>
				<defs>
					<rect id="SVGID_75_" x="56.2" y="61.6" width="2.7" height="2.7"/>
				</defs>
				<clipPath id="SVGID_76_">
					<use xlink:href="#SVGID_75_"  style="overflow:visible;"/>
				</clipPath>
				<rect x="56.2" y="61.6" class="st38" width="2.7" height="2.7"/>
			</g>
		</g>
		<g class="st2">
			<g>
				<defs>
					<rect id="SVGID_77_" x="61.6" y="61.6" width="2.7" height="2.7"/>
				</defs>
				<clipPath id="SVGID_78_">
					<use xlink:href="#SVGID_77_"  style="overflow:visible;"/>
				</clipPath>
				<rect x="61.6" y="61.6" class="st39" width="2.7" height="2.7"/>
			</g>
		</g>
		<g class="st2">
			<g>
				<defs>
					<rect id="SVGID_79_" x="6.8" y="67.1" width="2.7" height="2.7"/>
				</defs>
				<clipPath id="SVGID_80_">
					<use xlink:href="#SVGID_79_"  style="overflow:visible;"/>
				</clipPath>
				<rect x="6.8" y="67.1" class="st40" width="2.7" height="2.7"/>
			</g>
		</g>
		<g class="st2">
			<g>
				<defs>
					<rect id="SVGID_81_" x="12.3" y="67.1" width="2.7" height="2.7"/>
				</defs>
				<clipPath id="SVGID_82_">
					<use xlink:href="#SVGID_81_"  style="overflow:visible;"/>
				</clipPath>
				<rect x="12.3" y="67.1" class="st41" width="2.7" height="2.7"/>
			</g>
		</g>
		<g class="st2">
			<g>
				<defs>
					<rect id="SVGID_83_" x="17.8" y="67.1" width="2.7" height="2.7"/>
				</defs>
				<clipPath id="SVGID_84_">
					<use xlink:href="#SVGID_83_"  style="overflow:visible;"/>
				</clipPath>
				<rect x="17.8" y="67.1" class="st42" width="2.7" height="2.7"/>
			</g>
		</g>
		<g class="st2">
			<g>
				<defs>
					<rect id="SVGID_85_" x="23.3" y="67.1" width="2.7" height="2.7"/>
				</defs>
				<clipPath id="SVGID_86_">
					<use xlink:href="#SVGID_85_"  style="overflow:visible;"/>
				</clipPath>
				<rect x="23.3" y="67.1" class="st43" width="2.7" height="2.7"/>
			</g>
		</g>
		<g class="st2">
			<g>
				<defs>
					<rect id="SVGID_87_" x="28.8" y="67.1" width="2.7" height="2.7"/>
				</defs>
				<clipPath id="SVGID_88_">
					<use xlink:href="#SVGID_87_"  style="overflow:visible;"/>
				</clipPath>
				<rect x="28.8" y="67.1" class="st44" width="2.7" height="2.7"/>
			</g>
		</g>
		<g class="st2">
			<g>
				<defs>
					<rect id="SVGID_89_" x="34.2" y="67.1" width="2.7" height="2.7"/>
				</defs>
				<clipPath id="SVGID_90_">
					<use xlink:href="#SVGID_89_"  style="overflow:visible;"/>
				</clipPath>
				<rect x="34.2" y="67.1" class="st45" width="2.7" height="2.7"/>
			</g>
		</g>
		<g class="st2">
			<g>
				<defs>
					<rect id="SVGID_91_" x="39.7" y="67.1" width="2.7" height="2.7"/>
				</defs>
				<clipPath id="SVGID_92_">
					<use xlink:href="#SVGID_91_"  style="overflow:visible;"/>
				</clipPath>
				<rect x="39.7" y="67.1" class="st46" width="2.7" height="2.7"/>
			</g>
		</g>
		<g class="st2">
			<g>
				<defs>
					<rect id="SVGID_93_" x="45.2" y="67.1" width="2.7" height="2.7"/>
				</defs>
				<clipPath id="SVGID_94_">
					<use xlink:href="#SVGID_93_"  style="overflow:visible;"/>
				</clipPath>
				<rect x="45.2" y="67.1" class="st47" width="2.7" height="2.7"/>
			</g>
		</g>
		<g class="st2">
			<g>
				<defs>
					<rect id="SVGID_95_" x="50.7" y="67.1" width="2.7" height="2.7"/>
				</defs>
				<clipPath id="SVGID_96_">
					<use xlink:href="#SVGID_95_"  style="overflow:visible;"/>
				</clipPath>
				<rect x="50.7" y="67.1" class="st48" width="2.7" height="2.7"/>
			</g>
		</g>
		<g class="st2">
			<g>
				<defs>
					<rect id="SVGID_97_" x="56.2" y="67.1" width="2.7" height="2.7"/>
				</defs>
				<clipPath id="SVGID_98_">
					<use xlink:href="#SVGID_97_"  style="overflow:visible;"/>
				</clipPath>
				<rect x="56.2" y="67.1" class="st49" width="2.7" height="2.7"/>
			</g>
		</g>
		<g class="st2">
			<g>
				<defs>
					<rect id="SVGID_99_" x="61.6" y="67.1" width="2.7" height="2.7"/>
				</defs>
				<clipPath id="SVGID_100_">
					<use xlink:href="#SVGID_99_"  style="overflow:visible;"/>
				</clipPath>
				<rect x="61.6" y="67.1" class="st50" width="2.7" height="2.7"/>
			</g>
		</g>
		<g class="st2">
			<g>
				<defs>
					<rect id="SVGID_101_" x="67.1" y="61.6" width="8.2" height="8.2"/>
				</defs>
				<clipPath id="SVGID_102_">
					<use xlink:href="#SVGID_101_"  style="overflow:visible;"/>
				</clipPath>
				<path class="st51" d="M67.1,69.9H74c0.8,0,1.4-0.5,1.4-1.4v-6.8h-2.7v5.5h-5.5V69.9z"/>
			</g>
		</g>
		<g class="st2">
			<g>
				<defs>
					<rect id="SVGID_103_" x="67.1" y="61.6" width="2.7" height="2.7"/>
				</defs>
				<clipPath id="SVGID_104_">
					<use xlink:href="#SVGID_103_"  style="overflow:visible;"/>
				</clipPath>
				<rect x="67.1" y="61.6" class="st52" width="2.7" height="2.7"/>
			</g>
		</g>
		<rect x="5.5" y="5.5" class="st1" width="2.7" height="2.7"/>
		<rect x="11" y="5.5" class="st1" width="2.7" height="2.7"/>
		<rect x="16.4" y="5.5" class="st1" width="2.7" height="2.7"/>
		<g class="st2">
			<g>
				<defs>
					<rect id="SVGID_105_" x="16.4" y="16.4" width="2.7" height="23.3"/>
				</defs>
				<clipPath id="SVGID_106_">
					<use xlink:href="#SVGID_105_"  style="overflow:visible;"/>
				</clipPath>
				<rect x="16.4" y="16.4" class="st53" width="2.7" height="23.3"/>
			</g>
		</g>
		<g class="st2">
			<g>
				<defs>
					<rect id="SVGID_107_" x="6.8" y="17.8" width="5.5" height="2.7"/>
				</defs>
				<clipPath id="SVGID_108_">
					<use xlink:href="#SVGID_107_"  style="overflow:visible;"/>
				</clipPath>
				<rect x="6.8" y="17.8" class="st54" width="5.5" height="2.7"/>
			</g>
		</g>
		<g class="st2">
			<g>
				<defs>
					<rect id="SVGID_109_" x="6.8" y="26" width="5.5" height="2.7"/>
				</defs>
				<clipPath id="SVGID_110_">
					<use xlink:href="#SVGID_109_"  style="overflow:visible;"/>
				</clipPath>
				<rect x="6.8" y="26" class="st55" width="5.5" height="2.7"/>
			</g>
		</g>
		<g class="st2">
			<g>
				<defs>
					<rect id="SVGID_111_" x="6.8" y="34.2" width="5.5" height="2.7"/>
				</defs>
				<clipPath id="SVGID_112_">
					<use xlink:href="#SVGID_111_"  style="overflow:visible;"/>
				</clipPath>
				<rect x="6.8" y="34.2" class="st56" width="5.5" height="2.7"/>
			</g>
		</g>
		<g class="st2">
			<g>
				<defs>
					<rect id="SVGID_113_" x="23.3" y="17.8" width="5.5" height="2.7"/>
				</defs>
				<clipPath id="SVGID_114_">
					<use xlink:href="#SVGID_113_"  style="overflow:visible;"/>
				</clipPath>
				<rect x="23.3" y="17.8" class="st57" width="5.5" height="2.7"/>
			</g>
		</g>
		<g class="st2">
			<g>
				<defs>
					<rect id="SVGID_115_" x="31.5" y="17.8" width="21.9" height="2.7"/>
				</defs>
				<clipPath id="SVGID_116_">
					<use xlink:href="#SVGID_115_"  style="overflow:visible;"/>
				</clipPath>
				<rect x="31.5" y="17.8" class="st58" width="21.9" height="2.7"/>
			</g>
		</g>
		<g class="st2">
			<g>
				<defs>
					<rect id="SVGID_117_" x="56.2" y="17.8" width="5.5" height="2.7"/>
				</defs>
				<clipPath id="SVGID_118_">
					<use xlink:href="#SVGID_117_"  style="overflow:visible;"/>
				</clipPath>
				<rect x="56.2" y="17.8" class="st59" width="5.5" height="2.7"/>
			</g>
		</g>
		<g class="st2">
			<g>
				<defs>
					<rect id="SVGID_119_" x="64.4" y="17.8" width="11" height="2.7"/>
				</defs>
				<clipPath id="SVGID_120_">
					<use xlink:href="#SVGID_119_"  style="overflow:visible;"/>
				</clipPath>
				<rect x="64.4" y="17.8" class="st60" width="11" height="2.7"/>
			</g>
		</g>
		<g class="st2">
			<g>
				<defs>
					<rect id="SVGID_121_" x="23.3" y="26" width="19.2" height="2.7"/>
				</defs>
				<clipPath id="SVGID_122_">
					<use xlink:href="#SVGID_121_"  style="overflow:visible;"/>
				</clipPath>
				<rect x="23.3" y="26" class="st61" width="19.2" height="2.7"/>
			</g>
		</g>
		<g class="st2">
			<g>
				<defs>
					<rect id="SVGID_123_" x="37" y="34.2" width="5.5" height="2.7"/>
				</defs>
				<clipPath id="SVGID_124_">
					<use xlink:href="#SVGID_123_"  style="overflow:visible;"/>
				</clipPath>
				<rect x="37" y="34.2" class="st62" width="5.5" height="2.7"/>
			</g>
		</g>
		<g class="st2">
			<g>
				<defs>
					<rect id="SVGID_125_" x="23.3" y="34.2" width="11" height="2.7"/>
				</defs>
				<clipPath id="SVGID_126_">
					<use xlink:href="#SVGID_125_"  style="overflow:visible;"/>
				</clipPath>
				<rect x="23.3" y="34.2" class="st63" width="11" height="2.7"/>
			</g>
		</g>
		<g class="st2">
			<g>
				<defs>
					<rect id="SVGID_127_" x="47.9" y="26.4" width="6.4" height="10.1"/>
				</defs>
				<clipPath id="SVGID_128_">
					<use xlink:href="#SVGID_127_"  style="overflow:visible;"/>
				</clipPath>
				<path class="st64" d="M52.5,26.4l-4.1,4.1c-0.5,0.5-0.5,1.4,0,1.9l4.1,4.1l1.9-1.9l-3.2-3.2l3.2-3.1L52.5,26.4z"/>
			</g>
		</g>
		<g class="st2">
			<g>
				<defs>
					<rect id="SVGID_129_" x="66.2" y="26.4" width="6.4" height="10.1"/>
				</defs>
				<clipPath id="SVGID_130_">
					<use xlink:href="#SVGID_129_"  style="overflow:visible;"/>
				</clipPath>
				<path class="st65" d="M68.1,36.6l4.1-4.1c0.5-0.5,0.5-1.4,0-1.9l-4.1-4.1l-1.9,1.9l3.2,3.2l-3.2,3.1L68.1,36.6z"/>
			</g>
		</g>
		<g class="st2">
			<g>
				<defs>
					<rect id="SVGID_131_" x="56.3" y="25.4" width="7.9" height="12.1"/>
				</defs>
				<clipPath id="SVGID_132_">
					<use xlink:href="#SVGID_131_"  style="overflow:visible;"/>
				</clipPath>
				
					<rect x="54.2" y="30.1" transform="matrix(-0.4472 0.8944 -0.8944 -0.4472 115.3806 -8.3098)" class="st66" width="12.2" height="2.7"/>
			</g>
		</g>
		<path class="st1" d="M79.4,18.3c0.9-1,1.8-2,2.7-2.9v-14c0-0.8-0.5-1.4-1.4-1.4H1.4C0.5,0,0,0.5,0,1.4v38.4h2.7v-26h76.7V18.3z
			 M2.7,2.7h76.7V11H2.7V2.7z"/>
		<path class="st1" d="M79.4,57.8v21.6H2.7V46.6H75c-0.2-0.9-0.3-1.8-0.4-2.7H2.7c-1.6,0-2.7,1.1-2.7,2.7v32.9
			c0,1.6,1.1,2.7,2.7,2.7h76.7c1.6,0,2.7-1.1,2.7-2.7v-18C81.2,60.3,80.3,59.1,79.4,57.8"/>
		<g class="st2">
			<g>
				<defs>
					<rect id="SVGID_133_" x="71.2" y="49.3" width="5.3" height="2.7"/>
				</defs>
				<clipPath id="SVGID_134_">
					<use xlink:href="#SVGID_133_"  style="overflow:visible;"/>
				</clipPath>
				<path class="st67" d="M75.6,49.3h-4.4V52h5.3C76.2,51.2,75.9,50.2,75.6,49.3"/>
			</g>
		</g>
		<g class="st68">
			<g>
				<defs>
					<rect id="SVGID_135_" x="94.1" y="28.1" width="24.8" height="24.8"/>
				</defs>
				<clipPath id="SVGID_136_">
					<use xlink:href="#SVGID_135_"  style="overflow:visible;"/>
				</clipPath>
				<path class="st69" d="M118.9,40.6c0,6.9-5.6,12.4-12.4,12.4c-6.9,0-12.4-5.6-12.4-12.4s5.6-12.4,12.4-12.4
					C113.3,28.1,118.9,33.7,118.9,40.6"/>
			</g>
		</g>
	</g>
</g>
</svg>
