<?xml version="1.0" encoding="utf-8"?>
<!-- Generator: Adobe Illustrator 19.1.0, SVG Export Plug-In . SVG Version: 6.00 Build 0)  -->
<svg version="1.1" id="Layer_1" xmlns="http://www.w3.org/2000/svg" xmlns:xlink="http://www.w3.org/1999/xlink" x="0px" y="0px"
	 viewBox="0 0 145.3 87.6" style="enable-background:new 0 0 145.3 87.6;" xml:space="preserve">
<style type="text/css">
	.st0{clip-path:url(#SVGID_2_);}
	.st1{opacity:0.6;clip-path:url(#SVGID_4_);}
	.st2{clip-path:url(#SVGID_6_);fill:#FFFFFF;}
	.st3{clip-path:url(#SVGID_8_);fill:#FFFFFF;}
	.st4{clip-path:url(#SVGID_10_);fill:#FFFFFF;}
	.st5{clip-path:url(#SVGID_12_);fill:#FFFFFF;}
	.st6{clip-path:url(#SVGID_14_);fill:#FFFFFF;}
	.st7{clip-path:url(#SVGID_16_);fill:#FFFFFF;}
	.st8{clip-path:url(#SVGID_18_);fill:#FFFFFF;}
	.st9{clip-path:url(#SVGID_4_);fill:#FFFFFF;}
	.st10{clip-path:url(#SVGID_20_);fill:#FFFFFF;}
	.st11{opacity:0.3;clip-path:url(#SVGID_4_);}
	.st12{clip-path:url(#SVGID_22_);fill:#FFFFFF;}
</style>
<g>
	<defs>
		<rect id="SVGID_1_" width="145.3" height="87.6"/>
	</defs>
	<clipPath id="SVGID_2_">
		<use xlink:href="#SVGID_1_"  style="overflow:visible;"/>
	</clipPath>
	<g class="st0">
		<defs>
			<rect id="SVGID_3_" width="145.3" height="87.6"/>
		</defs>
		<clipPath id="SVGID_4_">
			<use xlink:href="#SVGID_3_"  style="overflow:visible;"/>
		</clipPath>
		<g class="st1">
			<g>
				<defs>
					<rect id="SVGID_5_" x="9.3" y="9.3" width="34.1" height="40.3"/>
				</defs>
				<clipPath id="SVGID_6_">
					<use xlink:href="#SVGID_5_"  style="overflow:visible;"/>
				</clipPath>
				<path class="st2" d="M10.8,49.6h31c0.9,0,1.5-0.6,1.5-1.5V10.8c0-0.9-0.6-1.5-1.5-1.5h-31c-0.9,0-1.5,0.6-1.5,1.5V48
					C9.3,49,9.9,49.6,10.8,49.6 M12.4,23.2h9.3v23.2h-9.3V23.2z M24.8,23.2h15.5v23.2H24.8V23.2z M40.3,20.1H24.8v-7.7h15.5V20.1z
					 M21.7,20.1h-9.3v-7.7h9.3V20.1z"/>
			</g>
		</g>
		<g class="st1">
			<g>
				<defs>
					<rect id="SVGID_7_" x="15.5" y="26.3" width="3.1" height="3.1"/>
				</defs>
				<clipPath id="SVGID_8_">
					<use xlink:href="#SVGID_7_"  style="overflow:visible;"/>
				</clipPath>
				<rect x="15.5" y="26.3" class="st3" width="3.1" height="3.1"/>
			</g>
		</g>
		<g class="st1">
			<g>
				<defs>
					<rect id="SVGID_9_" x="15.5" y="34.1" width="3.1" height="3.1"/>
				</defs>
				<clipPath id="SVGID_10_">
					<use xlink:href="#SVGID_9_"  style="overflow:visible;"/>
				</clipPath>
				<rect x="15.5" y="34.1" class="st4" width="3.1" height="3.1"/>
			</g>
		</g>
		<g class="st1">
			<g>
				<defs>
					<rect id="SVGID_11_" x="15.5" y="40.3" width="3.1" height="3.1"/>
				</defs>
				<clipPath id="SVGID_12_">
					<use xlink:href="#SVGID_11_"  style="overflow:visible;"/>
				</clipPath>
				<rect x="15.5" y="40.3" class="st5" width="3.1" height="3.1"/>
			</g>
		</g>
		<g class="st1">
			<g>
				<defs>
					<rect id="SVGID_13_" x="49.6" y="31" width="14.9" height="3.1"/>
				</defs>
				<clipPath id="SVGID_14_">
					<use xlink:href="#SVGID_13_"  style="overflow:visible;"/>
				</clipPath>
				<rect x="49.6" y="31" class="st6" width="14.9" height="3.1"/>
			</g>
		</g>
		<g class="st1">
			<g>
				<defs>
					<rect id="SVGID_15_" x="49.6" y="38.7" width="14.9" height="3.1"/>
				</defs>
				<clipPath id="SVGID_16_">
					<use xlink:href="#SVGID_15_"  style="overflow:visible;"/>
				</clipPath>
				<rect x="49.6" y="38.7" class="st7" width="14.9" height="3.1"/>
			</g>
		</g>
		<g class="st1">
			<g>
				<defs>
					<rect id="SVGID_17_" x="49.6" y="46.5" width="14.9" height="3.1"/>
				</defs>
				<clipPath id="SVGID_18_">
					<use xlink:href="#SVGID_17_"  style="overflow:visible;"/>
				</clipPath>
				<rect x="49.6" y="46.5" class="st8" width="14.9" height="3.1"/>
			</g>
		</g>
		<path class="st9" d="M51.8,74.4h-4.6v-7.7h17.7v-3.1H3.1v-6.2h61.7v-3.1H3.1V3.1h77.5V5c1-0.7,2-1.3,3.1-1.8V1.5
			c0-0.9-0.6-1.5-1.5-1.5H1.5C0.6,0,0,0.6,0,1.5v63.5c0,0.9,0.6,1.5,1.5,1.5H44v7.7h-4.6c-0.9,0-1.5,0.6-1.5,1.5v6.2
			c0,0.9,0.6,1.6,1.5,1.6h12.4c0.9,0,1.5-0.6,1.5-1.6v-6.2C53.3,75,52.7,74.4,51.8,74.4 M50.2,80.6h-9.3v-3.1h9.3V80.6z"/>
		<g class="st1">
			<g>
				<defs>
					<rect id="SVGID_19_" x="49.6" y="9.3" width="24.8" height="17"/>
				</defs>
				<clipPath id="SVGID_20_">
					<use xlink:href="#SVGID_19_"  style="overflow:visible;"/>
				</clipPath>
				<path class="st10" d="M69.9,25.3c0-0.7,0-1.4,0.1-2.1H52.7V12.4h18.6v4.8c0.8-2.2,1.8-4.2,3.1-6v-0.3c0-0.9-0.6-1.5-1.5-1.5
					H51.1c-0.9,0-1.5,0.6-1.5,1.5v13.9c0,0.9,0.6,1.5,1.5,1.5h18.8C69.9,26,69.9,25.7,69.9,25.3"/>
			</g>
		</g>
		<path class="st9" d="M132.7,70.9v5l-5.3-5.3c2.5-4.6,3.9-9.5,3.9-14.5v-0.6h2.8v-2.8h-2.8V40.2c0-0.8-0.6-1.4-1.4-1.4h-9.8v-8.4
			c0-0.8-0.6-1.4-1.4-1.4h-4.2v-4.2c0-11.5-9.4-20.9-20.9-20.9s-20.9,9.4-20.9,20.9v4.2h-4.2c-0.8,0-1.4,0.6-1.4,1.4v9.8v7v7v7v7
			v4.2c0,3.8,3.1,7,7,7h23c3.1,3.1,6.9,5.9,11.2,8.2c0.2,0.1,0.4,0.2,0.7,0.2s0.5-0.1,0.7-0.2c7-3.8,12.6-8.7,16.3-14.4l4.8,4.8h-5
			v2.8h8.4c0.8,0,1.4-0.6,1.4-1.4v-8.4H132.7z M75.5,24.9c0-10,8.1-18.1,18.1-18.1s18.1,8.1,18.1,18.1v4.2h-4.2v-4.2
			c0-7.7-6.3-13.9-13.9-13.9c-7.7,0-13.9,6.3-13.9,13.9v4.2h-4.2V24.9z M104.8,24.9v4.2H82.5v-4.2c0-6.2,5-11.2,11.2-11.2
			C99.8,13.7,104.8,18.7,104.8,24.9 M70,41.6h8.4v4.2H70V41.6z M70,48.6h8.4v4.2H70V48.6z M70,55.5h8.4v4.2H70V55.5z M70,62.5h8.4
			v4.2H70V62.5z M74.1,76.5c-2.3,0-4.2-1.9-4.2-4.2v-2.8h9.8c0.8,0,1.4-0.6,1.4-1.4v-7v-7v-7v-7c0-0.8-0.6-1.4-1.4-1.4H70v-7h47.4v7
			H88.1c-0.8,0-1.4,0.6-1.4,1.4v15.9c0,7.3,2.8,14.3,7.9,20.4H74.1z M109,84.6c-12.2-6.8-19.5-17.4-19.5-28.5V41.6h39v11.2h-2.8v-7
			c0-0.8-0.6-1.4-1.4-1.4H93.7c-0.8,0-1.4,0.6-1.4,1.4v7.6c0,11.3,6.2,21.7,16.1,27.1c0.2,0.1,0.4,0.2,0.7,0.2s0.5-0.1,0.7-0.2
			c5.1-2.8,9.2-6.9,12-11.7l2.3,2.3C120.6,76.4,115.5,81,109,84.6 M109,52.8c-0.6,0-1.1,0.3-1.3,0.9c-0.2,0.5-0.1,1.1,0.3,1.5
			l11.6,11.6c-2.4,4.5-6,8.3-10.6,10.9c-8.6-5-13.9-14.2-13.9-24.2v-6.2H123v5.6H109z M122.9,55.5c-0.2,3-0.9,5.8-2,8.5l-8.5-8.5
			H122.9z M125.4,68.6l-2.4-2.4c1.5-3.3,2.4-6.9,2.7-10.6h2.9v0.6C128.5,60.4,127.4,64.6,125.4,68.6"/>
		<rect x="136.9" y="52.8" class="st9" width="2.8" height="2.8"/>
		<rect x="142.5" y="52.8" class="st9" width="2.8" height="2.8"/>
		<rect x="141.4" y="15.1" class="st9" width="2.8" height="2.8"/>
		<path class="st9" d="M143.8,29.1h-11.9l3.2-3.2l-2-2l-5.6,5.6c-0.5,0.5-0.5,1.4,0,2l5.6,5.6l2-2l-3.2-3.2h11.9V29.1z"/>
		<path class="st9" d="M144.5,41.6h-5.6l3.2-3.2l-2-2l-5.6,5.6c-0.5,0.5-0.5,1.4,0,2l5.6,5.6l2-2l-3.2-3.2h5.6V41.6z"/>
		<path class="st9" d="M138.6,15.1h-14l3.2-3.2l-2-2l-5.6,5.6c-0.5,0.5-0.5,1.4,0,2l5.6,5.6l2-2l-3.2-3.2h14V15.1z"/>
		<g class="st11">
			<g>
				<defs>
					<rect id="SVGID_21_" x="87.6" y="40.5" width="42.6" height="46"/>
				</defs>
				<clipPath id="SVGID_22_">
					<use xlink:href="#SVGID_21_"  style="overflow:visible;"/>
				</clipPath>
				<path class="st12" d="M108.2,86.5c0,0-17.2-12-19.5-20.8c-2.3-8.8-0.3-25.2-0.3-25.2h41.5c0,0,1,19.8-0.7,24.2
					C127.5,69,114.9,85.6,108.2,86.5"/>
			</g>
		</g>
	</g>
</g>
</svg>
