<?xml version="1.0" encoding="utf-8"?>
<!-- Generator: Adobe Illustrator 19.1.0, SVG Export Plug-In . SVG Version: 6.00 Build 0)  -->
<svg version="1.1" id="Layer_1" xmlns="http://www.w3.org/2000/svg" xmlns:xlink="http://www.w3.org/1999/xlink" x="0px" y="0px"
	 viewBox="0 0 142.1 89.7" style="enable-background:new 0 0 142.1 89.7;" xml:space="preserve">
<style type="text/css">
	.st0{clip-path:url(#SVGID_2_);}
	.st1{clip-path:url(#SVGID_4_);fill:#FFFFFF;}
	.st2{opacity:0.6;clip-path:url(#SVGID_4_);}
	.st3{clip-path:url(#SVGID_6_);fill:#FFFFFF;}
	.st4{clip-path:url(#SVGID_8_);fill:#FFFFFF;}
	.st5{clip-path:url(#SVGID_10_);fill:#FFFFFF;}
	.st6{clip-path:url(#SVGID_12_);fill:#FFFFFF;}
	.st7{clip-path:url(#SVGID_14_);fill:#FFFFFF;}
	.st8{clip-path:url(#SVGID_16_);fill:#FFFFFF;}
	.st9{clip-path:url(#SVGID_18_);fill:#FFFFFF;}
	.st10{clip-path:url(#SVGID_20_);fill:#FFFFFF;}
	.st11{clip-path:url(#SVGID_22_);fill:#FFFFFF;}
	.st12{clip-path:url(#SVGID_24_);fill:#FFFFFF;}
	.st13{clip-path:url(#SVGID_26_);fill:#FFFFFF;}
	.st14{clip-path:url(#SVGID_28_);fill:#FFFFFF;}
	.st15{opacity:0.3;clip-path:url(#SVGID_4_);}
	.st16{clip-path:url(#SVGID_30_);fill:#FFFFFF;}
</style>
<g>
	<defs>
		<rect id="SVGID_1_" width="142.1" height="89.7"/>
	</defs>
	<clipPath id="SVGID_2_">
		<use xlink:href="#SVGID_1_"  style="overflow:visible;"/>
	</clipPath>
	<g class="st0">
		<defs>
			<rect id="SVGID_3_" y="0" width="142.1" height="89.7"/>
		</defs>
		<clipPath id="SVGID_4_">
			<use xlink:href="#SVGID_3_"  style="overflow:visible;"/>
		</clipPath>
		<path class="st1" d="M53,79.8h7.3c0-0.5,0-0.8,0-1.2c0-13.5,0-26.9,0-40.4c0-1.3,0.3-2.5,1.3-3.4c0.8-0.7,1.8-0.9,2.8-0.9
			c1,0,2,0,3.1,0V30c1.9-0.3,3.8-0.6,5.6-0.9c0.4-0.1,1-0.1,1.1-0.4c0.3-0.7,0.5-1.5,0.6-2.3c0-0.1-0.3-0.4-0.5-0.5
			c-1.5-1.2-3.1-2.5-4.7-3.8c1.3-2.2,2.5-4.4,3.8-6.6c1.8,0.7,3.6,1.3,5.3,2.1c0.8,0.4,1.3,0.3,1.9-0.4c0.2-0.2,0.4-0.4,0.6-0.6
			c0.4-0.3,0.4-0.6,0.2-1.1c-0.7-1.9-1.4-3.7-2.2-5.7c2.2-1.3,4.4-2.5,6.6-3.8c1,1.3,2.1,2.5,3,3.8c0.8,1.2,1.7,1.6,3.1,1
			c0.5-0.2,0.8-0.5,0.9-1c0.2-1.7,0.5-3.3,0.7-5c0-0.3,0.1-0.6,0.2-0.9h7.6c0.2,1.5,0.5,2.9,0.7,4.4c0,0.2,0.1,0.4,0.1,0.6
			c-0.1,1.3,0.6,1.9,1.9,2.1c0.7,0.1,1.1,0.1,1.6-0.5c1.1-1.5,2.4-3,3.6-4.5c2.2,1.3,4.4,2.5,6.6,3.8c-0.7,1.9-1.4,3.8-2.2,5.6
			c-0.2,0.5-0.1,0.8,0.2,1.2c1.4,1.4,1.4,1.4,3.2,0.7c1.5-0.6,3-1.2,4.5-1.8c1.3,2.2,2.5,4.4,3.8,6.6c-1.5,1.2-3,2.5-4.5,3.6
			c-0.6,0.5-0.7,0.9-0.5,1.7c0.2,1.3,0.8,1.8,2.1,1.9c1.4,0.1,2.9,0.4,4.3,0.6c0.6,0.1,0.8,0.3,0.8,0.9c-0.1,1,0,2,0,3.1
			c0.5,0,1,0,1.5,0c0.5,0,1,0,1.6,0c2.7,0,4.2,1.5,4.2,4.2c0,13.5,0,27,0,40.5c0,0.3,0,0.7,0,1.1h7.2c0,2.1,0.2,4.1-0.1,6
			c-0.4,2.5-2.5,3.9-5.3,3.9c-6,0-12.1,0-18.1,0c-20,0-39.9,0-59.9,0c-2.3,0-4.1-0.8-5.2-2.9c-0.2-0.4-0.3-0.8-0.5-1.2V79.8z
			 M126.2,42.5H68.9v37.2h57.4V42.5z M129.1,39.7v40h2.9v-1c0-13.5,0-26.9,0-40.4c0-1.4-0.2-1.7-1.7-1.7c-21.9,0-43.8,0-65.6,0
			c-1.4,0-1.7,0.3-1.7,1.7c0,13.5,0,26.9,0,40.4v0.9h3v-40H129.1z M55.7,82.6c0,0.5,0,0.8,0,1.2c0,2.5,0.7,3.2,3.1,3.2
			c24,0,48,0,72,0c1.9,0,3.9,0,5.8,0c1.3,0,2.2-0.5,2.4-1.5c0.2-0.9,0.1-1.9,0.2-2.8H55.7z M70.4,33.8h9.3
			C80,23.3,88.4,16.3,97,16.1c4.1-0.1,7.8,1,11.1,3.5c4.7,3.6,7.1,8.4,7.2,14.3h9.4c0.2-1.4,0.2-1.4-1-1.6c-0.2,0-0.5-0.1-0.7-0.1
			c-1.5-0.2-3-0.5-4.4-0.7c-0.5-1.9-1-3.6-1.5-5.2c-0.2-0.6-0.1-0.9,0.3-1.2c1.5-1.1,2.9-2.3,4.4-3.5c-0.5-0.9-1-1.6-1.4-2.5
			c-0.4,0.1-0.7,0.2-0.9,0.3c-1.5,0.6-3,1.2-4.5,1.7c-0.2,0.1-0.6,0.1-0.8-0.1c-1.4-1.4-2.7-2.8-4.1-4.2c0.7-1.9,1.5-3.8,2.2-5.8
			c-0.9-0.5-1.7-1-2.5-1.4c-1.2,1.5-2.3,2.9-3.5,4.3c-0.3,0.5-0.6,0.6-1.2,0.4c-1.5-0.5-3-0.9-4.5-1.2c-0.5-0.1-0.8-0.3-0.9-0.8
			c-0.2-1.2-0.4-2.4-0.5-3.5C99,6.5,99,6.5,96.8,6.5c-0.5,0-0.8,0.2-0.8,0.7c-0.2,1.6-0.5,3.2-0.7,4.8c-0.1,0.5-0.2,0.8-0.9,1
			c-1.5,0.3-3,0.7-4.4,1.2c-0.6,0.2-1,0.1-1.4-0.4c-1.1-1.4-2.3-2.8-3.4-4.3c-0.9,0.5-1.7,1-2.4,1.4c0,0.1,0,0.2,0,0.3
			c0.7,1.7,1.3,3.4,2,5.1c0.2,0.5,0.1,0.8-0.3,1.1c-0.7,0.6-1.4,1.3-2.1,1.9c-0.6,0.6-1.1,1.6-1.8,1.8c-0.7,0.2-1.7-0.5-2.5-0.8
			c-1.1-0.4-2.2-0.9-3.4-1.3c-0.5,0.9-1,1.7-1.4,2.5c1.5,1.2,3,2.4,4.5,3.6c0.2,0.2,0.4,0.6,0.3,0.8c-0.5,1.8-1,3.6-1.6,5.5
			c-1.6,0.2-3.3,0.5-5,0.8C70.1,32.4,70.1,32.5,70.4,33.8 M112.4,33.9c0.1-8.5-7.2-15.5-15.7-15c-9,0.5-14.4,8.3-14.1,15
			c1.9,0,3.8,0,5.7,0c0.7,0,0.9-0.2,1-0.9c0.4-5.7,6.9-9.2,11.9-6.5c2.7,1.4,4.2,3.7,4.5,6.7c0,0.3,0.3,0.7,0.5,0.7
			C108.3,33.9,110.3,33.9,112.4,33.9 M103,33.9c0-3.1-2.5-5.6-5.5-5.5c-3.1,0.1-5.5,2.7-5.3,5.5H103z"/>
		<path class="st1" d="M81.6,61.8v6.8c-0.8,0-1.6,0-2.4,0c-0.1,0-0.4-0.3-0.4-0.5c0-3.9-0.1-7.8,0.1-11.6c0.1-2.3,2.1-4.1,4.4-4.3
			c0.8,0,1.6,0,2.4,0c2.8,0,4.9,1.9,4.9,4.7c0.1,3.9,0,7.7,0,11.6c0,0.1,0,0.1-0.1,0.2H88v-6.7H81.6z M88,58.9
			c-0.1-1.4,0.4-3-1.1-3.7c-1.4-0.6-3.1-0.7-4.4,0.2c-1.3,0.8-0.7,2.3-0.8,3.5H88z"/>
		<path class="st1" d="M94.4,68.5V52.2c0.1,0,0.2-0.1,0.3-0.1c2.3,0,4.6,0,6.9,0c2.5,0.1,4.4,2,4.7,4.4c0.2,2.4-1.4,4.6-3.8,5.1
			c-1,0.2-2,0.1-3,0.1c-0.7,0-1.4,0-2.2,0v6.8H94.4z M97.2,58.9c1.6,0,3.1,0.1,4.6,0c0.9-0.1,1.7-1,1.7-1.9c0-1-0.7-1.9-1.7-2
			c-1.5-0.1-3,0-4.5,0V58.9z"/>
		<path class="st1" d="M116.2,52.2v2.7h-1.7v10.9h1.7v2.7h-6.3v-2.7c0.6,0,1.1-0.1,1.7-0.1V54.9h-1.7v-2.8H116.2z"/>
		<rect x="72.3" y="59" class="st1" width="2.7" height="2.7"/>
		<rect x="120.1" y="59" class="st1" width="2.7" height="2.7"/>
		<path class="st1" d="M82.4,0v2.9H3.1v7.4h64.4v3H3.1v72.8h45.2v3H0.1c0-0.4-0.1-0.9-0.1-1.3C0,58.9,0,30,0,1c0-0.3,0-0.7,0.1-1
			H82.4z"/>
		<polygon class="st1" points="9.2,80 48.2,80 48.2,82.9 6.2,82.9 6.2,16.6 67.5,16.6 67.5,19.5 9.2,19.5 		"/>
		<g class="st2">
			<g>
				<defs>
					<rect id="SVGID_5_" x="27.8" y="64.9" width="25.5" height="2.9"/>
				</defs>
				<clipPath id="SVGID_6_">
					<use xlink:href="#SVGID_5_"  style="overflow:visible;"/>
				</clipPath>
				<rect x="27.8" y="64.9" class="st3" width="25.5" height="2.9"/>
			</g>
		</g>
		<g class="st2">
			<g>
				<defs>
					<rect id="SVGID_7_" x="27.8" y="25.1" width="25.5" height="2.9"/>
				</defs>
				<clipPath id="SVGID_8_">
					<use xlink:href="#SVGID_7_"  style="overflow:visible;"/>
				</clipPath>
				<rect x="27.8" y="25.1" class="st4" width="25.5" height="2.9"/>
			</g>
		</g>
		<g class="st2">
			<g>
				<defs>
					<rect id="SVGID_9_" x="27.8" y="51.6" width="25.5" height="2.9"/>
				</defs>
				<clipPath id="SVGID_10_">
					<use xlink:href="#SVGID_9_"  style="overflow:visible;"/>
				</clipPath>
				<rect x="27.8" y="51.6" class="st5" width="25.5" height="2.9"/>
			</g>
		</g>
		<g class="st2">
			<g>
				<defs>
					<rect id="SVGID_11_" x="27.8" y="38.4" width="25.5" height="2.9"/>
				</defs>
				<clipPath id="SVGID_12_">
					<use xlink:href="#SVGID_11_"  style="overflow:visible;"/>
				</clipPath>
				<rect x="27.8" y="38.4" class="st6" width="25.5" height="2.9"/>
			</g>
		</g>
		<g class="st2">
			<g>
				<defs>
					<rect id="SVGID_13_" x="14.8" y="64.9" width="9.5" height="9.5"/>
				</defs>
				<clipPath id="SVGID_14_">
					<use xlink:href="#SVGID_13_"  style="overflow:visible;"/>
				</clipPath>
				<path class="st7" d="M24.3,74.4h-9.5v-9.5h9.5V74.4z M21.3,67.9h-3.5v3.5h3.5V67.9z"/>
			</g>
		</g>
		<g class="st2">
			<g>
				<defs>
					<rect id="SVGID_15_" x="14.7" y="51.6" width="9.5" height="9.5"/>
				</defs>
				<clipPath id="SVGID_16_">
					<use xlink:href="#SVGID_15_"  style="overflow:visible;"/>
				</clipPath>
				<path class="st8" d="M14.7,51.6h9.5v9.5h-9.5V51.6z M21.3,54.6h-3.6v3.5h3.6V54.6z"/>
			</g>
		</g>
		<g class="st2">
			<g>
				<defs>
					<rect id="SVGID_17_" x="27.8" y="71.5" width="15.2" height="2.9"/>
				</defs>
				<clipPath id="SVGID_18_">
					<use xlink:href="#SVGID_17_"  style="overflow:visible;"/>
				</clipPath>
				<rect x="27.8" y="71.5" class="st9" width="15.2" height="2.9"/>
			</g>
		</g>
		<g class="st2">
			<g>
				<defs>
					<rect id="SVGID_19_" x="27.8" y="45" width="15.2" height="2.9"/>
				</defs>
				<clipPath id="SVGID_20_">
					<use xlink:href="#SVGID_19_"  style="overflow:visible;"/>
				</clipPath>
				<rect x="27.8" y="45" class="st10" width="15.2" height="2.9"/>
			</g>
		</g>
		<g class="st2">
			<g>
				<defs>
					<rect id="SVGID_21_" x="27.8" y="31.7" width="15.1" height="2.9"/>
				</defs>
				<clipPath id="SVGID_22_">
					<use xlink:href="#SVGID_21_"  style="overflow:visible;"/>
				</clipPath>
				<rect x="27.8" y="31.7" class="st11" width="15.1" height="2.9"/>
			</g>
		</g>
		<g class="st2">
			<g>
				<defs>
					<rect id="SVGID_23_" x="27.8" y="58.3" width="15.2" height="2.9"/>
				</defs>
				<clipPath id="SVGID_24_">
					<use xlink:href="#SVGID_23_"  style="overflow:visible;"/>
				</clipPath>
				<rect x="27.8" y="58.3" class="st12" width="15.2" height="2.9"/>
			</g>
		</g>
		<g class="st2">
			<g>
				<defs>
					<rect id="SVGID_25_" x="13.6" y="39.2" width="11.7" height="8.9"/>
				</defs>
				<clipPath id="SVGID_26_">
					<use xlink:href="#SVGID_25_"  style="overflow:visible;"/>
				</clipPath>
				<path class="st13" d="M25.3,41.3c-2.2,2.2-4.5,4.5-6.8,6.8c-1.6-1.6-3.2-3.2-4.9-4.9c0.6-0.6,1.3-1.2,2-2c0.9,1,1.7,2,2.6,3
					c1.8-1.8,3.4-3.5,5-5.1C24,39.9,24.6,40.6,25.3,41.3"/>
			</g>
		</g>
		<g class="st2">
			<g>
				<defs>
					<rect id="SVGID_27_" x="13.6" y="25.9" width="11.7" height="9"/>
				</defs>
				<clipPath id="SVGID_28_">
					<use xlink:href="#SVGID_27_"  style="overflow:visible;"/>
				</clipPath>
				<path class="st14" d="M13.6,30c0.6-0.6,1.3-1.3,2-2c0.9,1,1.8,1.9,2.7,2.9c1.8-1.8,3.4-3.4,4.9-5c0.7,0.7,1.4,1.4,2,2.1
					c-2.2,2.2-4.6,4.6-6.9,6.9C16.8,33.3,15.2,31.6,13.6,30"/>
			</g>
		</g>
		<rect x="18.2" y="5.2" class="st1" width="2.9" height="2.9"/>
		<rect x="12.2" y="5.3" class="st1" width="2.9" height="2.9"/>
		<rect x="6.2" y="5.2" class="st1" width="2.9" height="2.9"/>
		<g class="st15">
			<g>
				<defs>
					<rect id="SVGID_29_" x="68.3" y="5.2" width="57.8" height="30.8"/>
				</defs>
				<clipPath id="SVGID_30_">
					<use xlink:href="#SVGID_29_"  style="overflow:visible;"/>
				</clipPath>
				<path class="st16" d="M81.4,35.2H68.3l0.2-4l7-1l1-4.3l-5-4.2l2.5-4.5l5.8,2l3.3-2.8l-2-6.7l4-2l4.5,4.8l4-0.7l1.3-6.5l5.2-0.2
					l1,5.5l4.5,1.8l3.7-4.5l4.5,1.5l-2.3,6.7l3.2,3.5l5.8-2l2.8,3.7l-4.7,4.7l0.3,3.2l7,2.2l0.2,3.3L113.4,36
					c0,0,1.4-18.3-15.5-18.3S81.4,35.2,81.4,35.2"/>
			</g>
		</g>
	</g>
</g>
</svg>
