<?xml version="1.0" encoding="utf-8"?>
<!-- Generator: Adobe Illustrator 19.1.0, SVG Export Plug-In . SVG Version: 6.00 Build 0)  -->
<svg version="1.1" id="Layer_1" xmlns="http://www.w3.org/2000/svg" xmlns:xlink="http://www.w3.org/1999/xlink" x="0px" y="0px"
	 viewBox="0 0 155.9 95" style="enable-background:new 0 0 155.9 95;" xml:space="preserve">
<style type="text/css">
	.st0{clip-path:url(#SVGID_2_);}
	.st1{clip-path:url(#SVGID_4_);fill:#FFFFFF;}
	.st2{opacity:0.6;clip-path:url(#SVGID_4_);}
	.st3{clip-path:url(#SVGID_6_);fill:#FFFFFF;}
	.st4{clip-path:url(#SVGID_8_);fill:#FFFFFF;}
	.st5{clip-path:url(#SVGID_10_);fill:#FFFFFF;}
	.st6{clip-path:url(#SVGID_12_);fill:#FFFFFF;}
	.st7{clip-path:url(#SVGID_14_);fill:#FFFFFF;}
	.st8{clip-path:url(#SVGID_16_);fill:#FFFFFF;}
	.st9{clip-path:url(#SVGID_18_);fill:#FFFFFF;}
	.st10{clip-path:url(#SVGID_20_);fill:#FFFFFF;}
	.st11{clip-path:url(#SVGID_22_);fill:#FFFFFF;}
	.st12{clip-path:url(#SVGID_24_);fill:#FFFFFF;}
	.st13{clip-path:url(#SVGID_26_);fill:#FFFFFF;}
	.st14{clip-path:url(#SVGID_28_);fill:#FFFFFF;}
	.st15{clip-path:url(#SVGID_30_);fill:#FFFFFF;}
	.st16{clip-path:url(#SVGID_32_);fill:#FFFFFF;}
	.st17{opacity:0.3;clip-path:url(#SVGID_4_);}
	.st18{clip-path:url(#SVGID_34_);fill:#FFFFFF;}
	.st19{clip-path:url(#SVGID_36_);fill:#FFFFFF;}
</style>
<g>
	<defs>
		<rect id="SVGID_1_" width="155.9" height="95"/>
	</defs>
	<clipPath id="SVGID_2_">
		<use xlink:href="#SVGID_1_"  style="overflow:visible;"/>
	</clipPath>
	<g class="st0">
		<defs>
			<rect id="SVGID_3_" y="0" width="155.9" height="95"/>
		</defs>
		<clipPath id="SVGID_4_">
			<use xlink:href="#SVGID_3_"  style="overflow:visible;"/>
		</clipPath>
		<path class="st1" d="M96.3,0c0,1.9-0.1,3.7-0.1,5.6c0,0.8-0.2,1-1,1c-0.7-0.1-1.3,0-2.1,0V3h-1c-17.3,0-70.7,0-88,0
			C3.2,3,3,3.3,3,4.2c0,22,0,44,0,66c0,0.3,0,0.6,0,1h3.5v3H0V0H96.3z"/>
		<path class="st1" d="M0,94.4v-8.2h3c0,1.5,0,2.9,0,4.3c0,0.7,0.2,1,0.9,0.9c1.4-0.1,2.8,0,4.4,0v3H0z"/>
		<path class="st1" d="M116.4,0v8.2h-3c0-1.5,0-2.9,0-4.4c0-0.6-0.2-0.9-0.8-0.8c-1.4,0-2.9,0-4.5,0V0H116.4z"/>
		<polygon class="st1" points="13.2,81.3 16.6,81.3 16.6,84.2 10.2,84.2 10.2,10.2 106.3,10.2 106.3,16.6 103.4,16.6 103.4,13.2 
			13.2,13.2 		"/>
		<g class="st2">
			<g>
				<defs>
					<rect id="SVGID_5_" x="53.4" y="57.9" width="54.6" height="2.9"/>
				</defs>
				<clipPath id="SVGID_6_">
					<use xlink:href="#SVGID_5_"  style="overflow:visible;"/>
				</clipPath>
				<rect x="53.4" y="57.9" class="st3" width="54.6" height="2.9"/>
			</g>
		</g>
		<g class="st2">
			<g>
				<defs>
					<rect id="SVGID_7_" x="29.9" y="45.4" width="19.4" height="2.9"/>
				</defs>
				<clipPath id="SVGID_8_">
					<use xlink:href="#SVGID_7_"  style="overflow:visible;"/>
				</clipPath>
				<rect x="29.9" y="45.4" class="st4" width="19.4" height="2.9"/>
			</g>
		</g>
		<g class="st2">
			<g>
				<defs>
					<rect id="SVGID_9_" x="53.4" y="83" width="54.6" height="2.9"/>
				</defs>
				<clipPath id="SVGID_10_">
					<use xlink:href="#SVGID_9_"  style="overflow:visible;"/>
				</clipPath>
				<rect x="53.4" y="83" class="st5" width="54.6" height="2.9"/>
			</g>
		</g>
		<g class="st2">
			<g>
				<defs>
					<rect id="SVGID_11_" x="29.8" y="70.5" width="19.5" height="2.9"/>
				</defs>
				<clipPath id="SVGID_12_">
					<use xlink:href="#SVGID_11_"  style="overflow:visible;"/>
				</clipPath>
				<rect x="29.8" y="70.5" class="st6" width="19.5" height="2.9"/>
			</g>
		</g>
		<g class="st2">
			<g>
				<defs>
					<rect id="SVGID_13_" x="39.3" y="51.7" width="10.1" height="2.9"/>
				</defs>
				<clipPath id="SVGID_14_">
					<use xlink:href="#SVGID_13_"  style="overflow:visible;"/>
				</clipPath>
				<rect x="39.2" y="51.7" class="st7" width="10.1" height="2.9"/>
			</g>
		</g>
		<g class="st2">
			<g>
				<defs>
					<rect id="SVGID_15_" x="53.4" y="45.5" width="45.1" height="2.9"/>
				</defs>
				<clipPath id="SVGID_16_">
					<use xlink:href="#SVGID_15_"  style="overflow:visible;"/>
				</clipPath>
				<rect x="53.4" y="45.5" class="st8" width="45.1" height="2.9"/>
			</g>
		</g>
		<g class="st2">
			<g>
				<defs>
					<rect id="SVGID_17_" x="53.4" y="51.7" width="45.1" height="2.9"/>
				</defs>
				<clipPath id="SVGID_18_">
					<use xlink:href="#SVGID_17_"  style="overflow:visible;"/>
				</clipPath>
				<rect x="53.4" y="51.7" class="st9" width="45.1" height="2.9"/>
			</g>
		</g>
		<g class="st2">
			<g>
				<defs>
					<rect id="SVGID_19_" x="39.3" y="58" width="10.1" height="2.9"/>
				</defs>
				<clipPath id="SVGID_20_">
					<use xlink:href="#SVGID_19_"  style="overflow:visible;"/>
				</clipPath>
				<rect x="39.3" y="58" class="st10" width="10.1" height="2.9"/>
			</g>
		</g>
		<g class="st2">
			<g>
				<defs>
					<rect id="SVGID_21_" x="53.4" y="70.4" width="45.1" height="2.9"/>
				</defs>
				<clipPath id="SVGID_22_">
					<use xlink:href="#SVGID_21_"  style="overflow:visible;"/>
				</clipPath>
				<rect x="53.4" y="70.4" class="st11" width="45.1" height="2.9"/>
			</g>
		</g>
		<g class="st2">
			<g>
				<defs>
					<rect id="SVGID_23_" x="39.3" y="76.7" width="10" height="2.9"/>
				</defs>
				<clipPath id="SVGID_24_">
					<use xlink:href="#SVGID_23_"  style="overflow:visible;"/>
				</clipPath>
				<rect x="39.3" y="76.7" class="st12" width="10" height="2.9"/>
			</g>
		</g>
		<g class="st2">
			<g>
				<defs>
					<rect id="SVGID_25_" x="53.4" y="76.7" width="45.1" height="2.9"/>
				</defs>
				<clipPath id="SVGID_26_">
					<use xlink:href="#SVGID_25_"  style="overflow:visible;"/>
				</clipPath>
				<rect x="53.4" y="76.7" class="st13" width="45.1" height="2.9"/>
			</g>
		</g>
		<g class="st2">
			<g>
				<defs>
					<rect id="SVGID_27_" x="39.3" y="82.9" width="10" height="2.9"/>
				</defs>
				<clipPath id="SVGID_28_">
					<use xlink:href="#SVGID_27_"  style="overflow:visible;"/>
				</clipPath>
				<rect x="39.3" y="82.9" class="st14" width="10" height="2.9"/>
			</g>
		</g>
		<g class="st2">
			<g>
				<defs>
					<rect id="SVGID_29_" x="29.9" y="39.2" width="9.3" height="2.9"/>
				</defs>
				<clipPath id="SVGID_30_">
					<use xlink:href="#SVGID_29_"  style="overflow:visible;"/>
				</clipPath>
				<rect x="29.9" y="39.2" class="st15" width="9.3" height="2.9"/>
			</g>
		</g>
		<g class="st2">
			<g>
				<defs>
					<rect id="SVGID_31_" x="29.9" y="64.2" width="9.3" height="2.9"/>
				</defs>
				<clipPath id="SVGID_32_">
					<use xlink:href="#SVGID_31_"  style="overflow:visible;"/>
				</clipPath>
				<rect x="29.9" y="64.2" class="st16" width="9.3" height="2.9"/>
			</g>
		</g>
		<path class="st1" d="M40.3,28.4L40.3,28.4c-0.8,0-1.5-0.6-1.5-1.4v0c0-0.8,0.6-1.4,1.4-1.4h0c0.8,0,1.4,0.6,1.4,1.4v0
			C41.7,27.8,41.1,28.4,40.3,28.4"/>
		<path class="st1" d="M35.7,27L35.7,27c0,0.8-0.6,1.4-1.4,1.4h0c-0.8,0-1.4-0.6-1.4-1.4c0-0.8,0.6-1.4,1.4-1.4h0
			C35,25.5,35.7,26.2,35.7,27"/>
		<path class="st1" d="M28.1,28.4L28.1,28.4c-0.8,0-1.4-0.6-1.4-1.4v0c0-0.8,0.6-1.4,1.4-1.4h0c0.8,0,1.4,0.6,1.4,1.4v0
			C29.6,27.8,28.9,28.4,28.1,28.4"/>
		<path class="st1" d="M116.1,70.6c-1-0.9-1.8-1.8-2.6-2.8c0,7.5,0,15,0,22.5c0,0.8-0.2,1.1-1.1,1.1c-17.4,0-70.8,0-88.1,0h-1V33.8
			h90.2v1c0,0.2,0,0.4,0,0.6c0.9-1.1,1.9-2.1,3-3.1V20.2H20.2c0,0.4,0,0.6,0,0.9c0,21.6,0,43.2,0,64.9c0,2.8,0,5.6-0.1,8.4h96.3
			V70.9C116.3,70.8,116.2,70.7,116.1,70.6 M23.3,23.3h90.1v7.3H23.3V23.3z"/>
		<path class="st1" d="M154,42.6c-3.1-6.9-8.4-11.3-15.6-13.1c-0.9-0.2-1.8-0.3-2.7-0.5c-0.4-0.1-0.8-0.1-1.2-0.2l0,0l-2.6,0
			l-0.6,0.1c-0.5,0.1-0.9,0.1-1.4,0.2c-4.3,0.6-8.1,2.3-11.2,5c-6.4,5.5-9.1,12.6-8,20.8c0.7,5.3,3.2,9.9,7.3,13.6
			c2,1.8,3.4,3.8,4.3,6.1c0.5,1.3,0.8,2.6,1,4h-1.7v3h1.8v1.5h-1.8v3h1.8v1.5h-1.8v2.9h23.2v-3h-1.8V86h1.7v-3h-1.8v-1.5h1.8v-3H143
			c0,0,0-0.1,0-0.1c0.5-3.8,2.2-7.1,5-9.6c4.1-3.7,6.7-8.3,7.6-13.6C156.3,50.8,155.8,46.5,154,42.6 M139.9,87.5h-13.6v-1.4h13.6
			V87.5z M139.9,83h-13.6v-1.4h13.6V83z M140,78.3c0,0.1,0,0.1,0,0.2h-2.6v-6.8h-3v6.8h-2.7v-6.8h-3v6.8h-2.6l-0.1-0.4
			c-0.1-0.5-0.2-1.1-0.3-1.6c-0.8-3.9-2.7-7.2-5.8-10c-4.2-3.8-6.5-8.5-6.7-14c-0.4-8.9,5.3-17.1,13.8-19.8
			c8.6-2.7,18.2,0.9,22.7,8.5c4.3,7.3,4.1,14.6-0.7,21.9c-0.7,1-1.6,2.1-2.9,3.2C142.5,69.7,140.5,73.6,140,78.3"/>
		<polygon class="st1" points="127.9,92.9 127.9,95 138.2,95 138.2,92.1 127.9,92.1 		"/>
		<polygon class="st1" points="129.9,47.5 128,45.4 121.8,51.5 128,57.8 130.1,55.7 125.8,51.5 		"/>
		<polygon class="st1" points="136.1,47.4 140.4,51.6 136.2,55.7 138.2,57.7 144.3,51.6 138.2,45.5 		"/>
		<rect x="131.6" y="45.9" class="st1" width="2.9" height="2.9"/>
		<rect x="131.6" y="50.1" class="st1" width="2.9" height="2.9"/>
		<rect x="131.6" y="54.4" class="st1" width="2.9" height="2.9"/>
		<g class="st17">
			<g>
				<defs>
					<rect id="SVGID_33_" x="111.8" y="30.4" width="43.2" height="49"/>
				</defs>
				<clipPath id="SVGID_34_">
					<use xlink:href="#SVGID_33_"  style="overflow:visible;"/>
				</clipPath>
				<path class="st18" d="M155.1,52c0-11.9-9.7-21.6-21.6-21.6s-21.6,9.7-21.6,21.6c0,8.4,6.2,15.4,10,19.2l1.8,8.2h18.2l1.5-7.4
					C148.6,67.4,155.1,61,155.1,52"/>
			</g>
		</g>
		<g class="st17">
			<g>
				<defs>
					<rect id="SVGID_35_" x="1.8" y="1.6" width="102.7" height="81.2"/>
				</defs>
				<clipPath id="SVGID_36_">
					<use xlink:href="#SVGID_35_"  style="overflow:visible;"/>
				</clipPath>
				<polygon class="st19" points="104.6,21.4 104.6,11.4 94.8,11.4 94.8,1.6 1.8,1.6 1.8,72.9 11.6,72.9 11.6,82.9 21.8,82.9 
					21.8,22.1 				"/>
			</g>
		</g>
	</g>
</g>
</svg>
