<?xml version="1.0" encoding="utf-8"?>
<!-- Generator: Adobe Illustrator 19.1.0, SVG Export Plug-In . SVG Version: 6.00 Build 0)  -->
<svg version="1.1" id="Layer_1" xmlns="http://www.w3.org/2000/svg" xmlns:xlink="http://www.w3.org/1999/xlink" x="0px" y="0px"
	 viewBox="0 0 252.5 183.7" style="enable-background:new 0 0 252.5 183.7;" xml:space="preserve">
<style type="text/css">
	.st0{clip-path:url(#SVGID_2_);}
	.st1{clip-path:url(#SVGID_4_);fill:#FFFFFF;}
	.st2{opacity:0.35;clip-path:url(#SVGID_4_);}
	.st3{clip-path:url(#SVGID_6_);fill:#FFFFFF;}
	.st4{clip-path:url(#SVGID_8_);fill:#FFFFFF;}
	.st5{clip-path:url(#SVGID_10_);fill:#FFFFFF;}
	.st6{clip-path:url(#SVGID_12_);fill:#FFFFFF;}
	.st7{clip-path:url(#SVGID_14_);fill:#FFFFFF;}
	.st8{clip-path:url(#SVGID_16_);fill:#FFFFFF;}
	.st9{clip-path:url(#SVGID_18_);fill:#FFFFFF;}
	.st10{clip-path:url(#SVGID_20_);fill:#FFFFFF;}
	.st11{clip-path:url(#SVGID_22_);fill:#FFFFFF;}
	.st12{opacity:0.6;clip-path:url(#SVGID_4_);}
	.st13{clip-path:url(#SVGID_24_);fill:#FFFFFF;}
	.st14{clip-path:url(#SVGID_4_);fill:none;stroke:#FFFFFF;stroke-width:2.5;stroke-linecap:round;stroke-miterlimit:10;}
	
		.st15{clip-path:url(#SVGID_4_);fill:none;stroke:#FFFFFF;stroke-width:2.5;stroke-linecap:round;stroke-miterlimit:10;stroke-dasharray:4,6;}
	
		.st16{clip-path:url(#SVGID_4_);fill:none;stroke:#FFFFFF;stroke-width:2.5;stroke-linecap:round;stroke-miterlimit:10;stroke-dasharray:4.194,6.292;}
	
		.st17{clip-path:url(#SVGID_4_);fill:none;stroke:#FFFFFF;stroke-width:2.5;stroke-linecap:round;stroke-miterlimit:10;stroke-dasharray:4.172,6.258;}
	
		.st18{clip-path:url(#SVGID_4_);fill:none;stroke:#FFFFFF;stroke-width:2.5;stroke-linecap:round;stroke-miterlimit:10;stroke-dasharray:2.313,3.469;}
	
		.st19{clip-path:url(#SVGID_4_);fill:none;stroke:#FFFFFF;stroke-width:2.5;stroke-linecap:round;stroke-miterlimit:10;stroke-dasharray:3.932,5.897;}
</style>
<g>
	<defs>
		<rect id="SVGID_1_" width="252.5" height="183.7"/>
	</defs>
	<clipPath id="SVGID_2_">
		<use xlink:href="#SVGID_1_"  style="overflow:visible;"/>
	</clipPath>
	<g class="st0">
		<defs>
			<rect id="SVGID_3_" width="252.5" height="183.7"/>
		</defs>
		<clipPath id="SVGID_4_">
			<use xlink:href="#SVGID_3_"  style="overflow:visible;"/>
		</clipPath>
		<path class="st1" d="M63,79.4L63,79.4l-0.1-1.7l-1.7,0.2c-0.2,0-20.6,2.5-22,25.3l-0.1,1.8l1.8-0.1C41.2,104.8,64.2,103,63,79.4
			 M43.2,101.3l-0.6,0.1l0.1-0.6c2-14,12.2-18.1,16.6-19.3l0.6-0.1l0,0.6C59.4,96.3,48.1,100.3,43.2,101.3"/>
		<path class="st1" d="M3.1,155.2c0.3,0.7,7.9,18.5,16.8,25.1c2.5,2.4,8.4,5,15.3,0.4l0.1,0c1-0.4,4.6-1.8,8.5-1.8
			c2.3,0,4.6,0.5,6.6,1.9c1.9,1.3,5.2,2.7,8.6,2.7c3,0,5.5-1.1,7.6-3.2c1.2-1,11.2-9.9,16.4-24.1l0.1-0.3l-0.1-1.7l-1-0.3
			c-8.1-2.6-13.5-10-13.5-18.4c0-7.5,4.2-14.2,11-17.5l1.6-0.8l-0.9-1.5c-0.5-0.8-4.8-7.9-14-10.3c-7.3-1.9-15.6-0.2-24.5,5
			l-0.2,0.1l-0.2-0.1c-3.6-2.2-16.3-8.9-26.2-2.3C12.6,109.4-7.6,121.8,3.1,155.2 M16.8,110.8c9.7-6.5,23.6,2.9,23.8,3l0.9,0.6
			l0.9-0.5c8.6-5.2,16.4-7,23.1-5.2c5.6,1.4,9.1,5,10.8,7l0.3,0.4l-0.4,0.3c-6.8,4.1-10.8,11.3-10.8,19.2c0,9.1,5.4,17.2,13.8,20.8
			l0.4,0.2l-0.2,0.4c-5.2,12.7-14.4,20.8-14.8,21.1l-0.1,0.1c-1.6,1.7-3.5,2.3-5.3,2.3c-3.4,0-6.6-2-6.8-2.2
			c-2.3-1.6-5.1-2.4-8.4-2.4c-5.2,0-9.8,2-10,2.1l-0.3,0.2c-6.4,4.5-10.9,0.5-11.4,0l-0.2-0.2c-7.5-5.5-14.4-20.4-15.7-23.5l0,0
			l-0.1-0.2c-10.4-32.2,9.6-42.7,10.4-43.2L16.8,110.8z"/>
		<g class="st2">
			<g>
				<defs>
					<rect id="SVGID_5_" x="1.3" y="107.8" width="46.5" height="73.3"/>
				</defs>
				<clipPath id="SVGID_6_">
					<use xlink:href="#SVGID_5_"  style="overflow:visible;"/>
				</clipPath>
				<path class="st3" d="M25.3,107.9c0,0-10.8,6-11.4,29.4c-0.4,16.3,7.5,29.8,16.4,34.9c8.9,5.1,17.5,4.4,17.5,4.4
					s-14.1,3.9-17.9,4.4c-3.8,0.4-18.9,0.1-26.9-32.3C-5,116.2,17.4,106.4,25.3,107.9"/>
			</g>
		</g>
		<path class="st1" d="M105,112.9c0,0.8,0.6,1.4,1.4,1.4h52.5c0.8,0,1.4-0.6,1.4-1.4c0-10.4-5.8-19.8-15-24.6l-0.4-0.2l4.9-8.2
			c0.2-0.3,0.3-0.7,0.2-1.1c-0.1-0.4-0.3-0.7-0.7-0.9c-0.3-0.2-0.7-0.3-1.1-0.2c-0.4,0.1-0.7,0.3-0.9,0.7l-5.1,8.5l-0.3-0.1
			c-6-2.2-12.4-2.2-18.5,0l-0.3,0.1l-5.1-8.5c-0.2-0.3-0.5-0.6-0.9-0.7c-0.1,0-0.2,0-0.4,0c-0.3,0-0.5,0.1-0.7,0.2
			c-0.3,0.2-0.6,0.5-0.7,0.9c-0.1,0.4,0,0.8,0.2,1.1l4.9,8.2l-0.4,0.2C110.8,93.1,105,102.6,105,112.9 M132.7,88.1
			c12.9,0,23.7,10.1,24.7,22.9l0,0.5h-49.5l0-0.5C108.9,98.2,119.8,88.1,132.7,88.1"/>
		<path class="st1" d="M145.8,103.1c0.4,0,0.8-0.4,0.8-0.8v-2.5c0-0.4-0.4-0.8-0.8-0.8h-2.5c-0.4,0-0.8,0.4-0.8,0.8v2.5
			c0,0.4,0.4,0.8,0.8,0.8H145.8z"/>
		<path class="st1" d="M119.6,99.1c-0.4,0-0.8,0.4-0.8,0.8v2.5c0,0.4,0.4,0.8,0.8,0.8h2.5c0.4,0,0.8-0.4,0.8-0.8v-2.5
			c0-0.4-0.4-0.8-0.8-0.8H119.6z"/>
		<path class="st1" d="M142.1,183.7c3.9,0,7.1-3.2,7.1-7V165h2.6c4.8,0,8.6-3.9,8.6-8.6v-37.8c0-0.8-0.6-1.4-1.4-1.4h-52.5
			c-0.8,0-1.4,0.6-1.4,1.4v37.8c0,4.8,3.9,8.6,8.6,8.6h2.6v11.7c0,3.9,3.2,7,7.1,7c3.9,0,7.1-3.2,7.1-7V165h4.6v11.7
			C135,180.6,138.2,183.7,142.1,183.7 M128.9,162.1c-0.8,0-1.4,0.6-1.4,1.4v13.1c0,2.3-1.9,4.2-4.2,4.2c-2.3,0-4.2-1.9-4.2-4.2
			v-13.1c0-0.8-0.6-1.4-1.4-1.4h-4.1c-3.2,0-5.8-2.6-5.8-5.7V120h49.6v36.4c0,3.2-2.6,5.7-5.7,5.7h-4.1c-0.8,0-1.4,0.6-1.4,1.4v13.1
			c0,2.3-1.9,4.2-4.2,4.2c-2.3,0-4.2-1.9-4.2-4.2v-13.1c0-0.8-0.6-1.4-1.4-1.4H128.9z"/>
		<path class="st1" d="M169.2,117.1c-3.4,0-6.1,2.8-6.1,6.1v26.2c0,3.4,2.7,6.1,6.1,6.1c3.4,0,6.1-2.7,6.1-6.1v-26.2
			C175.4,119.9,172.6,117.1,169.2,117.1 M172.5,149.5c0,1.8-1.5,3.3-3.2,3.3s-3.2-1.5-3.2-3.3v-26.2c0-1.8,1.5-3.3,3.2-3.3
			s3.2,1.5,3.2,3.3V149.5z"/>
		<path class="st1" d="M96.1,117.1c-3.4,0-6.1,2.8-6.1,6.1v26.2c0,3.4,2.7,6.1,6.1,6.1c3.4,0,6.1-2.7,6.1-6.1v-26.2
			C102.3,119.9,99.5,117.1,96.1,117.1 M99.4,149.5c0,1.8-1.5,3.3-3.2,3.3s-3.2-1.5-3.2-3.3v-26.2c0-1.8,1.5-3.3,3.2-3.3
			s3.2,1.5,3.2,3.3V149.5z"/>
		<g class="st2">
			<g>
				<defs>
					<rect id="SVGID_7_" x="106.1" y="118.7" width="52.9" height="44.5"/>
				</defs>
				<clipPath id="SVGID_8_">
					<use xlink:href="#SVGID_7_"  style="overflow:visible;"/>
				</clipPath>
				<path class="st4" d="M114.3,118.8v30c0,0-0.5,7.6,5.9,7.6H159c0,0-0.3,6.8-5.8,6.8h-39.6c-5.9,0-7.5-6-7.5-8
					c0-18.3,0.2-36.6,0.2-36.6L114.3,118.8z"/>
			</g>
		</g>
		<path class="st1" d="M52.4,29.8h11.8c12.4,0,13.4-7.7,13.5-10c0-2.1-0.8-4-2.2-5.4c-2-1.8-4.7-2.6-8.4-2.6H55.7
			c-0.7,0-1.3,0.4-1.4,1.1l-3.2,15.3c-0.1,0.4,0,0.8,0.1,1.1C51.5,29.7,52,29.8,52.4,29.8 M56.8,14.5H67c2.9,0,5.2,0.7,6.4,1.8
			c1.1,1.1,1.4,2.5,1.4,3.5c0,4.7-3.6,7.2-10.5,7.2H54.2L56.8,14.5z"/>
		<path class="st1" d="M86.7,57.7H75.2c-0.7,0-1.3,0.4-1.4,1.1l-3.2,15.3c-0.1,0.4,0,0.8,0.3,1.1c0.3,0.4,0.7,0.6,1.1,0.6h11.8
			c12.3,0,13.2-7.7,13.4-10C97.2,63.8,96.4,57.7,86.7,57.7 M83.9,73H73.7l2.5-12.5h10.3c6.8,0,7.8,3.3,7.8,5.3
			C94.3,70.5,90.7,73,83.9,73"/>
		<path class="st1" d="M73.6,42.1c0-2-0.8-8.1-10.6-8.1H51.5c-0.7,0-1.3,0.4-1.4,1.1l-3.2,15.3c0,0.4,0,0.8,0.3,1.1
			c0.3,0.4,0.7,0.6,1.1,0.6h11.8C72.4,52.1,73.4,44.4,73.6,42.1 M60.2,49.3H50l2.6-12.5h10.2c6.8,0,7.8,3.3,7.8,5.3
			C70.6,46.8,67,49.3,60.2,49.3"/>
		<path class="st1" d="M115.9,49.3h-11.4c-0.7,0-1.3,0.4-1.4,1.1l-3.2,13.9c0,0.4,0,0.8,0.3,1.1c0.3,0.4,0.7,0.6,1.1,0.6h11.8
			c11.6,0,13.2-5.9,13.4-9.3C126.5,53.9,125.1,49.3,115.9,49.3 M113.1,63.3h-10l2.4-11.1h10.3c5.2,0,7.8,1.5,7.8,4.6
			C123.6,61,120.1,63.3,113.1,63.3"/>
		<path class="st1" d="M120.1,25.6h-11.4c-0.7,0-1.3,0.4-1.4,1.1l-3.2,13.9c0,0.4,0,0.8,0.3,1.1c0.3,0.4,0.7,0.6,1.1,0.6h11.8
			c11.6,0,13.2-5.9,13.4-9.3C130.7,30.2,129.3,25.6,120.1,25.6 M117.3,39.6h-10l2.4-11.1H120c5.2,0,7.8,1.5,7.8,4.6
			C127.8,37.3,124.3,39.6,117.3,39.6"/>
		<path class="st1" d="M91,34H79.5c-0.7,0-1.3,0.4-1.4,1.1L75,50.4c-0.1,0.4,0,0.7,0.3,1.1c0.3,0.4,0.7,0.6,1.1,0.6h11.8
			c12.4,0,13.4-7.7,13.4-10C101.6,40.1,100.7,34,91,34 M88.3,49.3H78.2l2.6-12.5H91c6.8,0,7.8,3.3,7.8,5.3
			C98.8,46.8,95.2,49.3,88.3,49.3"/>
		<path class="st1" d="M80.5,29.8h11.8c12.3,0,13.2-7.7,13.4-10c0-2-0.8-8.1-10.6-8.1H83.7c-0.7,0-1.3,0.4-1.4,1.1l-3.2,15.3
			c-0.1,0.4,0,0.8,0.3,1.1C79.7,29.7,80.1,29.8,80.5,29.8 M84.8,14.5H95c6.8,0,7.8,3.3,7.8,5.3c0,4.7-3.6,7.2-10.5,7.2H82.2
			L84.8,14.5z"/>
		<g class="st2">
			<g>
				<defs>
					<rect id="SVGID_9_" x="52.4" y="12.9" width="11.3" height="16"/>
				</defs>
				<clipPath id="SVGID_10_">
					<use xlink:href="#SVGID_9_"  style="overflow:visible;"/>
				</clipPath>
				<polygon class="st5" points="63.8,12.9 55.6,13.4 52.4,28.2 59.9,28.9 				"/>
			</g>
		</g>
		<g class="st2">
			<g>
				<defs>
					<rect id="SVGID_11_" x="47.9" y="35.7" width="11.3" height="16"/>
				</defs>
				<clipPath id="SVGID_12_">
					<use xlink:href="#SVGID_11_"  style="overflow:visible;"/>
				</clipPath>
				<polygon class="st6" points="59.3,35.7 51.1,36.2 47.9,51 55.4,51.7 				"/>
			</g>
		</g>
		<path class="st1" d="M174.5,6.2v31.2h41.4V0L174.5,6.2z M213.3,34.8h-36.2V8.4l36.2-5.3V34.8z"/>
		<path class="st1" d="M139.6,37.8h32.3V6.5l-32.3,4.8V37.8z M142.2,13.5l27.2-4v25.7h-27.2V13.5z"/>
		<path class="st1" d="M174.5,70.6l41.4,6.2V40.4h-41.4V70.6z M177.1,43h36.2v30.9l-36.2-5.4V43z"/>
		<path class="st1" d="M139.6,65.6l32.3,4.8v-30h-32.3V65.6z M142.2,43h27.2v24.5l-27.2-4V43z"/>
		<g class="st2">
			<g>
				<defs>
					<rect id="SVGID_13_" x="140.2" y="11.8" width="30.5" height="25.3"/>
				</defs>
				<clipPath id="SVGID_14_">
					<use xlink:href="#SVGID_13_"  style="overflow:visible;"/>
				</clipPath>
				<polygon class="st7" points="146.5,11.8 146.7,30.2 170.3,30 170.7,36.5 140.2,37.2 140.5,12.2 				"/>
			</g>
		</g>
		<g class="st2">
			<g>
				<defs>
					<rect id="SVGID_15_" x="175.5" y="6.7" width="39.7" height="30.5"/>
				</defs>
				<clipPath id="SVGID_16_">
					<use xlink:href="#SVGID_15_"  style="overflow:visible;"/>
				</clipPath>
				<polygon class="st8" points="183.2,6.7 183,29.3 214.8,28.9 215.2,36.4 175.5,37.2 175.9,8.3 				"/>
			</g>
		</g>
		<g class="st2">
			<g>
				<defs>
					<rect id="SVGID_17_" x="140.2" y="41" width="30.5" height="27.8"/>
				</defs>
				<clipPath id="SVGID_18_">
					<use xlink:href="#SVGID_17_"  style="overflow:visible;"/>
				</clipPath>
				<polygon class="st9" points="146.3,41 146.7,59.2 170.3,62.3 170.7,68.8 140.2,64.8 140.5,41.3 				"/>
			</g>
		</g>
		<g class="st2">
			<g>
				<defs>
					<rect id="SVGID_19_" x="175.5" y="41.7" width="39.7" height="33.8"/>
				</defs>
				<clipPath id="SVGID_20_">
					<use xlink:href="#SVGID_19_"  style="overflow:visible;"/>
				</clipPath>
				<polygon class="st10" points="182.6,41.8 183,64.2 214.8,68.2 215.2,75.5 175.5,70.5 175.9,41.7 				"/>
			</g>
		</g>
		<path class="st1" d="M198.8,142.6c0.1,1.5,1.4,2.6,2.8,2.6h25.2l-0.7,7.6c0,0.1-0.1,0.2-0.2,0.2l-6.7,1.8
			c-0.3,0.1-0.6,0.2-0.8,0.2c-0.2-0.1-0.5-0.1-0.8-0.2l-6.7-1.8c-0.1,0-0.2-0.2-0.2-0.2l-0.4-4c-0.1-1.5-1.4-2.6-2.8-2.6H202
			c-0.7,0-1.5,0.3-2,0.9c-0.5,0.5-0.7,1.3-0.7,2l0.9,10.3c0.1,1.3,1.1,2.5,2.4,2.9l14.2,4c1.1,0.3,1.4,0.4,1.6,0.4
			c0.1,0,0.2,0,0.3,0c0,0,0.1,0,1.3-0.4l14.2-3.9c1.1-0.3,2.2-1.1,2.3-2.3l2.1-23.1c0.1-0.7-0.2-1.4-0.6-1.9
			c-0.5-0.5-1.2-0.8-1.9-0.8h-27.1l-0.5-5.3h29.3c0.8,0,1.4-0.6,1.5-1.4l0.6-7c0.1-0.7-0.2-1.4-0.6-1.9c-0.5-0.5-1.2-0.9-2-0.9
			h-38.1c-0.8,0-1.5,0.3-2,0.9c-0.5,0.5-0.7,1.2-0.6,1.9L198.8,142.6z M237.2,120.7l-0.5,5.1h-28.4c-0.7,0-1.5,0.3-2,0.9
			c-0.5,0.5-0.7,1.3-0.7,2l0.5,5.9c0.1,1.5,1.4,2.6,2.8,2.6h26.6l-2,22.2c0,0-0.1,0-0.2,0.1l-14.2,3.9c-0.3,0.1-0.6,0.2-0.8,0.2
			c-0.2-0.1-0.5-0.1-0.8-0.2l-14.2-3.9c-0.1,0-0.2-0.2-0.2-0.2l-0.9-9.8h5.1l0.3,3.9c0.1,1.3,1.2,2.5,2.4,2.9l6.7,1.8
			c1.4,0.4,1.4,0.4,1.6,0.4c0.2,0,0.2,0,1.6-0.4l6.7-1.8c1.3-0.3,2.3-1.6,2.4-2.9l0.7-8.1c0.1-0.7-0.2-1.5-0.7-2
			c-0.5-0.5-1.2-0.9-2-0.9h-25.5l-1.9-21.5H237.2z"/>
		<g class="st2">
			<g>
				<defs>
					<rect id="SVGID_21_" x="196.8" y="117.7" width="43.4" height="48.9"/>
				</defs>
				<clipPath id="SVGID_22_">
					<use xlink:href="#SVGID_21_"  style="overflow:visible;"/>
				</clipPath>
				<path class="st11" d="M198.8,142.6c0.1,1.5,1.4,2.6,2.8,2.6h25.2l-0.7,7.6c0,0.1-0.1,0.2-0.2,0.2l-6.7,1.8
					c-0.3,0.1-0.6,0.2-0.8,0.2c-0.2-0.1-0.5-0.1-0.8-0.2l-6.7-1.8c-0.1,0-0.2-0.1-0.2-0.2l-0.4-4c-0.1-1.5-1.4-2.6-2.8-2.6H202
					c-0.7,0-1.5,0.3-2,0.9c-0.5,0.5-0.7,1.3-0.7,2l0.9,10.3c0.1,1.3,1.1,2.5,2.4,2.9l14.2,4c1.1,0.3,1.4,0.4,1.6,0.4
					c0.1,0,0.2,0,0.3,0c0,0,0.1,0,1.3-0.4l14.2-3.9c1.1-0.3,2.2-1.1,2.3-2.3l2.1-23.1c0.1-0.7-0.2-1.4-0.6-1.9
					c-0.5-0.5-1.2-0.8-1.9-0.8h-27.1l-0.5-5.3h29.3c0.8,0,1.4-0.6,1.5-1.4l0.6-7c0.1-0.7-0.2-1.4-0.6-1.9c-0.5-0.5-1.2-0.9-2-0.9
					h-38.2c-0.8,0-1.5,0.3-2,0.9c-0.5,0.5-0.7,1.2-0.6,1.9L198.8,142.6z"/>
			</g>
		</g>
		<path class="st1" d="M251.7,105c-0.5-0.5-1.2-0.9-2-0.9h-62.3c-0.7,0-1.5,0.3-2,0.9c-0.5,0.5-0.7,1.3-0.7,2l5.7,63.6
			c0.1,1.3,1.1,2.5,2.4,2.9l24.1,6.7c0.5,0.1,1,0.2,1.6,0.2c0.6,0,1.1-0.1,1.6-0.2l24.2-6.7c1.3-0.3,2.3-1.6,2.4-2.9l5.7-63.6
			C252.4,106.3,252.2,105.6,251.7,105 M243.6,170.4c0,0.1-0.1,0.2-0.2,0.2l-24.2,6.7c-0.4,0.1-1.2,0.1-1.5,0l-24.1-6.7
			c-0.1,0-0.2-0.2-0.2-0.2l-5.6-63.2h61.4L243.6,170.4z"/>
		<path class="st1" d="M208.8,109.4H192c-0.8,0-1.5,0.7-1.5,1.5c0,0.8,0.7,1.5,1.5,1.5h16.9c0.8,0,1.5-0.7,1.5-1.5
			C210.4,110,209.7,109.4,208.8,109.4"/>
		<path class="st1" d="M215.1,109.4h-0.6c-0.8,0-1.5,0.7-1.5,1.5c0,0.8,0.7,1.5,1.5,1.5h0.6c0.8,0,1.5-0.7,1.5-1.5
			C216.6,110,215.9,109.4,215.1,109.4"/>
		<g class="st12">
			<g>
				<defs>
					<rect id="SVGID_23_" x="187.9" y="82.9" width="64.6" height="16.6"/>
				</defs>
				<clipPath id="SVGID_24_">
					<use xlink:href="#SVGID_23_"  style="overflow:visible;"/>
				</clipPath>
				<path class="st13" d="M198.4,84.4c0-0.2,0-0.5,0.1-0.6s0.2-0.3,0.4-0.5c0.1-0.1,0.3-0.2,0.5-0.3c0.2-0.1,0.4-0.1,0.6-0.1
					c0.2,0,0.4,0,0.6,0.1c0.2,0.1,0.3,0.2,0.5,0.3c0.1,0.1,0.3,0.3,0.4,0.5c0.1,0.2,0.1,0.4,0.1,0.7v13.5c0,0.2,0,0.5-0.1,0.7
					c-0.1,0.2-0.2,0.3-0.4,0.5c-0.1,0.1-0.3,0.2-0.5,0.3c-0.2,0.1-0.4,0.1-0.6,0.1s-0.4,0-0.6-0.1c-0.2-0.1-0.3-0.2-0.5-0.3
					c-0.1-0.1-0.3-0.3-0.4-0.5c-0.1-0.2-0.1-0.4-0.1-0.7v-5.9H191v5.9c0,0.2,0,0.5-0.1,0.7c-0.1,0.2-0.2,0.3-0.4,0.5
					c-0.1,0.1-0.3,0.2-0.5,0.3c-0.2,0.1-0.4,0.1-0.6,0.1c-0.2,0-0.4,0-0.6-0.1c-0.2-0.1-0.3-0.2-0.5-0.3c-0.1-0.1-0.3-0.3-0.4-0.5
					c-0.1-0.2-0.1-0.4-0.1-0.7V84.4c0-0.2,0-0.5,0.1-0.6c0.1-0.2,0.2-0.3,0.4-0.5c0.1-0.1,0.3-0.2,0.5-0.3c0.2-0.1,0.4-0.1,0.6-0.1
					c0.2,0,0.4,0,0.6,0.1c0.2,0.1,0.4,0.2,0.5,0.3c0.1,0.1,0.3,0.3,0.4,0.5c0.1,0.2,0.1,0.4,0.1,0.7v5.3h7.4V84.4z"/>
				<path class="st13" d="M204.2,85.2c-0.2,0-0.4,0-0.5-0.1c-0.2-0.1-0.3-0.2-0.4-0.3c-0.1-0.1-0.2-0.2-0.2-0.4
					c0-0.1-0.1-0.3-0.1-0.4c0-0.1,0-0.3,0.1-0.4c0.1-0.1,0.1-0.3,0.2-0.4c0.1-0.1,0.2-0.2,0.4-0.3c0.1-0.1,0.3-0.1,0.5-0.1h10.9
					c0.2,0,0.4,0,0.5,0.1c0.1,0.1,0.3,0.2,0.4,0.3c0.1,0.1,0.2,0.2,0.2,0.4s0.1,0.3,0.1,0.4c0,0.1,0,0.3-0.1,0.4
					c-0.1,0.1-0.1,0.3-0.2,0.4c-0.1,0.1-0.2,0.2-0.4,0.3c-0.1,0.1-0.3,0.1-0.5,0.1h-3.9v12.8c0,0.2,0,0.5-0.1,0.7
					c-0.1,0.2-0.2,0.3-0.4,0.5c-0.1,0.1-0.3,0.2-0.5,0.3c-0.2,0.1-0.4,0.1-0.6,0.1c-0.2,0-0.4,0-0.6-0.1c-0.2-0.1-0.3-0.2-0.5-0.3
					c-0.1-0.1-0.3-0.3-0.4-0.5c-0.1-0.2-0.1-0.4-0.1-0.7V85.2H204.2z"/>
				<path class="st13" d="M228.1,95.7l4.7-10.6c0.2-0.4,0.4-0.8,0.5-1.1c0.2-0.3,0.4-0.5,0.6-0.7c0.2-0.2,0.4-0.3,0.7-0.4
					c0.2-0.1,0.5-0.1,0.8-0.1c0.3,0,0.6,0,0.8,0.1c0.3,0.1,0.5,0.2,0.7,0.4c0.2,0.2,0.4,0.5,0.5,0.8c0.1,0.3,0.2,0.7,0.2,1.1v12.7
					c0,0.2,0,0.4-0.1,0.6c-0.1,0.2-0.2,0.3-0.3,0.4c-0.1,0.1-0.3,0.2-0.4,0.3c-0.2,0.1-0.3,0.1-0.5,0.1s-0.3,0-0.5-0.1
					c-0.1-0.1-0.3-0.1-0.4-0.3c-0.1-0.1-0.2-0.2-0.3-0.4c-0.1-0.2-0.1-0.4-0.1-0.6V85.8l-5.1,11.7c-0.1,0.2-0.2,0.4-0.3,0.6
					c-0.1,0.2-0.3,0.3-0.4,0.4c-0.2,0.1-0.3,0.2-0.5,0.3c-0.2,0.1-0.4,0.1-0.5,0.1c-0.4,0-0.7-0.1-1-0.3c-0.3-0.2-0.6-0.5-0.7-1
					l-5.1-11.6v12.2c0,0.2,0,0.4-0.1,0.6c-0.1,0.2-0.2,0.3-0.3,0.4c-0.1,0.1-0.3,0.2-0.4,0.3c-0.2,0.1-0.3,0.1-0.5,0.1
					s-0.3,0-0.5-0.1c-0.2-0.1-0.3-0.1-0.4-0.3c-0.1-0.1-0.2-0.2-0.3-0.4c-0.1-0.2-0.1-0.4-0.1-0.6V85.3c0-0.4,0.1-0.8,0.2-1.1
					c0.1-0.3,0.3-0.6,0.5-0.8c0.2-0.2,0.4-0.3,0.7-0.4c0.3-0.1,0.6-0.1,0.9-0.1c0.3,0,0.6,0,0.8,0.1s0.5,0.2,0.7,0.4
					c0.2,0.2,0.4,0.4,0.6,0.7c0.2,0.3,0.4,0.7,0.5,1.1L228.1,95.7L228.1,95.7z"/>
				<path class="st13" d="M243.2,99.4c-0.2,0-0.4,0-0.6-0.1c-0.2-0.1-0.4-0.2-0.5-0.3c-0.1-0.1-0.3-0.3-0.3-0.5
					c-0.1-0.2-0.1-0.4-0.1-0.6V84.4c0-0.2,0-0.5,0.1-0.7c0.1-0.2,0.2-0.3,0.4-0.5c0.1-0.1,0.3-0.2,0.5-0.3c0.2-0.1,0.4-0.1,0.6-0.1
					c0.2,0,0.4,0,0.6,0.1c0.2,0.1,0.3,0.2,0.5,0.3c0.1,0.1,0.3,0.3,0.4,0.5c0.1,0.2,0.1,0.4,0.1,0.7v12.7h6.7c0.2,0,0.4,0,0.5,0.1
					c0.1,0.1,0.3,0.2,0.4,0.3c0.1,0.1,0.2,0.2,0.2,0.4s0.1,0.3,0.1,0.4c0,0.1,0,0.3-0.1,0.4c-0.1,0.1-0.1,0.3-0.2,0.4
					c-0.1,0.1-0.2,0.2-0.4,0.3c-0.1,0.1-0.3,0.1-0.5,0.1H243.2z"/>
			</g>
		</g>
		<line class="st14" x1="116.1" y1="166.4" x2="114.1" y2="166.4"/>
		<line class="st15" x1="108.1" y1="166.4" x2="81.1" y2="166.4"/>
		<line class="st14" x1="78.1" y1="166.4" x2="76.1" y2="166.4"/>
		<line class="st14" x1="191.1" y1="166.4" x2="189.1" y2="166.4"/>
		<line class="st16" x1="182.8" y1="166.4" x2="154.5" y2="166.4"/>
		<line class="st14" x1="151.4" y1="166.4" x2="149.4" y2="166.4"/>
		<line class="st14" x1="215.1" y1="26.9" x2="217.1" y2="26.9"/>
		<path class="st17" d="M223.4,26.9h4c6.6,0,12,5.4,12,12v36.6"/>
		<line class="st14" x1="239.4" y1="78.7" x2="239.4" y2="80.7"/>
		<line class="st14" x1="127.1" y1="26.9" x2="129.1" y2="26.9"/>
		<line class="st18" x1="132.6" y1="26.9" x2="136.6" y2="26.9"/>
		<line class="st14" x1="138.4" y1="26.9" x2="140.4" y2="26.9"/>
		<line class="st14" x1="13.3" y1="110.2" x2="13.3" y2="108.2"/>
		<path class="st19" d="M13.3,102.3V38.9c0-6.6,5.4-12,12-12h23"/>
		<line class="st14" x1="51.2" y1="26.9" x2="53.2" y2="26.9"/>
	</g>
</g>
</svg>
