<?xml version="1.0" encoding="utf-8"?>
<!-- Generator: Adobe Illustrator 19.1.0, SVG Export Plug-In . SVG Version: 6.00 Build 0)  -->
<svg version="1.1" id="Layer_1" xmlns="http://www.w3.org/2000/svg" xmlns:xlink="http://www.w3.org/1999/xlink" x="0px" y="0px"
	 viewBox="0 0 267.6 121.6" style="enable-background:new 0 0 267.6 121.6;" xml:space="preserve">
<style type="text/css">
	.st0{clip-path:url(#SVGID_2_);}
	.st1{clip-path:url(#SVGID_4_);fill:#FFFFFF;}
	.st2{opacity:0.35;clip-path:url(#SVGID_4_);}
	.st3{clip-path:url(#SVGID_6_);fill:#FFFFFF;}
	.st4{clip-path:url(#SVGID_8_);fill:#FFFFFF;}
	.st5{clip-path:url(#SVGID_10_);fill:#FFFFFF;}
	.st6{clip-path:url(#SVGID_12_);fill:#FFFFFF;}
	.st7{opacity:0.3;clip-path:url(#SVGID_4_);}
	.st8{clip-path:url(#SVGID_14_);fill:#FFFFFF;}
</style>
<g>
	<defs>
		<rect id="SVGID_1_" width="267.6" height="121.6"/>
	</defs>
	<clipPath id="SVGID_2_">
		<use xlink:href="#SVGID_1_"  style="overflow:visible;"/>
	</clipPath>
	<g class="st0">
		<defs>
			<rect id="SVGID_3_" width="267.6" height="121.6"/>
		</defs>
		<clipPath id="SVGID_4_">
			<use xlink:href="#SVGID_3_"  style="overflow:visible;"/>
		</clipPath>
		<path class="st1" d="M174.8,40.6c0,0.9,0.7,1.6,1.6,1.6h60.1c0.9,0,1.6-0.7,1.6-1.6c0-11.9-6.6-22.7-17.2-28.2l-0.5-0.2l5.6-9.4
			c0.2-0.4,0.3-0.8,0.2-1.2c-0.1-0.4-0.4-0.8-0.8-1c-0.4-0.2-0.8-0.3-1.2-0.2c-0.4,0.1-0.8,0.4-1,0.8l-5.9,9.8l-0.4-0.1
			c-6.9-2.5-14.2-2.5-21.2,0l-0.4,0.1l-5.9-9.8c-0.2-0.4-0.6-0.6-1-0.8c-0.1,0-0.3-0.1-0.4-0.1c-0.3,0-0.6,0.1-0.8,0.2
			c-0.4,0.2-0.6,0.6-0.8,1c-0.1,0.4,0,0.9,0.2,1.2l5.6,9.4l-0.5,0.2C181.4,17.9,174.8,28.7,174.8,40.6 M206.5,12.2
			c14.8,0,27.2,11.5,28.3,26.2l0,0.5h-56.7l0-0.5C179.3,23.7,191.7,12.2,206.5,12.2"/>
		<path class="st1" d="M221.5,29.3c0.5,0,0.9-0.4,0.9-0.9v-2.8c0-0.5-0.4-0.9-0.9-0.9h-2.8c-0.5,0-0.9,0.4-0.9,0.9v2.8
			c0,0.5,0.4,0.9,0.9,0.9H221.5z"/>
		<path class="st1" d="M191.5,24.7c-0.5,0-0.9,0.4-0.9,0.9v2.8c0,0.5,0.4,0.9,0.9,0.9h2.8c0.5,0,0.9-0.4,0.9-0.9v-2.8
			c0-0.5-0.4-0.9-0.9-0.9H191.5z"/>
		<path class="st1" d="M217.2,121.6c4.5,0,8.1-3.6,8.1-8.1v-13.4h3c5.4,0,9.9-4.4,9.9-9.9V47c0-0.9-0.7-1.6-1.6-1.6h-60.1
			c-0.9,0-1.6,0.7-1.6,1.6v43.3c0,5.4,4.4,9.9,9.9,9.9h3v13.4c0,4.5,3.6,8.1,8.1,8.1c4.5,0,8.1-3.6,8.1-8.1v-13.4h5.3v13.4
			C209.1,118,212.8,121.6,217.2,121.6 M202.2,96.9c-0.9,0-1.6,0.7-1.6,1.6v15c0,2.6-2.1,4.8-4.8,4.8c-2.6,0-4.8-2.1-4.8-4.8v-15
			c0-0.9-0.7-1.6-1.6-1.6h-4.6c-3.6,0-6.6-2.9-6.6-6.6V48.6h56.8v41.6c0,3.6-3,6.6-6.6,6.6h-4.6c-0.9,0-1.6,0.7-1.6,1.6v15
			c0,2.6-2.1,4.8-4.8,4.8c-2.6,0-4.8-2.1-4.8-4.8v-15c0-0.9-0.7-1.6-1.6-1.6H202.2z"/>
		<path class="st1" d="M248.4,45.4c-3.9,0-7,3.2-7,7v30c0,3.9,3.1,7,7,7s7-3.1,7-7v-30C255.4,48.5,252.2,45.4,248.4,45.4
			 M252.1,82.4c0,2.1-1.7,3.7-3.7,3.7c-2.1,0-3.7-1.7-3.7-3.7v-30c0-2.1,1.7-3.7,3.7-3.7c2.1,0,3.7,1.7,3.7,3.7V82.4z"/>
		<path class="st1" d="M164.6,45.4c-3.9,0-7,3.2-7,7v30c0,3.9,3.1,7,7,7c3.9,0,7-3.1,7-7v-30C171.7,48.5,168.5,45.4,164.6,45.4
			 M168.4,82.4c0,2.1-1.7,3.7-3.7,3.7c-2.1,0-3.7-1.7-3.7-3.7v-30c0-2.1,1.7-3.7,3.7-3.7c2.1,0,3.7,1.7,3.7,3.7V82.4z"/>
		<path class="st1" d="M79.2,1.9L79.2,1.9L79.1,0l-1.9,0.2c-0.2,0-23.6,2.9-25.2,29l-0.1,2.1l2.1-0.1C54.2,31.1,80.6,29,79.2,1.9
			 M56.5,27l-0.7,0.1l0.1-0.7c2.2-16,14-20.8,19-22.1l0.6-0.2l0,0.7C75.1,21.4,62.1,25.9,56.5,27"/>
		<path class="st1" d="M10.6,88.8c0.3,0.8,9,21.1,19.3,28.7c2.8,2.7,9.6,5.8,17.5,0.4l0.1,0c1.1-0.5,5.3-2.1,9.8-2.1
			c2.6,0,5.3,0.5,7.6,2.1c2.2,1.5,6,3.1,9.9,3.1c3.4,0,6.3-1.2,8.7-3.6c1.3-1.1,12.8-11.4,18.8-27.6l0.1-0.4l-0.1-1.9l-1.2-0.4
			c-9.3-3-15.5-11.5-15.5-21.1c0-8.6,4.8-16.2,12.6-20l1.8-0.9l-1-1.7c-0.5-0.9-5.5-9-16-11.7c-8.4-2.1-17.8-0.2-28.1,5.7l-0.3,0.1
			l-0.3-0.2c-4.2-2.5-18.7-10.2-30-2.7C21.5,36.3-1.7,50.5,10.6,88.8 M26.2,37.9c11.1-7.4,27,3.3,27.2,3.4l1,0.7l1-0.6
			c9.9-6,18.8-8,26.5-6c6.4,1.6,10.5,5.7,12.3,8l0.4,0.4l-0.5,0.3c-7.7,4.7-12.4,13-12.4,22c0,10.4,6.2,19.7,15.8,23.8l0.5,0.2
			l-0.2,0.5c-6,14.5-16.5,23.8-17,24.2l-0.2,0.2c-1.8,1.9-4,2.6-6.1,2.6c-3.9,0-7.5-2.3-7.7-2.5c-2.6-1.9-5.9-2.8-9.7-2.8
			c-5.9,0-11.3,2.3-11.5,2.4l-0.3,0.2c-7.3,5.1-12.4,0.6-13,0l-0.3-0.2c-8.6-6.3-16.4-23.4-18-27l0,0l-0.1-0.2
			C2.2,50.6,25,38.6,26,38.1L26.2,37.9z"/>
		<path class="st1" d="M123.8,92.4c0.6,0.2,1.2,0.1,1.6-0.3l24-24c0.3-0.3,0.4-0.7,0.4-1.1s-0.2-0.8-0.4-1.1l-24-24
			c-0.4-0.4-1.1-0.6-1.6-0.3c-0.6,0.2-0.9,0.8-0.9,1.4v9.5h-17.2c-0.8,0-1.5,0.7-1.5,1.5v26c0,0.8,0.7,1.5,1.5,1.5h17.2V91
			C122.8,91.6,123.2,92.1,123.8,92.4 M107.2,78.4v-23h17.2c0.8,0,1.5-0.7,1.5-1.5v-7.4l20.4,20.4l-20.4,20.4v-7.4
			c0-0.8-0.7-1.5-1.5-1.5H107.2z"/>
		<g class="st2">
			<g>
				<defs>
					<rect id="SVGID_5_" x="8.6" y="34.5" width="53.3" height="83.9"/>
				</defs>
				<clipPath id="SVGID_6_">
					<use xlink:href="#SVGID_5_"  style="overflow:visible;"/>
				</clipPath>
				<path class="st3" d="M36,34.6c0,0-12.3,6.8-13,33.7c-0.5,18.6,8.6,34.1,18.8,40c10.2,5.8,20,5,20,5s-16.2,4.5-20.5,5
					c-4.3,0.5-21.7,0.2-30.8-37C1.3,44.1,27,32.9,36,34.6"/>
			</g>
		</g>
		<g class="st2">
			<g>
				<defs>
					<rect id="SVGID_7_" x="176" y="47.2" width="60.6" height="51"/>
				</defs>
				<clipPath id="SVGID_8_">
					<use xlink:href="#SVGID_7_"  style="overflow:visible;"/>
				</clipPath>
				<path class="st4" d="M185.5,47.3v34.4c0,0-0.6,8.8,6.8,8.8h44.4c0,0-0.4,7.8-6.6,7.8h-45.4c-6.8,0-8.6-6.9-8.6-9.1
					c0-21,0.2-41.9,0.2-41.9L185.5,47.3z"/>
			</g>
		</g>
		<g class="st2">
			<g>
				<defs>
					<rect id="SVGID_9_" x="105.7" y="72.4" width="37.2" height="18.3"/>
				</defs>
				<clipPath id="SVGID_10_">
					<use xlink:href="#SVGID_9_"  style="overflow:visible;"/>
				</clipPath>
				<polygon class="st5" points="105.8,72.4 142.8,72.4 124.7,90.8 123.7,80.1 105.7,80.1 				"/>
			</g>
		</g>
		<g class="st2">
			<g>
				<defs>
					<rect id="SVGID_11_" x="230.4" y="2.7" width="37.2" height="36.7"/>
				</defs>
				<clipPath id="SVGID_12_">
					<use xlink:href="#SVGID_11_"  style="overflow:visible;"/>
				</clipPath>
				<rect x="258.4" y="30.2" class="st6" width="9.2" height="9.2"/>
				<rect x="258.4" y="16.7" class="st6" width="9.2" height="9.2"/>
				<rect x="244.4" y="30.2" class="st6" width="9.2" height="9.2"/>
				<rect x="244.4" y="16.7" class="st6" width="9.2" height="9.2"/>
				<rect x="244.4" y="2.7" class="st6" width="9.2" height="9.2"/>
				<rect x="230.4" y="2.7" class="st6" width="9.2" height="9.2"/>
			</g>
		</g>
		<g class="st7">
			<g>
				<defs>
					<rect id="SVGID_13_" y="5.1" width="45.7" height="31.7"/>
				</defs>
				<clipPath id="SVGID_14_">
					<use xlink:href="#SVGID_13_"  style="overflow:visible;"/>
				</clipPath>
				<path class="st8" d="M33.7,24.1H4.3c-2,0-3.7-1.6-3.7-3.7c0-2,1.6-3.7,3.7-3.7h29.3c2,0,3.7,1.7,3.7,3.7
					C37.3,22.5,35.7,24.1,33.7,24.1"/>
				<path class="st8" d="M42,12.4H12.7c-2,0-3.7-1.6-3.7-3.7c0-2,1.6-3.7,3.7-3.7H42c2,0,3.7,1.7,3.7,3.7C45.7,10.8,44,12.4,42,12.4
					"/>
				<path class="st8" d="M25.5,29.4H3.7c-2,0-3.7,1.7-3.7,3.7c0,2,1.7,3.7,3.7,3.7h11.8C17.9,33.6,21.4,31,25.5,29.4"/>
			</g>
		</g>
	</g>
</g>
</svg>
